G04 DipTrace 3.1.0.0*
G04 BottomSilk.gbr*
%MOIN*%
G04 #@! TF.FileFunction,Legend,Bot*
G04 #@! TF.Part,Single*
%ADD10C,0.009843*%
%ADD12C,0.002992*%
%ADD86C,0.003088*%
%FSLAX26Y26*%
G04*
G70*
G90*
G75*
G01*
G04 BotSilk*
%LPD*%
X499565Y310000D2*
D10*
G02X499565Y310000I35435J0D01*
G01*
X617677Y367087D2*
Y233228D1*
X452323D1*
Y386772D1*
X599968D1*
X617677Y369053D1*
X613742Y349369D2*
X796565Y470000D2*
G02X796565Y470000I35435J0D01*
G01*
X749323Y412913D2*
Y546772D1*
X914677D1*
Y393228D1*
X767032D1*
X749323Y410947D1*
X753258Y430631D2*
X794565Y150000D2*
G02X794565Y150000I35435J0D01*
G01*
X747323Y92913D2*
Y226772D1*
X912677D1*
Y73228D1*
X765032D1*
X747323Y90947D1*
X751258Y110631D2*
X1090562Y310000D2*
G02X1090562Y310000I35438J0D01*
G01*
X1068913Y392677D2*
X1202772D1*
Y227323D1*
X1049228D1*
Y374968D1*
X1066947Y392677D1*
X1086631Y388742D2*
X474682Y1621412D2*
D12*
X483659D1*
X589879D2*
X595864D1*
X829249D2*
X835234D1*
X473986Y1619916D2*
X486767D1*
X547990D2*
X552478D1*
X587008D2*
X598741D1*
X729013D2*
X748462D1*
X829249D2*
X835234D1*
X939958D2*
X945942D1*
X968383D2*
X972871D1*
X995312D2*
X1001297D1*
X1043186D2*
X1050667D1*
X1077596D2*
X1085076D1*
X473524Y1618420D2*
X489488D1*
X547990D2*
X553126D1*
X584705D2*
X601090D1*
X725962D2*
X748462D1*
X829249D2*
X835234D1*
X886100D2*
X892084D1*
X940649D2*
X946454D1*
X967687D2*
X973383D1*
X994801D2*
X1000600D1*
X1044445D2*
X1051594D1*
X1076847D2*
X1083817D1*
X473186Y1616924D2*
X491753D1*
X547990D2*
X553945D1*
X582971D2*
X602963D1*
X723433D2*
X748462D1*
X829249D2*
X835234D1*
X886100D2*
X892084D1*
X941084D2*
X946899D1*
X967204D2*
X973834D1*
X994350D2*
X1000118D1*
X1045518D2*
X1052447D1*
X1075979D2*
X1082745D1*
X480028Y1615428D2*
X493508D1*
X547990D2*
X555874D1*
X581693D2*
X588389D1*
X597354D2*
X604408D1*
X721526D2*
X748462D1*
X829249D2*
X835234D1*
X886100D2*
X892084D1*
X941354D2*
X947188D1*
X966796D2*
X974170D1*
X994014D2*
X999710D1*
X1046436D2*
X1053249D1*
X1075111D2*
X1081826D1*
X484971Y1613932D2*
X494810D1*
X547990D2*
X558262D1*
X580699D2*
X586951D1*
X598791D2*
X605428D1*
X720155D2*
X727523D1*
X742478D2*
X748462D1*
X829249D2*
X835234D1*
X886100D2*
X892084D1*
X941641D2*
X947388D1*
X966342D2*
X974507D1*
X993676D2*
X999255D1*
X1047306D2*
X1054024D1*
X1074286D2*
X1080957D1*
X488220Y1612436D2*
X495819D1*
X547990D2*
X560395D1*
X579851D2*
X585699D1*
X600044D2*
X606153D1*
X719120D2*
X726085D1*
X742478D2*
X748462D1*
X829249D2*
X835234D1*
X886100D2*
X892084D1*
X942039D2*
X947644D1*
X965913D2*
X974932D1*
X993252D2*
X998827D1*
X1048227D2*
X1054829D1*
X1073454D2*
X1080036D1*
X490341Y1610940D2*
X496680D1*
X547990D2*
X561999D1*
X579115D2*
X584757D1*
X600985D2*
X606766D1*
X718302D2*
X724838D1*
X742478D2*
X748462D1*
X829249D2*
X835234D1*
X886100D2*
X892084D1*
X942443D2*
X948030D1*
X965585D2*
X975348D1*
X992841D2*
X998498D1*
X1049202D2*
X1055723D1*
X1072547D2*
X1079061D1*
X491760Y1609444D2*
X497471D1*
X547990D2*
X562543D1*
X578547D2*
X584062D1*
X601681D2*
X607259D1*
X717701D2*
X723950D1*
X742478D2*
X748462D1*
X829249D2*
X835234D1*
X886100D2*
X892084D1*
X942762D2*
X948429D1*
X965250D2*
X970173D1*
X972871D2*
X975672D1*
X992564D2*
X998164D1*
X1050122D2*
X1056688D1*
X1071578D2*
X1078141D1*
X492760Y1607948D2*
X498231D1*
X547990D2*
X553974D1*
X578200D2*
X583459D1*
X602284D2*
X607569D1*
X685627D2*
X693108D1*
X717347D2*
X723445D1*
X742478D2*
X748462D1*
X814289D2*
X818777D1*
X829243D2*
X835234D1*
X850194D2*
X857675D1*
X886100D2*
X892084D1*
X914525D2*
X926493D1*
X943093D2*
X948747D1*
X964827D2*
X969298D1*
X972877D2*
X976005D1*
X992369D2*
X997740D1*
X1019249D2*
X1028226D1*
X1050970D2*
X1057604D1*
X1070659D2*
X1077298D1*
X493488Y1606452D2*
X498931D1*
X547990D2*
X553974D1*
X577977D2*
X582970D1*
X602773D2*
X607776D1*
X636257D2*
X642241D1*
X664682D2*
X670667D1*
X682756D2*
X696490D1*
X717177D2*
X723200D1*
X742478D2*
X748462D1*
X811828D2*
X821716D1*
X829187D2*
X835234D1*
X847100D2*
X861063D1*
X875627D2*
X896572D1*
X911654D2*
X929256D1*
X943515D2*
X949077D1*
X964416D2*
X968791D1*
X972930D2*
X976428D1*
X992114D2*
X997329D1*
X1016551D2*
X1030924D1*
X1051811D2*
X1058451D1*
X1069817D2*
X1076504D1*
X494062Y1604956D2*
X499486D1*
X547990D2*
X553974D1*
X577710D2*
X582667D1*
X603075D2*
X608036D1*
X637005D2*
X642989D1*
X663935D2*
X669919D1*
X680453D2*
X699239D1*
X717152D2*
X723101D1*
X742478D2*
X748462D1*
X809886D2*
X824306D1*
X828955D2*
X835234D1*
X844565D2*
X863858D1*
X875627D2*
X896572D1*
X909351D2*
X931303D1*
X943931D2*
X949500D1*
X964139D2*
X968496D1*
X973120D2*
X976844D1*
X991729D2*
X997052D1*
X1014186D2*
X1033289D1*
X1052721D2*
X1059292D1*
X1069023D2*
X1075732D1*
X494595Y1603459D2*
X499829D1*
X547990D2*
X553974D1*
X577321D2*
X582513D1*
X603230D2*
X608423D1*
X637632D2*
X643610D1*
X663313D2*
X669292D1*
X678719D2*
X701257D1*
X717312D2*
X723112D1*
X742478D2*
X748462D1*
X808520D2*
X826771D1*
X828444D2*
X835234D1*
X843449D2*
X866020D1*
X875627D2*
X896572D1*
X907616D2*
X931976D1*
X944255D2*
X949915D1*
X963944D2*
X968200D1*
X973479D2*
X977168D1*
X991329D2*
X996857D1*
X1012242D2*
X1035233D1*
X1053692D2*
X1060201D1*
X1068246D2*
X1074929D1*
X495082Y1601963D2*
X500051D1*
X547990D2*
X553974D1*
X576926D2*
X582444D1*
X603299D2*
X608817D1*
X638261D2*
X644192D1*
X662732D2*
X668663D1*
X677446D2*
X684188D1*
X696100D2*
X702681D1*
X717664D2*
X723292D1*
X742478D2*
X748462D1*
X807597D2*
X814352D1*
X822965D2*
X835234D1*
X843026D2*
X848698D1*
X858820D2*
X867659D1*
X875627D2*
X896572D1*
X906344D2*
X913092D1*
X927990D2*
X932478D1*
X944588D2*
X950239D1*
X963689D2*
X967800D1*
X973862D2*
X977501D1*
X991012D2*
X996602D1*
X1010699D2*
X1017759D1*
X1029716D2*
X1036776D1*
X1054611D2*
X1061177D1*
X1067380D2*
X1074035D1*
X479171Y1600467D2*
X486651D1*
X495022D2*
X500316D1*
X547990D2*
X553974D1*
X576661D2*
X582416D1*
X603327D2*
X609082D1*
X638931D2*
X644725D1*
X662199D2*
X667992D1*
X676499D2*
X682890D1*
X697590D2*
X703741D1*
X718102D2*
X723709D1*
X742478D2*
X748462D1*
X806936D2*
X813106D1*
X825278D2*
X835234D1*
X842714D2*
X844210D1*
X860993D2*
X868882D1*
X886100D2*
X892084D1*
X905403D2*
X911846D1*
X945011D2*
X950572D1*
X963304D2*
X967395D1*
X974129D2*
X977924D1*
X990681D2*
X996217D1*
X1009515D2*
X1016316D1*
X1031159D2*
X1037960D1*
X1055459D2*
X1062136D1*
X1066207D2*
X1073071D1*
X476984Y1598971D2*
X492542D1*
X493975D2*
X500705D1*
X547990D2*
X553974D1*
X576521D2*
X582405D1*
X603338D2*
X609222D1*
X639596D2*
X645216D1*
X661708D2*
X667328D1*
X675789D2*
X681811D1*
X699028D2*
X704616D1*
X718611D2*
X724445D1*
X742478D2*
X748462D1*
X806355D2*
X812217D1*
X827026D2*
X835234D1*
X862579D2*
X869802D1*
X886100D2*
X892084D1*
X904745D2*
X910817D1*
X945427D2*
X950995D1*
X962904D2*
X967076D1*
X974320D2*
X978335D1*
X990259D2*
X995817D1*
X1008609D2*
X1015016D1*
X1032459D2*
X1038866D1*
X1056300D2*
X1063109D1*
X1064560D2*
X1072154D1*
X475064Y1597475D2*
X501100D1*
X547990D2*
X553974D1*
X576457D2*
X582401D1*
X603342D2*
X609286D1*
X640185D2*
X645733D1*
X661191D2*
X666739D1*
X675222D2*
X680947D1*
X700275D2*
X705368D1*
X719356D2*
X725499D1*
X742478D2*
X748462D1*
X805876D2*
X811712D1*
X828354D2*
X835234D1*
X863738D2*
X870457D1*
X886100D2*
X892084D1*
X904368D2*
X910545D1*
X945751D2*
X951406D1*
X962587D2*
X966744D1*
X974575D2*
X978612D1*
X989843D2*
X995500D1*
X1007960D2*
X1013937D1*
X1033538D2*
X1039515D1*
X1057209D2*
X1071307D1*
X473409Y1595979D2*
X501365D1*
X547990D2*
X553974D1*
X576430D2*
X582400D1*
X603343D2*
X609312D1*
X640706D2*
X646238D1*
X660686D2*
X666218D1*
X674679D2*
X680320D1*
X701163D2*
X705992D1*
X720416D2*
X729468D1*
X742478D2*
X748462D1*
X805578D2*
X811468D1*
X828817D2*
X835234D1*
X864661D2*
X870883D1*
X886100D2*
X892084D1*
X904184D2*
X910475D1*
X946084D2*
X951683D1*
X962256D2*
X966322D1*
X974959D2*
X978807D1*
X989519D2*
X995169D1*
X1007536D2*
X1013073D1*
X1034402D2*
X1039939D1*
X1058180D2*
X1070467D1*
X472060Y1594483D2*
X479228D1*
X490782D2*
X501505D1*
X547990D2*
X553974D1*
X576420D2*
X582399D1*
X603344D2*
X609322D1*
X641237D2*
X646724D1*
X660200D2*
X665687D1*
X674215D2*
X679952D1*
X701670D2*
X706525D1*
X721741D2*
X735920D1*
X742478D2*
X748462D1*
X805425D2*
X811363D1*
X829066D2*
X835234D1*
X865428D2*
X871257D1*
X886100D2*
X892084D1*
X904104D2*
X913858D1*
X946507D2*
X951878D1*
X961834D2*
X965912D1*
X975359D2*
X979062D1*
X989186D2*
X994747D1*
X1007162D2*
X1012446D1*
X1035029D2*
X1040313D1*
X1059093D2*
X1069563D1*
X471079Y1592987D2*
X477929D1*
X492903D2*
X501569D1*
X510588D2*
X528541D1*
X547990D2*
X553974D1*
X576417D2*
X582399D1*
X603344D2*
X609326D1*
X641747D2*
X647284D1*
X659640D2*
X665177D1*
X673922D2*
X679762D1*
X701926D2*
X707055D1*
X723268D2*
X748462D1*
X805357D2*
X811321D1*
X829178D2*
X835234D1*
X866008D2*
X871696D1*
X886100D2*
X892084D1*
X904071D2*
X918374D1*
X946923D2*
X952133D1*
X961418D2*
X965635D1*
X975676D2*
X979447D1*
X988763D2*
X994331D1*
X1006724D2*
X1012079D1*
X1035396D2*
X1040751D1*
X1059883D2*
X1068645D1*
X470369Y1591491D2*
X476850D1*
X494534D2*
X501596D1*
X510588D2*
X528541D1*
X547990D2*
X553974D1*
X576415D2*
X582399D1*
X603344D2*
X609327D1*
X642235D2*
X647926D1*
X658998D2*
X664695D1*
X673771D2*
X707515D1*
X724777D2*
X748462D1*
X805329D2*
X811305D1*
X829223D2*
X835234D1*
X866353D2*
X872111D1*
X886100D2*
X892084D1*
X904059D2*
X923103D1*
X947247D2*
X952518D1*
X961094D2*
X965440D1*
X976007D2*
X979847D1*
X988353D2*
X994008D1*
X1006309D2*
X1011899D1*
X1035576D2*
X1041167D1*
X1060480D2*
X1067922D1*
X469761Y1589995D2*
X475987D1*
X495101D2*
X501606D1*
X510588D2*
X528541D1*
X547990D2*
X553974D1*
X576421D2*
X582399D1*
X603344D2*
X609322D1*
X642796D2*
X648578D1*
X658345D2*
X664181D1*
X673703D2*
X707806D1*
X726070D2*
X748462D1*
X805318D2*
X811299D1*
X829240D2*
X835234D1*
X866526D2*
X872384D1*
X886100D2*
X892084D1*
X904055D2*
X926993D1*
X947580D2*
X952918D1*
X960761D2*
X965185D1*
X976429D2*
X980164D1*
X988076D2*
X993675D1*
X1006036D2*
X1011819D1*
X1035656D2*
X1041440D1*
X1060835D2*
X1067491D1*
X469270Y1588499D2*
X475359D1*
X495405D2*
X501604D1*
X510588D2*
X528541D1*
X547990D2*
X553974D1*
X576473D2*
X582399D1*
X603344D2*
X609270D1*
X643437D2*
X649164D1*
X657760D2*
X663677D1*
X673674D2*
X707956D1*
X726565D2*
X748462D1*
X805314D2*
X811298D1*
X829246D2*
X835234D1*
X866602D2*
X872528D1*
X886100D2*
X892084D1*
X904053D2*
X929805D1*
X948003D2*
X953235D1*
X960338D2*
X964800D1*
X976839D2*
X980495D1*
X987881D2*
X993251D1*
X1005892D2*
X1011788D1*
X1035687D2*
X1041583D1*
X1061012D2*
X1067277D1*
X468967Y1587003D2*
X474993D1*
X495541D2*
X501552D1*
X547990D2*
X553974D1*
X576664D2*
X582399D1*
X603344D2*
X609079D1*
X644090D2*
X649683D1*
X657241D2*
X663192D1*
X673659D2*
X708018D1*
X725590D2*
X733558D1*
X742478D2*
X748462D1*
X805313D2*
X811297D1*
X829248D2*
X835234D1*
X866633D2*
X872587D1*
X886100D2*
X892084D1*
X904053D2*
X910037D1*
X920095D2*
X931763D1*
X948419D2*
X953566D1*
X959928D2*
X964406D1*
X977116D2*
X980917D1*
X987626D2*
X992835D1*
X1005833D2*
X1011776D1*
X1035699D2*
X1041642D1*
X1061089D2*
X1067183D1*
X468812Y1585507D2*
X474812D1*
X495590D2*
X501362D1*
X547990D2*
X553974D1*
X577022D2*
X582405D1*
X603338D2*
X608721D1*
X644676D2*
X650219D1*
X656705D2*
X662632D1*
X702078D2*
X707993D1*
X724557D2*
X732254D1*
X742478D2*
X748462D1*
X805313D2*
X811297D1*
X829249D2*
X835234D1*
X866639D2*
X872561D1*
X886100D2*
X892084D1*
X904053D2*
X910037D1*
X923515D2*
X933126D1*
X948743D2*
X953988D1*
X959651D2*
X964135D1*
X977311D2*
X981333D1*
X987241D2*
X992512D1*
X1005859D2*
X1011771D1*
X1035704D2*
X1041616D1*
X1061121D2*
X1067145D1*
X468749Y1584011D2*
X474733D1*
X495558D2*
X501004D1*
X547990D2*
X553974D1*
X577406D2*
X582457D1*
X603285D2*
X608337D1*
X645195D2*
X650791D1*
X656133D2*
X661990D1*
X702026D2*
X707813D1*
X723549D2*
X731117D1*
X742478D2*
X748462D1*
X805312D2*
X811297D1*
X829249D2*
X835234D1*
X866590D2*
X872380D1*
X886100D2*
X892084D1*
X904053D2*
X910037D1*
X925983D2*
X934101D1*
X949076D2*
X954404D1*
X959444D2*
X963943D1*
X977566D2*
X981668D1*
X986841D2*
X992178D1*
X1006040D2*
X1011776D1*
X1035699D2*
X1041435D1*
X1061133D2*
X1067131D1*
X468773Y1582515D2*
X474707D1*
X495374D2*
X500615D1*
X547990D2*
X553974D1*
X577672D2*
X582648D1*
X603095D2*
X608070D1*
X645725D2*
X651545D1*
X655379D2*
X661338D1*
X701829D2*
X707459D1*
X722491D2*
X730004D1*
X742478D2*
X748462D1*
X805312D2*
X811297D1*
X829249D2*
X835234D1*
X866401D2*
X872026D1*
X886100D2*
X892084D1*
X904053D2*
X910037D1*
X927823D2*
X934771D1*
X949499D2*
X954732D1*
X959074D2*
X963688D1*
X977951D2*
X982116D1*
X986519D2*
X991755D1*
X1006394D2*
X1011828D1*
X1035647D2*
X1041081D1*
X1061137D2*
X1067126D1*
X468953Y1581019D2*
X474747D1*
X495013D2*
X500301D1*
X547990D2*
X553974D1*
X577864D2*
X583012D1*
X602731D2*
X607879D1*
X646235D2*
X652726D1*
X654198D2*
X660752D1*
X701418D2*
X707071D1*
X721283D2*
X728775D1*
X742478D2*
X748462D1*
X805312D2*
X811297D1*
X829249D2*
X835234D1*
X866037D2*
X871638D1*
X886100D2*
X892084D1*
X904052D2*
X910043D1*
X928629D2*
X935152D1*
X949915D2*
X955106D1*
X958438D2*
X963303D1*
X978351D2*
X982798D1*
X986148D2*
X991339D1*
X1006782D2*
X1012024D1*
X1035451D2*
X1040693D1*
X1061138D2*
X1067124D1*
X469313Y1579522D2*
X474940D1*
X494572D2*
X499966D1*
X547990D2*
X553974D1*
X578118D2*
X583454D1*
X602289D2*
X607625D1*
X646723D2*
X660233D1*
X700832D2*
X706758D1*
X719986D2*
X727470D1*
X742478D2*
X748462D1*
X805312D2*
X811297D1*
X829249D2*
X835234D1*
X865596D2*
X871325D1*
X886094D2*
X892078D1*
X904052D2*
X910101D1*
X929093D2*
X935332D1*
X950239D2*
X955684D1*
X956791D2*
X962904D1*
X978668D2*
X984456D1*
X985570D2*
X991016D1*
X1007095D2*
X1012441D1*
X1035034D2*
X1040380D1*
X1061139D2*
X1067124D1*
X469754Y1578026D2*
X475361D1*
X494062D2*
X499492D1*
X547990D2*
X553974D1*
X578508D2*
X583964D1*
X601779D2*
X607234D1*
X647284D2*
X659703D1*
X700102D2*
X706423D1*
X718746D2*
X726228D1*
X742478D2*
X748462D1*
X805312D2*
X811297D1*
X829249D2*
X835234D1*
X865080D2*
X870990D1*
X886041D2*
X892026D1*
X904052D2*
X910356D1*
X929263D2*
X935360D1*
X950572D2*
X962587D1*
X978999D2*
X990682D1*
X1007430D2*
X1013073D1*
X1034402D2*
X1040045D1*
X1061139D2*
X1067123D1*
X470258Y1576530D2*
X476081D1*
X493287D2*
X498885D1*
X547990D2*
X553974D1*
X578960D2*
X584740D1*
X601003D2*
X606782D1*
X647926D2*
X659193D1*
X699087D2*
X705942D1*
X717636D2*
X725117D1*
X742478D2*
X748462D1*
X782871D2*
X790352D1*
X805312D2*
X811297D1*
X829249D2*
X835234D1*
X864427D2*
X870509D1*
X885851D2*
X891835D1*
X904052D2*
X910840D1*
X929245D2*
X935196D1*
X950995D2*
X962256D1*
X979421D2*
X990259D1*
X1007911D2*
X1013983D1*
X1033492D2*
X1039564D1*
X1061139D2*
X1067123D1*
X470957Y1575034D2*
X477082D1*
X492232D2*
X498197D1*
X547990D2*
X553974D1*
X579474D2*
X585795D1*
X599948D2*
X606269D1*
X648578D2*
X658705D1*
X697750D2*
X705284D1*
X716534D2*
X724014D1*
X742478D2*
X748462D1*
X783793D2*
X790583D1*
X805312D2*
X811297D1*
X829249D2*
X835234D1*
X842714D2*
D3*
X863004D2*
X869850D1*
X885492D2*
X891471D1*
X904052D2*
X912191D1*
X928553D2*
X934791D1*
X951411D2*
X961834D1*
X979831D2*
X989843D1*
X1008570D2*
X1015163D1*
X1032312D2*
X1038906D1*
X1061139D2*
X1067123D1*
X471873Y1573538D2*
X480269D1*
X489585D2*
X497422D1*
X547990D2*
X553974D1*
X580222D2*
X588442D1*
X597301D2*
X605521D1*
X649164D2*
X658144D1*
X673659D2*
X676651D1*
X693778D2*
X704399D1*
X715308D2*
X722789D1*
X742478D2*
X748462D1*
X784600D2*
X790954D1*
X805312D2*
X811297D1*
X829249D2*
X835234D1*
X842726D2*
X844210D1*
X859152D2*
X868966D1*
X885105D2*
X891029D1*
X904052D2*
X915767D1*
X925900D2*
X934163D1*
X951735D2*
X961424D1*
X980108D2*
X989519D1*
X1009454D2*
X1018358D1*
X1029118D2*
X1038021D1*
X1061139D2*
X1067123D1*
X472996Y1572042D2*
X485164D1*
X485577D2*
X496478D1*
X539013D2*
X562950D1*
X581288D2*
X592449D1*
X593293D2*
X604455D1*
X649684D2*
X657501D1*
X673796D2*
X685955D1*
X687487D2*
X703196D1*
X714009D2*
X721490D1*
X742478D2*
X748462D1*
X785257D2*
X791347D1*
X805312D2*
X811297D1*
X829249D2*
X835234D1*
X842848D2*
X852111D1*
X853129D2*
X867768D1*
X884821D2*
X890513D1*
X904052D2*
X921264D1*
X921524D2*
X933291D1*
X952069D2*
X961153D1*
X980307D2*
X989185D1*
X1010646D2*
X1023417D1*
X1024058D2*
X1036829D1*
X1061139D2*
X1067123D1*
X474485Y1570546D2*
X495207D1*
X539013D2*
X562950D1*
X582680D2*
X603062D1*
X650221D2*
X656840D1*
X674115D2*
X701516D1*
X712808D2*
X720289D1*
X742478D2*
X748462D1*
X785812D2*
X791662D1*
X805312D2*
X811297D1*
X829249D2*
X835234D1*
X843146D2*
X866146D1*
X875627D2*
X889710D1*
X904052D2*
X932104D1*
X952505D2*
X961010D1*
X980603D2*
X988749D1*
X1012211D2*
X1035264D1*
X1061139D2*
X1067123D1*
X476531Y1569050D2*
X493420D1*
X539013D2*
X562950D1*
X584543D2*
X601199D1*
X650744D2*
X656238D1*
X675614D2*
X699035D1*
X711851D2*
X719331D1*
X742478D2*
X748462D1*
X786401D2*
X791991D1*
X805312D2*
X811297D1*
X829249D2*
X835234D1*
X844774D2*
X863896D1*
X876013D2*
X888426D1*
X904052D2*
X910037D1*
X915075D2*
X930558D1*
X952978D2*
X960943D1*
X981142D2*
X988277D1*
X1014230D2*
X1033245D1*
X1061139D2*
X1067123D1*
X479172Y1567554D2*
X490979D1*
X539013D2*
X562950D1*
X587023D2*
X598720D1*
X651218D2*
X655706D1*
X678898D2*
X695592D1*
X711060D2*
X718541D1*
X742478D2*
X748462D1*
X787054D2*
X792413D1*
X805312D2*
X811297D1*
X829249D2*
X835234D1*
X847247D2*
X860964D1*
X877186D2*
X886647D1*
X904052D2*
X910037D1*
X917621D2*
X928633D1*
X953423D2*
X960903D1*
X981848D2*
X987832D1*
X1016651D2*
X1030825D1*
X1061139D2*
X1067123D1*
X482163Y1566058D2*
X488147D1*
X589879D2*
X595864D1*
X682635D2*
X691612D1*
X787710D2*
X792829D1*
X850194D2*
X857675D1*
X878619D2*
X884604D1*
X920509D2*
X926493D1*
X1019249D2*
X1028226D1*
X788297Y1564562D2*
X793153D1*
X788822Y1563066D2*
X793486D1*
X789400Y1561570D2*
X793909D1*
X790054Y1560074D2*
X794325D1*
X790760Y1558578D2*
X794653D1*
X791529Y1557082D2*
X795027D1*
X792395Y1555585D2*
X795606D1*
X793344Y1554089D2*
X796336D1*
X562950Y1534641D2*
X568934D1*
X604840D2*
X613816D1*
X939958D2*
X945942D1*
X980352D2*
X987832D1*
X1056651D2*
X1065627D1*
X562950Y1533145D2*
X568934D1*
X579407D2*
X585391D1*
X600364D2*
X617199D1*
X737990D2*
X743974D1*
X791848D2*
X812793D1*
X845706D2*
X878619D1*
X898068D2*
X902556D1*
X937087D2*
X948820D1*
X977020D2*
X991617D1*
X1052340D2*
X1069938D1*
X562950Y1531648D2*
X568934D1*
X579407D2*
X585391D1*
X596807D2*
X619947D1*
X737990D2*
X743974D1*
X788696D2*
X812793D1*
X845706D2*
X878619D1*
X898068D2*
X903205D1*
X934784D2*
X951169D1*
X974417D2*
X994663D1*
X1048739D2*
X1073539D1*
X562950Y1530152D2*
X568934D1*
X579407D2*
X585391D1*
X595322D2*
X621965D1*
X737990D2*
X743974D1*
X786319D2*
X812793D1*
X845712D2*
X878619D1*
X898068D2*
X904024D1*
X933049D2*
X953042D1*
X972614D2*
X995964D1*
X1045920D2*
X1054016D1*
X1068263D2*
X1076358D1*
X562950Y1528656D2*
X568934D1*
X579407D2*
X585391D1*
X594807D2*
X601848D1*
X615012D2*
X623390D1*
X737990D2*
X743974D1*
X784688D2*
X812793D1*
X845764D2*
X878619D1*
X898068D2*
X905953D1*
X931771D2*
X938468D1*
X947432D2*
X954487D1*
X971358D2*
X978861D1*
X990824D2*
X996451D1*
X1043726D2*
X1050399D1*
X1071879D2*
X1078552D1*
X562950Y1527160D2*
X568934D1*
X579407D2*
X585391D1*
X594534D2*
X598856D1*
X617325D2*
X624450D1*
X737990D2*
X743974D1*
X783532D2*
X790415D1*
X806808D2*
X812793D1*
X845961D2*
X851453D1*
X898068D2*
X908341D1*
X930777D2*
X937030D1*
X948870D2*
X955507D1*
X970396D2*
X977424D1*
X993816D2*
X996808D1*
X1041908D2*
X1047513D1*
X1074765D2*
X1080371D1*
X562950Y1525664D2*
X568934D1*
X594367D2*
X595864D1*
X619073D2*
X625325D1*
X782663D2*
X789169D1*
X806808D2*
X812793D1*
X846372D2*
X852526D1*
X898068D2*
X910474D1*
X929929D2*
X935777D1*
X950123D2*
X956232D1*
X969614D2*
X976177D1*
X1040282D2*
X1045269D1*
X1077009D2*
X1081996D1*
X562950Y1524168D2*
X568934D1*
X620401D2*
X626071D1*
X782042D2*
X788280D1*
X806808D2*
X812793D1*
X846952D2*
X853438D1*
X898068D2*
X912078D1*
X929194D2*
X934836D1*
X951064D2*
X956845D1*
X969029D2*
X975288D1*
X1038786D2*
X1043424D1*
X1078854D2*
X1083492D1*
X562950Y1522672D2*
X568934D1*
X620864D2*
X626642D1*
X781687D2*
X787775D1*
X806808D2*
X812793D1*
X847624D2*
X854261D1*
X898068D2*
X912621D1*
X928626D2*
X934140D1*
X951760D2*
X957338D1*
X968682D2*
X974783D1*
X1037467D2*
X1041786D1*
X1080492D2*
X1084811D1*
X329564Y1521176D2*
X334052D1*
X371454D2*
X383423D1*
X407360D2*
X413344D1*
X429801D2*
X435785D1*
X497123D2*
X504604D1*
X562950D2*
X568934D1*
X621107D2*
X626979D1*
X667675D2*
X672163D1*
X709564D2*
X721533D1*
X781562D2*
X787537D1*
X806808D2*
X812793D1*
X848343D2*
X855038D1*
X898068D2*
X904052D1*
X928279D2*
X933538D1*
X952362D2*
X957648D1*
X968514D2*
X974539D1*
X1036375D2*
X1040285D1*
X1055155D2*
X1062635D1*
X1081993D2*
X1085903D1*
X327103Y1519680D2*
X336991D1*
X344525D2*
X350509D1*
X368583D2*
X386185D1*
X405410D2*
X416165D1*
X427785D2*
X438527D1*
X444761D2*
X450745D1*
X456730D2*
X461218D1*
X471690D2*
X477675D1*
X494252D2*
X507987D1*
X522556D2*
X528541D1*
X550982D2*
X556966D1*
X562950D2*
X568934D1*
X579407D2*
X585391D1*
X621161D2*
X627098D1*
X665213D2*
X675102D1*
X682635D2*
X688619D1*
X706693D2*
X724295D1*
X737990D2*
X743974D1*
X749958D2*
X754446D1*
X764919D2*
X770903D1*
X781680D2*
X787484D1*
X806808D2*
X812793D1*
X849078D2*
X855799D1*
X898068D2*
X904052D1*
X928055D2*
X933049D1*
X952851D2*
X957855D1*
X968491D2*
X974439D1*
X1035457D2*
X1038964D1*
X1052572D2*
X1065512D1*
X1083314D2*
X1086821D1*
X325162Y1518184D2*
X339582D1*
X344250D2*
X350509D1*
X366280D2*
X388232D1*
X403914D2*
X419006D1*
X426009D2*
X441535D1*
X443359D2*
X450745D1*
X456730D2*
X463978D1*
X471629D2*
X477675D1*
X491949D2*
X510735D1*
X523304D2*
X529288D1*
X550234D2*
X556218D1*
X562950D2*
X568934D1*
X579407D2*
X585391D1*
X621078D2*
X626983D1*
X663272D2*
X677692D1*
X682360D2*
X688619D1*
X704390D2*
X726341D1*
X737990D2*
X743974D1*
X749958D2*
X757206D1*
X764857D2*
X770903D1*
X782065D2*
X787645D1*
X806808D2*
X812793D1*
X849823D2*
X856550D1*
X898068D2*
X904052D1*
X927789D2*
X932746D1*
X953154D2*
X958115D1*
X968650D2*
X974450D1*
X1034638D2*
X1037878D1*
X1050537D2*
X1067862D1*
X1084401D2*
X1087640D1*
X323795Y1516688D2*
X342047D1*
X343725D2*
X350509D1*
X364545D2*
X388905D1*
X402831D2*
X422061D1*
X424221D2*
X450745D1*
X456730D2*
X466586D1*
X471397D2*
X477675D1*
X490215D2*
X512753D1*
X523931D2*
X529910D1*
X549613D2*
X555591D1*
X562950D2*
X568934D1*
X579407D2*
X585391D1*
X620328D2*
X626650D1*
X661905D2*
X680157D1*
X681835D2*
X688619D1*
X702656D2*
X726967D1*
X737990D2*
X743974D1*
X749958D2*
X759815D1*
X764625D2*
X770903D1*
X782686D2*
X787986D1*
X806808D2*
X812793D1*
X850568D2*
X857300D1*
X898068D2*
X904052D1*
X927400D2*
X932592D1*
X953309D2*
X958501D1*
X969003D2*
X974631D1*
X1033913D2*
X1037006D1*
X1049824D2*
X1053934D1*
X1063780D2*
X1069734D1*
X1085272D2*
X1088365D1*
X322873Y1515192D2*
X329627D1*
X338241D2*
X350509D1*
X363273D2*
X370021D1*
X384919D2*
X389407D1*
X402055D2*
X408918D1*
X416036D2*
X431359D1*
X438477D2*
X450745D1*
X456730D2*
X469129D1*
X470885D2*
X477675D1*
X488943D2*
X495684D1*
X507596D2*
X514177D1*
X524560D2*
X530492D1*
X549031D2*
X554962D1*
X562950D2*
X568934D1*
X579407D2*
X585391D1*
X619258D2*
X626219D1*
X660983D2*
X667737D1*
X676351D2*
X688619D1*
X701383D2*
X708131D1*
X723029D2*
X727306D1*
X737990D2*
X743974D1*
X749958D2*
X762358D1*
X764113D2*
X770903D1*
X783550D2*
X789010D1*
X806808D2*
X812793D1*
X851317D2*
X858048D1*
X898068D2*
X904052D1*
X927005D2*
X932523D1*
X953378D2*
X958896D1*
X969435D2*
X975036D1*
X1033343D2*
X1036325D1*
X1049425D2*
X1051467D1*
X1065954D2*
X1071180D1*
X1085954D2*
X1088935D1*
X322211Y1513696D2*
X328381D1*
X340553D2*
X350509D1*
X362332D2*
X368775D1*
X401459D2*
X407673D1*
X418349D2*
X430114D1*
X440790D2*
X450745D1*
X456730D2*
X477675D1*
X487995D2*
X494386D1*
X509086D2*
X515237D1*
X525231D2*
X531024D1*
X548498D2*
X554292D1*
X562950D2*
X568934D1*
X579407D2*
X585391D1*
X616904D2*
X625713D1*
X660321D2*
X666491D1*
X678664D2*
X688619D1*
X700442D2*
X706885D1*
X727517D2*
D3*
X737990D2*
X743974D1*
X749958D2*
X770903D1*
X784678D2*
X792956D1*
X806808D2*
X812793D1*
X852064D2*
X858797D1*
X898068D2*
X904052D1*
X926740D2*
X932494D1*
X953406D2*
X959161D1*
X969891D2*
X975614D1*
X1032950D2*
X1035767D1*
X1049171D2*
D3*
X1067534D2*
X1072199D1*
X1086511D2*
X1089328D1*
X321630Y1512200D2*
X327493D1*
X342301D2*
X350509D1*
X361674D2*
X367746D1*
X400906D2*
X406784D1*
X420097D2*
X429225D1*
X442538D2*
X450745D1*
X462184D2*
X477675D1*
X487285D2*
X493307D1*
X510524D2*
X516112D1*
X525895D2*
X531515D1*
X548007D2*
X553628D1*
X562950D2*
X568934D1*
X579407D2*
X585391D1*
X613688D2*
X624963D1*
X659741D2*
X665603D1*
X680412D2*
X688619D1*
X699785D2*
X705856D1*
X737990D2*
X743974D1*
X755413D2*
X770903D1*
X785993D2*
X799719D1*
X806808D2*
X812793D1*
X852813D2*
X859544D1*
X898068D2*
X904052D1*
X926600D2*
X932484D1*
X953417D2*
X959301D1*
X970446D2*
X976291D1*
X1032589D2*
X1035228D1*
X1068640D2*
X1072925D1*
X1087050D2*
X1089689D1*
X321152Y1510704D2*
X326988D1*
X343630D2*
X350509D1*
X361297D2*
X367474D1*
X400438D2*
X406279D1*
X421425D2*
X428720D1*
X443866D2*
X450745D1*
X466216D2*
X477675D1*
X486718D2*
X492443D1*
X511771D2*
X516864D1*
X526484D2*
X532033D1*
X547490D2*
X553038D1*
X562950D2*
X568934D1*
X579407D2*
X585391D1*
X609732D2*
X623845D1*
X659262D2*
X665098D1*
X681740D2*
X688619D1*
X699408D2*
X705584D1*
X737990D2*
X743974D1*
X759444D2*
X770903D1*
X787407D2*
X812793D1*
X853560D2*
X860293D1*
X898068D2*
X904052D1*
X926536D2*
X932480D1*
X953421D2*
X959365D1*
X971136D2*
X977063D1*
X1032155D2*
X1034766D1*
X1069373D2*
X1073538D1*
X1087513D2*
X1090123D1*
X320854Y1509208D2*
X326744D1*
X344092D2*
X350509D1*
X361113D2*
X367404D1*
X400143D2*
X406035D1*
X421888D2*
X428476D1*
X444329D2*
X450745D1*
X469238D2*
X477675D1*
X486175D2*
X491816D1*
X512659D2*
X517488D1*
X527005D2*
X532538D1*
X546985D2*
X552517D1*
X562950D2*
X568934D1*
X579407D2*
X585391D1*
X605674D2*
X622253D1*
X658964D2*
X664854D1*
X682203D2*
X688619D1*
X699223D2*
X705514D1*
X737990D2*
X743974D1*
X762466D2*
X770903D1*
X788856D2*
X812793D1*
X854309D2*
X861040D1*
X898068D2*
X904052D1*
X926509D2*
X932478D1*
X953422D2*
X959391D1*
X971978D2*
X977994D1*
X1031741D2*
X1034473D1*
X1069781D2*
X1074031D1*
X1087805D2*
X1090537D1*
X320701Y1507711D2*
X326638D1*
X344341D2*
X350509D1*
X361033D2*
X370787D1*
X399992D2*
X405930D1*
X422137D2*
X428371D1*
X444578D2*
X450745D1*
X470642D2*
X477675D1*
X485711D2*
X491448D1*
X513166D2*
X518021D1*
X527536D2*
X533023D1*
X546499D2*
X551986D1*
X562950D2*
X568934D1*
X579407D2*
X585391D1*
X602154D2*
X619943D1*
X658811D2*
X664749D1*
X682452D2*
X688619D1*
X699143D2*
X708897D1*
X737990D2*
X743974D1*
X763870D2*
X770903D1*
X785984D2*
X812793D1*
X855056D2*
X861789D1*
X898068D2*
X904052D1*
X926499D2*
X932478D1*
X953422D2*
X959401D1*
X972927D2*
X979144D1*
X1031468D2*
X1034322D1*
X1069977D2*
X1074335D1*
X1087956D2*
X1090810D1*
X320632Y1506215D2*
X326596D1*
X344453D2*
X350509D1*
X361000D2*
X375303D1*
X399924D2*
X405888D1*
X422249D2*
X428329D1*
X444690D2*
X450745D1*
X471190D2*
X477675D1*
X485418D2*
X491258D1*
X513422D2*
X518551D1*
X528046D2*
X533583D1*
X545939D2*
X551476D1*
X562950D2*
X568934D1*
X579407D2*
X585391D1*
X599406D2*
X616702D1*
X658743D2*
X664707D1*
X682564D2*
X688619D1*
X699111D2*
X713414D1*
X737990D2*
X743974D1*
X764418D2*
X770903D1*
X783681D2*
X812793D1*
X855805D2*
X862536D1*
X898068D2*
X904052D1*
X926495D2*
X932478D1*
X953423D2*
X959405D1*
X973888D2*
X980417D1*
X1031325D2*
X1034254D1*
X1070062D2*
X1074490D1*
X1088024D2*
X1090953D1*
X320604Y1504719D2*
X326581D1*
X344499D2*
X350509D1*
X360988D2*
X380032D1*
X399896D2*
X405872D1*
X422294D2*
X428313D1*
X444735D2*
X450745D1*
X471480D2*
X477675D1*
X485267D2*
X519011D1*
X528534D2*
X534225D1*
X545297D2*
X550994D1*
X562950D2*
X568934D1*
X579407D2*
X585391D1*
X597408D2*
X612690D1*
X658715D2*
X664691D1*
X682609D2*
X688619D1*
X699098D2*
X718142D1*
X737990D2*
X743974D1*
X764709D2*
X770903D1*
X781947D2*
X788861D1*
X806808D2*
X812793D1*
X856552D2*
X863285D1*
X898068D2*
X904052D1*
X926494D2*
X932478D1*
X953423D2*
X959406D1*
X974922D2*
X981647D1*
X1031266D2*
X1034226D1*
X1070096D2*
X1074553D1*
X1088052D2*
X1091012D1*
X320594Y1503223D2*
X326575D1*
X344516D2*
X350509D1*
X360984D2*
X383922D1*
X399885D2*
X405866D1*
X422311D2*
X428307D1*
X444752D2*
X450745D1*
X471609D2*
X477675D1*
X485199D2*
X519302D1*
X529095D2*
X534878D1*
X544645D2*
X550480D1*
X562950D2*
X568934D1*
X579407D2*
X585391D1*
X596002D2*
X608533D1*
X658704D2*
X664685D1*
X682626D2*
X688619D1*
X699094D2*
X722032D1*
X737990D2*
X743974D1*
X764837D2*
X770903D1*
X780675D2*
X787424D1*
X806808D2*
X812793D1*
X857301D2*
X864032D1*
X898068D2*
X904052D1*
X926499D2*
X932478D1*
X953423D2*
X959401D1*
X976126D2*
X982754D1*
X1031292D2*
X1034222D1*
X1070103D2*
X1074529D1*
X1088057D2*
X1090986D1*
X320590Y1501727D2*
X326573D1*
X344522D2*
X350509D1*
X360982D2*
X386734D1*
X399881D2*
X405864D1*
X422317D2*
X428305D1*
X444758D2*
X450745D1*
X471661D2*
X477675D1*
X485170D2*
X519453D1*
X529737D2*
X535463D1*
X544059D2*
X549976D1*
X562950D2*
X568934D1*
X579407D2*
X585391D1*
X594953D2*
X604986D1*
X658700D2*
X664683D1*
X682632D2*
X688619D1*
X699093D2*
X724844D1*
X737990D2*
X743974D1*
X764889D2*
X770903D1*
X779733D2*
X786177D1*
X806808D2*
X812793D1*
X858048D2*
X864781D1*
X898068D2*
X904052D1*
X926552D2*
X932478D1*
X953423D2*
X959348D1*
X977471D2*
X983855D1*
X1031473D2*
X1034270D1*
X1070055D2*
X1074349D1*
X1088008D2*
X1090806D1*
X320589Y1500231D2*
X326572D1*
X344524D2*
X350509D1*
X360982D2*
X366966D1*
X377024D2*
X388692D1*
X399880D2*
X405864D1*
X422319D2*
X428305D1*
X444760D2*
X450745D1*
X471680D2*
X477675D1*
X485155D2*
X519514D1*
X530389D2*
X535982D1*
X543540D2*
X549491D1*
X562950D2*
X568934D1*
X579407D2*
X585391D1*
X594131D2*
X602432D1*
X658699D2*
X664683D1*
X682634D2*
X688619D1*
X699092D2*
X705076D1*
X715135D2*
X726802D1*
X737990D2*
X743974D1*
X764908D2*
X770903D1*
X779076D2*
X785288D1*
X806808D2*
X812793D1*
X858797D2*
X865528D1*
X898068D2*
X904052D1*
X926743D2*
X932478D1*
X953423D2*
X959158D1*
X978900D2*
X985086D1*
X1031827D2*
X1034460D1*
X1069860D2*
X1073988D1*
X1087818D2*
X1090451D1*
X320588Y1498735D2*
X326572D1*
X344525D2*
X350509D1*
X360982D2*
X366966D1*
X380444D2*
X390055D1*
X399879D2*
X405864D1*
X422320D2*
X428305D1*
X444761D2*
X450745D1*
X471687D2*
X477675D1*
X513574D2*
X519489D1*
X530975D2*
X536518D1*
X543004D2*
X548931D1*
X562950D2*
X568934D1*
X579407D2*
X585391D1*
X593528D2*
X600539D1*
X658698D2*
X664683D1*
X682635D2*
X688619D1*
X699092D2*
X705076D1*
X718554D2*
X728165D1*
X737990D2*
X743974D1*
X764915D2*
X770903D1*
X778699D2*
X784783D1*
X806808D2*
X812793D1*
X859544D2*
X866278D1*
X898068D2*
X904052D1*
X927101D2*
X932484D1*
X953417D2*
X958799D1*
X980368D2*
X986442D1*
X1032215D2*
X1034823D1*
X1069438D2*
X1073548D1*
X1087455D2*
X1090063D1*
X320588Y1497239D2*
X326572D1*
X344525D2*
X350509D1*
X360982D2*
X366966D1*
X382912D2*
X391030D1*
X399879D2*
X405864D1*
X422320D2*
X428304D1*
X444761D2*
X450745D1*
X471689D2*
X477675D1*
X513522D2*
X519309D1*
X531494D2*
X537090D1*
X542432D2*
X548289D1*
X562950D2*
X568934D1*
X579407D2*
X585391D1*
X593180D2*
X599722D1*
X658698D2*
X664682D1*
X682635D2*
X688619D1*
X699092D2*
X705076D1*
X721022D2*
X729140D1*
X737990D2*
X743974D1*
X764917D2*
X770903D1*
X778520D2*
X784545D1*
X806808D2*
X812793D1*
X860293D2*
X867024D1*
X898068D2*
X904052D1*
X927484D2*
X932536D1*
X953364D2*
X958416D1*
X981854D2*
X987874D1*
X1032528D2*
X1035259D1*
X1068712D2*
X1073038D1*
X1087019D2*
X1089750D1*
X320588Y1495743D2*
X326572D1*
X344525D2*
X350509D1*
X360982D2*
X366966D1*
X384752D2*
X391700D1*
X399879D2*
X405864D1*
X422320D2*
X428304D1*
X444761D2*
X450745D1*
X471690D2*
X477675D1*
X513325D2*
X518955D1*
X532024D2*
X537844D1*
X541678D2*
X547637D1*
X562950D2*
X568934D1*
X579407D2*
X585391D1*
X593056D2*
X599246D1*
X658698D2*
X664682D1*
X682635D2*
X688619D1*
X699092D2*
X705076D1*
X722863D2*
X729810D1*
X737990D2*
X743974D1*
X764918D2*
X770903D1*
X778493D2*
X784492D1*
X806808D2*
X812793D1*
X861040D2*
X867774D1*
X898068D2*
X904052D1*
X927751D2*
X932727D1*
X953173D2*
X958149D1*
X983346D2*
X989344D1*
X1032864D2*
X1035717D1*
X1067693D2*
X1072292D1*
X1086561D2*
X1089415D1*
X320588Y1494247D2*
X326572D1*
X344525D2*
X350509D1*
X360982D2*
X366972D1*
X385558D2*
X392081D1*
X399879D2*
X405864D1*
X422320D2*
X428304D1*
X444761D2*
X450745D1*
X471690D2*
X477675D1*
X512914D2*
X518567D1*
X532534D2*
X539026D1*
X540497D2*
X547051D1*
X562950D2*
X568934D1*
X579407D2*
X585391D1*
X593170D2*
X599022D1*
X658698D2*
X664682D1*
X682635D2*
X688619D1*
X699092D2*
X705082D1*
X723668D2*
X730191D1*
X737990D2*
X743974D1*
X764919D2*
X770903D1*
X778657D2*
X784647D1*
X806808D2*
X812793D1*
X861789D2*
X868520D1*
X898068D2*
X904052D1*
X927943D2*
X933091D1*
X952809D2*
X957958D1*
X984841D2*
X990830D1*
X1033338D2*
X1036272D1*
X1049171D2*
X1050667D1*
X1064245D2*
X1071226D1*
X1086006D2*
X1088940D1*
X320588Y1492751D2*
X326572D1*
X344525D2*
X350509D1*
X360982D2*
X367030D1*
X386023D2*
X392261D1*
X399879D2*
X405864D1*
X422320D2*
X428304D1*
X444761D2*
X450745D1*
X471690D2*
X477675D1*
X512328D2*
X518254D1*
X533022D2*
X546532D1*
X562950D2*
X568934D1*
X579407D2*
X585391D1*
X593503D2*
X598981D1*
X658698D2*
X664682D1*
X682635D2*
X688619D1*
X699092D2*
X705140D1*
X724133D2*
X730371D1*
X737990D2*
X743974D1*
X764919D2*
X770903D1*
X779056D2*
X785053D1*
X806808D2*
X812793D1*
X862536D2*
X869270D1*
X898068D2*
X904052D1*
X928197D2*
X933533D1*
X952367D2*
X957704D1*
X986336D2*
X992322D1*
X1033944D2*
X1036968D1*
X1049416D2*
X1057866D1*
X1058831D2*
X1069834D1*
X1085310D2*
X1088334D1*
X320588Y1491255D2*
X326572D1*
X344525D2*
X350509D1*
X360982D2*
X367285D1*
X386192D2*
X392289D1*
X399879D2*
X405864D1*
X422320D2*
X428304D1*
X444761D2*
X450745D1*
X471690D2*
X477675D1*
X511598D2*
X517919D1*
X533583D2*
X546002D1*
X562950D2*
X568934D1*
X579407D2*
X585391D1*
X593927D2*
X599197D1*
X658698D2*
X664682D1*
X682635D2*
X688619D1*
X699092D2*
X705395D1*
X724302D2*
X730399D1*
X737990D2*
X743974D1*
X764919D2*
X770903D1*
X779631D2*
X785626D1*
X806808D2*
X812793D1*
X863285D2*
X870016D1*
X898068D2*
X904052D1*
X928587D2*
X934043D1*
X951857D2*
X957313D1*
X987832D2*
X993811D1*
X1034632D2*
X1037863D1*
X1050345D2*
X1067971D1*
X1084415D2*
X1087646D1*
X320588Y1489759D2*
X326572D1*
X344525D2*
X350509D1*
X360982D2*
X367769D1*
X386174D2*
X392125D1*
X399879D2*
X405864D1*
X422320D2*
X428304D1*
X444761D2*
X450745D1*
X471690D2*
X477675D1*
X510583D2*
X517438D1*
X534225D2*
X545492D1*
X562950D2*
X568934D1*
X579407D2*
X585391D1*
X594380D2*
X599663D1*
X625785D2*
X627281D1*
X658698D2*
X664682D1*
X682635D2*
X688619D1*
X699092D2*
X705880D1*
X724284D2*
X730235D1*
X737990D2*
X743974D1*
X764919D2*
X770903D1*
X780308D2*
X786884D1*
X806808D2*
X812793D1*
X864032D2*
X870766D1*
X898068D2*
X904052D1*
X929039D2*
X934818D1*
X951082D2*
X956861D1*
X989328D2*
X995248D1*
X1035407D2*
X1039003D1*
X1052571D2*
X1065491D1*
X1083275D2*
X1086871D1*
X320588Y1488263D2*
X326572D1*
X344525D2*
X350509D1*
X360982D2*
X369120D1*
X385482D2*
X391721D1*
X399879D2*
X405864D1*
X422320D2*
X428304D1*
X444761D2*
X450745D1*
X471690D2*
X477675D1*
X509247D2*
X516780D1*
X534878D2*
X545004D1*
X562950D2*
X568934D1*
X579407D2*
X585391D1*
X594934D2*
X601058D1*
X622992D2*
X627275D1*
X658698D2*
X664682D1*
X682635D2*
X688619D1*
X699092D2*
X707230D1*
X723592D2*
X729831D1*
X737990D2*
X743974D1*
X764919D2*
X770903D1*
X781084D2*
X791375D1*
X806808D2*
X812793D1*
X864781D2*
X871513D1*
X898068D2*
X904052D1*
X929553D2*
X935873D1*
X950027D2*
X956347D1*
X990824D2*
X996495D1*
X1036340D2*
X1040322D1*
X1055155D2*
X1062635D1*
X1081956D2*
X1085938D1*
X320588Y1486767D2*
X326572D1*
X344525D2*
X350509D1*
X360982D2*
X372697D1*
X382829D2*
X391092D1*
X399879D2*
X405864D1*
X422320D2*
X428304D1*
X444761D2*
X450745D1*
X471690D2*
X477675D1*
X485155D2*
X488147D1*
X505274D2*
X515895D1*
X535463D2*
X544443D1*
X562950D2*
X568934D1*
X579407D2*
X585391D1*
X595636D2*
X605155D1*
X618573D2*
X627205D1*
X658698D2*
X664682D1*
X682635D2*
X688619D1*
X699092D2*
X710807D1*
X720940D2*
X729203D1*
X737990D2*
X743974D1*
X764919D2*
X770903D1*
X782080D2*
X798864D1*
X806808D2*
X812793D1*
X865528D2*
X872262D1*
X898068D2*
X904052D1*
X930300D2*
X938520D1*
X947380D2*
X955600D1*
X992320D2*
X997384D1*
X1037496D2*
X1041746D1*
X1080532D2*
X1084782D1*
X320588Y1485270D2*
X326572D1*
X344525D2*
X350509D1*
X360982D2*
X378193D1*
X378453D2*
X390220D1*
X399879D2*
X405864D1*
X422320D2*
X428304D1*
X444761D2*
X450745D1*
X471690D2*
X477675D1*
X485292D2*
X497451D1*
X498983D2*
X514692D1*
X535983D2*
X543800D1*
X562950D2*
X568934D1*
X579407D2*
X585391D1*
X596595D2*
X611689D1*
X611716D2*
X627030D1*
X658698D2*
X664682D1*
X682635D2*
X688619D1*
X699092D2*
X716303D1*
X716563D2*
X728330D1*
X737990D2*
X743974D1*
X764919D2*
X770903D1*
X783542D2*
X812793D1*
X866273D2*
X873013D1*
X889092D2*
X913029D1*
X931367D2*
X942528D1*
X943372D2*
X954533D1*
X966887D2*
X997889D1*
X1038822D2*
X1043275D1*
X1079003D2*
X1083456D1*
X320588Y1483774D2*
X326572D1*
X344525D2*
X350509D1*
X360982D2*
X389033D1*
X399879D2*
X405864D1*
X422320D2*
X428304D1*
X444761D2*
X450745D1*
X471690D2*
X477675D1*
X485611D2*
X513012D1*
X536521D2*
X543140D1*
X562950D2*
X568934D1*
X579407D2*
X585391D1*
X598040D2*
X626092D1*
X658698D2*
X664682D1*
X682635D2*
X688619D1*
X699092D2*
X727144D1*
X737990D2*
X743974D1*
X764919D2*
X770903D1*
X785700D2*
X812793D1*
X866981D2*
X873801D1*
X889092D2*
X913029D1*
X932759D2*
X953141D1*
X966887D2*
X998133D1*
X1040249D2*
X1045119D1*
X1077159D2*
X1082030D1*
X320588Y1482278D2*
X326572D1*
X344525D2*
X350509D1*
X360982D2*
X366966D1*
X372004D2*
X387487D1*
X399879D2*
X405864D1*
X422320D2*
X428304D1*
X444761D2*
X450745D1*
X471690D2*
X477675D1*
X487110D2*
X510531D1*
X537043D2*
X542537D1*
X562950D2*
X568934D1*
X579407D2*
X585391D1*
X600192D2*
X623630D1*
X658698D2*
X664682D1*
X682635D2*
X688619D1*
X699092D2*
X705076D1*
X710114D2*
X725598D1*
X737990D2*
X743974D1*
X764919D2*
X770903D1*
X788586D2*
X812793D1*
X867604D2*
X874674D1*
X889092D2*
X913029D1*
X934622D2*
X951278D1*
X966887D2*
X998243D1*
X1041773D2*
X1047980D1*
X1074298D2*
X1080506D1*
X320588Y1480782D2*
X326572D1*
X344525D2*
X350509D1*
X360982D2*
X366966D1*
X374550D2*
X385562D1*
X399879D2*
X405864D1*
X422320D2*
X428304D1*
X444761D2*
X450745D1*
X471690D2*
X477675D1*
X490394D2*
X507088D1*
X537517D2*
X542005D1*
X562950D2*
X568934D1*
X579407D2*
X585391D1*
X603076D2*
X620409D1*
X658698D2*
X664682D1*
X682635D2*
X688619D1*
X699092D2*
X705076D1*
X712660D2*
X723672D1*
X737990D2*
X743974D1*
X764919D2*
X770903D1*
X791848D2*
X812793D1*
X868147D2*
X875627D1*
X889092D2*
X913029D1*
X937102D2*
X948798D1*
X966887D2*
X998304D1*
X1043518D2*
X1053147D1*
X1069131D2*
X1078760D1*
X377438Y1479286D2*
X383423D1*
X494131D2*
X503108D1*
X606336D2*
X616808D1*
X715549D2*
X721533D1*
X939958D2*
X945942D1*
X1045731D2*
X1061442D1*
X1060836D2*
X1076547D1*
X1048677Y1477790D2*
X1073601D1*
X1052436Y1476294D2*
X1069842D1*
X1056651Y1474798D2*
X1065627D1*
X474682Y1621412D2*
X473986Y1619916D1*
X473524Y1618420D1*
X473186Y1616924D1*
X480028Y1615428D1*
X484971Y1613932D1*
X488220Y1612436D1*
X490341Y1610940D1*
X491760Y1609444D1*
X492760Y1607948D1*
X493488Y1606452D1*
X494062Y1604956D1*
X494595Y1603459D1*
X495082Y1601963D1*
X495022Y1600467D1*
X493975Y1598971D1*
X492635Y1597475D1*
X483659Y1621412D2*
X486767Y1619916D1*
X489488Y1618420D1*
X491753Y1616924D1*
X493508Y1615428D1*
X494810Y1613932D1*
X495819Y1612436D1*
X496680Y1610940D1*
X497471Y1609444D1*
X498231Y1607948D1*
X498931Y1606452D1*
X499486Y1604956D1*
X499829Y1603459D1*
X500051Y1601963D1*
X500316Y1600467D1*
X500705Y1598971D1*
X501100Y1597475D1*
X501365Y1595979D1*
X501505Y1594483D1*
X501569Y1592987D1*
X501596Y1591491D1*
X501606Y1589995D1*
X501604Y1588499D1*
X501552Y1587003D1*
X501362Y1585507D1*
X501004Y1584011D1*
X500615Y1582515D1*
X500301Y1581019D1*
X499966Y1579522D1*
X499492Y1578026D1*
X498885Y1576530D1*
X498197Y1575034D1*
X497422Y1573538D1*
X496478Y1572042D1*
X495207Y1570546D1*
X493420Y1569050D1*
X490979Y1567554D1*
X488147Y1566058D1*
X589879Y1621412D2*
X587008Y1619916D1*
X584705Y1618420D1*
X582971Y1616924D1*
X581693Y1615428D1*
X580699Y1613932D1*
X579851Y1612436D1*
X579115Y1610940D1*
X578547Y1609444D1*
X578200Y1607948D1*
X577977Y1606452D1*
X577710Y1604956D1*
X577321Y1603459D1*
X576926Y1601963D1*
X576661Y1600467D1*
X576521Y1598971D1*
X576457Y1597475D1*
X576430Y1595979D1*
X576420Y1594483D1*
X576417Y1592987D1*
X576415Y1591491D1*
X576421Y1589995D1*
X576473Y1588499D1*
X576664Y1587003D1*
X577022Y1585507D1*
X577406Y1584011D1*
X577672Y1582515D1*
X577864Y1581019D1*
X578118Y1579522D1*
X578508Y1578026D1*
X578960Y1576530D1*
X579474Y1575034D1*
X580222Y1573538D1*
X581288Y1572042D1*
X582680Y1570546D1*
X584543Y1569050D1*
X587023Y1567554D1*
X589879Y1566058D1*
X595864Y1621412D2*
X598741Y1619916D1*
X601090Y1618420D1*
X602963Y1616924D1*
X604408Y1615428D1*
X605428Y1613932D1*
X606153Y1612436D1*
X606766Y1610940D1*
X607259Y1609444D1*
X607569Y1607948D1*
X607776Y1606452D1*
X608036Y1604956D1*
X608423Y1603459D1*
X608817Y1601963D1*
X609082Y1600467D1*
X609222Y1598971D1*
X609286Y1597475D1*
X609312Y1595979D1*
X609322Y1594483D1*
X609326Y1592987D1*
X609327Y1591491D1*
X609322Y1589995D1*
X609270Y1588499D1*
X609079Y1587003D1*
X608721Y1585507D1*
X608337Y1584011D1*
X608070Y1582515D1*
X607879Y1581019D1*
X607625Y1579522D1*
X607234Y1578026D1*
X606782Y1576530D1*
X606269Y1575034D1*
X605521Y1573538D1*
X604455Y1572042D1*
X603062Y1570546D1*
X601199Y1569050D1*
X598720Y1567554D1*
X595864Y1566058D1*
X829249Y1621412D2*
Y1619916D1*
Y1618420D1*
Y1616924D1*
Y1615428D1*
Y1613932D1*
Y1612436D1*
Y1610940D1*
Y1609444D1*
X829243Y1607948D1*
X829187Y1606452D1*
X828955Y1604956D1*
X828444Y1603459D1*
X827753Y1601963D1*
X835234Y1621412D2*
Y1619916D1*
Y1618420D1*
Y1616924D1*
Y1615428D1*
Y1613932D1*
Y1612436D1*
Y1610940D1*
Y1609444D1*
Y1607948D1*
Y1606452D1*
Y1604956D1*
Y1603459D1*
Y1601963D1*
Y1600467D1*
Y1598971D1*
Y1597475D1*
Y1595979D1*
Y1594483D1*
Y1592987D1*
Y1591491D1*
Y1589995D1*
Y1588499D1*
Y1587003D1*
Y1585507D1*
Y1584011D1*
Y1582515D1*
Y1581019D1*
Y1579522D1*
Y1578026D1*
Y1576530D1*
Y1575034D1*
Y1573538D1*
Y1572042D1*
Y1570546D1*
Y1569050D1*
Y1567554D1*
X547990Y1619916D2*
Y1618420D1*
Y1616924D1*
Y1615428D1*
Y1613932D1*
Y1612436D1*
Y1610940D1*
Y1609444D1*
Y1607948D1*
Y1606452D1*
Y1604956D1*
Y1603459D1*
Y1601963D1*
Y1600467D1*
Y1598971D1*
Y1597475D1*
Y1595979D1*
Y1594483D1*
Y1592987D1*
Y1591491D1*
Y1589995D1*
Y1588499D1*
Y1587003D1*
Y1585507D1*
Y1584011D1*
Y1582515D1*
Y1581019D1*
Y1579522D1*
Y1578026D1*
Y1576530D1*
Y1575034D1*
Y1573538D1*
Y1572042D1*
X539013D1*
Y1570546D1*
Y1569050D1*
Y1567554D1*
X552478Y1619916D2*
X553126Y1618420D1*
X553945Y1616924D1*
X555874Y1615428D1*
X558262Y1613932D1*
X560395Y1612436D1*
X561999Y1610940D1*
X562543Y1609444D1*
X562950Y1607948D1*
X553974D1*
Y1606452D1*
Y1604956D1*
Y1603459D1*
Y1601963D1*
Y1600467D1*
Y1598971D1*
Y1597475D1*
Y1595979D1*
Y1594483D1*
Y1592987D1*
Y1591491D1*
Y1589995D1*
Y1588499D1*
Y1587003D1*
Y1585507D1*
Y1584011D1*
Y1582515D1*
Y1581019D1*
Y1579522D1*
Y1578026D1*
Y1576530D1*
Y1575034D1*
Y1573538D1*
Y1572042D1*
X562950D1*
Y1570546D1*
Y1569050D1*
Y1567554D1*
X729013Y1619916D2*
X725962Y1618420D1*
X723433Y1616924D1*
X721526Y1615428D1*
X720155Y1613932D1*
X719120Y1612436D1*
X718302Y1610940D1*
X717701Y1609444D1*
X717347Y1607948D1*
X717177Y1606452D1*
X717152Y1604956D1*
X717312Y1603459D1*
X717664Y1601963D1*
X718102Y1600467D1*
X718611Y1598971D1*
X719356Y1597475D1*
X720416Y1595979D1*
X721741Y1594483D1*
X723268Y1592987D1*
X724777Y1591491D1*
X726070Y1589995D1*
X726565Y1588499D1*
X725590Y1587003D1*
X724557Y1585507D1*
X723549Y1584011D1*
X722491Y1582515D1*
X721283Y1581019D1*
X719986Y1579522D1*
X718746Y1578026D1*
X717636Y1576530D1*
X716534Y1575034D1*
X715308Y1573538D1*
X714009Y1572042D1*
X712808Y1570546D1*
X711851Y1569050D1*
X711060Y1567554D1*
X748462Y1619916D2*
Y1618420D1*
Y1616924D1*
Y1615428D1*
Y1613932D1*
Y1612436D1*
Y1610940D1*
Y1609444D1*
Y1607948D1*
Y1606452D1*
Y1604956D1*
Y1603459D1*
Y1601963D1*
Y1600467D1*
Y1598971D1*
Y1597475D1*
Y1595979D1*
Y1594483D1*
Y1592987D1*
Y1591491D1*
Y1589995D1*
Y1588499D1*
Y1587003D1*
Y1585507D1*
Y1584011D1*
Y1582515D1*
Y1581019D1*
Y1579522D1*
Y1578026D1*
Y1576530D1*
Y1575034D1*
Y1573538D1*
Y1572042D1*
Y1570546D1*
Y1569050D1*
Y1567554D1*
X939958Y1619916D2*
X940649Y1618420D1*
X941084Y1616924D1*
X941354Y1615428D1*
X941641Y1613932D1*
X942039Y1612436D1*
X942443Y1610940D1*
X942762Y1609444D1*
X943093Y1607948D1*
X943515Y1606452D1*
X943931Y1604956D1*
X944255Y1603459D1*
X944588Y1601963D1*
X945011Y1600467D1*
X945427Y1598971D1*
X945751Y1597475D1*
X946084Y1595979D1*
X946507Y1594483D1*
X946923Y1592987D1*
X947247Y1591491D1*
X947580Y1589995D1*
X948003Y1588499D1*
X948419Y1587003D1*
X948743Y1585507D1*
X949076Y1584011D1*
X949499Y1582515D1*
X949915Y1581019D1*
X950239Y1579522D1*
X950572Y1578026D1*
X950995Y1576530D1*
X951411Y1575034D1*
X951735Y1573538D1*
X952069Y1572042D1*
X952505Y1570546D1*
X952978Y1569050D1*
X953423Y1567554D1*
X945942Y1619916D2*
X946454Y1618420D1*
X946899Y1616924D1*
X947188Y1615428D1*
X947388Y1613932D1*
X947644Y1612436D1*
X948030Y1610940D1*
X948429Y1609444D1*
X948747Y1607948D1*
X949077Y1606452D1*
X949500Y1604956D1*
X949915Y1603459D1*
X950239Y1601963D1*
X950572Y1600467D1*
X950995Y1598971D1*
X951406Y1597475D1*
X951683Y1595979D1*
X951878Y1594483D1*
X952133Y1592987D1*
X952518Y1591491D1*
X952918Y1589995D1*
X953235Y1588499D1*
X953566Y1587003D1*
X953988Y1585507D1*
X954404Y1584011D1*
X954732Y1582515D1*
X955106Y1581019D1*
X955684Y1579522D1*
X956415Y1578026D1*
X968383Y1619916D2*
X967687Y1618420D1*
X967204Y1616924D1*
X966796Y1615428D1*
X966342Y1613932D1*
X965913Y1612436D1*
X965585Y1610940D1*
X965250Y1609444D1*
X964827Y1607948D1*
X964416Y1606452D1*
X964139Y1604956D1*
X963944Y1603459D1*
X963689Y1601963D1*
X963304Y1600467D1*
X962904Y1598971D1*
X962587Y1597475D1*
X962256Y1595979D1*
X961834Y1594483D1*
X961418Y1592987D1*
X961094Y1591491D1*
X960761Y1589995D1*
X960338Y1588499D1*
X959928Y1587003D1*
X959651Y1585507D1*
X959444Y1584011D1*
X959074Y1582515D1*
X958438Y1581019D1*
X956791Y1579522D1*
X954919Y1578026D1*
X972871Y1619916D2*
X973383Y1618420D1*
X973834Y1616924D1*
X974170Y1615428D1*
X974507Y1613932D1*
X974932Y1612436D1*
X975348Y1610940D1*
X975672Y1609444D1*
X976005Y1607948D1*
X976428Y1606452D1*
X976844Y1604956D1*
X977168Y1603459D1*
X977501Y1601963D1*
X977924Y1600467D1*
X978335Y1598971D1*
X978612Y1597475D1*
X978807Y1595979D1*
X979062Y1594483D1*
X979447Y1592987D1*
X979847Y1591491D1*
X980164Y1589995D1*
X980495Y1588499D1*
X980917Y1587003D1*
X981333Y1585507D1*
X981668Y1584011D1*
X982116Y1582515D1*
X982798Y1581019D1*
X984456Y1579522D1*
X986336Y1578026D1*
X995312Y1619916D2*
X994801Y1618420D1*
X994350Y1616924D1*
X994014Y1615428D1*
X993676Y1613932D1*
X993252Y1612436D1*
X992841Y1610940D1*
X992564Y1609444D1*
X992369Y1607948D1*
X992114Y1606452D1*
X991729Y1604956D1*
X991329Y1603459D1*
X991012Y1601963D1*
X990681Y1600467D1*
X990259Y1598971D1*
X989843Y1597475D1*
X989519Y1595979D1*
X989186Y1594483D1*
X988763Y1592987D1*
X988353Y1591491D1*
X988076Y1589995D1*
X987881Y1588499D1*
X987626Y1587003D1*
X987241Y1585507D1*
X986841Y1584011D1*
X986519Y1582515D1*
X986148Y1581019D1*
X985570Y1579522D1*
X984840Y1578026D1*
X1001297Y1619916D2*
X1000600Y1618420D1*
X1000118Y1616924D1*
X999710Y1615428D1*
X999255Y1613932D1*
X998827Y1612436D1*
X998498Y1610940D1*
X998164Y1609444D1*
X997740Y1607948D1*
X997329Y1606452D1*
X997052Y1604956D1*
X996857Y1603459D1*
X996602Y1601963D1*
X996217Y1600467D1*
X995817Y1598971D1*
X995500Y1597475D1*
X995169Y1595979D1*
X994747Y1594483D1*
X994331Y1592987D1*
X994008Y1591491D1*
X993675Y1589995D1*
X993251Y1588499D1*
X992835Y1587003D1*
X992512Y1585507D1*
X992178Y1584011D1*
X991755Y1582515D1*
X991339Y1581019D1*
X991016Y1579522D1*
X990682Y1578026D1*
X990259Y1576530D1*
X989843Y1575034D1*
X989519Y1573538D1*
X989185Y1572042D1*
X988749Y1570546D1*
X988277Y1569050D1*
X987832Y1567554D1*
X1043186Y1619916D2*
X1044445Y1618420D1*
X1045518Y1616924D1*
X1046436Y1615428D1*
X1047306Y1613932D1*
X1048227Y1612436D1*
X1049202Y1610940D1*
X1050122Y1609444D1*
X1050970Y1607948D1*
X1051811Y1606452D1*
X1052721Y1604956D1*
X1053692Y1603459D1*
X1054611Y1601963D1*
X1055459Y1600467D1*
X1056300Y1598971D1*
X1057209Y1597475D1*
X1058180Y1595979D1*
X1059093Y1594483D1*
X1059883Y1592987D1*
X1060480Y1591491D1*
X1060835Y1589995D1*
X1061012Y1588499D1*
X1061089Y1587003D1*
X1061121Y1585507D1*
X1061133Y1584011D1*
X1061137Y1582515D1*
X1061138Y1581019D1*
X1061139Y1579522D1*
Y1578026D1*
Y1576530D1*
Y1575034D1*
Y1573538D1*
Y1572042D1*
Y1570546D1*
Y1569050D1*
Y1567554D1*
X1050667Y1619916D2*
X1051594Y1618420D1*
X1052447Y1616924D1*
X1053249Y1615428D1*
X1054024Y1613932D1*
X1054829Y1612436D1*
X1055723Y1610940D1*
X1056688Y1609444D1*
X1057604Y1607948D1*
X1058451Y1606452D1*
X1059292Y1604956D1*
X1060201Y1603459D1*
X1061177Y1601963D1*
X1062136Y1600467D1*
X1063109Y1598971D1*
X1064131Y1597475D1*
X1077596Y1619916D2*
X1076847Y1618420D1*
X1075979Y1616924D1*
X1075111Y1615428D1*
X1074286Y1613932D1*
X1073454Y1612436D1*
X1072547Y1610940D1*
X1071578Y1609444D1*
X1070659Y1607948D1*
X1069817Y1606452D1*
X1069023Y1604956D1*
X1068246Y1603459D1*
X1067380Y1601963D1*
X1066207Y1600467D1*
X1064560Y1598971D1*
X1062635Y1597475D1*
X1085076Y1619916D2*
X1083817Y1618420D1*
X1082745Y1616924D1*
X1081826Y1615428D1*
X1080957Y1613932D1*
X1080036Y1612436D1*
X1079061Y1610940D1*
X1078141Y1609444D1*
X1077298Y1607948D1*
X1076504Y1606452D1*
X1075732Y1604956D1*
X1074929Y1603459D1*
X1074035Y1601963D1*
X1073071Y1600467D1*
X1072154Y1598971D1*
X1071307Y1597475D1*
X1070467Y1595979D1*
X1069563Y1594483D1*
X1068645Y1592987D1*
X1067922Y1591491D1*
X1067491Y1589995D1*
X1067277Y1588499D1*
X1067183Y1587003D1*
X1067145Y1585507D1*
X1067131Y1584011D1*
X1067126Y1582515D1*
X1067124Y1581019D1*
Y1579522D1*
X1067123Y1578026D1*
Y1576530D1*
Y1575034D1*
Y1573538D1*
Y1572042D1*
Y1570546D1*
Y1569050D1*
Y1567554D1*
X886100Y1618420D2*
Y1616924D1*
Y1615428D1*
Y1613932D1*
Y1612436D1*
Y1610940D1*
Y1609444D1*
Y1607948D1*
Y1606452D1*
X875627D1*
Y1604956D1*
Y1603459D1*
Y1601963D1*
Y1600467D1*
X886100D1*
Y1598971D1*
Y1597475D1*
Y1595979D1*
Y1594483D1*
Y1592987D1*
Y1591491D1*
Y1589995D1*
Y1588499D1*
Y1587003D1*
Y1585507D1*
Y1584011D1*
Y1582515D1*
Y1581019D1*
X886094Y1579522D1*
X886041Y1578026D1*
X885851Y1576530D1*
X885492Y1575034D1*
X885105Y1573538D1*
X884821Y1572042D1*
X884604Y1570546D1*
X875627D1*
X876013Y1569050D1*
X877186Y1567554D1*
X878619Y1566058D1*
X892084Y1618420D2*
Y1616924D1*
Y1615428D1*
Y1613932D1*
Y1612436D1*
Y1610940D1*
Y1609444D1*
Y1607948D1*
Y1606452D1*
X896572D1*
Y1604956D1*
Y1603459D1*
Y1601963D1*
Y1600467D1*
X892084D1*
Y1598971D1*
Y1597475D1*
Y1595979D1*
Y1594483D1*
Y1592987D1*
Y1591491D1*
Y1589995D1*
Y1588499D1*
Y1587003D1*
Y1585507D1*
Y1584011D1*
Y1582515D1*
Y1581019D1*
X892078Y1579522D1*
X892026Y1578026D1*
X891835Y1576530D1*
X891471Y1575034D1*
X891029Y1573538D1*
X890513Y1572042D1*
X889710Y1570546D1*
X888426Y1569050D1*
X886647Y1567554D1*
X884604Y1566058D1*
X589879Y1616924D2*
X588389Y1615428D1*
X586951Y1613932D1*
X585699Y1612436D1*
X584757Y1610940D1*
X584062Y1609444D1*
X583459Y1607948D1*
X582970Y1606452D1*
X582667Y1604956D1*
X582513Y1603459D1*
X582444Y1601963D1*
X582416Y1600467D1*
X582405Y1598971D1*
X582401Y1597475D1*
X582400Y1595979D1*
X582399Y1594483D1*
Y1592987D1*
Y1591491D1*
Y1589995D1*
Y1588499D1*
Y1587003D1*
X582405Y1585507D1*
X582457Y1584011D1*
X582648Y1582515D1*
X583012Y1581019D1*
X583454Y1579522D1*
X583964Y1578026D1*
X584740Y1576530D1*
X585795Y1575034D1*
X588442Y1573538D1*
X592449Y1572042D1*
X597360Y1570546D1*
X595864Y1616924D2*
X597354Y1615428D1*
X598791Y1613932D1*
X600044Y1612436D1*
X600985Y1610940D1*
X601681Y1609444D1*
X602284Y1607948D1*
X602773Y1606452D1*
X603075Y1604956D1*
X603230Y1603459D1*
X603299Y1601963D1*
X603327Y1600467D1*
X603338Y1598971D1*
X603342Y1597475D1*
X603343Y1595979D1*
X603344Y1594483D1*
Y1592987D1*
Y1591491D1*
Y1589995D1*
Y1588499D1*
Y1587003D1*
X603338Y1585507D1*
X603285Y1584011D1*
X603095Y1582515D1*
X602731Y1581019D1*
X602289Y1579522D1*
X601779Y1578026D1*
X601003Y1576530D1*
X599948Y1575034D1*
X597301Y1573538D1*
X593293Y1572042D1*
X588383Y1570546D1*
X729013Y1615428D2*
X727523Y1613932D1*
X726085Y1612436D1*
X724838Y1610940D1*
X723950Y1609444D1*
X723445Y1607948D1*
X723200Y1606452D1*
X723101Y1604956D1*
X723112Y1603459D1*
X723292Y1601963D1*
X723709Y1600467D1*
X724445Y1598971D1*
X725499Y1597475D1*
X729468Y1595979D1*
X735920Y1594483D1*
X743974Y1592987D1*
X742478Y1615428D2*
Y1613932D1*
Y1612436D1*
Y1610940D1*
Y1609444D1*
Y1607948D1*
Y1606452D1*
Y1604956D1*
Y1603459D1*
Y1601963D1*
Y1600467D1*
Y1598971D1*
Y1597475D1*
Y1595979D1*
Y1594483D1*
X730509Y1592987D1*
X971375Y1610940D2*
X970173Y1609444D1*
X969298Y1607948D1*
X968791Y1606452D1*
X968496Y1604956D1*
X968200Y1603459D1*
X967800Y1601963D1*
X967395Y1600467D1*
X967076Y1598971D1*
X966744Y1597475D1*
X966322Y1595979D1*
X965912Y1594483D1*
X965635Y1592987D1*
X965440Y1591491D1*
X965185Y1589995D1*
X964800Y1588499D1*
X964406Y1587003D1*
X964135Y1585507D1*
X963943Y1584011D1*
X963688Y1582515D1*
X963303Y1581019D1*
X962904Y1579522D1*
X962587Y1578026D1*
X962256Y1576530D1*
X961834Y1575034D1*
X961424Y1573538D1*
X961153Y1572042D1*
X961010Y1570546D1*
X960943Y1569050D1*
X960903Y1567554D1*
X972871Y1610940D2*
Y1609444D1*
X972877Y1607948D1*
X972930Y1606452D1*
X973120Y1604956D1*
X973479Y1603459D1*
X973862Y1601963D1*
X974129Y1600467D1*
X974320Y1598971D1*
X974575Y1597475D1*
X974959Y1595979D1*
X975359Y1594483D1*
X975676Y1592987D1*
X976007Y1591491D1*
X976429Y1589995D1*
X976839Y1588499D1*
X977116Y1587003D1*
X977311Y1585507D1*
X977566Y1584011D1*
X977951Y1582515D1*
X978351Y1581019D1*
X978668Y1579522D1*
X978999Y1578026D1*
X979421Y1576530D1*
X979831Y1575034D1*
X980108Y1573538D1*
X980307Y1572042D1*
X980603Y1570546D1*
X981142Y1569050D1*
X981848Y1567554D1*
X685627Y1607948D2*
X682756Y1606452D1*
X680453Y1604956D1*
X678719Y1603459D1*
X677446Y1601963D1*
X676499Y1600467D1*
X675789Y1598971D1*
X675222Y1597475D1*
X674679Y1595979D1*
X674215Y1594483D1*
X673922Y1592987D1*
X673771Y1591491D1*
X673703Y1589995D1*
X673674Y1588499D1*
X673659Y1587003D1*
X693108Y1607948D2*
X696490Y1606452D1*
X699239Y1604956D1*
X701257Y1603459D1*
X702681Y1601963D1*
X703741Y1600467D1*
X704616Y1598971D1*
X705368Y1597475D1*
X705992Y1595979D1*
X706525Y1594483D1*
X707055Y1592987D1*
X707515Y1591491D1*
X707806Y1589995D1*
X707956Y1588499D1*
X708018Y1587003D1*
X707993Y1585507D1*
X707813Y1584011D1*
X707459Y1582515D1*
X707071Y1581019D1*
X706758Y1579522D1*
X706423Y1578026D1*
X705942Y1576530D1*
X705284Y1575034D1*
X704399Y1573538D1*
X703196Y1572042D1*
X701516Y1570546D1*
X699035Y1569050D1*
X695592Y1567554D1*
X691612Y1566058D1*
X814289Y1607948D2*
X811828Y1606452D1*
X809886Y1604956D1*
X808520Y1603459D1*
X807597Y1601963D1*
X806936Y1600467D1*
X806355Y1598971D1*
X805876Y1597475D1*
X805578Y1595979D1*
X805425Y1594483D1*
X805357Y1592987D1*
X805329Y1591491D1*
X805318Y1589995D1*
X805314Y1588499D1*
X805313Y1587003D1*
Y1585507D1*
X805312Y1584011D1*
Y1582515D1*
Y1581019D1*
Y1579522D1*
Y1578026D1*
Y1576530D1*
Y1575034D1*
Y1573538D1*
Y1572042D1*
Y1570546D1*
Y1569050D1*
Y1567554D1*
X818777Y1607948D2*
X821716Y1606452D1*
X824306Y1604956D1*
X826771Y1603459D1*
X829249Y1601963D1*
X850194Y1607948D2*
X847100Y1606452D1*
X844565Y1604956D1*
X843449Y1603459D1*
X843026Y1601963D1*
X842714Y1600467D1*
X857675Y1607948D2*
X861063Y1606452D1*
X863858Y1604956D1*
X866020Y1603459D1*
X867659Y1601963D1*
X868882Y1600467D1*
X869802Y1598971D1*
X870457Y1597475D1*
X870883Y1595979D1*
X871257Y1594483D1*
X871696Y1592987D1*
X872111Y1591491D1*
X872384Y1589995D1*
X872528Y1588499D1*
X872587Y1587003D1*
X872561Y1585507D1*
X872380Y1584011D1*
X872026Y1582515D1*
X871638Y1581019D1*
X871325Y1579522D1*
X870990Y1578026D1*
X870509Y1576530D1*
X869850Y1575034D1*
X868966Y1573538D1*
X867768Y1572042D1*
X866146Y1570546D1*
X863896Y1569050D1*
X860964Y1567554D1*
X857675Y1566058D1*
X914525Y1607948D2*
X911654Y1606452D1*
X909351Y1604956D1*
X907616Y1603459D1*
X906344Y1601963D1*
X905403Y1600467D1*
X904745Y1598971D1*
X904368Y1597475D1*
X904184Y1595979D1*
X904104Y1594483D1*
X904071Y1592987D1*
X904059Y1591491D1*
X904055Y1589995D1*
X904053Y1588499D1*
Y1587003D1*
Y1585507D1*
Y1584011D1*
Y1582515D1*
X904052Y1581019D1*
Y1579522D1*
Y1578026D1*
Y1576530D1*
Y1575034D1*
Y1573538D1*
Y1572042D1*
Y1570546D1*
Y1569050D1*
Y1567554D1*
X926493Y1607948D2*
X929256Y1606452D1*
X931303Y1604956D1*
X931976Y1603459D1*
X932478Y1601963D1*
X1019249Y1607948D2*
X1016551Y1606452D1*
X1014186Y1604956D1*
X1012242Y1603459D1*
X1010699Y1601963D1*
X1009515Y1600467D1*
X1008609Y1598971D1*
X1007960Y1597475D1*
X1007536Y1595979D1*
X1007162Y1594483D1*
X1006724Y1592987D1*
X1006309Y1591491D1*
X1006036Y1589995D1*
X1005892Y1588499D1*
X1005833Y1587003D1*
X1005859Y1585507D1*
X1006040Y1584011D1*
X1006394Y1582515D1*
X1006782Y1581019D1*
X1007095Y1579522D1*
X1007430Y1578026D1*
X1007911Y1576530D1*
X1008570Y1575034D1*
X1009454Y1573538D1*
X1010646Y1572042D1*
X1012211Y1570546D1*
X1014230Y1569050D1*
X1016651Y1567554D1*
X1019249Y1566058D1*
X1028226Y1607948D2*
X1030924Y1606452D1*
X1033289Y1604956D1*
X1035233Y1603459D1*
X1036776Y1601963D1*
X1037960Y1600467D1*
X1038866Y1598971D1*
X1039515Y1597475D1*
X1039939Y1595979D1*
X1040313Y1594483D1*
X1040751Y1592987D1*
X1041167Y1591491D1*
X1041440Y1589995D1*
X1041583Y1588499D1*
X1041642Y1587003D1*
X1041616Y1585507D1*
X1041435Y1584011D1*
X1041081Y1582515D1*
X1040693Y1581019D1*
X1040380Y1579522D1*
X1040045Y1578026D1*
X1039564Y1576530D1*
X1038906Y1575034D1*
X1038021Y1573538D1*
X1036829Y1572042D1*
X1035264Y1570546D1*
X1033245Y1569050D1*
X1030825Y1567554D1*
X1028226Y1566058D1*
X636257Y1606452D2*
X637005Y1604956D1*
X637632Y1603459D1*
X638261Y1601963D1*
X638931Y1600467D1*
X639596Y1598971D1*
X640185Y1597475D1*
X640706Y1595979D1*
X641237Y1594483D1*
X641747Y1592987D1*
X642235Y1591491D1*
X642796Y1589995D1*
X643437Y1588499D1*
X644090Y1587003D1*
X644676Y1585507D1*
X645195Y1584011D1*
X645725Y1582515D1*
X646235Y1581019D1*
X646723Y1579522D1*
X647284Y1578026D1*
X647926Y1576530D1*
X648578Y1575034D1*
X649164Y1573538D1*
X649684Y1572042D1*
X650221Y1570546D1*
X650744Y1569050D1*
X651218Y1567554D1*
X642241Y1606452D2*
X642989Y1604956D1*
X643610Y1603459D1*
X644192Y1601963D1*
X644725Y1600467D1*
X645216Y1598971D1*
X645733Y1597475D1*
X646238Y1595979D1*
X646724Y1594483D1*
X647284Y1592987D1*
X647926Y1591491D1*
X648578Y1589995D1*
X649164Y1588499D1*
X649683Y1587003D1*
X650219Y1585507D1*
X650791Y1584011D1*
X651545Y1582515D1*
X652726Y1581019D1*
X654210Y1579522D1*
X664682Y1606452D2*
X663935Y1604956D1*
X663313Y1603459D1*
X662732Y1601963D1*
X662199Y1600467D1*
X661708Y1598971D1*
X661191Y1597475D1*
X660686Y1595979D1*
X660200Y1594483D1*
X659640Y1592987D1*
X658998Y1591491D1*
X658345Y1589995D1*
X657760Y1588499D1*
X657241Y1587003D1*
X656705Y1585507D1*
X656133Y1584011D1*
X655379Y1582515D1*
X654198Y1581019D1*
X652714Y1579522D1*
X670667Y1606452D2*
X669919Y1604956D1*
X669292Y1603459D1*
X668663Y1601963D1*
X667992Y1600467D1*
X667328Y1598971D1*
X666739Y1597475D1*
X666218Y1595979D1*
X665687Y1594483D1*
X665177Y1592987D1*
X664695Y1591491D1*
X664181Y1589995D1*
X663677Y1588499D1*
X663192Y1587003D1*
X662632Y1585507D1*
X661990Y1584011D1*
X661338Y1582515D1*
X660752Y1581019D1*
X660233Y1579522D1*
X659703Y1578026D1*
X659193Y1576530D1*
X658705Y1575034D1*
X658144Y1573538D1*
X657501Y1572042D1*
X656840Y1570546D1*
X656238Y1569050D1*
X655706Y1567554D1*
X685627Y1603459D2*
X684188Y1601963D1*
X682890Y1600467D1*
X681811Y1598971D1*
X680947Y1597475D1*
X680320Y1595979D1*
X679952Y1594483D1*
X679762Y1592987D1*
X679643Y1591491D1*
X694604Y1603459D2*
X696100Y1601963D1*
X697590Y1600467D1*
X699028Y1598971D1*
X700275Y1597475D1*
X701163Y1595979D1*
X701670Y1594483D1*
X701926Y1592987D1*
X702084Y1591491D1*
X815785Y1603459D2*
X814352Y1601963D1*
X813106Y1600467D1*
X812217Y1598971D1*
X811712Y1597475D1*
X811468Y1595979D1*
X811363Y1594483D1*
X811321Y1592987D1*
X811305Y1591491D1*
X811299Y1589995D1*
X811298Y1588499D1*
X811297Y1587003D1*
Y1585507D1*
Y1584011D1*
Y1582515D1*
Y1581019D1*
Y1579522D1*
Y1578026D1*
Y1576530D1*
Y1575034D1*
Y1573538D1*
Y1572042D1*
Y1570546D1*
Y1569050D1*
Y1567554D1*
X820273Y1603459D2*
X822965Y1601963D1*
X825278Y1600467D1*
X827026Y1598971D1*
X828354Y1597475D1*
X828817Y1595979D1*
X829066Y1594483D1*
X829178Y1592987D1*
X829223Y1591491D1*
X829240Y1589995D1*
X829246Y1588499D1*
X829248Y1587003D1*
X829249Y1585507D1*
Y1584011D1*
Y1582515D1*
Y1581019D1*
Y1579522D1*
Y1578026D1*
Y1576530D1*
Y1575034D1*
Y1573538D1*
Y1572042D1*
Y1570546D1*
Y1569050D1*
Y1567554D1*
X853186Y1603459D2*
X848698Y1601963D1*
X844210Y1600467D1*
X856178Y1603459D2*
X858820Y1601963D1*
X860993Y1600467D1*
X862579Y1598971D1*
X863738Y1597475D1*
X864661Y1595979D1*
X865428Y1594483D1*
X866008Y1592987D1*
X866353Y1591491D1*
X866526Y1589995D1*
X866602Y1588499D1*
X866633Y1587003D1*
X866639Y1585507D1*
X866590Y1584011D1*
X866401Y1582515D1*
X866037Y1581019D1*
X865596Y1579522D1*
X865080Y1578026D1*
X864427Y1576530D1*
X863004Y1575034D1*
X859152Y1573538D1*
X853129Y1572042D1*
X845706Y1570546D1*
X914525Y1603459D2*
X913092Y1601963D1*
X911846Y1600467D1*
X910817Y1598971D1*
X910545Y1597475D1*
X910475Y1595979D1*
X913858Y1594483D1*
X918374Y1592987D1*
X923103Y1591491D1*
X926993Y1589995D1*
X929805Y1588499D1*
X931763Y1587003D1*
X933126Y1585507D1*
X934101Y1584011D1*
X934771Y1582515D1*
X935152Y1581019D1*
X935332Y1579522D1*
X935360Y1578026D1*
X935196Y1576530D1*
X934791Y1575034D1*
X934163Y1573538D1*
X933291Y1572042D1*
X932104Y1570546D1*
X930558Y1569050D1*
X928633Y1567554D1*
X926493Y1566058D1*
Y1603459D2*
X927990Y1601963D1*
X1019249Y1603459D2*
X1017759Y1601963D1*
X1016316Y1600467D1*
X1015016Y1598971D1*
X1013937Y1597475D1*
X1013073Y1595979D1*
X1012446Y1594483D1*
X1012079Y1592987D1*
X1011899Y1591491D1*
X1011819Y1589995D1*
X1011788Y1588499D1*
X1011776Y1587003D1*
X1011771Y1585507D1*
X1011776Y1584011D1*
X1011828Y1582515D1*
X1012024Y1581019D1*
X1012441Y1579522D1*
X1013073Y1578026D1*
X1013983Y1576530D1*
X1015163Y1575034D1*
X1018358Y1573538D1*
X1023417Y1572042D1*
X1029722Y1570546D1*
X1028226Y1603459D2*
X1029716Y1601963D1*
X1031159Y1600467D1*
X1032459Y1598971D1*
X1033538Y1597475D1*
X1034402Y1595979D1*
X1035029Y1594483D1*
X1035396Y1592987D1*
X1035576Y1591491D1*
X1035656Y1589995D1*
X1035687Y1588499D1*
X1035699Y1587003D1*
X1035704Y1585507D1*
X1035699Y1584011D1*
X1035647Y1582515D1*
X1035451Y1581019D1*
X1035034Y1579522D1*
X1034402Y1578026D1*
X1033492Y1576530D1*
X1032312Y1575034D1*
X1029118Y1573538D1*
X1024058Y1572042D1*
X1017753Y1570546D1*
X479171Y1600467D2*
X476984Y1598971D1*
X475064Y1597475D1*
X473409Y1595979D1*
X472060Y1594483D1*
X471079Y1592987D1*
X470369Y1591491D1*
X469761Y1589995D1*
X469270Y1588499D1*
X468967Y1587003D1*
X468812Y1585507D1*
X468749Y1584011D1*
X468773Y1582515D1*
X468953Y1581019D1*
X469313Y1579522D1*
X469754Y1578026D1*
X470258Y1576530D1*
X470957Y1575034D1*
X471873Y1573538D1*
X472996Y1572042D1*
X474485Y1570546D1*
X476531Y1569050D1*
X479172Y1567554D1*
X482163Y1566058D1*
X486651Y1600467D2*
X492542Y1598971D1*
X498619Y1597475D1*
X480667Y1595979D2*
X479228Y1594483D1*
X477929Y1592987D1*
X476850Y1591491D1*
X475987Y1589995D1*
X475359Y1588499D1*
X474993Y1587003D1*
X474812Y1585507D1*
X474733Y1584011D1*
X474707Y1582515D1*
X474747Y1581019D1*
X474940Y1579522D1*
X475361Y1578026D1*
X476081Y1576530D1*
X477082Y1575034D1*
X480269Y1573538D1*
X485164Y1572042D1*
X491139Y1570546D1*
X488147Y1595979D2*
X490782Y1594483D1*
X492903Y1592987D1*
X494534Y1591491D1*
X495101Y1589995D1*
X495405Y1588499D1*
X495541Y1587003D1*
X495590Y1585507D1*
X495558Y1584011D1*
X495374Y1582515D1*
X495013Y1581019D1*
X494572Y1579522D1*
X494062Y1578026D1*
X493287Y1576530D1*
X492232Y1575034D1*
X489585Y1573538D1*
X485577Y1572042D1*
X480667Y1570546D1*
X510588Y1592987D2*
Y1591491D1*
Y1589995D1*
Y1588499D1*
X528541Y1592987D2*
Y1591491D1*
Y1589995D1*
Y1588499D1*
X734997D2*
X733558Y1587003D1*
X732254Y1585507D1*
X731117Y1584011D1*
X730004Y1582515D1*
X728775Y1581019D1*
X727470Y1579522D1*
X726228Y1578026D1*
X725117Y1576530D1*
X724014Y1575034D1*
X722789Y1573538D1*
X721490Y1572042D1*
X720289Y1570546D1*
X719331Y1569050D1*
X718541Y1567554D1*
X742478Y1588499D2*
Y1587003D1*
Y1585507D1*
Y1584011D1*
Y1582515D1*
Y1581019D1*
Y1579522D1*
Y1578026D1*
Y1576530D1*
Y1575034D1*
Y1573538D1*
Y1572042D1*
Y1570546D1*
Y1569050D1*
Y1567554D1*
X910037Y1588499D2*
Y1587003D1*
Y1585507D1*
Y1584011D1*
Y1582515D1*
X910043Y1581019D1*
X910101Y1579522D1*
X910356Y1578026D1*
X910840Y1576530D1*
X912191Y1575034D1*
X915767Y1573538D1*
X921264Y1572042D1*
X927990Y1570546D1*
X916021Y1588499D2*
X920095Y1587003D1*
X923515Y1585507D1*
X925983Y1584011D1*
X927823Y1582515D1*
X928629Y1581019D1*
X929093Y1579522D1*
X929263Y1578026D1*
X929245Y1576530D1*
X928553Y1575034D1*
X925900Y1573538D1*
X921524Y1572042D1*
X916021Y1570546D1*
X702084Y1587003D2*
X702078Y1585507D1*
X702026Y1584011D1*
X701829Y1582515D1*
X701418Y1581019D1*
X700832Y1579522D1*
X700102Y1578026D1*
X699087Y1576530D1*
X697750Y1575034D1*
X693778Y1573538D1*
X687487Y1572042D1*
X679643Y1570546D1*
X782871Y1576530D2*
X783793Y1575034D1*
X784600Y1573538D1*
X785257Y1572042D1*
X785812Y1570546D1*
X786401Y1569050D1*
X787054Y1567554D1*
X787710Y1566058D1*
X788297Y1564562D1*
X788822Y1563066D1*
X789400Y1561570D1*
X790054Y1560074D1*
X790760Y1558578D1*
X791529Y1557082D1*
X792395Y1555585D1*
X793344Y1554089D1*
X790352Y1576530D2*
X790583Y1575034D1*
X790954Y1573538D1*
X791347Y1572042D1*
X791662Y1570546D1*
X791991Y1569050D1*
X792413Y1567554D1*
X792829Y1566058D1*
X793153Y1564562D1*
X793486Y1563066D1*
X793909Y1561570D1*
X794325Y1560074D1*
X794653Y1558578D1*
X795027Y1557082D1*
X795606Y1555585D1*
X796336Y1554089D1*
X842714Y1575034D2*
X842726Y1573538D1*
X842848Y1572042D1*
X843146Y1570546D1*
X844774Y1569050D1*
X847247Y1567554D1*
X850194Y1566058D1*
X673659Y1573538D2*
X673796Y1572042D1*
X674115Y1570546D1*
X675614Y1569050D1*
X678898Y1567554D1*
X682635Y1566058D1*
X676651Y1573538D2*
X685955Y1572042D1*
X696100Y1570546D1*
X844210Y1573538D2*
X852111Y1572042D1*
X860667Y1570546D1*
X910037D2*
Y1569050D1*
Y1567554D1*
X913029Y1570546D2*
X915075Y1569050D1*
X917621Y1567554D1*
X920509Y1566058D1*
X562950Y1534641D2*
Y1533145D1*
Y1531648D1*
Y1530152D1*
Y1528656D1*
Y1527160D1*
Y1525664D1*
Y1524168D1*
Y1522672D1*
Y1521176D1*
Y1519680D1*
Y1518184D1*
Y1516688D1*
Y1515192D1*
Y1513696D1*
Y1512200D1*
Y1510704D1*
Y1509208D1*
Y1507711D1*
Y1506215D1*
Y1504719D1*
Y1503223D1*
Y1501727D1*
Y1500231D1*
Y1498735D1*
Y1497239D1*
Y1495743D1*
Y1494247D1*
Y1492751D1*
Y1491255D1*
Y1489759D1*
Y1488263D1*
Y1486767D1*
Y1485270D1*
Y1483774D1*
Y1482278D1*
Y1480782D1*
X568934Y1534641D2*
Y1533145D1*
Y1531648D1*
Y1530152D1*
Y1528656D1*
Y1527160D1*
Y1525664D1*
Y1524168D1*
Y1522672D1*
Y1521176D1*
Y1519680D1*
Y1518184D1*
Y1516688D1*
Y1515192D1*
Y1513696D1*
Y1512200D1*
Y1510704D1*
Y1509208D1*
Y1507711D1*
Y1506215D1*
Y1504719D1*
Y1503223D1*
Y1501727D1*
Y1500231D1*
Y1498735D1*
Y1497239D1*
Y1495743D1*
Y1494247D1*
Y1492751D1*
Y1491255D1*
Y1489759D1*
Y1488263D1*
Y1486767D1*
Y1485270D1*
Y1483774D1*
Y1482278D1*
Y1480782D1*
X604840Y1534641D2*
X600364Y1533145D1*
X596807Y1531648D1*
X595322Y1530152D1*
X594807Y1528656D1*
X594534Y1527160D1*
X594367Y1525664D1*
X613816Y1534641D2*
X617199Y1533145D1*
X619947Y1531648D1*
X621965Y1530152D1*
X623390Y1528656D1*
X624450Y1527160D1*
X625325Y1525664D1*
X626071Y1524168D1*
X626642Y1522672D1*
X626979Y1521176D1*
X627098Y1519680D1*
X626983Y1518184D1*
X626650Y1516688D1*
X626219Y1515192D1*
X625713Y1513696D1*
X624963Y1512200D1*
X623845Y1510704D1*
X622253Y1509208D1*
X619943Y1507711D1*
X616702Y1506215D1*
X612690Y1504719D1*
X608533Y1503223D1*
X604986Y1501727D1*
X602432Y1500231D1*
X600539Y1498735D1*
X599722Y1497239D1*
X599246Y1495743D1*
X599022Y1494247D1*
X598981Y1492751D1*
X599197Y1491255D1*
X599663Y1489759D1*
X601058Y1488263D1*
X605155Y1486767D1*
X611689Y1485270D1*
X619801Y1483774D1*
X939958Y1534641D2*
X937087Y1533145D1*
X934784Y1531648D1*
X933049Y1530152D1*
X931771Y1528656D1*
X930777Y1527160D1*
X929929Y1525664D1*
X929194Y1524168D1*
X928626Y1522672D1*
X928279Y1521176D1*
X928055Y1519680D1*
X927789Y1518184D1*
X927400Y1516688D1*
X927005Y1515192D1*
X926740Y1513696D1*
X926600Y1512200D1*
X926536Y1510704D1*
X926509Y1509208D1*
X926499Y1507711D1*
X926495Y1506215D1*
X926494Y1504719D1*
X926499Y1503223D1*
X926552Y1501727D1*
X926743Y1500231D1*
X927101Y1498735D1*
X927484Y1497239D1*
X927751Y1495743D1*
X927943Y1494247D1*
X928197Y1492751D1*
X928587Y1491255D1*
X929039Y1489759D1*
X929553Y1488263D1*
X930300Y1486767D1*
X931367Y1485270D1*
X932759Y1483774D1*
X934622Y1482278D1*
X937102Y1480782D1*
X939958Y1479286D1*
X945942Y1534641D2*
X948820Y1533145D1*
X951169Y1531648D1*
X953042Y1530152D1*
X954487Y1528656D1*
X955507Y1527160D1*
X956232Y1525664D1*
X956845Y1524168D1*
X957338Y1522672D1*
X957648Y1521176D1*
X957855Y1519680D1*
X958115Y1518184D1*
X958501Y1516688D1*
X958896Y1515192D1*
X959161Y1513696D1*
X959301Y1512200D1*
X959365Y1510704D1*
X959391Y1509208D1*
X959401Y1507711D1*
X959405Y1506215D1*
X959406Y1504719D1*
X959401Y1503223D1*
X959348Y1501727D1*
X959158Y1500231D1*
X958799Y1498735D1*
X958416Y1497239D1*
X958149Y1495743D1*
X957958Y1494247D1*
X957704Y1492751D1*
X957313Y1491255D1*
X956861Y1489759D1*
X956347Y1488263D1*
X955600Y1486767D1*
X954533Y1485270D1*
X953141Y1483774D1*
X951278Y1482278D1*
X948798Y1480782D1*
X945942Y1479286D1*
X980352Y1534641D2*
X977020Y1533145D1*
X974417Y1531648D1*
X972614Y1530152D1*
X971358Y1528656D1*
X970396Y1527160D1*
X969614Y1525664D1*
X969029Y1524168D1*
X968682Y1522672D1*
X968514Y1521176D1*
X968491Y1519680D1*
X968650Y1518184D1*
X969003Y1516688D1*
X969435Y1515192D1*
X969891Y1513696D1*
X970446Y1512200D1*
X971136Y1510704D1*
X971978Y1509208D1*
X972927Y1507711D1*
X973888Y1506215D1*
X974922Y1504719D1*
X976126Y1503223D1*
X977471Y1501727D1*
X978900Y1500231D1*
X980368Y1498735D1*
X981854Y1497239D1*
X983346Y1495743D1*
X984841Y1494247D1*
X986336Y1492751D1*
X987832Y1491255D1*
X989328Y1489759D1*
X990824Y1488263D1*
X992320Y1486767D1*
X993816Y1485270D1*
X987832Y1534641D2*
X991617Y1533145D1*
X994663Y1531648D1*
X995964Y1530152D1*
X996451Y1528656D1*
X996808Y1527160D1*
X1056651Y1534641D2*
X1052340Y1533145D1*
X1048739Y1531648D1*
X1045920Y1530152D1*
X1043726Y1528656D1*
X1041908Y1527160D1*
X1040282Y1525664D1*
X1038786Y1524168D1*
X1037467Y1522672D1*
X1036375Y1521176D1*
X1035457Y1519680D1*
X1034638Y1518184D1*
X1033913Y1516688D1*
X1033343Y1515192D1*
X1032950Y1513696D1*
X1032589Y1512200D1*
X1032155Y1510704D1*
X1031741Y1509208D1*
X1031468Y1507711D1*
X1031325Y1506215D1*
X1031266Y1504719D1*
X1031292Y1503223D1*
X1031473Y1501727D1*
X1031827Y1500231D1*
X1032215Y1498735D1*
X1032528Y1497239D1*
X1032864Y1495743D1*
X1033338Y1494247D1*
X1033944Y1492751D1*
X1034632Y1491255D1*
X1035407Y1489759D1*
X1036340Y1488263D1*
X1037496Y1486767D1*
X1038822Y1485270D1*
X1040249Y1483774D1*
X1041773Y1482278D1*
X1043518Y1480782D1*
X1045731Y1479286D1*
X1048677Y1477790D1*
X1052436Y1476294D1*
X1056651Y1474798D1*
X1065627Y1534641D2*
X1069938Y1533145D1*
X1073539Y1531648D1*
X1076358Y1530152D1*
X1078552Y1528656D1*
X1080371Y1527160D1*
X1081996Y1525664D1*
X1083492Y1524168D1*
X1084811Y1522672D1*
X1085903Y1521176D1*
X1086821Y1519680D1*
X1087640Y1518184D1*
X1088365Y1516688D1*
X1088935Y1515192D1*
X1089328Y1513696D1*
X1089689Y1512200D1*
X1090123Y1510704D1*
X1090537Y1509208D1*
X1090810Y1507711D1*
X1090953Y1506215D1*
X1091012Y1504719D1*
X1090986Y1503223D1*
X1090806Y1501727D1*
X1090451Y1500231D1*
X1090063Y1498735D1*
X1089750Y1497239D1*
X1089415Y1495743D1*
X1088940Y1494247D1*
X1088334Y1492751D1*
X1087646Y1491255D1*
X1086871Y1489759D1*
X1085938Y1488263D1*
X1084782Y1486767D1*
X1083456Y1485270D1*
X1082030Y1483774D1*
X1080506Y1482278D1*
X1078760Y1480782D1*
X1076547Y1479286D1*
X1073601Y1477790D1*
X1069842Y1476294D1*
X1065627Y1474798D1*
X579407Y1533145D2*
Y1531648D1*
Y1530152D1*
Y1528656D1*
Y1527160D1*
X585391Y1533145D2*
Y1531648D1*
Y1530152D1*
Y1528656D1*
Y1527160D1*
X737990Y1533145D2*
Y1531648D1*
Y1530152D1*
Y1528656D1*
Y1527160D1*
X743974Y1533145D2*
Y1531648D1*
Y1530152D1*
Y1528656D1*
Y1527160D1*
X791848Y1533145D2*
X788696Y1531648D1*
X786319Y1530152D1*
X784688Y1528656D1*
X783532Y1527160D1*
X782663Y1525664D1*
X782042Y1524168D1*
X781687Y1522672D1*
X781562Y1521176D1*
X781680Y1519680D1*
X782065Y1518184D1*
X782686Y1516688D1*
X783550Y1515192D1*
X784678Y1513696D1*
X785993Y1512200D1*
X787407Y1510704D1*
X788856Y1509208D1*
X785984Y1507711D1*
X783681Y1506215D1*
X781947Y1504719D1*
X780675Y1503223D1*
X779733Y1501727D1*
X779076Y1500231D1*
X778699Y1498735D1*
X778520Y1497239D1*
X778493Y1495743D1*
X778657Y1494247D1*
X779056Y1492751D1*
X779631Y1491255D1*
X780308Y1489759D1*
X781084Y1488263D1*
X782080Y1486767D1*
X783542Y1485270D1*
X785700Y1483774D1*
X788586Y1482278D1*
X791848Y1480782D1*
X812793Y1533145D2*
Y1531648D1*
Y1530152D1*
Y1528656D1*
Y1527160D1*
Y1525664D1*
Y1524168D1*
Y1522672D1*
Y1521176D1*
Y1519680D1*
Y1518184D1*
Y1516688D1*
Y1515192D1*
Y1513696D1*
Y1512200D1*
Y1510704D1*
Y1509208D1*
Y1507711D1*
Y1506215D1*
Y1504719D1*
Y1503223D1*
Y1501727D1*
Y1500231D1*
Y1498735D1*
Y1497239D1*
Y1495743D1*
Y1494247D1*
Y1492751D1*
Y1491255D1*
Y1489759D1*
Y1488263D1*
Y1486767D1*
Y1485270D1*
Y1483774D1*
Y1482278D1*
Y1480782D1*
X845706Y1533145D2*
Y1531648D1*
X845712Y1530152D1*
X845764Y1528656D1*
X845961Y1527160D1*
X846372Y1525664D1*
X846952Y1524168D1*
X847624Y1522672D1*
X848343Y1521176D1*
X849078Y1519680D1*
X849823Y1518184D1*
X850568Y1516688D1*
X851317Y1515192D1*
X852064Y1513696D1*
X852813Y1512200D1*
X853560Y1510704D1*
X854309Y1509208D1*
X855056Y1507711D1*
X855805Y1506215D1*
X856552Y1504719D1*
X857301Y1503223D1*
X858048Y1501727D1*
X858797Y1500231D1*
X859544Y1498735D1*
X860293Y1497239D1*
X861040Y1495743D1*
X861789Y1494247D1*
X862536Y1492751D1*
X863285Y1491255D1*
X864032Y1489759D1*
X864781Y1488263D1*
X865528Y1486767D1*
X866273Y1485270D1*
X866981Y1483774D1*
X867604Y1482278D1*
X868147Y1480782D1*
X878619Y1533145D2*
Y1531648D1*
Y1530152D1*
Y1528656D1*
X898068Y1533145D2*
Y1531648D1*
Y1530152D1*
Y1528656D1*
Y1527160D1*
Y1525664D1*
Y1524168D1*
Y1522672D1*
Y1521176D1*
Y1519680D1*
Y1518184D1*
Y1516688D1*
Y1515192D1*
Y1513696D1*
Y1512200D1*
Y1510704D1*
Y1509208D1*
Y1507711D1*
Y1506215D1*
Y1504719D1*
Y1503223D1*
Y1501727D1*
Y1500231D1*
Y1498735D1*
Y1497239D1*
Y1495743D1*
Y1494247D1*
Y1492751D1*
Y1491255D1*
Y1489759D1*
Y1488263D1*
Y1486767D1*
Y1485270D1*
X889092D1*
Y1483774D1*
Y1482278D1*
Y1480782D1*
X902556Y1533145D2*
X903205Y1531648D1*
X904024Y1530152D1*
X905953Y1528656D1*
X908341Y1527160D1*
X910474Y1525664D1*
X912078Y1524168D1*
X912621Y1522672D1*
X913029Y1521176D1*
X904052D1*
Y1519680D1*
Y1518184D1*
Y1516688D1*
Y1515192D1*
Y1513696D1*
Y1512200D1*
Y1510704D1*
Y1509208D1*
Y1507711D1*
Y1506215D1*
Y1504719D1*
Y1503223D1*
Y1501727D1*
Y1500231D1*
Y1498735D1*
Y1497239D1*
Y1495743D1*
Y1494247D1*
Y1492751D1*
Y1491255D1*
Y1489759D1*
Y1488263D1*
Y1486767D1*
Y1485270D1*
X913029D1*
Y1483774D1*
Y1482278D1*
Y1480782D1*
X1058147Y1531648D2*
X1054016Y1530152D1*
X1050399Y1528656D1*
X1047513Y1527160D1*
X1045269Y1525664D1*
X1043424Y1524168D1*
X1041786Y1522672D1*
X1040285Y1521176D1*
X1038964Y1519680D1*
X1037878Y1518184D1*
X1037006Y1516688D1*
X1036325Y1515192D1*
X1035767Y1513696D1*
X1035228Y1512200D1*
X1034766Y1510704D1*
X1034473Y1509208D1*
X1034322Y1507711D1*
X1034254Y1506215D1*
X1034226Y1504719D1*
X1034222Y1503223D1*
X1034270Y1501727D1*
X1034460Y1500231D1*
X1034823Y1498735D1*
X1035259Y1497239D1*
X1035717Y1495743D1*
X1036272Y1494247D1*
X1036968Y1492751D1*
X1037863Y1491255D1*
X1039003Y1489759D1*
X1040322Y1488263D1*
X1041746Y1486767D1*
X1043275Y1485270D1*
X1045119Y1483774D1*
X1047980Y1482278D1*
X1053147Y1480782D1*
X1061442Y1479286D1*
X1071612Y1477790D1*
X1064131Y1531648D2*
X1068263Y1530152D1*
X1071879Y1528656D1*
X1074765Y1527160D1*
X1077009Y1525664D1*
X1078854Y1524168D1*
X1080492Y1522672D1*
X1081993Y1521176D1*
X1083314Y1519680D1*
X1084401Y1518184D1*
X1085272Y1516688D1*
X1085954Y1515192D1*
X1086511Y1513696D1*
X1087050Y1512200D1*
X1087513Y1510704D1*
X1087805Y1509208D1*
X1087956Y1507711D1*
X1088024Y1506215D1*
X1088052Y1504719D1*
X1088057Y1503223D1*
X1088008Y1501727D1*
X1087818Y1500231D1*
X1087455Y1498735D1*
X1087019Y1497239D1*
X1086561Y1495743D1*
X1086006Y1494247D1*
X1085310Y1492751D1*
X1084415Y1491255D1*
X1083275Y1489759D1*
X1081956Y1488263D1*
X1080532Y1486767D1*
X1079003Y1485270D1*
X1077159Y1483774D1*
X1074298Y1482278D1*
X1069131Y1480782D1*
X1060836Y1479286D1*
X1050667Y1477790D1*
X604840Y1530152D2*
X601848Y1528656D1*
X598856Y1527160D1*
X595864Y1525664D1*
X612320Y1530152D2*
X615012Y1528656D1*
X617325Y1527160D1*
X619073Y1525664D1*
X620401Y1524168D1*
X620864Y1522672D1*
X621107Y1521176D1*
X621161Y1519680D1*
X621078Y1518184D1*
X620328Y1516688D1*
X619258Y1515192D1*
X616904Y1513696D1*
X613688Y1512200D1*
X609732Y1510704D1*
X605674Y1509208D1*
X602154Y1507711D1*
X599406Y1506215D1*
X597408Y1504719D1*
X596002Y1503223D1*
X594953Y1501727D1*
X594131Y1500231D1*
X593528Y1498735D1*
X593180Y1497239D1*
X593056Y1495743D1*
X593170Y1494247D1*
X593503Y1492751D1*
X593927Y1491255D1*
X594380Y1489759D1*
X594934Y1488263D1*
X595636Y1486767D1*
X596595Y1485270D1*
X598040Y1483774D1*
X600192Y1482278D1*
X603076Y1480782D1*
X606336Y1479286D1*
X939958Y1530152D2*
X938468Y1528656D1*
X937030Y1527160D1*
X935777Y1525664D1*
X934836Y1524168D1*
X934140Y1522672D1*
X933538Y1521176D1*
X933049Y1519680D1*
X932746Y1518184D1*
X932592Y1516688D1*
X932523Y1515192D1*
X932494Y1513696D1*
X932484Y1512200D1*
X932480Y1510704D1*
X932478Y1509208D1*
Y1507711D1*
Y1506215D1*
Y1504719D1*
Y1503223D1*
Y1501727D1*
Y1500231D1*
X932484Y1498735D1*
X932536Y1497239D1*
X932727Y1495743D1*
X933091Y1494247D1*
X933533Y1492751D1*
X934043Y1491255D1*
X934818Y1489759D1*
X935873Y1488263D1*
X938520Y1486767D1*
X942528Y1485270D1*
X947438Y1483774D1*
X945942Y1530152D2*
X947432Y1528656D1*
X948870Y1527160D1*
X950123Y1525664D1*
X951064Y1524168D1*
X951760Y1522672D1*
X952362Y1521176D1*
X952851Y1519680D1*
X953154Y1518184D1*
X953309Y1516688D1*
X953378Y1515192D1*
X953406Y1513696D1*
X953417Y1512200D1*
X953421Y1510704D1*
X953422Y1509208D1*
Y1507711D1*
X953423Y1506215D1*
Y1504719D1*
Y1503223D1*
Y1501727D1*
Y1500231D1*
X953417Y1498735D1*
X953364Y1497239D1*
X953173Y1495743D1*
X952809Y1494247D1*
X952367Y1492751D1*
X951857Y1491255D1*
X951082Y1489759D1*
X950027Y1488263D1*
X947380Y1486767D1*
X943372Y1485270D1*
X938462Y1483774D1*
X980352Y1530152D2*
X978861Y1528656D1*
X977424Y1527160D1*
X976177Y1525664D1*
X975288Y1524168D1*
X974783Y1522672D1*
X974539Y1521176D1*
X974439Y1519680D1*
X974450Y1518184D1*
X974631Y1516688D1*
X975036Y1515192D1*
X975614Y1513696D1*
X976291Y1512200D1*
X977063Y1510704D1*
X977994Y1509208D1*
X979144Y1507711D1*
X980417Y1506215D1*
X981647Y1504719D1*
X982754Y1503223D1*
X983855Y1501727D1*
X985086Y1500231D1*
X986442Y1498735D1*
X987874Y1497239D1*
X989344Y1495743D1*
X990830Y1494247D1*
X992322Y1492751D1*
X993811Y1491255D1*
X995248Y1489759D1*
X996495Y1488263D1*
X997384Y1486767D1*
X997889Y1485270D1*
X998133Y1483774D1*
X998243Y1482278D1*
X998304Y1480782D1*
X987832Y1530152D2*
X990824Y1528656D1*
X993816Y1527160D1*
X791848Y1528656D2*
X790415Y1527160D1*
X789169Y1525664D1*
X788280Y1524168D1*
X787775Y1522672D1*
X787537Y1521176D1*
X787484Y1519680D1*
X787645Y1518184D1*
X787986Y1516688D1*
X789010Y1515192D1*
X792956Y1513696D1*
X799719Y1512200D1*
X808304Y1510704D1*
X806808Y1528656D2*
Y1527160D1*
Y1525664D1*
Y1524168D1*
Y1522672D1*
Y1521176D1*
Y1519680D1*
Y1518184D1*
Y1516688D1*
Y1515192D1*
Y1513696D1*
Y1512200D1*
X793344Y1510704D1*
X850194Y1528656D2*
X851453Y1527160D1*
X852526Y1525664D1*
X853438Y1524168D1*
X854261Y1522672D1*
X855038Y1521176D1*
X855799Y1519680D1*
X856550Y1518184D1*
X857300Y1516688D1*
X858048Y1515192D1*
X858797Y1513696D1*
X859544Y1512200D1*
X860293Y1510704D1*
X861040Y1509208D1*
X861789Y1507711D1*
X862536Y1506215D1*
X863285Y1504719D1*
X864032Y1503223D1*
X864781Y1501727D1*
X865528Y1500231D1*
X866278Y1498735D1*
X867024Y1497239D1*
X867774Y1495743D1*
X868520Y1494247D1*
X869270Y1492751D1*
X870016Y1491255D1*
X870766Y1489759D1*
X871513Y1488263D1*
X872262Y1486767D1*
X873013Y1485270D1*
X873801Y1483774D1*
X874674Y1482278D1*
X875627Y1480782D1*
X329564Y1521176D2*
X327103Y1519680D1*
X325162Y1518184D1*
X323795Y1516688D1*
X322873Y1515192D1*
X322211Y1513696D1*
X321630Y1512200D1*
X321152Y1510704D1*
X320854Y1509208D1*
X320701Y1507711D1*
X320632Y1506215D1*
X320604Y1504719D1*
X320594Y1503223D1*
X320590Y1501727D1*
X320589Y1500231D1*
X320588Y1498735D1*
Y1497239D1*
Y1495743D1*
Y1494247D1*
Y1492751D1*
Y1491255D1*
Y1489759D1*
Y1488263D1*
Y1486767D1*
Y1485270D1*
Y1483774D1*
Y1482278D1*
Y1480782D1*
X334052Y1521176D2*
X336991Y1519680D1*
X339582Y1518184D1*
X342047Y1516688D1*
X344525Y1515192D1*
X371454Y1521176D2*
X368583Y1519680D1*
X366280Y1518184D1*
X364545Y1516688D1*
X363273Y1515192D1*
X362332Y1513696D1*
X361674Y1512200D1*
X361297Y1510704D1*
X361113Y1509208D1*
X361033Y1507711D1*
X361000Y1506215D1*
X360988Y1504719D1*
X360984Y1503223D1*
X360982Y1501727D1*
Y1500231D1*
Y1498735D1*
Y1497239D1*
Y1495743D1*
Y1494247D1*
Y1492751D1*
Y1491255D1*
Y1489759D1*
Y1488263D1*
Y1486767D1*
Y1485270D1*
Y1483774D1*
Y1482278D1*
Y1480782D1*
X383423Y1521176D2*
X386185Y1519680D1*
X388232Y1518184D1*
X388905Y1516688D1*
X389407Y1515192D1*
X407360Y1521176D2*
X405410Y1519680D1*
X403914Y1518184D1*
X402831Y1516688D1*
X402055Y1515192D1*
X401459Y1513696D1*
X400906Y1512200D1*
X400438Y1510704D1*
X400143Y1509208D1*
X399992Y1507711D1*
X399924Y1506215D1*
X399896Y1504719D1*
X399885Y1503223D1*
X399881Y1501727D1*
X399880Y1500231D1*
X399879Y1498735D1*
Y1497239D1*
Y1495743D1*
Y1494247D1*
Y1492751D1*
Y1491255D1*
Y1489759D1*
Y1488263D1*
Y1486767D1*
Y1485270D1*
Y1483774D1*
Y1482278D1*
Y1480782D1*
X413344Y1521176D2*
X416165Y1519680D1*
X419006Y1518184D1*
X422061Y1516688D1*
X425312Y1515192D1*
X429801Y1521176D2*
X427785Y1519680D1*
X426009Y1518184D1*
X424221Y1516688D1*
X422320Y1515192D1*
X435785Y1521176D2*
X438527Y1519680D1*
X441535Y1518184D1*
X444761Y1516688D1*
X497123Y1521176D2*
X494252Y1519680D1*
X491949Y1518184D1*
X490215Y1516688D1*
X488943Y1515192D1*
X487995Y1513696D1*
X487285Y1512200D1*
X486718Y1510704D1*
X486175Y1509208D1*
X485711Y1507711D1*
X485418Y1506215D1*
X485267Y1504719D1*
X485199Y1503223D1*
X485170Y1501727D1*
X485155Y1500231D1*
X504604Y1521176D2*
X507987Y1519680D1*
X510735Y1518184D1*
X512753Y1516688D1*
X514177Y1515192D1*
X515237Y1513696D1*
X516112Y1512200D1*
X516864Y1510704D1*
X517488Y1509208D1*
X518021Y1507711D1*
X518551Y1506215D1*
X519011Y1504719D1*
X519302Y1503223D1*
X519453Y1501727D1*
X519514Y1500231D1*
X519489Y1498735D1*
X519309Y1497239D1*
X518955Y1495743D1*
X518567Y1494247D1*
X518254Y1492751D1*
X517919Y1491255D1*
X517438Y1489759D1*
X516780Y1488263D1*
X515895Y1486767D1*
X514692Y1485270D1*
X513012Y1483774D1*
X510531Y1482278D1*
X507088Y1480782D1*
X503108Y1479286D1*
X667675Y1521176D2*
X665213Y1519680D1*
X663272Y1518184D1*
X661905Y1516688D1*
X660983Y1515192D1*
X660321Y1513696D1*
X659741Y1512200D1*
X659262Y1510704D1*
X658964Y1509208D1*
X658811Y1507711D1*
X658743Y1506215D1*
X658715Y1504719D1*
X658704Y1503223D1*
X658700Y1501727D1*
X658699Y1500231D1*
X658698Y1498735D1*
Y1497239D1*
Y1495743D1*
Y1494247D1*
Y1492751D1*
Y1491255D1*
Y1489759D1*
Y1488263D1*
Y1486767D1*
Y1485270D1*
Y1483774D1*
Y1482278D1*
Y1480782D1*
X672163Y1521176D2*
X675102Y1519680D1*
X677692Y1518184D1*
X680157Y1516688D1*
X682635Y1515192D1*
X709564Y1521176D2*
X706693Y1519680D1*
X704390Y1518184D1*
X702656Y1516688D1*
X701383Y1515192D1*
X700442Y1513696D1*
X699785Y1512200D1*
X699408Y1510704D1*
X699223Y1509208D1*
X699143Y1507711D1*
X699111Y1506215D1*
X699098Y1504719D1*
X699094Y1503223D1*
X699093Y1501727D1*
X699092Y1500231D1*
Y1498735D1*
Y1497239D1*
Y1495743D1*
Y1494247D1*
Y1492751D1*
Y1491255D1*
Y1489759D1*
Y1488263D1*
Y1486767D1*
Y1485270D1*
Y1483774D1*
Y1482278D1*
Y1480782D1*
X721533Y1521176D2*
X724295Y1519680D1*
X726341Y1518184D1*
X726967Y1516688D1*
X727306Y1515192D1*
X727517Y1513696D1*
X1055155Y1521176D2*
X1052572Y1519680D1*
X1050537Y1518184D1*
X1049824Y1516688D1*
X1049425Y1515192D1*
X1049171Y1513696D1*
X1062635Y1521176D2*
X1065512Y1519680D1*
X1067862Y1518184D1*
X1069734Y1516688D1*
X1071180Y1515192D1*
X1072199Y1513696D1*
X1072925Y1512200D1*
X1073538Y1510704D1*
X1074031Y1509208D1*
X1074335Y1507711D1*
X1074490Y1506215D1*
X1074553Y1504719D1*
X1074529Y1503223D1*
X1074349Y1501727D1*
X1073988Y1500231D1*
X1073548Y1498735D1*
X1073038Y1497239D1*
X1072292Y1495743D1*
X1071226Y1494247D1*
X1069834Y1492751D1*
X1067971Y1491255D1*
X1065491Y1489759D1*
X1062635Y1488263D1*
X344525Y1519680D2*
X344250Y1518184D1*
X343725Y1516688D1*
X343029Y1515192D1*
X350509Y1519680D2*
Y1518184D1*
Y1516688D1*
Y1515192D1*
Y1513696D1*
Y1512200D1*
Y1510704D1*
Y1509208D1*
Y1507711D1*
Y1506215D1*
Y1504719D1*
Y1503223D1*
Y1501727D1*
Y1500231D1*
Y1498735D1*
Y1497239D1*
Y1495743D1*
Y1494247D1*
Y1492751D1*
Y1491255D1*
Y1489759D1*
Y1488263D1*
Y1486767D1*
Y1485270D1*
Y1483774D1*
Y1482278D1*
Y1480782D1*
X444761Y1519680D2*
X443359Y1518184D1*
X441769Y1516688D1*
X450745Y1519680D2*
Y1518184D1*
Y1516688D1*
Y1515192D1*
Y1513696D1*
Y1512200D1*
Y1510704D1*
Y1509208D1*
Y1507711D1*
Y1506215D1*
Y1504719D1*
Y1503223D1*
Y1501727D1*
Y1500231D1*
Y1498735D1*
Y1497239D1*
Y1495743D1*
Y1494247D1*
Y1492751D1*
Y1491255D1*
Y1489759D1*
Y1488263D1*
Y1486767D1*
Y1485270D1*
Y1483774D1*
Y1482278D1*
Y1480782D1*
X456730Y1519680D2*
Y1518184D1*
Y1516688D1*
Y1515192D1*
Y1513696D1*
X462184Y1512200D1*
X466216Y1510704D1*
X469238Y1509208D1*
X470642Y1507711D1*
X471190Y1506215D1*
X471480Y1504719D1*
X471609Y1503223D1*
X471661Y1501727D1*
X471680Y1500231D1*
X471687Y1498735D1*
X471689Y1497239D1*
X471690Y1495743D1*
Y1494247D1*
Y1492751D1*
Y1491255D1*
Y1489759D1*
Y1488263D1*
Y1486767D1*
Y1485270D1*
Y1483774D1*
Y1482278D1*
Y1480782D1*
X461218Y1519680D2*
X463978Y1518184D1*
X466586Y1516688D1*
X469129Y1515192D1*
X471690Y1513696D1*
Y1519680D2*
X471629Y1518184D1*
X471397Y1516688D1*
X470885Y1515192D1*
X470194Y1513696D1*
X477675Y1519680D2*
Y1518184D1*
Y1516688D1*
Y1515192D1*
Y1513696D1*
Y1512200D1*
Y1510704D1*
Y1509208D1*
Y1507711D1*
Y1506215D1*
Y1504719D1*
Y1503223D1*
Y1501727D1*
Y1500231D1*
Y1498735D1*
Y1497239D1*
Y1495743D1*
Y1494247D1*
Y1492751D1*
Y1491255D1*
Y1489759D1*
Y1488263D1*
Y1486767D1*
Y1485270D1*
Y1483774D1*
Y1482278D1*
Y1480782D1*
X522556Y1519680D2*
X523304Y1518184D1*
X523931Y1516688D1*
X524560Y1515192D1*
X525231Y1513696D1*
X525895Y1512200D1*
X526484Y1510704D1*
X527005Y1509208D1*
X527536Y1507711D1*
X528046Y1506215D1*
X528534Y1504719D1*
X529095Y1503223D1*
X529737Y1501727D1*
X530389Y1500231D1*
X530975Y1498735D1*
X531494Y1497239D1*
X532024Y1495743D1*
X532534Y1494247D1*
X533022Y1492751D1*
X533583Y1491255D1*
X534225Y1489759D1*
X534878Y1488263D1*
X535463Y1486767D1*
X535983Y1485270D1*
X536521Y1483774D1*
X537043Y1482278D1*
X537517Y1480782D1*
X528541Y1519680D2*
X529288Y1518184D1*
X529910Y1516688D1*
X530492Y1515192D1*
X531024Y1513696D1*
X531515Y1512200D1*
X532033Y1510704D1*
X532538Y1509208D1*
X533023Y1507711D1*
X533583Y1506215D1*
X534225Y1504719D1*
X534878Y1503223D1*
X535463Y1501727D1*
X535982Y1500231D1*
X536518Y1498735D1*
X537090Y1497239D1*
X537844Y1495743D1*
X539026Y1494247D1*
X540509Y1492751D1*
X550982Y1519680D2*
X550234Y1518184D1*
X549613Y1516688D1*
X549031Y1515192D1*
X548498Y1513696D1*
X548007Y1512200D1*
X547490Y1510704D1*
X546985Y1509208D1*
X546499Y1507711D1*
X545939Y1506215D1*
X545297Y1504719D1*
X544645Y1503223D1*
X544059Y1501727D1*
X543540Y1500231D1*
X543004Y1498735D1*
X542432Y1497239D1*
X541678Y1495743D1*
X540497Y1494247D1*
X539013Y1492751D1*
X556966Y1519680D2*
X556218Y1518184D1*
X555591Y1516688D1*
X554962Y1515192D1*
X554292Y1513696D1*
X553628Y1512200D1*
X553038Y1510704D1*
X552517Y1509208D1*
X551986Y1507711D1*
X551476Y1506215D1*
X550994Y1504719D1*
X550480Y1503223D1*
X549976Y1501727D1*
X549491Y1500231D1*
X548931Y1498735D1*
X548289Y1497239D1*
X547637Y1495743D1*
X547051Y1494247D1*
X546532Y1492751D1*
X546002Y1491255D1*
X545492Y1489759D1*
X545004Y1488263D1*
X544443Y1486767D1*
X543800Y1485270D1*
X543140Y1483774D1*
X542537Y1482278D1*
X542005Y1480782D1*
X579407Y1519680D2*
Y1518184D1*
Y1516688D1*
Y1515192D1*
Y1513696D1*
Y1512200D1*
Y1510704D1*
Y1509208D1*
Y1507711D1*
Y1506215D1*
Y1504719D1*
Y1503223D1*
Y1501727D1*
Y1500231D1*
Y1498735D1*
Y1497239D1*
Y1495743D1*
Y1494247D1*
Y1492751D1*
Y1491255D1*
Y1489759D1*
Y1488263D1*
Y1486767D1*
Y1485270D1*
Y1483774D1*
Y1482278D1*
Y1480782D1*
X585391Y1519680D2*
Y1518184D1*
Y1516688D1*
Y1515192D1*
Y1513696D1*
Y1512200D1*
Y1510704D1*
Y1509208D1*
Y1507711D1*
Y1506215D1*
Y1504719D1*
Y1503223D1*
Y1501727D1*
Y1500231D1*
Y1498735D1*
Y1497239D1*
Y1495743D1*
Y1494247D1*
Y1492751D1*
Y1491255D1*
Y1489759D1*
Y1488263D1*
Y1486767D1*
Y1485270D1*
Y1483774D1*
Y1482278D1*
Y1480782D1*
X682635Y1519680D2*
X682360Y1518184D1*
X681835Y1516688D1*
X681139Y1515192D1*
X688619Y1519680D2*
Y1518184D1*
Y1516688D1*
Y1515192D1*
Y1513696D1*
Y1512200D1*
Y1510704D1*
Y1509208D1*
Y1507711D1*
Y1506215D1*
Y1504719D1*
Y1503223D1*
Y1501727D1*
Y1500231D1*
Y1498735D1*
Y1497239D1*
Y1495743D1*
Y1494247D1*
Y1492751D1*
Y1491255D1*
Y1489759D1*
Y1488263D1*
Y1486767D1*
Y1485270D1*
Y1483774D1*
Y1482278D1*
Y1480782D1*
X737990Y1519680D2*
Y1518184D1*
Y1516688D1*
Y1515192D1*
Y1513696D1*
Y1512200D1*
Y1510704D1*
Y1509208D1*
Y1507711D1*
Y1506215D1*
Y1504719D1*
Y1503223D1*
Y1501727D1*
Y1500231D1*
Y1498735D1*
Y1497239D1*
Y1495743D1*
Y1494247D1*
Y1492751D1*
Y1491255D1*
Y1489759D1*
Y1488263D1*
Y1486767D1*
Y1485270D1*
Y1483774D1*
Y1482278D1*
Y1480782D1*
X743974Y1519680D2*
Y1518184D1*
Y1516688D1*
Y1515192D1*
Y1513696D1*
Y1512200D1*
Y1510704D1*
Y1509208D1*
Y1507711D1*
Y1506215D1*
Y1504719D1*
Y1503223D1*
Y1501727D1*
Y1500231D1*
Y1498735D1*
Y1497239D1*
Y1495743D1*
Y1494247D1*
Y1492751D1*
Y1491255D1*
Y1489759D1*
Y1488263D1*
Y1486767D1*
Y1485270D1*
Y1483774D1*
Y1482278D1*
Y1480782D1*
X749958Y1519680D2*
Y1518184D1*
Y1516688D1*
Y1515192D1*
Y1513696D1*
X755413Y1512200D1*
X759444Y1510704D1*
X762466Y1509208D1*
X763870Y1507711D1*
X764418Y1506215D1*
X764709Y1504719D1*
X764837Y1503223D1*
X764889Y1501727D1*
X764908Y1500231D1*
X764915Y1498735D1*
X764917Y1497239D1*
X764918Y1495743D1*
X764919Y1494247D1*
Y1492751D1*
Y1491255D1*
Y1489759D1*
Y1488263D1*
Y1486767D1*
Y1485270D1*
Y1483774D1*
Y1482278D1*
Y1480782D1*
X754446Y1519680D2*
X757206Y1518184D1*
X759815Y1516688D1*
X762358Y1515192D1*
X764919Y1513696D1*
Y1519680D2*
X764857Y1518184D1*
X764625Y1516688D1*
X764113Y1515192D1*
X763423Y1513696D1*
X770903Y1519680D2*
Y1518184D1*
Y1516688D1*
Y1515192D1*
Y1513696D1*
Y1512200D1*
Y1510704D1*
Y1509208D1*
Y1507711D1*
Y1506215D1*
Y1504719D1*
Y1503223D1*
Y1501727D1*
Y1500231D1*
Y1498735D1*
Y1497239D1*
Y1495743D1*
Y1494247D1*
Y1492751D1*
Y1491255D1*
Y1489759D1*
Y1488263D1*
Y1486767D1*
Y1485270D1*
Y1483774D1*
Y1482278D1*
Y1480782D1*
X1056651Y1518184D2*
X1053934Y1516688D1*
X1051467Y1515192D1*
X1049171Y1513696D1*
X1061139Y1518184D2*
X1063780Y1516688D1*
X1065954Y1515192D1*
X1067534Y1513696D1*
X1068640Y1512200D1*
X1069373Y1510704D1*
X1069781Y1509208D1*
X1069977Y1507711D1*
X1070062Y1506215D1*
X1070096Y1504719D1*
X1070103Y1503223D1*
X1070055Y1501727D1*
X1069860Y1500231D1*
X1069438Y1498735D1*
X1068712Y1497239D1*
X1067693Y1495743D1*
X1064245Y1494247D1*
X1058831Y1492751D1*
X1052163Y1491255D1*
X331060Y1516688D2*
X329627Y1515192D1*
X328381Y1513696D1*
X327493Y1512200D1*
X326988Y1510704D1*
X326744Y1509208D1*
X326638Y1507711D1*
X326596Y1506215D1*
X326581Y1504719D1*
X326575Y1503223D1*
X326573Y1501727D1*
X326572Y1500231D1*
Y1498735D1*
Y1497239D1*
Y1495743D1*
Y1494247D1*
Y1492751D1*
Y1491255D1*
Y1489759D1*
Y1488263D1*
Y1486767D1*
Y1485270D1*
Y1483774D1*
Y1482278D1*
Y1480782D1*
X335549Y1516688D2*
X338241Y1515192D1*
X340553Y1513696D1*
X342301Y1512200D1*
X343630Y1510704D1*
X344092Y1509208D1*
X344341Y1507711D1*
X344453Y1506215D1*
X344499Y1504719D1*
X344516Y1503223D1*
X344522Y1501727D1*
X344524Y1500231D1*
X344525Y1498735D1*
Y1497239D1*
Y1495743D1*
Y1494247D1*
Y1492751D1*
Y1491255D1*
Y1489759D1*
Y1488263D1*
Y1486767D1*
Y1485270D1*
Y1483774D1*
Y1482278D1*
Y1480782D1*
X371454Y1516688D2*
X370021Y1515192D1*
X368775Y1513696D1*
X367746Y1512200D1*
X367474Y1510704D1*
X367404Y1509208D1*
X370787Y1507711D1*
X375303Y1506215D1*
X380032Y1504719D1*
X383922Y1503223D1*
X386734Y1501727D1*
X388692Y1500231D1*
X390055Y1498735D1*
X391030Y1497239D1*
X391700Y1495743D1*
X392081Y1494247D1*
X392261Y1492751D1*
X392289Y1491255D1*
X392125Y1489759D1*
X391721Y1488263D1*
X391092Y1486767D1*
X390220Y1485270D1*
X389033Y1483774D1*
X387487Y1482278D1*
X385562Y1480782D1*
X383423Y1479286D1*
Y1516688D2*
X384919Y1515192D1*
X410352Y1516688D2*
X408918Y1515192D1*
X407673Y1513696D1*
X406784Y1512200D1*
X406279Y1510704D1*
X406035Y1509208D1*
X405930Y1507711D1*
X405888Y1506215D1*
X405872Y1504719D1*
X405866Y1503223D1*
X405864Y1501727D1*
Y1500231D1*
Y1498735D1*
Y1497239D1*
Y1495743D1*
Y1494247D1*
Y1492751D1*
Y1491255D1*
Y1489759D1*
Y1488263D1*
Y1486767D1*
Y1485270D1*
Y1483774D1*
Y1482278D1*
Y1480782D1*
X413344Y1516688D2*
X416036Y1515192D1*
X418349Y1513696D1*
X420097Y1512200D1*
X421425Y1510704D1*
X421888Y1509208D1*
X422137Y1507711D1*
X422249Y1506215D1*
X422294Y1504719D1*
X422311Y1503223D1*
X422317Y1501727D1*
X422319Y1500231D1*
X422320Y1498735D1*
Y1497239D1*
Y1495743D1*
Y1494247D1*
Y1492751D1*
Y1491255D1*
Y1489759D1*
Y1488263D1*
Y1486767D1*
Y1485270D1*
Y1483774D1*
Y1482278D1*
Y1480782D1*
X432793Y1516688D2*
X431359Y1515192D1*
X430114Y1513696D1*
X429225Y1512200D1*
X428720Y1510704D1*
X428476Y1509208D1*
X428371Y1507711D1*
X428329Y1506215D1*
X428313Y1504719D1*
X428307Y1503223D1*
X428305Y1501727D1*
Y1500231D1*
Y1498735D1*
X428304Y1497239D1*
Y1495743D1*
Y1494247D1*
Y1492751D1*
Y1491255D1*
Y1489759D1*
Y1488263D1*
Y1486767D1*
Y1485270D1*
Y1483774D1*
Y1482278D1*
Y1480782D1*
X435785Y1516688D2*
X438477Y1515192D1*
X440790Y1513696D1*
X442538Y1512200D1*
X443866Y1510704D1*
X444329Y1509208D1*
X444578Y1507711D1*
X444690Y1506215D1*
X444735Y1504719D1*
X444752Y1503223D1*
X444758Y1501727D1*
X444760Y1500231D1*
X444761Y1498735D1*
Y1497239D1*
Y1495743D1*
Y1494247D1*
Y1492751D1*
Y1491255D1*
Y1489759D1*
Y1488263D1*
Y1486767D1*
Y1485270D1*
Y1483774D1*
Y1482278D1*
Y1480782D1*
X497123Y1516688D2*
X495684Y1515192D1*
X494386Y1513696D1*
X493307Y1512200D1*
X492443Y1510704D1*
X491816Y1509208D1*
X491448Y1507711D1*
X491258Y1506215D1*
X491139Y1504719D1*
X506100Y1516688D2*
X507596Y1515192D1*
X509086Y1513696D1*
X510524Y1512200D1*
X511771Y1510704D1*
X512659Y1509208D1*
X513166Y1507711D1*
X513422Y1506215D1*
X513580Y1504719D1*
X669171Y1516688D2*
X667737Y1515192D1*
X666491Y1513696D1*
X665603Y1512200D1*
X665098Y1510704D1*
X664854Y1509208D1*
X664749Y1507711D1*
X664707Y1506215D1*
X664691Y1504719D1*
X664685Y1503223D1*
X664683Y1501727D1*
Y1500231D1*
Y1498735D1*
X664682Y1497239D1*
Y1495743D1*
Y1494247D1*
Y1492751D1*
Y1491255D1*
Y1489759D1*
Y1488263D1*
Y1486767D1*
Y1485270D1*
Y1483774D1*
Y1482278D1*
Y1480782D1*
X673659Y1516688D2*
X676351Y1515192D1*
X678664Y1513696D1*
X680412Y1512200D1*
X681740Y1510704D1*
X682203Y1509208D1*
X682452Y1507711D1*
X682564Y1506215D1*
X682609Y1504719D1*
X682626Y1503223D1*
X682632Y1501727D1*
X682634Y1500231D1*
X682635Y1498735D1*
Y1497239D1*
Y1495743D1*
Y1494247D1*
Y1492751D1*
Y1491255D1*
Y1489759D1*
Y1488263D1*
Y1486767D1*
Y1485270D1*
Y1483774D1*
Y1482278D1*
Y1480782D1*
X709564Y1516688D2*
X708131Y1515192D1*
X706885Y1513696D1*
X705856Y1512200D1*
X705584Y1510704D1*
X705514Y1509208D1*
X708897Y1507711D1*
X713414Y1506215D1*
X718142Y1504719D1*
X722032Y1503223D1*
X724844Y1501727D1*
X726802Y1500231D1*
X728165Y1498735D1*
X729140Y1497239D1*
X729810Y1495743D1*
X730191Y1494247D1*
X730371Y1492751D1*
X730399Y1491255D1*
X730235Y1489759D1*
X729831Y1488263D1*
X729203Y1486767D1*
X728330Y1485270D1*
X727144Y1483774D1*
X725598Y1482278D1*
X723672Y1480782D1*
X721533Y1479286D1*
X718541Y1516688D2*
X723029Y1515192D1*
X727517Y1513696D1*
X790352Y1506215D2*
X788861Y1504719D1*
X787424Y1503223D1*
X786177Y1501727D1*
X785288Y1500231D1*
X784783Y1498735D1*
X784545Y1497239D1*
X784492Y1495743D1*
X784647Y1494247D1*
X785053Y1492751D1*
X785626Y1491255D1*
X786884Y1489759D1*
X791375Y1488263D1*
X798864Y1486767D1*
X808304Y1485270D1*
X806808Y1506215D2*
Y1504719D1*
Y1503223D1*
Y1501727D1*
Y1500231D1*
Y1498735D1*
Y1497239D1*
Y1495743D1*
Y1494247D1*
Y1492751D1*
Y1491255D1*
Y1489759D1*
Y1488263D1*
Y1486767D1*
X791848Y1485270D1*
X366966Y1501727D2*
Y1500231D1*
Y1498735D1*
Y1497239D1*
Y1495743D1*
X366972Y1494247D1*
X367030Y1492751D1*
X367285Y1491255D1*
X367769Y1489759D1*
X369120Y1488263D1*
X372697Y1486767D1*
X378193Y1485270D1*
X384919Y1483774D1*
X372950Y1501727D2*
X377024Y1500231D1*
X380444Y1498735D1*
X382912Y1497239D1*
X384752Y1495743D1*
X385558Y1494247D1*
X386023Y1492751D1*
X386192Y1491255D1*
X386174Y1489759D1*
X385482Y1488263D1*
X382829Y1486767D1*
X378453Y1485270D1*
X372950Y1483774D1*
X705076Y1501727D2*
Y1500231D1*
Y1498735D1*
Y1497239D1*
Y1495743D1*
X705082Y1494247D1*
X705140Y1492751D1*
X705395Y1491255D1*
X705880Y1489759D1*
X707230Y1488263D1*
X710807Y1486767D1*
X716303Y1485270D1*
X723029Y1483774D1*
X711060Y1501727D2*
X715135Y1500231D1*
X718554Y1498735D1*
X721022Y1497239D1*
X722863Y1495743D1*
X723668Y1494247D1*
X724133Y1492751D1*
X724302Y1491255D1*
X724284Y1489759D1*
X723592Y1488263D1*
X720940Y1486767D1*
X716563Y1485270D1*
X711060Y1483774D1*
X513580Y1500231D2*
X513574Y1498735D1*
X513522Y1497239D1*
X513325Y1495743D1*
X512914Y1494247D1*
X512328Y1492751D1*
X511598Y1491255D1*
X510583Y1489759D1*
X509247Y1488263D1*
X505274Y1486767D1*
X498983Y1485270D1*
X491139Y1483774D1*
X1049171Y1494247D2*
X1049416Y1492751D1*
X1050345Y1491255D1*
X1052571Y1489759D1*
X1055155Y1488263D1*
X1050667Y1494247D2*
X1057866Y1492751D1*
X1065627Y1491255D1*
X625785Y1489759D2*
X622992Y1488263D1*
X618573Y1486767D1*
X611716Y1485270D1*
X603344Y1483774D1*
X627281Y1489759D2*
X627275Y1488263D1*
X627205Y1486767D1*
X627030Y1485270D1*
X626092Y1483774D1*
X623630Y1482278D1*
X620409Y1480782D1*
X616808Y1479286D1*
X485155Y1486767D2*
X485292Y1485270D1*
X485611Y1483774D1*
X487110Y1482278D1*
X490394Y1480782D1*
X494131Y1479286D1*
X488147Y1486767D2*
X497451Y1485270D1*
X507596Y1483774D1*
X966887Y1485270D2*
Y1483774D1*
Y1482278D1*
Y1480782D1*
X366966Y1483774D2*
Y1482278D1*
Y1480782D1*
X369958Y1483774D2*
X372004Y1482278D1*
X374550Y1480782D1*
X377438Y1479286D1*
X705076Y1483774D2*
Y1482278D1*
Y1480782D1*
X708068Y1483774D2*
X710114Y1482278D1*
X712660Y1480782D1*
X715549Y1479286D1*
X650783Y250184D2*
D86*
X652684Y252108D1*
X655558Y253058D1*
X659383D1*
X662257Y252108D1*
X664180Y250184D1*
Y248283D1*
X663207Y246360D1*
X662257Y245409D1*
X660355Y244458D1*
X654607Y242535D1*
X652684Y241584D1*
X651733Y240612D1*
X650783Y238710D1*
Y235836D1*
X652684Y233935D1*
X655558Y232962D1*
X659383D1*
X662257Y233935D1*
X664180Y235836D1*
X644607Y249211D2*
X642684Y250184D1*
X639810Y253036D1*
Y232962D1*
X944088Y393189D2*
X945989Y395113D1*
X948863Y396064D1*
X952688D1*
X955562Y395113D1*
X957485Y393189D1*
Y391288D1*
X956512Y389365D1*
X955562Y388414D1*
X953661Y387464D1*
X947913Y385540D1*
X945989Y384590D1*
X945038Y383617D1*
X944088Y381716D1*
Y378842D1*
X945989Y376940D1*
X948863Y375968D1*
X952688D1*
X955562Y376940D1*
X957485Y378842D1*
X936939Y391266D2*
Y392217D1*
X935989Y394140D1*
X935038Y395091D1*
X933115Y396041D1*
X929290D1*
X927389Y395091D1*
X926438Y394140D1*
X925465Y392217D1*
Y390315D1*
X926438Y388392D1*
X928339Y385540D1*
X937912Y375968D1*
X924515D1*
X950093Y102187D2*
X951994Y104110D1*
X954868Y105061D1*
X958693D1*
X961567Y104110D1*
X963490Y102187D1*
Y100286D1*
X962518Y98362D1*
X961567Y97412D1*
X959666Y96461D1*
X953918Y94538D1*
X951994Y93587D1*
X951044Y92614D1*
X950093Y90713D1*
Y87839D1*
X951994Y85938D1*
X954868Y84965D1*
X958693D1*
X961567Y85938D1*
X963490Y87839D1*
X941994Y105039D2*
X931493D1*
X937219Y97389D1*
X934345D1*
X932443Y96439D1*
X931493Y95488D1*
X930520Y92614D1*
Y90713D1*
X931493Y87839D1*
X933394Y85916D1*
X936268Y84965D1*
X939142D1*
X941994Y85916D1*
X942945Y86888D1*
X943917Y88790D1*
X1061563Y204098D2*
X1063464Y206021D1*
X1066338Y206972D1*
X1070163D1*
X1073037Y206021D1*
X1074961Y204098D1*
Y202196D1*
X1073988Y200273D1*
X1073037Y199322D1*
X1071136Y198372D1*
X1065388Y196448D1*
X1063464Y195498D1*
X1062514Y194525D1*
X1061563Y192624D1*
Y189750D1*
X1063464Y187848D1*
X1066338Y186876D1*
X1070163D1*
X1073037Y187848D1*
X1074961Y189750D1*
X1045815Y186876D2*
Y206950D1*
X1055387Y193574D1*
X1041039D1*
M02*
