G04 DipTrace 3.1.0.0*
G04 BottomSilk.gbr*
%MOIN*%
G04 #@! TF.FileFunction,Legend,Bot*
G04 #@! TF.Part,Single*
%ADD10C,0.009843*%
%ADD42C,0.011806*%
%ADD44C,0.011811*%
%ADD118C,0.003088*%
%FSLAX26Y26*%
G04*
G70*
G90*
G75*
G01*
G04 BotSilk*
%LPD*%
X997703Y652730D2*
D10*
G02X997703Y652730I31494J0D01*
G01*
X1084315Y711785D2*
Y593675D1*
X974078Y711785D2*
Y692100D1*
Y593675D1*
X1023287Y735407D2*
X1035106D1*
X1023287Y570053D2*
X1035106D1*
D42*
X966203Y568084D3*
X1272651Y763196D2*
D10*
G02X1272651Y763196I31496J0D01*
G01*
X1245092Y818315D2*
X1363202D1*
X1245092Y708078D2*
X1264777D1*
X1363202D1*
X1221470Y757287D2*
Y769106D1*
X1386824Y757287D2*
Y769106D1*
D44*
X1388793Y700203D3*
X1272651Y542196D2*
D10*
G02X1272651Y542196I31496J0D01*
G01*
X1245092Y597315D2*
X1363202D1*
X1245092Y487078D2*
X1264777D1*
X1363202D1*
X1221470Y536287D2*
Y548106D1*
X1386824Y536287D2*
Y548106D1*
D44*
X1388793Y479203D3*
X1547703Y652730D2*
D10*
G02X1547703Y652730I31494J0D01*
G01*
X1634315Y711785D2*
Y593675D1*
X1524078Y711785D2*
Y692100D1*
Y593675D1*
X1573287Y735407D2*
X1585106D1*
X1573287Y570053D2*
X1585106D1*
D42*
X1516203Y568084D3*
X409408Y953100D2*
D118*
X407506Y954051D1*
X405583Y955974D1*
X404632Y957875D1*
Y961700D1*
X405583Y963623D1*
X407506Y965525D1*
X409408Y966497D1*
X412282Y967448D1*
X417079D1*
X419931Y966497D1*
X421854Y965525D1*
X423756Y963623D1*
X424728Y961700D1*
Y957875D1*
X423756Y955974D1*
X421854Y954051D1*
X419931Y953100D1*
X404654Y945001D2*
Y934500D1*
X412304Y940226D1*
Y937352D1*
X413254Y935450D1*
X414205Y934500D1*
X417079Y933527D1*
X418980D1*
X421854Y934500D1*
X423778Y936401D1*
X424728Y939275D1*
Y942149D1*
X423778Y945001D1*
X422805Y945952D1*
X420904Y946924D1*
X404654Y921603D2*
X405605Y924477D1*
X408479Y926401D1*
X413254Y927351D1*
X416128D1*
X420904Y926401D1*
X423778Y924477D1*
X424728Y921603D1*
Y919702D1*
X423778Y916828D1*
X420904Y914927D1*
X416128Y913954D1*
X413254D1*
X408479Y914927D1*
X405605Y916828D1*
X404654Y919702D1*
Y921603D1*
X408479Y914927D2*
X420904Y926401D1*
X1046095Y777570D2*
X1047996Y779494D1*
X1050870Y780444D1*
X1054695D1*
X1057569Y779494D1*
X1059493Y777570D1*
Y775669D1*
X1058520Y773746D1*
X1057569Y772795D1*
X1055668Y771844D1*
X1049920Y769921D1*
X1047996Y768970D1*
X1047046Y767998D1*
X1046095Y766096D1*
Y763222D1*
X1047996Y761321D1*
X1050870Y760348D1*
X1054695D1*
X1057569Y761321D1*
X1059493Y763222D1*
X1039919Y776598D2*
X1037996Y777570D1*
X1035122Y780422D1*
Y760348D1*
X1307235Y844730D2*
X1309136Y846654D1*
X1312010Y847604D1*
X1315835D1*
X1318709Y846654D1*
X1320632Y844730D1*
Y842829D1*
X1319660Y840906D1*
X1318709Y839955D1*
X1316808Y839004D1*
X1311060Y837081D1*
X1309136Y836130D1*
X1308186Y835158D1*
X1307235Y833256D1*
Y830382D1*
X1309136Y828481D1*
X1312010Y827508D1*
X1315835D1*
X1318709Y828481D1*
X1320632Y830382D1*
X1300087Y842807D2*
Y843758D1*
X1299136Y845681D1*
X1298185Y846632D1*
X1296262Y847582D1*
X1292437D1*
X1290536Y846632D1*
X1289585Y845681D1*
X1288613Y843758D1*
Y841856D1*
X1289585Y839933D1*
X1291487Y837081D1*
X1301059Y827508D1*
X1287662D1*
X1307235Y623730D2*
X1309136Y625654D1*
X1312010Y626604D1*
X1315835D1*
X1318709Y625654D1*
X1320632Y623730D1*
Y621829D1*
X1319660Y619906D1*
X1318709Y618955D1*
X1316808Y618004D1*
X1311060Y616081D1*
X1309136Y615130D1*
X1308186Y614158D1*
X1307235Y612256D1*
Y609382D1*
X1309136Y607481D1*
X1312010Y606508D1*
X1315835D1*
X1318709Y607481D1*
X1320632Y609382D1*
X1299136Y626582D2*
X1288635D1*
X1294361Y618933D1*
X1291487D1*
X1289585Y617982D1*
X1288635Y617032D1*
X1287662Y614158D1*
Y612256D1*
X1288635Y609382D1*
X1290536Y607459D1*
X1293410Y606508D1*
X1296284D1*
X1299136Y607459D1*
X1300087Y608432D1*
X1301059Y610333D1*
X1575870Y777570D2*
X1577772Y779494D1*
X1580646Y780444D1*
X1584470D1*
X1587344Y779494D1*
X1589268Y777570D1*
Y775669D1*
X1588295Y773746D1*
X1587344Y772795D1*
X1585443Y771844D1*
X1579695Y769921D1*
X1577772Y768970D1*
X1576821Y767998D1*
X1575870Y766096D1*
Y763222D1*
X1577772Y761321D1*
X1580646Y760348D1*
X1584470D1*
X1587344Y761321D1*
X1589268Y763222D1*
X1560122Y760348D2*
Y780422D1*
X1569695Y767047D1*
X1555347D1*
M02*
