G04 DipTrace 3.1.0.0*
G04 GND.gbr*
%MOIN*%
G04 #@! TF.FileFunction,Copper,L4,Bot*
G04 #@! TF.Part,Single*
%ADD16C,0.02*%
%ADD31C,0.03937*%
%ADD36C,0.066929*%
G04 #@! TA.AperFunction,Conductor*
%ADD13C,0.005997*%
G04 #@! TA.AperFunction,CopperBalancing*
%ADD18C,0.005*%
%ADD19C,0.015*%
%ADD44R,0.023622X0.025591*%
%ADD45R,0.025591X0.023622*%
G04 #@! TA.AperFunction,ViaPad*
%ADD57C,0.025*%
%FSLAX26Y26*%
G04*
G70*
G90*
G75*
G01*
G04 Bottom_Plane*
%LPD*%
X593000Y347000D2*
D13*
X563010D1*
X563005Y346995D1*
X593000Y347000D2*
X623000D1*
X653000D1*
X683000D1*
X563005Y316995D2*
X623000D1*
Y317000D1*
X653000D1*
X683000D1*
X713005Y316995D2*
X743005D1*
X803005Y466995D2*
X803000Y466990D1*
Y437000D1*
Y407000D1*
Y377000D1*
X802995Y376995D1*
Y347005D1*
Y317005D1*
X833005Y466995D2*
X833000Y466990D1*
Y437000D1*
Y407000D1*
Y377000D1*
X832995Y376995D1*
Y347005D1*
Y317005D1*
X863005Y466995D2*
X862000Y465990D1*
Y437000D1*
Y407000D1*
Y377000D1*
X863000D1*
Y347000D1*
Y317000D2*
Y347000D1*
X893024Y415669D2*
X923005Y385688D1*
Y316995D1*
X770976Y415669D2*
X743005Y387698D1*
Y316995D1*
X768976Y95669D2*
X891024D1*
X1044331Y248976D1*
X1071669D1*
Y371024D1*
X1105024D1*
X1259997Y525997D1*
X1283007D1*
X924005Y436995D2*
X924000Y436990D1*
Y407000D1*
X953005Y436995D2*
X953000Y436990D1*
Y407000D1*
X1071669Y248976D2*
X1108236D1*
X1265213Y92000D1*
X1126000Y496000D2*
Y491000D1*
X1028000Y393000D1*
Y291000D1*
X1003000Y266000D1*
X605961D1*
X596024Y256063D1*
X473976D1*
X893024Y523937D2*
Y446024D1*
X892000Y445000D1*
X770976Y523937D2*
Y448024D1*
X773000Y446000D1*
X1167000Y502000D2*
X1159000D1*
X1040000Y383000D1*
Y282000D1*
X959000Y201000D1*
X893961D1*
X891024Y203937D1*
X768976D1*
X1214000Y398000D2*
Y395047D1*
X1189976Y371024D1*
X1179937D1*
Y248976D1*
D16*
X1161000Y925000D3*
X1059000Y893000D3*
X1202472Y1071953D3*
X1017000Y1160000D3*
X1117472Y1160953D3*
X130000Y825000D3*
X54000Y863000D3*
X67000Y520000D3*
X125000Y510000D3*
X123685Y580472D3*
X154000Y567000D3*
X520000Y744000D3*
X130000Y785000D3*
X83000Y473000D3*
X213000Y546000D3*
X1221995Y1348997D3*
D57*
X683005Y466995D3*
D16*
X969000Y775000D3*
X495000Y759000D3*
X39000Y520000D3*
D57*
X533005Y466995D3*
D16*
X335000Y857000D3*
X50000Y572000D3*
X248706Y1066995D3*
X278706D3*
X130000Y745000D3*
X197000Y568000D3*
D57*
X683005Y436995D3*
X533005D3*
X683005Y406995D3*
D16*
X130000Y705000D3*
Y665000D3*
X170000Y825000D3*
Y785000D3*
Y745000D3*
X205990Y1111995D3*
X223995D3*
X170000Y705000D3*
X1051000Y489000D3*
X348005Y1314003D3*
Y1269003D3*
X580000Y803000D3*
X359003Y1291995D3*
X990000Y1314003D3*
X938000Y635000D3*
D57*
X683005Y376995D3*
X923005Y466995D3*
D16*
X1041000Y589000D3*
D57*
X67000Y377000D3*
X924005Y436995D3*
X713005Y466995D3*
Y436995D3*
Y406995D3*
X36995Y376995D3*
D16*
X359000Y1142000D3*
D57*
X36995Y346995D3*
Y316995D3*
D16*
X743000Y1051000D3*
X847060Y666417D3*
X846995Y606995D3*
X170000Y665000D3*
X210000Y825000D3*
Y785000D3*
D57*
X713005Y376995D3*
D16*
X210000Y745000D3*
Y705000D3*
D57*
X713005Y346995D3*
Y316995D3*
D16*
X210000Y665000D3*
X1221995Y1318997D3*
X250000Y825000D3*
D57*
X593005Y466995D3*
Y436995D3*
D16*
X1004003Y1291995D3*
X980000D3*
X400000Y547000D3*
X452000Y806000D3*
X413000Y690000D3*
X25000Y838000D3*
X34000Y735000D3*
X1046000Y558000D3*
D57*
X593005Y406995D3*
D16*
X1221995Y1262003D3*
D57*
X593005Y376995D3*
D16*
X1190000Y531000D3*
X318706Y1066995D3*
X208706D3*
X1135000Y775000D3*
X919000Y822000D3*
X250000Y785000D3*
X42000Y666000D3*
X250000Y745000D3*
Y705000D3*
Y665000D3*
X290000Y825000D3*
D57*
X66995Y346995D3*
Y316995D3*
D16*
X290000Y785000D3*
Y745000D3*
Y705000D3*
Y665000D3*
X522000Y868000D3*
X557000Y867000D3*
X598000Y837000D3*
X1143000Y1269000D3*
X443000Y1231000D3*
D57*
X533005Y406995D3*
Y376995D3*
X96995D3*
Y346995D3*
Y316995D3*
X533005Y346995D3*
Y316995D3*
X563005Y466995D3*
Y436995D3*
Y406995D3*
Y376995D3*
Y346995D3*
Y316995D3*
X653000Y347000D3*
X923005Y376995D3*
D16*
X1221995Y1232003D3*
D57*
X126995Y376995D3*
Y346995D3*
Y316995D3*
Y406995D3*
X156995D3*
D16*
X938000Y1001000D3*
D57*
X623005Y466995D3*
Y436995D3*
Y406995D3*
Y376995D3*
X923005Y346995D3*
Y316995D3*
X653005Y466995D3*
X156995Y376995D3*
Y346995D3*
Y316995D3*
X653005Y436995D3*
Y406995D3*
Y376995D3*
X953005Y466995D3*
Y436995D3*
X186995Y466995D3*
Y436995D3*
Y406995D3*
X953005Y376995D3*
Y346995D3*
Y316995D3*
X743005Y466995D3*
X740005Y436995D3*
Y406995D3*
X743005Y376995D3*
Y346995D3*
Y316995D3*
X186995Y376995D3*
Y346995D3*
Y316995D3*
X924000Y407000D3*
X833000Y437000D3*
Y407000D3*
X773005Y376995D3*
X216995Y465997D3*
Y436995D3*
Y406995D3*
Y376995D3*
Y346995D3*
Y316995D3*
X773005Y346995D3*
X803005Y466995D3*
X833000Y377000D3*
X246995Y465997D3*
Y436995D3*
Y406995D3*
Y376995D3*
Y346995D3*
Y316995D3*
D16*
X1280000Y1523000D3*
X121000Y1068000D3*
D57*
X276995Y466995D3*
Y436995D3*
Y406995D3*
Y376995D3*
Y346995D3*
Y316995D3*
X353005Y466995D3*
Y436995D3*
Y406995D3*
Y376995D3*
Y346995D3*
Y316995D3*
X833005Y466995D3*
X862000Y437000D3*
X383005Y466995D3*
Y436995D3*
Y406995D3*
Y376995D3*
Y346995D3*
Y316995D3*
D16*
X61000Y996000D3*
Y1065000D3*
D57*
X863005Y466995D3*
X862000Y407000D3*
X413005Y466995D3*
Y436995D3*
Y406995D3*
Y376995D3*
Y346995D3*
Y316995D3*
D16*
X956000Y1051000D3*
D57*
X863000Y377000D3*
Y347000D3*
Y317000D3*
X443005Y466995D3*
Y436995D3*
Y406995D3*
Y376995D3*
Y346995D3*
Y316995D3*
X953000Y407000D3*
X802995Y347005D3*
D16*
X633000Y1225000D3*
D57*
X893005Y376995D3*
X473005Y466995D3*
Y436995D3*
Y406995D3*
Y376995D3*
Y346995D3*
X893005D3*
X653000Y317000D3*
D16*
X887000Y1224000D3*
D57*
X503005Y466995D3*
Y436995D3*
Y406995D3*
Y376995D3*
Y346995D3*
Y316995D3*
D16*
X748000Y999000D3*
D57*
X683000Y347000D3*
Y317000D3*
X593000Y347000D3*
X623000D3*
Y317000D3*
D16*
X25000Y1328000D3*
X1190000Y590000D3*
X488756Y1070000D3*
X489000Y671000D3*
X484000Y799000D3*
X451000Y547000D3*
X384000Y1219000D3*
X501680Y1232087D3*
X521365D3*
X541050D3*
X560735D3*
X580420D3*
X659160Y1219087D3*
X678845D3*
X698530D3*
X718215D3*
X915066Y1224087D3*
X954436D3*
X780000Y555997D3*
X755000Y655997D3*
X88000Y874000D3*
X87000Y910000D3*
X117000Y929000D3*
X119000Y959000D3*
X167000Y914000D3*
Y941000D3*
X362000Y949000D3*
X291000Y937000D3*
X170000Y1006000D3*
X347000Y900000D3*
X218000Y918000D3*
X244000Y922000D3*
X265000Y938000D3*
X372000Y878000D3*
X67000Y1548000D3*
X69000Y1623000D3*
X251000Y1259000D3*
X149360Y1411000D3*
X705000Y1001000D3*
X1182000Y837000D3*
X878000Y793000D3*
X1045000Y1058000D3*
X1162000Y976000D3*
X1214000Y398000D3*
X1126000Y496000D3*
X714000Y922000D3*
X667000Y1013000D3*
X1189000Y673000D3*
X533000Y1147000D3*
X330000Y944000D3*
X878000Y907000D3*
X1123000Y266000D3*
X383000Y1253000D3*
X1235000Y309000D3*
X688000Y1151000D3*
X595000Y1376000D3*
X72000Y1374000D3*
X612000Y1149000D3*
X1025000Y1236000D3*
X716000Y1341000D3*
X497000Y881000D3*
X751000Y1140000D3*
X737000Y774000D3*
X861000Y846000D3*
X57000Y1310000D3*
X1296194Y675512D3*
X166000Y968000D3*
D57*
X803000Y437000D3*
Y407000D3*
Y377000D3*
X802995Y317005D3*
X832995Y347005D3*
Y317005D3*
D16*
X1167000Y502000D3*
X1146000Y670000D3*
X909000Y510000D3*
X892000Y445000D3*
X773000Y446000D3*
X18997Y1669547D2*
D18*
X1306996D1*
X18997Y1664678D2*
X1306996D1*
X18997Y1659810D2*
X1306996D1*
X18997Y1654941D2*
X1306996D1*
X18997Y1650072D2*
X1306996D1*
X18997Y1645203D2*
X1306996D1*
X18997Y1640335D2*
X61488D1*
X76503D2*
X1306996D1*
X18997Y1635466D2*
X54564D1*
X83436D2*
X1268803D1*
X1293202D2*
X1306996D1*
X18997Y1630597D2*
X51420D1*
X86580D2*
X1261400D1*
X1300604D2*
X1306996D1*
X18997Y1625728D2*
X50004D1*
X87996D2*
X1257143D1*
X1304862D2*
X1307004D1*
X18997Y1620860D2*
X49927D1*
X88075D2*
X1254448D1*
X18997Y1615991D2*
X51167D1*
X86835D2*
X1252846D1*
X18997Y1611122D2*
X54056D1*
X83944D2*
X1252163D1*
X18997Y1606253D2*
X60190D1*
X77811D2*
X1252319D1*
X18997Y1601385D2*
X1253335D1*
X18997Y1596516D2*
X1255316D1*
X18997Y1591647D2*
X1258520D1*
X18997Y1586778D2*
X1263636D1*
X18997Y1581909D2*
X1261987D1*
X18997Y1577041D2*
X1257514D1*
X18997Y1572172D2*
X1254672D1*
X18997Y1567303D2*
X1252972D1*
X18997Y1562434D2*
X1252192D1*
X18997Y1557566D2*
X1252260D1*
X18997Y1552697D2*
X1253178D1*
X18997Y1547828D2*
X1255052D1*
X18997Y1542959D2*
X1258100D1*
X1303895D2*
X1306996D1*
X18997Y1538091D2*
X1262944D1*
X1299051D2*
X1306996D1*
X18997Y1533222D2*
X1272299D1*
X1289696D2*
X1306996D1*
X18997Y1528353D2*
X1306996D1*
X18997Y1523484D2*
X1306996D1*
X18997Y1518615D2*
X1306996D1*
X18997Y1513747D2*
X1306996D1*
X18997Y1508878D2*
X1306996D1*
X18997Y1504009D2*
X1306996D1*
X18997Y1499140D2*
X1306996D1*
X18997Y1494272D2*
X1306996D1*
X18997Y1489403D2*
X1306996D1*
X18997Y1484534D2*
X1306996D1*
X18997Y1479665D2*
X1306996D1*
X18997Y1474797D2*
X1306996D1*
X18997Y1469928D2*
X1306996D1*
X18997Y1465059D2*
X1306996D1*
X18997Y1460190D2*
X1306996D1*
X18997Y1455322D2*
X1306996D1*
X18997Y1450453D2*
X1306996D1*
X18997Y1445584D2*
X1306996D1*
X18997Y1440715D2*
X1306996D1*
X18997Y1435846D2*
X1306996D1*
X18997Y1430978D2*
X1306996D1*
X18997Y1426109D2*
X1306996D1*
X18997Y1421240D2*
X1306996D1*
X18997Y1416371D2*
X1306996D1*
X18997Y1411503D2*
X1306996D1*
X18997Y1406634D2*
X1306996D1*
X18997Y1401765D2*
X1306996D1*
X18997Y1396896D2*
X1306996D1*
X18997Y1392028D2*
X66538D1*
X77459D2*
X584867D1*
X605125D2*
X1306996D1*
X18997Y1387159D2*
X58217D1*
X85780D2*
X579496D1*
X610507D2*
X1306996D1*
X18997Y1382290D2*
X54740D1*
X89256D2*
X576888D1*
X613104D2*
X1306996D1*
X18997Y1377421D2*
X53119D1*
X90877D2*
X575854D1*
X614139D2*
X1306996D1*
X18997Y1372552D2*
X52856D1*
X91140D2*
X576127D1*
X613875D2*
X1306996D1*
X18997Y1367684D2*
X53900D1*
X90096D2*
X577759D1*
X612244D2*
X1306996D1*
X18997Y1362815D2*
X56518D1*
X87479D2*
X581244D1*
X608759D2*
X1208900D1*
X1235087D2*
X1306996D1*
X18997Y1357946D2*
X61919D1*
X82088D2*
X589633D1*
X600360D2*
X707602D1*
X724403D2*
X1205083D1*
X1238915D2*
X1306996D1*
X18997Y1353077D2*
X701224D1*
X730770D2*
X1203247D1*
X1240740D2*
X1306996D1*
X18997Y1348209D2*
X698247D1*
X733748D2*
X1202816D1*
X1241180D2*
X1306996D1*
X36190Y1343340D2*
X696948D1*
X735047D2*
X1203676D1*
X1240311D2*
X1269408D1*
X1292587D2*
X1306996D1*
X40995Y1338471D2*
X696976D1*
X735028D2*
X1206039D1*
X1237948D2*
X1261694D1*
X1300301D2*
X1306996D1*
X43339Y1333602D2*
X698324D1*
X733671D2*
X1209819D1*
X1234168D2*
X1257328D1*
X1304676D2*
X1306993D1*
X44178Y1328734D2*
X701391D1*
X730614D2*
X1205531D1*
X1238455D2*
X1254564D1*
X70047Y1323865D2*
X708022D1*
X723983D2*
X1203442D1*
X1240545D2*
X1252904D1*
X73895Y1318996D2*
X1202797D1*
X1241190D2*
X1252172D1*
X75740Y1314127D2*
X1203442D1*
X1240545D2*
X1252289D1*
X18997Y1309259D2*
X37816D1*
X76180D2*
X1205531D1*
X1238455D2*
X1253256D1*
X18997Y1304390D2*
X38667D1*
X75340D2*
X1209828D1*
X1234168D2*
X1255180D1*
X18997Y1299521D2*
X41020D1*
X72987D2*
X1258304D1*
X18997Y1294652D2*
X45824D1*
X68182D2*
X1263276D1*
X18997Y1289783D2*
X1262308D1*
X18997Y1284915D2*
X1257709D1*
X18997Y1280046D2*
X1254799D1*
X18997Y1275177D2*
X241127D1*
X260877D2*
X1253041D1*
X18997Y1270308D2*
X235610D1*
X266385D2*
X375424D1*
X390575D2*
X1252211D1*
X18997Y1265440D2*
X232944D1*
X269051D2*
X368539D1*
X397459D2*
X1252231D1*
X18997Y1260571D2*
X231870D1*
X270135D2*
X365404D1*
X400594D2*
X1253110D1*
X18997Y1255702D2*
X232094D1*
X269900D2*
X363999D1*
X402000D2*
X1254916D1*
X18997Y1250833D2*
X233676D1*
X268319D2*
X363930D1*
X402068D2*
X1013119D1*
X1036883D2*
X1257895D1*
X1304100D2*
X1306993D1*
X18997Y1245965D2*
X237094D1*
X264900D2*
X365180D1*
X400819D2*
X431293D1*
X454706D2*
X1008676D1*
X1041316D2*
X1262612D1*
X1299392D2*
X1306996D1*
X18997Y1241096D2*
X245112D1*
X256883D2*
X368080D1*
X397919D2*
X426762D1*
X459236D2*
X622983D1*
X643016D2*
X878930D1*
X895067D2*
X1006508D1*
X1043484D2*
X1271459D1*
X1290535D2*
X1306996D1*
X18997Y1236227D2*
X374243D1*
X391766D2*
X424545D1*
X461454D2*
X617552D1*
X648455D2*
X872358D1*
X901648D2*
X1005804D1*
X1044198D2*
X1306996D1*
X18997Y1231358D2*
X423803D1*
X462196D2*
X614916D1*
X651083D2*
X869311D1*
X904686D2*
X1006391D1*
X1043612D2*
X1306996D1*
X18997Y1226490D2*
X424360D1*
X461648D2*
X613862D1*
X652136D2*
X867972D1*
X906034D2*
X1008403D1*
X1041600D2*
X1306996D1*
X18997Y1221621D2*
X426323D1*
X459676D2*
X614115D1*
X651892D2*
X867954D1*
X906043D2*
X1012552D1*
X1037450D2*
X1306996D1*
X18997Y1216752D2*
X430395D1*
X455604D2*
X615717D1*
X650282D2*
X869262D1*
X904735D2*
X1306996D1*
X18997Y1211883D2*
X619175D1*
X646824D2*
X872260D1*
X901736D2*
X1306996D1*
X18997Y1207014D2*
X627387D1*
X638612D2*
X878686D1*
X895311D2*
X1306996D1*
X18997Y1202146D2*
X1306996D1*
X18997Y1197277D2*
X1306996D1*
X18997Y1192408D2*
X1306996D1*
X18997Y1187539D2*
X1306996D1*
X18997Y1182671D2*
X1306996D1*
X18997Y1177802D2*
X1010786D1*
X1023220D2*
X1108871D1*
X1126083D2*
X1306996D1*
X18997Y1172933D2*
X1002992D1*
X1031004D2*
X1102622D1*
X1132323D2*
X1306996D1*
X18997Y1168064D2*
X679858D1*
X696140D2*
X999633D1*
X1034373D2*
X1099682D1*
X1135262D2*
X1306996D1*
X18997Y1163196D2*
X523159D1*
X542840D2*
X599331D1*
X624667D2*
X673324D1*
X702675D2*
X998080D1*
X1035927D2*
X1098412D1*
X1136531D2*
X1306996D1*
X18997Y1158327D2*
X517622D1*
X548377D2*
X595297D1*
X628709D2*
X670297D1*
X705702D2*
X746801D1*
X755203D2*
X997875D1*
X1036122D2*
X1098461D1*
X1136483D2*
X1306996D1*
X18997Y1153458D2*
X514955D1*
X551043D2*
X593344D1*
X630663D2*
X668969D1*
X707039D2*
X737524D1*
X764480D2*
X998988D1*
X1035018D2*
X1099839D1*
X1135106D2*
X1306996D1*
X18997Y1148589D2*
X513871D1*
X552127D2*
X592807D1*
X631190D2*
X668959D1*
X707039D2*
X733891D1*
X768104D2*
X1001684D1*
X1032312D2*
X1102944D1*
X1132000D2*
X1306996D1*
X18997Y1143720D2*
X514096D1*
X551903D2*
X593559D1*
X630438D2*
X670278D1*
X705720D2*
X732172D1*
X769823D2*
X1007308D1*
X1026698D2*
X1109720D1*
X1125223D2*
X1306996D1*
X18997Y1138852D2*
X515668D1*
X550331D2*
X595795D1*
X628202D2*
X673286D1*
X702713D2*
X731840D1*
X770164D2*
X1306996D1*
X18997Y1133983D2*
X519076D1*
X546923D2*
X600366D1*
X623640D2*
X679751D1*
X696248D2*
X732797D1*
X769207D2*
X1306996D1*
X18997Y1129114D2*
X197972D1*
X214003D2*
X215978D1*
X232010D2*
X527055D1*
X538944D2*
X735297D1*
X766698D2*
X1306996D1*
X18997Y1124245D2*
X191362D1*
X238622D2*
X740434D1*
X761571D2*
X1306996D1*
X18997Y1119377D2*
X188315D1*
X241668D2*
X1306996D1*
X18997Y1114508D2*
X186957D1*
X243026D2*
X1306996D1*
X18997Y1109639D2*
X186938D1*
X243045D2*
X1306996D1*
X18997Y1104770D2*
X188247D1*
X241736D2*
X1306996D1*
X18997Y1099902D2*
X191224D1*
X238759D2*
X1306996D1*
X18997Y1095033D2*
X197622D1*
X232362D2*
X1306996D1*
X18997Y1090164D2*
X1306996D1*
X18997Y1085295D2*
X1306996D1*
X18997Y1080427D2*
X1306996D1*
X18997Y1075558D2*
X1038071D1*
X1051932D2*
X1306996D1*
X18997Y1070689D2*
X1030766D1*
X1059236D2*
X1306996D1*
X18997Y1065820D2*
X731098D1*
X754900D2*
X1027514D1*
X1062479D2*
X1306996D1*
X18997Y1060951D2*
X726675D1*
X759324D2*
X1026039D1*
X1063963D2*
X1306996D1*
X18997Y1056083D2*
X724507D1*
X761492D2*
X1025903D1*
X1064100D2*
X1306996D1*
X18997Y1051214D2*
X723803D1*
X762196D2*
X1027075D1*
X1062919D2*
X1306996D1*
X18997Y1046345D2*
X724388D1*
X761610D2*
X1029877D1*
X1060115D2*
X1306996D1*
X18997Y1041476D2*
X726411D1*
X759588D2*
X1035747D1*
X1054247D2*
X1306996D1*
X18997Y1036608D2*
X730560D1*
X755438D2*
X1306996D1*
X18997Y1031739D2*
X1306996D1*
X18997Y1026870D2*
X653959D1*
X680038D2*
X1306996D1*
X18997Y1022001D2*
X650112D1*
X683885D2*
X1306996D1*
X18997Y1017133D2*
X648266D1*
X685731D2*
X695052D1*
X714950D2*
X928051D1*
X947948D2*
X1306996D1*
X18997Y1012264D2*
X647816D1*
X686180D2*
X689575D1*
X720428D2*
X922572D1*
X953427D2*
X1306996D1*
X18997Y1007395D2*
X648667D1*
X685340D2*
X686933D1*
X723064D2*
X919927D1*
X956072D2*
X1306996D1*
X18997Y1002526D2*
X651010D1*
X682987D2*
X685864D1*
X724139D2*
X918862D1*
X957136D2*
X1306996D1*
X18997Y997657D2*
X655815D1*
X678182D2*
X686108D1*
X723895D2*
X919106D1*
X956892D2*
X1306996D1*
X18997Y992789D2*
X687699D1*
X722293D2*
X920698D1*
X955301D2*
X1153266D1*
X1170731D2*
X1306996D1*
X18997Y987920D2*
X691136D1*
X718856D2*
X924135D1*
X951864D2*
X1147094D1*
X1176903D2*
X1306996D1*
X18997Y983051D2*
X154408D1*
X177596D2*
X699262D1*
X710740D2*
X932260D1*
X943739D2*
X1144184D1*
X1179812D2*
X1306996D1*
X18997Y978182D2*
X149819D1*
X182186D2*
X1142934D1*
X1181072D2*
X1306996D1*
X18997Y973314D2*
X106469D1*
X131531D2*
X147572D1*
X184423D2*
X1142992D1*
X1181004D2*
X1306996D1*
X18997Y968445D2*
X102367D1*
X135633D2*
X146811D1*
X185194D2*
X1144399D1*
X1179598D2*
X1306996D1*
X18997Y963576D2*
X100375D1*
X137625D2*
X147339D1*
X184667D2*
X349789D1*
X374207D2*
X1147524D1*
X1176472D2*
X1306996D1*
X18997Y958707D2*
X99808D1*
X138192D2*
X149272D1*
X182723D2*
X317954D1*
X342049D2*
X345522D1*
X378484D2*
X1154388D1*
X1169608D2*
X1306996D1*
X18997Y953839D2*
X100531D1*
X137469D2*
X152904D1*
X181092D2*
X254564D1*
X275438D2*
X282377D1*
X299627D2*
X313598D1*
X380564D2*
X1306996D1*
X18997Y948970D2*
X102719D1*
X135282D2*
X149584D1*
X184412D2*
X249360D1*
X305867D2*
X311479D1*
X381199D2*
X1306996D1*
X18997Y944101D2*
X105472D1*
X130799D2*
X148060D1*
X185936D2*
X246831D1*
X308797D2*
X310804D1*
X380545D2*
X1306996D1*
X18997Y939232D2*
X100854D1*
X133152D2*
X147885D1*
X186112D2*
X236244D1*
X378446D2*
X706244D1*
X721756D2*
X1306996D1*
X18997Y934364D2*
X98588D1*
X135408D2*
X149018D1*
X184979D2*
X208451D1*
X227547D2*
X229471D1*
X310008D2*
X313480D1*
X346522D2*
X349866D1*
X374139D2*
X699476D1*
X728524D2*
X1306996D1*
X18997Y929495D2*
X97807D1*
X136190D2*
X151762D1*
X182235D2*
X202759D1*
X308622D2*
X317699D1*
X342293D2*
X696371D1*
X731629D2*
X1306996D1*
X18997Y924626D2*
X74848D1*
X135682D2*
X151118D1*
X182888D2*
X200014D1*
X305516D2*
X694984D1*
X733016D2*
X871264D1*
X884735D2*
X1306996D1*
X18997Y919757D2*
X70551D1*
X133748D2*
X148715D1*
X185291D2*
X198881D1*
X269598D2*
X283266D1*
X298728D2*
X694936D1*
X733064D2*
X863832D1*
X892167D2*
X1306996D1*
X18997Y914888D2*
X68451D1*
X129764D2*
X147827D1*
X186180D2*
X199067D1*
X261795D2*
X335190D1*
X358807D2*
X696206D1*
X731795D2*
X860551D1*
X895448D2*
X1306996D1*
X18997Y910020D2*
X67807D1*
X106199D2*
X148227D1*
X185770D2*
X200591D1*
X258856D2*
X330717D1*
X363289D2*
X699144D1*
X728856D2*
X859047D1*
X896951D2*
X1050756D1*
X1067244D2*
X1306996D1*
X18997Y905151D2*
X68442D1*
X105555D2*
X150034D1*
X183972D2*
X203920D1*
X232079D2*
X235403D1*
X252606D2*
X328530D1*
X365476D2*
X705395D1*
X722606D2*
X858891D1*
X897108D2*
X1044291D1*
X1073709D2*
X1306996D1*
X18997Y900282D2*
X70522D1*
X103475D2*
X153793D1*
X180203D2*
X211528D1*
X224471D2*
X327807D1*
X366199D2*
X860052D1*
X895946D2*
X1041283D1*
X1076717D2*
X1306996D1*
X18997Y895413D2*
X74799D1*
X99198D2*
X164467D1*
X169530D2*
X328373D1*
X379304D2*
X862827D1*
X893172D2*
X1039955D1*
X1078045D2*
X1306996D1*
X18997Y890545D2*
X78793D1*
X97206D2*
X330366D1*
X386366D2*
X868627D1*
X887381D2*
X1039965D1*
X1078035D2*
X1306996D1*
X18997Y885676D2*
X72895D1*
X103104D2*
X334487D1*
X389549D2*
X515404D1*
X528592D2*
X1041293D1*
X1076707D2*
X1306996D1*
X18997Y880807D2*
X47797D1*
X60203D2*
X70083D1*
X105916D2*
X353012D1*
X390984D2*
X507875D1*
X536122D2*
X543891D1*
X570106D2*
X1044320D1*
X1073671D2*
X1306996D1*
X18997Y875938D2*
X40004D1*
X107098D2*
X352915D1*
X391083D2*
X504575D1*
X573924D2*
X1050854D1*
X1067147D2*
X1306996D1*
X18997Y871070D2*
X36635D1*
X106971D2*
X322182D1*
X347811D2*
X354135D1*
X389862D2*
X503060D1*
X575751D2*
X1306996D1*
X18997Y866201D2*
X35083D1*
X105496D2*
X318227D1*
X351776D2*
X356996D1*
X387000D2*
X502885D1*
X576180D2*
X1306996D1*
X18997Y861332D2*
X34877D1*
X102255D2*
X316312D1*
X353690D2*
X363031D1*
X380975D2*
X504028D1*
X575320D2*
X1306996D1*
X18997Y856463D2*
X21547D1*
X28446D2*
X35980D1*
X72020D2*
X81020D1*
X94988D2*
X315815D1*
X354188D2*
X506782D1*
X537215D2*
X541059D1*
X572948D2*
X1306996D1*
X69315Y851594D2*
X316606D1*
X353396D2*
X512534D1*
X531472D2*
X545903D1*
X568094D2*
X585815D1*
X610184D2*
X1169808D1*
X1194188D2*
X1306996D1*
X42039Y846726D2*
X44287D1*
X63709D2*
X318881D1*
X351122D2*
X581528D1*
X614471D2*
X1165531D1*
X1198465D2*
X1306996D1*
X43797Y841857D2*
X323530D1*
X346463D2*
X579448D1*
X616551D2*
X1163442D1*
X1200555D2*
X1306996D1*
X44168Y836988D2*
X578803D1*
X617196D2*
X1162807D1*
X1201199D2*
X1306996D1*
X43251Y832119D2*
X579448D1*
X616551D2*
X1163451D1*
X1200545D2*
X1306996D1*
X40799Y827251D2*
X581547D1*
X614451D2*
X1165541D1*
X1198455D2*
X1306996D1*
X35780Y822382D2*
X442484D1*
X461512D2*
X585844D1*
X610155D2*
X1169839D1*
X1194159D2*
X1306996D1*
X18997Y817513D2*
X436772D1*
X467235D2*
X567709D1*
X592283D2*
X1306996D1*
X18997Y812644D2*
X434028D1*
X469979D2*
X563480D1*
X596522D2*
X1306996D1*
X18997Y807776D2*
X432885D1*
X471112D2*
X561420D1*
X598572D2*
X866039D1*
X889959D2*
X1306996D1*
X18997Y802907D2*
X433060D1*
X470936D2*
X560804D1*
X599198D2*
X861644D1*
X894354D2*
X1306996D1*
X18997Y798038D2*
X434584D1*
X469412D2*
X561469D1*
X598524D2*
X859496D1*
X896503D2*
X1306996D1*
X18997Y793169D2*
X437904D1*
X466102D2*
X563598D1*
X596404D2*
X858803D1*
X897196D2*
X964087D1*
X973915D2*
X1306996D1*
X18997Y788301D2*
X445472D1*
X458524D2*
X567944D1*
X592059D2*
X859399D1*
X896600D2*
X955356D1*
X982644D2*
X1306996D1*
X18997Y783432D2*
X861440D1*
X894559D2*
X951811D1*
X986190D2*
X1306996D1*
X18997Y778563D2*
X865619D1*
X890379D2*
X950140D1*
X987850D2*
X1306996D1*
X18997Y773694D2*
X482934D1*
X507059D2*
X949848D1*
X988152D2*
X1306996D1*
X18997Y768825D2*
X478588D1*
X511404D2*
X950854D1*
X987147D2*
X1306996D1*
X18997Y763957D2*
X476469D1*
X513524D2*
X953412D1*
X984588D2*
X1306996D1*
X18997Y759088D2*
X475804D1*
X531541D2*
X958686D1*
X979315D2*
X1306996D1*
X18997Y754219D2*
X476420D1*
X536160D2*
X1306996D1*
X18997Y749350D2*
X478480D1*
X538416D2*
X1306996D1*
X18997Y744482D2*
X482719D1*
X539188D2*
X1306996D1*
X18997Y739613D2*
X501323D1*
X538680D2*
X1306996D1*
X18997Y734744D2*
X503256D1*
X536747D2*
X1306996D1*
X18997Y729875D2*
X507251D1*
X532752D2*
X1306996D1*
X18997Y725007D2*
X1306996D1*
X18997Y720138D2*
X1306996D1*
X18997Y715269D2*
X1306996D1*
X18997Y710400D2*
X1306996D1*
X18997Y705531D2*
X402094D1*
X423915D2*
X1306996D1*
X18997Y700663D2*
X397143D1*
X428856D2*
X1306996D1*
X18997Y695794D2*
X394720D1*
X431278D2*
X1306996D1*
X18997Y690925D2*
X393823D1*
X432176D2*
X1183178D1*
X1194812D2*
X1285112D1*
X18997Y686056D2*
X394223D1*
X431776D2*
X1135923D1*
X1156083D2*
X1175122D1*
X1202879D2*
X1280259D1*
X18997Y681188D2*
X30591D1*
X53407D2*
X396010D1*
X429988D2*
X1130522D1*
X1161483D2*
X1171694D1*
X1206307D2*
X1277875D1*
X18997Y676319D2*
X25912D1*
X58094D2*
X399760D1*
X426248D2*
X1127904D1*
X1164100D2*
X1170102D1*
X1207899D2*
X1277016D1*
X18997Y671450D2*
X23618D1*
X60388D2*
X410160D1*
X415839D2*
X743969D1*
X766024D2*
X1126860D1*
X1165144D2*
X1169867D1*
X1208133D2*
X1277446D1*
X18997Y666581D2*
X22807D1*
X61190D2*
X739087D1*
X770916D2*
X1127114D1*
X1164881D2*
X1170942D1*
X1207059D2*
X1271079D1*
X18997Y661713D2*
X23304D1*
X60702D2*
X736694D1*
X773299D2*
X1128744D1*
X1163260D2*
X1173598D1*
X1204403D2*
X1260102D1*
X18997Y656844D2*
X25199D1*
X58797D2*
X735824D1*
X774178D2*
X1132211D1*
X1159783D2*
X1179087D1*
X1198915D2*
X1253764D1*
X18997Y651975D2*
X29135D1*
X54862D2*
X736244D1*
X773759D2*
X929663D1*
X946336D2*
X1140531D1*
X1151472D2*
X1249301D1*
X18997Y647106D2*
X738051D1*
X771951D2*
X923256D1*
X952752D2*
X1246010D1*
X18997Y642238D2*
X741840D1*
X768163D2*
X920259D1*
X955740D2*
X1243598D1*
X18997Y637369D2*
X752895D1*
X757098D2*
X918950D1*
X957049D2*
X1241908D1*
X18997Y632500D2*
X918969D1*
X957030D2*
X1240854D1*
X18997Y627631D2*
X920316D1*
X955682D2*
X1240375D1*
X18997Y622762D2*
X923364D1*
X952635D2*
X1240472D1*
X18997Y617894D2*
X929955D1*
X946043D2*
X1241127D1*
X18997Y613025D2*
X1242387D1*
X18997Y608156D2*
X1185034D1*
X1194969D2*
X1244301D1*
X18997Y603287D2*
X1028442D1*
X1053563D2*
X1176343D1*
X1203651D2*
X1246987D1*
X18997Y598419D2*
X117944D1*
X129432D2*
X1024350D1*
X1057655D2*
X1172807D1*
X1207196D2*
X1250619D1*
X18997Y593550D2*
X109819D1*
X137547D2*
X1022367D1*
X1059636D2*
X1171147D1*
X1208856D2*
X1255580D1*
X18997Y588681D2*
X106391D1*
X140984D2*
X1021801D1*
X1060194D2*
X1170854D1*
X1209148D2*
X1262885D1*
X1303133D2*
X1306996D1*
X18997Y583812D2*
X104789D1*
X142587D2*
X145322D1*
X162684D2*
X186518D1*
X207479D2*
X1022534D1*
X1059461D2*
X1171860D1*
X1208143D2*
X1306996D1*
X18997Y578944D2*
X104555D1*
X168885D2*
X181343D1*
X212664D2*
X1024740D1*
X1057264D2*
X1174419D1*
X1205575D2*
X1306996D1*
X18997Y574075D2*
X105619D1*
X171804D2*
X178812D1*
X215184D2*
X774720D1*
X785272D2*
X1029243D1*
X1052762D2*
X1179702D1*
X1200301D2*
X1306996D1*
X18997Y569206D2*
X108266D1*
X173064D2*
X177846D1*
X216160D2*
X766264D1*
X793728D2*
X1306996D1*
X18997Y564337D2*
X113735D1*
X173007D2*
X178168D1*
X217147D2*
X392504D1*
X407499D2*
X762768D1*
X797235D2*
X1264965D1*
X1301043D2*
X1306996D1*
X18997Y559469D2*
X136391D1*
X171610D2*
X179867D1*
X226472D2*
X385571D1*
X414432D2*
X761127D1*
X798875D2*
X1256870D1*
X18997Y554600D2*
X139507D1*
X168495D2*
X183461D1*
X230106D2*
X382416D1*
X417587D2*
X760854D1*
X799148D2*
X1251528D1*
X18997Y549731D2*
X146332D1*
X161668D2*
X192524D1*
X231824D2*
X381000D1*
X418992D2*
X761888D1*
X798114D2*
X1247660D1*
X18997Y544862D2*
X193843D1*
X232167D2*
X380923D1*
X419071D2*
X749965D1*
X795516D2*
X872016D1*
X914031D2*
X1244799D1*
X18997Y539993D2*
X194789D1*
X231209D2*
X382163D1*
X417831D2*
X749965D1*
X791980D2*
X872016D1*
X914031D2*
X1242739D1*
X18997Y535125D2*
X27504D1*
X50496D2*
X55512D1*
X78495D2*
X197289D1*
X228709D2*
X385063D1*
X414940D2*
X749965D1*
X791980D2*
X872016D1*
X914031D2*
X1241343D1*
X18997Y530256D2*
X22866D1*
X83133D2*
X202416D1*
X223583D2*
X391176D1*
X408816D2*
X749965D1*
X791980D2*
X872016D1*
X914031D2*
X1240560D1*
X18997Y525387D2*
X20600D1*
X85408D2*
X113881D1*
X136122D2*
X749965D1*
X791980D2*
X872016D1*
X920125D2*
X1240346D1*
X86190Y520518D2*
X109038D1*
X140955D2*
X749965D1*
X791980D2*
X872016D1*
X924959D2*
X1163920D1*
X1170076D2*
X1240698D1*
X85682Y515650D2*
X106675D1*
X143319D2*
X749965D1*
X791980D2*
X872016D1*
X927323D2*
X1153724D1*
X1180282D2*
X1241635D1*
X18997Y510781D2*
X22231D1*
X83768D2*
X105815D1*
X144178D2*
X749965D1*
X791980D2*
X872016D1*
X928182D2*
X1056996D1*
X18997Y505912D2*
X26206D1*
X51795D2*
X54202D1*
X79793D2*
X106255D1*
X143748D2*
X749965D1*
X791980D2*
X872016D1*
X927743D2*
X1042524D1*
X18997Y501043D2*
X108091D1*
X141912D2*
X758793D1*
X783163D2*
X880844D1*
X925916D2*
X1036196D1*
X18997Y496175D2*
X111908D1*
X138084D2*
X758793D1*
X783163D2*
X880844D1*
X922088D2*
X1033236D1*
X18997Y491306D2*
X78696D1*
X87303D2*
X758793D1*
X783163D2*
X880844D1*
X905203D2*
X1031948D1*
X18997Y486437D2*
X69496D1*
X96503D2*
X758793D1*
X783163D2*
X880844D1*
X905203D2*
X1031976D1*
X18997Y481568D2*
X65883D1*
X100115D2*
X758793D1*
X783163D2*
X880844D1*
X905203D2*
X1033344D1*
X18997Y476699D2*
X64175D1*
X101824D2*
X758793D1*
X783163D2*
X880844D1*
X905203D2*
X1036420D1*
X18997Y471831D2*
X63843D1*
X102156D2*
X758793D1*
X783163D2*
X880844D1*
X905203D2*
X1043100D1*
X18997Y466962D2*
X64808D1*
X101199D2*
X758793D1*
X783163D2*
X880844D1*
X905203D2*
X1056996D1*
X18997Y462093D2*
X67308D1*
X98690D2*
X758793D1*
X783163D2*
X880844D1*
X905203D2*
X1056996D1*
X18997Y457224D2*
X72465D1*
X93534D2*
X757543D1*
X788455D2*
X877348D1*
X906648D2*
X1056996D1*
X18997Y452356D2*
X754916D1*
X791083D2*
X874311D1*
X909686D2*
X1056996D1*
X18997Y447487D2*
X50942D1*
X80564D2*
X753862D1*
X792136D2*
X872972D1*
X911034D2*
X1056996D1*
X18997Y442618D2*
X44545D1*
X86961D2*
X754115D1*
X791892D2*
X872954D1*
X911043D2*
X1056996D1*
X18997Y437749D2*
X40648D1*
X90858D2*
X755717D1*
X790282D2*
X874262D1*
X909735D2*
X1055727D1*
X18997Y432881D2*
X38148D1*
X93358D2*
X749965D1*
X791980D2*
X872016D1*
X914031D2*
X1050854D1*
X18997Y428012D2*
X36675D1*
X94832D2*
X749965D1*
X791980D2*
X872016D1*
X914031D2*
X1045991D1*
X18997Y423143D2*
X36079D1*
X95428D2*
X749965D1*
X791980D2*
X872016D1*
X914031D2*
X1041118D1*
X18997Y418274D2*
X36303D1*
X95203D2*
X749965D1*
X791980D2*
X872016D1*
X914031D2*
X1036255D1*
X18997Y413406D2*
X37367D1*
X94139D2*
X749965D1*
X791980D2*
X872016D1*
X914031D2*
X1031381D1*
X18997Y408537D2*
X39370D1*
X92136D2*
X749965D1*
X791980D2*
X872016D1*
X914031D2*
X1026518D1*
X18997Y403668D2*
X42563D1*
X88944D2*
X749965D1*
X791980D2*
X872016D1*
X914031D2*
X1021644D1*
X18997Y398799D2*
X47583D1*
X83924D2*
X749965D1*
X791980D2*
X872016D1*
X914031D2*
X1017358D1*
X18997Y393930D2*
X57358D1*
X74148D2*
X1015854D1*
X18997Y389062D2*
X1015815D1*
X18997Y384193D2*
X1015815D1*
X18997Y379324D2*
X1015815D1*
X18997Y374455D2*
X1015815D1*
X18997Y369587D2*
X1015815D1*
X18997Y364718D2*
X1015815D1*
X18997Y359849D2*
X1015815D1*
X18997Y354980D2*
X1015815D1*
X18997Y350112D2*
X1015815D1*
X18997Y345243D2*
X1015815D1*
X18997Y340374D2*
X1015815D1*
X18997Y335505D2*
X1015815D1*
X18997Y330636D2*
X1015815D1*
X18997Y325768D2*
X1015815D1*
X18997Y320899D2*
X1015815D1*
X18997Y316030D2*
X1015815D1*
X18997Y311161D2*
X1015815D1*
X18997Y306293D2*
X1015815D1*
X18997Y301424D2*
X290004D1*
X18997Y296555D2*
X290004D1*
X18997Y291686D2*
X290004D1*
X18997Y286818D2*
X290004D1*
X18997Y281949D2*
X290004D1*
X18997Y277080D2*
X30463D1*
X53552D2*
X290004D1*
X18997Y272211D2*
X25844D1*
X58163D2*
X290004D1*
X18997Y267343D2*
X23588D1*
X60428D2*
X290004D1*
X18997Y262474D2*
X22816D1*
X61199D2*
X290004D1*
X18997Y257605D2*
X23335D1*
X60682D2*
X290004D1*
X18997Y252736D2*
X25268D1*
X58748D2*
X290004D1*
X18997Y247867D2*
X29262D1*
X54755D2*
X290004D1*
X60698Y261495D2*
X60538Y259503D1*
X60167Y257538D1*
X59587Y255625D1*
X58806Y253785D1*
X57833Y252038D1*
X56680Y250406D1*
X55360Y248906D1*
X53886Y247555D1*
X52276Y246369D1*
X50549Y245362D1*
X48554Y244483D1*
X290505Y244495D1*
X290535Y302386D1*
X290778Y303130D1*
X291238Y303762D1*
X291870Y304222D1*
X292614Y304465D1*
X293005Y304495D1*
X1016316D1*
X1016304Y393000D1*
X1016448Y394829D1*
X1016877Y396614D1*
X1017579Y398310D1*
X1018538Y399875D1*
X1019730Y401270D1*
X1019975Y401497D1*
X1057509Y439050D1*
X1057500Y471478D1*
X1055365Y470819D1*
X1052467Y470361D1*
X1049533D1*
X1046635Y470819D1*
X1043845Y471726D1*
X1041231Y473058D1*
X1038857Y474782D1*
X1036782Y476857D1*
X1035058Y479231D1*
X1033726Y481845D1*
X1032819Y484635D1*
X1032361Y487533D1*
Y490467D1*
X1032819Y493365D1*
X1033726Y496155D1*
X1035058Y498769D1*
X1036782Y501143D1*
X1038857Y503218D1*
X1041231Y504942D1*
X1043845Y506274D1*
X1046635Y507181D1*
X1049533Y507639D1*
X1052467D1*
X1055365Y507181D1*
X1057514Y506510D1*
X1057530Y512386D1*
X1057773Y513130D1*
X1058232Y513762D1*
X1058865Y514222D1*
X1059609Y514465D1*
X1060000Y514495D1*
X1123252D1*
X1126000Y514697D1*
X1128806Y514482D1*
X1153096Y514495D1*
X1154857Y516218D1*
X1157231Y517942D1*
X1159845Y519274D1*
X1162635Y520181D1*
X1165533Y520639D1*
X1168467D1*
X1171365Y520181D1*
X1174155Y519274D1*
X1176769Y517942D1*
X1179143Y516218D1*
X1180903Y514484D1*
X1242451Y514495D1*
X1241793Y517109D1*
X1241197Y520556D1*
X1240890Y524042D1*
X1240873Y527542D1*
X1241146Y531030D1*
X1241707Y534483D1*
X1242554Y537878D1*
X1243677Y541192D1*
X1245073Y544400D1*
X1246730Y547483D1*
X1248636Y550417D1*
X1250780Y553182D1*
X1253144Y555761D1*
X1255715Y558135D1*
X1258474Y560287D1*
X1261402Y562203D1*
X1264478Y563870D1*
X1267682Y565276D1*
X1270992Y566411D1*
X1274385Y567268D1*
X1277836Y567841D1*
X1281324Y568126D1*
X1284823Y568121D1*
X1288308Y567824D1*
X1291759Y567241D1*
X1295148Y566373D1*
X1298454Y565227D1*
X1301655Y563811D1*
X1304726Y562135D1*
X1307512Y560306D1*
X1307500Y591672D1*
X1305501Y590337D1*
X1303349Y589067D1*
X1301125Y587927D1*
X1298837Y586920D1*
X1296493Y586051D1*
X1294102Y585322D1*
X1291672Y584736D1*
X1289211Y584294D1*
X1286730Y584000D1*
X1284234Y583853D1*
X1281735Y583854D1*
X1279239Y584004D1*
X1276757Y584301D1*
X1274298Y584744D1*
X1271869Y585333D1*
X1269478Y586064D1*
X1267135Y586937D1*
X1264849Y587946D1*
X1262626Y589089D1*
X1260474Y590361D1*
X1258402Y591760D1*
X1256416Y593278D1*
X1254524Y594911D1*
X1252732Y596654D1*
X1251046Y598499D1*
X1249472Y600441D1*
X1248017Y602474D1*
X1246685Y604588D1*
X1245480Y606778D1*
X1244407Y609037D1*
X1243470Y611353D1*
X1242671Y613722D1*
X1242014Y616134D1*
X1241503Y618580D1*
X1241135Y621052D1*
X1240916Y623543D1*
X1240845Y626042D1*
X1240921Y628541D1*
X1241146Y631030D1*
X1241518Y633501D1*
X1242035Y635948D1*
X1242697Y638357D1*
X1243500Y640724D1*
X1244442Y643039D1*
X1245520Y645295D1*
X1246730Y647483D1*
X1248067Y649594D1*
X1249526Y651623D1*
X1251104Y653563D1*
X1252794Y655406D1*
X1254589Y657143D1*
X1256486Y658773D1*
X1258474Y660287D1*
X1260549Y661681D1*
X1262703Y662949D1*
X1264929Y664087D1*
X1267218Y665092D1*
X1269562Y665958D1*
X1271954Y666685D1*
X1274385Y667268D1*
X1276845Y667707D1*
X1279085Y667970D1*
X1278412Y669734D1*
X1277727Y672587D1*
X1277497Y675512D1*
X1277727Y678437D1*
X1278412Y681290D1*
X1279534Y684000D1*
X1281068Y686501D1*
X1282974Y688732D1*
X1285205Y690638D1*
X1287706Y692172D1*
X1290416Y693294D1*
X1293269Y693979D1*
X1296194Y694209D1*
X1299119Y693979D1*
X1301972Y693294D1*
X1304682Y692172D1*
X1307184Y690638D1*
X1307513Y690379D1*
X1307500Y1034495D1*
X1307462Y1257738D1*
X1306457Y1255450D1*
X1305255Y1253259D1*
X1303864Y1251182D1*
X1302295Y1249236D1*
X1300562Y1247436D1*
X1298677Y1245795D1*
X1296655Y1244325D1*
X1294512Y1243041D1*
X1292264Y1241949D1*
X1289929Y1241059D1*
X1287524Y1240378D1*
X1285070Y1239911D1*
X1282583Y1239661D1*
X1280083Y1239633D1*
X1277592Y1239823D1*
X1275126Y1240232D1*
X1272706Y1240857D1*
X1270350Y1241692D1*
X1268077Y1242730D1*
X1265904Y1243965D1*
X1263849Y1245386D1*
X1261925Y1246983D1*
X1260151Y1248741D1*
X1258538Y1250651D1*
X1257098Y1252694D1*
X1255845Y1254856D1*
X1254786Y1257119D1*
X1253930Y1259469D1*
X1253285Y1261882D1*
X1252854Y1264344D1*
X1252642Y1266835D1*
X1252648Y1269333D1*
X1252877Y1271823D1*
X1253322Y1274282D1*
X1253982Y1276692D1*
X1254850Y1279035D1*
X1255923Y1281293D1*
X1257189Y1283448D1*
X1258640Y1285482D1*
X1260265Y1287381D1*
X1262050Y1289130D1*
X1263983Y1290715D1*
X1266047Y1292123D1*
X1266853Y1292605D1*
X1264318Y1294251D1*
X1262567Y1295630D1*
X1260930Y1297143D1*
X1259417Y1298780D1*
X1258038Y1300530D1*
X1256801Y1302383D1*
X1255711Y1304327D1*
X1254778Y1306352D1*
X1254007Y1308442D1*
X1253402Y1310587D1*
X1252967Y1312773D1*
X1252705Y1314986D1*
X1252618Y1317213D1*
X1252705Y1319440D1*
X1252967Y1321652D1*
X1253402Y1323839D1*
X1254007Y1325983D1*
X1254778Y1328073D1*
X1255711Y1330098D1*
X1256801Y1332042D1*
X1258038Y1333895D1*
X1259417Y1335646D1*
X1260930Y1337282D1*
X1262567Y1338795D1*
X1264318Y1340175D1*
X1266171Y1341412D1*
X1268114Y1342501D1*
X1270139Y1343434D1*
X1272230Y1344206D1*
X1274374Y1344811D1*
X1276560Y1345245D1*
X1278773Y1345508D1*
X1281000Y1345594D1*
X1283227Y1345508D1*
X1285440Y1345245D1*
X1287626Y1344811D1*
X1289770Y1344206D1*
X1291861Y1343434D1*
X1293886Y1342501D1*
X1295829Y1341412D1*
X1297682Y1340175D1*
X1299433Y1338795D1*
X1301070Y1337282D1*
X1302583Y1335646D1*
X1303962Y1333895D1*
X1305199Y1332042D1*
X1306289Y1330098D1*
X1307514Y1327282D1*
X1307500Y1550227D1*
X1306457Y1547844D1*
X1305255Y1545652D1*
X1303864Y1543576D1*
X1302295Y1541630D1*
X1300562Y1539829D1*
X1298677Y1538189D1*
X1296655Y1536719D1*
X1294512Y1535434D1*
X1292264Y1534343D1*
X1289929Y1533453D1*
X1287524Y1532772D1*
X1285070Y1532304D1*
X1282583Y1532055D1*
X1280083Y1532026D1*
X1277592Y1532217D1*
X1275126Y1532626D1*
X1272706Y1533251D1*
X1270350Y1534085D1*
X1268077Y1535123D1*
X1265904Y1536358D1*
X1263849Y1537780D1*
X1261925Y1539377D1*
X1260151Y1541135D1*
X1258538Y1543045D1*
X1257098Y1545088D1*
X1255845Y1547249D1*
X1254786Y1549513D1*
X1253930Y1551862D1*
X1253285Y1554276D1*
X1252854Y1556738D1*
X1252642Y1559228D1*
X1252648Y1561727D1*
X1252877Y1564217D1*
X1253322Y1566676D1*
X1253982Y1569085D1*
X1254850Y1571429D1*
X1255923Y1573686D1*
X1257189Y1575841D1*
X1258640Y1577875D1*
X1260265Y1579774D1*
X1262050Y1581524D1*
X1263983Y1583109D1*
X1266047Y1584517D1*
X1266853Y1584999D1*
X1264318Y1586644D1*
X1262567Y1588024D1*
X1260930Y1589537D1*
X1259417Y1591173D1*
X1258038Y1592924D1*
X1256801Y1594777D1*
X1255711Y1596720D1*
X1254778Y1598745D1*
X1254007Y1600836D1*
X1253402Y1602980D1*
X1252967Y1605167D1*
X1252705Y1607379D1*
X1252618Y1609606D1*
X1252705Y1611833D1*
X1252967Y1614046D1*
X1253402Y1616232D1*
X1254007Y1618377D1*
X1254778Y1620467D1*
X1255711Y1622492D1*
X1256801Y1624436D1*
X1258038Y1626289D1*
X1259417Y1628039D1*
X1260930Y1629676D1*
X1262567Y1631189D1*
X1264318Y1632568D1*
X1266171Y1633806D1*
X1268114Y1634895D1*
X1270139Y1635828D1*
X1272230Y1636600D1*
X1274374Y1637205D1*
X1276560Y1637639D1*
X1278773Y1637902D1*
X1281000Y1637988D1*
X1283227Y1637902D1*
X1285440Y1637639D1*
X1287626Y1637205D1*
X1289770Y1636600D1*
X1291861Y1635828D1*
X1293886Y1634895D1*
X1295829Y1633806D1*
X1297682Y1632568D1*
X1299433Y1631189D1*
X1301070Y1629676D1*
X1302583Y1628039D1*
X1303962Y1626289D1*
X1305199Y1624436D1*
X1306289Y1622492D1*
X1307514Y1619676D1*
X1307500Y1674416D1*
X18497D1*
Y1345539D1*
X20635Y1346181D1*
X23533Y1346639D1*
X26467D1*
X29365Y1346181D1*
X32155Y1345274D1*
X34769Y1343942D1*
X37143Y1342218D1*
X39218Y1340143D1*
X40942Y1337769D1*
X42274Y1335155D1*
X43181Y1332365D1*
X43639Y1329467D1*
Y1326533D1*
X43181Y1323635D1*
X42782Y1322143D1*
X44857Y1324218D1*
X47231Y1325942D1*
X49845Y1327274D1*
X52635Y1328181D1*
X55533Y1328639D1*
X58467D1*
X61365Y1328181D1*
X64155Y1327274D1*
X66769Y1325942D1*
X69143Y1324218D1*
X71218Y1322143D1*
X72942Y1319769D1*
X74274Y1317155D1*
X75181Y1314365D1*
X75639Y1311467D1*
Y1308533D1*
X75181Y1305635D1*
X74274Y1302845D1*
X72942Y1300231D1*
X71218Y1297857D1*
X69143Y1295782D1*
X66769Y1294058D1*
X64155Y1292726D1*
X61365Y1291819D1*
X58467Y1291361D1*
X55533D1*
X52635Y1291819D1*
X49845Y1292726D1*
X47231Y1294058D1*
X44857Y1295782D1*
X42782Y1297857D1*
X41058Y1300231D1*
X39726Y1302845D1*
X38819Y1305635D1*
X38361Y1308533D1*
Y1311467D1*
X38819Y1314365D1*
X39218Y1315857D1*
X37143Y1313782D1*
X34769Y1312058D1*
X32155Y1310726D1*
X29365Y1309819D1*
X26467Y1309361D1*
X23533D1*
X20635Y1309819D1*
X18486Y1310490D1*
X18497Y929416D1*
Y855539D1*
X20635Y856181D1*
X23533Y856639D1*
X26467D1*
X29365Y856181D1*
X32155Y855274D1*
X34769Y853942D1*
X37143Y852218D1*
X39218Y850143D1*
X40942Y847769D1*
X42274Y845155D1*
X43181Y842365D1*
X43639Y839467D1*
Y836533D1*
X43181Y833635D1*
X42274Y830845D1*
X40942Y828231D1*
X39218Y825857D1*
X37143Y823782D1*
X34769Y822058D1*
X32155Y820726D1*
X29365Y819819D1*
X26467Y819361D1*
X23533D1*
X20635Y819819D1*
X18486Y820490D1*
X18497Y439416D1*
Y244495D1*
X35421D1*
X33236Y245483D1*
X31524Y246513D1*
X29930Y247722D1*
X28475Y249092D1*
X27176Y250610D1*
X26045Y252260D1*
X25097Y254020D1*
X24343Y255870D1*
X23789Y257791D1*
X23445Y259761D1*
X23312Y261755D1*
X23394Y263752D1*
X23688Y265730D1*
X24190Y267664D1*
X24898Y269534D1*
X25801Y271318D1*
X26888Y272995D1*
X28150Y274546D1*
X29568Y275954D1*
X31130Y277202D1*
X32816Y278277D1*
X34606Y279165D1*
X36483Y279857D1*
X38421Y280345D1*
X40400Y280623D1*
X42399Y280688D1*
X44392Y280539D1*
X46358Y280178D1*
X48274Y279610D1*
X50119Y278841D1*
X51871Y277878D1*
X53512Y276735D1*
X55020Y275423D1*
X56378Y273957D1*
X57573Y272354D1*
X58591Y270633D1*
X59417Y268812D1*
X60046Y266915D1*
X60469Y264961D1*
X60680Y262974D1*
X60698Y261495D1*
X750969Y437161D2*
X756525D1*
X755726Y438845D1*
X754819Y441635D1*
X754361Y444533D1*
Y447467D1*
X754819Y450365D1*
X755726Y453155D1*
X757058Y455769D1*
X758782Y458143D1*
X759293Y458694D1*
X759280Y502448D1*
X750469Y502445D1*
Y545429D1*
X764579D1*
X763340Y547509D1*
X762218Y550219D1*
X761533Y553072D1*
X761303Y555997D1*
X761533Y558923D1*
X762218Y561776D1*
X763340Y564486D1*
X764874Y566987D1*
X766780Y569218D1*
X769010Y571123D1*
X771512Y572657D1*
X774222Y573780D1*
X777075Y574465D1*
X780000Y574694D1*
X782925Y574465D1*
X785778Y573780D1*
X788488Y572657D1*
X790990Y571123D1*
X793220Y569218D1*
X795126Y566987D1*
X796660Y564486D1*
X797782Y561776D1*
X798467Y558923D1*
X798697Y555997D1*
X798467Y553072D1*
X797782Y550219D1*
X796660Y547509D1*
X795126Y545008D1*
X793220Y542777D1*
X791480Y541257D1*
X791484Y502445D1*
X782667D1*
X782673Y461993D1*
X783990Y461126D1*
X786220Y459220D1*
X788126Y456990D1*
X789660Y454488D1*
X790782Y451778D1*
X791467Y448925D1*
X791697Y446000D1*
X791467Y443075D1*
X790782Y440222D1*
X789660Y437512D1*
X789466Y437167D1*
X791484Y437161D1*
Y394177D1*
X750469D1*
Y437161D1*
X750969D1*
X873016D2*
X875025D1*
X874218Y439222D1*
X873533Y442075D1*
X873303Y445000D1*
X873533Y447925D1*
X874218Y450778D1*
X875340Y453488D1*
X876874Y455990D1*
X878780Y458220D1*
X881010Y460126D1*
X881339Y460346D1*
X881328Y502440D1*
X872516Y502445D1*
Y545429D1*
X913531D1*
Y528135D1*
X916155Y527274D1*
X918769Y525942D1*
X921143Y524218D1*
X923218Y522143D1*
X924942Y519769D1*
X926274Y517155D1*
X927181Y514365D1*
X927639Y511467D1*
Y508533D1*
X927181Y505635D1*
X926274Y502845D1*
X924942Y500231D1*
X923218Y497857D1*
X921143Y495782D1*
X918769Y494058D1*
X916155Y492726D1*
X913365Y491819D1*
X910467Y491361D1*
X907533D1*
X904709Y491804D1*
X904719Y458713D1*
X906218Y457143D1*
X907942Y454769D1*
X909274Y452155D1*
X910181Y449365D1*
X910639Y446467D1*
Y443533D1*
X910181Y440635D1*
X909274Y437845D1*
X909016Y437161D1*
X913531D1*
Y394177D1*
X872516D1*
Y437161D1*
X873016D1*
X94860Y419748D2*
X94589Y417472D1*
X94143Y415223D1*
X93521Y413017D1*
X92727Y410866D1*
X91768Y408785D1*
X90647Y406785D1*
X89374Y404878D1*
X87954Y403077D1*
X86398Y401395D1*
X84715Y399839D1*
X82915Y398419D1*
X81008Y397146D1*
X79008Y396025D1*
X76927Y395066D1*
X74776Y394272D1*
X72570Y393650D1*
X70320Y393203D1*
X68045Y392933D1*
X65753Y392844D1*
X63462Y392933D1*
X61186Y393203D1*
X58937Y393650D1*
X56731Y394272D1*
X54580Y395066D1*
X52499Y396025D1*
X50499Y397146D1*
X48592Y398419D1*
X46791Y399839D1*
X45109Y401395D1*
X43552Y403077D1*
X42133Y404878D1*
X40860Y406785D1*
X39739Y408785D1*
X38780Y410866D1*
X37986Y413017D1*
X37364Y415223D1*
X36917Y417472D1*
X36647Y419748D1*
X36558Y422039D1*
X36647Y424331D1*
X36917Y426606D1*
X37364Y428856D1*
X37986Y431062D1*
X38780Y433213D1*
X39739Y435294D1*
X40860Y437294D1*
X42133Y439201D1*
X43552Y441001D1*
X45109Y442684D1*
X46791Y444240D1*
X48592Y445660D1*
X50499Y446933D1*
X52499Y448054D1*
X54580Y449013D1*
X56731Y449807D1*
X58937Y450429D1*
X61186Y450875D1*
X63462Y451146D1*
X65753Y451235D1*
X68045Y451146D1*
X70320Y450875D1*
X72570Y450429D1*
X74776Y449807D1*
X76927Y449013D1*
X79008Y448054D1*
X81008Y446933D1*
X82915Y445660D1*
X84715Y444240D1*
X86398Y442684D1*
X87954Y441001D1*
X89374Y439201D1*
X90647Y437294D1*
X91768Y435294D1*
X92727Y433213D1*
X93521Y431062D1*
X94143Y428856D1*
X94589Y426606D1*
X94860Y424331D1*
X94949Y422039D1*
X94860Y419748D1*
X1077639Y891533D2*
X1077181Y888635D1*
X1076274Y885845D1*
X1074942Y883231D1*
X1073218Y880857D1*
X1071143Y878782D1*
X1068769Y877058D1*
X1066155Y875726D1*
X1063365Y874819D1*
X1060467Y874361D1*
X1057533D1*
X1054635Y874819D1*
X1051845Y875726D1*
X1049231Y877058D1*
X1046857Y878782D1*
X1044782Y880857D1*
X1043058Y883231D1*
X1041726Y885845D1*
X1040819Y888635D1*
X1040361Y891533D1*
Y894467D1*
X1040819Y897365D1*
X1041726Y900155D1*
X1043058Y902769D1*
X1044782Y905143D1*
X1046857Y907218D1*
X1049231Y908942D1*
X1051845Y910274D1*
X1054635Y911181D1*
X1057533Y911639D1*
X1060467D1*
X1063365Y911181D1*
X1066155Y910274D1*
X1068769Y908942D1*
X1071143Y907218D1*
X1073218Y905143D1*
X1074942Y902769D1*
X1076274Y900155D1*
X1077181Y897365D1*
X1077639Y894467D1*
Y891533D1*
X1035639Y1158533D2*
X1035181Y1155635D1*
X1034274Y1152845D1*
X1032942Y1150231D1*
X1031218Y1147857D1*
X1029143Y1145782D1*
X1026769Y1144058D1*
X1024155Y1142726D1*
X1021365Y1141819D1*
X1018467Y1141361D1*
X1015533D1*
X1012635Y1141819D1*
X1009845Y1142726D1*
X1007231Y1144058D1*
X1004857Y1145782D1*
X1002782Y1147857D1*
X1001058Y1150231D1*
X999726Y1152845D1*
X998819Y1155635D1*
X998361Y1158533D1*
Y1161467D1*
X998819Y1164365D1*
X999726Y1167155D1*
X1001058Y1169769D1*
X1002782Y1172143D1*
X1004857Y1174218D1*
X1007231Y1175942D1*
X1009845Y1177274D1*
X1012635Y1178181D1*
X1015533Y1178639D1*
X1018467D1*
X1021365Y1178181D1*
X1024155Y1177274D1*
X1026769Y1175942D1*
X1029143Y1174218D1*
X1031218Y1172143D1*
X1032942Y1169769D1*
X1034274Y1167155D1*
X1035181Y1164365D1*
X1035639Y1161467D1*
Y1158533D1*
X1136112Y1159486D2*
X1135654Y1156588D1*
X1134747Y1153798D1*
X1133415Y1151184D1*
X1131690Y1148810D1*
X1129615Y1146735D1*
X1127241Y1145010D1*
X1124627Y1143678D1*
X1121837Y1142772D1*
X1118940Y1142314D1*
X1116005D1*
X1113108Y1142772D1*
X1110318Y1143678D1*
X1107703Y1145010D1*
X1105329Y1146735D1*
X1103255Y1148810D1*
X1101530Y1151184D1*
X1100198Y1153798D1*
X1099291Y1156588D1*
X1098833Y1159486D1*
Y1162420D1*
X1099291Y1165318D1*
X1100198Y1168108D1*
X1101530Y1170722D1*
X1103255Y1173096D1*
X1105329Y1175171D1*
X1107703Y1176895D1*
X1110318Y1178227D1*
X1113108Y1179134D1*
X1116005Y1179592D1*
X1118940D1*
X1121837Y1179134D1*
X1124627Y1178227D1*
X1127241Y1176895D1*
X1129615Y1175171D1*
X1131690Y1173096D1*
X1133415Y1170722D1*
X1134747Y1168108D1*
X1135654Y1165318D1*
X1136112Y1162420D1*
Y1159486D1*
X72639Y861533D2*
X72181Y858635D1*
X71274Y855845D1*
X69942Y853231D1*
X68218Y850857D1*
X66143Y848782D1*
X63769Y847058D1*
X61155Y845726D1*
X58365Y844819D1*
X55467Y844361D1*
X52533D1*
X49635Y844819D1*
X46845Y845726D1*
X44231Y847058D1*
X41857Y848782D1*
X39782Y850857D1*
X38058Y853231D1*
X36726Y855845D1*
X35819Y858635D1*
X35361Y861533D1*
Y864467D1*
X35819Y867365D1*
X36726Y870155D1*
X38058Y872769D1*
X39782Y875143D1*
X41857Y877218D1*
X44231Y878942D1*
X46845Y880274D1*
X49635Y881181D1*
X52533Y881639D1*
X55467D1*
X58365Y881181D1*
X61155Y880274D1*
X63769Y878942D1*
X66143Y877218D1*
X68218Y875143D1*
X69302Y873728D1*
X69361Y875467D1*
X69819Y878365D1*
X70726Y881155D1*
X72058Y883769D1*
X73782Y886143D1*
X75857Y888218D1*
X78231Y889942D1*
X80845Y891274D1*
X82482Y891856D1*
X79845Y892726D1*
X77231Y894058D1*
X74857Y895782D1*
X72782Y897857D1*
X71058Y900231D1*
X69726Y902845D1*
X68819Y905635D1*
X68361Y908533D1*
Y911467D1*
X68819Y914365D1*
X69726Y917155D1*
X71058Y919769D1*
X72782Y922143D1*
X74857Y924218D1*
X77231Y925942D1*
X79845Y927274D1*
X82635Y928181D1*
X85533Y928639D1*
X88467D1*
X91365Y928181D1*
X94155Y927274D1*
X96769Y925942D1*
X98869Y924434D1*
X98533Y926075D1*
X98303Y929000D1*
X98533Y931925D1*
X99218Y934778D1*
X100340Y937488D1*
X101874Y939990D1*
X103780Y942220D1*
X106010Y944126D1*
X106921Y944735D1*
X105780Y945780D1*
X103874Y948010D1*
X102340Y950512D1*
X101218Y953222D1*
X100533Y956075D1*
X100303Y959000D1*
X100533Y961925D1*
X101218Y964778D1*
X102340Y967488D1*
X103874Y969990D1*
X105780Y972220D1*
X108010Y974126D1*
X110512Y975660D1*
X113222Y976782D1*
X116075Y977467D1*
X119000Y977697D1*
X121925Y977467D1*
X124778Y976782D1*
X127488Y975660D1*
X129990Y974126D1*
X132220Y972220D1*
X134126Y969990D1*
X135660Y967488D1*
X136782Y964778D1*
X137467Y961925D1*
X137697Y959000D1*
X137467Y956075D1*
X136782Y953222D1*
X135660Y950512D1*
X134126Y948010D1*
X132220Y945780D1*
X129990Y943874D1*
X129079Y943265D1*
X130220Y942220D1*
X132126Y939990D1*
X133660Y937488D1*
X134782Y934778D1*
X135467Y931925D1*
X135697Y929000D1*
X135467Y926075D1*
X134782Y923222D1*
X133660Y920512D1*
X132126Y918010D1*
X130220Y915780D1*
X127990Y913874D1*
X125488Y912340D1*
X122778Y911218D1*
X119925Y910533D1*
X117000Y910303D1*
X114075Y910533D1*
X111222Y911218D1*
X108512Y912340D1*
X106010Y913874D1*
X105131Y914566D1*
X105467Y912925D1*
X105697Y910000D1*
X105467Y907075D1*
X104782Y904222D1*
X103660Y901512D1*
X102126Y899010D1*
X100220Y896780D1*
X97990Y894874D1*
X95488Y893340D1*
X92778Y892218D1*
X92518Y892144D1*
X95155Y891274D1*
X97769Y889942D1*
X100143Y888218D1*
X102218Y886143D1*
X103942Y883769D1*
X105274Y881155D1*
X106181Y878365D1*
X106639Y875467D1*
Y872533D1*
X106181Y869635D1*
X105274Y866845D1*
X103942Y864231D1*
X102218Y861857D1*
X100143Y859782D1*
X97769Y858058D1*
X95155Y856726D1*
X92365Y855819D1*
X89467Y855361D1*
X86533D1*
X83635Y855819D1*
X80845Y856726D1*
X78231Y858058D1*
X75857Y859782D1*
X73782Y861857D1*
X72698Y863272D1*
X72639Y861533D1*
X85639Y518533D2*
X85181Y515635D1*
X84274Y512845D1*
X82942Y510231D1*
X81218Y507857D1*
X79143Y505782D1*
X76769Y504058D1*
X74155Y502726D1*
X71365Y501819D1*
X68467Y501361D1*
X65533D1*
X62635Y501819D1*
X59845Y502726D1*
X57231Y504058D1*
X54857Y505782D1*
X53004Y507617D1*
X51143Y505782D1*
X48769Y504058D1*
X46155Y502726D1*
X43365Y501819D1*
X40467Y501361D1*
X37533D1*
X34635Y501819D1*
X31845Y502726D1*
X29231Y504058D1*
X26857Y505782D1*
X24782Y507857D1*
X23058Y510231D1*
X21726Y512845D1*
X20819Y515635D1*
X20361Y518533D1*
Y521467D1*
X20819Y524365D1*
X21726Y527155D1*
X23058Y529769D1*
X24782Y532143D1*
X26857Y534218D1*
X29231Y535942D1*
X31845Y537274D1*
X34635Y538181D1*
X37533Y538639D1*
X40467D1*
X43365Y538181D1*
X46155Y537274D1*
X48769Y535942D1*
X51143Y534218D1*
X52996Y532383D1*
X54857Y534218D1*
X57231Y535942D1*
X59845Y537274D1*
X62635Y538181D1*
X65533Y538639D1*
X68467D1*
X71365Y538181D1*
X74155Y537274D1*
X76769Y535942D1*
X79143Y534218D1*
X81218Y532143D1*
X82942Y529769D1*
X84274Y527155D1*
X85181Y524365D1*
X85639Y521467D1*
Y518533D1*
X143639Y508533D2*
X143181Y505635D1*
X142274Y502845D1*
X140942Y500231D1*
X139218Y497857D1*
X137143Y495782D1*
X134769Y494058D1*
X132155Y492726D1*
X129365Y491819D1*
X126467Y491361D1*
X123533D1*
X120635Y491819D1*
X117845Y492726D1*
X115231Y494058D1*
X112857Y495782D1*
X110782Y497857D1*
X109058Y500231D1*
X107726Y502845D1*
X106819Y505635D1*
X106361Y508533D1*
Y511467D1*
X106819Y514365D1*
X107726Y517155D1*
X109058Y519769D1*
X110782Y522143D1*
X112857Y524218D1*
X115231Y525942D1*
X117845Y527274D1*
X120635Y528181D1*
X123533Y528639D1*
X126467D1*
X129365Y528181D1*
X132155Y527274D1*
X134769Y525942D1*
X137143Y524218D1*
X139218Y522143D1*
X140942Y519769D1*
X142274Y517155D1*
X143181Y514365D1*
X143639Y511467D1*
Y508533D1*
X135337Y565867D2*
X133454Y564530D1*
X130840Y563198D1*
X128050Y562291D1*
X125152Y561833D1*
X122218D1*
X119320Y562291D1*
X116530Y563198D1*
X113916Y564530D1*
X111542Y566255D1*
X109467Y568329D1*
X107743Y570703D1*
X106411Y573318D1*
X105504Y576108D1*
X105046Y579005D1*
Y581940D1*
X105504Y584837D1*
X106411Y587627D1*
X107743Y590241D1*
X109467Y592615D1*
X111542Y594690D1*
X113916Y596415D1*
X116530Y597747D1*
X119320Y598654D1*
X122218Y599112D1*
X125152D1*
X128050Y598654D1*
X130840Y597747D1*
X133454Y596415D1*
X135828Y594690D1*
X137903Y592615D1*
X139627Y590241D1*
X140959Y587627D1*
X141866Y584837D1*
X142324Y581940D1*
X142337Y581613D1*
X144231Y582942D1*
X146845Y584274D1*
X149635Y585181D1*
X152533Y585639D1*
X155467D1*
X158365Y585181D1*
X161155Y584274D1*
X163769Y582942D1*
X166143Y581218D1*
X168218Y579143D1*
X169942Y576769D1*
X171274Y574155D1*
X172181Y571365D1*
X172639Y568467D1*
Y565533D1*
X172181Y562635D1*
X171274Y559845D1*
X169942Y557231D1*
X168218Y554857D1*
X166143Y552782D1*
X163769Y551058D1*
X161155Y549726D1*
X158365Y548819D1*
X155467Y548361D1*
X152533D1*
X149635Y548819D1*
X146845Y549726D1*
X144231Y551058D1*
X141857Y552782D1*
X139782Y554857D1*
X138058Y557231D1*
X136726Y559845D1*
X135819Y562635D1*
X135361Y565533D1*
X135348Y565860D1*
X538639Y742533D2*
X538181Y739635D1*
X537274Y736845D1*
X535942Y734231D1*
X534218Y731857D1*
X532143Y729782D1*
X529769Y728058D1*
X527155Y726726D1*
X524365Y725819D1*
X521467Y725361D1*
X518533D1*
X515635Y725819D1*
X512845Y726726D1*
X510231Y728058D1*
X507857Y729782D1*
X505782Y731857D1*
X504058Y734231D1*
X502726Y736845D1*
X501819Y739635D1*
X501487Y741469D1*
X499365Y740819D1*
X496467Y740361D1*
X493533D1*
X490635Y740819D1*
X487845Y741726D1*
X485231Y743058D1*
X482857Y744782D1*
X480782Y746857D1*
X479058Y749231D1*
X477726Y751845D1*
X476819Y754635D1*
X476361Y757533D1*
Y760467D1*
X476819Y763365D1*
X477726Y766155D1*
X479058Y768769D1*
X480782Y771143D1*
X482857Y773218D1*
X485231Y774942D1*
X487845Y776274D1*
X490635Y777181D1*
X493533Y777639D1*
X496467D1*
X499365Y777181D1*
X502155Y776274D1*
X504769Y774942D1*
X507143Y773218D1*
X509218Y771143D1*
X510942Y768769D1*
X512274Y766155D1*
X513181Y763365D1*
X513513Y761531D1*
X515635Y762181D1*
X518533Y762639D1*
X521467D1*
X524365Y762181D1*
X527155Y761274D1*
X529769Y759942D1*
X532143Y758218D1*
X534218Y756143D1*
X535942Y753769D1*
X537274Y751155D1*
X538181Y748365D1*
X538639Y745467D1*
Y742533D1*
X101639Y471533D2*
X101181Y468635D1*
X100274Y465845D1*
X98942Y463231D1*
X97218Y460857D1*
X95143Y458782D1*
X92769Y457058D1*
X90155Y455726D1*
X87365Y454819D1*
X84467Y454361D1*
X81533D1*
X78635Y454819D1*
X75845Y455726D1*
X73231Y457058D1*
X70857Y458782D1*
X68782Y460857D1*
X67058Y463231D1*
X65726Y465845D1*
X64819Y468635D1*
X64361Y471533D1*
Y474467D1*
X64819Y477365D1*
X65726Y480155D1*
X67058Y482769D1*
X68782Y485143D1*
X70857Y487218D1*
X73231Y488942D1*
X75845Y490274D1*
X78635Y491181D1*
X81533Y491639D1*
X84467D1*
X87365Y491181D1*
X90155Y490274D1*
X92769Y488942D1*
X95143Y487218D1*
X97218Y485143D1*
X98942Y482769D1*
X100274Y480155D1*
X101181Y477365D1*
X101639Y474467D1*
Y471533D1*
X231639Y544533D2*
X231181Y541635D1*
X230274Y538845D1*
X228942Y536231D1*
X227218Y533857D1*
X225143Y531782D1*
X222769Y530058D1*
X220155Y528726D1*
X217365Y527819D1*
X214467Y527361D1*
X211533D1*
X208635Y527819D1*
X205845Y528726D1*
X203231Y530058D1*
X200857Y531782D1*
X198782Y533857D1*
X197058Y536231D1*
X195726Y538845D1*
X194819Y541635D1*
X194361Y544533D1*
Y547467D1*
X194636Y549448D1*
X192635Y549819D1*
X189845Y550726D1*
X187231Y552058D1*
X184857Y553782D1*
X182782Y555857D1*
X181058Y558231D1*
X179726Y560845D1*
X178819Y563635D1*
X178361Y566533D1*
Y569467D1*
X178819Y572365D1*
X179726Y575155D1*
X181058Y577769D1*
X182782Y580143D1*
X184857Y582218D1*
X187231Y583942D1*
X189845Y585274D1*
X192635Y586181D1*
X195533Y586639D1*
X198467D1*
X201365Y586181D1*
X204155Y585274D1*
X206769Y583942D1*
X209143Y582218D1*
X211218Y580143D1*
X212942Y577769D1*
X214274Y575155D1*
X215181Y572365D1*
X215639Y569467D1*
Y566533D1*
X215364Y564552D1*
X217365Y564181D1*
X220155Y563274D1*
X222769Y561942D1*
X225143Y560218D1*
X227218Y558143D1*
X228942Y555769D1*
X230274Y553155D1*
X231181Y550365D1*
X231639Y547467D1*
Y544533D1*
X1240634Y1347530D2*
X1240176Y1344633D1*
X1239269Y1341843D1*
X1237937Y1339228D1*
X1236213Y1336854D1*
X1234138Y1334780D1*
X1233151Y1334003D1*
X1235215Y1332218D1*
X1237121Y1329987D1*
X1238655Y1327486D1*
X1239777Y1324776D1*
X1240462Y1321923D1*
X1240692Y1318997D1*
X1240462Y1316072D1*
X1239777Y1313219D1*
X1238655Y1310509D1*
X1237121Y1308008D1*
X1235215Y1305777D1*
X1232984Y1303871D1*
X1230483Y1302337D1*
X1227773Y1301215D1*
X1224920Y1300530D1*
X1221995Y1300301D1*
X1219070Y1300530D1*
X1216217Y1301215D1*
X1213507Y1302337D1*
X1211005Y1303871D1*
X1208774Y1305777D1*
X1206869Y1308008D1*
X1205335Y1310509D1*
X1204213Y1313219D1*
X1203528Y1316072D1*
X1203298Y1318997D1*
X1203528Y1321923D1*
X1204213Y1324776D1*
X1205335Y1327486D1*
X1206869Y1329987D1*
X1208774Y1332218D1*
X1210839Y1333992D1*
X1208774Y1335777D1*
X1206869Y1338008D1*
X1205335Y1340509D1*
X1204213Y1343219D1*
X1203528Y1346072D1*
X1203298Y1348997D1*
X1203528Y1351923D1*
X1204213Y1354776D1*
X1205335Y1357486D1*
X1206869Y1359987D1*
X1208774Y1362218D1*
X1211005Y1364123D1*
X1213507Y1365657D1*
X1216217Y1366780D1*
X1219070Y1367465D1*
X1221995Y1367694D1*
X1224920Y1367465D1*
X1227773Y1366780D1*
X1230483Y1365657D1*
X1232984Y1364123D1*
X1235215Y1362218D1*
X1237121Y1359987D1*
X1238655Y1357486D1*
X1239777Y1354776D1*
X1240462Y1351923D1*
X1240692Y1348997D1*
X1240634Y1347530D1*
X987639Y773533D2*
X987181Y770635D1*
X986274Y767845D1*
X984942Y765231D1*
X983218Y762857D1*
X981143Y760782D1*
X978769Y759058D1*
X976155Y757726D1*
X973365Y756819D1*
X970467Y756361D1*
X967533D1*
X964635Y756819D1*
X961845Y757726D1*
X959231Y759058D1*
X956857Y760782D1*
X954782Y762857D1*
X953058Y765231D1*
X951726Y767845D1*
X950819Y770635D1*
X950361Y773533D1*
Y776467D1*
X950819Y779365D1*
X951726Y782155D1*
X953058Y784769D1*
X954782Y787143D1*
X956857Y789218D1*
X959231Y790942D1*
X961845Y792274D1*
X964635Y793181D1*
X967533Y793639D1*
X970467D1*
X973365Y793181D1*
X976155Y792274D1*
X978769Y790942D1*
X981143Y789218D1*
X983218Y787143D1*
X984942Y784769D1*
X986274Y782155D1*
X987181Y779365D1*
X987639Y776467D1*
Y773533D1*
X353639Y855533D2*
X353181Y852635D1*
X352274Y849845D1*
X350942Y847231D1*
X349218Y844857D1*
X347143Y842782D1*
X344769Y841058D1*
X342155Y839726D1*
X339365Y838819D1*
X336467Y838361D1*
X333533D1*
X330635Y838819D1*
X327845Y839726D1*
X325231Y841058D1*
X322857Y842782D1*
X320782Y844857D1*
X319058Y847231D1*
X317726Y849845D1*
X316819Y852635D1*
X316361Y855533D1*
Y858467D1*
X316819Y861365D1*
X317726Y864155D1*
X319058Y866769D1*
X320782Y869143D1*
X322857Y871218D1*
X325231Y872942D1*
X327845Y874274D1*
X330635Y875181D1*
X333533Y875639D1*
X336467D1*
X339365Y875181D1*
X342155Y874274D1*
X344769Y872942D1*
X347143Y871218D1*
X349218Y869143D1*
X350942Y866769D1*
X352274Y864155D1*
X353181Y861365D1*
X353639Y858467D1*
Y855533D1*
X214974Y1095613D2*
X213144Y1094720D1*
X210354Y1093814D1*
X207457Y1093356D1*
X204522D1*
X201625Y1093814D1*
X198835Y1094720D1*
X196220Y1096052D1*
X193846Y1097777D1*
X191772Y1099852D1*
X190047Y1102226D1*
X188715Y1104840D1*
X187808Y1107630D1*
X187350Y1110528D1*
Y1113462D1*
X187808Y1116360D1*
X188715Y1119150D1*
X190047Y1121764D1*
X191772Y1124138D1*
X193846Y1126213D1*
X196220Y1127937D1*
X198835Y1129269D1*
X201625Y1130176D1*
X204522Y1130634D1*
X207457D1*
X210354Y1130176D1*
X213144Y1129269D1*
X214974Y1128377D1*
X216840Y1129269D1*
X219630Y1130176D1*
X222528Y1130634D1*
X225462D1*
X228360Y1130176D1*
X231150Y1129269D1*
X233764Y1127937D1*
X236138Y1126213D1*
X238213Y1124138D1*
X239937Y1121764D1*
X241269Y1119150D1*
X242176Y1116360D1*
X242634Y1113462D1*
Y1110528D1*
X242176Y1107630D1*
X241269Y1104840D1*
X239937Y1102226D1*
X238213Y1099852D1*
X236138Y1097777D1*
X233764Y1096052D1*
X231150Y1094720D1*
X228360Y1093814D1*
X225462Y1093356D1*
X222528D1*
X219630Y1093814D1*
X216840Y1094720D1*
X215010Y1095613D1*
X598639Y801533D2*
X598181Y798635D1*
X597274Y795845D1*
X595942Y793231D1*
X594218Y790857D1*
X592143Y788782D1*
X589769Y787058D1*
X587155Y785726D1*
X584365Y784819D1*
X581467Y784361D1*
X578533D1*
X575635Y784819D1*
X572845Y785726D1*
X570231Y787058D1*
X567857Y788782D1*
X565782Y790857D1*
X564058Y793231D1*
X562726Y795845D1*
X561819Y798635D1*
X561361Y801533D1*
Y804467D1*
X561819Y807365D1*
X562726Y810155D1*
X564058Y812769D1*
X565782Y815143D1*
X567857Y817218D1*
X570231Y818942D1*
X572845Y820274D1*
X575635Y821181D1*
X578533Y821639D1*
X581467D1*
X584365Y821181D1*
X587155Y820274D1*
X589769Y818942D1*
X592143Y817218D1*
X594218Y815143D1*
X595942Y812769D1*
X597274Y810155D1*
X598181Y807365D1*
X598639Y804467D1*
Y801533D1*
X956639Y633533D2*
X956181Y630635D1*
X955274Y627845D1*
X953942Y625231D1*
X952218Y622857D1*
X950143Y620782D1*
X947769Y619058D1*
X945155Y617726D1*
X942365Y616819D1*
X939467Y616361D1*
X936533D1*
X933635Y616819D1*
X930845Y617726D1*
X928231Y619058D1*
X925857Y620782D1*
X923782Y622857D1*
X922058Y625231D1*
X920726Y627845D1*
X919819Y630635D1*
X919361Y633533D1*
Y636467D1*
X919819Y639365D1*
X920726Y642155D1*
X922058Y644769D1*
X923782Y647143D1*
X925857Y649218D1*
X928231Y650942D1*
X930845Y652274D1*
X933635Y653181D1*
X936533Y653639D1*
X939467D1*
X942365Y653181D1*
X945155Y652274D1*
X947769Y650942D1*
X950143Y649218D1*
X952218Y647143D1*
X953942Y644769D1*
X955274Y642155D1*
X956181Y639365D1*
X956639Y636467D1*
Y633533D1*
X1059639Y587533D2*
X1059181Y584635D1*
X1058274Y581845D1*
X1056942Y579231D1*
X1055218Y576857D1*
X1053143Y574782D1*
X1050769Y573058D1*
X1048155Y571726D1*
X1045365Y570819D1*
X1042467Y570361D1*
X1039533D1*
X1036635Y570819D1*
X1033845Y571726D1*
X1031231Y573058D1*
X1028857Y574782D1*
X1026782Y576857D1*
X1025058Y579231D1*
X1023726Y581845D1*
X1022819Y584635D1*
X1022361Y587533D1*
Y590467D1*
X1022819Y593365D1*
X1023726Y596155D1*
X1025058Y598769D1*
X1026782Y601143D1*
X1028857Y603218D1*
X1031231Y604942D1*
X1033845Y606274D1*
X1036635Y607181D1*
X1039533Y607639D1*
X1042467D1*
X1045365Y607181D1*
X1048155Y606274D1*
X1050769Y604942D1*
X1053143Y603218D1*
X1055218Y601143D1*
X1056942Y598769D1*
X1058274Y596155D1*
X1059181Y593365D1*
X1059639Y590467D1*
Y587533D1*
X761639Y1049533D2*
X761181Y1046635D1*
X760274Y1043845D1*
X758942Y1041231D1*
X757218Y1038857D1*
X755143Y1036782D1*
X752769Y1035058D1*
X750155Y1033726D1*
X747365Y1032819D1*
X744467Y1032361D1*
X741533D1*
X738635Y1032819D1*
X735845Y1033726D1*
X733231Y1035058D1*
X730857Y1036782D1*
X728782Y1038857D1*
X727058Y1041231D1*
X725726Y1043845D1*
X724819Y1046635D1*
X724361Y1049533D1*
Y1052467D1*
X724819Y1055365D1*
X725726Y1058155D1*
X727058Y1060769D1*
X728782Y1063143D1*
X730857Y1065218D1*
X733231Y1066942D1*
X735845Y1068274D1*
X738635Y1069181D1*
X741533Y1069639D1*
X744467D1*
X747365Y1069181D1*
X750155Y1068274D1*
X752769Y1066942D1*
X755143Y1065218D1*
X757218Y1063143D1*
X758942Y1060769D1*
X760274Y1058155D1*
X761181Y1055365D1*
X761639Y1052467D1*
Y1049533D1*
X418639Y545533D2*
X418181Y542635D1*
X417274Y539845D1*
X415942Y537231D1*
X414218Y534857D1*
X412143Y532782D1*
X409769Y531058D1*
X407155Y529726D1*
X404365Y528819D1*
X401467Y528361D1*
X398533D1*
X395635Y528819D1*
X392845Y529726D1*
X390231Y531058D1*
X387857Y532782D1*
X385782Y534857D1*
X384058Y537231D1*
X382726Y539845D1*
X381819Y542635D1*
X381361Y545533D1*
Y548467D1*
X381819Y551365D1*
X382726Y554155D1*
X384058Y556769D1*
X385782Y559143D1*
X387857Y561218D1*
X390231Y562942D1*
X392845Y564274D1*
X395635Y565181D1*
X398533Y565639D1*
X401467D1*
X404365Y565181D1*
X407155Y564274D1*
X409769Y562942D1*
X412143Y561218D1*
X414218Y559143D1*
X415942Y556769D1*
X417274Y554155D1*
X418181Y551365D1*
X418639Y548467D1*
Y545533D1*
X470639Y804533D2*
X470181Y801635D1*
X469274Y798845D1*
X467942Y796231D1*
X466218Y793857D1*
X464143Y791782D1*
X461769Y790058D1*
X459155Y788726D1*
X456365Y787819D1*
X453467Y787361D1*
X450533D1*
X447635Y787819D1*
X444845Y788726D1*
X442231Y790058D1*
X439857Y791782D1*
X437782Y793857D1*
X436058Y796231D1*
X434726Y798845D1*
X433819Y801635D1*
X433361Y804533D1*
Y807467D1*
X433819Y810365D1*
X434726Y813155D1*
X436058Y815769D1*
X437782Y818143D1*
X439857Y820218D1*
X442231Y821942D1*
X444845Y823274D1*
X447635Y824181D1*
X450533Y824639D1*
X453467D1*
X456365Y824181D1*
X459155Y823274D1*
X461769Y821942D1*
X464143Y820218D1*
X466218Y818143D1*
X467942Y815769D1*
X469274Y813155D1*
X470181Y810365D1*
X470639Y807467D1*
Y804533D1*
X431639Y688533D2*
X431181Y685635D1*
X430274Y682845D1*
X428942Y680231D1*
X427218Y677857D1*
X425143Y675782D1*
X422769Y674058D1*
X420155Y672726D1*
X417365Y671819D1*
X414467Y671361D1*
X411533D1*
X408635Y671819D1*
X405845Y672726D1*
X403231Y674058D1*
X400857Y675782D1*
X398782Y677857D1*
X397058Y680231D1*
X395726Y682845D1*
X394819Y685635D1*
X394361Y688533D1*
Y691467D1*
X394819Y694365D1*
X395726Y697155D1*
X397058Y699769D1*
X398782Y702143D1*
X400857Y704218D1*
X403231Y705942D1*
X405845Y707274D1*
X408635Y708181D1*
X411533Y708639D1*
X414467D1*
X417365Y708181D1*
X420155Y707274D1*
X422769Y705942D1*
X425143Y704218D1*
X427218Y702143D1*
X428942Y699769D1*
X430274Y697155D1*
X431181Y694365D1*
X431639Y691467D1*
Y688533D1*
X60639Y664533D2*
X60181Y661635D1*
X59274Y658845D1*
X57942Y656231D1*
X56218Y653857D1*
X54143Y651782D1*
X51769Y650058D1*
X49155Y648726D1*
X46365Y647819D1*
X43467Y647361D1*
X40533D1*
X37635Y647819D1*
X34845Y648726D1*
X32231Y650058D1*
X29857Y651782D1*
X27782Y653857D1*
X26058Y656231D1*
X24726Y658845D1*
X23819Y661635D1*
X23361Y664533D1*
Y667467D1*
X23819Y670365D1*
X24726Y673155D1*
X26058Y675769D1*
X27782Y678143D1*
X29857Y680218D1*
X32231Y681942D1*
X34845Y683274D1*
X37635Y684181D1*
X40533Y684639D1*
X43467D1*
X46365Y684181D1*
X49155Y683274D1*
X51769Y681942D1*
X54143Y680218D1*
X56218Y678143D1*
X57942Y675769D1*
X59274Y673155D1*
X60181Y670365D1*
X60639Y667467D1*
Y664533D1*
X539312Y860948D2*
X538660Y859512D1*
X537126Y857010D1*
X535220Y854780D1*
X532990Y852874D1*
X530488Y851340D1*
X527778Y850218D1*
X524925Y849533D1*
X522000Y849303D1*
X519075Y849533D1*
X516222Y850218D1*
X513512Y851340D1*
X511010Y852874D1*
X508780Y854780D1*
X506874Y857010D1*
X505340Y859512D1*
X504218Y862222D1*
X503533Y865075D1*
X503303Y868000D1*
X503533Y870925D1*
X504218Y873778D1*
X505340Y876488D1*
X506874Y878990D1*
X508780Y881220D1*
X511010Y883126D1*
X513512Y884660D1*
X516222Y885782D1*
X519075Y886467D1*
X522000Y886697D1*
X524925Y886467D1*
X527778Y885782D1*
X530488Y884660D1*
X532990Y883126D1*
X535220Y881220D1*
X537126Y878990D1*
X538660Y876488D1*
X539681Y874052D1*
X540340Y875488D1*
X541874Y877990D1*
X543780Y880220D1*
X546010Y882126D1*
X548512Y883660D1*
X551222Y884782D1*
X554075Y885467D1*
X557000Y885697D1*
X559925Y885467D1*
X562778Y884782D1*
X565488Y883660D1*
X567990Y882126D1*
X570220Y880220D1*
X572126Y877990D1*
X573660Y875488D1*
X574782Y872778D1*
X575467Y869925D1*
X575697Y867000D1*
X575467Y864075D1*
X574782Y861222D1*
X573660Y858512D1*
X572126Y856010D1*
X570220Y853780D1*
X567990Y851874D1*
X565488Y850340D1*
X562778Y849218D1*
X559925Y848533D1*
X557000Y848303D1*
X554075Y848533D1*
X551222Y849218D1*
X548512Y850340D1*
X546010Y851874D1*
X543780Y853780D1*
X541874Y856010D1*
X540340Y858512D1*
X539319Y860948D1*
X616639Y835533D2*
X616181Y832635D1*
X615274Y829845D1*
X613942Y827231D1*
X612218Y824857D1*
X610143Y822782D1*
X607769Y821058D1*
X605155Y819726D1*
X602365Y818819D1*
X599467Y818361D1*
X596533D1*
X593635Y818819D1*
X590845Y819726D1*
X588231Y821058D1*
X585857Y822782D1*
X583782Y824857D1*
X582058Y827231D1*
X580726Y829845D1*
X579819Y832635D1*
X579361Y835533D1*
Y838467D1*
X579819Y841365D1*
X580726Y844155D1*
X582058Y846769D1*
X583782Y849143D1*
X585857Y851218D1*
X588231Y852942D1*
X590845Y854274D1*
X593635Y855181D1*
X596533Y855639D1*
X599467D1*
X602365Y855181D1*
X605155Y854274D1*
X607769Y852942D1*
X610143Y851218D1*
X612218Y849143D1*
X613942Y846769D1*
X615274Y844155D1*
X616181Y841365D1*
X616639Y838467D1*
Y835533D1*
X461639Y1229533D2*
X461181Y1226635D1*
X460274Y1223845D1*
X458942Y1221231D1*
X457218Y1218857D1*
X455143Y1216782D1*
X452769Y1215058D1*
X450155Y1213726D1*
X447365Y1212819D1*
X444467Y1212361D1*
X441533D1*
X438635Y1212819D1*
X435845Y1213726D1*
X433231Y1215058D1*
X430857Y1216782D1*
X428782Y1218857D1*
X427058Y1221231D1*
X425726Y1223845D1*
X424819Y1226635D1*
X424361Y1229533D1*
Y1232467D1*
X424819Y1235365D1*
X425726Y1238155D1*
X427058Y1240769D1*
X428782Y1243143D1*
X430857Y1245218D1*
X433231Y1246942D1*
X435845Y1248274D1*
X438635Y1249181D1*
X441533Y1249639D1*
X444467D1*
X447365Y1249181D1*
X450155Y1248274D1*
X452769Y1246942D1*
X455143Y1245218D1*
X457218Y1243143D1*
X458942Y1240769D1*
X460274Y1238155D1*
X461181Y1235365D1*
X461639Y1232467D1*
Y1229533D1*
X956639Y999533D2*
X956181Y996635D1*
X955274Y993845D1*
X953942Y991231D1*
X952218Y988857D1*
X950143Y986782D1*
X947769Y985058D1*
X945155Y983726D1*
X942365Y982819D1*
X939467Y982361D1*
X936533D1*
X933635Y982819D1*
X930845Y983726D1*
X928231Y985058D1*
X925857Y986782D1*
X923782Y988857D1*
X922058Y991231D1*
X920726Y993845D1*
X919819Y996635D1*
X919361Y999533D1*
Y1002467D1*
X919819Y1005365D1*
X920726Y1008155D1*
X922058Y1010769D1*
X923782Y1013143D1*
X925857Y1015218D1*
X928231Y1016942D1*
X930845Y1018274D1*
X933635Y1019181D1*
X936533Y1019639D1*
X939467D1*
X942365Y1019181D1*
X945155Y1018274D1*
X947769Y1016942D1*
X950143Y1015218D1*
X952218Y1013143D1*
X953942Y1010769D1*
X955274Y1008155D1*
X956181Y1005365D1*
X956639Y1002467D1*
Y999533D1*
X651639Y1223533D2*
X651181Y1220635D1*
X650274Y1217845D1*
X648942Y1215231D1*
X647218Y1212857D1*
X645143Y1210782D1*
X642769Y1209058D1*
X640155Y1207726D1*
X637365Y1206819D1*
X634467Y1206361D1*
X631533D1*
X628635Y1206819D1*
X625845Y1207726D1*
X623231Y1209058D1*
X620857Y1210782D1*
X618782Y1212857D1*
X617058Y1215231D1*
X615726Y1217845D1*
X614819Y1220635D1*
X614361Y1223533D1*
Y1226467D1*
X614819Y1229365D1*
X615726Y1232155D1*
X617058Y1234769D1*
X618782Y1237143D1*
X620857Y1239218D1*
X623231Y1240942D1*
X625845Y1242274D1*
X628635Y1243181D1*
X631533Y1243639D1*
X634467D1*
X637365Y1243181D1*
X640155Y1242274D1*
X642769Y1240942D1*
X645143Y1239218D1*
X647218Y1237143D1*
X648942Y1234769D1*
X650274Y1232155D1*
X651181Y1229365D1*
X651639Y1226467D1*
Y1223533D1*
X905639Y1222533D2*
X905181Y1219635D1*
X904274Y1216845D1*
X902942Y1214231D1*
X901218Y1211857D1*
X899143Y1209782D1*
X896769Y1208058D1*
X894155Y1206726D1*
X891365Y1205819D1*
X888467Y1205361D1*
X885533D1*
X882635Y1205819D1*
X879845Y1206726D1*
X877231Y1208058D1*
X874857Y1209782D1*
X872782Y1211857D1*
X871058Y1214231D1*
X869726Y1216845D1*
X868819Y1219635D1*
X868361Y1222533D1*
Y1225467D1*
X868819Y1228365D1*
X869726Y1231155D1*
X871058Y1233769D1*
X872782Y1236143D1*
X874857Y1238218D1*
X877231Y1239942D1*
X879845Y1241274D1*
X882635Y1242181D1*
X885533Y1242639D1*
X888467D1*
X891365Y1242181D1*
X894155Y1241274D1*
X896769Y1239942D1*
X899143Y1238218D1*
X901218Y1236143D1*
X902942Y1233769D1*
X904274Y1231155D1*
X905181Y1228365D1*
X905639Y1225467D1*
Y1222533D1*
X1208639Y588533D2*
X1208181Y585635D1*
X1207274Y582845D1*
X1205942Y580231D1*
X1204218Y577857D1*
X1202143Y575782D1*
X1199769Y574058D1*
X1197155Y572726D1*
X1194365Y571819D1*
X1191467Y571361D1*
X1188533D1*
X1185635Y571819D1*
X1182845Y572726D1*
X1180231Y574058D1*
X1177857Y575782D1*
X1175782Y577857D1*
X1174058Y580231D1*
X1172726Y582845D1*
X1171819Y585635D1*
X1171361Y588533D1*
Y591467D1*
X1171819Y594365D1*
X1172726Y597155D1*
X1174058Y599769D1*
X1175782Y602143D1*
X1177857Y604218D1*
X1180231Y605942D1*
X1182845Y607274D1*
X1185635Y608181D1*
X1188533Y608639D1*
X1191467D1*
X1194365Y608181D1*
X1197155Y607274D1*
X1199769Y605942D1*
X1202143Y604218D1*
X1204218Y602143D1*
X1205942Y599769D1*
X1207274Y597155D1*
X1208181Y594365D1*
X1208639Y591467D1*
Y588533D1*
X773639Y654530D2*
X773181Y651633D1*
X772274Y648843D1*
X770942Y646228D1*
X769218Y643854D1*
X767143Y641780D1*
X764769Y640055D1*
X762155Y638723D1*
X759365Y637816D1*
X756467Y637358D1*
X753533D1*
X750635Y637816D1*
X747845Y638723D1*
X745231Y640055D1*
X742857Y641780D1*
X740782Y643854D1*
X739058Y646228D1*
X737726Y648843D1*
X736819Y651633D1*
X736361Y654530D1*
Y657465D1*
X736819Y660362D1*
X737726Y663152D1*
X739058Y665766D1*
X740782Y668140D1*
X742857Y670215D1*
X745231Y671940D1*
X747845Y673272D1*
X750635Y674178D1*
X753533Y674636D1*
X756467D1*
X759365Y674178D1*
X762155Y673272D1*
X764769Y671940D1*
X767143Y670215D1*
X769218Y668140D1*
X770942Y665766D1*
X772274Y663152D1*
X773181Y660362D1*
X773639Y657465D1*
Y654530D1*
X185639Y912533D2*
X185181Y909635D1*
X184274Y906845D1*
X182942Y904231D1*
X181218Y901857D1*
X179143Y899782D1*
X176769Y898058D1*
X174155Y896726D1*
X171365Y895819D1*
X168467Y895361D1*
X165533D1*
X162635Y895819D1*
X159845Y896726D1*
X157231Y898058D1*
X154857Y899782D1*
X152782Y901857D1*
X151058Y904231D1*
X149726Y906845D1*
X148819Y909635D1*
X148361Y912533D1*
Y915467D1*
X148819Y918365D1*
X149726Y921155D1*
X151058Y923769D1*
X152782Y926143D1*
X154070Y927490D1*
X152782Y928857D1*
X151058Y931231D1*
X149726Y933845D1*
X148819Y936635D1*
X148361Y939533D1*
Y942467D1*
X148819Y945365D1*
X149726Y948155D1*
X151058Y950769D1*
X152782Y953143D1*
X153588Y954014D1*
X151782Y955857D1*
X150058Y958231D1*
X148726Y960845D1*
X147819Y963635D1*
X147361Y966533D1*
Y969467D1*
X147819Y972365D1*
X148726Y975155D1*
X150058Y977769D1*
X151782Y980143D1*
X153857Y982218D1*
X156231Y983942D1*
X158845Y985274D1*
X161635Y986181D1*
X164533Y986639D1*
X167467D1*
X170365Y986181D1*
X173155Y985274D1*
X175769Y983942D1*
X178143Y982218D1*
X180218Y980143D1*
X181942Y977769D1*
X183274Y975155D1*
X184181Y972365D1*
X184639Y969467D1*
Y966533D1*
X184181Y963635D1*
X183274Y960845D1*
X181942Y958231D1*
X180218Y955857D1*
X179412Y954986D1*
X181218Y953143D1*
X182942Y950769D1*
X184274Y948155D1*
X185181Y945365D1*
X185639Y942467D1*
Y939533D1*
X185181Y936635D1*
X184274Y933845D1*
X182942Y931231D1*
X181218Y928857D1*
X179930Y927510D1*
X181218Y926143D1*
X182942Y923769D1*
X184274Y921155D1*
X185181Y918365D1*
X185639Y915467D1*
Y912533D1*
X380639Y947533D2*
X380181Y944635D1*
X379274Y941845D1*
X377942Y939231D1*
X376218Y936857D1*
X374143Y934782D1*
X371769Y933058D1*
X369155Y931726D1*
X366365Y930819D1*
X363467Y930361D1*
X360533D1*
X357635Y930819D1*
X354845Y931726D1*
X352231Y933058D1*
X349857Y934782D1*
X347782Y936857D1*
X347445Y937285D1*
X346660Y935512D1*
X345126Y933010D1*
X343220Y930780D1*
X340990Y928874D1*
X338488Y927340D1*
X335778Y926218D1*
X332925Y925533D1*
X330000Y925303D1*
X327075Y925533D1*
X324222Y926218D1*
X321512Y927340D1*
X319010Y928874D1*
X316780Y930780D1*
X314874Y933010D1*
X313340Y935512D1*
X312218Y938222D1*
X311533Y941075D1*
X311303Y944000D1*
X311533Y946925D1*
X312218Y949778D1*
X313340Y952488D1*
X314874Y954990D1*
X316780Y957220D1*
X319010Y959126D1*
X321512Y960660D1*
X324222Y961782D1*
X327075Y962467D1*
X330000Y962697D1*
X332925Y962467D1*
X335778Y961782D1*
X338488Y960660D1*
X340990Y959126D1*
X343220Y957220D1*
X344555Y955715D1*
X345340Y957488D1*
X346874Y959990D1*
X348780Y962220D1*
X351010Y964126D1*
X353512Y965660D1*
X356222Y966782D1*
X359075Y967467D1*
X362000Y967697D1*
X364925Y967467D1*
X367778Y966782D1*
X370488Y965660D1*
X372990Y964126D1*
X375220Y962220D1*
X377126Y959990D1*
X378660Y957488D1*
X379782Y954778D1*
X380467Y951925D1*
X380697Y949000D1*
X380639Y947533D1*
X309639Y935533D2*
X309181Y932635D1*
X308274Y929845D1*
X306942Y927231D1*
X305218Y924857D1*
X303143Y922782D1*
X300769Y921058D1*
X298155Y919726D1*
X295365Y918819D1*
X292467Y918361D1*
X289533D1*
X286635Y918819D1*
X283845Y919726D1*
X281231Y921058D1*
X278857Y922782D1*
X277495Y924087D1*
X275990Y922874D1*
X273488Y921340D1*
X270778Y920218D1*
X267925Y919533D1*
X265000Y919303D1*
X262525Y919479D1*
X262181Y917635D1*
X261274Y914845D1*
X259942Y912231D1*
X258218Y909857D1*
X256143Y907782D1*
X253769Y906058D1*
X251155Y904726D1*
X248365Y903819D1*
X245467Y903361D1*
X242533D1*
X239635Y903819D1*
X236845Y904726D1*
X234231Y906058D1*
X233024Y906864D1*
X231220Y904780D1*
X228990Y902874D1*
X226488Y901340D1*
X223778Y900218D1*
X220925Y899533D1*
X218000Y899303D1*
X215075Y899533D1*
X212222Y900218D1*
X209512Y901340D1*
X207010Y902874D1*
X204780Y904780D1*
X202874Y907010D1*
X201340Y909512D1*
X200218Y912222D1*
X199533Y915075D1*
X199303Y918000D1*
X199533Y920925D1*
X200218Y923778D1*
X201340Y926488D1*
X202874Y928990D1*
X204780Y931220D1*
X207010Y933126D1*
X209512Y934660D1*
X212222Y935782D1*
X215075Y936467D1*
X218000Y936697D1*
X220925Y936467D1*
X223778Y935782D1*
X226488Y934660D1*
X228976Y933136D1*
X230780Y935220D1*
X233010Y937126D1*
X235512Y938660D1*
X238222Y939782D1*
X241075Y940467D1*
X244000Y940697D1*
X246475Y940521D1*
X246819Y942365D1*
X247726Y945155D1*
X249058Y947769D1*
X250782Y950143D1*
X252857Y952218D1*
X255231Y953942D1*
X257845Y955274D1*
X260635Y956181D1*
X263533Y956639D1*
X266467D1*
X269365Y956181D1*
X272155Y955274D1*
X274769Y953942D1*
X277143Y952218D1*
X278505Y950913D1*
X280010Y952126D1*
X282512Y953660D1*
X285222Y954782D1*
X288075Y955467D1*
X291000Y955697D1*
X293925Y955467D1*
X296778Y954782D1*
X299488Y953660D1*
X301990Y952126D1*
X304220Y950220D1*
X306126Y947990D1*
X307660Y945488D1*
X308782Y942778D1*
X309467Y939925D1*
X309697Y937000D1*
X309639Y935533D1*
X365639Y898533D2*
X365181Y895635D1*
X365108Y895375D1*
X367635Y896181D1*
X370533Y896639D1*
X373467D1*
X376365Y896181D1*
X379155Y895274D1*
X381769Y893942D1*
X384143Y892218D1*
X386218Y890143D1*
X387942Y887769D1*
X389274Y885155D1*
X390181Y882365D1*
X390639Y879467D1*
Y876533D1*
X390181Y873635D1*
X389274Y870845D1*
X387942Y868231D1*
X386218Y865857D1*
X384143Y863782D1*
X381769Y862058D1*
X379155Y860726D1*
X376365Y859819D1*
X373467Y859361D1*
X370533D1*
X367635Y859819D1*
X364845Y860726D1*
X362231Y862058D1*
X359857Y863782D1*
X357782Y865857D1*
X356058Y868231D1*
X354726Y870845D1*
X353819Y873635D1*
X353361Y876533D1*
Y879467D1*
X353819Y882365D1*
X353892Y882625D1*
X351365Y881819D1*
X348467Y881361D1*
X345533D1*
X342635Y881819D1*
X339845Y882726D1*
X337231Y884058D1*
X334857Y885782D1*
X332782Y887857D1*
X331058Y890231D1*
X329726Y892845D1*
X328819Y895635D1*
X328361Y898533D1*
Y901467D1*
X328819Y904365D1*
X329726Y907155D1*
X331058Y909769D1*
X332782Y912143D1*
X334857Y914218D1*
X337231Y915942D1*
X339845Y917274D1*
X342635Y918181D1*
X345533Y918639D1*
X348467D1*
X351365Y918181D1*
X354155Y917274D1*
X356769Y915942D1*
X359143Y914218D1*
X361218Y912143D1*
X362942Y909769D1*
X364274Y907155D1*
X365181Y904365D1*
X365639Y901467D1*
Y898533D1*
X87639Y1621533D2*
X87181Y1618635D1*
X86274Y1615845D1*
X84942Y1613231D1*
X83218Y1610857D1*
X81143Y1608782D1*
X78769Y1607058D1*
X76155Y1605726D1*
X73365Y1604819D1*
X70467Y1604361D1*
X67533D1*
X64635Y1604819D1*
X61845Y1605726D1*
X59231Y1607058D1*
X56857Y1608782D1*
X54782Y1610857D1*
X53058Y1613231D1*
X51726Y1615845D1*
X50819Y1618635D1*
X50361Y1621533D1*
Y1624467D1*
X50819Y1627365D1*
X51726Y1630155D1*
X53058Y1632769D1*
X54782Y1635143D1*
X56857Y1637218D1*
X59231Y1638942D1*
X61845Y1640274D1*
X64635Y1641181D1*
X67533Y1641639D1*
X70467D1*
X73365Y1641181D1*
X76155Y1640274D1*
X78769Y1638942D1*
X81143Y1637218D1*
X83218Y1635143D1*
X84942Y1632769D1*
X86274Y1630155D1*
X87181Y1627365D1*
X87639Y1624467D1*
Y1621533D1*
X269639Y1257533D2*
X269181Y1254635D1*
X268274Y1251845D1*
X266942Y1249231D1*
X265218Y1246857D1*
X263143Y1244782D1*
X260769Y1243058D1*
X258155Y1241726D1*
X255365Y1240819D1*
X252467Y1240361D1*
X249533D1*
X246635Y1240819D1*
X243845Y1241726D1*
X241231Y1243058D1*
X238857Y1244782D1*
X236782Y1246857D1*
X235058Y1249231D1*
X233726Y1251845D1*
X232819Y1254635D1*
X232361Y1257533D1*
Y1260467D1*
X232819Y1263365D1*
X233726Y1266155D1*
X235058Y1268769D1*
X236782Y1271143D1*
X238857Y1273218D1*
X241231Y1274942D1*
X243845Y1276274D1*
X246635Y1277181D1*
X249533Y1277639D1*
X252467D1*
X255365Y1277181D1*
X258155Y1276274D1*
X260769Y1274942D1*
X263143Y1273218D1*
X265218Y1271143D1*
X266942Y1268769D1*
X268274Y1266155D1*
X269181Y1263365D1*
X269639Y1260467D1*
Y1257533D1*
X723639Y999533D2*
X723181Y996635D1*
X722274Y993845D1*
X720942Y991231D1*
X719218Y988857D1*
X717143Y986782D1*
X714769Y985058D1*
X712155Y983726D1*
X709365Y982819D1*
X706467Y982361D1*
X703533D1*
X700635Y982819D1*
X697845Y983726D1*
X695231Y985058D1*
X692857Y986782D1*
X690782Y988857D1*
X689058Y991231D1*
X687726Y993845D1*
X686819Y996635D1*
X686361Y999533D1*
Y1002467D1*
X686819Y1005365D1*
X687726Y1008155D1*
X689058Y1010769D1*
X690782Y1013143D1*
X692857Y1015218D1*
X695231Y1016942D1*
X697845Y1018274D1*
X700635Y1019181D1*
X703533Y1019639D1*
X706467D1*
X709365Y1019181D1*
X712155Y1018274D1*
X714769Y1016942D1*
X717143Y1015218D1*
X719218Y1013143D1*
X720942Y1010769D1*
X722274Y1008155D1*
X723181Y1005365D1*
X723639Y1002467D1*
Y999533D1*
X1200639Y835533D2*
X1200181Y832635D1*
X1199274Y829845D1*
X1197942Y827231D1*
X1196218Y824857D1*
X1194143Y822782D1*
X1191769Y821058D1*
X1189155Y819726D1*
X1186365Y818819D1*
X1183467Y818361D1*
X1180533D1*
X1177635Y818819D1*
X1174845Y819726D1*
X1172231Y821058D1*
X1169857Y822782D1*
X1167782Y824857D1*
X1166058Y827231D1*
X1164726Y829845D1*
X1163819Y832635D1*
X1163361Y835533D1*
Y838467D1*
X1163819Y841365D1*
X1164726Y844155D1*
X1166058Y846769D1*
X1167782Y849143D1*
X1169857Y851218D1*
X1172231Y852942D1*
X1174845Y854274D1*
X1177635Y855181D1*
X1180533Y855639D1*
X1183467D1*
X1186365Y855181D1*
X1189155Y854274D1*
X1191769Y852942D1*
X1194143Y851218D1*
X1196218Y849143D1*
X1197942Y846769D1*
X1199274Y844155D1*
X1200181Y841365D1*
X1200639Y838467D1*
Y835533D1*
X896639Y791533D2*
X896181Y788635D1*
X895274Y785845D1*
X893942Y783231D1*
X892218Y780857D1*
X890143Y778782D1*
X887769Y777058D1*
X885155Y775726D1*
X882365Y774819D1*
X879467Y774361D1*
X876533D1*
X873635Y774819D1*
X870845Y775726D1*
X868231Y777058D1*
X865857Y778782D1*
X863782Y780857D1*
X862058Y783231D1*
X860726Y785845D1*
X859819Y788635D1*
X859361Y791533D1*
Y794467D1*
X859819Y797365D1*
X860726Y800155D1*
X862058Y802769D1*
X863782Y805143D1*
X865857Y807218D1*
X868231Y808942D1*
X870845Y810274D1*
X873635Y811181D1*
X876533Y811639D1*
X879467D1*
X882365Y811181D1*
X885155Y810274D1*
X887769Y808942D1*
X890143Y807218D1*
X892218Y805143D1*
X893942Y802769D1*
X895274Y800155D1*
X896181Y797365D1*
X896639Y794467D1*
Y791533D1*
X1063639Y1056533D2*
X1063181Y1053635D1*
X1062274Y1050845D1*
X1060942Y1048231D1*
X1059218Y1045857D1*
X1057143Y1043782D1*
X1054769Y1042058D1*
X1052155Y1040726D1*
X1049365Y1039819D1*
X1046467Y1039361D1*
X1043533D1*
X1040635Y1039819D1*
X1037845Y1040726D1*
X1035231Y1042058D1*
X1032857Y1043782D1*
X1030782Y1045857D1*
X1029058Y1048231D1*
X1027726Y1050845D1*
X1026819Y1053635D1*
X1026361Y1056533D1*
Y1059467D1*
X1026819Y1062365D1*
X1027726Y1065155D1*
X1029058Y1067769D1*
X1030782Y1070143D1*
X1032857Y1072218D1*
X1035231Y1073942D1*
X1037845Y1075274D1*
X1040635Y1076181D1*
X1043533Y1076639D1*
X1046467D1*
X1049365Y1076181D1*
X1052155Y1075274D1*
X1054769Y1073942D1*
X1057143Y1072218D1*
X1059218Y1070143D1*
X1060942Y1067769D1*
X1062274Y1065155D1*
X1063181Y1062365D1*
X1063639Y1059467D1*
Y1056533D1*
X1180639Y974533D2*
X1180181Y971635D1*
X1179274Y968845D1*
X1177942Y966231D1*
X1176218Y963857D1*
X1174143Y961782D1*
X1171769Y960058D1*
X1169155Y958726D1*
X1166365Y957819D1*
X1163467Y957361D1*
X1160533D1*
X1157635Y957819D1*
X1154845Y958726D1*
X1152231Y960058D1*
X1149857Y961782D1*
X1147782Y963857D1*
X1146058Y966231D1*
X1144726Y968845D1*
X1143819Y971635D1*
X1143361Y974533D1*
Y977467D1*
X1143819Y980365D1*
X1144726Y983155D1*
X1146058Y985769D1*
X1147782Y988143D1*
X1149857Y990218D1*
X1152231Y991942D1*
X1154845Y993274D1*
X1157635Y994181D1*
X1160533Y994639D1*
X1163467D1*
X1166365Y994181D1*
X1169155Y993274D1*
X1171769Y991942D1*
X1174143Y990218D1*
X1176218Y988143D1*
X1177942Y985769D1*
X1179274Y983155D1*
X1180181Y980365D1*
X1180639Y977467D1*
Y974533D1*
X732639Y920533D2*
X732181Y917635D1*
X731274Y914845D1*
X729942Y912231D1*
X728218Y909857D1*
X726143Y907782D1*
X723769Y906058D1*
X721155Y904726D1*
X718365Y903819D1*
X715467Y903361D1*
X712533D1*
X709635Y903819D1*
X706845Y904726D1*
X704231Y906058D1*
X701857Y907782D1*
X699782Y909857D1*
X698058Y912231D1*
X696726Y914845D1*
X695819Y917635D1*
X695361Y920533D1*
Y923467D1*
X695819Y926365D1*
X696726Y929155D1*
X698058Y931769D1*
X699782Y934143D1*
X701857Y936218D1*
X704231Y937942D1*
X706845Y939274D1*
X709635Y940181D1*
X712533Y940639D1*
X715467D1*
X718365Y940181D1*
X721155Y939274D1*
X723769Y937942D1*
X726143Y936218D1*
X728218Y934143D1*
X729942Y931769D1*
X731274Y929155D1*
X732181Y926365D1*
X732639Y923467D1*
Y920533D1*
X685639Y1011533D2*
X685181Y1008635D1*
X684274Y1005845D1*
X682942Y1003231D1*
X681218Y1000857D1*
X679143Y998782D1*
X676769Y997058D1*
X674155Y995726D1*
X671365Y994819D1*
X668467Y994361D1*
X665533D1*
X662635Y994819D1*
X659845Y995726D1*
X657231Y997058D1*
X654857Y998782D1*
X652782Y1000857D1*
X651058Y1003231D1*
X649726Y1005845D1*
X648819Y1008635D1*
X648361Y1011533D1*
Y1014467D1*
X648819Y1017365D1*
X649726Y1020155D1*
X651058Y1022769D1*
X652782Y1025143D1*
X654857Y1027218D1*
X657231Y1028942D1*
X659845Y1030274D1*
X662635Y1031181D1*
X665533Y1031639D1*
X668467D1*
X671365Y1031181D1*
X674155Y1030274D1*
X676769Y1028942D1*
X679143Y1027218D1*
X681218Y1025143D1*
X682942Y1022769D1*
X684274Y1020155D1*
X685181Y1017365D1*
X685639Y1014467D1*
Y1011533D1*
X1207639Y671533D2*
X1207181Y668635D1*
X1206274Y665845D1*
X1204942Y663231D1*
X1203218Y660857D1*
X1201143Y658782D1*
X1198769Y657058D1*
X1196155Y655726D1*
X1193365Y654819D1*
X1190467Y654361D1*
X1187533D1*
X1184635Y654819D1*
X1181845Y655726D1*
X1179231Y657058D1*
X1176857Y658782D1*
X1174782Y660857D1*
X1173058Y663231D1*
X1171726Y665845D1*
X1170819Y668635D1*
X1170361Y671533D1*
Y674467D1*
X1170819Y677365D1*
X1171726Y680155D1*
X1173058Y682769D1*
X1174782Y685143D1*
X1176857Y687218D1*
X1179231Y688942D1*
X1181845Y690274D1*
X1184635Y691181D1*
X1187533Y691639D1*
X1190467D1*
X1193365Y691181D1*
X1196155Y690274D1*
X1198769Y688942D1*
X1201143Y687218D1*
X1203218Y685143D1*
X1204942Y682769D1*
X1206274Y680155D1*
X1207181Y677365D1*
X1207639Y674467D1*
Y671533D1*
X551639Y1145533D2*
X551181Y1142635D1*
X550274Y1139845D1*
X548942Y1137231D1*
X547218Y1134857D1*
X545143Y1132782D1*
X542769Y1131058D1*
X540155Y1129726D1*
X537365Y1128819D1*
X534467Y1128361D1*
X531533D1*
X528635Y1128819D1*
X525845Y1129726D1*
X523231Y1131058D1*
X520857Y1132782D1*
X518782Y1134857D1*
X517058Y1137231D1*
X515726Y1139845D1*
X514819Y1142635D1*
X514361Y1145533D1*
Y1148467D1*
X514819Y1151365D1*
X515726Y1154155D1*
X517058Y1156769D1*
X518782Y1159143D1*
X520857Y1161218D1*
X523231Y1162942D1*
X525845Y1164274D1*
X528635Y1165181D1*
X531533Y1165639D1*
X534467D1*
X537365Y1165181D1*
X540155Y1164274D1*
X542769Y1162942D1*
X545143Y1161218D1*
X547218Y1159143D1*
X548942Y1156769D1*
X550274Y1154155D1*
X551181Y1151365D1*
X551639Y1148467D1*
Y1145533D1*
X896639Y905533D2*
X896181Y902635D1*
X895274Y899845D1*
X893942Y897231D1*
X892218Y894857D1*
X890143Y892782D1*
X887769Y891058D1*
X885155Y889726D1*
X882365Y888819D1*
X879467Y888361D1*
X876533D1*
X873635Y888819D1*
X870845Y889726D1*
X868231Y891058D1*
X865857Y892782D1*
X863782Y894857D1*
X862058Y897231D1*
X860726Y899845D1*
X859819Y902635D1*
X859361Y905533D1*
Y908467D1*
X859819Y911365D1*
X860726Y914155D1*
X862058Y916769D1*
X863782Y919143D1*
X865857Y921218D1*
X868231Y922942D1*
X870845Y924274D1*
X873635Y925181D1*
X876533Y925639D1*
X879467D1*
X882365Y925181D1*
X885155Y924274D1*
X887769Y922942D1*
X890143Y921218D1*
X892218Y919143D1*
X893942Y916769D1*
X895274Y914155D1*
X896181Y911365D1*
X896639Y908467D1*
Y905533D1*
X401639Y1251533D2*
X401181Y1248635D1*
X400274Y1245845D1*
X398942Y1243231D1*
X397218Y1240857D1*
X395143Y1238782D1*
X392769Y1237058D1*
X390155Y1235726D1*
X387365Y1234819D1*
X384467Y1234361D1*
X381533D1*
X378635Y1234819D1*
X375845Y1235726D1*
X373231Y1237058D1*
X370857Y1238782D1*
X368782Y1240857D1*
X367058Y1243231D1*
X365726Y1245845D1*
X364819Y1248635D1*
X364361Y1251533D1*
Y1254467D1*
X364819Y1257365D1*
X365726Y1260155D1*
X367058Y1262769D1*
X368782Y1265143D1*
X370857Y1267218D1*
X373231Y1268942D1*
X375845Y1270274D1*
X378635Y1271181D1*
X381533Y1271639D1*
X384467D1*
X387365Y1271181D1*
X390155Y1270274D1*
X392769Y1268942D1*
X395143Y1267218D1*
X397218Y1265143D1*
X398942Y1262769D1*
X400274Y1260155D1*
X401181Y1257365D1*
X401639Y1254467D1*
Y1251533D1*
X706639Y1149533D2*
X706181Y1146635D1*
X705274Y1143845D1*
X703942Y1141231D1*
X702218Y1138857D1*
X700143Y1136782D1*
X697769Y1135058D1*
X695155Y1133726D1*
X692365Y1132819D1*
X689467Y1132361D1*
X686533D1*
X683635Y1132819D1*
X680845Y1133726D1*
X678231Y1135058D1*
X675857Y1136782D1*
X673782Y1138857D1*
X672058Y1141231D1*
X670726Y1143845D1*
X669819Y1146635D1*
X669361Y1149533D1*
Y1152467D1*
X669819Y1155365D1*
X670726Y1158155D1*
X672058Y1160769D1*
X673782Y1163143D1*
X675857Y1165218D1*
X678231Y1166942D1*
X680845Y1168274D1*
X683635Y1169181D1*
X686533Y1169639D1*
X689467D1*
X692365Y1169181D1*
X695155Y1168274D1*
X697769Y1166942D1*
X700143Y1165218D1*
X702218Y1163143D1*
X703942Y1160769D1*
X705274Y1158155D1*
X706181Y1155365D1*
X706639Y1152467D1*
Y1149533D1*
X613639Y1374533D2*
X613181Y1371635D1*
X612274Y1368845D1*
X610942Y1366231D1*
X609218Y1363857D1*
X607143Y1361782D1*
X604769Y1360058D1*
X602155Y1358726D1*
X599365Y1357819D1*
X596467Y1357361D1*
X593533D1*
X590635Y1357819D1*
X587845Y1358726D1*
X585231Y1360058D1*
X582857Y1361782D1*
X580782Y1363857D1*
X579058Y1366231D1*
X577726Y1368845D1*
X576819Y1371635D1*
X576361Y1374533D1*
Y1377467D1*
X576819Y1380365D1*
X577726Y1383155D1*
X579058Y1385769D1*
X580782Y1388143D1*
X582857Y1390218D1*
X585231Y1391942D1*
X587845Y1393274D1*
X590635Y1394181D1*
X593533Y1394639D1*
X596467D1*
X599365Y1394181D1*
X602155Y1393274D1*
X604769Y1391942D1*
X607143Y1390218D1*
X609218Y1388143D1*
X610942Y1385769D1*
X612274Y1383155D1*
X613181Y1380365D1*
X613639Y1377467D1*
Y1374533D1*
X90639Y1372533D2*
X90181Y1369635D1*
X89274Y1366845D1*
X87942Y1364231D1*
X86218Y1361857D1*
X84143Y1359782D1*
X81769Y1358058D1*
X79155Y1356726D1*
X76365Y1355819D1*
X73467Y1355361D1*
X70533D1*
X67635Y1355819D1*
X64845Y1356726D1*
X62231Y1358058D1*
X59857Y1359782D1*
X57782Y1361857D1*
X56058Y1364231D1*
X54726Y1366845D1*
X53819Y1369635D1*
X53361Y1372533D1*
Y1375467D1*
X53819Y1378365D1*
X54726Y1381155D1*
X56058Y1383769D1*
X57782Y1386143D1*
X59857Y1388218D1*
X62231Y1389942D1*
X64845Y1391274D1*
X67635Y1392181D1*
X70533Y1392639D1*
X73467D1*
X76365Y1392181D1*
X79155Y1391274D1*
X81769Y1389942D1*
X84143Y1388218D1*
X86218Y1386143D1*
X87942Y1383769D1*
X89274Y1381155D1*
X90181Y1378365D1*
X90639Y1375467D1*
Y1372533D1*
X630639Y1147533D2*
X630181Y1144635D1*
X629274Y1141845D1*
X627942Y1139231D1*
X626218Y1136857D1*
X624143Y1134782D1*
X621769Y1133058D1*
X619155Y1131726D1*
X616365Y1130819D1*
X613467Y1130361D1*
X610533D1*
X607635Y1130819D1*
X604845Y1131726D1*
X602231Y1133058D1*
X599857Y1134782D1*
X597782Y1136857D1*
X596058Y1139231D1*
X594726Y1141845D1*
X593819Y1144635D1*
X593361Y1147533D1*
Y1150467D1*
X593819Y1153365D1*
X594726Y1156155D1*
X596058Y1158769D1*
X597782Y1161143D1*
X599857Y1163218D1*
X602231Y1164942D1*
X604845Y1166274D1*
X607635Y1167181D1*
X610533Y1167639D1*
X613467D1*
X616365Y1167181D1*
X619155Y1166274D1*
X621769Y1164942D1*
X624143Y1163218D1*
X626218Y1161143D1*
X627942Y1158769D1*
X629274Y1156155D1*
X630181Y1153365D1*
X630639Y1150467D1*
Y1147533D1*
X1043639Y1234533D2*
X1043181Y1231635D1*
X1042274Y1228845D1*
X1040942Y1226231D1*
X1039218Y1223857D1*
X1037143Y1221782D1*
X1034769Y1220058D1*
X1032155Y1218726D1*
X1029365Y1217819D1*
X1026467Y1217361D1*
X1023533D1*
X1020635Y1217819D1*
X1017845Y1218726D1*
X1015231Y1220058D1*
X1012857Y1221782D1*
X1010782Y1223857D1*
X1009058Y1226231D1*
X1007726Y1228845D1*
X1006819Y1231635D1*
X1006361Y1234533D1*
Y1237467D1*
X1006819Y1240365D1*
X1007726Y1243155D1*
X1009058Y1245769D1*
X1010782Y1248143D1*
X1012857Y1250218D1*
X1015231Y1251942D1*
X1017845Y1253274D1*
X1020635Y1254181D1*
X1023533Y1254639D1*
X1026467D1*
X1029365Y1254181D1*
X1032155Y1253274D1*
X1034769Y1251942D1*
X1037143Y1250218D1*
X1039218Y1248143D1*
X1040942Y1245769D1*
X1042274Y1243155D1*
X1043181Y1240365D1*
X1043639Y1237467D1*
Y1234533D1*
X734639Y1339533D2*
X734181Y1336635D1*
X733274Y1333845D1*
X731942Y1331231D1*
X730218Y1328857D1*
X728143Y1326782D1*
X725769Y1325058D1*
X723155Y1323726D1*
X720365Y1322819D1*
X717467Y1322361D1*
X714533D1*
X711635Y1322819D1*
X708845Y1323726D1*
X706231Y1325058D1*
X703857Y1326782D1*
X701782Y1328857D1*
X700058Y1331231D1*
X698726Y1333845D1*
X697819Y1336635D1*
X697361Y1339533D1*
Y1342467D1*
X697819Y1345365D1*
X698726Y1348155D1*
X700058Y1350769D1*
X701782Y1353143D1*
X703857Y1355218D1*
X706231Y1356942D1*
X708845Y1358274D1*
X711635Y1359181D1*
X714533Y1359639D1*
X717467D1*
X720365Y1359181D1*
X723155Y1358274D1*
X725769Y1356942D1*
X728143Y1355218D1*
X730218Y1353143D1*
X731942Y1350769D1*
X733274Y1348155D1*
X734181Y1345365D1*
X734639Y1342467D1*
Y1339533D1*
X769639Y1138533D2*
X769181Y1135635D1*
X768274Y1132845D1*
X766942Y1130231D1*
X765218Y1127857D1*
X763143Y1125782D1*
X760769Y1124058D1*
X758155Y1122726D1*
X755365Y1121819D1*
X752467Y1121361D1*
X749533D1*
X746635Y1121819D1*
X743845Y1122726D1*
X741231Y1124058D1*
X738857Y1125782D1*
X736782Y1127857D1*
X735058Y1130231D1*
X733726Y1132845D1*
X732819Y1135635D1*
X732361Y1138533D1*
Y1141467D1*
X732819Y1144365D1*
X733726Y1147155D1*
X735058Y1149769D1*
X736782Y1152143D1*
X738857Y1154218D1*
X741231Y1155942D1*
X743845Y1157274D1*
X746635Y1158181D1*
X749533Y1158639D1*
X752467D1*
X755365Y1158181D1*
X758155Y1157274D1*
X760769Y1155942D1*
X763143Y1154218D1*
X765218Y1152143D1*
X766942Y1149769D1*
X768274Y1147155D1*
X769181Y1144365D1*
X769639Y1141467D1*
Y1138533D1*
X1164639Y668533D2*
X1164181Y665635D1*
X1163274Y662845D1*
X1161942Y660231D1*
X1160218Y657857D1*
X1158143Y655782D1*
X1155769Y654058D1*
X1153155Y652726D1*
X1150365Y651819D1*
X1147467Y651361D1*
X1144533D1*
X1141635Y651819D1*
X1138845Y652726D1*
X1136231Y654058D1*
X1133857Y655782D1*
X1131782Y657857D1*
X1130058Y660231D1*
X1128726Y662845D1*
X1127819Y665635D1*
X1127361Y668533D1*
Y671467D1*
X1127819Y674365D1*
X1128726Y677155D1*
X1130058Y679769D1*
X1131782Y682143D1*
X1133857Y684218D1*
X1136231Y685942D1*
X1138845Y687274D1*
X1141635Y688181D1*
X1144533Y688639D1*
X1147467D1*
X1150365Y688181D1*
X1153155Y687274D1*
X1155769Y685942D1*
X1158143Y684218D1*
X1160218Y682143D1*
X1161942Y679769D1*
X1163274Y677155D1*
X1164181Y674365D1*
X1164639Y671467D1*
Y668533D1*
X42008Y280682D2*
D19*
Y261995D1*
X23320D2*
X60696D1*
X1281000Y1560394D2*
Y1532021D1*
X1252627Y1560394D2*
X1281000D1*
Y1268000D2*
Y1239627D1*
X1252627Y1268000D2*
X1281000D1*
X1283007Y568150D2*
Y525997D1*
X1240854D2*
X1283007D1*
X770976Y415669D2*
Y394186D1*
X750478Y415669D2*
X791475D1*
X893024D2*
Y394186D1*
X872525Y415669D2*
X913522D1*
D16*
X42008Y261995D3*
D31*
X1265213Y92000D3*
X1216000D3*
X1166787D3*
X1281000Y1560394D3*
Y1609606D3*
Y1268000D3*
Y1317213D3*
D36*
X1283007Y225997D3*
Y325997D3*
Y425997D3*
Y525997D3*
Y625997D3*
D44*
X596024Y364331D3*
X473976D3*
X596024Y256063D3*
X473976D3*
X770976Y415669D3*
X893024D3*
X770976Y523937D3*
X893024D3*
X768976Y95669D3*
X891024D3*
X768976Y203937D3*
X891024D3*
D45*
X1071669Y371024D3*
Y248976D3*
X1179937Y371024D3*
Y248976D3*
M02*
