G04 DipTrace 3.1.0.0*
G04 Inner.gbr*
%MOIN*%
G04 #@! TF.FileFunction,Copper,L2,Inr*
G04 #@! TF.Part,Single*
G04 #@! TA.AperFunction,Conductor*
%ADD13C,0.005997*%
%ADD14C,0.01*%
G04 #@! TA.AperFunction,ViaPad*
%ADD16C,0.02*%
G04 #@! TA.AperFunction,ComponentPad*
%ADD24R,0.02X0.02*%
%ADD30R,0.03937X0.03937*%
%ADD33C,0.03937*%
%ADD35R,0.066929X0.066929*%
%ADD38C,0.066929*%
G04 #@! TA.AperFunction,ViaPad*
%ADD57C,0.025*%
%FSLAX26Y26*%
G04*
G70*
G90*
G75*
G01*
G04 Inner1*
%LPD*%
X119000Y959000D2*
D13*
X122000D1*
X133000Y970000D1*
Y1021000D1*
X201000Y1089000D1*
X1014000D1*
X1045000Y1058000D1*
X117000Y929000D2*
X99000Y947000D1*
Y1015000D1*
X168000Y1084000D1*
Y1109000D1*
X191000Y1132000D1*
X236000D1*
X264000Y1104000D1*
X1034000D1*
X1162000Y976000D1*
X335000Y857000D2*
X124000D1*
X93000Y826000D1*
Y795000D1*
X53000Y755000D1*
Y704000D1*
X19000Y670000D1*
Y493000D1*
X39000Y473000D1*
X83000D1*
X520000Y744000D2*
Y739000D1*
X455000D1*
X429000Y765000D1*
X106000D1*
X81000Y740000D1*
Y535000D1*
X66500Y520500D1*
X67000Y520000D1*
X39000D2*
X37000D1*
X69000Y552000D1*
Y752000D1*
X122000Y805000D1*
X423000D1*
X469000Y759000D1*
X495000D1*
X330000Y944000D2*
X339000D1*
X363000Y920000D1*
X421000D1*
X442000Y941000D1*
X874000D1*
X1102000Y713000D1*
Y287000D1*
X1123000Y266000D1*
X123685Y580472D2*
Y581470D1*
X141627D1*
X206155Y645997D1*
X745000D1*
X755000Y655997D1*
X154000Y567000D2*
X221003Y634003D1*
X701995D1*
X780000Y555997D1*
X612000Y1149000D2*
Y1237000D1*
X619000Y1244000D1*
X1017000D1*
X1025000Y1236000D1*
X688000Y1151000D2*
Y1147000D1*
X633000Y1202000D1*
Y1225000D1*
X72000Y1374000D2*
X595000D1*
Y1376000D1*
X54000Y863000D2*
X52000D1*
X19000Y896000D1*
Y1090000D1*
X117000Y1188000D1*
X518000D1*
X533000Y1173000D1*
Y1147000D1*
X347000Y900000D2*
X442000D1*
X468000Y926000D1*
X714000D1*
Y922000D1*
X25000Y1328000D2*
X38000Y1341000D1*
X716000D1*
X362000Y949000D2*
X369000Y956000D1*
X884000D1*
X1126000Y714000D1*
Y496000D1*
X291000Y937000D2*
X322000Y968000D1*
X895000D1*
X1147000Y716000D1*
Y671000D1*
X1146000Y670000D1*
X909000Y510000D2*
Y511000D1*
X893000Y495000D1*
X790000D1*
X774000Y479000D1*
Y447000D1*
X773000Y446000D1*
X892000Y445000D2*
X893000Y446000D1*
Y495000D1*
X265000Y938000D2*
Y945000D1*
X300000Y980000D1*
X901000D1*
X1167000Y714000D1*
Y502000D1*
X87000Y910000D2*
Y1064000D1*
X193000Y1170000D1*
X404000D1*
X455000Y1119000D1*
X1054000D1*
X1214000Y959000D1*
Y398000D1*
X167000Y914000D2*
X192000Y889000D1*
X330000D1*
X373000Y846000D1*
X572000D1*
X582000Y856000D1*
X815000D1*
X878000Y793000D1*
X167000Y941000D2*
X258000Y1032000D1*
X1002000D1*
X1182000Y852000D1*
Y837000D1*
X244000Y922000D2*
X238000D1*
Y938000D1*
X294000Y994000D1*
X698000D1*
X705000Y1001000D1*
X598000Y837000D2*
X638000D1*
X720000Y755000D1*
X954000D1*
X967000Y768000D1*
Y775000D1*
X969000D1*
X938000Y635000D2*
X835000Y738000D1*
X645000D1*
X580000Y803000D1*
X218000Y918000D2*
Y935000D1*
X298000Y1015000D1*
X643000D1*
Y1013000D1*
X667000D1*
X674000Y1020000D1*
X965000D1*
X1189000Y796000D1*
Y673000D1*
X522000Y868000D2*
X542000Y888000D1*
X904000D1*
X1088005Y703995D1*
Y267995D1*
X1109000Y247000D1*
X1205000D1*
X1243000Y285000D1*
Y285991D1*
X1283007Y325997D1*
X557000Y867000D2*
Y868000D1*
X906000D1*
X1074003Y699997D1*
Y250997D1*
X1099003Y225997D1*
X1283007D1*
X372000Y878000D2*
X451000D1*
X475000Y902000D1*
X878000D1*
Y907000D1*
X1235000Y309000D2*
D14*
Y695000D1*
X1255000Y715000D1*
Y1106000D1*
X1100000Y1261000D1*
X389000D1*
Y1254000D1*
X383000Y1260000D1*
Y1253000D1*
X88000Y874000D2*
D13*
X99000D1*
X145000Y920000D1*
Y1008000D1*
X181000Y1044000D1*
X736000D1*
X743000Y1051000D1*
X1051000Y489000D2*
X1003000Y537000D1*
X752000D1*
X667000Y622000D1*
X226000D1*
X197000Y593000D1*
Y568000D1*
D16*
X1161000Y925000D3*
X1059000Y893000D3*
X1202472Y1071953D3*
X1017000Y1160000D3*
X1117472Y1160953D3*
X130000Y825000D3*
X54000Y863000D3*
X67000Y520000D3*
X125000Y510000D3*
X123685Y580472D3*
X154000Y567000D3*
X520000Y744000D3*
X130000Y785000D3*
X83000Y473000D3*
X213000Y546000D3*
X1221995Y1348997D3*
D57*
X683005Y466995D3*
D16*
X969000Y775000D3*
X495000Y759000D3*
X39000Y520000D3*
D57*
X533005Y466995D3*
D16*
X335000Y857000D3*
X50000Y572000D3*
X248706Y1066995D3*
X278706D3*
X130000Y745000D3*
X197000Y568000D3*
D57*
X683005Y436995D3*
X533005D3*
X683005Y406995D3*
D16*
X130000Y705000D3*
Y665000D3*
X170000Y825000D3*
Y785000D3*
Y745000D3*
X205990Y1111995D3*
X223995D3*
X170000Y705000D3*
X1051000Y489000D3*
X348005Y1314003D3*
Y1269003D3*
X580000Y803000D3*
X359003Y1291995D3*
X990000Y1314003D3*
X938000Y635000D3*
D57*
X683005Y376995D3*
X923005Y466995D3*
D16*
X1041000Y589000D3*
D57*
X67000Y377000D3*
X924005Y436995D3*
X713005Y466995D3*
Y436995D3*
Y406995D3*
X36995Y376995D3*
D16*
X359000Y1142000D3*
D57*
X36995Y346995D3*
Y316995D3*
D16*
X743000Y1051000D3*
X847060Y666417D3*
X846995Y606995D3*
X170000Y665000D3*
X210000Y825000D3*
Y785000D3*
D57*
X713005Y376995D3*
D16*
X210000Y745000D3*
Y705000D3*
D57*
X713005Y346995D3*
Y316995D3*
D16*
X210000Y665000D3*
X1221995Y1318997D3*
X250000Y825000D3*
D57*
X593005Y466995D3*
Y436995D3*
D16*
X1004003Y1291995D3*
X980000D3*
X400000Y547000D3*
X452000Y806000D3*
X413000Y690000D3*
X25000Y838000D3*
X34000Y735000D3*
X1046000Y558000D3*
D57*
X593005Y406995D3*
D16*
X1221995Y1262003D3*
D57*
X593005Y376995D3*
D16*
X1190000Y531000D3*
X318706Y1066995D3*
X208706D3*
X1135000Y775000D3*
X919000Y822000D3*
X250000Y785000D3*
X42000Y666000D3*
X250000Y745000D3*
Y705000D3*
Y665000D3*
X290000Y825000D3*
D57*
X66995Y346995D3*
Y316995D3*
D16*
X290000Y785000D3*
Y745000D3*
Y705000D3*
Y665000D3*
X522000Y868000D3*
X557000Y867000D3*
X598000Y837000D3*
X1143000Y1269000D3*
X443000Y1231000D3*
D57*
X533005Y406995D3*
Y376995D3*
X96995D3*
Y346995D3*
Y316995D3*
X533005Y346995D3*
Y316995D3*
X563005Y466995D3*
Y436995D3*
Y406995D3*
Y376995D3*
Y346995D3*
Y316995D3*
X653000Y347000D3*
X923005Y376995D3*
D16*
X1221995Y1232003D3*
D57*
X126995Y376995D3*
Y346995D3*
Y316995D3*
Y406995D3*
X156995D3*
D16*
X938000Y1001000D3*
D57*
X623005Y466995D3*
Y436995D3*
Y406995D3*
Y376995D3*
X923005Y346995D3*
Y316995D3*
X653005Y466995D3*
X156995Y376995D3*
Y346995D3*
Y316995D3*
X653005Y436995D3*
Y406995D3*
Y376995D3*
X953005Y466995D3*
Y436995D3*
X186995Y466995D3*
Y436995D3*
Y406995D3*
X953005Y376995D3*
Y346995D3*
Y316995D3*
X743005Y466995D3*
X740005Y436995D3*
Y406995D3*
X743005Y376995D3*
Y346995D3*
Y316995D3*
X186995Y376995D3*
Y346995D3*
Y316995D3*
X924000Y407000D3*
X833000Y437000D3*
Y407000D3*
X773005Y376995D3*
X216995Y465997D3*
Y436995D3*
Y406995D3*
Y376995D3*
Y346995D3*
Y316995D3*
X773005Y346995D3*
X803005Y466995D3*
X833000Y377000D3*
X246995Y465997D3*
Y436995D3*
Y406995D3*
Y376995D3*
Y346995D3*
Y316995D3*
D16*
X1280000Y1523000D3*
X121000Y1068000D3*
D57*
X276995Y466995D3*
Y436995D3*
Y406995D3*
Y376995D3*
Y346995D3*
Y316995D3*
X353005Y466995D3*
Y436995D3*
Y406995D3*
Y376995D3*
Y346995D3*
Y316995D3*
X833005Y466995D3*
X862000Y437000D3*
X383005Y466995D3*
Y436995D3*
Y406995D3*
Y376995D3*
Y346995D3*
Y316995D3*
D16*
X61000Y996000D3*
Y1065000D3*
D57*
X863005Y466995D3*
X862000Y407000D3*
X413005Y466995D3*
Y436995D3*
Y406995D3*
Y376995D3*
Y346995D3*
Y316995D3*
D16*
X956000Y1051000D3*
D57*
X863000Y377000D3*
Y347000D3*
Y317000D3*
X443005Y466995D3*
Y436995D3*
Y406995D3*
Y376995D3*
Y346995D3*
Y316995D3*
X953000Y407000D3*
X802995Y347005D3*
D16*
X633000Y1225000D3*
D57*
X893005Y376995D3*
X473005Y466995D3*
Y436995D3*
Y406995D3*
Y376995D3*
Y346995D3*
X893005D3*
X653000Y317000D3*
D16*
X887000Y1224000D3*
D57*
X503005Y466995D3*
Y436995D3*
Y406995D3*
Y376995D3*
Y346995D3*
Y316995D3*
D16*
X748000Y999000D3*
D57*
X683000Y347000D3*
Y317000D3*
X593000Y347000D3*
X623000D3*
Y317000D3*
D16*
X25000Y1328000D3*
X1190000Y590000D3*
X488756Y1070000D3*
X489000Y671000D3*
X484000Y799000D3*
X451000Y547000D3*
X384000Y1219000D3*
X501680Y1232087D3*
X521365D3*
X541050D3*
X560735D3*
X580420D3*
X659160Y1219087D3*
X678845D3*
X698530D3*
X718215D3*
X915066Y1224087D3*
X954436D3*
X780000Y555997D3*
X755000Y655997D3*
X88000Y874000D3*
X87000Y910000D3*
X117000Y929000D3*
X119000Y959000D3*
X167000Y914000D3*
Y941000D3*
X362000Y949000D3*
X291000Y937000D3*
X170000Y1006000D3*
X347000Y900000D3*
X218000Y918000D3*
X244000Y922000D3*
X265000Y938000D3*
X372000Y878000D3*
X67000Y1548000D3*
X69000Y1623000D3*
X251000Y1259000D3*
X149360Y1411000D3*
X705000Y1001000D3*
X1182000Y837000D3*
X878000Y793000D3*
X1045000Y1058000D3*
X1162000Y976000D3*
X1214000Y398000D3*
X1126000Y496000D3*
X714000Y922000D3*
X667000Y1013000D3*
X1189000Y673000D3*
X533000Y1147000D3*
X330000Y944000D3*
X878000Y907000D3*
X1123000Y266000D3*
X383000Y1253000D3*
X1235000Y309000D3*
X688000Y1151000D3*
X595000Y1376000D3*
X72000Y1374000D3*
X612000Y1149000D3*
X1025000Y1236000D3*
X716000Y1341000D3*
X497000Y881000D3*
X751000Y1140000D3*
X737000Y774000D3*
X861000Y846000D3*
X57000Y1310000D3*
X1296194Y675512D3*
X166000Y968000D3*
D57*
X803000Y437000D3*
Y407000D3*
Y377000D3*
X802995Y317005D3*
X832995Y347005D3*
Y317005D3*
D16*
X1167000Y502000D3*
X1146000Y670000D3*
X909000Y510000D3*
X892000Y445000D3*
X773000Y446000D3*
D24*
X42008Y261995D3*
D30*
X1265213Y92000D3*
D33*
X1216000D3*
X1166787D3*
D30*
X1281000Y1560394D3*
D33*
Y1609606D3*
D30*
Y1268000D3*
D33*
Y1317213D3*
D35*
X1283007Y225997D3*
D38*
Y325997D3*
Y425997D3*
Y525997D3*
Y625997D3*
M02*
