G04 DipTrace 3.1.0.0*
G04 Inner.gbr*
%MOIN*%
G04 #@! TF.FileFunction,Copper,L2,Inr*
G04 #@! TF.Part,Single*
G04 #@! TA.AperFunction,Conductor*
%ADD14C,0.005997*%
G04 #@! TA.AperFunction,ComponentPad*
%ADD22R,0.02X0.02*%
G04 #@! TA.AperFunction,ViaPad*
%ADD23C,0.02*%
G04 #@! TA.AperFunction,ComponentPad*
%ADD29R,0.03937X0.03937*%
%ADD32C,0.03937*%
%ADD34R,0.066929X0.066929*%
%ADD37C,0.066929*%
G04 #@! TA.AperFunction,ViaPad*
%ADD56C,0.025*%
%FSLAX26Y26*%
G04*
G70*
G90*
G75*
G01*
G04 Inner1*
%LPD*%
X125000Y958000D2*
D14*
X284000Y1117000D1*
Y1264005D1*
X250000Y1298005D1*
X88000Y952000D2*
Y951000D1*
X255997Y1118997D1*
Y1240000D1*
X660000Y1086000D2*
X674000D1*
X777000Y1189000D1*
Y1306000D1*
X696000Y1387000D1*
X246000D1*
X175000Y1316000D1*
Y1286995D1*
X175997Y1285997D1*
X159003Y1330997D2*
X268005Y1440000D1*
X279000D1*
X701000Y1086000D2*
Y1091000D1*
X791000Y1181000D1*
Y1319000D1*
X704000Y1406000D1*
X234005D1*
X159003Y1330997D1*
X347000Y872000D2*
X138000D1*
X93000Y827000D1*
Y795000D1*
X53000Y755000D1*
Y704000D1*
X19000Y670000D1*
Y493000D1*
X39000Y473000D1*
X83000D1*
X520000Y744000D2*
Y739000D1*
X455000D1*
X429000Y765000D1*
X106000D1*
X81000Y740000D1*
Y535000D1*
X66500Y520500D1*
X67000Y520000D1*
X39000D2*
X37000D1*
X69000Y552000D1*
Y752000D1*
X122000Y805000D1*
X423000D1*
X469000Y759000D1*
X495000D1*
X123685Y580472D2*
Y581470D1*
X141627D1*
X206155Y645997D1*
X745000D1*
X755000Y655997D1*
X154000Y567000D2*
X221003Y634003D1*
X701995D1*
X780000Y555997D1*
X599000Y1149000D2*
Y1142000D1*
X317000D1*
X315000Y1140000D1*
X110000Y1385000D2*
Y1186000D1*
X150000Y1146000D1*
Y1093000D1*
X461000Y1473000D2*
X116000D1*
X47000Y1404000D1*
Y929000D1*
X756000Y1224000D2*
Y1228000D1*
X725000Y1259000D1*
X637000D1*
X550000Y1172000D1*
Y1161000D1*
X25000Y961000D2*
Y1404000D1*
X114000Y1493000D1*
X713000D1*
X739000Y1467000D1*
Y1469000D1*
X1155000Y489000D2*
Y532000D1*
X1159000Y536000D1*
X1155000Y540000D1*
Y893000D1*
X1025000Y1023000D1*
X338000D1*
X327000Y1012000D1*
Y1004000D1*
X1226000Y559000D2*
Y578000D1*
X1177000Y627000D1*
Y894000D1*
X1035000Y1036000D1*
X322000D1*
X308000Y1022000D1*
X1219000Y492000D2*
Y493000D1*
X1255000Y529000D1*
Y591000D1*
X1199000Y647000D1*
Y898000D1*
X1049000Y1048000D1*
X304000D1*
X289000Y1033000D1*
Y985000D1*
X91000Y914000D2*
X110000D1*
X168000Y972000D1*
X247000D1*
X256000Y963000D1*
X496000D1*
X534000Y1001000D1*
X1023000D1*
X1133000Y891000D1*
Y464008D1*
X1218005Y379003D1*
X158000Y928000D2*
Y934000D1*
X819000D1*
X896000Y857000D1*
X177000Y953000D2*
Y950000D1*
X524000D1*
X561000Y987000D1*
X1001000D1*
X1107000Y881000D1*
X663000Y1161000D2*
Y1153000D1*
X664000Y1152000D1*
Y1117000D1*
X648000Y1101000D1*
X330000D1*
X287000Y1058000D1*
X580000Y915000D2*
Y922000D1*
X778000D1*
X922000Y778000D1*
X991000D1*
X990000Y779000D1*
X938000Y635000D2*
X835000Y738000D1*
X688000D1*
X593000Y833000D1*
X639000Y1121000D2*
X630000D1*
X629000Y1120000D1*
X307000D1*
X253000Y1066000D1*
Y1059000D1*
X639000Y872000D2*
Y818000D1*
X707000Y750000D1*
X859000D1*
X964000Y645000D1*
X556000Y954000D2*
X558000D1*
X577000Y973000D1*
X993010D1*
X1088005Y878005D1*
Y215000D1*
X1148005Y155000D1*
X1282009D1*
X1283007Y155997D1*
X587000Y954000D2*
X589000D1*
X590000Y955000D1*
X990997D1*
X1074003Y871995D1*
Y170997D1*
X1189003Y55997D1*
X1283007D1*
X579000Y1068000D2*
Y1065000D1*
X867000D1*
X1234000Y1432000D1*
Y1581000D1*
X1262606Y1609606D1*
X1281000D1*
X1051000Y489000D2*
X811000D1*
X678000Y622000D1*
X226000D1*
X197000Y593000D1*
Y568000D1*
D23*
X896000Y857000D3*
X130000Y825000D3*
X550000Y1161000D3*
X47000Y929000D3*
X67000Y520000D3*
X125000Y510000D3*
X123685Y580472D3*
X154000Y567000D3*
X701000Y1086000D3*
X520000Y744000D3*
X130000Y785000D3*
X83000Y473000D3*
X91000Y914000D3*
X213000Y546000D3*
X1221995Y965997D3*
D56*
X683005Y466995D3*
D23*
X88000Y952000D3*
X990000Y779000D3*
X639000Y872000D3*
X125000Y958000D3*
X495000Y759000D3*
X39000Y520000D3*
D56*
X533005Y466995D3*
D23*
X158000Y928000D3*
X177000Y953000D3*
X253000Y1059000D3*
X287000Y1058000D3*
X289000Y985000D3*
X308000Y1022000D3*
X327000Y1004000D3*
X756000Y1224000D3*
X579000Y1068000D3*
X347000Y872000D3*
X964000Y645000D3*
X50000Y572000D3*
X239711Y1555000D3*
X269711D3*
X130000Y745000D3*
X663000Y1161000D3*
X260000Y1346995D3*
X639000Y1121000D3*
X1107000Y881000D3*
X197000Y568000D3*
D56*
X683005Y436995D3*
X533005D3*
X683005Y406995D3*
D23*
X130000Y705000D3*
Y665000D3*
X146995Y1420997D3*
X170000Y825000D3*
X69003Y1244003D3*
X170000Y785000D3*
Y745000D3*
X196995Y1600000D3*
X215000D3*
X170000Y705000D3*
X175997Y1285997D3*
X1051000Y489000D3*
X348005Y1314003D3*
Y1269003D3*
X1162000Y1478000D3*
X593000Y833000D3*
X110000Y1385000D3*
X359003Y1291995D3*
X990000Y1314003D3*
X938000Y635000D3*
D56*
X683005Y376995D3*
X923005Y466995D3*
D23*
X1041000Y589000D3*
X201995Y1298005D3*
D56*
X67000Y377000D3*
X923005Y436995D3*
D23*
X250000Y1298005D3*
X255997Y1240000D3*
X279000Y1440000D3*
X159003Y1330997D3*
D56*
X713005Y466995D3*
Y436995D3*
Y406995D3*
X36995Y376995D3*
D23*
X366640Y1630000D3*
D56*
X36995Y346995D3*
Y316995D3*
D23*
X1288000Y533000D3*
X461000Y1473000D3*
X847060Y666417D3*
X846995Y606995D3*
X599000Y1149000D3*
X170000Y665000D3*
X210000Y825000D3*
Y785000D3*
D56*
X713005Y376995D3*
D23*
X210000Y745000D3*
Y705000D3*
D56*
X713005Y346995D3*
Y316995D3*
D23*
X210000Y665000D3*
X1221995Y935997D3*
X250000Y825000D3*
D56*
X593005Y466995D3*
Y436995D3*
D23*
X1004003Y1291995D3*
X980000D3*
X315000Y1140000D3*
X150000Y1093000D3*
X400000Y547000D3*
X1021000Y1379000D3*
X444000Y814000D3*
X422000Y694000D3*
X226000Y1024000D3*
X185000Y991000D3*
X25000Y838000D3*
X34000Y735000D3*
X1046000Y558000D3*
D56*
X593005Y406995D3*
D23*
X1221995Y879003D3*
D56*
X593005Y376995D3*
D23*
X1194000Y512000D3*
X309711Y1555000D3*
X199711D3*
X1055000Y820000D3*
X919000Y822000D3*
X737000Y859000D3*
X838000Y776000D3*
X250000Y785000D3*
X42000Y666000D3*
X250000Y745000D3*
Y705000D3*
Y665000D3*
X290000Y825000D3*
D56*
X66995Y346995D3*
Y316995D3*
D23*
X290000Y785000D3*
Y745000D3*
Y705000D3*
Y665000D3*
X556000Y954000D3*
X587000D3*
X580000Y915000D3*
X903000Y904000D3*
X443000Y1231000D3*
D56*
X533005Y406995D3*
Y376995D3*
X96995D3*
Y346995D3*
Y316995D3*
X533005Y346995D3*
Y316995D3*
X563005Y466995D3*
Y436995D3*
Y406995D3*
Y376995D3*
Y346995D3*
Y316995D3*
X653000Y347000D3*
X923005Y376995D3*
D23*
X1221995Y849003D3*
D56*
X126995Y376995D3*
Y346995D3*
Y316995D3*
Y406995D3*
X156995D3*
D23*
X496000Y996000D3*
D56*
X623005Y466995D3*
Y436995D3*
Y406995D3*
Y376995D3*
X923005Y346995D3*
Y316995D3*
X653005Y466995D3*
X156995Y376995D3*
Y346995D3*
Y316995D3*
X653005Y436995D3*
Y406995D3*
Y376995D3*
X953005Y466995D3*
Y436995D3*
X186995Y466995D3*
Y436995D3*
Y406995D3*
D23*
X70000Y1013000D3*
D56*
X953005Y376995D3*
Y346995D3*
Y316995D3*
X743005Y466995D3*
Y436995D3*
Y406995D3*
Y376995D3*
Y346995D3*
Y316995D3*
X186995Y376995D3*
Y346995D3*
Y316995D3*
X773005Y466995D3*
Y436995D3*
Y406995D3*
Y376995D3*
X216995Y465997D3*
Y436995D3*
Y406995D3*
Y376995D3*
Y346995D3*
Y316995D3*
X773005Y346995D3*
Y316995D3*
X803005Y466995D3*
Y439003D3*
X246995Y465997D3*
Y436995D3*
Y406995D3*
Y376995D3*
Y346995D3*
Y316995D3*
D23*
X232000Y1147000D3*
X1280000Y1523000D3*
X50000Y1595000D3*
X110000D3*
D56*
X276995Y466995D3*
Y436995D3*
Y406995D3*
Y376995D3*
Y346995D3*
Y316995D3*
X353005Y466995D3*
Y436995D3*
Y406995D3*
Y376995D3*
Y346995D3*
Y316995D3*
X833005Y466995D3*
Y440000D3*
D23*
X50000Y1555000D3*
Y1515000D3*
D56*
X383005Y466995D3*
Y436995D3*
Y406995D3*
Y376995D3*
Y346995D3*
Y316995D3*
D23*
X110000Y1515000D3*
Y1555000D3*
D56*
X863005Y466995D3*
Y436995D3*
X413005Y466995D3*
Y436995D3*
Y406995D3*
Y376995D3*
Y346995D3*
Y316995D3*
D23*
X954000Y1075000D3*
D56*
X866995Y376995D3*
Y346995D3*
Y316995D3*
X443005Y466995D3*
Y436995D3*
Y406995D3*
Y376995D3*
Y346995D3*
Y316995D3*
X893005Y466995D3*
Y436995D3*
D23*
X551000Y1473000D3*
D56*
X893005Y376995D3*
X473005Y466995D3*
Y436995D3*
Y406995D3*
Y376995D3*
Y346995D3*
Y316995D3*
X893005Y346995D3*
Y316995D3*
X653000Y317000D3*
D23*
X887000Y1232000D3*
D56*
X503005Y466995D3*
Y436995D3*
Y406995D3*
Y376995D3*
Y346995D3*
Y316995D3*
D23*
X343000Y982000D3*
D56*
X683000Y347000D3*
D23*
X1226000Y559000D3*
D56*
X683000Y317000D3*
X593000Y347000D3*
Y317000D3*
X623000Y347000D3*
D23*
X1218005Y379003D3*
D56*
X623000Y317000D3*
D23*
X25000Y961000D3*
X1219000Y492000D3*
X739000Y1469000D3*
X1155000Y489000D3*
X1175000Y589003D3*
X1086000Y1161000D3*
X1013000Y1114000D3*
X1083000Y1314000D3*
X660000Y1086000D3*
X816000Y1471000D3*
X857000Y1470000D3*
X504000Y1067000D3*
X492000Y692000D3*
X484000Y799000D3*
X451000Y547000D3*
X367000Y1214000D3*
X501680Y1232087D3*
X521365D3*
X541050D3*
X560735D3*
X580420D3*
X659160D3*
X678845D3*
X698530D3*
X718215D3*
X915066D3*
X954436D3*
X780000Y555997D3*
X755000Y655997D3*
D22*
X42008Y261995D3*
D29*
X98425Y1013780D3*
D32*
Y1062992D3*
Y1112205D3*
D29*
X1281000Y1560394D3*
D32*
Y1609606D3*
D29*
Y885000D3*
D32*
Y934213D3*
D34*
X1283007Y55997D3*
D37*
Y155997D3*
Y255997D3*
Y355997D3*
Y455997D3*
M02*
