G04 DipTrace 3.1.0.0*
G04 Inner.gbr*
%MOIN*%
G04 #@! TF.FileFunction,Copper,L2,Inr*
G04 #@! TF.Part,Single*
%ADD23C,0.02*%
%ADD33C,0.03937*%
%ADD53C,0.064*%
%ADD59C,0.066929*%
G04 #@! TA.AperFunction,Conductor*
%ADD14C,0.006*%
G04 #@! TA.AperFunction,ViaPad*
%ADD66C,0.025*%
%FSLAX26Y26*%
G04*
G70*
G90*
G75*
G01*
G04 Inner1_Plane*
%LPD*%
X625701Y1435701D2*
D14*
Y1553193D1*
X680701Y1608193D1*
Y1654701D1*
X643701Y1691701D1*
X606701Y1465701D2*
Y1590701D1*
X649701Y1633701D1*
X436701Y1155701D2*
X437701D1*
X455701Y1173701D1*
Y1233701D1*
X577591Y1355591D1*
Y1625914D1*
X569701Y1633803D1*
Y1679701D1*
X436701Y1181701D2*
X440701D1*
Y1276705D1*
X446701Y1282705D1*
Y1569020D1*
X481701Y1604020D1*
Y1712701D1*
X493701Y1724701D1*
X552701D1*
X644701Y1816701D1*
Y1842701D1*
X650701Y1381701D2*
X620701D1*
X467701Y1228701D1*
Y1029701D1*
X447701Y1009701D1*
Y845701D1*
X453701Y839701D1*
X498701D1*
Y830701D1*
X719701Y1350701D2*
Y1343701D1*
X661701Y1285701D1*
X546701D1*
X479701Y1218701D1*
Y1024701D1*
X459701Y1004701D1*
Y860701D1*
X466701D1*
X746701Y1360701D2*
Y1350701D1*
X669701Y1273701D1*
X551701D1*
X491701Y1213701D1*
Y1019701D1*
X471701Y999701D1*
Y926701D1*
X478701Y919701D1*
Y904201D1*
X1030701Y1075701D2*
X1031701D1*
X1114701Y1158701D1*
Y1242701D1*
X1115701Y1243701D1*
X1051701Y1059701D2*
X1055701D1*
X1184701Y1188701D1*
X1205701D1*
Y1192701D1*
X512701Y967701D2*
Y947701D1*
X537701Y922701D1*
X576701D1*
X612701Y958701D1*
Y1015701D1*
X636701Y1039701D1*
X1138701D1*
X1148701Y1049701D1*
X518701Y913701D2*
Y910701D1*
X581701D1*
X624701Y953701D1*
Y1010701D1*
X641701Y1027701D1*
X1095701D1*
X1173701Y949701D1*
X465701Y1813701D2*
Y1810701D1*
X523701Y1868701D1*
X760701D1*
X866701Y1762701D1*
Y1614701D1*
X865701Y1615701D1*
X462701Y1269701D2*
Y1552024D1*
X493701Y1583024D1*
Y1686705D1*
X505701Y1698705D1*
X565095D1*
X578303Y1711914D1*
X776914D1*
X818701Y1753701D1*
X796701Y1204701D2*
X838701Y1246701D1*
Y1315701D1*
X920701Y1397701D1*
X1213701D1*
X1406701Y1204701D1*
Y723701D1*
X1319701Y636701D1*
X796701Y1234701D2*
X798701D1*
X821701Y1257701D1*
Y1315701D1*
X915701Y1409701D1*
X1300701D1*
X1423701Y1286701D1*
Y808701D1*
X1426701Y805701D1*
X593701Y970201D2*
Y1016701D1*
X623701Y1046701D1*
Y1227701D1*
X633701Y1237701D1*
X692701D1*
X900701Y1445701D1*
X1332701D1*
X1502701Y1275701D1*
Y675701D1*
X1500701Y673701D1*
X567701Y970701D2*
Y1027701D1*
X583701Y1043701D1*
Y1225701D1*
X607701Y1249701D1*
X687701D1*
X895701Y1457701D1*
X1339701D1*
X1610701Y1186701D1*
Y771701D1*
X1611701Y772701D1*
X1551701Y1293701D2*
X1539701D1*
X1351701Y1481701D1*
X822701D1*
X663701Y1322701D1*
X668701D1*
X1052469Y1660103D2*
X978103D1*
X625701Y1307701D1*
X575701D1*
X1045701Y1131701D2*
Y1357547D1*
X1048441D1*
X1013701Y1357701D2*
X1022701Y1348701D1*
Y1115701D1*
X1357701Y1169701D2*
Y1030701D1*
X766701Y1266701D2*
Y1294701D1*
X905701Y1433701D1*
X1319701D1*
X1481701Y1271701D1*
Y608701D1*
X1541701Y548701D1*
X1676701D1*
X1677701Y549701D1*
X792701Y1267701D2*
Y1303701D1*
X910701Y1421701D1*
X1311701D1*
X1467701Y1265701D1*
Y564701D1*
X1582701Y449701D1*
X1677701D1*
X483701Y1288701D2*
X558591Y1363591D1*
Y1486906D1*
X545701Y941701D2*
X547701Y943701D1*
Y1031701D1*
X543701Y1035701D1*
Y1226701D1*
X578701Y1261701D1*
X682701D1*
X890701Y1469701D1*
X1346701D1*
X1633701Y1182701D1*
Y694701D1*
X1677701Y650701D1*
Y649701D1*
D23*
X523701Y1218701D3*
X436701Y1181701D3*
Y1155701D3*
X466701Y860701D3*
X514701Y876701D3*
X512701Y967701D3*
X518701Y913701D3*
X567701Y970701D3*
X593701Y970201D3*
X523701Y1178701D3*
X498701Y830701D3*
X478701Y904201D3*
X625701Y884201D3*
X1615701Y1359701D3*
X784701Y1088701D3*
X1051701Y1059701D3*
X1030701Y1075701D3*
X885701Y1060701D3*
X1357701Y1169701D3*
Y1030701D3*
D66*
X926701Y860701D3*
D23*
X741701Y992701D3*
X884701Y1246701D3*
X483701Y1288701D3*
X462701Y1269701D3*
X746701Y1360701D3*
X719701Y1350701D3*
X650701Y1381701D3*
X668701Y1322701D3*
X575701Y1307701D3*
X606701Y1465701D3*
X625701Y1435701D3*
X883701Y1209701D3*
X633415Y1953701D3*
X663415D3*
X523701Y1138701D3*
X1495701Y1800701D3*
X653701Y1740701D3*
X418701Y1204701D3*
X423701Y1014701D3*
X1115701Y1243701D3*
D66*
X926701Y830701D3*
D23*
X523701Y1098701D3*
Y1058701D3*
X540701Y1814701D3*
X563701Y1218701D3*
X462701Y1637701D3*
X563701Y1178701D3*
Y1138701D3*
X590701Y1998701D3*
X608701D3*
X563701Y1098701D3*
X569701Y1679701D3*
X1553701Y1968701D3*
X736701Y1502701D3*
X886701Y1500701D3*
X1469701Y1455701D3*
X865701Y1615701D3*
X465701Y1813701D3*
X836614Y1731995D3*
X1289370D3*
X1445701Y982701D3*
X595701Y1691701D3*
D66*
X421201Y816701D3*
D23*
X643701Y1691701D3*
X649701Y1633701D3*
X644701Y1842701D3*
X552701Y1724701D3*
D66*
X430701Y770701D3*
D23*
X760341Y2028701D3*
D66*
X430701Y740701D3*
Y710701D3*
D23*
X487701Y1347701D3*
X539588Y1408292D3*
X1240761Y1060118D3*
X1240701Y1000701D3*
X427701Y1320701D3*
X563701Y1058701D3*
X603701Y1218701D3*
Y1178701D3*
Y1138701D3*
Y1098701D3*
Y1058701D3*
X1615701Y1329701D3*
X643701Y1218701D3*
X1287701Y1371701D3*
X748320Y1692914D3*
X895670Y1731995D3*
X915355D3*
X935040D3*
X954725D3*
X974410D3*
X1053150D3*
X1072835D3*
X1092520D3*
X1112205D3*
X1309055Y1653832D3*
X1348701Y1730701D3*
X1615701Y1272701D3*
X703415Y1953701D3*
X593415D3*
X1448701Y1213701D3*
X1301124Y1215843D3*
X1143701Y1192701D3*
X1272121Y1269292D3*
X643701Y1178701D3*
X444701Y1034701D3*
X643701Y1138701D3*
Y1098701D3*
Y1058701D3*
X683701Y1218701D3*
D66*
X460701Y740701D3*
Y710701D3*
D23*
X683701Y1178701D3*
Y1138701D3*
Y1098701D3*
Y1058701D3*
X766701Y1266701D3*
X792701Y1267701D3*
X796701Y1234701D3*
Y1204701D3*
X545701Y941701D3*
D66*
X926701Y800701D3*
Y770701D3*
X490701D3*
Y740701D3*
Y710701D3*
X926701Y740701D3*
Y710701D3*
X956701Y860701D3*
Y830701D3*
Y800701D3*
Y770701D3*
Y740701D3*
Y710701D3*
D23*
X1678701Y955701D3*
X1615701Y1242701D3*
D66*
X520701Y770701D3*
Y740701D3*
Y710701D3*
Y800701D3*
X550701D3*
D23*
X1551701Y1293701D3*
D66*
X550701Y770701D3*
Y740701D3*
Y710701D3*
X580701Y860701D3*
Y830701D3*
Y800701D3*
Y770701D3*
Y740701D3*
Y710701D3*
X610701Y859701D3*
Y830701D3*
Y800701D3*
Y770701D3*
Y740701D3*
Y710701D3*
X640701Y859701D3*
Y830701D3*
Y800701D3*
Y770701D3*
Y740701D3*
Y710701D3*
X670701Y860701D3*
Y830701D3*
Y800701D3*
Y770701D3*
Y740701D3*
Y710701D3*
X746701Y860701D3*
Y830701D3*
Y800701D3*
Y770701D3*
Y740701D3*
Y710701D3*
X776701Y860701D3*
Y830701D3*
Y800701D3*
Y770701D3*
Y740701D3*
Y710701D3*
X806701Y860701D3*
Y830701D3*
Y800701D3*
Y770701D3*
Y740701D3*
Y710701D3*
X836701Y860701D3*
Y830701D3*
Y800701D3*
Y770701D3*
Y740701D3*
Y710701D3*
X866701Y860701D3*
Y830701D3*
Y800701D3*
Y770701D3*
Y740701D3*
Y710701D3*
X896701Y860701D3*
Y830701D3*
Y800701D3*
Y770701D3*
Y740701D3*
Y710701D3*
D23*
X1426701Y805701D3*
X1611701Y772701D3*
X1500701Y673701D3*
X1319701Y636701D3*
X1568701Y982701D3*
X1499292Y1968814D3*
X1439701Y1725701D3*
X1512701Y1724701D3*
X1485701Y1557701D3*
X1425701Y1684701D3*
X1173701Y949701D3*
X1205701Y1192701D3*
X1148701Y1049701D3*
X818701Y1753701D3*
X1052469Y1660103D3*
X1048441Y1357547D3*
X1045701Y1131701D3*
X1022701Y1115701D3*
X1013701Y1357701D3*
X558591Y1486906D3*
X1353701Y1307701D3*
X1086701Y1369701D3*
X908701Y1523701D3*
D66*
X1076701Y860701D3*
Y830701D3*
Y800701D3*
Y770701D3*
X1106701Y860701D3*
Y830701D3*
Y800701D3*
Y770701D3*
Y740701D3*
Y710701D3*
X986701Y860701D3*
Y830701D3*
Y800701D3*
Y770701D3*
X1016701Y860701D3*
Y830701D3*
Y800701D3*
Y770701D3*
X1046701Y860701D3*
Y830701D3*
Y800701D3*
Y770701D3*
X1316701Y860701D3*
Y830701D3*
Y770701D3*
Y740701D3*
Y710701D3*
X1346701Y860701D3*
Y830701D3*
Y770701D3*
Y740701D3*
Y710701D3*
X1136701Y860701D3*
Y830701D3*
Y800701D3*
Y770701D3*
Y740701D3*
Y710701D3*
X1166701Y860701D3*
Y830701D3*
Y800701D3*
Y770701D3*
Y740701D3*
Y710701D3*
X1196701Y860701D3*
Y832701D3*
X1226701Y860701D3*
Y833701D3*
X1256701Y860701D3*
Y830701D3*
X1260701Y770701D3*
Y740701D3*
Y710701D3*
X1286701Y860701D3*
Y830701D3*
Y770701D3*
Y740701D3*
Y710701D3*
D23*
X435709Y655701D3*
D33*
X492126Y1407481D3*
Y1456693D3*
Y1505906D3*
X688977Y1412402D3*
Y1461614D3*
D53*
X459448Y796743D3*
D59*
X1677701Y449701D3*
Y549701D3*
Y649701D3*
Y749701D3*
Y849701D3*
M02*
