M48
INCH
T01C0.01
T02C0.015
T03C0.0236
T04C0.027
T05C0.0433
%
T01
X+000420Y+002620
T03
X+000984Y+010138
X+000984Y+010630
X+000984Y+011122
X+012810Y+015604
X+012810Y+016096
X+012810Y+008850
X+012810Y+009342
T05
X+012830Y+000560
X+012830Y+001560
X+012830Y+002560
X+012830Y+003560
X+012830Y+004560
T04
X+000658Y+004220
T01
X+001300Y+008250
X+005500Y+011610
X+000470Y+009290
X+000670Y+005200
X+001250Y+005100
X+001237Y+005805
X+001540Y+005670
X+007010Y+010860
X+005200Y+007440
X+001300Y+007850
X+000830Y+004730
X+000910Y+009140
X+002130Y+005460
X+012220Y+009660
T02
X+006830Y+004670
T01
X+000880Y+009520
X+009900Y+007790
X+006390Y+008720
X+001250Y+009580
X+004950Y+007590
X+000390Y+005200
T02
X+005330Y+004670
T01
X+001580Y+009280
X+001770Y+009530
X+002530Y+010590
X+002870Y+010580
X+002890Y+009850
X+003080Y+010220
X+003270Y+010040
X+007560Y+012240
X+005790Y+010680
X+003470Y+008720
X+009640Y+006450
X+000500Y+005720
X+002397Y+015550
X+002697Y+015550
X+001300Y+007450
X+006630Y+011610
X+002600Y+013470
X+006390Y+011210
X+011070Y+008810
X+001970Y+005680
T02
X+006830Y+004370
X+005330Y+004370
X+006830Y+004070
T01
X+001300Y+007050
X+001300Y+006650
X+001470Y+014210
X+001700Y+008250
X+000690Y+012440
X+001700Y+007850
X+001700Y+007450
X+001970Y+016000
X+002150Y+016000
X+001700Y+007050
X+001760Y+012860
X+010510Y+004890
X+003480Y+013140
X+003480Y+012690
X+011620Y+014780
X+005930Y+008330
X+001100Y+013850
X+003590Y+012920
X+009900Y+013140
X+009380Y+006350
T02
X+006830Y+003770
X+009230Y+004670
T01
X+010410Y+005890
X+002020Y+012980
T02
X+000670Y+003770
X+009230Y+004370
T01
X+002500Y+012980
X+002560Y+012400
X+002790Y+014400
X+001590Y+013310
T02
X+007130Y+004670
X+007130Y+004370
X+007130Y+004070
X+000370Y+003770
T01
X+003666Y+016300
T02
X+000370Y+003470
X+000370Y+003170
T01
X+012880Y+005330
X+004610Y+014730
X+008471Y+006664
X+008470Y+006070
X+005990Y+011490
X+001700Y+006650
X+002100Y+008250
X+002100Y+007850
T02
X+007130Y+003770
T01
X+002100Y+007450
X+002100Y+007050
T02
X+007130Y+003470
X+007130Y+003170
T01
X+002100Y+006650
X+012220Y+009360
X+002500Y+008250
T02
X+005930Y+004670
X+005930Y+004370
T01
X+010040Y+012920
X+009800Y+012920
X+003150Y+011400
X+001500Y+010930
X+004000Y+005470
X+010210Y+013790
X+004440Y+008140
X+004220Y+006940
X+002260Y+010240
X+001850Y+009910
X+000250Y+008380
X+000340Y+007350
X+010460Y+005580
T02
X+005930Y+004070
T01
X+012220Y+008790
T02
X+005930Y+003770
T01
X+011940Y+005120
X+003097Y+015550
X+001997Y+015550
X+010550Y+008200
X+009190Y+008220
X+007370Y+008590
X+008380Y+007760
X+002500Y+007850
X+000420Y+006660
X+002500Y+007450
X+002500Y+007050
X+002500Y+006650
X+002900Y+008250
T02
X+000670Y+003470
X+000670Y+003170
T01
X+002900Y+007850
X+002900Y+007450
X+002900Y+007050
X+002900Y+006650
X+005560Y+009540
X+005870Y+009540
X+005800Y+009150
X+009030Y+009040
X+004430Y+012310
T02
X+005330Y+004070
X+005330Y+003770
X+000970Y+003770
X+000970Y+003470
X+000970Y+003170
X+005330Y+003470
X+005330Y+003170
X+005630Y+004670
X+005630Y+004370
X+005630Y+004070
X+005630Y+003770
X+005630Y+003470
X+005630Y+003170
X+006530Y+003470
X+009230Y+003770
T01
X+012220Y+008490
T02
X+001270Y+003770
X+001270Y+003470
X+001270Y+003170
X+001270Y+004070
X+001570Y+004070
T01
X+004960Y+009960
T02
X+006230Y+004670
X+006230Y+004370
X+006230Y+004070
X+006230Y+003770
X+009230Y+003470
X+009230Y+003170
X+006530Y+004670
X+001570Y+003770
X+001570Y+003470
X+001570Y+003170
X+006530Y+004370
X+006530Y+004070
X+006530Y+003770
X+009530Y+004670
X+009530Y+004370
X+001870Y+004670
X+001870Y+004370
X+001870Y+004070
T01
X+000700Y+010130
T02
X+009530Y+003770
X+009530Y+003470
X+009530Y+003170
X+007430Y+004670
X+007430Y+004370
X+007430Y+004070
X+007430Y+003770
X+007430Y+003470
X+007430Y+003170
X+001870Y+003770
X+001870Y+003470
X+001870Y+003170
X+007730Y+004670
X+007730Y+004370
X+007730Y+004070
X+007730Y+003770
X+002170Y+004660
X+002170Y+004370
X+002170Y+004070
X+002170Y+003770
X+002170Y+003470
X+002170Y+003170
X+007730Y+003470
X+007730Y+003170
X+008030Y+004670
X+008030Y+004390
X+002470Y+004660
X+002470Y+004370
X+002470Y+004070
X+002470Y+003770
X+002470Y+003470
X+002470Y+003170
T01
X+002320Y+011470
X+012800Y+015230
X+000500Y+015950
X+001100Y+015950
T02
X+002770Y+004670
X+002770Y+004370
X+002770Y+004070
X+002770Y+003770
X+002770Y+003470
X+002770Y+003170
X+003530Y+004670
X+003530Y+004370
X+003530Y+004070
X+003530Y+003770
X+003530Y+003470
X+003530Y+003170
X+008330Y+004670
X+008330Y+004400
T01
X+000500Y+015550
X+000500Y+015150
T02
X+003830Y+004670
X+003830Y+004370
X+003830Y+004070
X+003830Y+003770
X+003830Y+003470
X+003830Y+003170
T01
X+001100Y+015150
X+001100Y+015550
T02
X+008630Y+004670
X+008630Y+004370
X+004130Y+004670
X+004130Y+004370
X+004130Y+004070
X+004130Y+003770
X+004130Y+003470
X+004130Y+003170
T01
X+009540Y+010750
T02
X+008670Y+003770
X+008670Y+003470
X+008670Y+003170
X+004430Y+004670
X+004430Y+004370
X+004430Y+004070
X+004430Y+003770
X+004430Y+003470
X+004430Y+003170
X+008930Y+004670
X+008930Y+004370
T01
X+005510Y+014730
T02
X+008930Y+003770
X+004730Y+004670
X+004730Y+004370
X+004730Y+004070
X+004730Y+003770
X+004730Y+003470
X+004730Y+003170
X+008930Y+003470
X+008930Y+003170
X+006530Y+003170
T01
X+008870Y+012320
T02
X+005030Y+004670
X+005030Y+004370
X+005030Y+004070
X+005030Y+003770
X+005030Y+003470
X+005030Y+003170
T01
X+003430Y+009820
T02
X+006830Y+003470
T01
X+012260Y+005590
T02
X+006830Y+003170
X+005930Y+003470
X+005930Y+003170
X+006230Y+003470
T01
X+012180Y+003790
T02
X+006230Y+003170
T01
X+000250Y+009610
X+012190Y+004920
X+007390Y+014690
X+011550Y+004890
X+011750Y+005890
X+010860Y+011610
X+010130Y+011140
X+010830Y+013140
X+006600Y+010860
X+008160Y+014710
X+008570Y+014700
X+005040Y+010670
X+004920Y+006920
X+004840Y+007990
X+004510Y+005470
X+003670Y+012140
X+005017Y+012321
X+005214Y+012321
X+005410Y+012321
X+005607Y+012321
X+005804Y+012321
X+006592Y+012321
X+006788Y+012321
X+006985Y+012321
X+007182Y+012321
X+009151Y+012321
X+009544Y+012321
X+007800Y+005560
X+007550Y+006560
X+008960Y+008570
T00
M30
