M48
INCH
T01C0.01
T02C0.015
T03C0.0236
T04C0.0394
T05C0.0433
%
T01
X+004357Y+006557
X+004987Y+008307
X+004667Y+008607
X+004787Y+009042
X+005187Y+009137
X+005147Y+008767
X+005457Y+009417
X+005677Y+009707
X+005937Y+009702
X+005127Y+009677
X+005237Y+010587
X+005637Y+010587
X+005637Y+010987
X+005237Y+010987
X+005237Y+011387
X+005237Y+011787
X+005637Y+011787
X+005637Y+011387
X+006037Y+011387
X+006037Y+011787
X+006037Y+012187
X+005637Y+012187
X+005237Y+012187
X+004627Y+012697
X+004837Y+012887
X+004877Y+013477
X+004277Y+013207
X+004187Y+012047
X+004367Y+011817
X+004367Y+011557
X+004447Y+010347
X+004237Y+010147
X+006037Y+010587
X+006037Y+010987
X+006437Y+010987
X+006437Y+011387
X+006437Y+011787
X+006437Y+012187
X+006837Y+012187
X+006837Y+011787
X+006837Y+011387
X+006837Y+010987
X+006837Y+010587
X+006437Y+010587
X+007417Y+009927
X+007847Y+010887
X+008857Y+010607
X+010307Y+010757
X+010517Y+010597
X+010227Y+011157
X+010457Y+011317
X+011437Y+011927
X+011157Y+012437
X+012057Y+011927
X+013011Y+012158
X+012721Y+012693
X+013537Y+013077
X+012877Y+013717
X+014697Y+014557
X+014857Y+015577
X+014257Y+016847
X+014397Y+017257
X+015127Y+017247
X+014957Y+018007
X+013487Y+017307
X+012894Y+017320
X+013091Y+016538
X+011122Y+017320
X+010925Y+017320
X+010728Y+017320
X+010531Y+017320
X+010525Y+016601
X+009744Y+017320
X+009547Y+017320
X+009350Y+017320
X+009154Y+017320
X+008957Y+017320
X+008366Y+017320
X+008187Y+017537
X+007483Y+016929
X+006437Y+016917
X+005957Y+016917
X+005697Y+016797
X+005527Y+017247
X+005407Y+018147
X+004657Y+018137
X+004627Y+016377
X+005586Y+014869
X+006067Y+014657
X+006257Y+014357
X+006507Y+013817
X+006687Y+013227
X+007197Y+013507
X+007467Y+013607
X+007667Y+012667
X+007927Y+012677
X+007967Y+012347
X+007967Y+012047
X+008837Y+012097
X+008847Y+012467
X+010137Y+013577
X+010484Y+013575
X+010867Y+013697
X+009087Y+015237
X+008867Y+015007
X+008657Y+016157
X+007367Y+015027
X+006497Y+016337
X+006537Y+017407
X+006447Y+018427
X+006334Y+019537
X+006634Y+019537
X+007034Y+019537
X+007603Y+020287
X+006087Y+019987
X+005907Y+019987
X+005934Y+019537
X+005396Y+014083
X+005757Y+013077
X+006257Y+008842
X+011487Y+010497
X+012408Y+010601
X+012407Y+010007
X+011737Y+009497
X+013577Y+010307
X+014457Y+009827
X+015687Y+009827
X+016787Y+009557
X+016117Y+007727
X+015007Y+006737
X+014267Y+008057
X+013197Y+006367
X+013577Y+011697
X+014487Y+012137
X+015517Y+012937
X+016157Y+012727
X+016157Y+012427
X+016157Y+013297
X+016157Y+013597
X+015537Y+019687
X+014993Y+019688
T02
X+009267Y+008607
X+009267Y+008307
X+009267Y+008007
X+009267Y+007707
X+009267Y+007407
X+009267Y+007107
X+009567Y+007107
X+009567Y+007407
X+009567Y+007707
X+009567Y+008007
X+009567Y+008307
X+009567Y+008607
X+009867Y+008607
X+009867Y+008307
X+009867Y+008007
X+009867Y+007707
X+010167Y+007707
X+010167Y+008007
X+010167Y+008307
X+010167Y+008607
X+010467Y+008607
X+010467Y+008307
X+010767Y+008307
X+010767Y+008607
X+011067Y+008607
X+011067Y+008307
X+011067Y+008007
X+010767Y+008007
X+010767Y+007707
X+011067Y+007707
X+011067Y+007407
X+011067Y+007107
X+011367Y+007107
X+011667Y+007107
X+011667Y+007407
X+011367Y+007407
X+011367Y+007707
X+011667Y+007707
X+011667Y+008007
X+011367Y+008007
X+011367Y+008307
X+011667Y+008307
X+011667Y+008607
X+011367Y+008607
X+011967Y+008607
X+011967Y+008327
X+012267Y+008337
X+012267Y+008607
X+012567Y+008607
X+012567Y+008307
X+012867Y+008307
X+013167Y+008307
X+013167Y+008607
X+012867Y+008607
X+013467Y+008607
X+013467Y+008307
X+013467Y+007707
X+013167Y+007707
X+012867Y+007707
X+012607Y+007707
X+012607Y+007407
X+012867Y+007407
X+013167Y+007407
X+013167Y+007107
X+012867Y+007107
X+012607Y+007107
X+013467Y+007107
X+013467Y+007407
X+010467Y+007707
X+010467Y+008007
X+008967Y+008007
X+008667Y+008007
X+008367Y+008007
X+008367Y+008307
X+008667Y+008307
X+008667Y+008607
X+008367Y+008607
X+008067Y+008607
X+008067Y+008307
X+008067Y+008007
X+008067Y+007707
X+008067Y+007407
X+008067Y+007107
X+008367Y+007107
X+008667Y+007107
X+008967Y+007107
X+008967Y+007407
X+008967Y+007707
X+008667Y+007707
X+008367Y+007707
X+008367Y+007407
X+008667Y+007407
X+007767Y+007407
X+007467Y+007407
X+007467Y+007707
X+007767Y+007707
X+007767Y+008007
X+007467Y+008007
X+007467Y+008307
X+007467Y+008607
X+007767Y+008607
X+007767Y+008307
X+006707Y+008307
X+006707Y+008607
X+006407Y+008597
X+006407Y+008307
X+006407Y+008007
X+006107Y+008007
X+005807Y+008007
X+005807Y+008307
X+005807Y+008607
X+006107Y+008597
X+006107Y+008307
X+006107Y+007707
X+006107Y+007407
X+006107Y+007107
X+005807Y+007107
X+005507Y+007107
X+005207Y+007107
X+005207Y+007407
X+005507Y+007407
X+005507Y+007707
X+005207Y+007707
X+004907Y+007707
X+004907Y+007407
X+004607Y+007407
X+004607Y+007107
X+004307Y+007107
X+004307Y+007407
X+004307Y+007707
X+004212Y+008167
X+005207Y+008007
X+005507Y+008007
X+005807Y+007707
X+005807Y+007407
X+006407Y+007407
X+006407Y+007107
X+006707Y+007107
X+006707Y+007407
X+006707Y+007707
X+006407Y+007707
X+006707Y+008007
X+007467Y+007107
X+007767Y+007107
X+008967Y+008307
X+008967Y+008607
X+004907Y+007107
T03
X+004921Y+014075
X+004921Y+014567
X+004921Y+015059
X+006890Y+014616
X+006890Y+014124
T04
X+004594Y+007967
T05
X+016777Y+004497
X+016777Y+005497
X+016777Y+006497
X+016777Y+007497
X+016777Y+008497
T00
M30
