M48
INCH
T01C0.01
T02C0.015
T03C0.0236
T04C0.027
T05C0.0433
%
T01
X+000420Y+002620
T03
X+012652Y+000920
X+012160Y+000920
X+011668Y+000920
X+012810Y+015604
X+012810Y+016096
X+012810Y+012680
X+012810Y+013172
T05
X+012830Y+002260
X+012830Y+003260
X+012830Y+004260
X+012830Y+005260
X+012830Y+006260
T04
X+000658Y+004220
T01
X+011610Y+009250
X+010590Y+008930
X+012025Y+010720
X+010170Y+011600
X+011175Y+011610
X+001300Y+008250
X+000540Y+008630
X+000670Y+005200
X+001250Y+005100
X+001237Y+005805
X+001540Y+005670
X+005200Y+007440
X+001300Y+007850
X+000830Y+004730
X+002130Y+005460
X+012220Y+013490
T02
X+006830Y+004670
T01
X+009690Y+007750
X+004950Y+007590
X+000390Y+005200
T02
X+005330Y+004670
T01
X+003350Y+008570
X+000500Y+005720
X+002487Y+010670
X+002787Y+010670
X+001300Y+007450
X+001970Y+005680
T02
X+006830Y+004370
X+005330Y+004370
X+006830Y+004070
T01
X+001300Y+007050
X+001300Y+006650
X+001700Y+008250
X+001700Y+007850
X+001700Y+007450
X+002060Y+011120
X+002240Y+011120
X+001700Y+007050
X+010510Y+004890
X+003480Y+013140
X+003480Y+012690
X+005800Y+008030
X+003590Y+012920
X+009900Y+013140
X+009380Y+006350
T02
X+006830Y+003770
X+009230Y+004670
T01
X+010410Y+005890
T02
X+000670Y+003770
X+009240Y+004370
X+007130Y+004670
X+007130Y+004370
X+007130Y+004070
X+000370Y+003770
T01
X+003590Y+011420
T02
X+000370Y+003470
X+000370Y+003170
T01
X+007430Y+010510
X+008471Y+006664
X+008470Y+006070
X+001700Y+006650
X+002100Y+008250
X+002100Y+007850
T02
X+007130Y+003770
T01
X+002100Y+007450
X+002100Y+007050
T02
X+007130Y+003470
X+007130Y+003170
T01
X+002100Y+006650
X+012220Y+013190
X+002500Y+008250
T02
X+005930Y+004670
X+005930Y+004370
T01
X+010040Y+012920
X+009800Y+012920
X+004000Y+005470
X+004520Y+008060
X+004130Y+006900
X+000250Y+008380
X+000340Y+007350
X+010460Y+005580
T02
X+005930Y+004070
T01
X+012220Y+012620
T02
X+005930Y+003770
T01
X+011900Y+005310
X+003187Y+010670
X+002087Y+010670
X+011350Y+007750
X+009190Y+008220
X+002500Y+007850
X+000420Y+006660
X+002500Y+007450
X+002500Y+007050
X+002500Y+006650
X+002900Y+008250
T02
X+000670Y+003470
X+000670Y+003170
T01
X+002900Y+007850
X+002900Y+007450
X+002900Y+007050
X+002900Y+006650
X+005220Y+008680
X+005570Y+008670
X+005980Y+008370
X+011430Y+012690
X+004430Y+012310
T02
X+005330Y+004070
X+005330Y+003770
X+000970Y+003770
X+000970Y+003470
X+000970Y+003170
X+005330Y+003470
X+005330Y+003170
X+005630Y+004670
X+005630Y+004370
X+005630Y+004070
X+005630Y+003770
X+005630Y+003470
X+005630Y+003170
X+006530Y+003470
X+009230Y+003770
T01
X+012220Y+012320
T02
X+001270Y+003770
X+001270Y+003470
X+001270Y+003170
X+001270Y+004070
X+001570Y+004070
T01
X+009380Y+010010
T02
X+006230Y+004670
X+006230Y+004370
X+006230Y+004070
X+006230Y+003770
X+009230Y+003470
X+009230Y+003170
X+006530Y+004670
X+001570Y+003770
X+001570Y+003470
X+001570Y+003170
X+006530Y+004370
X+006530Y+004070
X+006530Y+003770
X+009530Y+004670
X+009530Y+004370
X+001870Y+004670
X+001870Y+004370
X+001870Y+004070
X+009530Y+003770
X+009530Y+003470
X+009530Y+003170
X+007430Y+004670
X+007400Y+004370
X+007400Y+004070
X+007430Y+003770
X+007430Y+003470
X+007430Y+003170
X+001870Y+003770
X+001870Y+003470
X+001870Y+003170
X+009240Y+004070
X+008330Y+004370
X+008330Y+004070
X+007730Y+003770
X+002170Y+004660
X+002170Y+004370
X+002170Y+004070
X+002170Y+003770
X+002170Y+003470
X+002170Y+003170
X+007730Y+003470
X+008030Y+004670
X+008330Y+003770
X+002470Y+004660
X+002470Y+004370
X+002470Y+004070
X+002470Y+003770
X+002470Y+003470
X+002470Y+003170
T01
X+012800Y+015230
X+001210Y+010680
T02
X+002770Y+004670
X+002770Y+004370
X+002770Y+004070
X+002770Y+003770
X+002770Y+003470
X+002770Y+003170
X+003530Y+004670
X+003530Y+004370
X+003530Y+004070
X+003530Y+003770
X+003530Y+003470
X+003530Y+003170
X+008330Y+004670
X+008620Y+004370
X+003830Y+004670
X+003830Y+004370
X+003830Y+004070
X+003830Y+003770
X+003830Y+003470
X+003830Y+003170
T01
X+000610Y+009960
X+000610Y+010650
T02
X+008630Y+004670
X+008620Y+004070
X+004130Y+004670
X+004130Y+004370
X+004130Y+004070
X+004130Y+003770
X+004130Y+003470
X+004130Y+003170
T01
X+009560Y+010510
T02
X+008630Y+003770
X+008630Y+003470
X+008630Y+003170
X+004430Y+004670
X+004430Y+004370
X+004430Y+004070
X+004430Y+003770
X+004430Y+003470
X+004430Y+003170
X+009530Y+004070
X+008030Y+003470
T01
X+006330Y+012250
T02
X+008930Y+003770
X+004730Y+004670
X+004730Y+004370
X+004730Y+004070
X+004730Y+003770
X+004730Y+003470
X+008930Y+003470
X+006530Y+003170
T01
X+008870Y+012240
T02
X+005030Y+004670
X+005030Y+004370
X+005030Y+004070
X+005030Y+003770
X+005030Y+003470
X+005030Y+003170
T01
X+007480Y+009990
T02
X+006830Y+003470
X+006830Y+003170
X+005930Y+003470
X+006230Y+003470
X+006230Y+003170
T01
X+000250Y+013280
X+011900Y+005900
X+004888Y+010700
X+004890Y+006710
X+004840Y+007990
X+004510Y+005470
X+003840Y+012190
X+005017Y+012321
X+005214Y+012321
X+005410Y+012321
X+005607Y+012321
X+005804Y+012321
X+006592Y+012191
X+006788Y+012191
X+006985Y+012191
X+007182Y+012191
X+009151Y+012241
X+009544Y+012241
X+007800Y+005560
X+007550Y+006560
X+000880Y+008740
X+000870Y+009100
X+001170Y+009290
X+001190Y+009590
X+001670Y+009140
X+001670Y+009410
X+003620Y+009490
X+002910Y+009370
X+001700Y+010060
X+003470Y+009000
X+002180Y+009180
X+002440Y+009220
X+002650Y+009380
X+003720Y+008780
X+000670Y+015480
X+000690Y+016230
X+002510Y+012590
X+001494Y+014110
X+007050Y+010010
X+011820Y+008370
X+008780Y+007930
X+010450Y+010580
X+011620Y+009760
X+012140Y+003980
X+011260Y+004960
X+007140Y+009220
X+006670Y+010130
X+011890Y+006730
X+005330Y+011470
X+003300Y+009440
X+008780Y+009070
X+011230Y+002660
X+003830Y+012530
X+012350Y+003090
X+006880Y+011510
X+005950Y+013760
X+000720Y+013740
X+006120Y+011490
X+010250Y+012360
X+007160Y+013410
X+004970Y+008810
X+007510Y+011400
X+007370Y+007740
X+008610Y+008460
X+000570Y+013100
X+012962Y+006755
X+001660Y+009680
T02
X+008030Y+004370
X+008030Y+004070
X+008030Y+003770
X+008030Y+003170
X+008330Y+003470
X+008330Y+003170
T01
X+011670Y+005020
X+011460Y+006700
X+009090Y+005100
X+008920Y+004450
X+007730Y+004460
T00
M30
