G04 DipTrace 3.1.0.0*
G04 Top.gbr*
%MOIN*%
G04 #@! TF.FileFunction,Copper,L1,Top*
G04 #@! TF.Part,Single*
%AMOUTLINE0*
4,1,32,
0.145,0.14,
0.145,-0.14,
0.08,-0.14,
0.08,0.01,
0.055,0.01,
0.055,-0.14,
-0.01,-0.14,
-0.01,0.01,
-0.035,0.01,
-0.035,-0.14,
-0.1,-0.14,
-0.1,0.01,
-0.125,0.01,
-0.125,-0.14,
-0.145,-0.14,
-0.145,0.03,
-0.08,0.03,
-0.08,-0.12,
-0.055,-0.12,
-0.055,0.03,
0.01,0.03,
0.01,-0.12,
0.035,-0.12,
0.035,0.03,
0.1,0.03,
0.1,-0.12,
0.125,-0.12,
0.125,0.09,
-0.128005,0.09,
-0.128005,0.11,
0.125,0.11,
0.125,0.14,
0.145,0.14,
0*%
%AMOUTLINE3*
4,1,16,
0.003937,0.012795,
0.003547,0.014504,
0.002454,0.015873,
0.000877,0.016634,
-0.000877,0.016634,
-0.002454,0.015873,
-0.003547,0.014504,
-0.003937,0.012795,
-0.003937,-0.012795,
-0.003547,-0.014504,
-0.002454,-0.015873,
-0.000877,-0.016634,
0.000877,-0.016634,
0.002454,-0.015873,
0.003547,-0.014504,
0.003937,-0.012795,
0.003937,0.012795,
0*%
%AMOUTLINE6*
4,1,16,
0.012795,-0.003937,
0.014504,-0.003547,
0.015873,-0.002454,
0.016634,-0.000877,
0.016634,0.000877,
0.015873,0.002454,
0.014504,0.003547,
0.012795,0.003937,
-0.012795,0.003937,
-0.014504,0.003547,
-0.015873,0.002454,
-0.016634,0.000877,
-0.016634,-0.000877,
-0.015873,-0.002454,
-0.014504,-0.003547,
-0.012795,-0.003937,
0.012795,-0.003937,
0*%
%AMOUTLINE9*5,1,4,0,0,0.30066,-135.0*%
%AMOUTLINE12*
4,1,4,
-0.023622,0.019685,
0.023622,0.019685,
0.023622,-0.019685,
-0.023622,-0.019685,
-0.023622,0.019685,
0*%
G04 #@! TA.AperFunction,Conductor*
%ADD14C,0.006*%
%ADD15C,0.01*%
G04 #@! TA.AperFunction,CopperBalancing*
%ADD16C,0.005*%
%ADD17C,0.015*%
%ADD18C,0.003937*%
G04 #@! TA.AperFunction,ComponentPad*
%ADD22R,0.02X0.02*%
G04 #@! TA.AperFunction,ViaPad*
%ADD23C,0.02*%
%ADD26R,0.035433X0.027559*%
%ADD27R,0.027559X0.035433*%
%ADD29R,0.023622X0.023622*%
%ADD30R,0.048031X0.035827*%
%ADD31R,0.059055X0.027559*%
G04 #@! TA.AperFunction,ComponentPad*
%ADD32R,0.03937X0.03937*%
%ADD36C,0.03937*%
%ADD37R,0.011811X0.031496*%
%ADD38R,0.062992X0.066929*%
%ADD39R,0.059055X0.15748*%
%ADD41R,0.020079X0.015748*%
%ADD47R,0.009843X0.026575*%
%ADD48R,0.055906X0.024016*%
%ADD49R,0.017717X0.057087*%
%ADD51R,0.023622X0.020551*%
G04 #@! TA.AperFunction,ComponentPad*
%ADD52C,0.064*%
%ADD57R,0.008858X0.023622*%
G04 #@! TA.AperFunction,ComponentPad*
%ADD58R,0.066929X0.066929*%
%ADD62C,0.066929*%
%ADD64R,0.023622X0.043307*%
%ADD65R,0.074803X0.043307*%
G04 #@! TA.AperFunction,ViaPad*
%ADD66C,0.025*%
%ADD120OUTLINE0*%
%ADD123OUTLINE3*%
%ADD126OUTLINE6*%
%ADD129OUTLINE9*%
%ADD132OUTLINE12*%
%FSLAX26Y26*%
G04*
G70*
G90*
G75*
G01*
G04 Top*
%LPD*%
X595827Y1274525D2*
D14*
X594701D1*
Y1287701D1*
X597701Y1290701D1*
Y1315701D1*
X579701Y1333701D1*
X540292D1*
Y1323701D1*
X576701Y1367110D2*
Y1360110D1*
X540292Y1323701D1*
X568898Y1647638D2*
Y1610236D1*
X574803Y1604331D1*
Y1564961D1*
Y1604331D2*
X572835Y1606299D1*
X462534D1*
X629016Y1989646D2*
D15*
Y2013977D1*
X614292Y2028701D1*
Y2029701D1*
X604701D1*
X594701Y2019701D1*
Y1998701D1*
X590701D1*
X608701D2*
X603701D1*
Y2018110D1*
X614292Y2028701D1*
X570866Y1816929D2*
D14*
X618110D1*
X624016Y1811024D1*
Y1771654D1*
X540701Y1814701D2*
X568638D1*
X570866Y1816929D1*
X836614Y1692914D2*
Y1731995D1*
X1289370Y1692914D2*
Y1731995D1*
X1410087Y983559D2*
X1445701D1*
Y982701D1*
X600394Y1718504D2*
Y1691701D1*
X595701D1*
X462701Y1637701D2*
Y1606467D1*
X462534Y1606299D1*
X462701Y1637701D2*
X432721D1*
X420721Y1625701D1*
Y1369114D1*
X422725Y1367110D1*
X576701D1*
X418701Y1204701D2*
X417701D1*
Y1132292D1*
X428701Y1121292D1*
X417701Y1204701D2*
Y1224110D1*
X428701Y1235110D1*
X467874Y1193816D2*
X451586D1*
X439701Y1205701D1*
X419701D1*
X435701Y1228110D2*
X428701Y1235110D1*
X643071Y1002872D2*
Y990071D1*
X640701Y987701D1*
Y964701D1*
X631429Y955429D1*
Y936701D1*
Y902701D1*
X780110Y935701D2*
X784406D1*
Y901701D1*
X780110D1*
X739528Y1162320D2*
X760320D1*
X783701Y1185701D1*
X811292D1*
X826701Y1201110D1*
X739528Y1083580D2*
X758822D1*
X778701Y1063701D1*
X806110D1*
X808110Y1061701D1*
X780110Y1003701D2*
Y969701D1*
X808110Y1061701D2*
Y1095701D1*
X826701Y1201110D2*
X861701D1*
X780110Y935701D2*
X773234D1*
X706063Y1002872D1*
X883701Y1209701D2*
X861701D1*
Y1201110D1*
X826701D2*
D3*
X784701Y1088701D2*
X801110D1*
X808110Y1095701D1*
X631429Y902701D2*
Y889929D1*
X625701Y884201D1*
X739528Y1036336D2*
X772163Y1003701D1*
X780110D1*
X741701Y992701D2*
X764701Y969701D1*
X780110D1*
X1677701Y849701D2*
Y954701D1*
X1678701Y955701D1*
X501339Y1002872D2*
X492872D1*
X477792Y987792D1*
Y968201D1*
Y934201D1*
X498701Y913292D1*
Y878397D1*
X494881D1*
X514701Y876701D2*
X527701D1*
X531292Y880292D1*
X538701D1*
X514701Y876701D2*
X513005Y878397D1*
X494881D1*
X1680701Y1344701D2*
D15*
X1665701Y1359701D1*
X1615701D1*
Y1329701D1*
X1551701Y983418D2*
D14*
X1568701D1*
Y982701D1*
X1384496Y983559D2*
X1410087D1*
X1526110Y983418D2*
X1551701D1*
X1526110D2*
Y943110D1*
X1508701Y925701D1*
X1339701Y1512292D2*
X1301701D1*
X1299701D1*
Y1546701D1*
X1289370Y1557032D1*
Y1692914D1*
X862937Y1534246D2*
Y1580465D1*
X838701Y1604701D1*
Y1690827D1*
X836614Y1692914D1*
X1458299Y1723551D2*
Y1725701D1*
X1439701D1*
X1408772Y1423701D2*
D15*
X1440772Y1455701D1*
X1469701D1*
X1533103Y1723551D2*
D14*
Y1724701D1*
X1512701D1*
X1486292Y1663260D2*
Y1676740D1*
X1533103Y1723551D1*
X1486292Y1620701D2*
Y1663260D1*
X1370701Y1275701D2*
X1378701D1*
X1346701Y1307701D1*
X1353701D1*
X857701Y1398701D2*
X888701D1*
X910701Y1420701D1*
Y1521701D1*
X908701Y1523701D1*
X780110Y969701D2*
Y935701D1*
X600394Y1647638D2*
Y1663394D1*
X628701Y1691701D1*
X643701D1*
X625701Y1435701D2*
X619701D1*
Y1359701D1*
X625701Y1353701D1*
Y1274525D1*
X627323D1*
X631890Y1647638D2*
X633764D1*
X647701Y1633701D1*
X649701D1*
X606701Y1465701D2*
X602701D1*
Y1359701D1*
X611575Y1350827D1*
Y1274525D1*
X580248Y936701D2*
Y902701D1*
X831292Y935701D2*
X835587D1*
Y901701D1*
X831292D1*
X424002Y846034D2*
Y832189D1*
X459448Y796743D1*
X423701Y1014701D2*
Y1070110D1*
X428701D1*
X884701Y1246701D2*
X867292D1*
X861701Y1252292D1*
X826701D1*
X859292Y1095701D2*
Y1061701D1*
X831292Y969701D2*
Y1003701D1*
X584646Y1718504D2*
Y1732646D1*
X592701Y1740701D1*
X608701D1*
X615701Y1733701D1*
Y1718945D1*
X616142Y1718504D1*
X631890D1*
X653701D1*
X669292D1*
X679134Y1708662D1*
Y1767717D1*
X675197Y1771654D1*
X625984Y1564961D2*
Y1604331D1*
X719292Y2028701D2*
X760341D1*
X489110Y1323701D2*
X487701D1*
Y1347701D1*
X576701Y1418292D2*
X539588D1*
Y1408292D1*
X1272874Y1060118D2*
X1240761D1*
X1272874Y1001189D2*
X1240701D1*
Y1000701D1*
X428701Y1286292D2*
X427701D1*
Y1320701D1*
X777559Y1692914D2*
X748320D1*
X895670D2*
Y1731995D1*
X915355Y1692914D2*
Y1731995D1*
X935040Y1692914D2*
Y1731995D1*
X954725Y1692914D2*
Y1731995D1*
X974410Y1692914D2*
Y1731995D1*
X1053150Y1692914D2*
Y1731995D1*
X1072835Y1692914D2*
Y1731995D1*
X1092520Y1692914D2*
Y1731995D1*
X1112205Y1692914D2*
Y1731995D1*
X1309055Y1692914D2*
Y1653832D1*
X1348425Y1692914D2*
X1348701D1*
Y1730701D1*
X668386Y1989626D2*
X703415D1*
Y1953701D1*
X648701D2*
X633415D1*
X593415D1*
X1333315Y1215843D2*
X1301124D1*
X1158236Y1218110D2*
X1143701D1*
Y1192701D1*
X1225166Y1269292D2*
X1272121D1*
X663415Y1953701D2*
X648701D1*
X492126Y1407481D2*
X448701Y1450906D1*
Y1537701D1*
X460701Y1549701D1*
X525701D1*
X537701Y1537701D1*
X625984D1*
Y1564961D1*
X538701Y829110D2*
Y824701D1*
X485701Y771701D1*
X431822D1*
X440335Y780214D1*
X459448Y796743D1*
X1495701Y1800701D2*
X1496701D1*
Y1828851D1*
X1495701Y1829851D1*
X653701Y1740701D2*
Y1718504D1*
X627323Y1002872D2*
Y976823D1*
X587201Y936701D1*
X580248D1*
X426610Y934201D2*
X430701D1*
Y968201D1*
X426610D1*
X580248Y902701D2*
Y861154D1*
X580701Y860701D1*
X859292Y1061701D2*
X884701D1*
X885701Y1060701D1*
X793819Y1483065D2*
X759260D1*
X423701Y1014701D2*
Y971110D1*
X426610Y968201D1*
X1680701Y1258087D2*
D15*
X1666087Y1272701D1*
X1615701D1*
Y1242701D1*
X1448701Y1213701D2*
D14*
X1472929D1*
X1474929Y1215701D1*
X1500520D1*
X1333315Y1215843D2*
X1358906D1*
X1559882Y925701D2*
X1568701D1*
X1590701Y947701D1*
Y1084701D1*
X1502701Y1172701D1*
Y1213520D1*
X1500520Y1215701D1*
X1264701Y1461110D2*
X1301701D1*
X1339701D1*
X736701Y1502701D2*
X756337Y1483065D1*
X759260D1*
X828378D2*
X862937D1*
X869065D1*
X886701Y1500701D1*
X1553701Y1968701D2*
Y1937292D1*
X1499292Y1931701D2*
Y1968814D1*
X1486292Y1578142D2*
X1485701D1*
Y1557701D1*
X1435110Y1663260D2*
X1425701D1*
Y1684701D1*
X1319520Y1275701D2*
X1333315Y1261906D1*
Y1215843D1*
X1301701Y1461110D2*
X1290701D1*
Y1374701D1*
X1287701Y1371701D1*
X1131701Y1382331D2*
Y1373701D1*
X1086701D1*
Y1369701D1*
X765016Y1391197D2*
X710181D1*
X688977Y1412402D1*
X831292Y969701D2*
Y935701D1*
X690315Y1002872D2*
Y987087D1*
X744701Y932701D1*
Y862701D1*
X746701Y860701D1*
X467874Y1162320D2*
X436701D1*
Y1155701D1*
X584646Y1647638D2*
Y1665756D1*
X570701Y1679701D1*
X569701D1*
X570866Y1765748D2*
X553748D1*
X530701Y1742701D1*
Y1710701D1*
X561701Y1679701D1*
X569701D1*
X467874Y1178068D2*
X436701D1*
Y1181701D1*
X675197Y1811024D2*
X674378D1*
X644701Y1840701D1*
Y1842701D1*
X568898Y1718504D2*
X552701D1*
Y1724701D1*
X690315Y1274525D2*
X691701D1*
Y1381701D1*
X650701D1*
X498701Y830701D2*
Y842214D1*
X494881Y846034D1*
X706063Y1274525D2*
Y1330063D1*
X719701Y1343701D1*
Y1350701D1*
X459448Y878397D2*
Y867954D1*
X466701Y860701D1*
X739528Y1241061D2*
X746701D1*
Y1360701D1*
X478701Y904201D2*
Y901701D1*
X447306D1*
X424002Y878397D1*
X629016Y1917756D2*
X617166D1*
X573110Y1873701D1*
X648701Y1917756D2*
Y1898110D1*
X624292Y1873701D1*
X828378Y1534246D2*
X816929Y1545694D1*
Y1692914D1*
X648701Y1989646D2*
D15*
Y2009292D1*
X668110Y2028701D1*
X462628Y2055118D2*
Y2063701D1*
X658701D1*
X662225Y2060177D1*
X668110Y2054292D1*
Y2028701D1*
X724292Y1873701D2*
D14*
X757701D1*
X780701Y1896701D1*
Y2040701D1*
X757701Y2063701D1*
X665748D1*
X662225Y2060177D1*
X492126Y1505906D2*
X643906D1*
X722701Y1584701D1*
Y1872110D1*
X724292Y1873701D1*
X739528Y1067832D2*
X757570D1*
X786701Y1038701D1*
X992701D1*
X1030701Y1076701D1*
Y1075701D1*
X1115701Y1243701D2*
X1141292Y1269292D1*
X1158236D1*
X668386Y1917756D2*
Y1878425D1*
X673110Y1873701D1*
X492126Y1456693D2*
Y1462276D1*
X460701Y1493701D1*
Y1517701D1*
X480701Y1537701D1*
X507701D1*
X525701Y1519701D1*
X636701D1*
X709701Y1592701D1*
Y1837110D1*
X673110Y1873701D1*
X467874Y1036336D2*
X444701D1*
Y1034701D1*
X616142Y1647638D2*
Y1661142D1*
X627701Y1672701D1*
X663914D1*
X679134Y1657481D1*
X739528Y1052084D2*
X755318D1*
X780701Y1026701D1*
X1018701D1*
X1051701Y1059701D1*
X1205701Y1192701D2*
Y1199701D1*
X1225166Y1219166D1*
Y1218110D1*
X517087Y1002872D2*
Y973087D1*
X512701Y968701D1*
Y967701D1*
X1272874Y1111299D2*
X1222299D1*
X1190701Y1079701D1*
X1174607D1*
Y1083866D1*
Y1097607D1*
X1148701Y1071701D1*
Y1049701D1*
X532835Y1002872D2*
X533701D1*
Y956701D1*
X518701Y941701D1*
Y913701D1*
X1173701Y949701D2*
Y985441D1*
X1174607D1*
X1272874Y950008D2*
X1174008D1*
X1173701Y949701D1*
X1458299Y1829851D2*
Y1873512D1*
X1448110Y1883701D1*
Y1931701D1*
X1533103Y1829851D2*
D15*
Y1827299D1*
X1569701Y1790701D1*
Y1707701D1*
X1528701Y1666701D1*
Y1592701D1*
X1548701Y1572701D1*
Y1562394D1*
X1551701D1*
X1550504Y1561197D1*
Y1423701D1*
X759260Y1534246D2*
D14*
X793819D1*
X797244Y1537671D1*
Y1692914D1*
X1499292Y1883701D2*
X1551292D1*
X1553701Y1886110D1*
X1551701Y1649008D2*
D15*
Y1640701D1*
X1593701Y1682701D1*
Y1846110D1*
X1553701Y1886110D1*
X797244Y1692914D2*
Y1785244D1*
X1014701Y2002701D1*
X1555701D1*
X1581701Y1976701D1*
Y1909701D1*
X1558110Y1886110D1*
X1553701D1*
X1435110Y1578142D2*
D14*
X1428260D1*
X1402701Y1603701D1*
Y1614701D1*
X1367701Y1649701D1*
Y1738996D1*
X1355701Y1750996D1*
X1202949D1*
X1190945Y1738992D1*
Y1692914D1*
X1264701Y1512292D2*
X1269685Y1517276D1*
Y1692914D1*
X856299D2*
Y1664103D1*
X960701Y1559701D1*
Y1365701D1*
X994701Y1331701D1*
X1177110D1*
Y1339701D1*
X1228292D2*
Y1358740D1*
X1204701Y1382331D1*
Y1511071D2*
X1131701D1*
X784701Y1328205D2*
X841583D1*
X857701Y1312087D1*
X784701Y1328205D2*
Y1318701D1*
X816701Y1286701D1*
X877701D1*
X937701Y1346701D1*
Y1542701D1*
X870701Y1609701D1*
X871701D1*
X865701Y1615701D1*
X465701Y1813701D2*
Y1782622D1*
X462607Y1779528D1*
X824292Y1436701D2*
Y1391197D1*
X804386D1*
X462701Y1269701D2*
Y1246234D1*
X467874Y1241061D1*
X818701Y1753701D2*
X821406Y1750996D1*
X1139576D1*
X1151575Y1738998D1*
Y1692914D1*
X1435110Y1620701D2*
X1423701D1*
X1391701Y1652701D1*
Y1744701D1*
X1369701Y1766701D1*
X1193701D1*
X1171260Y1744260D1*
Y1692914D1*
X739528Y1178068D2*
X759068D1*
X789701Y1208701D1*
X796701D1*
Y1204701D1*
X739528Y1193816D2*
X757816D1*
X796701Y1232701D1*
Y1234701D1*
X580079Y1002872D2*
Y985323D1*
X593701Y971701D1*
Y970201D1*
X564331Y1002872D2*
Y987331D1*
X567701Y983961D1*
Y970701D1*
X739528Y1130824D2*
X762824D1*
X782701Y1150701D1*
X1384701D1*
X1410701Y1176701D1*
Y1215229D1*
X1410087Y1215843D1*
X674567Y1274525D2*
Y1316835D1*
X668701Y1322701D1*
X1551701Y1293701D2*
Y1215701D1*
X1052469Y1660103D2*
X1131890D1*
Y1692914D1*
X580079Y1274525D2*
Y1303323D1*
X575701Y1307701D1*
X1048441Y1357547D2*
X1033465Y1372524D1*
Y1692914D1*
X1045701Y1131701D2*
X1052701Y1138701D1*
X1409626D1*
X1427945Y1157020D1*
Y1253390D1*
X1391390D1*
X1384496Y1246496D1*
Y1215843D1*
X739528Y1115076D2*
X764076D1*
X786701Y1137701D1*
X1039701D1*
X1045701Y1131701D1*
X1526110Y1215701D2*
Y1246292D1*
X1519012Y1253390D1*
X1427945D1*
X1022701Y1115701D2*
Y1120701D1*
X1058701Y1084701D1*
X1080701D1*
X1137496Y1027906D1*
X1333315D1*
Y983559D1*
X1013701Y1357701D2*
Y1692914D1*
X1013780D1*
X739528Y1099328D2*
X765328D1*
X784701Y1118701D1*
X1019701D1*
X1022701Y1115701D1*
X1333315Y983559D2*
Y948087D1*
X1341701Y939701D1*
X1467701D1*
X1476701Y948701D1*
Y981646D1*
X1474929Y983418D1*
X739528Y1146572D2*
X761572D1*
X784701Y1169701D1*
X1357701D1*
X1358906Y983559D2*
Y1029496D1*
X1357701Y1030701D1*
X1496701D1*
X1500701Y1026701D1*
Y983599D1*
X1500520Y983418D1*
X739528Y1225313D2*
X755313D1*
X765701Y1235701D1*
Y1265701D1*
X766701Y1266701D1*
X739528Y1209565D2*
X756565D1*
X777701Y1230701D1*
Y1242701D1*
X792701Y1257701D1*
Y1267701D1*
X643071Y1274525D2*
Y1358331D1*
X631701Y1369701D1*
Y1410701D1*
X674701Y1453701D1*
X692701D1*
Y1461614D1*
X688977D1*
X483701Y1288701D2*
X487168D1*
X501339Y1274530D1*
X773110Y1436701D2*
X759701D1*
X705701Y1490701D1*
X562386D1*
X558591Y1486906D1*
X548583Y1002872D2*
Y944583D1*
X545701Y941701D1*
D23*
X523701Y1218701D3*
X436701Y1181701D3*
Y1155701D3*
X466701Y860701D3*
X514701Y876701D3*
X512701Y967701D3*
X518701Y913701D3*
X567701Y970701D3*
X593701Y970201D3*
X523701Y1178701D3*
X498701Y830701D3*
X478701Y904201D3*
X625701Y884201D3*
X1615701Y1359701D3*
X784701Y1088701D3*
X1051701Y1059701D3*
X1030701Y1075701D3*
X885701Y1060701D3*
X1357701Y1169701D3*
Y1030701D3*
D66*
X926701Y860701D3*
D23*
X741701Y992701D3*
X884701Y1246701D3*
X483701Y1288701D3*
X462701Y1269701D3*
X746701Y1360701D3*
X719701Y1350701D3*
X650701Y1381701D3*
X668701Y1322701D3*
X575701Y1307701D3*
X606701Y1465701D3*
X625701Y1435701D3*
X883701Y1209701D3*
X633415Y1953701D3*
X663415D3*
X523701Y1138701D3*
X1495701Y1800701D3*
X653701Y1740701D3*
X418701Y1204701D3*
X423701Y1014701D3*
X1115701Y1243701D3*
D66*
X926701Y830701D3*
D23*
X523701Y1098701D3*
Y1058701D3*
X540701Y1814701D3*
X563701Y1218701D3*
X462701Y1637701D3*
X563701Y1178701D3*
Y1138701D3*
X590701Y1998701D3*
X608701D3*
X563701Y1098701D3*
X569701Y1679701D3*
X1553701Y1968701D3*
X736701Y1502701D3*
X886701Y1500701D3*
X1469701Y1455701D3*
X865701Y1615701D3*
X465701Y1813701D3*
X836614Y1731995D3*
X1289370D3*
X1445701Y982701D3*
X595701Y1691701D3*
D66*
X421201Y816701D3*
D23*
X643701Y1691701D3*
X649701Y1633701D3*
X644701Y1842701D3*
X552701Y1724701D3*
D66*
X430701Y770701D3*
D23*
X760341Y2028701D3*
D66*
X430701Y740701D3*
Y710701D3*
D23*
X487701Y1347701D3*
X539588Y1408292D3*
X1240761Y1060118D3*
X1240701Y1000701D3*
X427701Y1320701D3*
X563701Y1058701D3*
X603701Y1218701D3*
Y1178701D3*
Y1138701D3*
Y1098701D3*
Y1058701D3*
X1615701Y1329701D3*
X643701Y1218701D3*
X1287701Y1371701D3*
X748320Y1692914D3*
X895670Y1731995D3*
X915355D3*
X935040D3*
X954725D3*
X974410D3*
X1053150D3*
X1072835D3*
X1092520D3*
X1112205D3*
X1309055Y1653832D3*
X1348701Y1730701D3*
X1615701Y1272701D3*
X703415Y1953701D3*
X593415D3*
X1448701Y1213701D3*
X1301124Y1215843D3*
X1143701Y1192701D3*
X1272121Y1269292D3*
X643701Y1178701D3*
X444701Y1034701D3*
X643701Y1138701D3*
Y1098701D3*
Y1058701D3*
X683701Y1218701D3*
D66*
X460701Y740701D3*
Y710701D3*
D23*
X683701Y1178701D3*
Y1138701D3*
Y1098701D3*
Y1058701D3*
X766701Y1266701D3*
X792701Y1267701D3*
X796701Y1234701D3*
Y1204701D3*
X545701Y941701D3*
D66*
X926701Y800701D3*
Y770701D3*
X490701D3*
Y740701D3*
Y710701D3*
X926701Y740701D3*
Y710701D3*
X956701Y860701D3*
Y830701D3*
Y800701D3*
Y770701D3*
Y740701D3*
Y710701D3*
D23*
X1678701Y955701D3*
X1615701Y1242701D3*
D66*
X520701Y770701D3*
Y740701D3*
Y710701D3*
Y800701D3*
X550701D3*
D23*
X1551701Y1293701D3*
D66*
X550701Y770701D3*
Y740701D3*
Y710701D3*
X580701Y860701D3*
Y830701D3*
Y800701D3*
Y770701D3*
Y740701D3*
Y710701D3*
X610701Y859701D3*
Y830701D3*
Y800701D3*
Y770701D3*
Y740701D3*
Y710701D3*
X640701Y859701D3*
Y830701D3*
Y800701D3*
Y770701D3*
Y740701D3*
Y710701D3*
X670701Y860701D3*
Y830701D3*
Y800701D3*
Y770701D3*
Y740701D3*
Y710701D3*
X746701Y860701D3*
Y830701D3*
Y800701D3*
Y770701D3*
Y740701D3*
Y710701D3*
X776701Y860701D3*
Y830701D3*
Y800701D3*
Y770701D3*
Y740701D3*
Y710701D3*
X806701Y860701D3*
Y830701D3*
Y800701D3*
Y770701D3*
Y740701D3*
Y710701D3*
X836701Y860701D3*
Y830701D3*
Y800701D3*
Y770701D3*
Y740701D3*
Y710701D3*
X866701Y860701D3*
Y830701D3*
Y800701D3*
Y770701D3*
Y740701D3*
Y710701D3*
X896701Y860701D3*
Y830701D3*
Y800701D3*
Y770701D3*
Y740701D3*
Y710701D3*
D23*
X1426701Y805701D3*
X1611701Y772701D3*
X1500701Y673701D3*
X1319701Y636701D3*
X1568701Y982701D3*
X1499292Y1968814D3*
X1439701Y1725701D3*
X1512701Y1724701D3*
X1485701Y1557701D3*
X1425701Y1684701D3*
X1173701Y949701D3*
X1205701Y1192701D3*
X1148701Y1049701D3*
X818701Y1753701D3*
X1052469Y1660103D3*
X1048441Y1357547D3*
X1045701Y1131701D3*
X1022701Y1115701D3*
X1013701Y1357701D3*
X558591Y1486906D3*
X1353701Y1307701D3*
X1086701Y1369701D3*
X908701Y1523701D3*
D66*
X1076701Y860701D3*
Y830701D3*
Y800701D3*
Y770701D3*
X1106701Y860701D3*
Y830701D3*
Y800701D3*
Y770701D3*
Y740701D3*
Y710701D3*
X986701Y860701D3*
Y830701D3*
Y800701D3*
Y770701D3*
X1016701Y860701D3*
Y830701D3*
Y800701D3*
Y770701D3*
X1046701Y860701D3*
Y830701D3*
Y800701D3*
Y770701D3*
X1316701Y860701D3*
Y830701D3*
Y770701D3*
Y740701D3*
Y710701D3*
X1346701Y860701D3*
Y830701D3*
Y770701D3*
Y740701D3*
Y710701D3*
X1136701Y860701D3*
Y830701D3*
Y800701D3*
Y770701D3*
Y740701D3*
Y710701D3*
X1166701Y860701D3*
Y830701D3*
Y800701D3*
Y770701D3*
Y740701D3*
Y710701D3*
X1196701Y860701D3*
Y832701D3*
X1226701Y860701D3*
Y833701D3*
X1256701Y860701D3*
Y830701D3*
X1260701Y770701D3*
Y740701D3*
Y710701D3*
X1286701Y860701D3*
Y830701D3*
Y770701D3*
Y740701D3*
Y710701D3*
X516696Y2036332D2*
D16*
X536194D1*
X516696Y2031463D2*
X536194D1*
X516696Y2026595D2*
X536194D1*
X516696Y2021726D2*
X536194D1*
X516696Y2016857D2*
X536194D1*
X416701Y2011988D2*
X536194D1*
X416701Y2007120D2*
X536194D1*
X416701Y2002251D2*
X571839D1*
X682507D2*
X740701D1*
X416701Y1997382D2*
X571546D1*
X682507D2*
X740701D1*
X416701Y1992513D2*
X572552D1*
X682507D2*
X740701D1*
X416701Y1987645D2*
X575120D1*
X682507D2*
X740701D1*
X416701Y1982776D2*
X580403D1*
X682507D2*
X740701D1*
X416701Y1977907D2*
X614895D1*
X682507D2*
X740701D1*
X416701Y1973038D2*
X611546D1*
X685856D2*
X740701D1*
X416701Y1968170D2*
X611546D1*
X685856D2*
X740701D1*
X416701Y1963301D2*
X611546D1*
X685856D2*
X740701D1*
X416701Y1958432D2*
X611546D1*
X685856D2*
X740701D1*
X416701Y1953563D2*
X611546D1*
X685856D2*
X740701D1*
X416701Y1948694D2*
X611546D1*
X685856D2*
X740701D1*
X416701Y1943826D2*
X611546D1*
X685856D2*
X740701D1*
X416701Y1938957D2*
X611546D1*
X685856D2*
X740701D1*
X416701Y1934088D2*
X611546D1*
X685856D2*
X740701D1*
X416701Y1929219D2*
X614388D1*
X682507D2*
X740701D1*
X416701Y1924351D2*
X606731D1*
X682507D2*
X740701D1*
X416701Y1919482D2*
X601868D1*
X682507D2*
X740701D1*
X416701Y1914613D2*
X596995D1*
X682507D2*
X740701D1*
X416701Y1909744D2*
X592122D1*
X682507D2*
X740701D1*
X416701Y1904876D2*
X587259D1*
X682507D2*
X740701D1*
X416701Y1900007D2*
X423831D1*
X501286D2*
X582386D1*
X682507D2*
X740701D1*
X416701Y1895138D2*
X423831D1*
X501286D2*
X546194D1*
X416701Y1890269D2*
X423831D1*
X501286D2*
X546194D1*
X416701Y1885400D2*
X423831D1*
X501286D2*
X546194D1*
X416701Y1880532D2*
X423831D1*
X501286D2*
X546194D1*
X416701Y1875663D2*
X423831D1*
X501286D2*
X546194D1*
X416701Y1870794D2*
X423831D1*
X501286D2*
X546194D1*
X694527Y2006231D2*
X681998Y2006221D1*
X682007Y1974408D1*
X685354Y1974409D1*
Y1932993D1*
X682008D1*
Y1896177D1*
X741201Y1896201D1*
X741208Y2006221D1*
X692875Y2006223D1*
X549194Y1896180D2*
X579067D1*
X608892Y1926029D1*
X610288Y1927222D1*
X611854Y1928181D1*
X613550Y1928884D1*
X615396Y1929319D1*
X615354Y1932993D1*
X612049D1*
Y1974409D1*
X615394D1*
X615395Y1981242D1*
X613066Y1980518D1*
X610168Y1980059D1*
X607234D1*
X604336Y1980518D1*
X601545Y1981424D1*
X599716Y1982317D1*
X597857Y1981424D1*
X595066Y1980518D1*
X592168Y1980059D1*
X589234D1*
X586336Y1980518D1*
X583545Y1981424D1*
X580930Y1982757D1*
X578556Y1984481D1*
X576481Y1986556D1*
X574757Y1988930D1*
X573424Y1991545D1*
X572518Y1994336D1*
X572059Y1997234D1*
Y2000168D1*
X572518Y2003066D1*
X573424Y2005857D1*
X573527Y2006221D1*
X536694D1*
Y2041216D1*
X516201Y2041201D1*
X516170Y2018310D1*
X515929Y2017566D1*
X515469Y2016933D1*
X514836Y2016473D1*
X514092Y2016232D1*
X513701Y2016201D1*
X416201D1*
Y1866201D1*
X424336D1*
X424327Y1904369D1*
X500782D1*
Y1866188D1*
X546699Y1866201D1*
X546694Y1896180D1*
X549194D1*
X719292Y2028701D2*
D17*
Y2006231D1*
X563110Y2028701D2*
Y2006231D1*
X536704Y2028701D2*
X563110D1*
X462555Y1904360D2*
Y1881890D1*
X424337D2*
X500773D1*
X668386Y1989626D2*
X681998D1*
X612058Y1953701D2*
X685344D1*
X412063Y987927D2*
D18*
X451557D1*
X655231D2*
X660911D1*
X412063Y984121D2*
X451557D1*
X653924D2*
X662487D1*
X412063Y980315D2*
X451557D1*
X652209D2*
X664063D1*
X412063Y976509D2*
X451557D1*
X625288D2*
X629191D1*
X652209D2*
X665632D1*
X412063Y972704D2*
X451557D1*
X619552D2*
X629191D1*
X652209D2*
X667208D1*
X412063Y968898D2*
X451557D1*
X612170D2*
X628792D1*
X652209D2*
X668785D1*
X412063Y965092D2*
X451557D1*
X611486D2*
X624985D1*
X652209D2*
X670361D1*
X412063Y961286D2*
X451557D1*
X609879D2*
X621594D1*
X651671D2*
X671937D1*
X412063Y957481D2*
X451557D1*
X657669D2*
X673506D1*
X412063Y953675D2*
X451557D1*
X574315D2*
X585861D1*
X601543D2*
X605193D1*
X657669D2*
X675082D1*
X412063Y949869D2*
X451557D1*
X562273D2*
X605193D1*
X657669D2*
X676659D1*
X412063Y946063D2*
X451557D1*
X563688D2*
X605193D1*
X657669D2*
X678235D1*
X412063Y942257D2*
X451557D1*
X564211D2*
X605193D1*
X657669D2*
X679811D1*
X412063Y938452D2*
X451557D1*
X563926D2*
X605193D1*
X657669D2*
X681380D1*
X412063Y934646D2*
X451557D1*
X562788D2*
X605193D1*
X657669D2*
X682956D1*
X412063Y930840D2*
X451557D1*
X560605D2*
X605193D1*
X657669D2*
X684340D1*
X412063Y927034D2*
X451557D1*
X531377D2*
X534657D1*
X556744D2*
X605193D1*
X657669D2*
X684340D1*
X412063Y923229D2*
X451557D1*
X534514D2*
X605193D1*
X657669D2*
X684340D1*
X412063Y919423D2*
X451557D1*
X536290D2*
X605193D1*
X657669D2*
X684340D1*
X412063Y915617D2*
X451557D1*
X537121D2*
X605193D1*
X657669D2*
X684340D1*
X412063Y911811D2*
X442299D1*
X537121D2*
X605193D1*
X657669D2*
X684340D1*
X412063Y908005D2*
X437501D1*
X536306D2*
X605193D1*
X657669D2*
X684340D1*
X412063Y904200D2*
X433694D1*
X560997D2*
X605193D1*
X657669D2*
X684340D1*
X412063Y900394D2*
X429888D1*
X560997D2*
X605193D1*
X657669D2*
X684340D1*
X560997Y896588D2*
X605193D1*
X657669D2*
X684340D1*
X560997Y892782D2*
X605193D1*
X657669D2*
X684340D1*
X560997Y888977D2*
X605193D1*
X657669D2*
X684340D1*
X560997Y885171D2*
X605193D1*
X657669D2*
X684340D1*
X560997Y881365D2*
X605193D1*
X657669D2*
X684340D1*
X560997Y877559D2*
X608445D1*
X642959D2*
X684340D1*
X560997Y873753D2*
X610498D1*
X640906D2*
X684340D1*
X560997Y869948D2*
X614112D1*
X637292D2*
X684340D1*
X560997Y866142D2*
X623755D1*
X627649D2*
X684340D1*
X560997Y862336D2*
X684340D1*
X412063Y858530D2*
X448312D1*
X515214D2*
X516400D1*
X560997D2*
X684340D1*
X412063Y854725D2*
X449196D1*
X515214D2*
X516400D1*
X560997D2*
X684340D1*
X412063Y850919D2*
X451050D1*
X515214D2*
X684340D1*
X412063Y847113D2*
X454310D1*
X515214D2*
X684340D1*
X412063Y843307D2*
X461207D1*
X472191D2*
X474549D1*
X515214D2*
X684340D1*
X412063Y839502D2*
X474549D1*
X515214D2*
X684340D1*
X412063Y835696D2*
X474549D1*
X516521D2*
X684340D1*
X412063Y831890D2*
X474549D1*
X517182D2*
X684340D1*
X412063Y828084D2*
X474549D1*
X517028D2*
X684340D1*
X412063Y824278D2*
X481354D1*
X516044D2*
X684340D1*
X412063Y820473D2*
X483345D1*
X514060D2*
X684340D1*
X412063Y816667D2*
X486836D1*
X510569D2*
X684340D1*
X412063Y812861D2*
X495103D1*
X502303D2*
X684340D1*
X412063Y809055D2*
X684340D1*
X412063Y805250D2*
X684340D1*
X412063Y801444D2*
X684340D1*
X412063Y797638D2*
X684340D1*
X412063Y793832D2*
X684340D1*
X412063Y790026D2*
X684340D1*
X412063Y786221D2*
X684340D1*
X412063Y782415D2*
X684340D1*
X412063Y778609D2*
X684340D1*
X412063Y774803D2*
X684340D1*
X412063Y770998D2*
X684340D1*
X412063Y767192D2*
X684340D1*
X412063Y763386D2*
X684340D1*
X412063Y759580D2*
X684340D1*
X412063Y755774D2*
X684340D1*
X412063Y751969D2*
X684340D1*
X412063Y748163D2*
X684340D1*
X412063Y744357D2*
X684340D1*
X412063Y740551D2*
X684340D1*
X412063Y736746D2*
X684340D1*
X412063Y732940D2*
X684340D1*
X412063Y729134D2*
X684340D1*
X412063Y725328D2*
X684340D1*
X412063Y721523D2*
X684340D1*
X412063Y717717D2*
X684340D1*
X412063Y713911D2*
X684340D1*
X412063Y710105D2*
X684340D1*
X412063Y706299D2*
X684340D1*
X412063Y702494D2*
X684340D1*
X412063Y698688D2*
X683502D1*
X683721Y697656D2*
X684001Y699230D1*
X684734Y701486D1*
X684732Y711449D1*
Y931339D1*
X660829Y989093D1*
X660732Y989702D1*
X660748Y989945D1*
X660972Y991738D1*
X655119Y991732D1*
X655116Y989531D1*
X654853Y987927D1*
X654375Y985944D1*
X653900Y984761D1*
X653246Y983666D1*
X651814Y981858D1*
X651827Y964701D1*
X651690Y962960D1*
X651283Y961263D1*
X650614Y959650D1*
X650188Y958888D1*
X650000Y958607D1*
X657272Y958606D1*
Y880795D1*
X643500D1*
X642940Y878600D1*
X642447Y877264D1*
X641851Y875972D1*
X641156Y874730D1*
X640365Y873547D1*
X639484Y872429D1*
X638518Y871384D1*
X637473Y870418D1*
X636355Y869537D1*
X635172Y868746D1*
X633930Y868051D1*
X632638Y867455D1*
X631302Y866962D1*
X629932Y866576D1*
X628537Y866298D1*
X627123Y866131D1*
X625701Y866075D1*
X624279Y866131D1*
X622865Y866298D1*
X621470Y866576D1*
X620100Y866962D1*
X618764Y867455D1*
X617472Y868051D1*
X616230Y868746D1*
X615047Y869537D1*
X613929Y870418D1*
X612884Y871384D1*
X611918Y872429D1*
X611037Y873547D1*
X610246Y874730D1*
X609551Y875972D1*
X608955Y877264D1*
X608462Y878600D1*
X607912Y880793D1*
X605587Y880795D1*
Y956511D1*
X604355Y955537D1*
X603172Y954746D1*
X601930Y954051D1*
X600638Y953455D1*
X599302Y952962D1*
X597932Y952576D1*
X596537Y952298D1*
X595123Y952131D1*
X593701Y952075D1*
X592279Y952131D1*
X590865Y952298D1*
X589470Y952576D1*
X588100Y952962D1*
X586764Y953455D1*
X585472Y954051D1*
X584230Y954746D1*
X583047Y955537D1*
X581929Y956418D1*
X580465Y957837D1*
X579473Y956918D1*
X578355Y956037D1*
X577172Y955246D1*
X575930Y954551D1*
X574638Y953955D1*
X573302Y953462D1*
X571932Y953076D1*
X570537Y952798D1*
X569123Y952631D1*
X567701Y952575D1*
X566279Y952631D1*
X564865Y952798D1*
X563470Y953076D1*
X562100Y953462D1*
X560764Y953955D1*
X559699Y954446D1*
X559709Y953205D1*
X561156Y951172D1*
X561851Y949930D1*
X562447Y948638D1*
X562940Y947302D1*
X563326Y945932D1*
X563604Y944537D1*
X563771Y943123D1*
X563827Y941701D1*
X563771Y940279D1*
X563604Y938865D1*
X563326Y937470D1*
X562940Y936100D1*
X562447Y934764D1*
X561851Y933472D1*
X561156Y932230D1*
X560365Y931047D1*
X559484Y929929D1*
X558518Y928884D1*
X557473Y927918D1*
X556355Y927037D1*
X555172Y926246D1*
X553930Y925551D1*
X552638Y924955D1*
X551302Y924462D1*
X549932Y924076D1*
X548537Y923798D1*
X547123Y923631D1*
X545701Y923575D1*
X544279Y923631D1*
X542865Y923798D1*
X541470Y924076D1*
X540100Y924462D1*
X538764Y924955D1*
X537472Y925551D1*
X536230Y926246D1*
X535047Y927037D1*
X533929Y927918D1*
X532884Y928884D1*
X531918Y929929D1*
X531037Y931047D1*
X529814Y933001D1*
X529827Y928006D1*
X531518Y926518D1*
X532484Y925473D1*
X533365Y924355D1*
X534156Y923172D1*
X534851Y921930D1*
X535447Y920638D1*
X535940Y919302D1*
X536326Y917932D1*
X536604Y916537D1*
X536771Y915123D1*
X536827Y913701D1*
X536771Y912279D1*
X536604Y910865D1*
X536326Y909470D1*
X535940Y908100D1*
X535156Y906133D1*
X560607Y906134D1*
Y854449D1*
X516796D1*
Y858701D1*
X514818Y858580D1*
X514851Y838930D1*
X515447Y837638D1*
X515940Y836302D1*
X516326Y834932D1*
X516604Y833537D1*
X516771Y832123D1*
X516827Y830701D1*
X516771Y829279D1*
X516604Y827865D1*
X516326Y826470D1*
X515940Y825100D1*
X515447Y823764D1*
X514851Y822472D1*
X514156Y821230D1*
X513365Y820047D1*
X512484Y818929D1*
X511518Y817884D1*
X510473Y816918D1*
X509355Y816037D1*
X508172Y815246D1*
X506930Y814551D1*
X505638Y813955D1*
X504302Y813462D1*
X502932Y813076D1*
X501537Y812798D1*
X500123Y812631D1*
X498701Y812575D1*
X497279Y812631D1*
X495865Y812798D1*
X494470Y813076D1*
X493100Y813462D1*
X491764Y813955D1*
X490472Y814551D1*
X489230Y815246D1*
X488047Y816037D1*
X486929Y816918D1*
X485884Y817884D1*
X484918Y818929D1*
X484037Y820047D1*
X483246Y821230D1*
X482551Y822472D1*
X481955Y823764D1*
X481462Y825100D1*
X481076Y826470D1*
X480845Y827631D1*
X474944Y827633D1*
X474930Y844551D1*
X473638Y843955D1*
X472302Y843462D1*
X470932Y843076D1*
X469537Y842798D1*
X468123Y842631D1*
X466701Y842575D1*
X465279Y842631D1*
X463865Y842798D1*
X462470Y843076D1*
X461100Y843462D1*
X459764Y843955D1*
X458472Y844551D1*
X457230Y845246D1*
X456047Y846037D1*
X454929Y846918D1*
X453884Y847884D1*
X452918Y848929D1*
X452037Y850047D1*
X451246Y851230D1*
X450551Y852472D1*
X449955Y853764D1*
X449462Y855100D1*
X449076Y856470D1*
X448798Y857865D1*
X448603Y859995D1*
X411651D1*
X411670Y846063D1*
Y697670D1*
X683731D1*
X684001Y699230D1*
X684734Y701486D1*
X607640Y958606D2*
X620774D1*
X621150Y959687D1*
X621943Y961243D1*
X622969Y962655D1*
X627738Y967472D1*
X629592Y969327D1*
X629575Y983978D1*
X629154Y982741D1*
X628101Y980615D1*
X626729Y978680D1*
X625842Y977564D1*
X624221Y975833D1*
X622349Y974376D1*
X620271Y973230D1*
X619653Y972926D1*
X617933Y972148D1*
X615662Y971464D1*
X613311Y971144D1*
X611804Y971120D1*
X611771Y968779D1*
X611604Y967365D1*
X611326Y965970D1*
X610940Y964600D1*
X610447Y963264D1*
X609851Y961972D1*
X609156Y960730D1*
X608365Y959547D1*
X607625Y958608D1*
X451949Y912811D2*
Y990106D1*
X466921D1*
X467210Y991230D1*
X467400Y991745D1*
X467210Y991230D1*
X467400Y991745D1*
X411670Y991732D1*
Y896791D1*
X426679Y896798D1*
X439439Y909568D1*
X440766Y910702D1*
X442255Y911614D1*
X443868Y912283D1*
X445565Y912690D1*
X447306Y912827D1*
X447644Y912814D1*
X451943Y912827D1*
X629587Y983991D2*
X628811Y981951D1*
X627639Y979889D1*
X626065Y977850D1*
X624485Y976080D1*
X622648Y974578D1*
X620599Y973383D1*
X618237Y972270D1*
X615981Y971537D1*
X613638Y971166D1*
X612101Y971120D1*
X858210Y986332D2*
D16*
X1099700D1*
X858210Y981463D2*
X1099700D1*
X700309Y976595D2*
X703811D1*
X858210D2*
X1099700D1*
X704587Y971726D2*
X709417D1*
X858210D2*
X1099700D1*
X708874Y966857D2*
X715013D1*
X858210D2*
X1099700D1*
X713161Y961988D2*
X720608D1*
X858210D2*
X1099700D1*
X717438Y957120D2*
X726214D1*
X858210D2*
X1099700D1*
X721725Y952251D2*
X731809D1*
X858210D2*
X1099700D1*
X726013Y947382D2*
X737405D1*
X858210D2*
X1099700D1*
X730300Y942513D2*
X743011D1*
X858210D2*
X1099700D1*
X733698Y937645D2*
X748606D1*
X858210D2*
X1099700D1*
X733698Y932776D2*
X753196D1*
X858210D2*
X1099700D1*
X733698Y927907D2*
X753196D1*
X858210D2*
X1099700D1*
X733698Y923038D2*
X753196D1*
X858210D2*
X1099700D1*
X733698Y918170D2*
X753196D1*
X858210D2*
X1450701D1*
X733698Y913301D2*
X753196D1*
X858210D2*
X1450701D1*
X733698Y908432D2*
X753196D1*
X858210D2*
X1450701D1*
X733698Y903563D2*
X753196D1*
X858210D2*
X1450701D1*
X733698Y898694D2*
X753196D1*
X858210D2*
X1450701D1*
X733698Y893826D2*
X753196D1*
X858210D2*
X1450701D1*
X733698Y888957D2*
X753196D1*
X858210D2*
X1450701D1*
X733698Y884088D2*
X753196D1*
X858210D2*
X1450701D1*
X733698Y879219D2*
X1450701D1*
X733698Y874351D2*
X1450701D1*
X733698Y869482D2*
X1450701D1*
X733698Y864613D2*
X1450701D1*
X733698Y859744D2*
X1450701D1*
X733698Y854876D2*
X1450701D1*
X733698Y850007D2*
X1450701D1*
X733698Y845138D2*
X1450701D1*
X733698Y840269D2*
X1450701D1*
X733698Y835400D2*
X1450701D1*
X733698Y830532D2*
X1450701D1*
X733698Y825663D2*
X1450701D1*
X733698Y820794D2*
X1415159D1*
X1438239D2*
X1450701D1*
X733698Y815925D2*
X1410540D1*
X1442858D2*
X1450701D1*
X733698Y811057D2*
X1408284D1*
X1445114D2*
X1450701D1*
X733698Y806188D2*
X1407503D1*
X1445895D2*
X1450701D1*
X733698Y801319D2*
X1408020D1*
X1445378D2*
X1450701D1*
X733698Y796450D2*
X1409954D1*
X1443454D2*
X1450701D1*
X733698Y791582D2*
X1413938D1*
X1439460D2*
X1450701D1*
X733698Y786713D2*
X1450701D1*
X733698Y781844D2*
X1450701D1*
X733698Y776975D2*
X1450701D1*
X733698Y772107D2*
X1450701D1*
X733698Y767238D2*
X1450701D1*
X733698Y762369D2*
X1450701D1*
X733698Y757500D2*
X1450701D1*
X733698Y752631D2*
X1450701D1*
X733698Y747763D2*
X1450701D1*
X733698Y742894D2*
X1450701D1*
X733698Y738025D2*
X1450701D1*
X733698Y733156D2*
X1450701D1*
X733698Y728288D2*
X1450701D1*
X733698Y723419D2*
X1450701D1*
X733698Y718550D2*
X1450701D1*
X733698Y713681D2*
X1450701D1*
X733698Y708813D2*
X1450701D1*
X733698Y703944D2*
X1450701D1*
X734509Y699075D2*
X1450701D1*
X733189Y701728D2*
X733960Y699364D1*
X734193Y698189D1*
X733960Y699364D1*
X734193Y698189D1*
X1198201Y698201D1*
X1451201D1*
Y921201D1*
X1102310Y921232D1*
X1101566Y921473D1*
X1100933Y921933D1*
X1100473Y922566D1*
X1100232Y923310D1*
X1100201Y923701D1*
Y991201D1*
X857708Y991180D1*
Y879221D1*
X753694D1*
X753678Y937171D1*
X753109Y936635D1*
X752402Y936301D1*
X751626Y936202D1*
X750857Y936348D1*
X750171Y936724D1*
X702846Y977870D1*
X701406Y978402D1*
X699225Y979484D1*
X698182Y980203D1*
X697207Y979523D1*
X697729Y979851D1*
X698266Y980133D1*
X698183Y980203D1*
X698487Y978092D1*
X732813Y939039D1*
X733123Y938321D1*
X733188Y937465D1*
X733201Y797701D1*
X733199Y701706D1*
X733960Y699364D1*
X1445343Y804234D2*
X1444884Y801336D1*
X1443978Y798545D1*
X1442645Y795930D1*
X1440921Y793556D1*
X1438846Y791481D1*
X1436472Y789757D1*
X1433857Y788424D1*
X1431066Y787518D1*
X1428168Y787059D1*
X1425234D1*
X1422336Y787518D1*
X1419545Y788424D1*
X1416930Y789757D1*
X1414556Y791481D1*
X1412481Y793556D1*
X1410757Y795930D1*
X1409424Y798545D1*
X1408518Y801336D1*
X1408059Y804234D1*
Y807168D1*
X1408518Y810066D1*
X1409424Y812857D1*
X1410757Y815472D1*
X1412481Y817846D1*
X1414556Y819921D1*
X1416930Y821645D1*
X1419545Y822978D1*
X1422336Y823884D1*
X1425234Y824343D1*
X1428168D1*
X1431066Y823884D1*
X1433857Y822978D1*
X1436472Y821645D1*
X1438846Y819921D1*
X1440921Y817846D1*
X1442645Y815472D1*
X1443978Y812857D1*
X1444884Y810066D1*
X1445343Y807168D1*
Y804234D1*
X831292Y901701D2*
D17*
Y879231D1*
Y901701D2*
X857698D1*
X831292Y935701D2*
X857698D1*
X831292Y969701D2*
X857698D1*
X673063Y988927D2*
D18*
X676147D1*
X674559Y985121D2*
X677785D1*
X676427Y981315D2*
X680661D1*
X678296Y977509D2*
X683529D1*
X680164Y973704D2*
X686405D1*
X682033Y969898D2*
X689281D1*
X683902Y966092D2*
X692149D1*
X685770Y962286D2*
X695025D1*
X687639Y958481D2*
X697893D1*
X689515Y954675D2*
X700769D1*
X691383Y950869D2*
X703637D1*
X693252Y947063D2*
X706513D1*
X695120Y943257D2*
X709381D1*
X696989Y939452D2*
X712257D1*
X698858Y935646D2*
X715125D1*
X700726Y931840D2*
X716340D1*
X701064Y928034D2*
X716340D1*
X701064Y924229D2*
X716340D1*
X701064Y920423D2*
X716340D1*
X701064Y916617D2*
X716340D1*
X701064Y912811D2*
X716340D1*
X701064Y909005D2*
X716340D1*
X701064Y905200D2*
X716340D1*
X701064Y901394D2*
X716340D1*
X701064Y897588D2*
X716340D1*
X701064Y893782D2*
X716340D1*
X701064Y889977D2*
X716340D1*
X701064Y886171D2*
X716340D1*
X701064Y882365D2*
X716340D1*
X701064Y878559D2*
X716340D1*
X701064Y874753D2*
X716340D1*
X701064Y870948D2*
X716340D1*
X701064Y867142D2*
X716340D1*
X701064Y863336D2*
X716340D1*
X701064Y859530D2*
X716340D1*
X701064Y855725D2*
X716340D1*
X701064Y851919D2*
X716340D1*
X701064Y848113D2*
X716340D1*
X701064Y844307D2*
X716340D1*
X701064Y840502D2*
X716340D1*
X701064Y836696D2*
X716340D1*
X701064Y832890D2*
X716340D1*
X701064Y829084D2*
X716340D1*
X701064Y825278D2*
X716340D1*
X701064Y821473D2*
X716340D1*
X701064Y817667D2*
X716340D1*
X701064Y813861D2*
X716340D1*
X701064Y810055D2*
X716340D1*
X701064Y806250D2*
X716340D1*
X701064Y802444D2*
X716340D1*
X701064Y798638D2*
X716340D1*
X701064Y794832D2*
X716340D1*
X701064Y791026D2*
X716340D1*
X701064Y787221D2*
X716340D1*
X701064Y783415D2*
X716340D1*
X701064Y779609D2*
X716340D1*
X701064Y775803D2*
X716340D1*
X701064Y771998D2*
X716340D1*
X701064Y768192D2*
X716340D1*
X701064Y764386D2*
X716340D1*
X701064Y760580D2*
X716340D1*
X701064Y756774D2*
X716340D1*
X701064Y752969D2*
X716340D1*
X701064Y749163D2*
X716340D1*
X701064Y745357D2*
X716340D1*
X701064Y741551D2*
X716340D1*
X701064Y737746D2*
X716340D1*
X701064Y733940D2*
X716340D1*
X701064Y730134D2*
X716340D1*
X701064Y726328D2*
X716340D1*
X701064Y722523D2*
X716340D1*
X701064Y718717D2*
X716340D1*
X676002Y992732D2*
X672649D1*
X672670Y991701D1*
Y988125D1*
X700468Y931569D1*
X700650Y930980D1*
X700657Y930484D1*
X700670Y893299D1*
Y716670D1*
X716732D1*
Y934064D1*
X677130Y986515D1*
X676840Y987059D1*
X676734Y987643D1*
X675992Y992744D1*
D22*
X708701Y705701D3*
X435709Y655701D3*
D120*
X573701Y555701D3*
D26*
X668110Y2028701D3*
X719292D3*
X573110Y1873701D3*
X624292D3*
X614292Y2028701D3*
X563110D3*
X574803Y1564961D3*
X625984D3*
D27*
X679134Y1657481D3*
Y1708662D3*
D26*
X624016Y1771654D3*
X675197D3*
X574803Y1604331D3*
X625984D3*
D27*
X538701Y880292D3*
Y829110D3*
D26*
X808110Y1095701D3*
X859292D3*
X808110Y1061701D3*
X859292D3*
X631429Y902701D3*
X580248D3*
X631429Y936701D3*
X580248D3*
X780110Y901701D3*
X831292D3*
X780110Y935701D3*
X831292D3*
X780110Y969701D3*
X831292D3*
X780110Y1003701D3*
X831292D3*
X477792Y934201D3*
X426610D3*
X477792Y968201D3*
X426610D3*
D27*
X861701Y1201110D3*
Y1252292D3*
X826701Y1201110D3*
Y1252292D3*
D26*
X540292Y1323701D3*
X489110D3*
D27*
X576701Y1367110D3*
Y1418292D3*
X428701Y1121292D3*
Y1070110D3*
Y1235110D3*
Y1286292D3*
X1272874Y950008D3*
Y1001189D3*
D26*
X1370701Y1275701D3*
X1319520D3*
X1508701Y925701D3*
X1559882D3*
D27*
X1272874Y1111299D3*
Y1060118D3*
D26*
X1486292Y1663260D3*
X1435110D3*
D27*
X1553701Y1886110D3*
Y1937292D3*
X1264701Y1512292D3*
Y1461110D3*
X1301701Y1512292D3*
Y1461110D3*
X1339701Y1512292D3*
Y1461110D3*
X759260Y1534246D3*
Y1483065D3*
X793819Y1534246D3*
Y1483065D3*
X828378Y1534246D3*
Y1483065D3*
X862937Y1534246D3*
Y1483065D3*
D29*
X1551701Y1649008D3*
Y1562394D3*
D30*
X1204701Y1511071D3*
Y1382331D3*
X1131701D3*
Y1511071D3*
D29*
X857701Y1398701D3*
Y1312087D3*
D31*
X462534Y1606299D3*
Y1779528D3*
D32*
X492126Y1407481D3*
D36*
Y1456693D3*
Y1505906D3*
D32*
X688977Y1412402D3*
D36*
Y1461614D3*
D31*
X462555Y1881890D3*
Y2055118D3*
D37*
X777559Y1692914D3*
X797244D3*
X816929D3*
X836614D3*
X856299D3*
X875984D3*
X895670D3*
X915355D3*
X935040D3*
X954725D3*
X974410D3*
X994095D3*
X1013780D3*
X1033465D3*
X1053150D3*
X1072835D3*
X1092520D3*
X1112205D3*
X1131890D3*
X1151575D3*
X1171260D3*
X1190945D3*
X1210630D3*
X1230315D3*
X1250000D3*
X1269685D3*
X1289370D3*
X1309055D3*
X1328740D3*
X1348425D3*
X740158Y1594488D3*
X1385827D3*
D38*
X1680701Y1344701D3*
Y1258087D3*
D39*
X1408772Y1423701D3*
X1550504D3*
D41*
X804386Y1391197D3*
X765016D3*
X784701Y1328205D3*
D26*
X673110Y1873701D3*
X724292D3*
D27*
X570866Y1765748D3*
Y1816929D3*
D26*
X675197Y1811024D3*
X624016D3*
X1448110Y1883701D3*
X1499292D3*
Y1931701D3*
X1448110D3*
X1486292Y1578142D3*
X1435110D3*
X1177110Y1339701D3*
X1228292D3*
X1435110Y1620701D3*
X1486292D3*
X773110Y1436701D3*
X824292D3*
D47*
X668386Y1989626D3*
X648701Y1989646D3*
X629016D3*
Y1917756D3*
X648701D3*
X668386D3*
D48*
X648701Y1953701D3*
D123*
X501339Y1002872D3*
X517087D3*
X532835D3*
X548583D3*
X564331D3*
X580079D3*
X595827D3*
X611575D3*
X627323D3*
X643071D3*
X658819D3*
X674567D3*
X690315D3*
X706063D3*
D126*
X739528Y1036336D3*
Y1052084D3*
Y1067832D3*
Y1083580D3*
Y1099328D3*
Y1115076D3*
Y1130824D3*
Y1146572D3*
Y1162320D3*
Y1178068D3*
Y1193816D3*
Y1209565D3*
Y1225313D3*
Y1241061D3*
D123*
X706063Y1274525D3*
X690315D3*
X674567D3*
X658819D3*
X643071D3*
X627323D3*
X611575D3*
X595827D3*
X580079D3*
X564331D3*
X548583D3*
X532835D3*
X517087D3*
X501339Y1274530D3*
D126*
X467874Y1241061D3*
Y1225313D3*
Y1209565D3*
Y1193816D3*
Y1178068D3*
Y1162320D3*
Y1146572D3*
Y1130824D3*
Y1115076D3*
Y1099328D3*
Y1083580D3*
Y1067832D3*
Y1052084D3*
Y1036336D3*
D129*
X603701Y1138701D3*
D49*
X1410087Y1215843D3*
X1384496D3*
X1358906D3*
X1333315D3*
Y983559D3*
X1358906D3*
X1384496D3*
X1410087D3*
D51*
X424002Y878397D3*
Y846034D3*
D52*
X459448Y796743D3*
D51*
X494881Y846034D3*
Y878397D3*
X459448D3*
D57*
X584646Y1647638D3*
X600394D3*
X616142D3*
X631890D3*
Y1718504D3*
X616142D3*
X600394D3*
X584646D3*
X568898D3*
Y1647638D3*
D58*
X1677701Y449701D3*
D62*
Y549701D3*
Y649701D3*
Y749701D3*
Y849701D3*
D64*
X1533103Y1829851D3*
X1495701D3*
X1458299D3*
Y1723551D3*
X1533103D3*
D49*
X1551701Y1215701D3*
X1526110D3*
X1500520D3*
X1474929D3*
Y983418D3*
X1500520D3*
X1526110D3*
X1551701D3*
D132*
X1225166Y1218110D3*
X1158236D3*
Y1269292D3*
X1225166D3*
D65*
X1174607Y985441D3*
Y1083866D3*
M02*
