G04 DipTrace 3.1.0.0*
G04 Top.gbr*
%MOIN*%
G04 #@! TF.FileFunction,Copper,L1,Top*
G04 #@! TF.Part,Single*
%AMOUTLINE0*
4,1,32,
0.145,0.14,
0.145,-0.14,
0.08,-0.14,
0.08,0.01,
0.055,0.01,
0.055,-0.14,
-0.01,-0.14,
-0.01,0.01,
-0.035,0.01,
-0.035,-0.14,
-0.1,-0.14,
-0.1,0.01,
-0.125,0.01,
-0.125,-0.14,
-0.145,-0.14,
-0.145,0.03,
-0.08,0.03,
-0.08,-0.12,
-0.055,-0.12,
-0.055,0.03,
0.01,0.03,
0.01,-0.12,
0.035,-0.12,
0.035,0.03,
0.1,0.03,
0.1,-0.12,
0.125,-0.12,
0.125,0.09,
-0.128005,0.09,
-0.128005,0.11,
0.125,0.11,
0.125,0.14,
0.145,0.14,
0*%
%AMOUTLINE2*
4,1,16,
0.003937,0.012795,
0.003547,0.014504,
0.002454,0.015873,
0.000877,0.016634,
-0.000877,0.016634,
-0.002454,0.015873,
-0.003547,0.014504,
-0.003937,0.012795,
-0.003937,-0.012795,
-0.003547,-0.014504,
-0.002454,-0.015873,
-0.000877,-0.016634,
0.000877,-0.016634,
0.002454,-0.015873,
0.003547,-0.014504,
0.003937,-0.012795,
0.003937,0.012795,
0*%
%AMOUTLINE4*
4,1,16,
0.012795,-0.003937,
0.014504,-0.003547,
0.015873,-0.002454,
0.016634,-0.000877,
0.016634,0.000877,
0.015873,0.002454,
0.014504,0.003547,
0.012795,0.003937,
-0.012795,0.003937,
-0.014504,0.003547,
-0.015873,0.002454,
-0.016634,0.000877,
-0.016634,-0.000877,
-0.015873,-0.002454,
-0.014504,-0.003547,
-0.012795,-0.003937,
0.012795,-0.003937,
0*%
%AMOUTLINE6*5,1,4,0,0,0.30066,-135.0*%
%AMOUTLINE9*
4,1,12,
0.013761,-0.013898,
0.002066,-0.013898,
0.000688,-0.010354,
-0.001911,-0.005787,
-0.005651,-0.002047,
-0.010218,0.000551,
-0.013761,0.001929,
-0.013761,0.013898,
-0.005701,0.011465,
0.001528,0.007291,
0.007428,0.001391,
0.011601,-0.005837,
0.013761,-0.013898,
0*%
%AMOUTLINE11*
4,1,12,
0.013898,0.013761,
0.013898,0.002066,
0.010354,0.000688,
0.005787,-0.001911,
0.002047,-0.005651,
-0.000551,-0.010218,
-0.001929,-0.013761,
-0.013898,-0.013761,
-0.011465,-0.005701,
-0.007291,0.001528,
-0.001391,0.007428,
0.005837,0.011601,
0.013898,0.013761,
0*%
%AMOUTLINE13*
4,1,12,
-0.013761,0.013898,
-0.002066,0.013898,
-0.000688,0.010354,
0.001911,0.005787,
0.005651,0.002047,
0.010218,-0.000551,
0.013761,-0.001929,
0.013761,-0.013898,
0.005701,-0.011465,
-0.001528,-0.007291,
-0.007428,-0.001391,
-0.011601,0.005837,
-0.013761,0.013898,
0*%
%AMOUTLINE15*
4,1,12,
-0.013898,-0.013761,
-0.013898,-0.002066,
-0.010354,-0.000688,
-0.005787,0.001911,
-0.002047,0.005651,
0.000551,0.010218,
0.001929,0.013761,
0.013898,0.013761,
0.011465,0.005701,
0.007291,-0.001528,
0.001391,-0.007428,
-0.005837,-0.011601,
-0.013898,-0.013761,
0*%
%AMOUTLINE17*
4,1,4,
0.019685,0.023622,
0.019685,-0.023622,
-0.019685,-0.023622,
-0.019685,0.023622,
0.019685,0.023622,
0*%
G04 #@! TA.AperFunction,Conductor*
%ADD13C,0.005997*%
%ADD14C,0.01*%
%ADD15C,0.008*%
G04 #@! TA.AperFunction,ViaPad*
%ADD16C,0.02*%
G04 #@! TA.AperFunction,Conductor*
%ADD17C,0.006*%
G04 #@! TA.AperFunction,CopperBalancing*
%ADD18C,0.005*%
%ADD19C,0.015*%
%ADD20C,0.001*%
G04 #@! TA.AperFunction,ComponentPad*
%ADD24R,0.02X0.02*%
%ADD26R,0.035433X0.027559*%
%ADD27R,0.027559X0.035433*%
%ADD28R,0.023622X0.023622*%
%ADD29R,0.059055X0.027559*%
G04 #@! TA.AperFunction,ComponentPad*
%ADD30R,0.03937X0.03937*%
%ADD33C,0.03937*%
%ADD34R,0.011811X0.031496*%
G04 #@! TA.AperFunction,ComponentPad*
%ADD35R,0.066929X0.066929*%
%ADD38C,0.066929*%
%ADD39R,0.045276X0.106299*%
%ADD41R,0.020079X0.015748*%
%ADD42R,0.03937X0.043307*%
%ADD43R,0.043307X0.03937*%
%ADD47R,0.009843X0.026575*%
%ADD48R,0.055906X0.024016*%
%ADD49R,0.017717X0.057087*%
%ADD51R,0.023622X0.020551*%
%ADD53R,0.008858X0.023622*%
%ADD55R,0.023622X0.043307*%
%ADD56R,0.074803X0.043307*%
G04 #@! TA.AperFunction,ViaPad*
%ADD57C,0.025*%
%ADD88OUTLINE0*%
%ADD90OUTLINE2*%
%ADD92OUTLINE4*%
%ADD94OUTLINE6*%
%ADD97OUTLINE9*%
%ADD99OUTLINE11*%
%ADD101OUTLINE13*%
%ADD103OUTLINE15*%
%ADD105OUTLINE17*%
%FSLAX26Y26*%
G04*
G70*
G90*
G75*
G01*
G04 Top*
%LPD*%
X202126Y880827D2*
D13*
Y897874D1*
X199000Y901000D1*
Y954409D1*
X200000D1*
X235000Y562591D2*
Y547000D1*
X214000D1*
X213000Y546000D1*
X115591Y550000D2*
X105000Y539409D1*
Y503693D1*
X101186D1*
X125000Y510000D2*
X129003D1*
X138415Y500588D1*
X149000D1*
X125000Y510000D2*
X118693Y503693D1*
X101186D1*
X1016391Y589856D2*
X1041000D1*
Y589000D1*
X1221995Y1348997D2*
D14*
Y1318997D1*
X1158005Y589711D2*
D13*
X1190000D1*
Y590000D1*
X990801Y589856D2*
X1016391D1*
X1132415Y589711D2*
X1158005D1*
X1132415D2*
Y549409D1*
X1115000Y531995D1*
X345827Y768622D2*
X378622D1*
X386958Y776958D1*
X402409D1*
Y776000D1*
X345827Y689882D2*
X374118D1*
X398000Y666000D1*
X406000D1*
X411241Y671241D1*
X442625Y1193005D2*
Y1168375D1*
X455000Y1156000D1*
X497000D1*
X528000Y1125000D1*
Y1037000D1*
X486000Y995000D1*
X466756D1*
X74173Y800118D2*
X42472D1*
X29000Y813591D1*
X249370Y609173D2*
Y576961D1*
X235000Y562591D1*
X107638Y609173D2*
Y594638D1*
X104000Y591000D1*
Y561591D1*
X115591Y550000D1*
X345827Y642638D2*
Y629173D1*
X365000Y610000D1*
X397690D1*
X398294Y609396D1*
X312362Y609173D2*
X326827D1*
X369000Y567000D1*
X397803D1*
X398294Y566509D1*
X1221995Y1318997D2*
X1279215D1*
X1281000Y1317213D1*
X895381Y1193005D2*
Y1168619D1*
X910118Y1153882D1*
Y1126886D1*
X952677D1*
X990801Y589856D2*
Y536982D1*
X987819Y534000D1*
X398294Y566509D2*
Y548706D1*
X400000Y547000D1*
X398294Y566509D2*
Y609396D1*
X452000Y806000D2*
X432409D1*
X402409Y776000D1*
X413000Y690000D2*
Y673000D1*
X411241Y671241D1*
X25000Y838000D2*
Y817591D1*
X29000Y813591D1*
X913000Y1021000D2*
X918000D1*
X938000Y1001000D1*
X442625Y1193005D2*
Y1230625D1*
X443000Y1231000D1*
X895381Y1193005D2*
Y1215619D1*
X887000Y1224000D1*
X29598Y1601150D2*
X69000D1*
X104402D1*
X290055Y1258000D2*
X252000D1*
X251000Y1259000D1*
X244315Y1102945D2*
D14*
Y1127265D1*
X229585Y1141995D1*
Y1142992D1*
X219992D1*
X209992Y1132992D1*
Y1111995D1*
X205990D1*
X223995D2*
X218995D1*
Y1131404D1*
X229585Y1141995D1*
X1064766Y1008564D2*
D13*
Y971163D1*
X1070669Y965260D1*
Y925890D1*
X1059000Y893000D2*
Y914220D1*
X1070669Y925890D1*
X1096262Y1079430D2*
Y1108963D1*
X1119882Y1132583D1*
X1013472Y1072543D2*
Y1129543D1*
X1016882Y1132953D1*
X1017000D1*
Y1160000D1*
X1117472Y1160953D2*
Y1134992D1*
X1119882Y1132583D1*
X751000Y1140000D2*
Y1107409D1*
X783000Y1075409D1*
X57000Y1310000D2*
Y1237399D1*
X69013Y1225386D1*
X1283007Y625997D2*
X1296194Y639185D1*
Y675512D1*
X200000Y954409D2*
X186409Y968000D1*
X166000D1*
X69000Y1623000D2*
Y1601150D1*
X41409Y1654000D2*
Y1650591D1*
X69000Y1623000D1*
X154882Y880827D2*
Y899118D1*
X148000Y906000D1*
Y935000D1*
X124000Y959000D1*
X119000D1*
X1096262Y1008564D2*
Y1029738D1*
X1071000Y1055000D1*
X1048000D1*
X1045000Y1058000D1*
X139134Y880827D2*
Y895866D1*
X136000Y899000D1*
Y910000D1*
X117000Y929000D1*
X1127757Y1008564D2*
X1129436D1*
X1162000Y976000D1*
X200000Y1005591D2*
X170000D1*
Y1006000D1*
X334585Y1141995D2*
X359000D1*
Y1142000D1*
X283685Y1102932D2*
X318706D1*
Y1066995D1*
X264000Y1067000D2*
Y1066995D1*
X248706D1*
X208706D1*
X278706D2*
X264000D1*
X879173Y666417D2*
X847060D1*
X879173Y607493D2*
X846995D1*
Y606995D1*
X939619Y822139D2*
X919000D1*
Y822000D1*
X1221995Y1262003D2*
D14*
Y1232003D1*
X1081234Y821995D2*
D13*
X1106824D1*
X939619Y822139D2*
X965210D1*
X296614Y609173D2*
Y593386D1*
X350997Y539003D1*
Y469003D1*
X353005Y466995D1*
X42008Y261995D2*
X315000D1*
Y31995D1*
X268005Y36995D1*
Y178005D1*
X225997D1*
Y31995D1*
X179003Y35000D1*
X180000Y161995D1*
X346168Y1291430D2*
Y1312165D1*
X348005Y1314003D1*
X359003Y1291995D2*
X346732D1*
X346168Y1291430D1*
Y1270840D1*
X348005Y1269003D1*
Y1289593D1*
X346168Y1291430D1*
X235000Y511409D2*
Y484003D1*
X216995Y465997D1*
X74173Y658386D2*
X123386D1*
X210000Y745000D1*
X1221995Y1262003D2*
X1275003D1*
X1281000Y1268000D1*
X149000Y449407D2*
Y436995D1*
X186995D1*
X462423Y671241D2*
X489000D1*
Y671000D1*
X453591Y776000D2*
X456000D1*
X469000Y789000D1*
X467000D1*
X484000Y806000D1*
Y799000D1*
X449475Y566509D2*
X451000D1*
Y547000D1*
X449475Y609396D2*
Y566509D1*
X34000Y735000D2*
Y757409D1*
X29000Y762409D1*
X1166181Y531995D2*
X1189005D1*
X1190000Y531000D1*
X1046000Y558000D2*
Y541000D1*
X1039000Y534000D1*
X1143000Y1237693D2*
Y1269000D1*
X383570Y1193005D2*
Y1219000D1*
X384000D1*
X50000Y572000D2*
X46409D1*
X29000Y589409D1*
X50000Y572000D2*
Y564409D1*
X64409Y550000D1*
X233622Y609173D2*
Y648622D1*
X250000Y665000D1*
X803315Y978496D2*
X768504D1*
X748000Y999000D1*
X980000Y1291995D2*
X991273D1*
X991837Y1291430D1*
X1004003Y1291995D2*
X992402D1*
X990000Y1314003D2*
Y1293268D1*
X915066Y1193005D2*
Y1224087D1*
X954436Y1193005D2*
Y1224087D1*
X952677Y1075705D2*
X910118D1*
X867559D1*
X952677D2*
Y1054323D1*
X956000Y1051000D1*
X30307Y471331D2*
X30000Y471024D1*
Y440031D1*
Y404047D1*
Y398000D1*
X36995Y391005D1*
Y376995D1*
X1280000Y1523000D2*
Y1559394D1*
X1281000Y1560394D1*
X67000Y1494850D2*
Y1459591D1*
X55409Y1448000D1*
X92591Y1654000D2*
X117000D1*
X129000Y1642000D1*
Y1570000D1*
X107000Y1548000D1*
X67000D1*
X178409Y1411000D2*
X149360D1*
X1080513Y1079430D2*
Y1064912D1*
X1087472Y1057953D1*
X1108472D1*
X1112472Y1061953D1*
Y1078969D1*
X1112010Y1079430D1*
X1127757D2*
X1112010D1*
X1127757D2*
X1165160D1*
X1175000Y1069591D1*
X1171063Y1132583D2*
Y1073528D1*
X1175000Y1069591D1*
X1121850Y925890D2*
X1161000D1*
Y925000D1*
X1119472Y929953D2*
Y962882D1*
X1121850Y965260D1*
X1175000Y1069591D2*
X1200110D1*
X1202472Y1071953D1*
X1135000Y775000D2*
X1129000D1*
X1106824Y797176D1*
Y821995D1*
X488756Y1070000D2*
X481000D1*
X472000Y1079000D1*
X466346D1*
X415575Y995000D2*
Y1004181D1*
X409819D1*
X415575Y995000D2*
Y1037000D1*
X415165D1*
X466346Y1079000D2*
Y1121000D1*
X501680Y1193005D2*
Y1232087D1*
X521365Y1193005D2*
Y1232087D1*
X541050Y1193005D2*
Y1232087D1*
X560735Y1193005D2*
Y1232087D1*
X580420Y1193005D2*
Y1232087D1*
X659160Y1193005D2*
Y1219087D1*
X678845Y1193005D2*
Y1219087D1*
X698530Y1193005D2*
Y1219087D1*
X718215Y1193005D2*
Y1219087D1*
X466346Y1079000D2*
X461000D1*
X415165Y1033165D1*
Y1037000D1*
X497000Y881000D2*
X439756D1*
X415756Y905000D1*
X67000Y1494850D2*
Y1548000D1*
X867559Y1075705D2*
X825295D1*
X825000Y1075409D1*
X861000Y846000D2*
X831126D1*
X820591Y835465D1*
X737000Y774000D2*
X763945D1*
X769409Y768535D1*
X265118Y609173D2*
D15*
Y486882D1*
D13*
X285005Y466995D1*
X276995D1*
X281000Y596331D2*
D15*
Y594000D1*
X315000Y535067D1*
D16*
Y311995D1*
X83745Y440031D2*
D13*
X110892Y435696D1*
X126995Y406995D1*
X47761Y440031D2*
X30000D1*
X47761Y404047D2*
X30000D1*
X83745D2*
X96995Y376995D1*
X61000Y996000D2*
Y1065000D1*
Y1068000D1*
X121000D1*
X61000Y996000D2*
Y956105D1*
X69921Y947184D1*
X178404Y1141995D2*
Y1125404D1*
X121000Y1068000D1*
X1080513Y1008564D2*
Y1025912D1*
X1071472Y1034953D1*
X1027063D1*
X1013472Y1021362D1*
X345827Y721378D2*
X346205Y721000D1*
X528000D1*
X691000Y884000D1*
X933000D1*
X1013472Y964472D1*
Y1021362D1*
X1064766Y1079430D2*
Y1129656D1*
X1068063Y1132953D1*
X345827Y705630D2*
X392630D1*
X396000Y709000D1*
X537000D1*
X700000Y872000D1*
X1200000D1*
X1244000Y916000D1*
Y1118000D1*
X1172000Y1190000D1*
X1090000D1*
X1064000Y1164000D1*
Y1137016D1*
X1068063Y1132953D1*
X83000Y473000D2*
X101186D1*
Y471331D1*
X345827Y847362D2*
X344638D1*
X335000Y857000D1*
X65753Y503693D2*
Y518753D1*
X67000Y520000D1*
X345827Y737126D2*
X513126D1*
X520000Y744000D1*
X345827Y752874D2*
X483126D1*
X489252Y759000D1*
X495000D1*
X39000Y520000D2*
Y512386D1*
X30307Y503693D1*
X244315Y1031055D2*
Y992906D1*
X238404Y986995D1*
X264000Y1031055D2*
Y1012580D1*
X289585Y986995D1*
X422940Y1193005D2*
Y1168060D1*
X447000Y1144000D1*
X492000D1*
X510000Y1126000D1*
Y1057000D1*
X490000Y1037000D1*
X466346D1*
X345827Y674134D2*
X363871D1*
X393005Y645000D1*
X627000D1*
X716000Y734000D1*
Y791000D1*
X760465Y835465D1*
X769409D1*
X283685Y1031055D2*
Y1023315D1*
X297000Y1010000D1*
X333409D1*
X365000Y1041591D1*
X330000Y944000D2*
Y1006591D1*
X365000Y1041591D1*
X1216000Y92000D2*
Y70000D1*
X1195000Y49000D1*
X1156000D1*
X1121000Y84000D1*
Y266000D1*
X1123000D1*
X74173Y642638D2*
X31047D1*
X29000Y640591D1*
Y653000D1*
X42000Y666000D1*
X1112010Y1008564D2*
Y1027491D1*
X1118472Y1033953D1*
X1159457D1*
X1175000Y1018409D1*
X345827Y658386D2*
X361614D1*
X386995Y633005D1*
X642005D1*
X739000Y730000D1*
X811000D1*
X827000Y746000D1*
Y768535D1*
X820591D1*
X123386Y609173D2*
Y580472D1*
X123685D1*
X879173Y717598D2*
X828596D1*
X796995Y685997D1*
X787906D1*
Y690171D1*
X767165D1*
X755000Y678005D1*
Y655997D1*
X139134Y609173D2*
Y591866D1*
X154000Y577000D1*
Y567000D1*
X780000Y555997D2*
Y591745D1*
X787906D1*
X879173Y556312D2*
X780315D1*
X780000Y555997D1*
X178409Y1448000D2*
X162000D1*
X106591D1*
X104402Y1494850D2*
Y1450189D1*
X106591Y1448000D1*
X169693Y1355000D2*
Y1260252D1*
X171945Y1258000D1*
X169693Y1355000D2*
X40000D1*
X23000Y1372000D1*
Y1488252D1*
X29598Y1494850D1*
X415165Y1121000D2*
Y1079000D1*
Y1121000D2*
X403255D1*
Y1193005D1*
X229591Y1448000D2*
Y1411000D1*
Y1381717D1*
X256307Y1355000D1*
X356000D1*
X403000Y1308000D1*
Y1193260D1*
X403255Y1193005D1*
X796955D2*
Y1175045D1*
X823000Y1149000D1*
Y1128591D1*
X825000Y1126591D1*
X867559Y1126886D2*
Y1162559D1*
X875696Y1170696D1*
Y1193005D1*
X576000Y1136465D2*
Y1144000D1*
X552000Y1168000D1*
X466000D1*
X462310Y1171690D1*
Y1193005D1*
X576000Y1069535D2*
Y1077000D1*
X612000Y1113000D1*
Y1149000D1*
X1025000Y1236000D2*
X1068307D1*
X1069000Y1236693D1*
Y1323307D2*
Y1324307D1*
X1143000D1*
X823000Y915504D2*
X839504D1*
X858386Y934386D1*
X913000D1*
X823000Y915504D2*
X807496Y900000D1*
X709000D1*
X686000Y923000D1*
Y1151000D1*
X688000D1*
X633000Y1225000D2*
Y1338000D1*
X595000Y1376000D1*
X72000Y1374000D2*
Y1395627D1*
X69013Y1398614D1*
X852465Y1024000D2*
Y978496D1*
X842685D1*
X74173Y847362D2*
X58535Y863000D1*
X54000D1*
X466937Y905000D2*
Y946819D1*
X466756Y947000D1*
X499000D1*
X541000Y989000D1*
Y1137000D1*
X533000Y1145000D1*
X531000D1*
X533000Y1147000D1*
X182404Y1177585D2*
D14*
Y1172995D1*
X122507D1*
X69924Y1120412D1*
X296614Y880827D2*
D13*
Y896614D1*
X307000Y907000D1*
X337000D1*
X347000Y897000D1*
Y900000D1*
X714000Y922000D2*
X719000D1*
X724000Y927000D1*
Y1140000D1*
X757585Y1173585D1*
Y1193005D1*
X74173Y831614D2*
X58386D1*
X18000Y872000D1*
Y1321000D1*
X25000Y1328000D1*
X777270Y1193005D2*
Y1132320D1*
X783000Y1126591D1*
X777270Y1193005D2*
X776000Y1194276D1*
Y1281000D1*
X716000Y1341000D1*
X280866Y880827D2*
Y897866D1*
X305000Y922000D1*
X335000D1*
X362000Y949000D1*
X265118Y880827D2*
Y899118D1*
X288000Y922000D1*
Y940000D1*
X291000Y937000D1*
X1146000Y670000D2*
X924000D1*
X909000Y655000D1*
Y510000D1*
X249370Y880827D2*
Y900370D1*
X265000Y916000D1*
Y938000D1*
X123386Y880827D2*
Y896614D1*
X110000Y910000D1*
X87000D1*
X170630Y880827D2*
Y901370D1*
X167000Y905000D1*
Y914000D1*
X878000Y793000D2*
X898000Y773000D1*
Y774000D1*
X916000Y756000D1*
X1004395D1*
X1016391Y767996D1*
Y822139D1*
X186378Y880827D2*
Y921622D1*
X167000Y941000D1*
X1182000Y837000D2*
Y832000D1*
X1171995Y821995D1*
X1158005D1*
X233622Y880827D2*
Y905622D1*
X244000Y916000D1*
Y922000D1*
X705000Y1001000D2*
Y1141000D1*
X737900Y1173900D1*
Y1193005D1*
X345827Y800118D2*
X364121D1*
X401003Y837000D1*
X598000D1*
X1132415Y821995D2*
Y852585D1*
X1125315Y859685D1*
X997690D1*
X990801Y852795D1*
Y822139D1*
Y796801D1*
X969000Y775000D1*
X345827Y784370D2*
X366370D1*
X407000Y825000D1*
X559000D1*
X581000Y803000D1*
X586000Y798000D1*
X648000Y860000D1*
Y1150000D1*
X619790Y1178210D1*
Y1193005D1*
X939619Y589856D2*
Y521381D1*
X952000Y509000D1*
X1072000D1*
X1081000Y518000D1*
Y589478D1*
X1081234Y589711D1*
X581000Y803000D2*
X580000D1*
X939619Y589856D2*
Y633381D1*
X938000Y635000D1*
X217874Y880827D2*
X217000D1*
Y917000D1*
X218000Y918000D1*
X639475Y1193005D2*
Y1177525D1*
X667000Y1150000D1*
Y1013000D1*
X1189000Y673000D2*
X1154000Y638000D1*
X1106824D1*
X976000D1*
X965000Y627000D1*
Y590066D1*
X965210Y589856D1*
X1106824Y589711D2*
Y638000D1*
X345827Y831614D2*
X361614D1*
X392000Y862000D1*
X516000D1*
X522000Y868000D1*
X345827Y815866D2*
X362866D1*
X396000Y849000D1*
X539000D1*
X557000Y867000D1*
X372000Y878000D2*
X315189D1*
X312362Y880827D1*
X878000Y907000D2*
X888000Y897000D1*
X919000D1*
X977000Y955000D1*
Y1150000D1*
X1030000Y1203000D1*
X1158000D1*
X1192000Y1237000D1*
Y1578000D1*
X1227000Y1613000D1*
X1277606D1*
X1281000Y1609606D1*
X264000Y1102945D2*
D14*
Y1122591D1*
X283404Y1141995D1*
X365000Y990409D2*
D17*
X388000Y1013409D1*
Y1148000D1*
X369005Y1166995D1*
X283404D1*
D14*
Y1141995D1*
X233585Y1177585D2*
Y1172995D1*
X277404D1*
X283404Y1166995D1*
X415575Y947000D2*
Y944000D1*
D17*
X418000D1*
Y948000D1*
X390000D1*
X365000Y973000D1*
Y990409D1*
X233585Y1177585D2*
D14*
Y1185000D1*
X313000D1*
X381000Y1253000D1*
X383000D1*
X1166787Y92000D2*
X1169000Y89787D1*
Y103000D1*
X1187000Y121000D1*
Y149000D1*
X1234000Y196000D1*
Y309000D1*
X1235000D1*
X107638Y880827D2*
D13*
Y871000D1*
X91000D1*
X88000Y874000D1*
X743000Y1051000D2*
X742000D1*
X769000Y1024000D1*
X785535D1*
X154882Y609173D2*
Y593118D1*
X169000Y579000D1*
X186000D1*
X197000Y568000D1*
X1283007Y425997D2*
X1114003D1*
X1051000Y489000D1*
D16*
X1161000Y925000D3*
X1059000Y893000D3*
X1202472Y1071953D3*
X1017000Y1160000D3*
X1117472Y1160953D3*
X130000Y825000D3*
X54000Y863000D3*
X67000Y520000D3*
X125000Y510000D3*
X123685Y580472D3*
X154000Y567000D3*
X520000Y744000D3*
X130000Y785000D3*
X83000Y473000D3*
X213000Y546000D3*
X1221995Y1348997D3*
D57*
X683005Y466995D3*
D16*
X969000Y775000D3*
X495000Y759000D3*
X39000Y520000D3*
D57*
X533005Y466995D3*
D16*
X335000Y857000D3*
X50000Y572000D3*
X248706Y1066995D3*
X278706D3*
X130000Y745000D3*
X197000Y568000D3*
D57*
X683005Y436995D3*
X533005D3*
X683005Y406995D3*
D16*
X130000Y705000D3*
Y665000D3*
X170000Y825000D3*
Y785000D3*
Y745000D3*
X205990Y1111995D3*
X223995D3*
X170000Y705000D3*
X1051000Y489000D3*
X348005Y1314003D3*
Y1269003D3*
X580000Y803000D3*
X359003Y1291995D3*
X990000Y1314003D3*
X938000Y635000D3*
D57*
X683005Y376995D3*
X923005Y466995D3*
D16*
X1041000Y589000D3*
D57*
X67000Y377000D3*
X924005Y436995D3*
X713005Y466995D3*
Y436995D3*
Y406995D3*
X36995Y376995D3*
D16*
X359000Y1142000D3*
D57*
X36995Y346995D3*
Y316995D3*
D16*
X743000Y1051000D3*
X847060Y666417D3*
X846995Y606995D3*
X170000Y665000D3*
X210000Y825000D3*
Y785000D3*
D57*
X713005Y376995D3*
D16*
X210000Y745000D3*
Y705000D3*
D57*
X713005Y346995D3*
Y316995D3*
D16*
X210000Y665000D3*
X1221995Y1318997D3*
X250000Y825000D3*
D57*
X593005Y466995D3*
Y436995D3*
D16*
X1004003Y1291995D3*
X980000D3*
X400000Y547000D3*
X452000Y806000D3*
X413000Y690000D3*
X25000Y838000D3*
X34000Y735000D3*
X1046000Y558000D3*
D57*
X593005Y406995D3*
D16*
X1221995Y1262003D3*
D57*
X593005Y376995D3*
D16*
X1190000Y531000D3*
X318706Y1066995D3*
X208706D3*
X1135000Y775000D3*
X919000Y822000D3*
X250000Y785000D3*
X42000Y666000D3*
X250000Y745000D3*
Y705000D3*
Y665000D3*
X290000Y825000D3*
D57*
X66995Y346995D3*
Y316995D3*
D16*
X290000Y785000D3*
Y745000D3*
Y705000D3*
Y665000D3*
X522000Y868000D3*
X557000Y867000D3*
X598000Y837000D3*
X1143000Y1269000D3*
X443000Y1231000D3*
D57*
X533005Y406995D3*
Y376995D3*
X96995D3*
Y346995D3*
Y316995D3*
X533005Y346995D3*
Y316995D3*
X563005Y466995D3*
Y436995D3*
Y406995D3*
Y376995D3*
Y346995D3*
Y316995D3*
X653000Y347000D3*
X923005Y376995D3*
D16*
X1221995Y1232003D3*
D57*
X126995Y376995D3*
Y346995D3*
Y316995D3*
Y406995D3*
X156995D3*
D16*
X938000Y1001000D3*
D57*
X623005Y466995D3*
Y436995D3*
Y406995D3*
Y376995D3*
X923005Y346995D3*
Y316995D3*
X653005Y466995D3*
X156995Y376995D3*
Y346995D3*
Y316995D3*
X653005Y436995D3*
Y406995D3*
Y376995D3*
X953005Y466995D3*
Y436995D3*
X186995Y466995D3*
Y436995D3*
Y406995D3*
X953005Y376995D3*
Y346995D3*
Y316995D3*
X743005Y466995D3*
X740005Y436995D3*
Y406995D3*
X743005Y376995D3*
Y346995D3*
Y316995D3*
X186995Y376995D3*
Y346995D3*
Y316995D3*
X924000Y407000D3*
X833000Y437000D3*
Y407000D3*
X773005Y376995D3*
X216995Y465997D3*
Y436995D3*
Y406995D3*
Y376995D3*
Y346995D3*
Y316995D3*
X773005Y346995D3*
X803005Y466995D3*
X833000Y377000D3*
X246995Y465997D3*
Y436995D3*
Y406995D3*
Y376995D3*
Y346995D3*
Y316995D3*
D16*
X1280000Y1523000D3*
X121000Y1068000D3*
D57*
X276995Y466995D3*
Y436995D3*
Y406995D3*
Y376995D3*
Y346995D3*
Y316995D3*
X353005Y466995D3*
Y436995D3*
Y406995D3*
Y376995D3*
Y346995D3*
Y316995D3*
X833005Y466995D3*
X862000Y437000D3*
X383005Y466995D3*
Y436995D3*
Y406995D3*
Y376995D3*
Y346995D3*
Y316995D3*
D16*
X61000Y996000D3*
Y1065000D3*
D57*
X863005Y466995D3*
X862000Y407000D3*
X413005Y466995D3*
Y436995D3*
Y406995D3*
Y376995D3*
Y346995D3*
Y316995D3*
D16*
X956000Y1051000D3*
D57*
X863000Y377000D3*
Y347000D3*
Y317000D3*
X443005Y466995D3*
Y436995D3*
Y406995D3*
Y376995D3*
Y346995D3*
Y316995D3*
X953000Y407000D3*
X802995Y347005D3*
D16*
X633000Y1225000D3*
D57*
X893005Y376995D3*
X473005Y466995D3*
Y436995D3*
Y406995D3*
Y376995D3*
Y346995D3*
X893005D3*
X653000Y317000D3*
D16*
X887000Y1224000D3*
D57*
X503005Y466995D3*
Y436995D3*
Y406995D3*
Y376995D3*
Y346995D3*
Y316995D3*
D16*
X748000Y999000D3*
D57*
X683000Y347000D3*
Y317000D3*
X593000Y347000D3*
X623000D3*
Y317000D3*
D16*
X25000Y1328000D3*
X1190000Y590000D3*
X488756Y1070000D3*
X489000Y671000D3*
X484000Y799000D3*
X451000Y547000D3*
X384000Y1219000D3*
X501680Y1232087D3*
X521365D3*
X541050D3*
X560735D3*
X580420D3*
X659160Y1219087D3*
X678845D3*
X698530D3*
X718215D3*
X915066Y1224087D3*
X954436D3*
X780000Y555997D3*
X755000Y655997D3*
X88000Y874000D3*
X87000Y910000D3*
X117000Y929000D3*
X119000Y959000D3*
X167000Y914000D3*
Y941000D3*
X362000Y949000D3*
X291000Y937000D3*
X170000Y1006000D3*
X347000Y900000D3*
X218000Y918000D3*
X244000Y922000D3*
X265000Y938000D3*
X372000Y878000D3*
X67000Y1548000D3*
X69000Y1623000D3*
X251000Y1259000D3*
X149360Y1411000D3*
X705000Y1001000D3*
X1182000Y837000D3*
X878000Y793000D3*
X1045000Y1058000D3*
X1162000Y976000D3*
X1214000Y398000D3*
X1126000Y496000D3*
X714000Y922000D3*
X667000Y1013000D3*
X1189000Y673000D3*
X533000Y1147000D3*
X330000Y944000D3*
X878000Y907000D3*
X1123000Y266000D3*
X383000Y1253000D3*
X1235000Y309000D3*
X688000Y1151000D3*
X595000Y1376000D3*
X72000Y1374000D3*
X612000Y1149000D3*
X1025000Y1236000D3*
X716000Y1341000D3*
X497000Y881000D3*
X751000Y1140000D3*
X737000Y774000D3*
X861000Y846000D3*
X57000Y1310000D3*
X1296194Y675512D3*
X166000Y968000D3*
D57*
X803000Y437000D3*
Y407000D3*
Y377000D3*
X802995Y317005D3*
X832995Y347005D3*
Y317005D3*
D16*
X1167000Y502000D3*
X1146000Y670000D3*
X909000Y510000D3*
X892000Y445000D3*
X773000Y446000D3*
X136999Y1139626D2*
D18*
X151487D1*
X136999Y1134757D2*
X151487D1*
X136999Y1129888D2*
X151487D1*
X108650Y1125020D2*
X151487D1*
X108650Y1120151D2*
X151487D1*
X108650Y1115282D2*
X187083D1*
X297799D2*
X360999D1*
X108650Y1110413D2*
X186858D1*
X297799D2*
X360999D1*
X108650Y1105545D2*
X187942D1*
X297799D2*
X360999D1*
X108650Y1100676D2*
X190609D1*
X297799D2*
X360999D1*
X43000Y1095807D2*
X196135D1*
X297799D2*
X360999D1*
X43000Y1090938D2*
X230198D1*
X297799D2*
X360999D1*
X43000Y1086070D2*
X226849D1*
X301150D2*
X360999D1*
X43000Y1081201D2*
X226849D1*
X301150D2*
X360999D1*
X43000Y1076332D2*
X226849D1*
X301150D2*
X360999D1*
X43000Y1071463D2*
X226849D1*
X301150D2*
X360999D1*
X43000Y1066594D2*
X226849D1*
X301150D2*
X342025D1*
X43000Y1061726D2*
X226849D1*
X301150D2*
X342025D1*
X43000Y1056857D2*
X226849D1*
X301150D2*
X342025D1*
X43000Y1051988D2*
X226849D1*
X301150D2*
X342025D1*
X43000Y1047119D2*
X226849D1*
X301150D2*
X342025D1*
X43000Y1042251D2*
X230198D1*
X297799D2*
X342025D1*
X43000Y1037382D2*
X230198D1*
X297799D2*
X342025D1*
X43000Y1032513D2*
X230198D1*
X297799D2*
X338899D1*
X43000Y1027644D2*
X177025D1*
X222975D2*
X230198D1*
X297799D2*
X334037D1*
X43000Y1022776D2*
X177025D1*
X222975D2*
X230198D1*
X301247D2*
X329163D1*
X43000Y1017907D2*
X177025D1*
X222975D2*
X230198D1*
X43000Y1013038D2*
X177025D1*
X222975D2*
X230198D1*
X43000Y1008169D2*
X177025D1*
X43000Y1003301D2*
X177025D1*
X43000Y998432D2*
X177025D1*
X43000Y993563D2*
X177025D1*
X43000Y988694D2*
X177025D1*
X43000Y983825D2*
X155541D1*
X43000Y978957D2*
X98001D1*
X43000Y974088D2*
X98001D1*
X309818Y1119528D2*
X297308Y1119518D1*
X297304Y1087703D1*
X300651Y1087705D1*
Y1046294D1*
X297304D1*
Y1026214D1*
X301865Y1021676D1*
X328592Y1021696D1*
X342521Y1035654D1*
X342524Y1068004D1*
X361517D1*
X361495Y1109495D1*
Y1144495D1*
X360999Y1144471D1*
Y1119518D1*
X308172Y1119520D1*
X222469Y1009471D2*
X230692D1*
X230651Y1046294D1*
X227350D1*
Y1087705D1*
X230696D1*
X230697Y1094543D1*
X228360Y1093814D1*
X225462Y1093356D1*
X222528D1*
X219630Y1093814D1*
X216840Y1094720D1*
X215010Y1095613D1*
X213144Y1094720D1*
X210354Y1093814D1*
X207457Y1093356D1*
X204522D1*
X201625Y1093814D1*
X198835Y1094720D1*
X196220Y1096052D1*
X193846Y1097777D1*
X191772Y1099852D1*
X190047Y1102226D1*
X188715Y1104840D1*
X187808Y1107630D1*
X187350Y1110528D1*
Y1113462D1*
X187808Y1116360D1*
X188715Y1119150D1*
X188886Y1119520D1*
X151991Y1119518D1*
Y1144508D1*
X136495Y1144495D1*
X136465Y1131604D1*
X136222Y1130860D1*
X135762Y1130227D1*
X135130Y1129768D1*
X134386Y1129525D1*
X133995Y1129495D1*
X108144Y1129496D1*
X108150Y1097934D1*
X42495D1*
X42500Y969667D1*
X98514Y969660D1*
X98530Y977391D1*
X98773Y978135D1*
X99232Y978768D1*
X99865Y979227D1*
X100609Y979470D1*
X101000Y979500D1*
X151264Y979499D1*
X152780Y981220D1*
X155010Y983126D1*
X157512Y984660D1*
X160222Y985782D1*
X163075Y986467D1*
X166000Y986697D1*
X168925Y986467D1*
X171778Y985782D1*
X174488Y984660D1*
X176990Y983126D1*
X177526Y982703D1*
X177524Y1032004D1*
X222476D1*
Y1009471D1*
X334585Y1141995D2*
D19*
Y1119528D1*
Y1141995D2*
X360990D1*
X178404D2*
Y1119528D1*
X152000Y1141995D2*
X178404D1*
X200000Y1031995D2*
Y1005591D1*
X177533D2*
X200000D1*
X69924Y969651D2*
Y947184D1*
X283685Y1102932D2*
X297294D1*
X227360Y1067000D2*
X300640D1*
X270559Y578894D2*
D18*
X272156D1*
X270345Y574025D2*
X274257D1*
X269026Y569156D2*
X276357D1*
X266975Y564287D2*
X278446D1*
X266975Y559419D2*
X280546D1*
X266975Y554550D2*
X282646D1*
X266975Y549681D2*
X284745D1*
X266975Y544812D2*
X286845D1*
X266975Y539944D2*
X288945D1*
X266975Y535075D2*
X290009D1*
X266975Y530206D2*
X290009D1*
X260921Y525337D2*
X290009D1*
X260715Y520469D2*
X290009D1*
X260501Y515600D2*
X290009D1*
X260286Y510731D2*
X290009D1*
X260081Y505862D2*
X290009D1*
X259866Y500993D2*
X290009D1*
X259651Y496125D2*
X290009D1*
X259437Y491256D2*
X290009D1*
X259231Y486387D2*
X290009D1*
X180979Y481518D2*
X290009D1*
X180979Y476650D2*
X290009D1*
X180979Y471781D2*
X290009D1*
X180979Y466912D2*
X290009D1*
X169798Y462043D2*
X290009D1*
X169798Y457175D2*
X290009D1*
X169798Y452306D2*
X290009D1*
X169798Y447437D2*
X290009D1*
X18753Y442568D2*
X41757D1*
X89749D2*
X290009D1*
X18762Y437699D2*
X38261D1*
X93245D2*
X290009D1*
X18773Y432831D2*
X35975D1*
X95530D2*
X290009D1*
X18782Y427962D2*
X34618D1*
X96887D2*
X290009D1*
X18791Y423093D2*
X34071D1*
X97434D2*
X290009D1*
X18791Y418224D2*
X34286D1*
X97219D2*
X290009D1*
X18802Y413356D2*
X35282D1*
X96223D2*
X290009D1*
X18811Y408487D2*
X37147D1*
X94358D2*
X290009D1*
X18822Y403618D2*
X40067D1*
X91438D2*
X290009D1*
X18831Y398749D2*
X44491D1*
X87025D2*
X290009D1*
X18841Y393881D2*
X51806D1*
X79701D2*
X290009D1*
X18850Y389012D2*
X290009D1*
X18850Y384143D2*
X290009D1*
X18861Y379274D2*
X290009D1*
X18870Y374406D2*
X290009D1*
X18879Y369537D2*
X290009D1*
X18890Y364668D2*
X290009D1*
X18899Y359799D2*
X290009D1*
X18909Y354930D2*
X290009D1*
X18919Y350062D2*
X290009D1*
X18919Y345193D2*
X290009D1*
X18929Y340324D2*
X290009D1*
X18938Y335455D2*
X290009D1*
X18949Y330587D2*
X290009D1*
X18958Y325718D2*
X290009D1*
X18967Y320849D2*
X290009D1*
X18978Y315980D2*
X290009D1*
X18978Y311112D2*
X290009D1*
X18987Y306243D2*
X290009D1*
X180479Y485467D2*
Y465172D1*
X169278D1*
X169290Y445999D1*
X169108Y445238D1*
X168699Y444571D1*
X168104Y444063D1*
X167382Y443764D1*
X166555Y443707D1*
X130694Y443694D1*
X130698Y443354D1*
X88539D1*
X90997Y440381D1*
X92360Y438344D1*
X93556Y436206D1*
X94581Y433980D1*
X95430Y431682D1*
X96094Y429324D1*
X96573Y426921D1*
X96861Y424488D1*
X96957Y422039D1*
X96861Y419591D1*
X96573Y417157D1*
X96094Y414755D1*
X95430Y412396D1*
X94581Y410098D1*
X93556Y407873D1*
X92360Y405735D1*
X90997Y403698D1*
X89480Y401774D1*
X87818Y399975D1*
X86018Y398312D1*
X84094Y396795D1*
X82058Y395433D1*
X79920Y394236D1*
X77694Y393211D1*
X75396Y392362D1*
X73038Y391698D1*
X70635Y391219D1*
X68202Y390932D1*
X65753Y390836D1*
X63304Y390932D1*
X60871Y391219D1*
X58469Y391698D1*
X56110Y392362D1*
X53812Y393211D1*
X51587Y394236D1*
X49449Y395433D1*
X47412Y396795D1*
X45488Y398312D1*
X43689Y399975D1*
X42026Y401774D1*
X40509Y403698D1*
X39147Y405735D1*
X37950Y407873D1*
X36925Y410098D1*
X36076Y412396D1*
X35412Y414755D1*
X34933Y417157D1*
X34646Y419591D1*
X34550Y422039D1*
X34646Y424488D1*
X34933Y426921D1*
X35412Y429324D1*
X36076Y431682D1*
X36925Y433980D1*
X37950Y436206D1*
X39147Y438344D1*
X40509Y440381D1*
X42026Y442304D1*
X43319Y443703D1*
X18252Y443698D1*
X18497Y304495D1*
X290505D1*
Y537520D1*
X270059Y584911D1*
X270068Y576961D1*
X270005Y575337D1*
X269814Y573723D1*
X269497Y572129D1*
X269055Y570564D1*
X268493Y569039D1*
X267812Y567563D1*
X266761Y565760D1*
X266479Y563007D1*
Y527175D1*
X260493D1*
X258781Y487753D1*
X258566Y487001D1*
X258127Y486353D1*
X257512Y485871D1*
X256777Y485604D1*
X256064Y485571D1*
X180472Y485446D1*
X306612Y582894D2*
X310114D1*
X310888Y578025D2*
X315709D1*
X315176Y573156D2*
X321315D1*
X319463Y568287D2*
X326911D1*
X323740Y563419D2*
X332516D1*
X328028Y558550D2*
X338112D1*
X332304Y553681D2*
X343707D1*
X336592Y548812D2*
X349312D1*
X339991Y543944D2*
X354908D1*
X339991Y539075D2*
X367848D1*
X339991Y534206D2*
X383102D1*
X339991Y529337D2*
X393366D1*
X339991Y524469D2*
X896656D1*
X921339D2*
X927438D1*
X339991Y519600D2*
X892457D1*
X925547D2*
X927571D1*
X339991Y514731D2*
X890407D1*
X927588D2*
X929518D1*
X339991Y509862D2*
X889801D1*
X928194D2*
X934118D1*
X339991Y504993D2*
X890484D1*
X927510D2*
X938980D1*
X339991Y500125D2*
X892623D1*
X925381D2*
X943903D1*
X339991Y495256D2*
X896999D1*
X920996D2*
X1032877D1*
X339991Y490387D2*
X1031852D1*
X339991Y485518D2*
X1032125D1*
X339991Y480650D2*
X1033776D1*
X339991Y475781D2*
X1037282D1*
X339991Y470912D2*
X1045768D1*
X339991Y466043D2*
X1056930D1*
X339991Y461175D2*
X761579D1*
X784424D2*
X882125D1*
X901875D2*
X1056999D1*
X339991Y456306D2*
X756900D1*
X789102D2*
X876608D1*
X907392D2*
X1056999D1*
X339991Y451437D2*
X754615D1*
X791387D2*
X873942D1*
X910059D2*
X1056999D1*
X339991Y446568D2*
X753815D1*
X792188D2*
X872867D1*
X911133D2*
X1056999D1*
X339991Y441699D2*
X754303D1*
X791699D2*
X873092D1*
X910908D2*
X1056999D1*
X339991Y436831D2*
X756207D1*
X789795D2*
X874684D1*
X909316D2*
X1056999D1*
X339991Y431962D2*
X760152D1*
X785850D2*
X878102D1*
X905899D2*
X1056999D1*
X339991Y427093D2*
X886119D1*
X897881D2*
X1056999D1*
X339991Y422224D2*
X1056999D1*
X339991Y417356D2*
X1056999D1*
X339991Y412487D2*
X1056999D1*
X339991Y407618D2*
X1056999D1*
X339991Y402749D2*
X1056999D1*
X339991Y397881D2*
X1056999D1*
X339991Y393012D2*
X1056999D1*
X339991Y388143D2*
X1056999D1*
X339991Y383274D2*
X1056999D1*
X339991Y378406D2*
X1056999D1*
X339991Y373537D2*
X1056999D1*
X339991Y368668D2*
X1056999D1*
X339991Y363799D2*
X1056999D1*
X339991Y358930D2*
X1056999D1*
X339991Y354062D2*
X1056999D1*
X339991Y349193D2*
X1056999D1*
X339991Y344324D2*
X1056999D1*
X339991Y339455D2*
X1056999D1*
X339991Y334587D2*
X1056999D1*
X339991Y329718D2*
X1056999D1*
X339991Y324849D2*
X1056999D1*
X339991Y319980D2*
X1056999D1*
X339991Y315112D2*
X1056999D1*
X339991Y310243D2*
X1056999D1*
X339991Y305374D2*
X1056999D1*
X309173Y584161D2*
X307713Y584703D1*
X305530Y585783D1*
X304479Y586508D1*
X304790Y584392D1*
X339108Y545340D1*
X339417Y544622D1*
X339482Y543766D1*
X339495Y404003D1*
Y304495D1*
X1057500Y304500D1*
Y465975D1*
X1053038Y470421D1*
X1051000Y470303D1*
X1048075Y470533D1*
X1045222Y471218D1*
X1042512Y472340D1*
X1040010Y473874D1*
X1037780Y475780D1*
X1035874Y478010D1*
X1034340Y480512D1*
X1033218Y483222D1*
X1032533Y486075D1*
X1032303Y489000D1*
X1032533Y491925D1*
X1033218Y494778D1*
X1034261Y497316D1*
X952000Y497304D1*
X950171Y497448D1*
X948386Y497877D1*
X946690Y498579D1*
X945125Y499538D1*
X943730Y500730D1*
X943503Y500975D1*
X931349Y513110D1*
X930157Y514505D1*
X929198Y516071D1*
X928496Y517766D1*
X928067Y519551D1*
X927924Y521381D1*
X927937Y521714D1*
X927924Y527504D1*
X920696Y527500D1*
Y524580D1*
X922220Y523220D1*
X924126Y520990D1*
X925660Y518488D1*
X926782Y515778D1*
X927467Y512925D1*
X927697Y510000D1*
X927467Y507075D1*
X926782Y504222D1*
X925660Y501512D1*
X924126Y499010D1*
X922220Y496780D1*
X919990Y494874D1*
X917488Y493340D1*
X914778Y492218D1*
X911925Y491533D1*
X909000Y491303D1*
X906075Y491533D1*
X903222Y492218D1*
X900512Y493340D1*
X898010Y494874D1*
X895780Y496780D1*
X893874Y499010D1*
X892340Y501512D1*
X891218Y504222D1*
X890533Y507075D1*
X890303Y510000D1*
X890533Y512925D1*
X891218Y515778D1*
X892340Y518488D1*
X893874Y520990D1*
X895780Y523220D1*
X897322Y524583D1*
X897304Y527509D1*
X404804Y527508D1*
X404010Y527705D1*
X401811Y528394D1*
X400000Y528303D1*
X397075Y528533D1*
X394222Y529218D1*
X391512Y530340D1*
X389010Y531874D1*
X387727Y532903D1*
X357060Y542685D1*
X356391Y543091D1*
X309134Y584180D1*
X308157Y584504D1*
X307382Y584878D1*
X910639Y443533D2*
X910181Y440635D1*
X909274Y437845D1*
X907942Y435231D1*
X906218Y432857D1*
X904143Y430782D1*
X901769Y429058D1*
X899155Y427726D1*
X896365Y426819D1*
X893467Y426361D1*
X890533D1*
X887635Y426819D1*
X884845Y427726D1*
X882231Y429058D1*
X879857Y430782D1*
X877782Y432857D1*
X876058Y435231D1*
X874726Y437845D1*
X873819Y440635D1*
X873361Y443533D1*
Y446467D1*
X873819Y449365D1*
X874726Y452155D1*
X876058Y454769D1*
X877782Y457143D1*
X879857Y459218D1*
X882231Y460942D1*
X884845Y462274D1*
X887635Y463181D1*
X890533Y463639D1*
X893467D1*
X896365Y463181D1*
X899155Y462274D1*
X901769Y460942D1*
X904143Y459218D1*
X906218Y457143D1*
X907942Y454769D1*
X909274Y452155D1*
X910181Y449365D1*
X910639Y446467D1*
Y443533D1*
X791639Y444533D2*
X791181Y441635D1*
X790274Y438845D1*
X788942Y436231D1*
X787218Y433857D1*
X785143Y431782D1*
X782769Y430058D1*
X780155Y428726D1*
X777365Y427819D1*
X774467Y427361D1*
X771533D1*
X768635Y427819D1*
X765845Y428726D1*
X763231Y430058D1*
X760857Y431782D1*
X758782Y433857D1*
X757058Y436231D1*
X755726Y438845D1*
X754819Y441635D1*
X754361Y444533D1*
Y447467D1*
X754819Y450365D1*
X755726Y453155D1*
X757058Y455769D1*
X758782Y458143D1*
X760857Y460218D1*
X763231Y461942D1*
X765845Y463274D1*
X768635Y464181D1*
X771533Y464639D1*
X774467D1*
X777365Y464181D1*
X780155Y463274D1*
X782769Y461942D1*
X785143Y460218D1*
X787218Y458143D1*
X788942Y455769D1*
X790274Y453155D1*
X791181Y450365D1*
X791639Y447467D1*
Y444533D1*
X287652Y588335D2*
D20*
X288550D1*
X286341Y587466D2*
X289206D1*
X284535Y586597D2*
X289862D1*
X281720Y585728D2*
X290517D1*
X282147Y584860D2*
X291173D1*
X282575Y583991D2*
X291829D1*
X283000Y583122D2*
X292484D1*
X283428Y582253D2*
X293140D1*
X283853Y581385D2*
X293797D1*
X284280Y580516D2*
X294450D1*
X284707Y579647D2*
X295106D1*
X285133Y578778D2*
X295762D1*
X285560Y577909D2*
X296419D1*
X285987Y577041D2*
X297073D1*
X286415Y576172D2*
X297730D1*
X286840Y575303D2*
X298386D1*
X287268Y574434D2*
X299041D1*
X287693Y573566D2*
X299697D1*
X288121Y572697D2*
X300353D1*
X288547Y571828D2*
X301007D1*
X288975Y570959D2*
X301663D1*
X289400Y570091D2*
X302320D1*
X289828Y569222D2*
X302974D1*
X290253Y568353D2*
X303630D1*
X290681Y567484D2*
X304286D1*
X291108Y566615D2*
X304941D1*
X291535Y565747D2*
X305597D1*
X291961Y564878D2*
X306253D1*
X292388Y564009D2*
X306907D1*
X292815Y563140D2*
X307564D1*
X293243Y562272D2*
X308220D1*
X293668Y561403D2*
X308874D1*
X294096Y560534D2*
X309530D1*
X294521Y559665D2*
X310186D1*
X294949Y558797D2*
X310841D1*
X295375Y557928D2*
X311497D1*
X295803Y557059D2*
X312154D1*
X296228Y556190D2*
X312808D1*
X296655Y555322D2*
X313465D1*
X297083Y554453D2*
X314121D1*
X297508Y553584D2*
X314774D1*
X297936Y552715D2*
X315430D1*
X298361Y551846D2*
X316087D1*
X298789Y550978D2*
X316741D1*
X299215Y550109D2*
X317398D1*
X299643Y549240D2*
X318054D1*
X300068Y548371D2*
X318709D1*
X300496Y547503D2*
X319365D1*
X300921Y546634D2*
X320021D1*
X301349Y545765D2*
X320675D1*
X301776Y544896D2*
X321331D1*
X302203Y544028D2*
X321987D1*
X302629Y543159D2*
X322642D1*
X303056Y542290D2*
X323298D1*
X303483Y541421D2*
X323954D1*
X303911Y540552D2*
X324400D1*
X304336Y539684D2*
X324400D1*
X304764Y538815D2*
X324400D1*
X305189Y537946D2*
X324400D1*
X305600Y537077D2*
X324400D1*
X305600Y536209D2*
X324400D1*
X305600Y535340D2*
X324400D1*
X305600Y534471D2*
X324400D1*
X305600Y533602D2*
X324400D1*
X305600Y532734D2*
X324400D1*
X305600Y531865D2*
X324400D1*
X305600Y530996D2*
X324400D1*
X305600Y530127D2*
X324400D1*
X305600Y529259D2*
X324400D1*
X305600Y528390D2*
X324400D1*
X305600Y527521D2*
X324400D1*
X305600Y526652D2*
X324400D1*
X305600Y525783D2*
X324400D1*
X305600Y524915D2*
X324400D1*
X305600Y524046D2*
X324400D1*
X305600Y523177D2*
X324400D1*
X305600Y522308D2*
X324400D1*
X305600Y521440D2*
X324400D1*
X305600Y520571D2*
X324400D1*
X305600Y519702D2*
X324400D1*
X305600Y518833D2*
X324400D1*
X305600Y517965D2*
X324400D1*
X305600Y517096D2*
X324400D1*
X305600Y516227D2*
X324400D1*
X305600Y515358D2*
X324400D1*
X305600Y514490D2*
X324400D1*
X305600Y513621D2*
X324400D1*
X305600Y512752D2*
X324400D1*
X305600Y511883D2*
X324400D1*
X305600Y511014D2*
X324400D1*
X305600Y510146D2*
X324400D1*
X305600Y509277D2*
X324400D1*
X305600Y508408D2*
X324400D1*
X305600Y507539D2*
X324400D1*
X305600Y506671D2*
X324400D1*
X305600Y505802D2*
X324400D1*
X305600Y504933D2*
X324400D1*
X305600Y504064D2*
X324400D1*
X305600Y503196D2*
X324400D1*
X305600Y502327D2*
X324400D1*
X305600Y501458D2*
X324400D1*
X305600Y500589D2*
X324400D1*
X305600Y499720D2*
X324400D1*
X305600Y498852D2*
X324400D1*
X305600Y497983D2*
X324400D1*
X305600Y497114D2*
X324400D1*
X305600Y496245D2*
X324400D1*
X305600Y495377D2*
X324400D1*
X305600Y494508D2*
X324400D1*
X305600Y493639D2*
X324400D1*
X305600Y492770D2*
X324400D1*
X305600Y491902D2*
X324400D1*
X305600Y491033D2*
X324400D1*
X305600Y490164D2*
X324400D1*
X305600Y489295D2*
X324400D1*
X305600Y488427D2*
X324400D1*
X305600Y487558D2*
X324400D1*
X305600Y486689D2*
X324400D1*
X305600Y485820D2*
X324400D1*
X305600Y484951D2*
X324400D1*
X305600Y484083D2*
X324400D1*
X305600Y483214D2*
X324400D1*
X305600Y482345D2*
X324400D1*
X305600Y481476D2*
X324400D1*
X305600Y480608D2*
X324400D1*
X305600Y479739D2*
X324400D1*
X305600Y478870D2*
X324400D1*
X305600Y478001D2*
X324400D1*
X305600Y477133D2*
X324400D1*
X305600Y476264D2*
X324400D1*
X305600Y475395D2*
X324400D1*
X305600Y474526D2*
X324400D1*
X305600Y473657D2*
X324400D1*
X305600Y472789D2*
X324400D1*
X305600Y471920D2*
X324400D1*
X305600Y471051D2*
X324400D1*
X305600Y470182D2*
X324400D1*
X305600Y469314D2*
X324400D1*
X305600Y468445D2*
X324400D1*
X305600Y467576D2*
X324400D1*
X305600Y466707D2*
X324400D1*
X305600Y465839D2*
X324400D1*
X305600Y464970D2*
X324400D1*
X305600Y464101D2*
X324400D1*
X305600Y463232D2*
X324400D1*
X305600Y462364D2*
X324400D1*
X305600Y461495D2*
X324400D1*
X305600Y460626D2*
X324400D1*
X305600Y459757D2*
X324400D1*
X305600Y458888D2*
X324400D1*
X305600Y458020D2*
X324400D1*
X305600Y457151D2*
X324400D1*
X305600Y456282D2*
X324400D1*
X305600Y455413D2*
X324400D1*
X305600Y454545D2*
X324400D1*
X305600Y453676D2*
X324400D1*
X305600Y452807D2*
X324400D1*
X305600Y451938D2*
X324400D1*
X305600Y451070D2*
X324400D1*
X305600Y450201D2*
X324400D1*
X305600Y449332D2*
X324400D1*
X305600Y448463D2*
X324400D1*
X305600Y447594D2*
X324400D1*
X305600Y446726D2*
X324400D1*
X305600Y445857D2*
X324400D1*
X305600Y444988D2*
X324400D1*
X305600Y444119D2*
X324400D1*
X305600Y443251D2*
X324400D1*
X305600Y442382D2*
X324400D1*
X305600Y441513D2*
X324400D1*
X305600Y440644D2*
X324400D1*
X305600Y439776D2*
X324400D1*
X305600Y438907D2*
X324400D1*
X305600Y438038D2*
X324400D1*
X305600Y437169D2*
X324400D1*
X305600Y436301D2*
X324400D1*
X305600Y435432D2*
X324400D1*
X305600Y434563D2*
X324400D1*
X305600Y433694D2*
X324400D1*
X305600Y432825D2*
X324400D1*
X305600Y431957D2*
X324400D1*
X305600Y431088D2*
X324400D1*
X305600Y430219D2*
X324400D1*
X305600Y429350D2*
X324400D1*
X305600Y428482D2*
X324400D1*
X305600Y427613D2*
X324400D1*
X305600Y426744D2*
X324400D1*
X305600Y425875D2*
X324400D1*
X305600Y425007D2*
X324400D1*
X305600Y424138D2*
X324400D1*
X305600Y423269D2*
X324400D1*
X305600Y422400D2*
X324400D1*
X305600Y421531D2*
X324400D1*
X305600Y420663D2*
X324400D1*
X305600Y419794D2*
X324400D1*
X305600Y418925D2*
X324400D1*
X305600Y418056D2*
X324400D1*
X305600Y417188D2*
X324400D1*
X305600Y416319D2*
X324400D1*
X305600Y415450D2*
X324400D1*
X305600Y414581D2*
X324400D1*
X305600Y413713D2*
X324400D1*
X305600Y412844D2*
X324400D1*
X305600Y411975D2*
X324400D1*
X305600Y411106D2*
X324400D1*
X305600Y410238D2*
X324400D1*
X305600Y409369D2*
X324400D1*
X305600Y408500D2*
X324400D1*
X305600Y407631D2*
X324400D1*
X305600Y406762D2*
X324400D1*
X305600Y405894D2*
X324400D1*
X305600Y405025D2*
X324400D1*
X305600Y404156D2*
X324400D1*
X305600Y403287D2*
X324400D1*
X305600Y402419D2*
X324400D1*
X305600Y401550D2*
X324400D1*
X305600Y400681D2*
X324400D1*
X305600Y399812D2*
X324400D1*
X305600Y398944D2*
X324400D1*
X305600Y398075D2*
X324400D1*
X305600Y397206D2*
X324400D1*
X305600Y396337D2*
X324400D1*
X305600Y395469D2*
X324400D1*
X305600Y394600D2*
X324400D1*
X305600Y393731D2*
X324400D1*
X305600Y392862D2*
X324400D1*
X305600Y391993D2*
X324400D1*
X305600Y391125D2*
X324400D1*
X305600Y390256D2*
X324400D1*
X305600Y389387D2*
X324400D1*
X305600Y388518D2*
X324400D1*
X305600Y387650D2*
X324400D1*
X305600Y386781D2*
X324400D1*
X305600Y385912D2*
X324400D1*
X305600Y385043D2*
X324400D1*
X305600Y384175D2*
X324400D1*
X305600Y383306D2*
X324400D1*
X305600Y382437D2*
X324400D1*
X305600Y381568D2*
X324400D1*
X305600Y380699D2*
X324400D1*
X305600Y379831D2*
X324400D1*
X305600Y378962D2*
X324400D1*
X305600Y378093D2*
X324400D1*
X305600Y377224D2*
X324400D1*
X305600Y376356D2*
X324400D1*
X305600Y375487D2*
X324400D1*
X305600Y374618D2*
X324400D1*
X305600Y373749D2*
X324400D1*
X305600Y372881D2*
X324400D1*
X305600Y372012D2*
X324400D1*
X305600Y371143D2*
X324400D1*
X305600Y370274D2*
X324400D1*
X305600Y369406D2*
X324400D1*
X305600Y368537D2*
X324400D1*
X305600Y367668D2*
X324400D1*
X305600Y366799D2*
X324400D1*
X305600Y365930D2*
X324400D1*
X305600Y365062D2*
X324400D1*
X305600Y364193D2*
X324400D1*
X305600Y363324D2*
X324400D1*
X305600Y362455D2*
X324400D1*
X305600Y361587D2*
X324400D1*
X305600Y360718D2*
X324400D1*
X305600Y359849D2*
X324400D1*
X305600Y358980D2*
X324400D1*
X305600Y358112D2*
X324400D1*
X305600Y357243D2*
X324400D1*
X305600Y356374D2*
X324400D1*
X305600Y355505D2*
X324400D1*
X305600Y354636D2*
X324400D1*
X305600Y353768D2*
X324400D1*
X305600Y352899D2*
X324400D1*
X305600Y352030D2*
X324400D1*
X305600Y351161D2*
X324400D1*
X305600Y350293D2*
X324400D1*
X305600Y349424D2*
X324400D1*
X305600Y348555D2*
X324400D1*
X305600Y347686D2*
X324400D1*
X305600Y346818D2*
X324400D1*
X305600Y345949D2*
X324400D1*
X305600Y345080D2*
X324400D1*
X305600Y344211D2*
X324400D1*
X305600Y343343D2*
X324400D1*
X305600Y342474D2*
X324400D1*
X305600Y341605D2*
X324400D1*
X305600Y340736D2*
X324400D1*
X305600Y339867D2*
X324400D1*
X305600Y338999D2*
X324400D1*
X305600Y338130D2*
X324400D1*
X305600Y337261D2*
X324400D1*
X305600Y336392D2*
X324400D1*
X305600Y335524D2*
X324400D1*
X305600Y334655D2*
X324400D1*
X305600Y333786D2*
X324400D1*
X305600Y332917D2*
X324400D1*
X305600Y332049D2*
X324400D1*
X305600Y331180D2*
X324400D1*
X305600Y330311D2*
X324400D1*
X305600Y329442D2*
X324400D1*
X305600Y328573D2*
X324400D1*
X305487Y328531D2*
X324513D1*
X324500Y330003D1*
Y540853D1*
X323999Y541495D1*
X288185Y588953D1*
X288176Y588921D1*
X287827Y588564D1*
X287451Y588234D1*
X287052Y587932D1*
X286631Y587663D1*
X285707Y587193D1*
X284579Y586650D1*
X284121Y586450D1*
X283648Y586286D1*
X283165Y586159D1*
X282673Y586068D1*
X282176Y586017D1*
X281467Y586013D1*
X281743Y586003D1*
X281471D1*
X281857Y585244D1*
X305478Y537142D1*
X305500Y536987D1*
X305487Y536882D1*
X305500Y536995D1*
Y328531D1*
X315000Y328530D2*
D19*
Y311995D1*
D24*
D3*
X42008Y261995D3*
D88*
X180000Y161995D3*
D26*
X283404Y1141995D3*
X334585D3*
X238404Y986995D3*
X289585D3*
X229585Y1141995D3*
X178404D3*
X1070669Y925890D3*
X1121850D3*
D27*
X1175000Y1018409D3*
Y1069591D3*
D26*
X1119882Y1132583D3*
X1171063D3*
X1070669Y965260D3*
X1121850D3*
D27*
X149000Y500588D3*
Y449407D3*
D26*
X411241Y671241D3*
X462423D3*
D27*
X235000Y562591D3*
Y511409D3*
D26*
X398294Y566509D3*
X449475D3*
X398294Y609396D3*
X449475D3*
X115591Y550000D3*
X64409D3*
X402409Y776000D3*
X453591D3*
D27*
X200000Y954409D3*
Y1005591D3*
X29000Y813591D3*
Y762409D3*
X879173Y556312D3*
Y607493D3*
D26*
X987819Y534000D3*
X1039000D3*
X1115000Y531995D3*
X1166181D3*
D27*
X879173Y717598D3*
Y666417D3*
X29000Y640591D3*
Y589409D3*
D26*
X41409Y1654000D3*
X92591D3*
X229591Y1411000D3*
X178409D3*
D27*
X867559Y1126886D3*
Y1075705D3*
X910118Y1126886D3*
Y1075705D3*
X952677Y1126886D3*
Y1075705D3*
D26*
X415165Y1121000D3*
X466346D3*
X415165Y1079000D3*
X466346D3*
Y1037000D3*
X415165D3*
X466756Y995000D3*
X415575D3*
D28*
X256307Y1355000D3*
X169693D3*
X1069000Y1323307D3*
Y1236693D3*
X1143000Y1237693D3*
Y1324307D3*
X913000Y1021000D3*
Y934386D3*
D29*
X69008Y1225386D3*
Y1398614D3*
D30*
X1265213Y92000D3*
D33*
X1216000D3*
X1166787D3*
D30*
X1281000Y1560394D3*
D33*
Y1609606D3*
D29*
X69919Y947184D3*
Y1120412D3*
D34*
X954436Y1193005D3*
X934751D3*
X915066D3*
X895381D3*
X875696D3*
X856010D3*
X836325D3*
X816640D3*
X796955D3*
X777270D3*
X757585D3*
X737900D3*
X718215D3*
X698530D3*
X678845D3*
X659160D3*
X639475D3*
X619790D3*
X600105D3*
X580420D3*
X560735D3*
X541050D3*
X521365D3*
X501680D3*
X481995D3*
X462310D3*
X442625D3*
X422940D3*
X403255D3*
X383570D3*
X991837Y1291430D3*
X346168D3*
D30*
X1281000Y1268000D3*
D33*
Y1317213D3*
D35*
X1283007Y225997D3*
D38*
Y325997D3*
Y425997D3*
Y525997D3*
Y625997D3*
D39*
X290055Y1258000D3*
X171945D3*
D41*
X842685Y978496D3*
X803315D3*
X823000Y915504D3*
D27*
X365000Y1041591D3*
Y990409D3*
X1013472Y1021362D3*
Y1072543D3*
D26*
X1068063Y1132953D3*
X1016882D3*
X415756Y905000D3*
X466937D3*
X466756Y947000D3*
X415575D3*
X233585Y1177585D3*
X182404D3*
X178409Y1448000D3*
X229591D3*
X55409D3*
X106591D3*
D27*
X825000Y1075409D3*
Y1126591D3*
D42*
X576000Y1136465D3*
Y1069535D3*
D27*
X783000Y1126591D3*
Y1075409D3*
D43*
X785535Y1024000D3*
X852465D3*
D47*
X283685Y1102932D3*
X264000Y1102945D3*
X244315D3*
Y1031055D3*
X264000D3*
X283685D3*
D48*
X264000Y1067000D3*
D90*
X107638Y609173D3*
X123386D3*
X139134D3*
X154882D3*
X170630D3*
X186378D3*
X202126D3*
X217874D3*
X233622D3*
X249370D3*
X265118D3*
X280866D3*
X296614D3*
X312362D3*
D92*
X345827Y642638D3*
Y658386D3*
Y674134D3*
Y689882D3*
Y705630D3*
Y721378D3*
Y737126D3*
Y752874D3*
Y768622D3*
Y784370D3*
Y800118D3*
Y815866D3*
Y831614D3*
Y847362D3*
D90*
X312362Y880827D3*
X296614D3*
X280866D3*
X265118D3*
X249370D3*
X233622D3*
X217874D3*
X202126D3*
X186378D3*
X170630D3*
X154882D3*
X139134D3*
X123386D3*
X107638D3*
D92*
X74173Y847362D3*
Y831614D3*
Y815866D3*
Y800118D3*
Y784370D3*
Y768622D3*
Y752874D3*
Y737126D3*
Y721378D3*
Y705630D3*
Y689882D3*
Y674134D3*
Y658386D3*
Y642638D3*
D94*
X210000Y745000D3*
D49*
X1016391Y822139D3*
X990801D3*
X965210D3*
X939619D3*
Y589856D3*
X965210D3*
X990801D3*
X1016391D3*
D51*
X30307Y503693D3*
Y471331D3*
D97*
X83745Y440031D3*
D51*
X101186Y471331D3*
Y503693D3*
X65753D3*
D99*
X47761Y440031D3*
D101*
Y404047D3*
D103*
X83745D3*
D53*
X1080513Y1008564D3*
X1096262D3*
X1112010D3*
X1127757D3*
Y1079430D3*
X1112010D3*
X1096262D3*
X1080513D3*
X1064766D3*
Y1008564D3*
D55*
X29598Y1494850D3*
X67000D3*
X104402D3*
Y1601150D3*
X29598D3*
D49*
X1158005Y821995D3*
X1132415D3*
X1106824D3*
X1081234D3*
Y589711D3*
X1106824D3*
X1132415D3*
X1158005D3*
D105*
X769409Y768535D3*
Y835465D3*
X820591D3*
Y768535D3*
D56*
X787906Y591745D3*
Y690171D3*
M02*
