G04 DipTrace 3.1.0.0*
G04 Top.gbr*
%MOIN*%
G04 #@! TF.FileFunction,Copper,L1,Top*
G04 #@! TF.Part,Single*
%AMOUTLINE0*
4,1,32,
0.145,0.14,
0.145,-0.14,
0.08,-0.14,
0.08,0.01,
0.055,0.01,
0.055,-0.14,
-0.01,-0.14,
-0.01,0.01,
-0.035,0.01,
-0.035,-0.14,
-0.1,-0.14,
-0.1,0.01,
-0.125,0.01,
-0.125,-0.14,
-0.145,-0.14,
-0.145,0.03,
-0.08,0.03,
-0.08,-0.12,
-0.055,-0.12,
-0.055,0.03,
0.01,0.03,
0.01,-0.12,
0.035,-0.12,
0.035,0.03,
0.1,0.03,
0.1,-0.12,
0.125,-0.12,
0.125,0.09,
-0.128005,0.09,
-0.128005,0.11,
0.125,0.11,
0.125,0.14,
0.145,0.14,
0*%
%AMOUTLINE2*
4,1,16,
0.003937,0.012795,
0.003547,0.014504,
0.002454,0.015873,
0.000877,0.016634,
-0.000877,0.016634,
-0.002454,0.015873,
-0.003547,0.014504,
-0.003937,0.012795,
-0.003937,-0.012795,
-0.003547,-0.014504,
-0.002454,-0.015873,
-0.000877,-0.016634,
0.000877,-0.016634,
0.002454,-0.015873,
0.003547,-0.014504,
0.003937,-0.012795,
0.003937,0.012795,
0*%
%AMOUTLINE4*
4,1,16,
0.012795,-0.003937,
0.014504,-0.003547,
0.015873,-0.002454,
0.016634,-0.000877,
0.016634,0.000877,
0.015873,0.002454,
0.014504,0.003547,
0.012795,0.003937,
-0.012795,0.003937,
-0.014504,0.003547,
-0.015873,0.002454,
-0.016634,0.000877,
-0.016634,-0.000877,
-0.015873,-0.002454,
-0.014504,-0.003547,
-0.012795,-0.003937,
0.012795,-0.003937,
0*%
%AMOUTLINE6*5,1,4,0,0,0.30066,-135.0*%
%AMOUTLINE9*
4,1,12,
0.013761,-0.013898,
0.002066,-0.013898,
0.000688,-0.010354,
-0.001911,-0.005787,
-0.005651,-0.002047,
-0.010218,0.000551,
-0.013761,0.001929,
-0.013761,0.013898,
-0.005701,0.011465,
0.001528,0.007291,
0.007428,0.001391,
0.011601,-0.005837,
0.013761,-0.013898,
0*%
%AMOUTLINE11*
4,1,12,
0.013898,0.013761,
0.013898,0.002066,
0.010354,0.000688,
0.005787,-0.001911,
0.002047,-0.005651,
-0.000551,-0.010218,
-0.001929,-0.013761,
-0.013898,-0.013761,
-0.011465,-0.005701,
-0.007291,0.001528,
-0.001391,0.007428,
0.005837,0.011601,
0.013898,0.013761,
0*%
%AMOUTLINE13*
4,1,12,
-0.013761,0.013898,
-0.002066,0.013898,
-0.000688,0.010354,
0.001911,0.005787,
0.005651,0.002047,
0.010218,-0.000551,
0.013761,-0.001929,
0.013761,-0.013898,
0.005701,-0.011465,
-0.001528,-0.007291,
-0.007428,-0.001391,
-0.011601,0.005837,
-0.013761,0.013898,
0*%
%AMOUTLINE15*
4,1,12,
-0.013898,-0.013761,
-0.013898,-0.002066,
-0.010354,-0.000688,
-0.005787,0.001911,
-0.002047,0.005651,
0.000551,0.010218,
0.001929,0.013761,
0.013898,0.013761,
0.011465,0.005701,
0.007291,-0.001528,
0.001391,-0.007428,
-0.005837,-0.011601,
-0.013898,-0.013761,
0*%
%AMOUTLINE17*
4,1,4,
-0.023622,0.019685,
0.023622,0.019685,
0.023622,-0.019685,
-0.023622,-0.019685,
-0.023622,0.019685,
0*%
G04 #@! TA.AperFunction,Conductor*
%ADD14C,0.005997*%
%ADD15C,0.01*%
G04 #@! TA.AperFunction,CopperBalancing*
%ADD16C,0.015*%
%ADD17C,0.005*%
%ADD18C,0.003937*%
G04 #@! TA.AperFunction,ComponentPad*
%ADD22R,0.02X0.02*%
G04 #@! TA.AperFunction,ViaPad*
%ADD23C,0.02*%
%ADD25R,0.035433X0.027559*%
%ADD26R,0.027559X0.035433*%
%ADD27R,0.023622X0.023622*%
%ADD28R,0.059055X0.027559*%
G04 #@! TA.AperFunction,ComponentPad*
%ADD29R,0.03937X0.03937*%
%ADD32C,0.03937*%
%ADD33R,0.011811X0.031496*%
G04 #@! TA.AperFunction,ComponentPad*
%ADD34R,0.066929X0.066929*%
%ADD37C,0.066929*%
%ADD38R,0.059055X0.15748*%
%ADD40R,0.020079X0.015748*%
%ADD46R,0.009843X0.026575*%
%ADD47R,0.055906X0.024016*%
%ADD48R,0.017717X0.057087*%
%ADD50R,0.023622X0.020551*%
%ADD52R,0.008858X0.023622*%
%ADD54R,0.023622X0.043307*%
%ADD55R,0.074803X0.043307*%
G04 #@! TA.AperFunction,ViaPad*
%ADD56C,0.025*%
%ADD86OUTLINE0*%
%ADD88OUTLINE2*%
%ADD90OUTLINE4*%
%ADD92OUTLINE6*%
%ADD95OUTLINE9*%
%ADD97OUTLINE11*%
%ADD99OUTLINE13*%
%ADD101OUTLINE15*%
%ADD103OUTLINE17*%
%FSLAX26Y26*%
G04*
G70*
G90*
G75*
G01*
G04 Top*
%LPD*%
X202126Y880827D2*
D14*
X200997D1*
Y895990D1*
X202000Y896992D1*
Y912000D1*
X217000Y927000D1*
Y940000D1*
X215000D1*
Y944409D1*
X175199Y1253934D2*
Y1216533D1*
X181102Y1210630D1*
Y1171260D1*
Y1210630D2*
X179134Y1212598D1*
X60903D1*
X235320Y1590950D2*
D15*
Y1615270D1*
X220591Y1630000D1*
Y1630997D1*
X210997D1*
X200997Y1620997D1*
Y1600000D1*
X196995D1*
X215000D2*
X210000D1*
Y1619409D1*
X220591Y1630000D1*
X177165Y1423228D2*
D14*
X224409D1*
X230315Y1417323D1*
Y1377953D1*
X146995Y1420997D2*
X174934D1*
X177165Y1423228D1*
X206696Y1324801D2*
Y1298005D1*
X201995D1*
X69003Y1244003D2*
Y1220698D1*
X60903Y1212598D1*
X235000Y562591D2*
Y547000D1*
X214000D1*
X213000Y546000D1*
X115591Y550000D2*
X105000Y539409D1*
Y503693D1*
X101186D1*
X125000Y510000D2*
X129003D1*
X138415Y500588D1*
X149000D1*
X125000Y510000D2*
X118693Y503693D1*
X101186D1*
X1016391Y589856D2*
X1041000D1*
Y589000D1*
X1221995Y965997D2*
D15*
Y935997D1*
X1158005Y589711D2*
D14*
X1175000D1*
Y589003D1*
X990801Y589856D2*
X1016391D1*
X1132415Y589711D2*
X1158005D1*
X1132415D2*
Y549409D1*
X1115000Y531995D1*
X1016076Y1022000D2*
X1013000D1*
Y1114000D1*
X1120404Y1381154D2*
X1045601D1*
Y1430194D1*
X1059409Y1444003D1*
X1021000Y1379000D2*
X1043448D1*
X1045601Y1381154D1*
X345827Y768622D2*
X378622D1*
X386958Y776958D1*
X402409D1*
Y776000D1*
X345827Y689882D2*
X374118D1*
X398000Y666000D1*
X406000D1*
X411241Y671241D1*
X442625Y1193005D2*
Y1169375D1*
X466000Y1146000D1*
Y1140150D1*
X473559Y1132591D1*
X74173Y800118D2*
X42472D1*
X29000Y813591D1*
X249370Y609173D2*
Y576961D1*
X235000Y562591D1*
X107638Y609173D2*
Y594638D1*
X104000Y591000D1*
Y561591D1*
X115591Y550000D1*
X345827Y642638D2*
Y629173D1*
X365000Y610000D1*
X397690D1*
X398294Y609396D1*
X312362Y609173D2*
X326827D1*
X369000Y567000D1*
X397803D1*
X398294Y566509D1*
X1221995Y935997D2*
X1279215D1*
X1281000Y934213D1*
X895381Y1193005D2*
Y1131148D1*
X891118Y1126886D1*
X933677D1*
X990801Y589856D2*
Y536982D1*
X987819Y534000D1*
X807843Y1440000D2*
X816000D1*
Y1471000D1*
X398294Y566509D2*
Y548706D1*
X400000Y547000D1*
X398294Y566509D2*
Y609396D1*
X444000Y814000D2*
X440409D1*
X402409Y776000D1*
X422000Y694000D2*
Y682000D1*
X411241Y671241D1*
X185000Y991000D2*
Y974409D1*
X215000Y944409D1*
X25000Y838000D2*
Y817591D1*
X29000Y813591D1*
X462000Y1015000D2*
X477000D1*
X496000Y996000D1*
X442625Y1193005D2*
Y1230625D1*
X443000Y1231000D1*
X895381Y1193005D2*
Y1223619D1*
X887000Y1232000D1*
X206696Y1253934D2*
Y1269701D1*
X235000Y1298005D1*
X250000D1*
X154882Y880827D2*
Y899118D1*
X125000Y929000D1*
Y958000D1*
X238190Y1253934D2*
X240068D1*
X254003Y1240000D1*
X255997D1*
X139134Y880827D2*
Y897866D1*
X92000Y945000D1*
Y948000D1*
X88000Y952000D1*
X190946Y1324801D2*
Y1338938D1*
X199003Y1346995D1*
X215000D1*
X221995Y1340000D1*
Y1325249D1*
X222444Y1324801D1*
X238190D1*
X260000D1*
X275593D1*
X285433Y1314961D1*
Y1374016D1*
X281496Y1377953D1*
X232283Y1171260D2*
Y1210630D1*
X325591Y1630000D2*
X366640D1*
X879173Y666417D2*
X847060D1*
X879173Y607493D2*
X846995D1*
Y606995D1*
X274690Y1590937D2*
X309711D1*
Y1555000D1*
X255005Y1555005D2*
Y1555000D1*
X239711D1*
X199711D1*
X939619Y822139D2*
X919000D1*
Y822000D1*
X269711Y1555000D2*
X255005D1*
X260000Y1346995D2*
Y1324801D1*
X1221995Y879003D2*
D15*
Y849003D1*
X1055000Y820000D2*
D14*
X1079239D1*
X1081234Y821995D1*
X1106824D1*
X939619Y822139D2*
X965210D1*
X296614Y609173D2*
Y593386D1*
X350997Y539003D1*
Y469003D1*
X353005Y466995D1*
X42008Y261995D2*
X315000D1*
Y31995D1*
X268005Y36995D1*
Y178005D1*
X225997D1*
Y31995D1*
X179003Y35000D1*
X180000Y161995D1*
X737000Y859000D2*
X773131D1*
X773541Y858591D1*
X838000Y776000D2*
Y804940D1*
X840470Y807409D1*
X346168Y1291430D2*
Y1312165D1*
X348005Y1314003D1*
X359003Y1291995D2*
X346732D1*
X346168Y1291430D1*
Y1270840D1*
X348005Y1269003D1*
Y1289593D1*
X346168Y1291430D1*
X235000Y511409D2*
Y484003D1*
X216995Y465997D1*
X74173Y658386D2*
X123386D1*
X210000Y745000D1*
X1221995Y879003D2*
X1275003D1*
X1281000Y885000D1*
X473559Y1081409D2*
Y1067000D1*
X504000D1*
X473559Y1081409D2*
X431000D1*
X388441D1*
X345882D1*
X149000Y449407D2*
X174583D1*
X186995Y436995D1*
X462423Y671241D2*
Y669423D1*
X485000Y692000D1*
X492000D1*
X453591Y776000D2*
X456000D1*
X469000Y789000D1*
X467000D1*
X484000Y806000D1*
Y799000D1*
X449475Y566509D2*
X451000D1*
Y547000D1*
X449475Y609396D2*
Y566509D1*
X226000Y1024000D2*
Y1006591D1*
X215000Y995591D1*
X34000Y735000D2*
Y757409D1*
X29000Y762409D1*
X1166181Y531995D2*
X1174005D1*
X1194000Y512000D1*
X1046000Y558000D2*
Y541000D1*
X1039000Y534000D1*
X902307Y933000D2*
Y904693D1*
X903000Y904000D1*
X232000Y1147000D2*
Y1170976D1*
X232283Y1171260D1*
X70000Y1013000D2*
X97646D1*
X98425Y1013780D1*
X50000Y1595000D2*
Y1555000D1*
Y1515000D1*
X110000D1*
Y1555000D1*
Y1595000D1*
X50000Y1515000D2*
X60929Y1504071D1*
Y1483189D1*
X383570Y1193005D2*
Y1214000D1*
X367000D1*
X501680Y1193005D2*
Y1232087D1*
X521365Y1193005D2*
Y1232087D1*
X541050Y1193005D2*
Y1232087D1*
X560735Y1193005D2*
Y1232087D1*
X580420Y1193005D2*
Y1232087D1*
X659160Y1193005D2*
Y1232087D1*
X678845Y1193005D2*
Y1232087D1*
X698530Y1193005D2*
Y1232087D1*
X718215Y1193005D2*
Y1232087D1*
X50000Y572000D2*
X46409D1*
X29000Y589409D1*
X50000Y572000D2*
Y564409D1*
X64409Y550000D1*
X551000Y1473000D2*
Y1448386D1*
X542614Y1440000D1*
X233622Y609173D2*
Y648622D1*
X250000Y665000D1*
X357315Y991496D2*
X352496D1*
X343000Y982000D1*
X1108000Y1160409D2*
X1086000D1*
Y1161000D1*
X980000Y1291995D2*
X991273D1*
X991837Y1291430D1*
X1110591Y1444003D2*
X1166415D1*
X1173005Y1450593D1*
X1083003Y1274854D2*
Y1314000D1*
X1083000D1*
X1162000Y1478000D2*
Y1461598D1*
X1173005Y1450593D1*
X1004003Y1291995D2*
X992402D1*
X990000Y1314003D2*
Y1293268D1*
X868276Y1440000D2*
X857000D1*
Y1470000D1*
X1280000Y1523000D2*
Y1559394D1*
X1281000Y1560394D1*
X915066Y1193005D2*
Y1232087D1*
X954436Y1193005D2*
Y1232087D1*
X933677Y1075705D2*
X891118D1*
X848559D1*
X933677D2*
X953295D1*
X954000Y1075000D1*
X556000Y291000D2*
Y309990D1*
X563005Y316995D1*
X30307Y471331D2*
X30000Y471024D1*
Y398000D1*
X36995Y391005D1*
Y376995D1*
X190946Y1253934D2*
Y1272046D1*
X176995Y1285997D1*
X175997D1*
X177165Y1372047D2*
X160039D1*
X136995Y1349003D1*
Y1317008D1*
X168005Y1285997D1*
X175997D1*
X345827Y721378D2*
Y722000D1*
X370000D1*
X373000Y725000D1*
X532000D1*
X660000Y853000D1*
Y1086000D1*
X281496Y1417323D2*
X280669D1*
X279000Y1418992D1*
Y1440000D1*
X175199Y1324801D2*
X159003D1*
Y1330997D1*
X345827Y705630D2*
X373630D1*
X381000Y713000D1*
X539000D1*
X701000Y875000D1*
Y1086000D1*
X83000Y473000D2*
X101186D1*
Y471331D1*
X345827Y847362D2*
Y870827D1*
X347000Y872000D1*
X65753Y503693D2*
Y518753D1*
X67000Y520000D1*
X345827Y737126D2*
X513126D1*
X520000Y744000D1*
X345827Y752874D2*
X483126D1*
X489252Y759000D1*
X495000D1*
X39000Y520000D2*
Y512386D1*
X30307Y503693D1*
X235320Y1519060D2*
X223470D1*
X179409Y1475000D1*
X255005Y1519060D2*
Y1499415D1*
X230591Y1475000D1*
X422940Y1193005D2*
Y1140651D1*
X431000Y1132591D1*
X345827Y674134D2*
X363871D1*
X393005Y645000D1*
X627000D1*
X768000Y786000D1*
Y807409D1*
X773541D1*
X274690Y1519060D2*
Y1479719D1*
X279409Y1475000D1*
X98425Y1062992D2*
Y1068570D1*
X66995Y1100000D1*
Y1124003D1*
X86995Y1144003D1*
X113990D1*
X131995Y1125997D1*
X242992D1*
X310000Y1193005D1*
Y1444409D1*
X279409Y1475000D1*
X74173Y642638D2*
X31047D1*
X29000Y640591D1*
Y653000D1*
X42000Y666000D1*
X222444Y1253934D2*
Y1267444D1*
X234003Y1279003D1*
X270210D1*
X285433Y1263780D1*
X345827Y658386D2*
X361614D1*
X386995Y633005D1*
X642005D1*
X753000Y744000D1*
X848000D1*
X878000Y774000D1*
Y841000D1*
X860409Y858591D1*
X840470D1*
X123386Y609173D2*
Y580472D1*
X123685D1*
X879173Y717598D2*
X828596D1*
X796995Y685997D1*
X787906D1*
Y690171D1*
X767165D1*
X755000Y678005D1*
Y655997D1*
X139134Y609173D2*
Y591866D1*
X154000Y577000D1*
Y567000D1*
X780000Y555997D2*
Y591745D1*
X787906D1*
X879173Y556312D2*
X780315D1*
X780000Y555997D1*
X1173005Y1348591D2*
Y1399412D1*
X1120404Y1274854D2*
Y1295990D1*
X1173005Y1348591D1*
X1171000Y1151693D2*
Y1035192D1*
X1157808Y1022000D1*
X1045601Y1274854D2*
Y1134207D1*
X1157808Y1022000D1*
X1173005Y1297409D2*
Y1238307D1*
X1171000D1*
X1108000Y1211591D2*
X1144283D1*
X1171000Y1238307D1*
X345882Y1132591D2*
X388441D1*
X403255Y1193005D2*
Y1165255D1*
X389000Y1151000D1*
Y1132591D1*
X403255Y1193005D2*
Y1250255D1*
X680000Y1527000D1*
X1145000D1*
X1208000Y1464000D1*
Y1332404D1*
X1173005Y1297409D1*
X919457Y1440000D2*
Y1431457D1*
X796955Y1308955D1*
Y1193005D1*
X848559Y1126886D2*
Y1154307D1*
X863697D1*
X875696Y1166306D1*
Y1193005D1*
X462310D2*
Y1257262D1*
X645047Y1440000D1*
X696228D2*
Y1476228D1*
X725000Y1505000D1*
X906000D1*
X955000Y1456000D1*
Y1276000D1*
X976000Y1255000D1*
Y1046000D1*
X937000Y1007000D1*
X902307D1*
X815693D2*
Y933000D1*
X377000Y928504D2*
X462000Y928386D1*
X110000Y1385000D2*
X61730D1*
X60903Y1385827D1*
X462000Y928386D2*
X498386D1*
X599000Y1029000D1*
Y1149000D1*
X150000Y1093000D2*
Y1097000D1*
X272000D1*
X315000Y1140000D1*
X402591Y1033000D2*
Y991496D1*
X396685D1*
X431000Y1440000D2*
X461000D1*
X491433D1*
X461000Y1473000D2*
Y1440000D1*
X74173Y847362D2*
Y865827D1*
X47000Y893000D1*
Y929000D1*
X168409Y1665591D2*
D16*
Y1661000D1*
D15*
X65512D1*
D14*
X60929Y1656417D1*
X296614Y880827D2*
Y896614D1*
X374000Y974000D1*
X504000D1*
X548000Y1018000D1*
Y1159000D1*
X550000Y1161000D1*
X756000Y1224000D2*
Y1194591D1*
X757585Y1193005D1*
X756661Y1440000D2*
Y1370339D1*
X777270Y1349730D1*
Y1193005D1*
X74173Y831614D2*
X58386D1*
X21000Y869000D1*
Y957000D1*
X25000Y961000D1*
X739000Y1469000D2*
Y1457661D1*
X756661Y1440000D1*
X280866Y880827D2*
Y897866D1*
X324000Y941000D1*
Y1005000D1*
X327000Y1008000D1*
Y1004000D1*
X265118Y880827D2*
Y899118D1*
X308000Y942000D1*
Y1022000D1*
X249370Y880827D2*
Y900370D1*
X290000Y941000D1*
Y984000D1*
X289000Y985000D1*
X123386Y880827D2*
X124000D1*
Y896000D1*
X106000Y914000D1*
X91000D1*
X170630Y880827D2*
Y915370D1*
X158000Y928000D1*
X896000Y857000D2*
Y773000D1*
X913000Y756000D1*
X995000D1*
X1016391Y777391D1*
Y822139D1*
X186378Y880827D2*
Y916622D1*
X179000Y924000D1*
Y953000D1*
X177000D1*
X1107000Y881000D2*
Y883000D1*
X1129000D1*
X1157000Y855000D1*
Y821995D1*
X1158005D1*
X233622Y880827D2*
Y901622D1*
X270000Y938000D1*
Y1041000D1*
X287000Y1058000D1*
X737900Y1193005D2*
X737000D1*
Y1169000D1*
X729000Y1161000D1*
X663000D1*
X345827Y800118D2*
X364121D1*
X413003Y849000D1*
X511000D1*
X577000Y915000D1*
X580000D1*
X1132415Y821995D2*
Y852585D1*
X1125315Y859685D1*
X997690D1*
X990801Y852795D1*
Y822139D1*
Y779801D1*
X990000Y779000D1*
X345827Y784370D2*
X365370D1*
X415000Y834000D1*
X581000D1*
X596000D1*
X619000Y857000D1*
Y1193795D1*
X619790Y1193005D1*
X939619Y589856D2*
Y521381D1*
X952000Y509000D1*
X1072000D1*
X1081000Y518000D1*
Y589478D1*
X1081234Y589711D1*
X581000Y834000D2*
Y833000D1*
X593000D1*
X939619Y589856D2*
Y633381D1*
X938000Y635000D1*
X217874Y880827D2*
Y902874D1*
X253000Y938000D1*
Y1059000D1*
X639475Y1193005D2*
Y1121475D1*
X639000Y1121000D1*
Y872000D1*
X965210Y589856D2*
Y643790D1*
X964000Y645000D1*
X1092000D1*
X1108000Y629000D1*
Y590887D1*
X1106824Y589711D1*
X345827Y831614D2*
X361614D1*
X423556Y893556D1*
X495556D1*
X556000Y954000D1*
X345827Y815866D2*
X362866D1*
X419000Y872000D1*
X505000D1*
X587000Y954000D1*
X312362Y880827D2*
Y895362D1*
X377000Y960000D1*
X511000D1*
X568000Y1017000D1*
Y1057000D1*
X579000Y1068000D1*
X255005Y1590950D2*
D15*
Y1610596D1*
X274409Y1630000D1*
X330591Y1475000D2*
D14*
Y1485000D1*
X360000D1*
X386995Y1511995D1*
Y1642008D1*
X374003Y1655000D1*
X274409D1*
D15*
Y1630000D1*
X98425Y1112205D2*
D14*
X250197D1*
X321995Y1184003D1*
Y1466404D1*
X330591Y1475000D1*
X344819D1*
X379819Y1440000D1*
X219591Y1665591D2*
D15*
Y1661000D1*
X268409D1*
X274409Y1655000D1*
X107638Y880827D2*
D14*
X88173D1*
X66000Y903000D1*
Y959000D1*
X92000Y985000D1*
X122000D1*
X220000Y1083000D1*
X294000D1*
X344000Y1033000D1*
X351409D1*
X154882Y609173D2*
Y593118D1*
X169000Y579000D1*
X186000D1*
X197000Y568000D1*
X1283007Y255997D2*
Y256993D1*
X1051000Y489000D1*
D23*
X896000Y857000D3*
X130000Y825000D3*
X550000Y1161000D3*
X47000Y929000D3*
X67000Y520000D3*
X125000Y510000D3*
X123685Y580472D3*
X154000Y567000D3*
X701000Y1086000D3*
X520000Y744000D3*
X130000Y785000D3*
X83000Y473000D3*
X91000Y914000D3*
X213000Y546000D3*
X1221995Y965997D3*
D56*
X683005Y466995D3*
D23*
X88000Y952000D3*
X990000Y779000D3*
X639000Y872000D3*
X125000Y958000D3*
X495000Y759000D3*
X39000Y520000D3*
D56*
X533005Y466995D3*
D23*
X158000Y928000D3*
X177000Y953000D3*
X253000Y1059000D3*
X287000Y1058000D3*
X289000Y985000D3*
X308000Y1022000D3*
X327000Y1004000D3*
X756000Y1224000D3*
X579000Y1068000D3*
X347000Y872000D3*
X964000Y645000D3*
X50000Y572000D3*
X239711Y1555000D3*
X269711D3*
X130000Y745000D3*
X663000Y1161000D3*
X260000Y1346995D3*
X639000Y1121000D3*
X1107000Y881000D3*
X197000Y568000D3*
D56*
X683005Y436995D3*
X533005D3*
X683005Y406995D3*
D23*
X130000Y705000D3*
Y665000D3*
X146995Y1420997D3*
X170000Y825000D3*
X69003Y1244003D3*
X170000Y785000D3*
Y745000D3*
X196995Y1600000D3*
X215000D3*
X170000Y705000D3*
X175997Y1285997D3*
X1051000Y489000D3*
X348005Y1314003D3*
Y1269003D3*
X1162000Y1478000D3*
X593000Y833000D3*
X110000Y1385000D3*
X359003Y1291995D3*
X990000Y1314003D3*
X938000Y635000D3*
D56*
X683005Y376995D3*
X923005Y466995D3*
D23*
X1041000Y589000D3*
X201995Y1298005D3*
D56*
X67000Y377000D3*
X923005Y436995D3*
D23*
X250000Y1298005D3*
X255997Y1240000D3*
X279000Y1440000D3*
X159003Y1330997D3*
D56*
X713005Y466995D3*
Y436995D3*
Y406995D3*
X36995Y376995D3*
D23*
X366640Y1630000D3*
D56*
X36995Y346995D3*
Y316995D3*
D23*
X1288000Y533000D3*
X461000Y1473000D3*
X847060Y666417D3*
X846995Y606995D3*
X599000Y1149000D3*
X170000Y665000D3*
X210000Y825000D3*
Y785000D3*
D56*
X713005Y376995D3*
D23*
X210000Y745000D3*
Y705000D3*
D56*
X713005Y346995D3*
Y316995D3*
D23*
X210000Y665000D3*
X1221995Y935997D3*
X250000Y825000D3*
D56*
X593005Y466995D3*
Y436995D3*
D23*
X1004003Y1291995D3*
X980000D3*
X315000Y1140000D3*
X150000Y1093000D3*
X400000Y547000D3*
X1021000Y1379000D3*
X444000Y814000D3*
X422000Y694000D3*
X226000Y1024000D3*
X185000Y991000D3*
X25000Y838000D3*
X34000Y735000D3*
X1046000Y558000D3*
D56*
X593005Y406995D3*
D23*
X1221995Y879003D3*
D56*
X593005Y376995D3*
D23*
X1194000Y512000D3*
X309711Y1555000D3*
X199711D3*
X1055000Y820000D3*
X919000Y822000D3*
X737000Y859000D3*
X838000Y776000D3*
X250000Y785000D3*
X42000Y666000D3*
X250000Y745000D3*
Y705000D3*
Y665000D3*
X290000Y825000D3*
D56*
X66995Y346995D3*
Y316995D3*
D23*
X290000Y785000D3*
Y745000D3*
Y705000D3*
Y665000D3*
X556000Y954000D3*
X587000D3*
X580000Y915000D3*
X903000Y904000D3*
X443000Y1231000D3*
D56*
X533005Y406995D3*
Y376995D3*
X96995D3*
Y346995D3*
Y316995D3*
X533005Y346995D3*
Y316995D3*
X563005Y466995D3*
Y436995D3*
Y406995D3*
Y376995D3*
Y346995D3*
Y316995D3*
X653000Y347000D3*
X923005Y376995D3*
D23*
X1221995Y849003D3*
D56*
X126995Y376995D3*
Y346995D3*
Y316995D3*
Y406995D3*
X156995D3*
D23*
X496000Y996000D3*
D56*
X623005Y466995D3*
Y436995D3*
Y406995D3*
Y376995D3*
X923005Y346995D3*
Y316995D3*
X653005Y466995D3*
X156995Y376995D3*
Y346995D3*
Y316995D3*
X653005Y436995D3*
Y406995D3*
Y376995D3*
X953005Y466995D3*
Y436995D3*
X186995Y466995D3*
Y436995D3*
Y406995D3*
D23*
X70000Y1013000D3*
D56*
X953005Y376995D3*
Y346995D3*
Y316995D3*
X743005Y466995D3*
Y436995D3*
Y406995D3*
Y376995D3*
Y346995D3*
Y316995D3*
X186995Y376995D3*
Y346995D3*
Y316995D3*
X773005Y466995D3*
Y436995D3*
Y406995D3*
Y376995D3*
X216995Y465997D3*
Y436995D3*
Y406995D3*
Y376995D3*
Y346995D3*
Y316995D3*
X773005Y346995D3*
Y316995D3*
X803005Y466995D3*
Y439003D3*
X246995Y465997D3*
Y436995D3*
Y406995D3*
Y376995D3*
Y346995D3*
Y316995D3*
D23*
X232000Y1147000D3*
X1280000Y1523000D3*
X50000Y1595000D3*
X110000D3*
D56*
X276995Y466995D3*
Y436995D3*
Y406995D3*
Y376995D3*
Y346995D3*
Y316995D3*
X353005Y466995D3*
Y436995D3*
Y406995D3*
Y376995D3*
Y346995D3*
Y316995D3*
X833005Y466995D3*
Y440000D3*
D23*
X50000Y1555000D3*
Y1515000D3*
D56*
X383005Y466995D3*
Y436995D3*
Y406995D3*
Y376995D3*
Y346995D3*
Y316995D3*
D23*
X110000Y1515000D3*
Y1555000D3*
D56*
X863005Y466995D3*
Y436995D3*
X413005Y466995D3*
Y436995D3*
Y406995D3*
Y376995D3*
Y346995D3*
Y316995D3*
D23*
X954000Y1075000D3*
D56*
X866995Y376995D3*
Y346995D3*
Y316995D3*
X443005Y466995D3*
Y436995D3*
Y406995D3*
Y376995D3*
Y346995D3*
Y316995D3*
X893005Y466995D3*
Y436995D3*
D23*
X551000Y1473000D3*
D56*
X893005Y376995D3*
X473005Y466995D3*
Y436995D3*
Y406995D3*
Y376995D3*
Y346995D3*
Y316995D3*
X893005Y346995D3*
Y316995D3*
X653000Y317000D3*
D23*
X887000Y1232000D3*
D56*
X503005Y466995D3*
Y436995D3*
Y406995D3*
Y376995D3*
Y346995D3*
Y316995D3*
D23*
X343000Y982000D3*
D56*
X683000Y347000D3*
D23*
X1226000Y559000D3*
D56*
X683000Y317000D3*
X593000Y347000D3*
Y317000D3*
X623000Y347000D3*
D23*
X1218005Y379003D3*
D56*
X623000Y317000D3*
D23*
X25000Y961000D3*
X1219000Y492000D3*
X739000Y1469000D3*
X1155000Y489000D3*
X1175000Y589003D3*
X1086000Y1161000D3*
X1013000Y1114000D3*
X1083000Y1314000D3*
X660000Y1086000D3*
X816000Y1471000D3*
X857000Y1470000D3*
X504000Y1067000D3*
X492000Y692000D3*
X484000Y799000D3*
X451000Y547000D3*
X367000Y1214000D3*
X501680Y1232087D3*
X521365D3*
X541050D3*
X560735D3*
X580420D3*
X659160D3*
X678845D3*
X698530D3*
X718215D3*
X915066D3*
X954436D3*
X780000Y555997D3*
X755000Y655997D3*
X122995Y1627631D2*
D17*
X142493D1*
X122995Y1622762D2*
X142493D1*
X122995Y1617894D2*
X142493D1*
X33000Y1613025D2*
X142493D1*
X33000Y1608156D2*
X142493D1*
X33000Y1603287D2*
X178089D1*
X288806D2*
X347000D1*
X33000Y1598419D2*
X177865D1*
X288806D2*
X347000D1*
X33000Y1593550D2*
X178949D1*
X288806D2*
X347000D1*
X33000Y1588681D2*
X181614D1*
X288806D2*
X347000D1*
X33000Y1583812D2*
X187142D1*
X288806D2*
X347000D1*
X33000Y1578944D2*
X221205D1*
X288806D2*
X347000D1*
X33000Y1574075D2*
X217854D1*
X292155D2*
X347000D1*
X33000Y1569206D2*
X217854D1*
X292155D2*
X347000D1*
X33000Y1564337D2*
X217854D1*
X292155D2*
X347000D1*
X33000Y1559469D2*
X217854D1*
X292155D2*
X347000D1*
X33000Y1554600D2*
X217854D1*
X292155D2*
X347000D1*
X33000Y1549731D2*
X217854D1*
X292155D2*
X347000D1*
X33000Y1544862D2*
X217854D1*
X292155D2*
X347000D1*
X33000Y1539993D2*
X217854D1*
X292155D2*
X347000D1*
X33000Y1535125D2*
X217854D1*
X292155D2*
X347000D1*
X33000Y1530256D2*
X219631D1*
X288806D2*
X347000D1*
X33000Y1525387D2*
X212777D1*
X288806D2*
X347000D1*
X33000Y1520518D2*
X207903D1*
X288806D2*
X347000D1*
X33000Y1515650D2*
X203041D1*
X288806D2*
X347000D1*
X33000Y1510781D2*
X198167D1*
X288806D2*
X347000D1*
X33000Y1505912D2*
X193303D1*
X288806D2*
X347000D1*
X99655Y1501043D2*
X188430D1*
X288806D2*
X347000D1*
X99655Y1496175D2*
X152493D1*
X99655Y1491306D2*
X152493D1*
X99655Y1486437D2*
X152493D1*
X99655Y1481568D2*
X152493D1*
X99655Y1476699D2*
X152493D1*
X99655Y1471831D2*
X152493D1*
X300823Y1607533D2*
X288314Y1607524D1*
X288310Y1575709D1*
X291656Y1575710D1*
Y1534299D1*
X288310D1*
Y1497471D1*
X347500Y1497500D1*
X347504Y1607524D1*
X299177Y1607525D1*
X155496Y1497476D2*
X185369D1*
X215199Y1527331D1*
X216594Y1528522D1*
X218160Y1529482D1*
X219856Y1530184D1*
X221701Y1530619D1*
X221656Y1534299D1*
X218356D1*
Y1575710D1*
X221701D1*
X221702Y1582549D1*
X219365Y1581819D1*
X216467Y1581361D1*
X213533D1*
X210635Y1581819D1*
X207845Y1582726D1*
X206016Y1583618D1*
X204150Y1582726D1*
X201360Y1581819D1*
X198462Y1581361D1*
X195528D1*
X192630Y1581819D1*
X189840Y1582726D1*
X187226Y1584058D1*
X184852Y1585782D1*
X182777Y1587857D1*
X181052Y1590231D1*
X179720Y1592845D1*
X178814Y1595635D1*
X178356Y1598533D1*
Y1601467D1*
X178814Y1604365D1*
X179720Y1607155D1*
X179891Y1607525D1*
X142996Y1607524D1*
Y1632513D1*
X122500Y1632500D1*
X122470Y1619609D1*
X122227Y1618865D1*
X121768Y1618232D1*
X121135Y1617773D1*
X120391Y1617530D1*
X120000Y1617500D1*
X32500D1*
Y1505673D1*
X99155Y1505665D1*
Y1467488D1*
X152996Y1467524D1*
Y1497476D1*
X155496D1*
X325591Y1630000D2*
D16*
Y1607533D1*
X169409Y1630000D2*
Y1607533D1*
X143005Y1630000D2*
X169409D1*
X60929Y1505656D2*
Y1483189D1*
X99144D1*
X274690Y1590937D2*
X288299D1*
X218365Y1555005D2*
X291646D1*
X262189Y594226D2*
D18*
X267215D1*
X261820Y590420D2*
X268783D1*
X261458Y586614D2*
X270360D1*
X261089Y582808D2*
X271936D1*
X260874Y579003D2*
X273512D1*
X260735Y575197D2*
X275089D1*
X259997Y571391D2*
X276665D1*
X259629Y567585D2*
X278241D1*
X259266Y563780D2*
X279810D1*
X258898Y559974D2*
X281386D1*
X258537Y556168D2*
X282963D1*
X258167Y552362D2*
X284539D1*
X257806Y548556D2*
X286115D1*
X257437Y544751D2*
X287692D1*
X257298Y540945D2*
X289268D1*
X257298Y537139D2*
X290644D1*
X256337Y533333D2*
X290644D1*
X255975Y529528D2*
X290644D1*
X255606Y525722D2*
X290644D1*
X255245Y521916D2*
X290644D1*
X254877Y518110D2*
X290644D1*
X254514Y514304D2*
X290644D1*
X254146Y510499D2*
X290644D1*
X253785Y506693D2*
X290644D1*
X253415Y502887D2*
X290644D1*
X253054Y499081D2*
X290644D1*
X252685Y495276D2*
X290644D1*
X252323Y491470D2*
X290644D1*
X171299Y487664D2*
X290644D1*
X171299Y483858D2*
X290644D1*
X171299Y480052D2*
X290644D1*
X171299Y476247D2*
X290644D1*
X169354Y472441D2*
X290644D1*
X169354Y468635D2*
X290644D1*
X169354Y464829D2*
X290644D1*
X169354Y461024D2*
X290644D1*
X169354Y457218D2*
X290644D1*
X169354Y453412D2*
X290644D1*
X18360Y449606D2*
X57661D1*
X73843D2*
X290644D1*
X18360Y445801D2*
X49403D1*
X82101D2*
X290644D1*
X18360Y441995D2*
X44843D1*
X86669D2*
X290644D1*
X18360Y438189D2*
X41728D1*
X89776D2*
X290644D1*
X18360Y434383D2*
X39537D1*
X91967D2*
X290644D1*
X18360Y430577D2*
X38038D1*
X93466D2*
X290644D1*
X18360Y426772D2*
X37130D1*
X94374D2*
X290644D1*
X18360Y422966D2*
X36753D1*
X94751D2*
X290644D1*
X18360Y419160D2*
X36885D1*
X94619D2*
X290644D1*
X18360Y415354D2*
X37530D1*
X93974D2*
X290644D1*
X18360Y411549D2*
X38730D1*
X92774D2*
X290644D1*
X18360Y407743D2*
X40567D1*
X90945D2*
X290644D1*
X18360Y403937D2*
X43190D1*
X88315D2*
X290644D1*
X18360Y400131D2*
X46942D1*
X84562D2*
X290644D1*
X18360Y396325D2*
X52786D1*
X78718D2*
X290644D1*
X18360Y392520D2*
X290644D1*
X18360Y388714D2*
X290644D1*
X18360Y384908D2*
X290644D1*
X18360Y381102D2*
X290644D1*
X18360Y377297D2*
X290644D1*
X18360Y373491D2*
X290644D1*
X18360Y369685D2*
X290644D1*
X18360Y365879D2*
X290644D1*
X18360Y362073D2*
X290644D1*
X18360Y358268D2*
X290644D1*
X18360Y354462D2*
X290644D1*
X18360Y350656D2*
X290644D1*
X18360Y346850D2*
X290644D1*
X18360Y343045D2*
X290644D1*
X18360Y339239D2*
X290644D1*
X18360Y335433D2*
X290644D1*
X18360Y331627D2*
X290644D1*
X18360Y327822D2*
X290644D1*
X18360Y324016D2*
X290644D1*
X18360Y320210D2*
X290644D1*
X18360Y316404D2*
X290644D1*
X18360Y312598D2*
X290644D1*
X18360Y308793D2*
X290644D1*
X18360Y304987D2*
X290644D1*
X170903Y490034D2*
Y474748D1*
X168958D1*
X168940Y452697D1*
X168749Y452112D1*
X168387Y451613D1*
X167888Y451251D1*
X167303Y451060D1*
X166793Y451049D1*
X129608Y450786D1*
X69715Y450386D1*
X72542Y449845D1*
X74437Y449312D1*
X76290Y448651D1*
X78094Y447864D1*
X79840Y446955D1*
X81518Y445928D1*
X83123Y444789D1*
X84646Y443541D1*
X86079Y442192D1*
X87415Y440747D1*
X88650Y439214D1*
X89776Y437600D1*
X90789Y435912D1*
X91682Y434159D1*
X92454Y432349D1*
X93100Y430490D1*
X93615Y428591D1*
X94000Y426660D1*
X94251Y424707D1*
X94375Y422039D1*
X94307Y420072D1*
X94105Y418114D1*
X93768Y416176D1*
X93299Y414264D1*
X92699Y412390D1*
X91972Y410560D1*
X91122Y408786D1*
X90151Y407073D1*
X89066Y405433D1*
X87869Y403870D1*
X86568Y402394D1*
X85168Y401009D1*
X83677Y399724D1*
X82101Y398546D1*
X80449Y397478D1*
X78726Y396526D1*
X76942Y395694D1*
X75105Y394988D1*
X73223Y394409D1*
X71307Y393962D1*
X69365Y393646D1*
X67404Y393465D1*
X65437Y393419D1*
X63471Y393508D1*
X61516Y393732D1*
X59580Y394091D1*
X57675Y394581D1*
X55807Y395201D1*
X53986Y395949D1*
X52220Y396819D1*
X50520Y397808D1*
X48890Y398912D1*
X47341Y400126D1*
X45878Y401444D1*
X44509Y402858D1*
X43241Y404364D1*
X42080Y405951D1*
X41030Y407617D1*
X40098Y409349D1*
X39286Y411143D1*
X38600Y412987D1*
X38042Y414875D1*
X37615Y416797D1*
X37322Y418741D1*
X37163Y420703D1*
X37138Y422672D1*
X37249Y424636D1*
X37495Y426589D1*
X37875Y428521D1*
X38386Y430421D1*
X39026Y432282D1*
X39794Y434094D1*
X40684Y435850D1*
X41692Y437541D1*
X42814Y439157D1*
X44045Y440693D1*
X45378Y442140D1*
X46807Y443493D1*
X48327Y444744D1*
X49928Y445888D1*
X51605Y446920D1*
X53348Y447833D1*
X55150Y448625D1*
X57001Y449290D1*
X58895Y449828D1*
X61621Y450345D1*
X17951Y450039D1*
X17966Y422467D1*
Y303963D1*
X291037D1*
Y537655D1*
X269354Y590000D1*
X267088Y595538D1*
X267041Y596152D1*
X267256Y597896D1*
X262096Y597562D1*
X260479Y580535D1*
X260458Y576088D1*
X260185Y574365D1*
X259739Y572957D1*
X259948Y573524D1*
X259739Y572957D1*
X256903Y543155D1*
Y536751D1*
X256265D1*
X251938Y491654D1*
X251739Y491071D1*
X251367Y490579D1*
X250864Y490226D1*
X250274Y490046D1*
X249781Y490039D1*
X214567Y490026D1*
X170899D1*
X306612Y582894D2*
D17*
X310114D1*
X310888Y578025D2*
X315709D1*
X315176Y573156D2*
X321315D1*
X319463Y568287D2*
X326911D1*
X323740Y563419D2*
X332516D1*
X328028Y558550D2*
X338112D1*
X332304Y553681D2*
X343707D1*
X336592Y548812D2*
X349312D1*
X339991Y543944D2*
X354908D1*
X339991Y539075D2*
X367848D1*
X339991Y534206D2*
X383102D1*
X339991Y529337D2*
X393366D1*
X339991Y524469D2*
X927438D1*
X339991Y519600D2*
X927575D1*
X339991Y514731D2*
X929518D1*
X339991Y509862D2*
X934118D1*
X339991Y504993D2*
X938980D1*
X339991Y500125D2*
X943903D1*
X339991Y495256D2*
X1032877D1*
X339991Y490387D2*
X1031852D1*
X339991Y485518D2*
X1032125D1*
X339991Y480650D2*
X1033776D1*
X339991Y475781D2*
X1037282D1*
X339991Y470912D2*
X1045768D1*
X339991Y466043D2*
X1056930D1*
X339991Y461175D2*
X1056999D1*
X339991Y456306D2*
X1056999D1*
X339991Y451437D2*
X1056999D1*
X339991Y446568D2*
X1056999D1*
X339991Y441699D2*
X1056999D1*
X339991Y436831D2*
X1056999D1*
X339991Y431962D2*
X1056999D1*
X339991Y427093D2*
X1056999D1*
X339991Y422224D2*
X1056999D1*
X339991Y417356D2*
X1056999D1*
X339991Y412487D2*
X1056999D1*
X339991Y407618D2*
X1056999D1*
X339991Y402749D2*
X1056999D1*
X339991Y397881D2*
X1056999D1*
X339991Y393012D2*
X1056999D1*
X339991Y388143D2*
X1056999D1*
X339991Y383274D2*
X1056999D1*
X339991Y378406D2*
X1056999D1*
X339991Y373537D2*
X1056999D1*
X339991Y368668D2*
X1056999D1*
X339991Y363799D2*
X1056999D1*
X339991Y358930D2*
X1056999D1*
X339991Y354062D2*
X1056999D1*
X339991Y349193D2*
X1056999D1*
X339991Y344324D2*
X1056999D1*
X339991Y339455D2*
X1056999D1*
X339991Y334587D2*
X1056999D1*
X339991Y329718D2*
X1056999D1*
X339991Y324849D2*
X1056999D1*
X339991Y319980D2*
X1056999D1*
X339991Y315112D2*
X1056999D1*
X339991Y310243D2*
X1056999D1*
X339991Y305374D2*
X1056999D1*
X1053054Y470429D2*
X1051000Y470303D1*
X1048075Y470533D1*
X1045222Y471218D1*
X1042512Y472340D1*
X1040010Y473874D1*
X1037780Y475780D1*
X1035874Y478010D1*
X1034340Y480512D1*
X1033218Y483222D1*
X1032533Y486075D1*
X1032303Y489000D1*
X1032533Y491925D1*
X1033218Y494778D1*
X1034261Y497316D1*
X952000Y497304D1*
X950171Y497448D1*
X948386Y497877D1*
X946690Y498579D1*
X945125Y499538D1*
X943730Y500730D1*
X943503Y500975D1*
X931349Y513110D1*
X930157Y514505D1*
X929198Y516071D1*
X928496Y517766D1*
X928067Y519551D1*
X927924Y521381D1*
X927937Y521714D1*
X927924Y527504D1*
X404609Y527530D1*
X404240Y527618D1*
X401811Y528394D1*
X400000Y528303D1*
X397075Y528533D1*
X394222Y529218D1*
X391512Y530340D1*
X389010Y531874D1*
X387727Y532903D1*
X357060Y542685D1*
X356391Y543091D1*
X309134Y584180D1*
X307713Y584703D1*
X305530Y585783D1*
X304479Y586508D1*
X303510Y585829D1*
X304022Y586151D1*
X304562Y586440D1*
X304482Y586507D1*
X304790Y584392D1*
X339108Y545340D1*
X339417Y544622D1*
X339482Y543766D1*
X339495Y404003D1*
Y304495D1*
X1057500D1*
Y465970D1*
X1053041Y470419D1*
X279357Y595223D2*
D18*
X282441D1*
X280853Y591417D2*
X284094D1*
X282720Y587612D2*
X286963D1*
X284589Y583806D2*
X289839D1*
X286458Y580000D2*
X292706D1*
X288327Y576194D2*
X295583D1*
X290203Y572388D2*
X298450D1*
X292071Y568583D2*
X301327D1*
X293940Y564777D2*
X304194D1*
X295808Y560971D2*
X307071D1*
X297677Y557165D2*
X309938D1*
X299546Y553360D2*
X312815D1*
X301415Y549554D2*
X315682D1*
X303290Y545748D2*
X318559D1*
X305159Y541942D2*
X321427D1*
X307028Y538136D2*
X322634D1*
X307366Y534331D2*
X322634D1*
X307366Y530525D2*
X322634D1*
X307366Y526719D2*
X322634D1*
X307366Y522913D2*
X322634D1*
X307366Y519108D2*
X322634D1*
X307366Y515302D2*
X322634D1*
X307366Y511496D2*
X322634D1*
X307366Y507690D2*
X322634D1*
X307366Y503885D2*
X322634D1*
X307366Y500079D2*
X322634D1*
X307366Y496273D2*
X322634D1*
X307366Y492467D2*
X322634D1*
X307366Y488661D2*
X322634D1*
X307366Y484856D2*
X322634D1*
X307366Y481050D2*
X322634D1*
X307366Y477244D2*
X322634D1*
X307366Y473438D2*
X322634D1*
X307366Y469633D2*
X322634D1*
X307366Y465827D2*
X322634D1*
X307366Y462021D2*
X322634D1*
X307366Y458215D2*
X322634D1*
X307366Y454409D2*
X322634D1*
X307366Y450604D2*
X322634D1*
X307366Y446798D2*
X322634D1*
X307366Y442992D2*
X322634D1*
X307366Y439186D2*
X322634D1*
X307366Y435381D2*
X322634D1*
X307366Y431575D2*
X322634D1*
X307366Y427769D2*
X322634D1*
X307366Y423963D2*
X322634D1*
X307366Y420157D2*
X322634D1*
X307366Y416352D2*
X322634D1*
X307366Y412546D2*
X322634D1*
X307366Y408740D2*
X322634D1*
X307366Y404934D2*
X322634D1*
X307366Y401129D2*
X322634D1*
X307366Y397323D2*
X322634D1*
X307366Y393517D2*
X322634D1*
X307366Y389711D2*
X322634D1*
X307366Y385906D2*
X322634D1*
X307366Y382100D2*
X322634D1*
X307366Y378294D2*
X322634D1*
X307366Y374488D2*
X322634D1*
X307366Y370682D2*
X322634D1*
X307366Y366877D2*
X322634D1*
X307366Y363071D2*
X322634D1*
X307366Y359265D2*
X322634D1*
X307366Y355459D2*
X322634D1*
X307366Y351654D2*
X322634D1*
X307366Y347848D2*
X322634D1*
X307366Y344042D2*
X322634D1*
X307366Y340236D2*
X322634D1*
X307366Y336430D2*
X322634D1*
X307366Y332625D2*
X322634D1*
X307366Y328819D2*
X322634D1*
X307366Y325013D2*
X322634D1*
X307366Y321207D2*
X322634D1*
X307366Y317402D2*
X322634D1*
X307366Y313596D2*
X322634D1*
X282303Y599029D2*
X278950D1*
X278963Y596037D1*
Y594429D1*
X306766Y537862D1*
X306949Y537274D1*
X306955Y536777D1*
X306969Y499593D1*
Y310971D1*
X323031D1*
Y540361D1*
X283429Y592816D1*
X283139Y593361D1*
X283033Y593945D1*
X282293Y599046D1*
D22*
X315000Y311995D3*
X42008Y261995D3*
D86*
X180000Y161995D3*
D25*
X274409Y1630000D3*
X325591D3*
X179409Y1475000D3*
X230591D3*
X220591Y1630000D3*
X169409D3*
X181102Y1171260D3*
X232283D3*
D26*
X285433Y1263780D3*
Y1314961D3*
D25*
X230315Y1377953D3*
X281496D3*
X181102Y1210630D3*
X232283D3*
D26*
X149000Y500588D3*
Y449407D3*
D25*
X411241Y671241D3*
X462423D3*
D26*
X235000Y562591D3*
Y511409D3*
D25*
X398294Y566509D3*
X449475D3*
X398294Y609396D3*
X449475D3*
X115591Y550000D3*
X64409D3*
X402409Y776000D3*
X453591D3*
D26*
X215000Y944409D3*
Y995591D3*
X29000Y813591D3*
Y762409D3*
X879173Y556312D3*
Y607493D3*
D25*
X987819Y534000D3*
X1039000D3*
X1115000Y531995D3*
X1166181D3*
D26*
X879173Y717598D3*
Y666417D3*
X29000Y640591D3*
Y589409D3*
D25*
X1059409Y1444003D3*
X1110591D3*
D26*
X1108000Y1211591D3*
Y1160409D3*
X848559Y1126886D3*
Y1075705D3*
X891118Y1126886D3*
Y1075705D3*
X933677Y1126886D3*
Y1075705D3*
X345882Y1132591D3*
Y1081409D3*
X388441Y1132591D3*
Y1081409D3*
X431000Y1132591D3*
Y1081409D3*
X473559Y1132591D3*
Y1081409D3*
D27*
X1171000Y1238307D3*
Y1151693D3*
X815693Y1007000D3*
X902307D3*
Y933000D3*
X815693D3*
X462000Y1015000D3*
Y928386D3*
D28*
X60901Y1212598D3*
Y1385827D3*
D29*
X98425Y1013780D3*
D32*
Y1062992D3*
Y1112205D3*
D29*
X1281000Y1560394D3*
D32*
Y1609606D3*
D28*
X60927Y1483189D3*
Y1656417D3*
D33*
X954436Y1193005D3*
X934751D3*
X915066D3*
X895381D3*
X875696D3*
X856010D3*
X836325D3*
X816640D3*
X796955D3*
X777270D3*
X757585D3*
X737900D3*
X718215D3*
X698530D3*
X678845D3*
X659160D3*
X639475D3*
X619790D3*
X600105D3*
X580420D3*
X560735D3*
X541050D3*
X521365D3*
X501680D3*
X481995D3*
X462310D3*
X442625D3*
X422940D3*
X403255D3*
X383570D3*
X991837Y1291430D3*
X346168D3*
D29*
X1281000Y885000D3*
D32*
Y934213D3*
D34*
X1283007Y55997D3*
D37*
Y155997D3*
Y255997D3*
Y355997D3*
Y455997D3*
D38*
X1016076Y1022000D3*
X1157808D3*
D40*
X396685Y991496D3*
X357315D3*
X377000Y928504D3*
D25*
X279409Y1475000D3*
X330591D3*
D26*
X177165Y1372047D3*
Y1423228D3*
D25*
X281496Y1417323D3*
X230315D3*
X542614Y1440000D3*
X491433D3*
X431000D3*
X379819D3*
X219591Y1665591D3*
X168409D3*
D26*
X1173005Y1348591D3*
Y1297409D3*
Y1450593D3*
Y1399412D3*
D25*
X868276Y1440000D3*
X919457D3*
X645047D3*
X696228D3*
X756661D3*
X807843D3*
X351409Y1033000D3*
X402591D3*
D46*
X274690Y1590937D3*
X255005Y1590950D3*
X235320D3*
Y1519060D3*
X255005D3*
X274690D3*
D47*
X255005Y1555005D3*
D88*
X107638Y609173D3*
X123386D3*
X139134D3*
X154882D3*
X170630D3*
X186378D3*
X202126D3*
X217874D3*
X233622D3*
X249370D3*
X265118D3*
X280866D3*
X296614D3*
X312362D3*
D90*
X345827Y642638D3*
Y658386D3*
Y674134D3*
Y689882D3*
Y705630D3*
Y721378D3*
Y737126D3*
Y752874D3*
Y768622D3*
Y784370D3*
Y800118D3*
Y815866D3*
Y831614D3*
Y847362D3*
D88*
X312362Y880827D3*
X296614D3*
X280866D3*
X265118D3*
X249370D3*
X233622D3*
X217874D3*
X202126D3*
X186378D3*
X170630D3*
X154882D3*
X139134D3*
X123386D3*
X107638D3*
D90*
X74173Y847362D3*
Y831614D3*
Y815866D3*
Y800118D3*
Y784370D3*
Y768622D3*
Y752874D3*
Y737126D3*
Y721378D3*
Y705630D3*
Y689882D3*
Y674134D3*
Y658386D3*
Y642638D3*
D92*
X210000Y745000D3*
D48*
X1016391Y822139D3*
X990801D3*
X965210D3*
X939619D3*
Y589856D3*
X965210D3*
X990801D3*
X1016391D3*
D50*
X30307Y503693D3*
Y471331D3*
D95*
X83745Y440031D3*
D50*
X101186Y471331D3*
Y503693D3*
X65753D3*
D97*
X47761Y440031D3*
D99*
Y404047D3*
D101*
X83745D3*
D52*
X190946Y1253934D3*
X206696D3*
X222444D3*
X238190D3*
Y1324801D3*
X222444D3*
X206696D3*
X190946D3*
X175199D3*
Y1253934D3*
D54*
X1045601Y1274854D3*
X1083003D3*
X1120404D3*
Y1381154D3*
X1045601D3*
D48*
X1158005Y821995D3*
X1132415D3*
X1106824D3*
X1081234D3*
Y589711D3*
X1106824D3*
X1132415D3*
X1158005D3*
D103*
X840470Y807409D3*
X773541D3*
Y858591D3*
X840470D3*
D55*
X787906Y591745D3*
Y690171D3*
M02*
