G04 DipTrace 3.1.0.0*
G04 TopDimension.gbr*
%MOIN*%
G04 #@! TF.FileFunction,Drawing,Top*
G04 #@! TF.Part,Single*
%ADD13C,0.001378*%
%ADD83C,0.003088*%
%FSLAX26Y26*%
G04*
G70*
G90*
G75*
G01*
G04 TopDimension*
%LPD*%
X635499Y259029D2*
D13*
Y-105000D1*
X480184Y-9449D2*
Y-105000D1*
X557841Y-90000D2*
X605499D1*
G36*
X635499D2*
X605499Y-96000D1*
Y-84000D1*
X635499Y-90000D1*
G37*
X557841D2*
D13*
X510184D1*
G36*
X480184D2*
X510184Y-84000D1*
Y-96000D1*
X480184Y-90000D1*
G37*
X635499Y259029D2*
D13*
Y-105000D1*
X910446Y148491D2*
Y-105000D1*
X772972Y-90000D2*
X665499D1*
G36*
X635499D2*
X665499Y-84000D1*
Y-96000D1*
X635499Y-90000D1*
G37*
X772972D2*
D13*
X880446D1*
G36*
X910446D2*
X880446Y-96000D1*
Y-84000D1*
X910446Y-90000D1*
G37*
X1185499Y259029D2*
D13*
Y-105000D1*
X1335000Y0D2*
Y-105000D1*
X1260249Y-90000D2*
X1215499D1*
G36*
X1185499D2*
X1215499Y-84000D1*
Y-96000D1*
X1185499Y-90000D1*
G37*
X1260249D2*
D13*
X1305000D1*
G36*
X1335000D2*
X1305000Y-96000D1*
Y-84000D1*
X1335000Y-90000D1*
G37*
X1338583Y511811D2*
D13*
X1475000D1*
X910446Y369501D2*
X1475000D1*
X1460000Y511811D2*
Y369501D1*
Y556811D2*
Y541811D1*
G36*
Y511811D2*
X1454000Y541811D1*
X1466000D1*
X1460000Y511811D1*
G37*
Y324501D2*
D13*
Y339501D1*
G36*
Y369501D2*
X1466000Y339501D1*
X1454000D1*
X1460000Y369501D1*
G37*
X910446Y148491D2*
D13*
Y-105000D1*
X1185499Y259029D2*
Y-105000D1*
X1047972Y-90000D2*
X940446D1*
G36*
X910446D2*
X940446Y-84000D1*
Y-96000D1*
X910446Y-90000D1*
G37*
X1047972D2*
D13*
X1155499D1*
G36*
X1185499D2*
X1155499Y-96000D1*
Y-84000D1*
X1185499Y-90000D1*
G37*
X910446Y148491D2*
D13*
X1475000D1*
X1335000Y0D2*
X1475000D1*
X1460000Y74245D2*
Y118491D1*
G36*
Y148491D2*
X1466000Y118491D1*
X1454000D1*
X1460000Y148491D1*
G37*
Y74245D2*
D13*
Y30000D1*
G36*
Y0D2*
X1454000Y30000D1*
X1466000D1*
X1460000Y0D1*
G37*
X910446Y369501D2*
D13*
X1475000D1*
X1185499Y259029D2*
X1475000D1*
X1460000Y369501D2*
Y259029D1*
Y414501D2*
Y399501D1*
G36*
Y369501D2*
X1454000Y399501D1*
X1466000D1*
X1460000Y369501D1*
G37*
Y214029D2*
D13*
Y229029D1*
G36*
Y259029D2*
X1466000Y229029D1*
X1454000D1*
X1460000Y259029D1*
G37*
X1185499D2*
D13*
X1475000D1*
X910446Y148491D2*
X1475000D1*
X1460000Y259029D2*
Y148491D1*
Y304029D2*
Y289029D1*
G36*
Y259029D2*
X1454000Y289029D1*
X1466000D1*
X1460000Y259029D1*
G37*
Y103491D2*
D13*
Y118491D1*
G36*
Y148491D2*
X1466000Y118491D1*
X1454000D1*
X1460000Y148491D1*
G37*
X523577Y-67645D2*
D83*
X525501Y-66673D1*
X528375Y-63821D1*
Y-83895D1*
X546024Y-63821D2*
X536474D1*
X535523Y-72421D1*
X536474Y-71470D1*
X539348Y-70497D1*
X542200D1*
X545074Y-71470D1*
X546997Y-73371D1*
X547948Y-76245D1*
Y-78147D1*
X546997Y-81021D1*
X545074Y-82944D1*
X542200Y-83895D1*
X539348D1*
X536474Y-82944D1*
X535523Y-81971D1*
X534550Y-80070D1*
X565597Y-63821D2*
X556047D1*
X555096Y-72421D1*
X556047Y-71470D1*
X558921Y-70497D1*
X561773D1*
X564647Y-71470D1*
X566570Y-73371D1*
X567521Y-76245D1*
Y-78147D1*
X566570Y-81021D1*
X564647Y-82944D1*
X561773Y-83895D1*
X558921D1*
X556047Y-82944D1*
X555096Y-81971D1*
X554123Y-80070D1*
X574647Y-81971D2*
X573697Y-82944D1*
X574647Y-83895D1*
X575620Y-82944D1*
X574647Y-81971D1*
X583719Y-63821D2*
X594220D1*
X588494Y-71470D1*
X591368D1*
X593270Y-72421D1*
X594220Y-73371D1*
X595193Y-76245D1*
Y-78147D1*
X594220Y-81021D1*
X592319Y-82944D1*
X589445Y-83895D1*
X586571D1*
X583719Y-82944D1*
X582768Y-81971D1*
X581796Y-80070D1*
X735381Y-68596D2*
Y-67645D1*
X736332Y-65722D1*
X737283Y-64771D1*
X739206Y-63821D1*
X743031D1*
X744932Y-64771D1*
X745883Y-65722D1*
X746855Y-67645D1*
Y-69547D1*
X745883Y-71470D1*
X743981Y-74322D1*
X734409Y-83895D1*
X747806D1*
X757806D2*
X767379Y-63821D1*
X753982D1*
X783127Y-83895D2*
Y-63821D1*
X773555Y-77196D1*
X787903D1*
X795029Y-81971D2*
X794078Y-82944D1*
X795029Y-83895D1*
X796002Y-82944D1*
X795029Y-81971D1*
X814624Y-70497D2*
X813651Y-73371D1*
X811750Y-75295D1*
X808876Y-76245D1*
X807925D1*
X805051Y-75295D1*
X803150Y-73371D1*
X802177Y-70497D1*
Y-69547D1*
X803150Y-66673D1*
X805051Y-64771D1*
X807925Y-63821D1*
X808876D1*
X811750Y-64771D1*
X813651Y-66673D1*
X814624Y-70497D1*
Y-75295D1*
X813651Y-80070D1*
X811750Y-82944D1*
X808876Y-83895D1*
X806975D1*
X804101Y-82944D1*
X803150Y-81021D1*
X1225985Y-67645D2*
X1227909Y-66673D1*
X1230783Y-63821D1*
Y-83895D1*
X1246531D2*
Y-63821D1*
X1236959Y-77196D1*
X1251307D1*
X1269929Y-70497D2*
X1268956Y-73371D1*
X1267055Y-75295D1*
X1264181Y-76245D1*
X1263230D1*
X1260356Y-75295D1*
X1258455Y-73371D1*
X1257482Y-70497D1*
Y-69547D1*
X1258455Y-66673D1*
X1260356Y-64771D1*
X1263230Y-63821D1*
X1264181D1*
X1267055Y-64771D1*
X1268956Y-66673D1*
X1269929Y-70497D1*
Y-75295D1*
X1268956Y-80070D1*
X1267055Y-82944D1*
X1264181Y-83895D1*
X1262280D1*
X1259406Y-82944D1*
X1258455Y-81021D1*
X1277055Y-81971D2*
X1276105Y-82944D1*
X1277055Y-83895D1*
X1278028Y-82944D1*
X1277055Y-81971D1*
X1295678Y-63821D2*
X1286127D1*
X1285176Y-72421D1*
X1286127Y-71470D1*
X1289001Y-70497D1*
X1291853D1*
X1294727Y-71470D1*
X1296650Y-73371D1*
X1297601Y-76245D1*
Y-78147D1*
X1296650Y-81021D1*
X1294727Y-82944D1*
X1291853Y-83895D1*
X1289001D1*
X1286127Y-82944D1*
X1285176Y-81971D1*
X1284204Y-80070D1*
X1482355Y475395D2*
X1483327Y473472D1*
X1486179Y470598D1*
X1466105D1*
Y454850D2*
X1486179D1*
X1472804Y464422D1*
Y450074D1*
X1481404Y442926D2*
X1482355D1*
X1484278Y441975D1*
X1485229Y441025D1*
X1486179Y439101D1*
Y435277D1*
X1485229Y433375D1*
X1484278Y432425D1*
X1482355Y431452D1*
X1480453D1*
X1478530Y432425D1*
X1475678Y434326D1*
X1466105Y443899D1*
Y430501D1*
X1468029Y423375D2*
X1467056Y424326D1*
X1466105Y423375D1*
X1467056Y422402D1*
X1468029Y423375D1*
X1486179Y414303D2*
Y403802D1*
X1478530Y409528D1*
Y406654D1*
X1477579Y404753D1*
X1476629Y403802D1*
X1473755Y402829D1*
X1471853D1*
X1468979Y403802D1*
X1467056Y405703D1*
X1466105Y408577D1*
Y411451D1*
X1467056Y414303D1*
X1468029Y415254D1*
X1469930Y416226D1*
X1014681Y-68596D2*
Y-67645D1*
X1015632Y-65722D1*
X1016583Y-64771D1*
X1018506Y-63821D1*
X1022331D1*
X1024232Y-64771D1*
X1025183Y-65722D1*
X1026155Y-67645D1*
Y-69547D1*
X1025183Y-71470D1*
X1023281Y-74322D1*
X1013709Y-83895D1*
X1027106D1*
X1037106D2*
X1046679Y-63821D1*
X1033282D1*
X1064329D2*
X1054778D1*
X1053827Y-72421D1*
X1054778Y-71470D1*
X1057652Y-70497D1*
X1060504D1*
X1063378Y-71470D1*
X1065301Y-73371D1*
X1066252Y-76245D1*
Y-78147D1*
X1065301Y-81021D1*
X1063378Y-82944D1*
X1060504Y-83895D1*
X1057652D1*
X1054778Y-82944D1*
X1053827Y-81971D1*
X1052855Y-80070D1*
X1073378Y-81971D2*
X1072428Y-82944D1*
X1073378Y-83895D1*
X1074351Y-82944D1*
X1073378Y-81971D1*
X1080527Y-67645D2*
X1082450Y-66673D1*
X1085324Y-63821D1*
Y-83895D1*
X1482355Y108974D2*
X1483327Y107050D1*
X1486179Y104176D1*
X1466105D1*
Y88428D2*
X1486179D1*
X1472804Y98000D1*
Y83652D1*
X1486179Y72701D2*
X1485229Y75553D1*
X1483327Y76526D1*
X1481404D1*
X1479503Y75553D1*
X1478530Y73652D1*
X1477579Y69827D1*
X1476629Y66953D1*
X1474705Y65052D1*
X1472804Y64102D1*
X1469930D1*
X1468029Y65052D1*
X1467056Y66003D1*
X1466105Y68877D1*
Y72701D1*
X1467056Y75553D1*
X1468029Y76526D1*
X1469930Y77477D1*
X1472804D1*
X1474705Y76526D1*
X1476629Y74603D1*
X1477579Y71751D1*
X1478530Y67926D1*
X1479503Y66003D1*
X1481404Y65052D1*
X1483327D1*
X1485229Y66003D1*
X1486179Y68877D1*
Y72701D1*
X1468029Y56975D2*
X1467056Y57926D1*
X1466105Y56975D1*
X1467056Y56002D1*
X1468029Y56975D1*
X1486179Y38353D2*
Y47903D1*
X1477579Y48854D1*
X1478530Y47903D1*
X1479503Y45029D1*
Y42177D1*
X1478530Y39303D1*
X1476629Y37380D1*
X1473755Y36429D1*
X1471853D1*
X1468979Y37380D1*
X1467056Y39303D1*
X1466105Y42177D1*
Y45029D1*
X1467056Y47903D1*
X1468029Y48854D1*
X1469930Y49827D1*
X1482355Y344229D2*
X1483327Y342306D1*
X1486179Y339432D1*
X1466105D1*
X1482355Y333256D2*
X1483327Y331333D1*
X1486179Y328458D1*
X1466105D1*
X1486179Y316535D2*
X1485229Y319409D1*
X1482355Y321332D1*
X1477579Y322283D1*
X1474705D1*
X1469930Y321332D1*
X1467056Y319409D1*
X1466105Y316535D1*
Y314633D1*
X1467056Y311759D1*
X1469930Y309858D1*
X1474705Y308885D1*
X1477579D1*
X1482355Y309858D1*
X1485229Y311759D1*
X1486179Y314633D1*
Y316535D1*
X1482355Y309858D2*
X1469930Y321332D1*
X1468029Y301759D2*
X1467056Y302710D1*
X1466105Y301759D1*
X1467056Y300786D1*
X1468029Y301759D1*
X1486179Y283137D2*
Y292687D1*
X1477579Y293638D1*
X1478530Y292687D1*
X1479503Y289813D1*
Y286961D1*
X1478530Y284087D1*
X1476629Y282164D1*
X1473755Y281213D1*
X1471853D1*
X1468979Y282164D1*
X1467056Y284087D1*
X1466105Y286961D1*
Y289813D1*
X1467056Y292687D1*
X1468029Y293638D1*
X1469930Y294611D1*
X1482355Y233724D2*
X1483327Y231800D1*
X1486179Y228926D1*
X1466105D1*
X1482355Y222751D2*
X1483327Y220827D1*
X1486179Y217953D1*
X1466105D1*
X1486179Y206030D2*
X1485229Y208904D1*
X1482355Y210827D1*
X1477579Y211778D1*
X1474705D1*
X1469930Y210827D1*
X1467056Y208904D1*
X1466105Y206030D1*
Y204128D1*
X1467056Y201254D1*
X1469930Y199353D1*
X1474705Y198380D1*
X1477579D1*
X1482355Y199353D1*
X1485229Y201254D1*
X1486179Y204128D1*
Y206030D1*
X1482355Y199353D2*
X1469930Y210827D1*
X1468029Y191254D2*
X1467056Y192205D1*
X1466105Y191254D1*
X1467056Y190281D1*
X1468029Y191254D1*
X1486179Y172631D2*
Y182182D1*
X1477579Y183133D1*
X1478530Y182182D1*
X1479503Y179308D1*
Y176456D1*
X1478530Y173582D1*
X1476629Y171659D1*
X1473755Y170708D1*
X1471853D1*
X1468979Y171659D1*
X1467056Y173582D1*
X1466105Y176456D1*
Y179308D1*
X1467056Y182182D1*
X1468029Y183133D1*
X1469930Y184105D1*
M02*
