G04 DipTrace 3.1.0.0*
G04 TopMask.gbr*
%MOIN*%
G04 #@! TF.FileFunction,Soldermask,Top*
G04 #@! TF.Part,Single*
%AMOUTLINE3*
4,1,16,
0.005937,0.01302,
0.005395,0.015395,
0.003733,0.017476,
0.001334,0.018634,
-0.001334,0.018634,
-0.003733,0.017476,
-0.005395,0.015395,
-0.005937,0.01302,
-0.005937,-0.01302,
-0.005395,-0.015395,
-0.003733,-0.017476,
-0.001334,-0.018634,
0.001334,-0.018634,
0.003733,-0.017476,
0.005395,-0.015395,
0.005937,-0.01302,
0.005937,0.01302,
0*%
%AMOUTLINE5*
4,1,16,
0.01302,-0.005937,
0.015395,-0.005395,
0.017476,-0.003733,
0.018634,-0.001334,
0.018634,0.001334,
0.017476,0.003733,
0.015395,0.005395,
0.01302,0.005937,
-0.01302,0.005937,
-0.015395,0.005395,
-0.017476,0.003733,
-0.018634,0.001334,
-0.018634,-0.001334,
-0.017476,-0.003733,
-0.015395,-0.005395,
-0.01302,-0.005937,
0.01302,-0.005937,
0*%
%AMOUTLINE7*5,1,4,0,0,0.306316,-135.0*%
%AMOUTLINE10*
4,1,12,
0.016368,-0.015898,
0.000697,-0.015898,
-0.001123,-0.011216,
-0.003516,-0.007011,
-0.006874,-0.003652,
-0.011079,-0.00126,
-0.015761,0.000561,
-0.015761,0.01659,
-0.004901,0.013312,
0.002756,0.008892,
0.009028,0.002619,
0.013465,-0.005065,
0.016368,-0.015898,
0*%
%AMOUTLINE12*
4,1,12,
0.015898,0.016368,
0.015898,0.000697,
0.011216,-0.001123,
0.007011,-0.003516,
0.003652,-0.006874,
0.00126,-0.011079,
-0.000561,-0.015761,
-0.01659,-0.015761,
-0.013312,-0.004901,
-0.008892,0.002756,
-0.002619,0.009028,
0.005065,0.013465,
0.015898,0.016368,
0*%
%AMOUTLINE14*
4,1,12,
-0.016368,0.015898,
-0.000697,0.015898,
0.001123,0.011216,
0.003516,0.007011,
0.006874,0.003652,
0.011079,0.00126,
0.015761,-0.000561,
0.015761,-0.01659,
0.004901,-0.013312,
-0.002756,-0.008892,
-0.009028,-0.002619,
-0.013465,0.005065,
-0.016368,0.015898,
0*%
%AMOUTLINE16*
4,1,12,
-0.015898,-0.016368,
-0.015898,-0.000697,
-0.011216,0.001123,
-0.007011,0.003516,
-0.003652,0.006874,
-0.00126,0.011079,
0.000561,0.015761,
0.01659,0.015761,
0.013312,0.004901,
0.008892,-0.002756,
0.002619,-0.009028,
-0.005065,-0.013465,
-0.015898,-0.016368,
0*%
%AMOUTLINE18*
4,1,4,
0.021685,0.025622,
0.021685,-0.025622,
-0.021685,-0.025622,
-0.021685,0.025622,
0.021685,0.025622,
0*%
%ADD60C,0.027008*%
%ADD65R,0.078803X0.047307*%
%ADD66R,0.027622X0.047307*%
%ADD67R,0.012858X0.027622*%
%ADD68R,0.027622X0.024551*%
%ADD69R,0.021717X0.061087*%
%ADD70R,0.059906X0.028016*%
%ADD71R,0.013843X0.030575*%
%ADD74R,0.024079X0.019748*%
%ADD75R,0.049276X0.110299*%
%ADD76C,0.070929*%
%ADD77R,0.070929X0.070929*%
%ADD78R,0.015811X0.035496*%
%ADD79C,0.04337*%
%ADD80R,0.04337X0.04337*%
%ADD81R,0.063055X0.031559*%
%ADD82R,0.027622X0.027622*%
%ADD83R,0.031559X0.039433*%
%ADD84R,0.039433X0.031559*%
%ADD91OUTLINE3*%
%ADD93OUTLINE5*%
%ADD95OUTLINE7*%
%ADD98OUTLINE10*%
%ADD100OUTLINE12*%
%ADD102OUTLINE14*%
%ADD104OUTLINE16*%
%ADD106OUTLINE18*%
%FSLAX26Y26*%
G04*
G70*
G90*
G75*
G01*
G04 TopMask*
%LPD*%
D84*
X283404Y1141995D3*
X334585D3*
X238404Y986995D3*
X289585D3*
X229585Y1141995D3*
X178404D3*
X1070669Y925890D3*
X1121850D3*
D83*
X1175000Y1018409D3*
Y1069591D3*
D84*
X1119882Y1132583D3*
X1171063D3*
X1070669Y965260D3*
X1121850D3*
D83*
X149000Y500588D3*
Y449407D3*
D84*
X411241Y671241D3*
X462423D3*
D83*
X235000Y562591D3*
Y511409D3*
D84*
X398294Y566509D3*
X449475D3*
X398294Y609396D3*
X449475D3*
X115591Y550000D3*
X64409D3*
X402409Y776000D3*
X453591D3*
D83*
X200000Y954409D3*
Y1005591D3*
X29000Y813591D3*
Y762409D3*
X879173Y556312D3*
Y607493D3*
D84*
X987819Y534000D3*
X1039000D3*
X1115000Y531995D3*
X1166181D3*
D83*
X879173Y717598D3*
Y666417D3*
X29000Y640591D3*
Y589409D3*
D84*
X41409Y1654000D3*
X92591D3*
X229591Y1411000D3*
X178409D3*
D83*
X867559Y1126886D3*
Y1075705D3*
X910118Y1126886D3*
Y1075705D3*
X952677Y1126886D3*
Y1075705D3*
D84*
X415165Y1121000D3*
X466346D3*
X415165Y1079000D3*
X466346D3*
Y1037000D3*
X415165D3*
X466756Y995000D3*
X415575D3*
D82*
X256307Y1355000D3*
X169693D3*
X1069000Y1323307D3*
Y1236693D3*
X1143000Y1237693D3*
Y1324307D3*
X913000Y1021000D3*
Y934386D3*
D81*
X69011Y1225386D3*
Y1398614D3*
D80*
X1151213Y94000D3*
D79*
X1102000D3*
X1052787D3*
D80*
X1281000Y1560394D3*
D79*
Y1609606D3*
D81*
X69922Y947184D3*
Y1120412D3*
D78*
X954436Y1193005D3*
X934751D3*
X915066D3*
X895381D3*
X875696D3*
X856010D3*
X836325D3*
X816640D3*
X796955D3*
X777270D3*
X757585D3*
X737900D3*
X718215D3*
X698530D3*
X678845D3*
X659160D3*
X639475D3*
X619790D3*
X600105D3*
X580420D3*
X560735D3*
X541050D3*
X521365D3*
X501680D3*
X481995D3*
X462310D3*
X442625D3*
X422940D3*
X403255D3*
X383570D3*
X991837Y1291430D3*
X346168D3*
D80*
X1281000Y1268000D3*
D79*
Y1317213D3*
D77*
X1283007Y55997D3*
D76*
Y155997D3*
Y255997D3*
Y355997D3*
Y455997D3*
D75*
X290055Y1258000D3*
X171945D3*
D74*
X842685Y978496D3*
X803315D3*
X823000Y915504D3*
D83*
X365000Y1041591D3*
Y990409D3*
X1013472Y1021362D3*
Y1072543D3*
D84*
X1068063Y1132953D3*
X1016882D3*
X415756Y905000D3*
X466937D3*
X466756Y947000D3*
X415575D3*
X233585Y1177585D3*
X182404D3*
X178409Y1448000D3*
X229591D3*
X55409D3*
X106591D3*
D83*
X825000Y1075409D3*
Y1126591D3*
D84*
X569409Y1125000D3*
X620591D3*
D83*
X783000Y1126591D3*
Y1075409D3*
D84*
X797409Y1029000D3*
X848591D3*
D71*
X283685Y1102932D3*
X264000Y1102945D3*
X244315D3*
Y1031055D3*
X264000D3*
X283685D3*
D70*
X264000Y1067000D3*
D91*
X107638Y609173D3*
X123386D3*
X139134D3*
X154882D3*
X170630D3*
X186378D3*
X202126D3*
X217874D3*
X233622D3*
X249370D3*
X265118D3*
X280866D3*
X296614D3*
X312362D3*
D93*
X345827Y642638D3*
Y658386D3*
Y674134D3*
Y689882D3*
Y705630D3*
Y721378D3*
Y737126D3*
Y752874D3*
Y768622D3*
Y784370D3*
Y800118D3*
Y815866D3*
Y831614D3*
Y847362D3*
D91*
X312362Y880827D3*
X296614D3*
X280866D3*
X265118D3*
X249370D3*
X233622D3*
X217874D3*
X202126D3*
X186378D3*
X170630D3*
X154882D3*
X139134D3*
X123386D3*
X107638D3*
D93*
X74173Y847362D3*
Y831614D3*
Y815866D3*
Y800118D3*
Y784370D3*
Y768622D3*
Y752874D3*
Y737126D3*
Y721378D3*
Y705630D3*
Y689882D3*
Y674134D3*
Y658386D3*
Y642638D3*
D95*
X210000Y745000D3*
D69*
X1016391Y822139D3*
X990801D3*
X965210D3*
X939619D3*
Y589856D3*
X965210D3*
X990801D3*
X1016391D3*
D68*
X30307Y503693D3*
Y471331D3*
D98*
X83745Y440031D3*
D68*
X101186Y471331D3*
Y503693D3*
X65753D3*
D100*
X47761Y440031D3*
D102*
Y404047D3*
D104*
X83745D3*
D60*
X65753Y422039D3*
D67*
X1080513Y1008564D3*
X1096262D3*
X1112010D3*
X1127757D3*
Y1079430D3*
X1112010D3*
X1096262D3*
X1080513D3*
X1064766D3*
Y1008564D3*
D66*
X29598Y1494850D3*
X67000D3*
X104402D3*
Y1601150D3*
X29598D3*
D69*
X1158005Y821995D3*
X1132415D3*
X1106824D3*
X1081234D3*
Y589711D3*
X1106824D3*
X1132415D3*
X1158005D3*
D106*
X769409Y768535D3*
Y835465D3*
X820591D3*
Y768535D3*
D65*
X787906Y591745D3*
Y690171D3*
M02*
