G04 DipTrace 3.1.0.0*
G04 TopPaste.gbr*
%MOIN*%
G04 #@! TF.FileFunction,Paste,Top*
G04 #@! TF.Part,Single*
%AMOUTLINE2*
4,1,16,
0.003937,0.012795,
0.003547,0.014504,
0.002454,0.015873,
0.000877,0.016634,
-0.000877,0.016634,
-0.002454,0.015873,
-0.003547,0.014504,
-0.003937,0.012795,
-0.003937,-0.012795,
-0.003547,-0.014504,
-0.002454,-0.015873,
-0.000877,-0.016634,
0.000877,-0.016634,
0.002454,-0.015873,
0.003547,-0.014504,
0.003937,-0.012795,
0.003937,0.012795,
0*%
%AMOUTLINE4*
4,1,16,
0.012795,-0.003937,
0.014504,-0.003547,
0.015873,-0.002454,
0.016634,-0.000877,
0.016634,0.000877,
0.015873,0.002454,
0.014504,0.003547,
0.012795,0.003937,
-0.012795,0.003937,
-0.014504,0.003547,
-0.015873,0.002454,
-0.016634,0.000877,
-0.016634,-0.000877,
-0.015873,-0.002454,
-0.014504,-0.003547,
-0.012795,-0.003937,
0.012795,-0.003937,
0*%
%AMOUTLINE8*5,1,4,0,0,0.187523,-135.0*%
%AMOUTLINE9*
4,1,12,
0.013761,-0.013898,
0.002066,-0.013898,
0.000688,-0.010354,
-0.001911,-0.005787,
-0.005651,-0.002047,
-0.010218,0.000551,
-0.013761,0.001929,
-0.013761,0.013898,
-0.005701,0.011465,
0.001528,0.007291,
0.007428,0.001391,
0.011601,-0.005837,
0.013761,-0.013898,
0*%
%AMOUTLINE11*
4,1,12,
0.013898,0.013761,
0.013898,0.002066,
0.010354,0.000688,
0.005787,-0.001911,
0.002047,-0.005651,
-0.000551,-0.010218,
-0.001929,-0.013761,
-0.013898,-0.013761,
-0.011465,-0.005701,
-0.007291,0.001528,
-0.001391,0.007428,
0.005837,0.011601,
0.013898,0.013761,
0*%
%AMOUTLINE13*
4,1,12,
-0.013761,0.013898,
-0.002066,0.013898,
-0.000688,0.010354,
0.001911,0.005787,
0.005651,0.002047,
0.010218,-0.000551,
0.013761,-0.001929,
0.013761,-0.013898,
0.005701,-0.011465,
-0.001528,-0.007291,
-0.007428,-0.001391,
-0.011601,0.005837,
-0.013761,0.013898,
0*%
%AMOUTLINE15*
4,1,12,
-0.013898,-0.013761,
-0.013898,-0.002066,
-0.010354,-0.000688,
-0.005787,0.001911,
-0.002047,0.005651,
0.000551,0.010218,
0.001929,0.013761,
0.013898,0.013761,
0.011465,0.005701,
0.007291,-0.001528,
0.001391,-0.007428,
-0.005837,-0.011601,
-0.013898,-0.013761,
0*%
%AMOUTLINE19*
4,1,4,
0.017685,0.021622,
0.017685,-0.021622,
-0.017685,-0.021622,
-0.017685,0.021622,
0.017685,0.021622,
0*%
%ADD28R,0.035433X0.027559*%
%ADD29R,0.027559X0.035433*%
%ADD30R,0.023622X0.023622*%
%ADD31R,0.059055X0.027559*%
%ADD36R,0.011811X0.031496*%
%ADD41R,0.045276X0.106299*%
%ADD43R,0.020079X0.015748*%
%ADD49R,0.009843X0.026575*%
%ADD50R,0.055906X0.024016*%
%ADD51R,0.017717X0.057087*%
%ADD53R,0.023622X0.020551*%
%ADD55R,0.008858X0.023622*%
%ADD57R,0.023622X0.043307*%
%ADD58R,0.074803X0.043307*%
%ADD90OUTLINE2*%
%ADD92OUTLINE4*%
%ADD96OUTLINE8*%
%ADD97OUTLINE9*%
%ADD99OUTLINE11*%
%ADD101OUTLINE13*%
%ADD103OUTLINE15*%
%ADD107OUTLINE19*%
%FSLAX26Y26*%
G04*
G70*
G90*
G75*
G01*
G04 TopPaste*
%LPD*%
D28*
X283404Y1141995D3*
X334585D3*
X238404Y986995D3*
X289585D3*
X229585Y1141995D3*
X178404D3*
X1070669Y925890D3*
X1121850D3*
D29*
X1175000Y1018409D3*
Y1069591D3*
D28*
X1119882Y1132583D3*
X1171063D3*
X1070669Y965260D3*
X1121850D3*
D29*
X149000Y500588D3*
Y449407D3*
D28*
X411241Y671241D3*
X462423D3*
D29*
X235000Y562591D3*
Y511409D3*
D28*
X398294Y566509D3*
X449475D3*
X398294Y609396D3*
X449475D3*
X115591Y550000D3*
X64409D3*
X402409Y776000D3*
X453591D3*
D29*
X200000Y954409D3*
Y1005591D3*
X29000Y813591D3*
Y762409D3*
X879173Y556312D3*
Y607493D3*
D28*
X987819Y534000D3*
X1039000D3*
X1115000Y531995D3*
X1166181D3*
D29*
X879173Y717598D3*
Y666417D3*
X29000Y640591D3*
Y589409D3*
D28*
X41409Y1654000D3*
X92591D3*
X229591Y1411000D3*
X178409D3*
D29*
X867559Y1126886D3*
Y1075705D3*
X910118Y1126886D3*
Y1075705D3*
X952677Y1126886D3*
Y1075705D3*
D28*
X415165Y1121000D3*
X466346D3*
X415165Y1079000D3*
X466346D3*
Y1037000D3*
X415165D3*
X466756Y995000D3*
X415575D3*
D30*
X256307Y1355000D3*
X169693D3*
X1069000Y1323307D3*
Y1236693D3*
X1143000Y1237693D3*
Y1324307D3*
X913000Y1021000D3*
Y934386D3*
D31*
X69011Y1225386D3*
Y1398614D3*
X69922Y947184D3*
Y1120412D3*
D36*
X954436Y1193005D3*
X934751D3*
X915066D3*
X895381D3*
X875696D3*
X856010D3*
X836325D3*
X816640D3*
X796955D3*
X777270D3*
X757585D3*
X737900D3*
X718215D3*
X698530D3*
X678845D3*
X659160D3*
X639475D3*
X619790D3*
X600105D3*
X580420D3*
X560735D3*
X541050D3*
X521365D3*
X501680D3*
X481995D3*
X462310D3*
X442625D3*
X422940D3*
X403255D3*
X383570D3*
X991837Y1291430D3*
X346168D3*
D41*
X290055Y1258000D3*
X171945D3*
D43*
X842685Y978496D3*
X803315D3*
X823000Y915504D3*
D29*
X365000Y1041591D3*
Y990409D3*
X1013472Y1021362D3*
Y1072543D3*
D28*
X1068063Y1132953D3*
X1016882D3*
X415756Y905000D3*
X466937D3*
X466756Y947000D3*
X415575D3*
X233585Y1177585D3*
X182404D3*
X178409Y1448000D3*
X229591D3*
X55409D3*
X106591D3*
D29*
X825000Y1075409D3*
Y1126591D3*
D28*
X569409Y1125000D3*
X620591D3*
D29*
X783000Y1126591D3*
Y1075409D3*
D28*
X797409Y1029000D3*
X848591D3*
D49*
X283685Y1102932D3*
X264000Y1102945D3*
X244315D3*
Y1031055D3*
X264000D3*
X283685D3*
D50*
X264000Y1067000D3*
D90*
X107638Y609173D3*
X123386D3*
X139134D3*
X154882D3*
X170630D3*
X186378D3*
X202126D3*
X217874D3*
X233622D3*
X249370D3*
X265118D3*
X280866D3*
X296614D3*
X312362D3*
D92*
X345827Y642638D3*
Y658386D3*
Y674134D3*
Y689882D3*
Y705630D3*
Y721378D3*
Y737126D3*
Y752874D3*
Y768622D3*
Y784370D3*
Y800118D3*
Y815866D3*
Y831614D3*
Y847362D3*
D90*
X312362Y880827D3*
X296614D3*
X280866D3*
X265118D3*
X249370D3*
X233622D3*
X217874D3*
X202126D3*
X186378D3*
X170630D3*
X154882D3*
X139134D3*
X123386D3*
X107638D3*
D92*
X74173Y847362D3*
Y831614D3*
Y815866D3*
Y800118D3*
Y784370D3*
Y768622D3*
Y752874D3*
Y737126D3*
Y721378D3*
Y705630D3*
Y689882D3*
Y674134D3*
Y658386D3*
Y642638D3*
D96*
X210000Y745000D3*
D51*
X1016391Y822139D3*
X990801D3*
X965210D3*
X939619D3*
Y589856D3*
X965210D3*
X990801D3*
X1016391D3*
D53*
X30307Y503693D3*
Y471331D3*
D97*
X83745Y440031D3*
D53*
X101186Y471331D3*
Y503693D3*
X65753D3*
D99*
X47761Y440031D3*
D101*
Y404047D3*
D103*
X83745D3*
D55*
X1080513Y1008564D3*
X1096262D3*
X1112010D3*
X1127757D3*
Y1079430D3*
X1112010D3*
X1096262D3*
X1080513D3*
X1064766D3*
Y1008564D3*
D57*
X29598Y1494850D3*
X67000D3*
X104402D3*
Y1601150D3*
X29598D3*
D51*
X1158005Y821995D3*
X1132415D3*
X1106824D3*
X1081234D3*
Y589711D3*
X1106824D3*
X1132415D3*
X1158005D3*
D107*
X769409Y768535D3*
Y835465D3*
X820591D3*
Y768535D3*
D58*
X787906Y591745D3*
Y690171D3*
M02*
