G04 DipTrace 3.1.0.0*
G04 TopPaste.gbr*
%MOIN*%
G04 #@! TF.FileFunction,Paste,Top*
G04 #@! TF.Part,Single*
%AMOUTLINE5*
4,1,2,
0.0,0.012352,
0.0,-0.012352,
0.0,0.012352,
0*%
%AMOUTLINE8*
4,1,2,
0.012352,0.0,
-0.012352,0.0,
0.012352,0.0,
0*%
%AMOUTLINE11*5,1,4,0,0,0.289524,-135.0*%
%AMOUTLINE14*
4,1,4,
-0.019685,0.015748,
0.019685,0.015748,
0.019685,-0.015748,
-0.019685,-0.015748,
-0.019685,0.015748,
0*%
%ADD73R,0.066929X0.035433*%
%ADD75R,0.015748X0.035433*%
%ADD81R,0.000984X0.015748*%
%ADD85R,0.015748X0.012677*%
%ADD87R,0.009843X0.049213*%
%ADD89R,0.048032X0.016142*%
%ADD91R,0.001969X0.018701*%
%ADD97R,0.012205X0.007874*%
%ADD99R,0.051181X0.149606*%
%ADD101R,0.055118X0.059055*%
%ADD103R,0.003937X0.023622*%
%ADD108R,0.051181X0.019685*%
%ADD110R,0.040157X0.027953*%
%ADD111R,0.015748X0.015748*%
%ADD113R,0.019685X0.027559*%
%ADD115R,0.027559X0.019685*%
%ADD125OUTLINE5*%
%ADD128OUTLINE8*%
%ADD131OUTLINE11*%
%ADD134OUTLINE14*%
%FSLAX26Y26*%
G04*
G70*
G90*
G75*
G01*
G04 TopPaste*
%LPD*%
D115*
X668110Y2028701D3*
X719292D3*
X573110Y1873701D3*
X624292D3*
X614292Y2028701D3*
X563110D3*
X574803Y1564961D3*
X625984D3*
D113*
X679134Y1657481D3*
Y1708662D3*
D115*
X624016Y1771654D3*
X675197D3*
X574803Y1604331D3*
X625984D3*
D113*
X538701Y880292D3*
Y829110D3*
D115*
X808110Y1095701D3*
X859292D3*
X808110Y1061701D3*
X859292D3*
X631429Y902701D3*
X580248D3*
X631429Y936701D3*
X580248D3*
X780110Y901701D3*
X831292D3*
X780110Y935701D3*
X831292D3*
X780110Y969701D3*
X831292D3*
X780110Y1003701D3*
X831292D3*
X477792Y934201D3*
X426610D3*
X477792Y968201D3*
X426610D3*
D113*
X861701Y1201110D3*
Y1252292D3*
X826701Y1201110D3*
Y1252292D3*
D115*
X540292Y1323701D3*
X489110D3*
D113*
X576701Y1367110D3*
Y1418292D3*
X428701Y1121292D3*
Y1070110D3*
Y1235110D3*
Y1286292D3*
X1272874Y950008D3*
Y1001189D3*
D115*
X1370701Y1275701D3*
X1319520D3*
X1508701Y925701D3*
X1559882D3*
D113*
X1272874Y1111299D3*
Y1060118D3*
D115*
X1486292Y1663260D3*
X1435110D3*
D113*
X1553701Y1886110D3*
Y1937292D3*
X1264701Y1512292D3*
Y1461110D3*
X1301701Y1512292D3*
Y1461110D3*
X1339701Y1512292D3*
Y1461110D3*
X759260Y1534246D3*
Y1483065D3*
X793819Y1534246D3*
Y1483065D3*
X828378Y1534246D3*
Y1483065D3*
X862937Y1534246D3*
Y1483065D3*
D111*
X1551701Y1649008D3*
Y1562394D3*
D110*
X1204701Y1511071D3*
Y1382331D3*
X1131701D3*
Y1511071D3*
D111*
X857701Y1398701D3*
Y1312087D3*
D108*
X462534Y1606299D3*
Y1779528D3*
X462555Y1881890D3*
Y2055118D3*
D103*
X777559Y1692914D3*
X797244D3*
X816929D3*
X836614D3*
X856299D3*
X875984D3*
X895670D3*
X915355D3*
X935040D3*
X954725D3*
X974410D3*
X994095D3*
X1013780D3*
X1033465D3*
X1053150D3*
X1072835D3*
X1092520D3*
X1112205D3*
X1131890D3*
X1151575D3*
X1171260D3*
X1190945D3*
X1210630D3*
X1230315D3*
X1250000D3*
X1269685D3*
X1289370D3*
X1309055D3*
X1328740D3*
X1348425D3*
X740158Y1594488D3*
X1385827D3*
D101*
X1680701Y1344701D3*
Y1258087D3*
D99*
X1408772Y1423701D3*
X1550504D3*
D97*
X804386Y1391197D3*
X765016D3*
X784701Y1328205D3*
D115*
X673110Y1873701D3*
X724292D3*
D113*
X570866Y1765748D3*
Y1816929D3*
D115*
X675197Y1811024D3*
X624016D3*
X1448110Y1883701D3*
X1499292D3*
Y1931701D3*
X1448110D3*
X1486292Y1578142D3*
X1435110D3*
X1177110Y1339701D3*
X1228292D3*
X1435110Y1620701D3*
X1486292D3*
X773110Y1436701D3*
X824292D3*
D91*
X668386Y1989626D3*
X648701Y1989646D3*
X629016D3*
Y1917756D3*
X648701D3*
X668386D3*
D89*
X648701Y1953701D3*
D125*
X501339Y1002872D3*
X517087D3*
X532835D3*
X548583D3*
X564331D3*
X580079D3*
X595827D3*
X611575D3*
X627323D3*
X643071D3*
X658819D3*
X674567D3*
X690315D3*
X706063D3*
D128*
X739528Y1036336D3*
Y1052084D3*
Y1067832D3*
Y1083580D3*
Y1099328D3*
Y1115076D3*
Y1130824D3*
Y1146572D3*
Y1162320D3*
Y1178068D3*
Y1193816D3*
Y1209565D3*
Y1225313D3*
Y1241061D3*
D125*
X706063Y1274525D3*
X690315D3*
X674567D3*
X658819D3*
X643071D3*
X627323D3*
X611575D3*
X595827D3*
X580079D3*
X564331D3*
X548583D3*
X532835D3*
X517087D3*
X501339Y1274530D3*
D128*
X467874Y1241061D3*
Y1225313D3*
Y1209565D3*
Y1193816D3*
Y1178068D3*
Y1162320D3*
Y1146572D3*
Y1130824D3*
Y1115076D3*
Y1099328D3*
Y1083580D3*
Y1067832D3*
Y1052084D3*
Y1036336D3*
D131*
X603701Y1138701D3*
D87*
X1410087Y1215843D3*
X1384496D3*
X1358906D3*
X1333315D3*
Y983559D3*
X1358906D3*
X1384496D3*
X1410087D3*
D85*
X424002Y878397D3*
Y846034D3*
X494881D3*
Y878397D3*
X459448D3*
D81*
X584646Y1647638D3*
X600394D3*
X616142D3*
X631890D3*
Y1718504D3*
X616142D3*
X600394D3*
X584646D3*
X568898D3*
Y1647638D3*
D75*
X1533103Y1829851D3*
X1495701D3*
X1458299D3*
Y1723551D3*
X1533103D3*
D87*
X1551701Y1215701D3*
X1526110D3*
X1500520D3*
X1474929D3*
Y983418D3*
X1500520D3*
X1526110D3*
X1551701D3*
D134*
X1225166Y1218110D3*
X1158236D3*
Y1269292D3*
X1225166D3*
D73*
X1174607Y985441D3*
Y1083866D3*
M02*
