G04 DipTrace 3.1.0.0*
G04 TopSilk.gbr*
%MOIN*%
G04 #@! TF.FileFunction,Legend,Top*
G04 #@! TF.Part,Single*
%ADD10C,0.009843*%
%ADD19C,0.001312*%
%ADD20C,0.004*%
%ADD21C,0.001*%
%ADD28C,0.009449*%
%ADD40C,0.015403*%
%ADD46C,0.015417*%
%ADD50C,0.012493*%
%ADD56C,0.011812*%
%ADD63C,0.015401*%
%ADD118C,0.003088*%
%ADD119C,0.004632*%
%FSLAX26Y26*%
G04*
G70*
G90*
G75*
G01*
G04 TopSilk*
%LPD*%
X427693Y470691D2*
D21*
X398701D1*
X1575322Y1637202D2*
D10*
Y1574211D1*
X1528080Y1637202D2*
Y1574211D1*
D28*
X1551701Y1674210D3*
X1234074Y1482136D2*
D10*
Y1411264D1*
X1175331Y1482136D2*
Y1411264D1*
X1224698Y1546701D2*
X1184700D1*
X1102328Y1411266D2*
Y1482138D1*
X1161071Y1411266D2*
Y1482138D1*
X1111704Y1346701D2*
X1151702D1*
X881322Y1386895D2*
Y1323904D1*
X834080Y1386895D2*
Y1323904D1*
D28*
X857701Y1423903D3*
X423215Y1692914D2*
D10*
X505990D1*
X478394Y1661410D2*
X505990Y1692914D1*
X500191Y1592921D2*
G03X525221Y1630408I-6190J31232D01*
G01*
Y1755419D1*
G03X500191Y1792906I-31220J6255D01*
G01*
X425089Y1592921D2*
X400059D1*
Y1792906D1*
X425089D1*
X505990Y1692914D2*
X478394Y1724417D1*
X406693Y1344488D2*
X540551D1*
Y1568898D1*
X406693D1*
Y1344488D1*
X603544Y1349410D2*
X737402D1*
Y1524607D1*
X603544D1*
Y1349410D1*
X423236Y1968504D2*
X506011D1*
X478415Y1937001D2*
X506011Y1968504D1*
X500212Y1868512D2*
G03X525242Y1905999I-6190J31232D01*
G01*
Y2031009D1*
G03X500212Y2068496I-31220J6255D01*
G01*
X425110Y1868512D2*
X400080D1*
Y2068496D1*
X425110D1*
X506011Y1968504D2*
X478415Y2000008D1*
X763753Y1700781D2*
X724410D1*
Y1566929D1*
X1401575D1*
Y1700781D1*
X1362232D1*
X1653129Y1389908D2*
X1708273D1*
X1585937Y1337082D2*
Y1321339D1*
X1373339D1*
Y1337082D1*
Y1510320D2*
Y1526063D1*
X1585937D1*
Y1510320D1*
D40*
X825395Y1401974D3*
X816200Y1371513D2*
D10*
X753206D1*
Y1347888D1*
X816200D1*
Y1371513D1*
D46*
X669709Y2023345D3*
X688071Y1993100D2*
D10*
Y1914331D1*
X609331Y1993100D2*
Y1914331D1*
X721827Y996971D2*
X745428D1*
Y1020603D1*
X461974Y1280431D2*
Y1256860D1*
Y1280431D2*
X485575D1*
X745428Y1256860D2*
Y1280431D1*
X721827D2*
X745428D1*
X485575Y996971D2*
X461974Y1020603D1*
X1430756Y1162697D2*
X1312646D1*
X1430756Y1036705D2*
X1312646D1*
Y1162697D2*
Y1036705D1*
X1430756Y1162697D2*
Y1119378D1*
Y1080024D2*
Y1036705D1*
Y1119378D2*
G03X1430756Y1080024I-24J-19677D01*
G01*
X434444Y896741D2*
X515698D1*
Y752994D1*
X403199D1*
Y865496D1*
D50*
X403187Y896734D3*
X647639Y1643689D2*
D10*
Y1722441D1*
X553143Y1643689D2*
Y1722441D1*
D56*
X568896Y1620084D3*
X1627699Y399679D2*
D10*
X1727700D1*
Y899723D1*
X1627699D1*
Y399679D1*
D63*
X1560016Y1846476D3*
X1554754Y1792410D2*
D10*
X1436646D1*
X1554754Y1760920D2*
X1436646D1*
Y1792410D2*
Y1760920D1*
X1554754Y1792410D2*
Y1760920D1*
X1572370Y1162555D2*
X1454260D1*
X1572370Y1036563D2*
X1454260D1*
Y1162555D2*
Y1036563D1*
X1572370Y1162555D2*
Y1119236D1*
Y1079882D2*
Y1036563D1*
Y1119236D2*
G03X1572370Y1079882I-24J-19677D01*
G01*
X1260603Y1186613D2*
X1122799D1*
Y1300789D1*
X1260603D1*
Y1186613D1*
X1276347Y1170866D2*
X1107055D1*
Y1316536D1*
X1276347D1*
Y1170866D1*
X1125392Y951977D2*
X1223821D1*
Y1117331D1*
X1125392D1*
Y951977D1*
X1109646Y936229D2*
X1239567D1*
Y1133079D1*
X1109646D1*
Y936229D1*
X748032Y2086614D2*
D19*
Y905512D1*
X1732284D1*
X797244Y2007874D2*
X1358268D1*
Y1929134D1*
X797244D1*
Y2007874D1*
X1203701Y1503701D2*
D20*
X1228701D1*
X1243701Y1518701D1*
X847701Y1218701D2*
X902701Y1233701D1*
X412701Y701701D2*
X410701Y741701D1*
X1405701Y1727701D2*
X1444701Y1683701D1*
X695388Y2066994D2*
D118*
X694438Y2068896D1*
X692514Y2070819D1*
X690613Y2071770D1*
X686788D1*
X684865Y2070819D1*
X682964Y2068896D1*
X681991Y2066994D1*
X681040Y2064120D1*
Y2059323D1*
X681991Y2056471D1*
X682964Y2054548D1*
X684865Y2052646D1*
X686788Y2051674D1*
X690613D1*
X692514Y2052646D1*
X694438Y2054548D1*
X695388Y2056471D1*
X701564Y2067923D2*
X703488Y2068896D1*
X706362Y2071748D1*
Y2051674D1*
X571088Y1912994D2*
X570138Y1914896D1*
X568214Y1916819D1*
X566313Y1917770D1*
X562489D1*
X560565Y1916819D1*
X558664Y1914896D1*
X557691Y1912994D1*
X556740Y1910120D1*
Y1905323D1*
X557691Y1902471D1*
X558664Y1900548D1*
X560565Y1898646D1*
X562489Y1897674D1*
X566313D1*
X568214Y1898646D1*
X570138Y1900548D1*
X571088Y1902471D1*
X578237Y1912972D2*
Y1913923D1*
X579188Y1915846D1*
X580138Y1916797D1*
X582062Y1917748D1*
X585886D1*
X587787Y1916797D1*
X588738Y1915846D1*
X589711Y1913923D1*
Y1912022D1*
X588738Y1910098D1*
X586837Y1907246D1*
X577264Y1897674D1*
X590662D1*
X586088Y2066994D2*
X585138Y2068896D1*
X583214Y2070819D1*
X581313Y2071770D1*
X577489D1*
X575565Y2070819D1*
X573664Y2068896D1*
X572691Y2066994D1*
X571740Y2064120D1*
Y2059323D1*
X572691Y2056471D1*
X573664Y2054548D1*
X575565Y2052646D1*
X577489Y2051674D1*
X581313D1*
X583214Y2052646D1*
X585138Y2054548D1*
X586088Y2056471D1*
X594188Y2071748D2*
X604689D1*
X598963Y2064098D1*
X601837D1*
X603738Y2063148D1*
X604689Y2062197D1*
X605662Y2059323D1*
Y2057422D1*
X604689Y2054548D1*
X602787Y2052624D1*
X599913Y2051674D1*
X597039D1*
X594188Y2052624D1*
X593237Y2053597D1*
X592264Y2055498D1*
X667306Y1573254D2*
X666355Y1575156D1*
X664432Y1577079D1*
X662531Y1578030D1*
X658706D1*
X656783Y1577079D1*
X654881Y1575156D1*
X653909Y1573254D1*
X652958Y1570380D1*
Y1565583D1*
X653909Y1562731D1*
X654881Y1560808D1*
X656783Y1558906D1*
X658706Y1557934D1*
X662531D1*
X664432Y1558906D1*
X666355Y1560808D1*
X667306Y1562731D1*
X683054Y1557934D2*
Y1578007D1*
X673482Y1564632D1*
X687830D1*
X700841Y1680459D2*
X698939Y1679508D1*
X697016Y1677585D1*
X696065Y1675683D1*
Y1671859D1*
X697016Y1669935D1*
X698939Y1668034D1*
X700841Y1667061D1*
X703715Y1666111D1*
X708512D1*
X711364Y1667061D1*
X713287Y1668034D1*
X715189Y1669935D1*
X716161Y1671859D1*
Y1675683D1*
X715189Y1677585D1*
X713287Y1679508D1*
X711364Y1680459D1*
X696087Y1698108D2*
Y1688558D1*
X704687Y1687607D1*
X703737Y1688558D1*
X702764Y1691432D1*
Y1694284D1*
X703737Y1697158D1*
X705638Y1699081D1*
X708512Y1700032D1*
X710413D1*
X713287Y1699081D1*
X715211Y1697158D1*
X716161Y1694284D1*
Y1691432D1*
X715211Y1688558D1*
X714238Y1687607D1*
X712337Y1686634D1*
X717480Y1774947D2*
X716530Y1776848D1*
X714606Y1778772D1*
X712705Y1779723D1*
X708880D1*
X706957Y1778772D1*
X705056Y1776848D1*
X704083Y1774947D1*
X703132Y1772073D1*
Y1767276D1*
X704083Y1764424D1*
X705056Y1762501D1*
X706957Y1760599D1*
X708880Y1759627D1*
X712705D1*
X714606Y1760599D1*
X716530Y1762501D1*
X717480Y1764424D1*
X735130Y1776848D2*
X734179Y1778750D1*
X731305Y1779700D1*
X729404D1*
X726530Y1778750D1*
X724607Y1775876D1*
X723656Y1771100D1*
Y1766325D1*
X724607Y1762501D1*
X726530Y1760577D1*
X729404Y1759627D1*
X730355D1*
X733207Y1760577D1*
X735130Y1762501D1*
X736081Y1765375D1*
Y1766325D1*
X735130Y1769199D1*
X733207Y1771100D1*
X730355Y1772051D1*
X729404D1*
X726530Y1771100D1*
X724607Y1769199D1*
X723656Y1766325D1*
X667781Y1607624D2*
X666831Y1609526D1*
X664907Y1611449D1*
X663006Y1612400D1*
X659181D1*
X657258Y1611449D1*
X655357Y1609526D1*
X654384Y1607624D1*
X653433Y1604750D1*
Y1599953D1*
X654384Y1597101D1*
X655357Y1595178D1*
X657258Y1593276D1*
X659181Y1592304D1*
X663006D1*
X664907Y1593276D1*
X666831Y1595178D1*
X667781Y1597101D1*
X677782Y1592304D2*
X687354Y1612378D1*
X673957D1*
X526408Y930100D2*
X524506Y929149D1*
X522583Y927226D1*
X521632Y925324D1*
Y921500D1*
X522583Y919576D1*
X524506Y917675D1*
X526408Y916702D1*
X529282Y915752D1*
X534079D1*
X536931Y916702D1*
X538854Y917675D1*
X540756Y919576D1*
X541728Y921500D1*
Y925324D1*
X540756Y927226D1*
X538854Y929149D1*
X536931Y930100D1*
X521654Y941051D2*
X522605Y938199D1*
X524506Y937226D1*
X526430D1*
X528331Y938199D1*
X529304Y940100D1*
X530254Y943925D1*
X531205Y946799D1*
X533128Y948700D1*
X535030Y949650D1*
X537904D1*
X539805Y948700D1*
X540778Y947749D1*
X541728Y944875D1*
Y941051D1*
X540778Y938199D1*
X539805Y937226D1*
X537904Y936275D1*
X535030D1*
X533128Y937226D1*
X531205Y939149D1*
X530254Y942001D1*
X529304Y945826D1*
X528331Y947749D1*
X526430Y948700D1*
X524506D1*
X522605Y947749D1*
X521654Y944875D1*
Y941051D1*
X897564Y1098994D2*
X896613Y1100896D1*
X894690Y1102819D1*
X892788Y1103770D1*
X888964D1*
X887040Y1102819D1*
X885139Y1100896D1*
X884166Y1098994D1*
X883216Y1096120D1*
Y1091323D1*
X884166Y1088471D1*
X885139Y1086548D1*
X887040Y1084646D1*
X888964Y1083674D1*
X892788D1*
X894690Y1084646D1*
X896613Y1086548D1*
X897564Y1088471D1*
X916186Y1097071D2*
X915213Y1094197D1*
X913312Y1092274D1*
X910438Y1091323D1*
X909488D1*
X906614Y1092274D1*
X904712Y1094197D1*
X903739Y1097071D1*
Y1098022D1*
X904712Y1100896D1*
X906614Y1102797D1*
X909488Y1103748D1*
X910438D1*
X913312Y1102797D1*
X915213Y1100896D1*
X916186Y1097071D1*
Y1092274D1*
X915213Y1087498D1*
X913312Y1084624D1*
X910438Y1083674D1*
X908537D1*
X905663Y1084624D1*
X904712Y1086548D1*
X913602Y1066994D2*
X912651Y1068896D1*
X910728Y1070819D1*
X908827Y1071770D1*
X905002D1*
X903079Y1070819D1*
X901177Y1068896D1*
X900205Y1066994D1*
X899254Y1064120D1*
Y1059323D1*
X900205Y1056471D1*
X901177Y1054548D1*
X903079Y1052646D1*
X905002Y1051674D1*
X908827D1*
X910728Y1052646D1*
X912651Y1054548D1*
X913602Y1056471D1*
X919778Y1067923D2*
X921701Y1068896D1*
X924575Y1071748D1*
Y1051674D1*
X936499Y1071748D2*
X933625Y1070797D1*
X931701Y1067923D1*
X930751Y1063148D1*
Y1060274D1*
X931701Y1055498D1*
X933625Y1052624D1*
X936499Y1051674D1*
X938400D1*
X941274Y1052624D1*
X943175Y1055498D1*
X944148Y1060274D1*
Y1063148D1*
X943175Y1067923D1*
X941274Y1070797D1*
X938400Y1071748D1*
X936499D1*
X943175Y1067923D2*
X931701Y1055498D1*
X671040Y944994D2*
X670089Y946896D1*
X668166Y948819D1*
X666264Y949770D1*
X662440D1*
X660516Y948819D1*
X658615Y946896D1*
X657642Y944994D1*
X656692Y942120D1*
Y937323D1*
X657642Y934471D1*
X658615Y932548D1*
X660516Y930646D1*
X662440Y929674D1*
X666264D1*
X668166Y930646D1*
X670089Y932548D1*
X671040Y934471D1*
X677215Y945923D2*
X679139Y946896D1*
X682013Y949748D1*
Y929674D1*
X688188Y945923D2*
X690112Y946896D1*
X692986Y949748D1*
Y929674D1*
X664740Y970994D2*
X663789Y972896D1*
X661866Y974819D1*
X659964Y975770D1*
X656140D1*
X654216Y974819D1*
X652315Y972896D1*
X651342Y970994D1*
X650392Y968120D1*
Y963323D1*
X651342Y960471D1*
X652315Y958548D1*
X654216Y956646D1*
X656140Y955674D1*
X659964D1*
X661866Y956646D1*
X663789Y958548D1*
X664740Y960471D1*
X670915Y971923D2*
X672839Y972896D1*
X675713Y975748D1*
Y955674D1*
X682861Y970972D2*
Y971923D1*
X683812Y973846D1*
X684763Y974797D1*
X686686Y975748D1*
X690511D1*
X692412Y974797D1*
X693362Y973846D1*
X694335Y971923D1*
Y970022D1*
X693362Y968098D1*
X691461Y965246D1*
X681889Y955674D1*
X695286D1*
X872602Y904994D2*
X871651Y906896D1*
X869728Y908819D1*
X867827Y909770D1*
X864002D1*
X862079Y908819D1*
X860177Y906896D1*
X859205Y904994D1*
X858254Y902120D1*
Y897323D1*
X859205Y894471D1*
X860177Y892548D1*
X862079Y890646D1*
X864002Y889674D1*
X867827D1*
X869728Y890646D1*
X871651Y892548D1*
X872602Y894471D1*
X878778Y905923D2*
X880701Y906896D1*
X883575Y909748D1*
Y889674D1*
X891674Y909748D2*
X902175D1*
X896449Y902098D1*
X899323D1*
X901225Y901148D1*
X902175Y900197D1*
X903148Y897323D1*
Y895422D1*
X902175Y892548D1*
X900274Y890624D1*
X897400Y889674D1*
X894526D1*
X891674Y890624D1*
X890723Y891597D1*
X889751Y893498D1*
X872127Y938994D2*
X871176Y940896D1*
X869253Y942819D1*
X867351Y943770D1*
X863527D1*
X861603Y942819D1*
X859702Y940896D1*
X858729Y938994D1*
X857779Y936120D1*
Y931323D1*
X858729Y928471D1*
X859702Y926548D1*
X861603Y924646D1*
X863527Y923674D1*
X867351D1*
X869253Y924646D1*
X871176Y926548D1*
X872127Y928471D1*
X878302Y939923D2*
X880226Y940896D1*
X883100Y943748D1*
Y923674D1*
X898848D2*
Y943748D1*
X889275Y930372D1*
X903623D1*
X871102Y975994D2*
X870151Y977896D1*
X868228Y979819D1*
X866327Y980770D1*
X862502D1*
X860579Y979819D1*
X858677Y977896D1*
X857705Y975994D1*
X856754Y973120D1*
Y968323D1*
X857705Y965471D1*
X858677Y963548D1*
X860579Y961646D1*
X862502Y960674D1*
X866327D1*
X868228Y961646D1*
X870151Y963548D1*
X871102Y965471D1*
X877278Y976923D2*
X879201Y977896D1*
X882075Y980748D1*
Y960674D1*
X899725Y980748D2*
X890174D1*
X889223Y972148D1*
X890174Y973098D1*
X893048Y974071D1*
X895900D1*
X898774Y973098D1*
X900697Y971197D1*
X901648Y968323D1*
Y966422D1*
X900697Y963548D1*
X898774Y961624D1*
X895900Y960674D1*
X893048D1*
X890174Y961624D1*
X889223Y962597D1*
X888251Y964498D1*
X870588Y1009994D2*
X869638Y1011896D1*
X867714Y1013819D1*
X865813Y1014770D1*
X861988D1*
X860065Y1013819D1*
X858164Y1011896D1*
X857191Y1009994D1*
X856240Y1007120D1*
Y1002323D1*
X857191Y999471D1*
X858164Y997548D1*
X860065Y995646D1*
X861988Y994674D1*
X865813D1*
X867714Y995646D1*
X869638Y997548D1*
X870588Y999471D1*
X876764Y1010923D2*
X878687Y1011896D1*
X881561Y1014748D1*
Y994674D1*
X899211Y1011896D2*
X898260Y1013797D1*
X895386Y1014748D1*
X893485D1*
X890611Y1013797D1*
X888688Y1010923D1*
X887737Y1006148D1*
Y1001372D1*
X888688Y997548D1*
X890611Y995624D1*
X893485Y994674D1*
X894436D1*
X897288Y995624D1*
X899211Y997548D1*
X900162Y1000422D1*
Y1001372D1*
X899211Y1004246D1*
X897288Y1006148D1*
X894436Y1007098D1*
X893485D1*
X890611Y1006148D1*
X888688Y1004246D1*
X887737Y1001372D1*
X424102Y913494D2*
X423151Y915396D1*
X421228Y917319D1*
X419327Y918270D1*
X415502D1*
X413579Y917319D1*
X411677Y915396D1*
X410705Y913494D1*
X409754Y910620D1*
Y905823D1*
X410705Y902971D1*
X411677Y901048D1*
X413579Y899146D1*
X415502Y898174D1*
X419327D1*
X421228Y899146D1*
X423151Y901048D1*
X424102Y902971D1*
X430278Y914423D2*
X432201Y915396D1*
X435075Y918248D1*
Y898174D1*
X445075D2*
X454648Y918248D1*
X441251D1*
X413113Y1004494D2*
X412162Y1006396D1*
X410239Y1008319D1*
X408338Y1009270D1*
X404513D1*
X402590Y1008319D1*
X400688Y1006396D1*
X399716Y1004494D1*
X398765Y1001620D1*
Y996823D1*
X399716Y993971D1*
X400688Y992048D1*
X402590Y990146D1*
X404513Y989174D1*
X408338D1*
X410239Y990146D1*
X412162Y992048D1*
X413113Y993971D1*
X419289Y1005423D2*
X421212Y1006396D1*
X424086Y1009248D1*
Y989174D1*
X435037Y1009248D2*
X432185Y1008297D1*
X431212Y1006396D1*
Y1004472D1*
X432185Y1002571D1*
X434086Y1001598D1*
X437911Y1000648D1*
X440785Y999697D1*
X442686Y997774D1*
X443637Y995872D1*
Y992998D1*
X442686Y991097D1*
X441736Y990124D1*
X438862Y989174D1*
X435037D1*
X432185Y990124D1*
X431212Y991097D1*
X430262Y992998D1*
Y995872D1*
X431212Y997774D1*
X433136Y999697D1*
X435988Y1000648D1*
X439812Y1001598D1*
X441736Y1002571D1*
X442686Y1004472D1*
Y1006396D1*
X441736Y1008297D1*
X438862Y1009248D1*
X435037D1*
X936408Y1222077D2*
X934506Y1221127D1*
X932583Y1219203D1*
X931632Y1217302D1*
Y1213477D1*
X932583Y1211554D1*
X934506Y1209653D1*
X936408Y1208680D1*
X939282Y1207729D1*
X944079D1*
X946931Y1208680D1*
X948854Y1209653D1*
X950756Y1211554D1*
X951728Y1213477D1*
Y1217302D1*
X950756Y1219203D1*
X948854Y1221127D1*
X946931Y1222077D1*
X935479Y1228253D2*
X934506Y1230176D1*
X931654Y1233050D1*
X951728D1*
X938331Y1251673D2*
X941205Y1250700D1*
X943128Y1248799D1*
X944079Y1245925D1*
Y1244974D1*
X943128Y1242100D1*
X941205Y1240199D1*
X938331Y1239226D1*
X937380D1*
X934506Y1240199D1*
X932605Y1242100D1*
X931654Y1244974D1*
Y1245925D1*
X932605Y1248799D1*
X934506Y1250700D1*
X938331Y1251673D1*
X943128D1*
X947904Y1250700D1*
X950778Y1248799D1*
X951728Y1245925D1*
Y1244023D1*
X950778Y1241149D1*
X948854Y1240199D1*
X906408Y1217302D2*
X904506Y1216351D1*
X902583Y1214428D1*
X901632Y1212527D1*
Y1208702D1*
X902583Y1206779D1*
X904506Y1204877D1*
X906408Y1203905D1*
X909282Y1202954D1*
X914079D1*
X916931Y1203905D1*
X918854Y1204877D1*
X920756Y1206779D1*
X921728Y1208702D1*
Y1212527D1*
X920756Y1214428D1*
X918854Y1216351D1*
X916931Y1217302D1*
X906430Y1224450D2*
X905479D1*
X903556Y1225401D1*
X902605Y1226352D1*
X901654Y1228275D1*
Y1232100D1*
X902605Y1234001D1*
X903556Y1234952D1*
X905479Y1235924D1*
X907380D1*
X909304Y1234952D1*
X912156Y1233050D1*
X921728Y1223478D1*
Y1236875D1*
X901654Y1248799D2*
X902605Y1245925D1*
X905479Y1244001D1*
X910254Y1243051D1*
X913128D1*
X917904Y1244001D1*
X920778Y1245925D1*
X921728Y1248799D1*
Y1250700D1*
X920778Y1253574D1*
X917904Y1255475D1*
X913128Y1256448D1*
X910254D1*
X905479Y1255475D1*
X902605Y1253574D1*
X901654Y1250700D1*
Y1248799D1*
X905479Y1255475D2*
X917904Y1244001D1*
X575602Y1329994D2*
X574651Y1331896D1*
X572728Y1333819D1*
X570827Y1334770D1*
X567002D1*
X565079Y1333819D1*
X563177Y1331896D1*
X562205Y1329994D1*
X561254Y1327120D1*
Y1322323D1*
X562205Y1319471D1*
X563177Y1317548D1*
X565079Y1315646D1*
X567002Y1314674D1*
X570827D1*
X572728Y1315646D1*
X574651Y1317548D1*
X575602Y1319471D1*
X582750Y1329972D2*
Y1330923D1*
X583701Y1332846D1*
X584652Y1333797D1*
X586575Y1334748D1*
X590400D1*
X592301Y1333797D1*
X593252Y1332846D1*
X594224Y1330923D1*
Y1329022D1*
X593252Y1327098D1*
X591350Y1324246D1*
X581778Y1314674D1*
X595175D1*
X601351Y1330923D2*
X603274Y1331896D1*
X606148Y1334748D1*
Y1314674D1*
X573408Y1455302D2*
X571506Y1454351D1*
X569583Y1452428D1*
X568632Y1450527D1*
Y1446702D1*
X569583Y1444779D1*
X571506Y1442877D1*
X573408Y1441905D1*
X576282Y1440954D1*
X581079D1*
X583931Y1441905D1*
X585854Y1442877D1*
X587756Y1444779D1*
X588728Y1446702D1*
Y1450527D1*
X587756Y1452428D1*
X585854Y1454351D1*
X583931Y1455302D1*
X573430Y1462450D2*
X572479D1*
X570556Y1463401D1*
X569605Y1464352D1*
X568654Y1466275D1*
Y1470100D1*
X569605Y1472001D1*
X570556Y1472952D1*
X572479Y1473924D1*
X574380D1*
X576304Y1472952D1*
X579156Y1471050D1*
X588728Y1461478D1*
Y1474875D1*
X573430Y1482023D2*
X572479D1*
X570556Y1482974D1*
X569605Y1483925D1*
X568654Y1485848D1*
Y1489673D1*
X569605Y1491574D1*
X570556Y1492525D1*
X572479Y1493497D1*
X574380D1*
X576304Y1492525D1*
X579156Y1490623D1*
X588728Y1481051D1*
Y1494448D1*
X404408Y1153302D2*
X402506Y1152351D1*
X400583Y1150428D1*
X399632Y1148527D1*
Y1144702D1*
X400583Y1142779D1*
X402506Y1140877D1*
X404408Y1139905D1*
X407282Y1138954D1*
X412079D1*
X414931Y1139905D1*
X416854Y1140877D1*
X418756Y1142779D1*
X419728Y1144702D1*
Y1148527D1*
X418756Y1150428D1*
X416854Y1152351D1*
X414931Y1153302D1*
X404430Y1160450D2*
X403479D1*
X401556Y1161401D1*
X400605Y1162352D1*
X399654Y1164275D1*
Y1168100D1*
X400605Y1170001D1*
X401556Y1170952D1*
X403479Y1171924D1*
X405380D1*
X407304Y1170952D1*
X410156Y1169050D1*
X419728Y1159478D1*
Y1172875D1*
X399654Y1180974D2*
Y1191475D1*
X407304Y1185749D1*
Y1188623D1*
X408254Y1190525D1*
X409205Y1191475D1*
X412079Y1192448D1*
X413980D1*
X416854Y1191475D1*
X418778Y1189574D1*
X419728Y1186700D1*
Y1183826D1*
X418778Y1180974D1*
X417805Y1180023D1*
X415904Y1179051D1*
X449408Y1300827D2*
X447506Y1299876D1*
X445583Y1297953D1*
X444632Y1296051D1*
Y1292227D1*
X445583Y1290303D1*
X447506Y1288402D1*
X449408Y1287429D1*
X452282Y1286479D1*
X457079D1*
X459931Y1287429D1*
X461854Y1288402D1*
X463756Y1290303D1*
X464728Y1292227D1*
Y1296051D1*
X463756Y1297953D1*
X461854Y1299876D1*
X459931Y1300827D1*
X449430Y1307975D2*
X448479D1*
X446556Y1308926D1*
X445605Y1309876D1*
X444654Y1311800D1*
Y1315624D1*
X445605Y1317526D1*
X446556Y1318476D1*
X448479Y1319449D1*
X450380D1*
X452304Y1318476D1*
X455156Y1316575D1*
X464728Y1307002D1*
Y1320400D1*
Y1336148D2*
X444654D1*
X458030Y1326575D1*
Y1340923D1*
X1294581Y963200D2*
X1292680Y962249D1*
X1290756Y960326D1*
X1289806Y958424D1*
X1289805Y954600D1*
X1290756Y952676D1*
X1292679Y950775D1*
X1294581Y949802D1*
X1297455Y948852D1*
X1302252D1*
X1305104Y949802D1*
X1307027Y950775D1*
X1308929Y952676D1*
X1309902Y954600D1*
Y958424D1*
X1308929Y960326D1*
X1307028Y962249D1*
X1305104Y963200D1*
X1294603Y970348D2*
X1293652D1*
X1291729Y971299D1*
X1290778Y972249D1*
X1289828Y974173D1*
Y977997D1*
X1290778Y979899D1*
X1291729Y980849D1*
X1293652Y981822D1*
X1295554D1*
X1297477Y980849D1*
X1300329Y978948D1*
X1309902Y969375D1*
Y982773D1*
X1289828Y1000422D2*
Y990872D1*
X1298428Y989921D1*
X1297477Y990872D1*
X1296504Y993746D1*
Y996598D1*
X1297477Y999472D1*
X1299378Y1001395D1*
X1302252Y1002346D1*
X1304153D1*
X1307027Y1001395D1*
X1308951Y999472D1*
X1309901Y996598D1*
Y993746D1*
X1308951Y990872D1*
X1307978Y989921D1*
X1306077Y988948D1*
X1333198Y1313994D2*
X1332247Y1315896D1*
X1330324Y1317819D1*
X1328422Y1318770D1*
X1324598D1*
X1322674Y1317819D1*
X1320773Y1315896D1*
X1319800Y1313994D1*
X1318850Y1311120D1*
Y1306323D1*
X1319800Y1303471D1*
X1320773Y1301548D1*
X1322674Y1299646D1*
X1324598Y1298674D1*
X1328422D1*
X1330324Y1299646D1*
X1332247Y1301548D1*
X1333198Y1303471D1*
X1340346Y1313972D2*
Y1314923D1*
X1341297Y1316846D1*
X1342247Y1317797D1*
X1344171Y1318748D1*
X1347996D1*
X1349897Y1317797D1*
X1350847Y1316846D1*
X1351820Y1314923D1*
Y1313022D1*
X1350847Y1311098D1*
X1348946Y1308246D1*
X1339373Y1298674D1*
X1352771D1*
X1370420Y1315896D2*
X1369470Y1317797D1*
X1366596Y1318748D1*
X1364695D1*
X1361821Y1317797D1*
X1359897Y1314923D1*
X1358947Y1310148D1*
Y1305372D1*
X1359897Y1301548D1*
X1361821Y1299624D1*
X1364695Y1298674D1*
X1365645D1*
X1368497Y1299624D1*
X1370420Y1301548D1*
X1371371Y1304422D1*
Y1305372D1*
X1370420Y1308246D1*
X1368497Y1310148D1*
X1365645Y1311098D1*
X1364695D1*
X1361821Y1310148D1*
X1359897Y1308246D1*
X1358947Y1305372D1*
X1521893Y963994D2*
X1520942Y965896D1*
X1519018Y967819D1*
X1517117Y968770D1*
X1513293D1*
X1511369Y967819D1*
X1509468Y965896D1*
X1508495Y963994D1*
X1507545Y961120D1*
Y956323D1*
X1508495Y953471D1*
X1509468Y951548D1*
X1511369Y949646D1*
X1513293Y948674D1*
X1517117D1*
X1519018Y949646D1*
X1520942Y951548D1*
X1521893Y953471D1*
X1529041Y963972D2*
Y964923D1*
X1529992Y966846D1*
X1530942Y967797D1*
X1532866Y968748D1*
X1536690D1*
X1538592Y967797D1*
X1539542Y966846D1*
X1540515Y964923D1*
Y963022D1*
X1539542Y961098D1*
X1537641Y958246D1*
X1528068Y948674D1*
X1541466D1*
X1551466D2*
X1561039Y968748D1*
X1547641D1*
X1294581Y1073321D2*
X1292680Y1072370D1*
X1290756Y1070447D1*
X1289806Y1068546D1*
X1289805Y1064721D1*
X1290756Y1062798D1*
X1292679Y1060896D1*
X1294581Y1059924D1*
X1297455Y1058973D1*
X1302252D1*
X1305104Y1059924D1*
X1307027Y1060896D1*
X1308929Y1062798D1*
X1309902Y1064721D1*
Y1068546D1*
X1308929Y1070447D1*
X1307028Y1072370D1*
X1305104Y1073321D1*
X1294603Y1080469D2*
X1293652D1*
X1291729Y1081420D1*
X1290778Y1082371D1*
X1289828Y1084294D1*
Y1088119D1*
X1290778Y1090020D1*
X1291729Y1090971D1*
X1293652Y1091943D1*
X1295554D1*
X1297477Y1090971D1*
X1300329Y1089069D1*
X1309902Y1079497D1*
Y1092894D1*
X1289828Y1103845D2*
X1290778Y1100993D1*
X1292680Y1100020D1*
X1294603D1*
X1296504Y1100993D1*
X1297477Y1102894D1*
X1298428Y1106719D1*
X1299378Y1109593D1*
X1301302Y1111494D1*
X1303203Y1112445D1*
X1306077D1*
X1307978Y1111494D1*
X1308951Y1110544D1*
X1309901Y1107670D1*
Y1103845D1*
X1308951Y1100993D1*
X1307978Y1100020D1*
X1306077Y1099070D1*
X1303203D1*
X1301302Y1100020D1*
X1299378Y1101944D1*
X1298428Y1104796D1*
X1297477Y1108620D1*
X1296504Y1110544D1*
X1294603Y1111494D1*
X1292680D1*
X1290778Y1110544D1*
X1289828Y1107670D1*
Y1103845D1*
X1377302Y1775554D2*
X1376351Y1777455D1*
X1374428Y1779378D1*
X1372527Y1780329D1*
X1368702D1*
X1366779Y1779378D1*
X1364877Y1777455D1*
X1363905Y1775554D1*
X1362954Y1772680D1*
Y1767882D1*
X1363905Y1765030D1*
X1364877Y1763107D1*
X1366779Y1761206D1*
X1368702Y1760233D1*
X1372527D1*
X1374428Y1761206D1*
X1376351Y1763107D1*
X1377302Y1765030D1*
X1385401Y1780307D2*
X1395902D1*
X1390176Y1772657D1*
X1393050D1*
X1394952Y1771707D1*
X1395902Y1770756D1*
X1396875Y1767882D1*
Y1765981D1*
X1395902Y1763107D1*
X1394001Y1761183D1*
X1391127Y1760233D1*
X1388253D1*
X1385401Y1761183D1*
X1384450Y1762156D1*
X1383478Y1764057D1*
X1404974Y1780307D2*
X1415475D1*
X1409749Y1772657D1*
X1412623D1*
X1414525Y1771707D1*
X1415475Y1770756D1*
X1416448Y1767882D1*
Y1765981D1*
X1415475Y1763107D1*
X1413574Y1761183D1*
X1410700Y1760233D1*
X1407826D1*
X1404974Y1761183D1*
X1404023Y1762156D1*
X1403051Y1764057D1*
X1580408Y1898827D2*
X1578506Y1897876D1*
X1576583Y1895953D1*
X1575632Y1894051D1*
Y1890227D1*
X1576583Y1888303D1*
X1578506Y1886402D1*
X1580408Y1885429D1*
X1583282Y1884479D1*
X1588079D1*
X1590931Y1885429D1*
X1592854Y1886402D1*
X1594756Y1888303D1*
X1595728Y1890227D1*
Y1894051D1*
X1594756Y1895953D1*
X1592854Y1897876D1*
X1590931Y1898827D1*
X1575654Y1906926D2*
Y1917427D1*
X1583304Y1911701D1*
Y1914575D1*
X1584254Y1916476D1*
X1585205Y1917427D1*
X1588079Y1918400D1*
X1589980D1*
X1592854Y1917427D1*
X1594778Y1915526D1*
X1595728Y1912652D1*
Y1909778D1*
X1594778Y1906926D1*
X1593805Y1905975D1*
X1591904Y1905002D1*
X1595728Y1934148D2*
X1575654D1*
X1589030Y1924575D1*
Y1938923D1*
X1262408Y1395302D2*
X1260506Y1394351D1*
X1258583Y1392428D1*
X1257632Y1390527D1*
Y1386702D1*
X1258583Y1384779D1*
X1260506Y1382877D1*
X1262408Y1381905D1*
X1265282Y1380954D1*
X1270079D1*
X1272931Y1381905D1*
X1274854Y1382877D1*
X1276756Y1384779D1*
X1277728Y1386702D1*
Y1390527D1*
X1276756Y1392428D1*
X1274854Y1394351D1*
X1272931Y1395302D1*
X1257654Y1403401D2*
Y1413902D1*
X1265304Y1408176D1*
Y1411050D1*
X1266254Y1412952D1*
X1267205Y1413902D1*
X1270079Y1414875D1*
X1271980D1*
X1274854Y1413902D1*
X1276778Y1412001D1*
X1277728Y1409127D1*
Y1406253D1*
X1276778Y1403401D1*
X1275805Y1402450D1*
X1273904Y1401478D1*
X1257654Y1432525D2*
Y1422974D1*
X1266254Y1422023D1*
X1265304Y1422974D1*
X1264331Y1425848D1*
Y1428700D1*
X1265304Y1431574D1*
X1267205Y1433497D1*
X1270079Y1434448D1*
X1271980D1*
X1274854Y1433497D1*
X1276778Y1431574D1*
X1277728Y1428700D1*
Y1425848D1*
X1276778Y1422974D1*
X1275805Y1422023D1*
X1273904Y1421051D1*
X1299408Y1397788D2*
X1297506Y1396838D1*
X1295583Y1394914D1*
X1294632Y1393013D1*
Y1389189D1*
X1295583Y1387265D1*
X1297506Y1385364D1*
X1299408Y1384391D1*
X1302282Y1383440D1*
X1307079D1*
X1309931Y1384391D1*
X1311854Y1385364D1*
X1313756Y1387265D1*
X1314728Y1389188D1*
Y1393013D1*
X1313756Y1394914D1*
X1311854Y1396838D1*
X1309931Y1397788D1*
X1294654Y1405887D2*
Y1416389D1*
X1302304Y1410663D1*
Y1413537D1*
X1303254Y1415438D1*
X1304205Y1416389D1*
X1307079Y1417361D1*
X1308980D1*
X1311854Y1416389D1*
X1313778Y1414487D1*
X1314728Y1411613D1*
Y1408739D1*
X1313778Y1405887D1*
X1312805Y1404937D1*
X1310904Y1403964D1*
X1297506Y1435011D2*
X1295605Y1434060D1*
X1294654Y1431186D1*
Y1429285D1*
X1295605Y1426411D1*
X1298479Y1424488D1*
X1303254Y1423537D1*
X1308030D1*
X1311854Y1424488D1*
X1313778Y1426411D1*
X1314728Y1429285D1*
Y1430236D1*
X1313778Y1433088D1*
X1311854Y1435011D1*
X1308980Y1435962D1*
X1308030D1*
X1305156Y1435011D1*
X1303254Y1433088D1*
X1302304Y1430236D1*
Y1429285D1*
X1303254Y1426411D1*
X1305156Y1424488D1*
X1308030Y1423537D1*
X1331408Y1394302D2*
X1329506Y1393351D1*
X1327583Y1391428D1*
X1326632Y1389527D1*
Y1385702D1*
X1327583Y1383779D1*
X1329506Y1381877D1*
X1331408Y1380905D1*
X1334282Y1379954D1*
X1339079D1*
X1341931Y1380905D1*
X1343854Y1381877D1*
X1345756Y1383779D1*
X1346728Y1385702D1*
Y1389527D1*
X1345756Y1391428D1*
X1343854Y1393351D1*
X1341931Y1394302D1*
X1326654Y1402401D2*
Y1412902D1*
X1334304Y1407176D1*
Y1410050D1*
X1335254Y1411952D1*
X1336205Y1412902D1*
X1339079Y1413875D1*
X1340980D1*
X1343854Y1412902D1*
X1345778Y1411001D1*
X1346728Y1408127D1*
Y1405253D1*
X1345778Y1402401D1*
X1344805Y1401450D1*
X1342904Y1400478D1*
X1346728Y1423875D2*
X1326654Y1433448D1*
Y1420051D1*
X886967Y1488267D2*
X885065Y1487317D1*
X883142Y1485393D1*
X882191Y1483492D1*
Y1479667D1*
X883142Y1477744D1*
X885065Y1475843D1*
X886967Y1474870D1*
X889841Y1473919D1*
X894638D1*
X897490Y1474870D1*
X899413Y1475843D1*
X901315Y1477744D1*
X902287Y1479667D1*
Y1483492D1*
X901315Y1485393D1*
X899413Y1487316D1*
X897490Y1488267D1*
X882213Y1496366D2*
Y1506867D1*
X889863Y1501141D1*
Y1504015D1*
X890813Y1505917D1*
X891764Y1506867D1*
X894638Y1507840D1*
X896539D1*
X899413Y1506867D1*
X901337Y1504966D1*
X902287Y1502092D1*
Y1499218D1*
X901337Y1496366D1*
X900364Y1495416D1*
X898463Y1494443D1*
X882213Y1518791D2*
X883164Y1515939D1*
X885065Y1514966D1*
X886989D1*
X888890Y1515939D1*
X889863Y1517840D1*
X890813Y1521665D1*
X891764Y1524539D1*
X893687Y1526440D1*
X895589Y1527391D1*
X898463D1*
X900364Y1526440D1*
X901337Y1525490D1*
X902287Y1522616D1*
Y1518791D1*
X901337Y1515939D1*
X900364Y1514966D1*
X898463Y1514016D1*
X895589D1*
X893687Y1514966D1*
X891764Y1516890D1*
X890813Y1519742D1*
X889863Y1523566D1*
X888890Y1525490D1*
X886989Y1526440D1*
X885065D1*
X883164Y1525490D1*
X882213Y1522616D1*
Y1518791D1*
X917526Y1488731D2*
X915624Y1487781D1*
X913701Y1485857D1*
X912750Y1483956D1*
Y1480132D1*
X913701Y1478208D1*
X915624Y1476307D1*
X917526Y1475334D1*
X920400Y1474383D1*
X925197D1*
X928049Y1475334D1*
X929972Y1476307D1*
X931874Y1478208D1*
X932846Y1480131D1*
Y1483956D1*
X931874Y1485857D1*
X929972Y1487781D1*
X928049Y1488731D1*
X912773Y1496830D2*
Y1507332D1*
X920422Y1501606D1*
Y1504480D1*
X921372Y1506381D1*
X922323Y1507332D1*
X925197Y1508304D1*
X927098D1*
X929972Y1507332D1*
X931896Y1505430D1*
X932846Y1502556D1*
Y1499682D1*
X931896Y1496830D1*
X930923Y1495880D1*
X929022Y1494907D1*
X919449Y1526927D2*
X922323Y1525954D1*
X924246Y1524053D1*
X925197Y1521179D1*
Y1520228D1*
X924246Y1517354D1*
X922323Y1515453D1*
X919449Y1514480D1*
X918498D1*
X915624Y1515453D1*
X913723Y1517354D1*
X912773Y1520228D1*
Y1521179D1*
X913723Y1524053D1*
X915624Y1525954D1*
X919449Y1526927D1*
X924246D1*
X929022Y1525954D1*
X931896Y1524053D1*
X932846Y1521179D1*
Y1519277D1*
X931896Y1516403D1*
X929972Y1515453D1*
X947085Y1487781D2*
X945183Y1486830D1*
X943260Y1484907D1*
X942309Y1483006D1*
Y1479181D1*
X943260Y1477258D1*
X945183Y1475356D1*
X947085Y1474383D1*
X949959Y1473433D1*
X954756D1*
X957608Y1474383D1*
X959531Y1475356D1*
X961433Y1477257D1*
X962405Y1479181D1*
Y1483005D1*
X961433Y1484907D1*
X959531Y1486830D1*
X957608Y1487781D1*
X962405Y1503529D2*
X942332D1*
X955707Y1493956D1*
Y1508304D1*
X942332Y1520228D2*
X943282Y1517354D1*
X946156Y1515431D1*
X950932Y1514480D1*
X953806D1*
X958581Y1515431D1*
X961455Y1517354D1*
X962405Y1520228D1*
Y1522129D1*
X961455Y1525003D1*
X958581Y1526905D1*
X953806Y1527877D1*
X950931D1*
X946156Y1526905D1*
X943282Y1525003D1*
X942332Y1522129D1*
Y1520228D1*
X946156Y1526905D2*
X958581Y1515431D1*
X976644Y1489081D2*
X974743Y1488130D1*
X972819Y1486207D1*
X971869Y1484306D1*
X971868Y1480481D1*
X972819Y1478557D1*
X974742Y1476656D1*
X976644Y1475683D1*
X979518Y1474733D1*
X984315D1*
X987167Y1475683D1*
X989090Y1476656D1*
X990992Y1478557D1*
X991965Y1480481D1*
Y1484305D1*
X990992Y1486207D1*
X989091Y1488130D1*
X987167Y1489081D1*
X991964Y1504829D2*
X971891D1*
X985266Y1495256D1*
Y1509604D1*
X975715Y1515780D2*
X974743Y1517703D1*
X971891Y1520577D1*
X991964D1*
X1598516Y1629216D2*
Y1609120D1*
X1605214D1*
X1608088Y1610093D1*
X1610012Y1611994D1*
X1610962Y1613917D1*
X1611913Y1616769D1*
Y1621567D1*
X1610962Y1624441D1*
X1610012Y1626342D1*
X1608088Y1628265D1*
X1605214Y1629216D1*
X1598516D1*
X1618089Y1625369D2*
X1620012Y1626342D1*
X1622886Y1629194D1*
Y1609120D1*
X1067413Y1430216D2*
X1087509D1*
Y1436915D1*
X1086536Y1439789D1*
X1084635Y1441712D1*
X1082712Y1442663D1*
X1079860Y1443613D1*
X1075062D1*
X1072188Y1442663D1*
X1070287Y1441712D1*
X1068364Y1439789D1*
X1067413Y1436915D1*
Y1430216D1*
X1072211Y1450762D2*
X1071260D1*
X1069337Y1451712D1*
X1068386Y1452663D1*
X1067435Y1454586D1*
Y1458411D1*
X1068386Y1460312D1*
X1069337Y1461263D1*
X1071260Y1462236D1*
X1073161D1*
X1075085Y1461263D1*
X1077936Y1459362D1*
X1087509Y1449789D1*
Y1463186D1*
X1036410Y1428499D2*
X1056506D1*
X1056507Y1435198D1*
X1055534Y1438072D1*
X1053633Y1439995D1*
X1051709Y1440946D1*
X1048857Y1441897D1*
X1044060D1*
X1041186Y1440946D1*
X1039285Y1439995D1*
X1037361Y1438072D1*
X1036410Y1435198D1*
Y1428499D1*
X1036433Y1449996D2*
Y1460497D1*
X1044082Y1454771D1*
Y1457645D1*
X1045033Y1459546D1*
X1045983Y1460497D1*
X1048857Y1461470D1*
X1050758D1*
X1053632Y1460497D1*
X1055556Y1458596D1*
X1056506Y1455722D1*
Y1452848D1*
X1055556Y1449996D1*
X1054583Y1449045D1*
X1052682Y1448072D1*
X840740Y1457909D2*
Y1437813D1*
X847439D1*
X850313Y1438786D1*
X852237Y1440687D1*
X853187Y1442610D1*
X854138Y1445462D1*
Y1450260D1*
X853187Y1453134D1*
X852237Y1455035D1*
X850313Y1456958D1*
X847439Y1457909D1*
X840740D1*
X869886Y1437813D2*
Y1457887D1*
X860314Y1444512D1*
X874662D1*
X485250Y1826597D2*
Y1811298D1*
X484300Y1808424D1*
X483327Y1807473D1*
X481425Y1806501D1*
X479502D1*
X477601Y1807473D1*
X476650Y1808424D1*
X475677Y1811298D1*
Y1813199D1*
X491426Y1822750D2*
X493349Y1823723D1*
X496223Y1826574D1*
Y1806501D1*
X528622Y1598187D2*
Y1582888D1*
X527671Y1580014D1*
X526699Y1579064D1*
X524797Y1578091D1*
X522874D1*
X520973Y1579064D1*
X520022Y1580014D1*
X519049Y1582888D1*
Y1584790D1*
X535771Y1593390D2*
Y1594340D1*
X536721Y1596264D1*
X537672Y1597214D1*
X539595Y1598165D1*
X543420D1*
X545321Y1597214D1*
X546272Y1596264D1*
X547244Y1594340D1*
Y1592439D1*
X546272Y1590516D1*
X544370Y1587664D1*
X534798Y1578091D1*
X548195D1*
X695472Y1553896D2*
Y1538597D1*
X694522Y1535723D1*
X693549Y1534772D1*
X691648Y1533800D1*
X689724D1*
X687823Y1534772D1*
X686873Y1535723D1*
X685900Y1538597D1*
Y1540498D1*
X703572Y1553874D2*
X714073D1*
X708347Y1546224D1*
X711221D1*
X713122Y1545274D1*
X714073Y1544323D1*
X715046Y1541449D1*
Y1539548D1*
X714073Y1536674D1*
X712171Y1534750D1*
X709297Y1533800D1*
X706423D1*
X703572Y1534750D1*
X702621Y1535723D1*
X701648Y1537624D1*
X484496Y1856187D2*
Y1840888D1*
X483545Y1838014D1*
X482572Y1837064D1*
X480671Y1836091D1*
X478748D1*
X476847Y1837064D1*
X475896Y1838014D1*
X474923Y1840888D1*
Y1842790D1*
X500244Y1836091D2*
Y1856165D1*
X490672Y1842790D1*
X505020D1*
X1057992Y1737951D2*
Y1722652D1*
X1057042Y1719778D1*
X1056069Y1718828D1*
X1054168Y1717855D1*
X1052244D1*
X1050343Y1718828D1*
X1049392Y1719778D1*
X1048419Y1722652D1*
Y1724554D1*
X1075642Y1737929D2*
X1066091D1*
X1065141Y1729329D1*
X1066091Y1730279D1*
X1068965Y1731252D1*
X1071817D1*
X1074691Y1730279D1*
X1076615Y1728378D1*
X1077565Y1725504D1*
Y1723603D1*
X1076615Y1720729D1*
X1074691Y1718805D1*
X1071817Y1717855D1*
X1068965D1*
X1066091Y1718805D1*
X1065141Y1719778D1*
X1064168Y1721680D1*
X1605187Y1311198D2*
Y1295899D1*
X1604237Y1293025D1*
X1603264Y1292074D1*
X1601363Y1291102D1*
X1599439D1*
X1597538Y1292074D1*
X1596587Y1293025D1*
X1595615Y1295899D1*
Y1297800D1*
X1622837Y1308324D2*
X1621886Y1310225D1*
X1619012Y1311175D1*
X1617111D1*
X1614237Y1310225D1*
X1612314Y1307351D1*
X1611363Y1302576D1*
Y1297800D1*
X1612314Y1293976D1*
X1614237Y1292052D1*
X1617111Y1291102D1*
X1618062D1*
X1620913Y1292052D1*
X1622837Y1293976D1*
X1623787Y1296850D1*
Y1297800D1*
X1622837Y1300674D1*
X1620913Y1302576D1*
X1618062Y1303526D1*
X1617111D1*
X1614237Y1302576D1*
X1612314Y1300674D1*
X1611363Y1297800D1*
X1606414Y1528352D2*
Y1508256D1*
X1617888D1*
X1624064Y1524506D2*
X1625988Y1525478D1*
X1628862Y1528330D1*
Y1508256D1*
X695752Y1353974D2*
X693851Y1353046D1*
X691928Y1351123D1*
X690977Y1349199D1*
X690004Y1346325D1*
Y1341550D1*
X690977Y1338676D1*
X691928Y1336775D1*
X693851Y1334851D1*
X695752Y1333901D1*
X699577D1*
X701500Y1334851D1*
X703402Y1336775D1*
X704352Y1338676D1*
X705325Y1341550D1*
Y1346325D1*
X704352Y1349199D1*
X703402Y1351123D1*
X701500Y1353046D1*
X699577Y1353974D1*
X695752D1*
X698626Y1337725D2*
X704352Y1331977D1*
X711501Y1350128D2*
X713424Y1351100D1*
X716298Y1353952D1*
Y1333878D1*
X701516Y1907197D2*
X710116D1*
X712990Y1908170D1*
X713962Y1909120D1*
X714913Y1911022D1*
Y1912945D1*
X713962Y1914846D1*
X712990Y1915819D1*
X710116Y1916770D1*
X701516D1*
Y1896674D1*
X708214Y1907197D2*
X714913Y1896674D1*
X721089Y1912923D2*
X723012Y1913896D1*
X725886Y1916748D1*
Y1896674D1*
X537370Y1774854D2*
Y1783454D1*
X536398Y1786328D1*
X535447Y1787300D1*
X533546Y1788251D1*
X531622D1*
X529721Y1787300D1*
X528748Y1786328D1*
X527798Y1783454D1*
Y1774854D1*
X547894D1*
X537370Y1781552D2*
X547894Y1788251D1*
X532595Y1795399D2*
X531644D1*
X529721Y1796350D1*
X528770Y1797301D1*
X527820Y1799224D1*
Y1803049D1*
X528770Y1804950D1*
X529721Y1805901D1*
X531644Y1806873D1*
X533546D1*
X535469Y1805901D1*
X538321Y1803999D1*
X547894Y1794427D1*
Y1807824D1*
X703121Y1809520D2*
X711721D1*
X714595Y1810493D1*
X715568Y1811443D1*
X716519Y1813345D1*
Y1815268D1*
X715568Y1817169D1*
X714595Y1818142D1*
X711721Y1819093D1*
X703121D1*
Y1798997D1*
X709820Y1809520D2*
X716519Y1798997D1*
X724618Y1819070D2*
X735119D1*
X729393Y1811421D1*
X732267D1*
X734168Y1810471D1*
X735119Y1809520D1*
X736092Y1806646D1*
Y1804745D1*
X735119Y1801871D1*
X733218Y1799947D1*
X730344Y1798997D1*
X727470D1*
X724618Y1799947D1*
X723667Y1800920D1*
X722694Y1802821D1*
X1387216Y1882197D2*
X1395816D1*
X1398690Y1883170D1*
X1399663Y1884120D1*
X1400613Y1886022D1*
Y1887945D1*
X1399663Y1889846D1*
X1398690Y1890819D1*
X1395816Y1891770D1*
X1387216D1*
Y1871674D1*
X1393914Y1882197D2*
X1400613Y1871674D1*
X1410614D2*
X1420186Y1891748D1*
X1406789D1*
X1387227Y1930197D2*
X1395827D1*
X1398701Y1931170D1*
X1399674Y1932120D1*
X1400624Y1934022D1*
Y1935945D1*
X1399674Y1937846D1*
X1398701Y1938819D1*
X1395827Y1939770D1*
X1387227D1*
Y1919674D1*
X1393926Y1930197D2*
X1400624Y1919674D1*
X1411575Y1939748D2*
X1408723Y1938797D1*
X1407751Y1936896D1*
Y1934972D1*
X1408723Y1933071D1*
X1410625Y1932098D1*
X1414449Y1931148D1*
X1417323Y1930197D1*
X1419224Y1928274D1*
X1420175Y1926372D1*
Y1923498D1*
X1419224Y1921597D1*
X1418274Y1920624D1*
X1415400Y1919674D1*
X1411575D1*
X1408723Y1920624D1*
X1407751Y1921597D1*
X1406800Y1923498D1*
Y1926372D1*
X1407751Y1928274D1*
X1409674Y1930197D1*
X1412526Y1931148D1*
X1416350Y1932098D1*
X1418274Y1933071D1*
X1419224Y1934972D1*
Y1936896D1*
X1418274Y1938797D1*
X1415400Y1939748D1*
X1411575D1*
X1422691Y1551638D2*
X1431291D1*
X1434165Y1552611D1*
X1435138Y1553561D1*
X1436088Y1555463D1*
Y1557386D1*
X1435138Y1559287D1*
X1434165Y1560260D1*
X1431291Y1561211D1*
X1422691D1*
Y1541115D1*
X1429390Y1551638D2*
X1436088Y1541115D1*
X1454711Y1554512D2*
X1453738Y1551638D1*
X1451837Y1549715D1*
X1448963Y1548764D1*
X1448012D1*
X1445138Y1549715D1*
X1443237Y1551638D1*
X1442264Y1554512D1*
Y1555463D1*
X1443237Y1558337D1*
X1445138Y1560238D1*
X1448012Y1561189D1*
X1448963D1*
X1451837Y1560238D1*
X1453738Y1558337D1*
X1454711Y1554512D1*
Y1549715D1*
X1453738Y1544939D1*
X1451837Y1542065D1*
X1448963Y1541115D1*
X1447062D1*
X1444188Y1542065D1*
X1443237Y1543989D1*
X1252729Y1338197D2*
X1261329D1*
X1264203Y1339170D1*
X1265176Y1340120D1*
X1266127Y1342022D1*
Y1343945D1*
X1265176Y1345846D1*
X1264203Y1346819D1*
X1261329Y1347770D1*
X1252729D1*
Y1327674D1*
X1259428Y1338197D2*
X1266127Y1327674D1*
X1272302Y1343923D2*
X1274226Y1344896D1*
X1277100Y1347748D1*
Y1327674D1*
X1289023Y1347748D2*
X1286149Y1346797D1*
X1284226Y1343923D1*
X1283275Y1339148D1*
Y1336274D1*
X1284226Y1331498D1*
X1286149Y1328624D1*
X1289023Y1327674D1*
X1290925D1*
X1293799Y1328624D1*
X1295700Y1331498D1*
X1296673Y1336274D1*
Y1339148D1*
X1295700Y1343923D1*
X1293799Y1346797D1*
X1290925Y1347748D1*
X1289023D1*
X1295700Y1343923D2*
X1284226Y1331498D1*
X1380029Y1743197D2*
X1388629D1*
X1391503Y1744170D1*
X1392476Y1745120D1*
X1393427Y1747022D1*
Y1748945D1*
X1392476Y1750846D1*
X1391503Y1751819D1*
X1388629Y1752770D1*
X1380029D1*
Y1732674D1*
X1386728Y1743197D2*
X1393427Y1732674D1*
X1399602Y1748923D2*
X1401526Y1749896D1*
X1404400Y1752748D1*
Y1732674D1*
X1410575Y1748923D2*
X1412499Y1749896D1*
X1415373Y1752748D1*
Y1732674D1*
X701729Y1435197D2*
X710329D1*
X713203Y1436170D1*
X714176Y1437120D1*
X715127Y1439022D1*
Y1440945D1*
X714176Y1442846D1*
X713203Y1443819D1*
X710329Y1444770D1*
X701729D1*
Y1424674D1*
X708428Y1435197D2*
X715127Y1424674D1*
X721302Y1440923D2*
X723226Y1441896D1*
X726100Y1444748D1*
Y1424674D1*
X733248Y1439972D2*
Y1440923D1*
X734199Y1442846D1*
X735149Y1443797D1*
X737073Y1444748D1*
X740897D1*
X742799Y1443797D1*
X743749Y1442846D1*
X744722Y1440923D1*
Y1439022D1*
X743749Y1437098D1*
X741848Y1434246D1*
X732275Y1424674D1*
X745673D1*
X712516Y2007356D2*
Y1993008D1*
X713466Y1990134D1*
X715390Y1988233D1*
X718264Y1987260D1*
X720165D1*
X723039Y1988233D1*
X724962Y1990134D1*
X725913Y1993008D1*
Y2007356D1*
X732089Y2003510D2*
X734012Y2004482D1*
X736886Y2007334D1*
Y1987260D1*
X762216Y1310453D2*
Y1296106D1*
X763166Y1293231D1*
X765090Y1291330D1*
X767964Y1290357D1*
X769865D1*
X772739Y1291330D1*
X774663Y1293231D1*
X775613Y1296106D1*
Y1310453D1*
X782762Y1305656D2*
Y1306607D1*
X783712Y1308530D1*
X784663Y1309481D1*
X786586Y1310431D1*
X790411D1*
X792312Y1309481D1*
X793263Y1308530D1*
X794236Y1306607D1*
Y1304705D1*
X793263Y1302782D1*
X791362Y1299930D1*
X781789Y1290357D1*
X795186D1*
X1294216Y1200675D2*
Y1186327D1*
X1295166Y1183453D1*
X1297090Y1181552D1*
X1299964Y1180579D1*
X1301865D1*
X1304739Y1181552D1*
X1306663Y1183453D1*
X1307613Y1186327D1*
Y1200675D1*
X1315712Y1200653D2*
X1326213D1*
X1320488Y1193004D1*
X1323362D1*
X1325263Y1192053D1*
X1326213Y1191103D1*
X1327186Y1188229D1*
Y1186327D1*
X1326213Y1183453D1*
X1324312Y1181530D1*
X1321438Y1180579D1*
X1318564D1*
X1315712Y1181530D1*
X1314762Y1182503D1*
X1313789Y1184404D1*
X403359Y695286D2*
Y680938D1*
X404309Y678064D1*
X406233Y676162D1*
X409107Y675190D1*
X411008D1*
X413882Y676162D1*
X415805Y678064D1*
X416756Y680938D1*
Y695286D1*
X432504Y675190D2*
Y695263D1*
X422932Y681888D1*
X437280D1*
X665906Y1751604D2*
Y1737256D1*
X666857Y1734382D1*
X668780Y1732481D1*
X671654Y1731508D1*
X673555D1*
X676429Y1732481D1*
X678353Y1734382D1*
X679303Y1737256D1*
Y1751604D1*
X696953Y1751582D2*
X687403D1*
X686452Y1742982D1*
X687403Y1743933D1*
X690277Y1744906D1*
X693128D1*
X696002Y1743933D1*
X697926Y1742032D1*
X698876Y1739158D1*
Y1737256D1*
X697926Y1734382D1*
X696002Y1732459D1*
X693128Y1731508D1*
X690277D1*
X687403Y1732459D1*
X686452Y1733432D1*
X685479Y1735333D1*
X1661701Y929013D2*
Y914665D1*
X1662652Y911791D1*
X1664575Y909889D1*
X1667449Y908917D1*
X1669350D1*
X1672224Y909889D1*
X1674148Y911791D1*
X1675098Y914665D1*
Y929013D1*
X1692748Y926139D2*
X1691797Y928040D1*
X1688923Y928990D1*
X1687022D1*
X1684148Y928040D1*
X1682225Y925166D1*
X1681274Y920390D1*
Y915615D1*
X1682225Y911791D1*
X1684148Y909867D1*
X1687022Y908917D1*
X1687973D1*
X1690824Y909867D1*
X1692748Y911791D1*
X1693699Y914665D1*
Y915615D1*
X1692748Y918489D1*
X1690824Y920390D1*
X1687973Y921341D1*
X1687022D1*
X1684148Y920390D1*
X1682225Y918489D1*
X1681274Y915615D1*
X1572696Y1786463D2*
Y1772115D1*
X1573647Y1769241D1*
X1575570Y1767339D1*
X1578444Y1766367D1*
X1580345D1*
X1583219Y1767339D1*
X1585143Y1769241D1*
X1586093Y1772115D1*
Y1786463D1*
X1596094Y1766367D2*
X1605666Y1786441D1*
X1592269D1*
X1590841Y1158534D2*
Y1144186D1*
X1591792Y1141312D1*
X1593715Y1139410D1*
X1596589Y1138438D1*
X1598490D1*
X1601364Y1139410D1*
X1603288Y1141312D1*
X1604238Y1144186D1*
Y1158534D1*
X1615189Y1158511D2*
X1612337Y1157561D1*
X1611365Y1155660D1*
Y1153736D1*
X1612337Y1151835D1*
X1614239Y1150862D1*
X1618063Y1149911D1*
X1620937Y1148961D1*
X1622839Y1147037D1*
X1623789Y1145136D1*
Y1142262D1*
X1622839Y1140361D1*
X1621888Y1139388D1*
X1619014Y1138438D1*
X1615189D1*
X1612337Y1139388D1*
X1611365Y1140361D1*
X1610414Y1142262D1*
Y1145136D1*
X1611365Y1147037D1*
X1613288Y1148961D1*
X1616140Y1149911D1*
X1619965Y1150862D1*
X1621888Y1151835D1*
X1622839Y1153736D1*
Y1155660D1*
X1621888Y1157561D1*
X1619014Y1158511D1*
X1615189D1*
X1066565Y1278825D2*
X1074214Y1269252D1*
Y1258729D1*
X1081864Y1278825D2*
X1074214Y1269252D1*
X1088039Y1274978D2*
X1089963Y1275951D1*
X1092837Y1278803D1*
Y1258729D1*
X1157171Y927368D2*
X1164820Y917796D1*
Y907272D1*
X1172469Y927368D2*
X1164820Y917796D1*
X1179618Y922571D2*
Y923521D1*
X1180568Y925445D1*
X1181519Y926395D1*
X1183442Y927346D1*
X1187267D1*
X1189168Y926395D1*
X1190119Y925445D1*
X1191092Y923521D1*
Y921620D1*
X1190119Y919697D1*
X1188218Y916845D1*
X1178645Y907272D1*
X1192042D1*
X1626183Y1438212D2*
D119*
X1641935D1*
X1633346Y1426738D1*
X1637657D1*
X1640509Y1425312D1*
X1641935Y1423886D1*
X1643394Y1419575D1*
Y1416723D1*
X1641935Y1412412D1*
X1639083Y1409527D1*
X1634772Y1408101D1*
X1630461D1*
X1626183Y1409527D1*
X1624757Y1410986D1*
X1623298Y1413838D1*
X1654083Y1410986D2*
X1652657Y1409527D1*
X1654083Y1408101D1*
X1655542Y1409527D1*
X1654083Y1410986D1*
X1667691Y1438212D2*
X1683443D1*
X1674854Y1426738D1*
X1679165D1*
X1682017Y1425312D1*
X1683443Y1423886D1*
X1684902Y1419575D1*
Y1416723D1*
X1683443Y1412412D1*
X1680591Y1409527D1*
X1676280Y1408101D1*
X1671969D1*
X1667691Y1409527D1*
X1666265Y1410986D1*
X1664806Y1413838D1*
X1694165Y1438245D2*
X1705639Y1408101D1*
X1717113Y1438245D1*
X1654820Y1200082D2*
X1653394Y1202934D1*
X1650509Y1205819D1*
X1647657Y1207245D1*
X1641920D1*
X1639035Y1205819D1*
X1636183Y1202934D1*
X1634724Y1200082D1*
X1633298Y1195771D1*
Y1188575D1*
X1634724Y1184297D1*
X1636183Y1181412D1*
X1639035Y1178560D1*
X1641920Y1177101D1*
X1647657D1*
X1650509Y1178560D1*
X1653394Y1181412D1*
X1654820Y1184297D1*
Y1188575D1*
X1647657D1*
X1684179Y1207245D2*
Y1177101D1*
X1664083Y1207245D1*
Y1177101D1*
X1693443Y1207245D2*
Y1177101D1*
X1703491D1*
X1707802Y1178560D1*
X1710687Y1181412D1*
X1712113Y1184297D1*
X1713539Y1188575D1*
Y1195771D1*
X1712113Y1200082D1*
X1710687Y1202934D1*
X1707802Y1205819D1*
X1703491Y1207245D1*
X1693443D1*
M02*
