G04 DipTrace 3.1.0.0*
G04 TopSilk.gbr*
%MOIN*%
G04 #@! TF.FileFunction,Legend,Top*
G04 #@! TF.Part,Single*
%ADD10C,0.009843*%
%ADD12C,0.003*%
%ADD19C,0.001312*%
%ADD20C,0.004003*%
%ADD21C,0.001*%
%ADD39C,0.015403*%
%ADD45O,0.01799X0.01862*%
%ADD49C,0.012493*%
%ADD51O,0.017389X0.017948*%
%ADD53C,0.015401*%
%ADD83C,0.003088*%
%ADD84C,0.004632*%
%ADD85C,0.006176*%
%FSLAX26Y26*%
G04*
G70*
G90*
G75*
G01*
G04 TopSilk*
%LPD*%
X33992Y76985D2*
D21*
X5000D1*
X1194621Y1226501D2*
D10*
Y1163504D1*
X1190998Y1265000D2*
X1151002D1*
X1147379Y1226501D2*
Y1163504D1*
X827499Y1030621D2*
X890496D1*
X789000Y1026998D2*
Y987002D1*
X827499Y983379D2*
X890496D1*
X890501Y909379D2*
X827504D1*
X929000Y913002D2*
Y952998D1*
X890501Y956621D2*
X827504D1*
X485621Y1003194D2*
Y940197D1*
X481998Y1041693D2*
X442002D1*
X438379Y1003194D2*
Y940197D1*
X21542Y1299213D2*
X104252D1*
X76678Y1267709D2*
X104252Y1299213D1*
X98458Y1199220D2*
G03X123469Y1236707I-6214J31232D01*
G01*
Y1361718D1*
G03X98458Y1399205I-31224J6255D01*
G01*
X23415Y1199220D2*
X-1595D1*
Y1399205D1*
X23415D1*
X104252Y1299213D2*
X76678Y1330716D1*
X12992Y950787D2*
X146850D1*
Y1175197D1*
X12992D1*
Y950787D1*
X1195567Y1497402D2*
X1329425D1*
Y1672598D1*
X1195567D1*
Y1497402D1*
X21569Y1569803D2*
X104278D1*
X76704Y1538300D2*
X104278Y1569803D1*
X98485Y1469811D2*
G03X123495Y1507298I-6214J31232D01*
G01*
Y1632308D1*
G03X98485Y1669795I-31224J6255D01*
G01*
X23441Y1469811D2*
X-1569D1*
Y1669795D1*
X23441D1*
X104278Y1569803D2*
X76704Y1601307D1*
X968310Y1185194D2*
X1007585D1*
Y1318990D1*
X330420D1*
Y1185194D1*
X369696D1*
X1195567Y822008D2*
X1329425D1*
Y997205D1*
X1195567D1*
Y822008D1*
X1233005Y5975D2*
X1333006D1*
Y506020D1*
X1233005D1*
Y5975D1*
X1193241Y935381D2*
Y919638D1*
X980643D1*
Y935381D1*
Y1108619D2*
Y1124362D1*
X1193241D1*
Y1108619D1*
D39*
X417694Y1002273D3*
X408499Y971812D2*
D10*
X345505D1*
Y948187D1*
X408499D1*
Y971812D1*
D45*
X316000Y1594317D3*
X294374Y1594391D2*
D10*
Y1515649D1*
X215635Y1594391D2*
Y1515649D1*
X328096Y603120D2*
X351880D1*
Y626904D1*
X68120Y886880D2*
Y863096D1*
Y886880D2*
X91904D1*
X351880Y863096D2*
Y886880D1*
X328096D2*
X351880D1*
X91904Y603120D2*
X68120Y626904D1*
X1037060Y768993D2*
X918950D1*
X1037060Y643002D2*
X918950D1*
Y768993D2*
Y643002D1*
X1037060Y768993D2*
Y725675D1*
Y686320D2*
Y643002D1*
Y725675D2*
G03X1037060Y686320I-24J-19677D01*
G01*
X40750Y522038D2*
X122003D1*
Y378290D1*
X9505D1*
Y490792D1*
D49*
X9493Y522030D3*
X253946Y1249975D2*
D10*
Y1328719D1*
X159449Y1249975D2*
Y1328719D1*
D51*
X148389Y1229341D3*
D53*
X1018687Y1258229D3*
X1023950Y1312294D2*
D10*
X1142058D1*
X1023950Y1343785D2*
X1142058D1*
Y1312294D2*
Y1343785D1*
X1023950Y1312294D2*
Y1343785D1*
X1178675Y768849D2*
X1060564D1*
X1178675Y642857D2*
X1060564D1*
Y768849D2*
Y642857D1*
X1178675Y768849D2*
Y725530D1*
Y686176D2*
Y642857D1*
Y725530D2*
G03X1178675Y686176I-24J-19677D01*
G01*
X450000Y1614173D2*
D19*
X915000D1*
Y1535433D1*
X450000D1*
Y1614173D1*
X1166995Y460000D2*
D20*
X1251995D1*
X265000Y1330000D2*
X285000Y1350000D1*
X360000D1*
X385000Y1375000D1*
X305000Y1315000D2*
X330000Y1340000D1*
X405000D1*
X1165995Y356000D2*
X1250995D1*
X1169127Y266503D2*
D12*
X1175127D1*
X924627Y265003D2*
X932127D1*
X959127D2*
X966627D1*
X1007127D2*
X1013127D1*
X1034127D2*
X1040127D1*
X1061127D2*
X1067127D1*
X1169127D2*
X1175127D1*
X925890Y263503D2*
X933057D1*
X958197D2*
X965359D1*
X1007826D2*
X1013640D1*
X1034070D2*
X1040359D1*
X1060615D2*
X1066435D1*
X1112127D2*
X1118127D1*
X1169127D2*
X1175127D1*
X926965Y262003D2*
X933919D1*
X957336D2*
X964237D1*
X1008309D2*
X1014092D1*
X1033878D2*
X1040731D1*
X1060168D2*
X1065998D1*
X1112127D2*
X1118127D1*
X1169127D2*
X1175127D1*
X927885Y260503D2*
X934769D1*
X956486D2*
X963178D1*
X1008718D2*
X1014429D1*
X1033518D2*
X1041119D1*
X1059878D2*
X1065727D1*
X1112127D2*
X1118127D1*
X1169127D2*
X1175127D1*
X928758Y259003D2*
X935685D1*
X955570D2*
X962138D1*
X1009174D2*
X1014768D1*
X1033128D2*
X1041388D1*
X1059678D2*
X1065440D1*
X1112127D2*
X1118127D1*
X1169127D2*
X1175127D1*
X929681Y257503D2*
X936660D1*
X954595D2*
X961189D1*
X1009604D2*
X1015193D1*
X1032813D2*
X1041580D1*
X1059421D2*
X1065041D1*
X1112127D2*
X1118127D1*
X1169127D2*
X1175127D1*
X930659Y256003D2*
X937582D1*
X953673D2*
X960329D1*
X1009933D2*
X1015605D1*
X1032483D2*
X1041835D1*
X1059034D2*
X1064636D1*
X1112127D2*
X1118127D1*
X1169127D2*
X1175127D1*
X931581Y254503D2*
X938432D1*
X952823D2*
X959482D1*
X1010269D2*
X1015883D1*
X1032060D2*
X1035570D1*
X1038684D2*
X1042221D1*
X1058634D2*
X1064316D1*
X1112127D2*
X1118127D1*
X1169127D2*
X1175139D1*
X932432Y253003D2*
X939275D1*
X951980D2*
X958568D1*
X981627D2*
X989127D1*
X1010693D2*
X1016078D1*
X1031649D2*
X1035378D1*
X1038877D2*
X1042621D1*
X1058315D2*
X1063984D1*
X1080627D2*
X1091127D1*
X1112127D2*
X1118127D1*
X1146627D2*
X1154127D1*
X1169127D2*
X1175253D1*
X1184127D2*
X1190127D1*
X933275Y251503D2*
X940187D1*
X951068D2*
X957594D1*
X978742D2*
X992012D1*
X1011111D2*
X1016334D1*
X1031372D2*
X1035018D1*
X1039236D2*
X1042939D1*
X1057984D2*
X1063561D1*
X1077857D2*
X1094287D1*
X1107627D2*
X1130127D1*
X1143922D2*
X1157230D1*
X1169127D2*
X1175526D1*
X1181378D2*
X1192595D1*
X934187Y250003D2*
X941172D1*
X950082D2*
X956673D1*
X976387D2*
X994368D1*
X1011435D2*
X1016720D1*
X1031176D2*
X1034628D1*
X1039621D2*
X1043271D1*
X1057561D2*
X1063144D1*
X1075805D2*
X1096671D1*
X1107627D2*
X1130127D1*
X1141551D2*
X1159771D1*
X1169127D2*
X1176695D1*
X1178362D2*
X1194542D1*
X935161Y248503D2*
X942203D1*
X949051D2*
X955823D1*
X974503D2*
X996251D1*
X1011769D2*
X1017121D1*
X1030920D2*
X1034313D1*
X1039888D2*
X1043694D1*
X1057144D2*
X1062819D1*
X1075130D2*
X1098306D1*
X1107627D2*
X1130127D1*
X1139601D2*
X1160890D1*
X1169127D2*
X1195912D1*
X936082Y247003D2*
X943472D1*
X947782D2*
X954980D1*
X973007D2*
X980133D1*
X990621D2*
X997747D1*
X1012194D2*
X1017439D1*
X1030534D2*
X1033983D1*
X1040080D2*
X1044111D1*
X1056819D2*
X1062485D1*
X1074627D2*
X1079127D1*
X1092564D2*
X1099465D1*
X1107627D2*
X1130127D1*
X1138054D2*
X1145133D1*
X1157127D2*
X1161315D1*
X1169127D2*
X1181428D1*
X1190064D2*
X1196836D1*
X936932Y245503D2*
X945170D1*
X946085D2*
X954068D1*
X971847D2*
X978686D1*
X992069D2*
X998908D1*
X1012605D2*
X1017771D1*
X1030134D2*
X1033560D1*
X1040335D2*
X1044435D1*
X1056485D2*
X1062061D1*
X1093813D2*
X1100336D1*
X1112127D2*
X1118127D1*
X1136867D2*
X1143686D1*
X1160127D2*
X1161627D1*
X1169127D2*
X1179109D1*
X1191313D2*
X1197500D1*
X937775Y244003D2*
X953088D1*
X970945D2*
X977383D1*
X993372D2*
X999809D1*
X1012883D2*
X1018194D1*
X1029815D2*
X1033149D1*
X1040721D2*
X1044769D1*
X1056061D2*
X1061644D1*
X1094845D2*
X1100959D1*
X1112127D2*
X1118127D1*
X1135953D2*
X1142383D1*
X1169127D2*
X1177357D1*
X1192204D2*
X1198082D1*
X938687Y242503D2*
X952120D1*
X970253D2*
X976301D1*
X994454D2*
X1000502D1*
X1013078D2*
X1018611D1*
X1029484D2*
X1032872D1*
X1041115D2*
X1045194D1*
X1055650D2*
X1061319D1*
X1095118D2*
X1101321D1*
X1112127D2*
X1118127D1*
X1135256D2*
X1141301D1*
X1169127D2*
X1176025D1*
X1192711D2*
X1198562D1*
X939661Y241003D2*
X951137D1*
X969691D2*
X975435D1*
X995319D2*
X1001064D1*
X1013334D2*
X1018935D1*
X1029061D2*
X1032676D1*
X1041386D2*
X1045611D1*
X1055372D2*
X1060985D1*
X1095188D2*
X1101499D1*
X1112127D2*
X1118127D1*
X1134692D2*
X1140435D1*
X1169127D2*
X1175561D1*
X1192955D2*
X1198861D1*
X940576Y239503D2*
X950179D1*
X969149D2*
X974806D1*
X995949D2*
X1001606D1*
X1013720D2*
X1019269D1*
X1028644D2*
X1032420D1*
X1041580D2*
X1045935D1*
X1055176D2*
X1060561D1*
X1091853D2*
X1101577D1*
X1112127D2*
X1118127D1*
X1134149D2*
X1139806D1*
X1169127D2*
X1175311D1*
X1193061D2*
X1199014D1*
X941367Y238003D2*
X949439D1*
X968684D2*
X974438D1*
X996316D2*
X1002070D1*
X1014121D2*
X1019694D1*
X1028319D2*
X1032034D1*
X1041835D2*
X1046269D1*
X1054920D2*
X1060144D1*
X1087517D2*
X1101609D1*
X1112127D2*
X1118127D1*
X1133685D2*
X1139438D1*
X1169127D2*
X1175199D1*
X1193103D2*
X1199083D1*
X941967Y236503D2*
X949000D1*
X968391D2*
X974257D1*
X996497D2*
X1002364D1*
X1014439D2*
X1020111D1*
X1027985D2*
X1031639D1*
X1042220D2*
X1046694D1*
X1054534D2*
X1059819D1*
X1083136D2*
X1101621D1*
X1112127D2*
X1118127D1*
X1133391D2*
X1139257D1*
X1169127D2*
X1175154D1*
X1193119D2*
X1199111D1*
X942322Y235003D2*
X948783D1*
X968240D2*
X974178D1*
X996577D2*
X1002515D1*
X1014771D2*
X1020435D1*
X1027561D2*
X1031368D1*
X1042621D2*
X1047105D1*
X1054134D2*
X1059485D1*
X1079620D2*
X1101625D1*
X1112127D2*
X1118127D1*
X1133240D2*
X1139178D1*
X1169127D2*
X1175137D1*
X1193124D2*
X1199121D1*
X942499Y233503D2*
X948688D1*
X968172D2*
X974146D1*
X996609D2*
X1002583D1*
X1015194D2*
X1020769D1*
X1027144D2*
X1031175D1*
X1042939D2*
X1047383D1*
X1053815D2*
X1059061D1*
X1077063D2*
X1101627D1*
X1112127D2*
X1118127D1*
X1133172D2*
X1139146D1*
X1169127D2*
X1175130D1*
X1193126D2*
X1199125D1*
X942577Y232003D2*
X948650D1*
X968150D2*
X974134D1*
X996621D2*
X1002605D1*
X1015611D2*
X1021194D1*
X1026819D2*
X1030920D1*
X1043271D2*
X1047578D1*
X1053484D2*
X1058644D1*
X1075238D2*
X1085723D1*
X1095627D2*
X1101627D1*
X1112127D2*
X1118127D1*
X1133150D2*
X1139134D1*
X1169127D2*
X1175128D1*
X1193127D2*
X1199127D1*
X942609Y230503D2*
X948635D1*
X968192D2*
X974135D1*
X996619D2*
X1002563D1*
X1015935D2*
X1021611D1*
X1026479D2*
X1030534D1*
X1043694D2*
X1047840D1*
X1053055D2*
X1058319D1*
X1073936D2*
X1082527D1*
X1095627D2*
X1101627D1*
X1112127D2*
X1118127D1*
X1133192D2*
X1139135D1*
X1169127D2*
X1175128D1*
X1193127D2*
X1199127D1*
X942621Y229003D2*
X948630D1*
X968379D2*
X974187D1*
X996568D2*
X1002376D1*
X1016269D2*
X1021940D1*
X1025998D2*
X1030133D1*
X1044105D2*
X1048284D1*
X1052586D2*
X1057985D1*
X1072984D2*
X1079960D1*
X1095627D2*
X1101627D1*
X1112127D2*
X1118127D1*
X1133379D2*
X1139187D1*
X1169127D2*
X1175127D1*
X1193127D2*
X1199127D1*
X942625Y227503D2*
X948628D1*
X968743D2*
X974383D1*
X996371D2*
X1002012D1*
X1016694D2*
X1022315D1*
X1025351D2*
X1029815D1*
X1044383D2*
X1048914D1*
X1052082D2*
X1057561D1*
X1072323D2*
X1078641D1*
X1095621D2*
X1101627D1*
X1112127D2*
X1118127D1*
X1133743D2*
X1139383D1*
X1169127D2*
X1175127D1*
X1193127D2*
X1199127D1*
X942627Y226003D2*
X948628D1*
X969180D2*
X974801D1*
X995954D2*
X1001575D1*
X1017111D2*
X1022895D1*
X1024543D2*
X1029484D1*
X1044578D2*
X1049715D1*
X1051418D2*
X1057144D1*
X1071950D2*
X1078119D1*
X1095563D2*
X1101627D1*
X1112127D2*
X1118133D1*
X1134180D2*
X1139801D1*
X1169127D2*
X1175127D1*
X1193127D2*
X1199127D1*
X942627Y224503D2*
X948627D1*
X969638D2*
X975435D1*
X995319D2*
X1001116D1*
X1017435D2*
X1029061D1*
X1044834D2*
X1056819D1*
X1071818D2*
X1077896D1*
X1095307D2*
X1101627D1*
X1112133D2*
X1118192D1*
X1134638D2*
X1140435D1*
X1169127D2*
X1175127D1*
X1193127D2*
X1199127D1*
X942627Y223003D2*
X948627D1*
X970195D2*
X976341D1*
X994414D2*
X1000560D1*
X1017769D2*
X1028650D1*
X1045220D2*
X1056485D1*
X1071934D2*
X1077881D1*
X1094822D2*
X1101627D1*
X1112186D2*
X1118332D1*
X1135195D2*
X1141347D1*
X1169127D2*
X1175127D1*
X1193127D2*
X1199127D1*
X942627Y221503D2*
X948627D1*
X970893D2*
X977507D1*
X993248D2*
X999862D1*
X1018194D2*
X1028372D1*
X1045615D2*
X1056061D1*
X1072314D2*
X1078543D1*
X1093491D2*
X1101627D1*
X1112383D2*
X1119027D1*
X1135893D2*
X1142530D1*
X1169127D2*
X1175127D1*
X1193127D2*
X1199127D1*
X942627Y220003D2*
X948627D1*
X971790D2*
X980448D1*
X990306D2*
X998965D1*
X1018611D2*
X1028176D1*
X1045886D2*
X1055644D1*
X1072883D2*
X1080939D1*
X1090166D2*
X1101627D1*
X1112801D2*
X1121151D1*
X1136790D2*
X1145733D1*
X1160127D2*
X1161627D1*
X1169127D2*
X1175127D1*
X1193127D2*
X1199127D1*
X942627Y218503D2*
X948627D1*
X972945D2*
X985001D1*
X985754D2*
X997810D1*
X1018940D2*
X1027919D1*
X1046084D2*
X1055315D1*
X1073570D2*
X1084805D1*
X1085176D2*
X1101627D1*
X1113441D2*
X1124012D1*
X1137945D2*
X1150806D1*
X1152205D2*
X1161495D1*
X1169127D2*
X1175127D1*
X1193127D2*
X1199127D1*
X942627Y217003D2*
X948627D1*
X974381D2*
X996373D1*
X1019315D2*
X1027520D1*
X1046380D2*
X1054940D1*
X1074456D2*
X1101627D1*
X1114369D2*
X1126759D1*
X1139381D2*
X1161194D1*
X1169127D2*
X1175127D1*
X1193127D2*
X1199127D1*
X942627Y215503D2*
X948627D1*
X976267D2*
X994488D1*
X1019895D2*
X1027064D1*
X1046920D2*
X1054359D1*
X1075582D2*
X1092627D1*
X1095627D2*
X1101627D1*
X1115732D2*
X1128682D1*
X1141267D2*
X1159562D1*
X1169127D2*
X1175127D1*
X1193127D2*
X1199127D1*
X942627Y214003D2*
X948627D1*
X978760D2*
X991995D1*
X1020627D2*
X1026627D1*
X1047627D2*
X1053627D1*
X1077941D2*
X1089627D1*
X1095627D2*
X1101627D1*
X1117555D2*
X1130127D1*
X1143760D2*
X1157082D1*
X1169127D2*
X1175127D1*
X1193127D2*
X1199127D1*
X981627Y212503D2*
X989127D1*
X1080627D2*
X1086627D1*
X1119627D2*
X1127127D1*
X1146627D2*
X1154127D1*
X1074627Y179503D2*
X1082127D1*
X924627Y178003D2*
X944127D1*
X1072154D2*
X1084601D1*
X1118127D2*
X1122627D1*
X1187127D2*
X1193127D1*
X924627Y176503D2*
X947468D1*
X1070154D2*
X1086600D1*
X1117477D2*
X1122627D1*
X1185684D2*
X1193127D1*
X924627Y175003D2*
X950078D1*
X1068599D2*
X1088156D1*
X1116656D2*
X1122627D1*
X1184377D2*
X1193127D1*
X924627Y173503D2*
X951886D1*
X1067362D2*
X1075160D1*
X1081595D2*
X1089393D1*
X1114722D2*
X1122627D1*
X1183236D2*
X1193127D1*
X924627Y172003D2*
X930627D1*
X945621D2*
X953144D1*
X1066452D2*
X1073213D1*
X1083542D2*
X1090302D1*
X1112327D2*
X1122627D1*
X1182121D2*
X1193127D1*
X924627Y170503D2*
X930627D1*
X947063D2*
X954109D1*
X1065776D2*
X1071843D1*
X1084912D2*
X1090978D1*
X1110189D2*
X1122627D1*
X1180883D2*
X1193127D1*
X924627Y169003D2*
X930627D1*
X948313D2*
X954893D1*
X1065183D2*
X1070918D1*
X1085836D2*
X1091572D1*
X1108581D2*
X1122627D1*
X1179522D2*
X1183832D1*
X1187127D2*
X1193127D1*
X924627Y167503D2*
X930627D1*
X949204D2*
X955480D1*
X1064691D2*
X1070255D1*
X1086500D2*
X1092063D1*
X1108036D2*
X1122627D1*
X1178091D2*
X1183210D1*
X1187127D2*
X1193127D1*
X924627Y166003D2*
X930627D1*
X949710D2*
X955822D1*
X978627D2*
X986127D1*
X1064337D2*
X1069672D1*
X1087082D2*
X1092418D1*
X1116627D2*
X1122627D1*
X1176670D2*
X1182212D1*
X1187127D2*
X1193127D1*
X924627Y164503D2*
X930627D1*
X949949D2*
X955943D1*
X975922D2*
X989006D1*
X1001127D2*
X1007127D1*
X1029627D2*
X1035627D1*
X1063991D2*
X1069193D1*
X1087562D2*
X1092763D1*
X1116627D2*
X1122627D1*
X1175371D2*
X1180956D1*
X1187127D2*
X1193127D1*
X924627Y163003D2*
X930627D1*
X950002D2*
X955828D1*
X973551D2*
X991315D1*
X1001877D2*
X1007877D1*
X1028878D2*
X1034703D1*
X1063563D2*
X1068894D1*
X1087861D2*
X1093191D1*
X1116627D2*
X1122627D1*
X1174234D2*
X1179567D1*
X1187127D2*
X1193127D1*
X924627Y161503D2*
X930627D1*
X949847D2*
X955494D1*
X971601D2*
X993054D1*
X1002506D2*
X1008506D1*
X1028249D2*
X1033895D1*
X1063150D2*
X1068741D1*
X1088014D2*
X1093604D1*
X1116627D2*
X1122627D1*
X1173120D2*
X1178162D1*
X1187127D2*
X1193127D1*
X924627Y160003D2*
X930627D1*
X949439D2*
X955063D1*
X970054D2*
X977479D1*
X987621D2*
X994330D1*
X1003136D2*
X1009136D1*
X1027619D2*
X1033235D1*
X1062878D2*
X1068672D1*
X1088083D2*
X1093877D1*
X1116627D2*
X1122627D1*
X1171882D2*
X1176869D1*
X1187127D2*
X1193127D1*
X924627Y158503D2*
X930627D1*
X948705D2*
X954556D1*
X968867D2*
X975300D1*
X989063D2*
X995279D1*
X1003809D2*
X1009809D1*
X1026946D2*
X1032685D1*
X1062735D2*
X1068644D1*
X1088111D2*
X1094020D1*
X1116627D2*
X1122627D1*
X1170522D2*
X1175733D1*
X1187127D2*
X1193127D1*
X924627Y157003D2*
X930627D1*
X947651D2*
X953809D1*
X967959D2*
X973716D1*
X990313D2*
X995991D1*
X1004474D2*
X1010474D1*
X1026280D2*
X1032141D1*
X1062670D2*
X1068633D1*
X1088121D2*
X1094085D1*
X1116627D2*
X1122627D1*
X1169091D2*
X1174620D1*
X1187127D2*
X1193127D1*
X924627Y155503D2*
X930627D1*
X943671D2*
X952746D1*
X967308D2*
X972607D1*
X991204D2*
X996560D1*
X1005066D2*
X1011066D1*
X1025689D2*
X1031625D1*
X1062643D2*
X1068629D1*
X1088125D2*
X1094111D1*
X1116627D2*
X1122627D1*
X1167676D2*
X1173382D1*
X1187127D2*
X1193127D1*
X924627Y154003D2*
X930627D1*
X937203D2*
X951418D1*
X966883D2*
X971872D1*
X991711D2*
X997105D1*
X1005593D2*
X1011587D1*
X1025167D2*
X1031135D1*
X1062633D2*
X1068628D1*
X1088127D2*
X1094122D1*
X1116627D2*
X1122627D1*
X1166436D2*
X1172022D1*
X1187127D2*
X1193127D1*
X924627Y152503D2*
X949887D1*
X966508D2*
X971461D1*
X991956D2*
X997570D1*
X1006173D2*
X1012120D1*
X1024635D2*
X1030572D1*
X1062629D2*
X1068628D1*
X1088127D2*
X1094125D1*
X1116627D2*
X1122627D1*
X1165549D2*
X1170588D1*
X1187127D2*
X1193127D1*
X924627Y151003D2*
X948375D1*
X966069D2*
X971255D1*
X992065D2*
X997864D1*
X1006823D2*
X1012631D1*
X1024123D2*
X1029928D1*
X1062628D2*
X1068627D1*
X1088127D2*
X1094127D1*
X1116627D2*
X1122627D1*
X1140627D2*
X1158627D1*
X1165043D2*
X1169127D1*
X1187127D2*
X1193127D1*
X924627Y149503D2*
X947079D1*
X965652D2*
X998015D1*
X1007480D2*
X1013114D1*
X1023640D2*
X1029274D1*
X1062628D2*
X1068627D1*
X1088127D2*
X1094127D1*
X1116627D2*
X1122627D1*
X1140627D2*
X1158627D1*
X1164799D2*
X1199127D1*
X924627Y148003D2*
X946582D1*
X965379D2*
X998083D1*
X1008067D2*
X1013630D1*
X1023124D2*
X1028687D1*
X1062633D2*
X1068627D1*
X1088127D2*
X1094121D1*
X1116627D2*
X1122627D1*
X1140627D2*
X1158627D1*
X1164693D2*
X1199127D1*
X924627Y146503D2*
X930627D1*
X939570D2*
X947559D1*
X965235D2*
X998112D1*
X1008588D2*
X1014135D1*
X1022619D2*
X1028161D1*
X1062686D2*
X1068627D1*
X1088127D2*
X1094069D1*
X1116627D2*
X1122627D1*
X1140627D2*
X1158627D1*
X1164650D2*
X1199127D1*
X924627Y145003D2*
X930627D1*
X940878D2*
X948595D1*
X965176D2*
X998127D1*
X1009120D2*
X1014622D1*
X1022139D2*
X1027582D1*
X1062877D2*
X1068633D1*
X1088121D2*
X1093878D1*
X1116627D2*
X1122627D1*
X1164627D2*
X1199127D1*
X924627Y143503D2*
X930627D1*
X942018D2*
X949606D1*
X965202D2*
X971133D1*
X1009632D2*
X1015195D1*
X1021624D2*
X1026932D1*
X1063236D2*
X1068686D1*
X1088069D2*
X1093518D1*
X1116627D2*
X1122627D1*
X1187127D2*
X1193127D1*
X924627Y142003D2*
X930627D1*
X943134D2*
X950667D1*
X965383D2*
X971186D1*
X1010120D2*
X1015954D1*
X1021115D2*
X1026275D1*
X1063627D2*
X1068877D1*
X1087878D2*
X1093128D1*
X1116627D2*
X1122627D1*
X1187127D2*
X1193127D1*
X924627Y140503D2*
X930627D1*
X944366D2*
X951878D1*
X965744D2*
X971383D1*
X1010683D2*
X1017080D1*
X1020593D2*
X1025687D1*
X1063941D2*
X1069242D1*
X1087512D2*
X1092813D1*
X1116627D2*
X1122627D1*
X1187127D2*
X1193127D1*
X924627Y139003D2*
X930627D1*
X945674D2*
X953178D1*
X966180D2*
X971801D1*
X1011326D2*
X1018709D1*
X1019922D2*
X1025167D1*
X1064271D2*
X1069679D1*
X1087075D2*
X1092483D1*
X1116627D2*
X1122627D1*
X1187127D2*
X1193127D1*
X924627Y137503D2*
X930627D1*
X946920D2*
X954421D1*
X966638D2*
X972441D1*
X1011981D2*
X1024635D1*
X1064700D2*
X1070144D1*
X1086611D2*
X1092054D1*
X1116627D2*
X1122627D1*
X1187127D2*
X1193127D1*
X924627Y136003D2*
X930627D1*
X948034D2*
X955534D1*
X967195D2*
X973417D1*
X1012568D2*
X1024123D1*
X1065170D2*
X1070783D1*
X1085972D2*
X1091585D1*
X1116627D2*
X1122627D1*
X1187127D2*
X1193127D1*
X924627Y134503D2*
X930627D1*
X949139D2*
X956639D1*
X967893D2*
X974758D1*
X1013094D2*
X1023634D1*
X1065685D2*
X1071636D1*
X1085118D2*
X1091069D1*
X1116627D2*
X1122627D1*
X1187127D2*
X1193127D1*
X924627Y133003D2*
X930627D1*
X950368D2*
X957868D1*
X968796D2*
X978908D1*
X995127D2*
X998127D1*
X1013673D2*
X1023072D1*
X1066390D2*
X1074302D1*
X1082453D2*
X1090364D1*
X1116627D2*
X1122627D1*
X1187127D2*
X1193127D1*
X924627Y131503D2*
X930627D1*
X951671D2*
X959171D1*
X970003D2*
X985481D1*
X986502D2*
X997990D1*
X1014324D2*
X1022427D1*
X1067316D2*
X1078489D1*
X1078266D2*
X1089438D1*
X1107627D2*
X1131627D1*
X1187127D2*
X1193127D1*
X924627Y130003D2*
X930627D1*
X952875D2*
X960375D1*
X971632D2*
X997670D1*
X1014989D2*
X1021765D1*
X1068488D2*
X1088267D1*
X1107627D2*
X1131627D1*
X1187127D2*
X1193127D1*
X924627Y128503D2*
X930627D1*
X953835D2*
X961335D1*
X973889D2*
X996167D1*
X1015594D2*
X1021160D1*
X1070108D2*
X1086647D1*
X1107627D2*
X1131627D1*
X1187127D2*
X1193127D1*
X924627Y127003D2*
X930627D1*
X954627D2*
X962127D1*
X976829D2*
X992875D1*
X1016127D2*
X1020627D1*
X1072243D2*
X1084511D1*
X1107627D2*
X1131627D1*
X1187127D2*
X1193127D1*
X980127Y125503D2*
X989127D1*
X1074627D2*
X1082127D1*
X470127Y92503D2*
X479127D1*
X546627D2*
X554127D1*
X585627D2*
X593127D1*
X911127D2*
X920127D1*
X956127D2*
X962127D1*
X465805Y91003D2*
X483449D1*
X542832D2*
X557006D1*
X583154D2*
X595601D1*
X629127D2*
X633627D1*
X651627D2*
X683127D1*
X716127D2*
X737127D1*
X782127D2*
X788127D1*
X907730D2*
X924615D1*
X939627D2*
X945627D1*
X956127D2*
X962127D1*
X462195Y89503D2*
X487060D1*
X539778D2*
X559309D1*
X581154D2*
X597600D1*
X628477D2*
X633627D1*
X651627D2*
X683127D1*
X716127D2*
X739775D1*
X782127D2*
X788127D1*
X904927D2*
X928181D1*
X939627D2*
X945627D1*
X956127D2*
X962127D1*
X459368Y88003D2*
X467485D1*
X481770D2*
X489887D1*
X538474D2*
X561001D1*
X579599D2*
X599156D1*
X627656D2*
X633627D1*
X651627D2*
X683121D1*
X716127D2*
X741955D1*
X782127D2*
X788127D1*
X902766D2*
X929670D1*
X939627D2*
X945627D1*
X956127D2*
X962127D1*
X457168Y86503D2*
X463859D1*
X485396D2*
X492086D1*
X537986D2*
X543627D1*
X553595D2*
X562138D1*
X578362D2*
X586160D1*
X592595D2*
X600393D1*
X625722D2*
X633627D1*
X651627D2*
X683069D1*
X716127D2*
X743539D1*
X782127D2*
X788127D1*
X901169D2*
X909928D1*
X923127D2*
X930186D1*
X939627D2*
X945627D1*
X956127D2*
X962127D1*
X455345Y85003D2*
X460966D1*
X488289D2*
X493909D1*
X537627D2*
X539127D1*
X555542D2*
X562914D1*
X577452D2*
X584213D1*
X594542D2*
X601302D1*
X623327D2*
X633627D1*
X677365D2*
X682872D1*
X716127D2*
X722127D1*
X737064D2*
X744648D1*
X782127D2*
X788127D1*
X900081D2*
X907609D1*
X926127D2*
X930460D1*
X939627D2*
X945627D1*
X956127D2*
X962127D1*
X453716Y83503D2*
X458716D1*
X490539D2*
X495539D1*
X556906D2*
X563548D1*
X576776D2*
X582843D1*
X595912D2*
X601978D1*
X621189D2*
X633627D1*
X676295D2*
X682460D1*
X716127D2*
X722127D1*
X738313D2*
X745383D1*
X899327D2*
X905857D1*
X929127D2*
X930627D1*
X956127D2*
X962127D1*
X452216Y82003D2*
X456866D1*
X492389D2*
X497039D1*
X557928D2*
X564049D1*
X576183D2*
X581918D1*
X596836D2*
X602572D1*
X619581D2*
X633627D1*
X675428D2*
X681878D1*
X716127D2*
X722127D1*
X739204D2*
X745786D1*
X898702D2*
X904525D1*
X956127D2*
X962127D1*
X450893Y80503D2*
X455224D1*
X494031D2*
X498361D1*
X558288D2*
X564356D1*
X575691D2*
X581255D1*
X597500D2*
X603063D1*
X619036D2*
X633627D1*
X674747D2*
X681204D1*
X716127D2*
X722127D1*
X739711D2*
X745930D1*
X898204D2*
X904067D1*
X956127D2*
X962127D1*
X449798Y79003D2*
X453719D1*
X473127D2*
X479127D1*
X495536D2*
X499456D1*
X558483D2*
X564507D1*
X575337D2*
X580672D1*
X598082D2*
X603418D1*
X627627D2*
X633627D1*
X674183D2*
X680484D1*
X716127D2*
X722127D1*
X739949D2*
X745818D1*
X804627D2*
X815127D1*
X851127D2*
X857127D1*
X897903D2*
X903870D1*
X956127D2*
X962127D1*
X1019127D2*
X1026627D1*
X1086627D2*
X1092627D1*
X1109127D2*
X1115127D1*
X1137627D2*
X1148127D1*
X1184127D2*
X1190127D1*
X448878Y77503D2*
X452394D1*
X470242D2*
X481919D1*
X496860D2*
X500377D1*
X558565D2*
X564524D1*
X574991D2*
X580193D1*
X598562D2*
X603763D1*
X627627D2*
X633627D1*
X673590D2*
X679747D1*
X716127D2*
X722127D1*
X739991D2*
X745440D1*
X756627D2*
X762627D1*
X771627D2*
X776127D1*
X782127D2*
X788127D1*
X801857D2*
X818287D1*
X836127D2*
X842127D1*
X848378D2*
X859595D1*
X897801D2*
X903955D1*
X939627D2*
X945627D1*
X956127D2*
X962127D1*
X968127D2*
X974127D1*
X996627D2*
X1002627D1*
X1016422D2*
X1029506D1*
X1046127D2*
X1052127D1*
X1061127D2*
X1065627D1*
X1071627D2*
X1077627D1*
X1083352D2*
X1094648D1*
X1106299D2*
X1117082D1*
X1134858D2*
X1151287D1*
X1169127D2*
X1175127D1*
X1181378D2*
X1192595D1*
X448056Y76003D2*
X451305D1*
X467887D2*
X484024D1*
X497950D2*
X501198D1*
X558548D2*
X564361D1*
X574563D2*
X579894D1*
X598861D2*
X604191D1*
X627627D2*
X633627D1*
X672929D2*
X679000D1*
X716127D2*
X722127D1*
X739886D2*
X744865D1*
X756627D2*
X762689D1*
X769373D2*
X776127D1*
X782127D2*
X788127D1*
X799805D2*
X820671D1*
X836127D2*
X843534D1*
X845362D2*
X861542D1*
X897928D2*
X904339D1*
X939627D2*
X945627D1*
X956127D2*
X962127D1*
X968877D2*
X974877D1*
X995878D2*
X1001703D1*
X1014051D2*
X1031815D1*
X1046127D2*
X1052189D1*
X1058873D2*
X1065627D1*
X1071627D2*
X1078330D1*
X1079825D2*
X1096429D1*
X1103450D2*
X1118588D1*
X1132806D2*
X1153671D1*
X1169127D2*
X1176534D1*
X1178362D2*
X1194542D1*
X447330Y74503D2*
X450431D1*
X466009D2*
X471979D1*
X482127D2*
X485127D1*
X498824D2*
X501925D1*
X558364D2*
X564006D1*
X574150D2*
X579741D1*
X599014D2*
X604604D1*
X627627D2*
X633627D1*
X672223D2*
X678252D1*
X716127D2*
X722127D1*
X738948D2*
X744144D1*
X756627D2*
X762922D1*
X767208D2*
X776127D1*
X782127D2*
X788127D1*
X799130D2*
X822306D1*
X836127D2*
X862912D1*
X898312D2*
X904916D1*
X939627D2*
X945627D1*
X956127D2*
X962127D1*
X969506D2*
X975506D1*
X995249D2*
X1000895D1*
X1012101D2*
X1033554D1*
X1046127D2*
X1052422D1*
X1056708D2*
X1065627D1*
X1071627D2*
X1098221D1*
X1100387D2*
X1119721D1*
X1132179D2*
X1155306D1*
X1169127D2*
X1195912D1*
X446758Y73003D2*
X449748D1*
X464560D2*
X469800D1*
X499507D2*
X502497D1*
X557951D2*
X563573D1*
X573878D2*
X579672D1*
X599083D2*
X604877D1*
X627627D2*
X633627D1*
X671490D2*
X677501D1*
X716127D2*
X722127D1*
X735076D2*
X743237D1*
X756627D2*
X763435D1*
X764966D2*
X776127D1*
X782127D2*
X788127D1*
X798627D2*
X803127D1*
X816564D2*
X823465D1*
X836127D2*
X848428D1*
X857064D2*
X863836D1*
X898882D2*
X906146D1*
X939627D2*
X945627D1*
X956127D2*
X962127D1*
X970136D2*
X976136D1*
X994619D2*
X1000235D1*
X1010554D2*
X1017979D1*
X1028121D2*
X1034830D1*
X1046127D2*
X1052935D1*
X1054466D2*
X1065627D1*
X1071627D2*
X1083928D1*
X1091064D2*
X1106428D1*
X1113564D2*
X1120637D1*
X1131839D2*
X1136127D1*
X1149564D2*
X1156465D1*
X1169127D2*
X1181428D1*
X1190064D2*
X1196836D1*
X446364Y71503D2*
X449189D1*
X463538D2*
X468216D1*
X500066D2*
X502891D1*
X557325D2*
X563116D1*
X573735D2*
X579644D1*
X599111D2*
X605020D1*
X627627D2*
X633627D1*
X670749D2*
X676753D1*
X716127D2*
X722127D1*
X728666D2*
X742167D1*
X756627D2*
X776127D1*
X782127D2*
X788127D1*
X817813D2*
X824336D1*
X836127D2*
X846109D1*
X858313D2*
X864500D1*
X899564D2*
X908948D1*
X939627D2*
X945627D1*
X956127D2*
X962127D1*
X970809D2*
X976809D1*
X993946D2*
X999685D1*
X1009367D2*
X1015800D1*
X1029563D2*
X1035779D1*
X1046127D2*
X1065627D1*
X1071627D2*
X1081609D1*
X1092313D2*
X1104109D1*
X1114813D2*
X1121402D1*
X1131627D2*
D3*
X1150813D2*
X1157336D1*
X1169127D2*
X1179109D1*
X1191313D2*
X1197500D1*
X446002Y70003D2*
X448648D1*
X462811D2*
X467107D1*
X500606D2*
X503253D1*
X556507D2*
X562559D1*
X573670D2*
X579633D1*
X599121D2*
X605085D1*
X627627D2*
X633627D1*
X670000D2*
X676002D1*
X716127D2*
X741100D1*
X756627D2*
X770996D1*
X782127D2*
X788127D1*
X818845D2*
X824959D1*
X836127D2*
X844357D1*
X859204D2*
X865082D1*
X900400D2*
X912667D1*
X939627D2*
X945627D1*
X956127D2*
X962127D1*
X971474D2*
X977474D1*
X993280D2*
X999141D1*
X1008459D2*
X1014216D1*
X1030813D2*
X1036491D1*
X1046127D2*
X1060496D1*
X1071627D2*
X1079857D1*
X1093204D2*
X1102357D1*
X1115704D2*
X1121983D1*
X1151845D2*
X1157959D1*
X1169127D2*
X1177357D1*
X1192204D2*
X1198082D1*
X445567Y68503D2*
X448184D1*
X462196D2*
X466372D1*
X501070D2*
X503688D1*
X555566D2*
X561861D1*
X573643D2*
X579629D1*
X599125D2*
X605111D1*
X627627D2*
X633627D1*
X669252D2*
X675253D1*
X716127D2*
X740127D1*
X756627D2*
X767221D1*
X782127D2*
X788127D1*
X819118D2*
X825321D1*
X836127D2*
X843025D1*
X859711D2*
X865562D1*
X901413D2*
X916881D1*
X939627D2*
X945627D1*
X956127D2*
X962127D1*
X972066D2*
X978066D1*
X992689D2*
X998625D1*
X1007808D2*
X1013107D1*
X1031704D2*
X1037060D1*
X1046127D2*
X1056721D1*
X1071627D2*
X1078525D1*
X1093711D2*
X1101025D1*
X1116211D2*
X1122329D1*
X1152118D2*
X1158321D1*
X1169127D2*
X1176025D1*
X1192711D2*
X1198562D1*
X445152Y67003D2*
X447891D1*
X461702D2*
X465963D1*
X501364D2*
X504103D1*
X554606D2*
X560970D1*
X573633D2*
X579628D1*
X599127D2*
X605122D1*
X627627D2*
X633627D1*
X668502D2*
X674502D1*
X716127D2*
X742314D1*
X756627D2*
X764428D1*
X782127D2*
X788127D1*
X819188D2*
X825499D1*
X836127D2*
X842561D1*
X859955D2*
X865861D1*
X903660D2*
X920904D1*
X939627D2*
X945627D1*
X956127D2*
X962127D1*
X972593D2*
X978587D1*
X992167D2*
X998135D1*
X1007383D2*
X1012372D1*
X1032211D2*
X1037605D1*
X1046127D2*
X1053928D1*
X1071627D2*
X1078061D1*
X1093955D2*
X1100561D1*
X1116455D2*
X1122502D1*
X1152188D2*
X1158499D1*
X1169127D2*
X1175561D1*
X1192955D2*
X1198861D1*
X444878Y65503D2*
X447740D1*
X461397D2*
X465766D1*
X501515D2*
X504376D1*
X553570D2*
X559880D1*
X573629D2*
X579628D1*
X599127D2*
X605125D1*
X627627D2*
X633627D1*
X667753D2*
X673753D1*
X716127D2*
X744192D1*
X756627D2*
X763332D1*
X782127D2*
X788127D1*
X815853D2*
X825577D1*
X836127D2*
X842311D1*
X860061D2*
X866014D1*
X906821D2*
X924224D1*
X939627D2*
X945627D1*
X956127D2*
X962127D1*
X973173D2*
X979120D1*
X991635D2*
X997572D1*
X1007008D2*
X1011961D1*
X1032456D2*
X1038070D1*
X1046127D2*
X1052832D1*
X1071627D2*
X1077811D1*
X1094061D2*
X1100311D1*
X1116561D2*
X1122578D1*
X1148853D2*
X1158577D1*
X1169127D2*
X1175311D1*
X1193061D2*
X1199014D1*
X444735Y64003D2*
X447672D1*
X461242D2*
X465681D1*
X501583D2*
X504519D1*
X552370D2*
X558749D1*
X573628D2*
X579627D1*
X599127D2*
X605127D1*
X627627D2*
X633627D1*
X667002D2*
X673002D1*
X716127D2*
X722127D1*
X738621D2*
X745713D1*
X756627D2*
X762953D1*
X782127D2*
X788127D1*
X811517D2*
X825609D1*
X836127D2*
X842199D1*
X860103D2*
X866083D1*
X910800D2*
X926712D1*
X939627D2*
X945627D1*
X956127D2*
X962127D1*
X973823D2*
X979631D1*
X991123D2*
X996928D1*
X1006569D2*
X1011755D1*
X1032565D2*
X1038364D1*
X1046127D2*
X1052453D1*
X1071627D2*
X1077699D1*
X1094103D2*
X1100199D1*
X1116603D2*
X1122609D1*
X1144517D2*
X1158609D1*
X1169127D2*
X1175199D1*
X1193103D2*
X1199083D1*
X444676Y62503D2*
X447644D1*
X461178D2*
X465647D1*
X501611D2*
X504579D1*
X551074D2*
X557686D1*
X573628D2*
X579627D1*
X599127D2*
X605127D1*
X627627D2*
X633627D1*
X666253D2*
X672253D1*
X716127D2*
X722127D1*
X740063D2*
X746892D1*
X756627D2*
X762760D1*
X782127D2*
X788127D1*
X807136D2*
X825621D1*
X836127D2*
X842154D1*
X860119D2*
X866111D1*
X914998D2*
X928518D1*
X939627D2*
X945627D1*
X956127D2*
X962127D1*
X974480D2*
X980114D1*
X990640D2*
X996274D1*
X1006152D2*
X1038515D1*
X1046127D2*
X1052260D1*
X1071627D2*
X1077654D1*
X1094119D2*
X1100154D1*
X1116619D2*
X1122621D1*
X1140136D2*
X1158621D1*
X1169127D2*
X1175154D1*
X1193119D2*
X1199111D1*
X444702Y61003D2*
X447639D1*
X461203D2*
X465640D1*
X501616D2*
X504553D1*
X549833D2*
X556602D1*
X573633D2*
X579627D1*
X599127D2*
X605121D1*
X627627D2*
X633627D1*
X665502D2*
X671502D1*
X716127D2*
X722127D1*
X741313D2*
X747797D1*
X756627D2*
X762677D1*
X782127D2*
X788127D1*
X803620D2*
X825625D1*
X836127D2*
X842137D1*
X860124D2*
X866121D1*
X918736D2*
X929818D1*
X939627D2*
X945627D1*
X956127D2*
X962127D1*
X975067D2*
X980630D1*
X990124D2*
X995687D1*
X1005879D2*
X1038583D1*
X1046127D2*
X1052177D1*
X1071627D2*
X1077637D1*
X1094124D2*
X1100137D1*
X1116624D2*
X1122625D1*
X1136620D2*
X1158625D1*
X1169127D2*
X1175137D1*
X1193124D2*
X1199121D1*
X444883Y59503D2*
X447688D1*
X461383D2*
X465688D1*
X501567D2*
X504372D1*
X548720D2*
X555376D1*
X573686D2*
X579627D1*
X599127D2*
X605069D1*
X627627D2*
X633627D1*
X664753D2*
X670753D1*
X716127D2*
X722127D1*
X742204D2*
X748441D1*
X756627D2*
X762645D1*
X782127D2*
X788127D1*
X801063D2*
X825627D1*
X836127D2*
X842130D1*
X860126D2*
X866125D1*
X921652D2*
X930770D1*
X939627D2*
X945627D1*
X956127D2*
X962127D1*
X975588D2*
X981135D1*
X989619D2*
X995161D1*
X1005735D2*
X1038612D1*
X1046127D2*
X1052145D1*
X1071627D2*
X1077630D1*
X1094126D2*
X1100130D1*
X1116626D2*
X1122627D1*
X1134063D2*
X1158627D1*
X1169127D2*
X1175130D1*
X1193126D2*
X1199125D1*
X445238Y58003D2*
X447878D1*
X461744D2*
X465884D1*
X501377D2*
X504016D1*
X547615D2*
X554019D1*
X573877D2*
X579633D1*
X599121D2*
X604878D1*
X627627D2*
X633627D1*
X664002D2*
X670002D1*
X716127D2*
X722127D1*
X742710D2*
X748813D1*
X756627D2*
X762633D1*
X782127D2*
X788127D1*
X799238D2*
X809723D1*
X819627D2*
X825627D1*
X836127D2*
X842128D1*
X860127D2*
X866127D1*
X923971D2*
X931431D1*
X939627D2*
X945627D1*
X956127D2*
X962127D1*
X976120D2*
X981622D1*
X989139D2*
X994582D1*
X1005676D2*
X1038627D1*
X1046127D2*
X1052133D1*
X1071627D2*
X1077628D1*
X1094127D2*
X1100128D1*
X1116627D2*
X1122627D1*
X1132238D2*
X1142723D1*
X1152627D2*
X1158627D1*
X1169127D2*
X1175128D1*
X1193127D2*
X1199127D1*
X445627Y56503D2*
X448242D1*
X462186D2*
X466301D1*
X501012D2*
X503627D1*
X546380D2*
X552584D1*
X574236D2*
X579686D1*
X599069D2*
X604518D1*
X627627D2*
X633627D1*
X663253D2*
X669253D1*
X716127D2*
X722127D1*
X742955D2*
X748991D1*
X756627D2*
X762629D1*
X782127D2*
X788127D1*
X797936D2*
X806527D1*
X819627D2*
X825627D1*
X836127D2*
X842128D1*
X860127D2*
X866127D1*
X925023D2*
X931810D1*
X939627D2*
X945627D1*
X956127D2*
X962127D1*
X976632D2*
X982195D1*
X988624D2*
X993932D1*
X1005702D2*
X1011633D1*
X1046127D2*
X1052129D1*
X1071627D2*
X1077628D1*
X1094127D2*
X1100128D1*
X1116627D2*
X1122627D1*
X1130936D2*
X1139527D1*
X1152627D2*
X1158627D1*
X1169127D2*
X1175128D1*
X1193127D2*
X1199127D1*
X445941Y55003D2*
X448680D1*
X462691D2*
X466970D1*
X500575D2*
X503313D1*
X545021D2*
X551111D1*
X574627D2*
X579877D1*
X598878D2*
X604128D1*
X627627D2*
X633627D1*
X662502D2*
X668502D1*
X716127D2*
X722127D1*
X743055D2*
X749018D1*
X756627D2*
X762628D1*
X782127D2*
X788127D1*
X796984D2*
X803960D1*
X819627D2*
X825627D1*
X836127D2*
X842127D1*
X860127D2*
X866127D1*
X925633D2*
X931990D1*
X939627D2*
X945627D1*
X956127D2*
X962127D1*
X977120D2*
X982954D1*
X988115D2*
X993275D1*
X1005883D2*
X1011686D1*
X1046127D2*
X1052128D1*
X1071627D2*
X1077627D1*
X1094127D2*
X1100127D1*
X1116627D2*
X1122627D1*
X1129984D2*
X1136960D1*
X1152627D2*
X1158627D1*
X1169127D2*
X1175127D1*
X1193127D2*
X1199127D1*
X446277Y53503D2*
X449138D1*
X463392D2*
X467852D1*
X500116D2*
X502977D1*
X543585D2*
X549622D1*
X574941D2*
X580242D1*
X598512D2*
X603813D1*
X627627D2*
X633627D1*
X661753D2*
X667753D1*
X716127D2*
X722127D1*
X743039D2*
X748853D1*
X756627D2*
X762628D1*
X782127D2*
X788127D1*
X796323D2*
X802641D1*
X819621D2*
X825627D1*
X836127D2*
X842127D1*
X860127D2*
X866127D1*
X925919D2*
X932017D1*
X939627D2*
X945627D1*
X956127D2*
X962127D1*
X977683D2*
X984080D1*
X987593D2*
X992687D1*
X1006244D2*
X1011883D1*
X1046127D2*
X1052128D1*
X1071627D2*
X1077627D1*
X1094127D2*
X1100127D1*
X1116627D2*
X1122627D1*
X1129323D2*
X1135641D1*
X1152621D2*
X1158627D1*
X1169127D2*
X1175127D1*
X1193127D2*
X1199127D1*
X446753Y52003D2*
X449695D1*
X464317D2*
X470623D1*
X483627D2*
X485127D1*
X499560D2*
X502502D1*
X542111D2*
X548125D1*
X575271D2*
X580679D1*
X598075D2*
X603483D1*
X627627D2*
X633627D1*
X661002D2*
X667008D1*
X716127D2*
X722127D1*
X742799D2*
X748453D1*
X756627D2*
X762627D1*
X782127D2*
X788127D1*
X795950D2*
X802119D1*
X819563D2*
X825627D1*
X836127D2*
X842127D1*
X860127D2*
X866127D1*
X925986D2*
X931853D1*
X939627D2*
X945627D1*
X956127D2*
X962127D1*
X978326D2*
X985709D1*
X986922D2*
X992167D1*
X1006680D2*
X1012301D1*
X1046127D2*
X1052127D1*
X1071627D2*
X1077627D1*
X1094127D2*
X1100127D1*
X1116627D2*
X1122627D1*
X1128950D2*
X1135119D1*
X1152563D2*
X1158627D1*
X1169127D2*
X1175127D1*
X1193127D2*
X1199127D1*
X447361Y50503D2*
X450393D1*
X465488D2*
X475072D1*
X476409D2*
X484881D1*
X498862D2*
X501894D1*
X540628D2*
X546627D1*
X575700D2*
X581144D1*
X597611D2*
X603054D1*
X627627D2*
X633627D1*
X660253D2*
X666306D1*
X716127D2*
X722127D1*
X742320D2*
X747876D1*
X756627D2*
X762627D1*
X782127D2*
X788127D1*
X795818D2*
X801896D1*
X819307D2*
X825627D1*
X836127D2*
X842127D1*
X860127D2*
X866127D1*
X925907D2*
X931453D1*
X939627D2*
X945627D1*
X956127D2*
X962127D1*
X978981D2*
X991635D1*
X1007138D2*
X1012941D1*
X1046127D2*
X1052127D1*
X1071627D2*
X1077627D1*
X1094127D2*
X1100127D1*
X1116627D2*
X1122627D1*
X1128818D2*
X1134896D1*
X1152307D2*
X1158627D1*
X1169127D2*
X1175127D1*
X1193127D2*
X1199127D1*
X448050Y49003D2*
X451290D1*
X467108D2*
X483950D1*
X497965D2*
X501204D1*
X539190D2*
X545127D1*
X576170D2*
X581783D1*
X596972D2*
X602585D1*
X627627D2*
X633627D1*
X659502D2*
X665699D1*
X716127D2*
X722127D1*
X740897D2*
X747198D1*
X756627D2*
X762627D1*
X782127D2*
X788127D1*
X795934D2*
X801881D1*
X818822D2*
X825627D1*
X836127D2*
X842127D1*
X860127D2*
X866127D1*
X897627D2*
X899127D1*
X925317D2*
X930876D1*
X939627D2*
X945627D1*
X956127D2*
X962127D1*
X979568D2*
X991123D1*
X1007695D2*
X1013917D1*
X1046127D2*
X1052127D1*
X1071627D2*
X1077627D1*
X1094127D2*
X1100127D1*
X1116627D2*
X1122627D1*
X1128934D2*
X1134881D1*
X1151822D2*
X1158627D1*
X1169127D2*
X1175127D1*
X1193127D2*
X1199127D1*
X448827Y47503D2*
X452433D1*
X469243D2*
X481718D1*
X496822D2*
X500427D1*
X537941D2*
X543627D1*
X576685D2*
X582636D1*
X596118D2*
X602069D1*
X627627D2*
X633627D1*
X658753D2*
X665165D1*
X716127D2*
X722127D1*
X736527D2*
X746419D1*
X756627D2*
X762627D1*
X782127D2*
X788127D1*
X796314D2*
X802543D1*
X817491D2*
X825627D1*
X836127D2*
X842127D1*
X860127D2*
X866127D1*
X897633D2*
X901927D1*
X923919D2*
X930198D1*
X939627D2*
X945627D1*
X956127D2*
X962127D1*
X980094D2*
X990634D1*
X1008393D2*
X1015258D1*
X1046127D2*
X1052127D1*
X1071627D2*
X1077627D1*
X1094127D2*
X1100127D1*
X1116627D2*
X1122627D1*
X1129314D2*
X1135543D1*
X1150491D2*
X1158627D1*
X1169127D2*
X1175127D1*
X1193127D2*
X1199127D1*
X449763Y46003D2*
X453755D1*
X471627D2*
X479127D1*
X495499D2*
X499492D1*
X537050D2*
X542127D1*
X577390D2*
X585302D1*
X593453D2*
X601364D1*
X627627D2*
X633627D1*
X658002D2*
X664583D1*
X716127D2*
X722127D1*
X729456D2*
X745421D1*
X756627D2*
X762627D1*
X782127D2*
X788127D1*
X796883D2*
X804939D1*
X814166D2*
X825627D1*
X836127D2*
X842127D1*
X860127D2*
X866127D1*
X897703D2*
X906358D1*
X919811D2*
X929419D1*
X939627D2*
X945627D1*
X956127D2*
X962127D1*
X980673D2*
X990072D1*
X1009296D2*
X1019408D1*
X1035627D2*
X1038627D1*
X1046127D2*
X1052127D1*
X1071627D2*
X1077627D1*
X1094127D2*
X1100127D1*
X1116627D2*
X1122627D1*
X1129883D2*
X1137939D1*
X1147166D2*
X1158627D1*
X1169127D2*
X1175127D1*
X1193127D2*
X1199127D1*
X450922Y44503D2*
X455183D1*
X494072D2*
X498332D1*
X536544D2*
X566127D1*
X578316D2*
X589489D1*
X589266D2*
X600438D1*
X618627D2*
X642627D1*
X657248D2*
X663931D1*
X716127D2*
X743955D1*
X756627D2*
X762627D1*
X782127D2*
X788127D1*
X797570D2*
X808805D1*
X809176D2*
X825627D1*
X836127D2*
X842127D1*
X860127D2*
X866127D1*
X897879D2*
X913233D1*
X913260D2*
X928421D1*
X939627D2*
X945627D1*
X956127D2*
X962127D1*
X981324D2*
X989427D1*
X1010503D2*
X1025981D1*
X1027002D2*
X1038490D1*
X1046127D2*
X1052127D1*
X1071627D2*
X1077627D1*
X1094127D2*
X1100127D1*
X1116627D2*
X1122627D1*
X1130570D2*
X1141805D1*
X1142176D2*
X1158627D1*
X1169127D2*
X1175127D1*
X1193127D2*
X1199127D1*
X452252Y43003D2*
X456716D1*
X492539D2*
X497003D1*
X536299D2*
X566127D1*
X579488D2*
X599267D1*
X618627D2*
X642627D1*
X656458D2*
X663266D1*
X716127D2*
X741791D1*
X756627D2*
X762627D1*
X782127D2*
X788127D1*
X798456D2*
X825627D1*
X836127D2*
X842127D1*
X860127D2*
X866127D1*
X898820D2*
X926955D1*
X939627D2*
X945627D1*
X956127D2*
X962127D1*
X981989D2*
X988765D1*
X1012132D2*
X1038170D1*
X1046127D2*
X1052127D1*
X1071627D2*
X1077627D1*
X1094127D2*
X1100127D1*
X1116627D2*
X1122627D1*
X1131456D2*
X1158627D1*
X1169127D2*
X1175127D1*
X1193127D2*
X1199127D1*
X453682Y41503D2*
X458565D1*
X490689D2*
X495573D1*
X536189D2*
X566127D1*
X581108D2*
X597647D1*
X618627D2*
X642627D1*
X655583D2*
X662661D1*
X716127D2*
X738898D1*
X756627D2*
X762627D1*
X782127D2*
X788127D1*
X799582D2*
X816627D1*
X819627D2*
X825627D1*
X836127D2*
X842127D1*
X860127D2*
X866127D1*
X901288D2*
X924791D1*
X939627D2*
X945627D1*
X956127D2*
X962127D1*
X982594D2*
X988160D1*
X1014389D2*
X1036667D1*
X1046127D2*
X1052127D1*
X1071627D2*
X1077627D1*
X1094127D2*
X1100127D1*
X1116627D2*
X1122627D1*
X1132582D2*
X1149627D1*
X1152627D2*
X1158627D1*
X1169127D2*
X1175127D1*
X1193127D2*
X1199127D1*
X455210Y40003D2*
X461433D1*
X487821D2*
X494045D1*
X536127D2*
X566127D1*
X583243D2*
X595511D1*
X618627D2*
X642627D1*
X654627D2*
X662127D1*
X716127D2*
X735627D1*
X756627D2*
X762627D1*
X782127D2*
X788127D1*
X801941D2*
X813627D1*
X819627D2*
X825627D1*
X836127D2*
X842127D1*
X860127D2*
X866127D1*
X904517D2*
X921898D1*
X939627D2*
X945627D1*
X956127D2*
X962127D1*
X983127D2*
X987627D1*
X1017329D2*
X1033375D1*
X1046127D2*
X1052127D1*
X1071627D2*
X1077627D1*
X1094127D2*
X1100127D1*
X1116627D2*
X1122627D1*
X1134941D2*
X1146627D1*
X1152627D2*
X1158627D1*
X1169127D2*
X1175127D1*
X1193127D2*
X1199127D1*
X456960Y38503D2*
X466614D1*
X482641D2*
X492295D1*
X585627D2*
X593127D1*
X804627D2*
X810627D1*
X908127D2*
X918627D1*
X1020627D2*
X1029627D1*
X1137627D2*
X1143627D1*
X459179Y37003D2*
X474931D1*
X474323D2*
X490076D1*
X462133Y35503D2*
X487122D1*
X465901Y34003D2*
X483353D1*
X470127Y32503D2*
X479127D1*
X1169127Y266503D2*
Y265003D1*
Y263503D1*
Y262003D1*
Y260503D1*
Y259003D1*
Y257503D1*
Y256003D1*
Y254503D1*
Y253003D1*
Y251503D1*
Y250003D1*
Y248503D1*
Y247003D1*
Y245503D1*
Y244003D1*
Y242503D1*
Y241003D1*
Y239503D1*
Y238003D1*
Y236503D1*
Y235003D1*
Y233503D1*
Y232003D1*
Y230503D1*
Y229003D1*
Y227503D1*
Y226003D1*
Y224503D1*
Y223003D1*
Y221503D1*
Y220003D1*
Y218503D1*
Y217003D1*
Y215503D1*
Y214003D1*
X1175127Y266503D2*
Y265003D1*
Y263503D1*
Y262003D1*
Y260503D1*
Y259003D1*
Y257503D1*
Y256003D1*
X1175139Y254503D1*
X1175253Y253003D1*
X1175526Y251503D1*
X1176695Y250003D1*
X1178127Y248503D1*
X924627Y265003D2*
X925890Y263503D1*
X926965Y262003D1*
X927885Y260503D1*
X928758Y259003D1*
X929681Y257503D1*
X930659Y256003D1*
X931581Y254503D1*
X932432Y253003D1*
X933275Y251503D1*
X934187Y250003D1*
X935161Y248503D1*
X936082Y247003D1*
X936932Y245503D1*
X937775Y244003D1*
X938687Y242503D1*
X939661Y241003D1*
X940576Y239503D1*
X941367Y238003D1*
X941967Y236503D1*
X942322Y235003D1*
X942499Y233503D1*
X942577Y232003D1*
X942609Y230503D1*
X942621Y229003D1*
X942625Y227503D1*
X942627Y226003D1*
Y224503D1*
Y223003D1*
Y221503D1*
Y220003D1*
Y218503D1*
Y217003D1*
Y215503D1*
Y214003D1*
X932127Y265003D2*
X933057Y263503D1*
X933919Y262003D1*
X934769Y260503D1*
X935685Y259003D1*
X936660Y257503D1*
X937582Y256003D1*
X938432Y254503D1*
X939275Y253003D1*
X940187Y251503D1*
X941172Y250003D1*
X942203Y248503D1*
X943472Y247003D1*
X945170Y245503D1*
X947127Y244003D1*
X959127Y265003D2*
X958197Y263503D1*
X957336Y262003D1*
X956486Y260503D1*
X955570Y259003D1*
X954595Y257503D1*
X953673Y256003D1*
X952823Y254503D1*
X951980Y253003D1*
X951068Y251503D1*
X950082Y250003D1*
X949051Y248503D1*
X947782Y247003D1*
X946085Y245503D1*
X944127Y244003D1*
X966627Y265003D2*
X965359Y263503D1*
X964237Y262003D1*
X963178Y260503D1*
X962138Y259003D1*
X961189Y257503D1*
X960329Y256003D1*
X959482Y254503D1*
X958568Y253003D1*
X957594Y251503D1*
X956673Y250003D1*
X955823Y248503D1*
X954980Y247003D1*
X954068Y245503D1*
X953088Y244003D1*
X952120Y242503D1*
X951137Y241003D1*
X950179Y239503D1*
X949439Y238003D1*
X949000Y236503D1*
X948783Y235003D1*
X948688Y233503D1*
X948650Y232003D1*
X948635Y230503D1*
X948630Y229003D1*
X948628Y227503D1*
Y226003D1*
X948627Y224503D1*
Y223003D1*
Y221503D1*
Y220003D1*
Y218503D1*
Y217003D1*
Y215503D1*
Y214003D1*
X1007127Y265003D2*
X1007826Y263503D1*
X1008309Y262003D1*
X1008718Y260503D1*
X1009174Y259003D1*
X1009604Y257503D1*
X1009933Y256003D1*
X1010269Y254503D1*
X1010693Y253003D1*
X1011111Y251503D1*
X1011435Y250003D1*
X1011769Y248503D1*
X1012194Y247003D1*
X1012605Y245503D1*
X1012883Y244003D1*
X1013078Y242503D1*
X1013334Y241003D1*
X1013720Y239503D1*
X1014121Y238003D1*
X1014439Y236503D1*
X1014771Y235003D1*
X1015194Y233503D1*
X1015611Y232003D1*
X1015935Y230503D1*
X1016269Y229003D1*
X1016694Y227503D1*
X1017111Y226003D1*
X1017435Y224503D1*
X1017769Y223003D1*
X1018194Y221503D1*
X1018611Y220003D1*
X1018940Y218503D1*
X1019315Y217003D1*
X1019895Y215503D1*
X1020627Y214003D1*
X1013127Y265003D2*
X1013640Y263503D1*
X1014092Y262003D1*
X1014429Y260503D1*
X1014768Y259003D1*
X1015193Y257503D1*
X1015605Y256003D1*
X1015883Y254503D1*
X1016078Y253003D1*
X1016334Y251503D1*
X1016720Y250003D1*
X1017121Y248503D1*
X1017439Y247003D1*
X1017771Y245503D1*
X1018194Y244003D1*
X1018611Y242503D1*
X1018935Y241003D1*
X1019269Y239503D1*
X1019694Y238003D1*
X1020111Y236503D1*
X1020435Y235003D1*
X1020769Y233503D1*
X1021194Y232003D1*
X1021611Y230503D1*
X1021940Y229003D1*
X1022315Y227503D1*
X1022895Y226003D1*
X1023627Y224503D1*
X1034127Y265003D2*
X1034070Y263503D1*
X1033878Y262003D1*
X1033518Y260503D1*
X1033128Y259003D1*
X1032813Y257503D1*
X1032483Y256003D1*
X1032060Y254503D1*
X1031649Y253003D1*
X1031372Y251503D1*
X1031176Y250003D1*
X1030920Y248503D1*
X1030534Y247003D1*
X1030134Y245503D1*
X1029815Y244003D1*
X1029484Y242503D1*
X1029061Y241003D1*
X1028644Y239503D1*
X1028319Y238003D1*
X1027985Y236503D1*
X1027561Y235003D1*
X1027144Y233503D1*
X1026819Y232003D1*
X1026479Y230503D1*
X1025998Y229003D1*
X1025351Y227503D1*
X1024543Y226003D1*
X1023627Y224503D1*
X1040127Y265003D2*
X1040359Y263503D1*
X1040731Y262003D1*
X1041119Y260503D1*
X1041388Y259003D1*
X1041580Y257503D1*
X1041835Y256003D1*
X1042221Y254503D1*
X1042621Y253003D1*
X1042939Y251503D1*
X1043271Y250003D1*
X1043694Y248503D1*
X1044111Y247003D1*
X1044435Y245503D1*
X1044769Y244003D1*
X1045194Y242503D1*
X1045611Y241003D1*
X1045935Y239503D1*
X1046269Y238003D1*
X1046694Y236503D1*
X1047105Y235003D1*
X1047383Y233503D1*
X1047578Y232003D1*
X1047840Y230503D1*
X1048284Y229003D1*
X1048914Y227503D1*
X1049715Y226003D1*
X1050627Y224503D1*
X1061127Y265003D2*
X1060615Y263503D1*
X1060168Y262003D1*
X1059878Y260503D1*
X1059678Y259003D1*
X1059421Y257503D1*
X1059034Y256003D1*
X1058634Y254503D1*
X1058315Y253003D1*
X1057984Y251503D1*
X1057561Y250003D1*
X1057144Y248503D1*
X1056819Y247003D1*
X1056485Y245503D1*
X1056061Y244003D1*
X1055650Y242503D1*
X1055372Y241003D1*
X1055176Y239503D1*
X1054920Y238003D1*
X1054534Y236503D1*
X1054134Y235003D1*
X1053815Y233503D1*
X1053484Y232003D1*
X1053055Y230503D1*
X1052586Y229003D1*
X1052082Y227503D1*
X1051418Y226003D1*
X1050627Y224503D1*
X1067127Y265003D2*
X1066435Y263503D1*
X1065998Y262003D1*
X1065727Y260503D1*
X1065440Y259003D1*
X1065041Y257503D1*
X1064636Y256003D1*
X1064316Y254503D1*
X1063984Y253003D1*
X1063561Y251503D1*
X1063144Y250003D1*
X1062819Y248503D1*
X1062485Y247003D1*
X1062061Y245503D1*
X1061644Y244003D1*
X1061319Y242503D1*
X1060985Y241003D1*
X1060561Y239503D1*
X1060144Y238003D1*
X1059819Y236503D1*
X1059485Y235003D1*
X1059061Y233503D1*
X1058644Y232003D1*
X1058319Y230503D1*
X1057985Y229003D1*
X1057561Y227503D1*
X1057144Y226003D1*
X1056819Y224503D1*
X1056485Y223003D1*
X1056061Y221503D1*
X1055644Y220003D1*
X1055315Y218503D1*
X1054940Y217003D1*
X1054359Y215503D1*
X1053627Y214003D1*
X1112127Y263503D2*
Y262003D1*
Y260503D1*
Y259003D1*
Y257503D1*
Y256003D1*
Y254503D1*
Y253003D1*
Y251503D1*
X1107627D1*
Y250003D1*
Y248503D1*
Y247003D1*
Y245503D1*
X1112127D1*
Y244003D1*
Y242503D1*
Y241003D1*
Y239503D1*
Y238003D1*
Y236503D1*
Y235003D1*
Y233503D1*
Y232003D1*
Y230503D1*
Y229003D1*
Y227503D1*
Y226003D1*
X1112133Y224503D1*
X1112186Y223003D1*
X1112383Y221503D1*
X1112801Y220003D1*
X1113441Y218503D1*
X1114369Y217003D1*
X1115732Y215503D1*
X1117555Y214003D1*
X1119627Y212503D1*
X1118127Y263503D2*
Y262003D1*
Y260503D1*
Y259003D1*
Y257503D1*
Y256003D1*
Y254503D1*
Y253003D1*
Y251503D1*
X1130127D1*
Y250003D1*
Y248503D1*
Y247003D1*
Y245503D1*
X1118127D1*
Y244003D1*
Y242503D1*
Y241003D1*
Y239503D1*
Y238003D1*
Y236503D1*
Y235003D1*
Y233503D1*
Y232003D1*
Y230503D1*
Y229003D1*
Y227503D1*
X1118133Y226003D1*
X1118192Y224503D1*
X1118332Y223003D1*
X1119027Y221503D1*
X1121151Y220003D1*
X1124012Y218503D1*
X1126759Y217003D1*
X1128682Y215503D1*
X1130127Y214003D1*
X1127127Y212503D1*
X1035627Y256003D2*
X1035570Y254503D1*
X1035378Y253003D1*
X1035018Y251503D1*
X1034628Y250003D1*
X1034313Y248503D1*
X1033983Y247003D1*
X1033560Y245503D1*
X1033149Y244003D1*
X1032872Y242503D1*
X1032676Y241003D1*
X1032420Y239503D1*
X1032034Y238003D1*
X1031639Y236503D1*
X1031368Y235003D1*
X1031175Y233503D1*
X1030920Y232003D1*
X1030534Y230503D1*
X1030133Y229003D1*
X1029815Y227503D1*
X1029484Y226003D1*
X1029061Y224503D1*
X1028650Y223003D1*
X1028372Y221503D1*
X1028176Y220003D1*
X1027919Y218503D1*
X1027520Y217003D1*
X1027064Y215503D1*
X1026627Y214003D1*
X1038627Y256003D2*
X1038684Y254503D1*
X1038877Y253003D1*
X1039236Y251503D1*
X1039621Y250003D1*
X1039888Y248503D1*
X1040080Y247003D1*
X1040335Y245503D1*
X1040721Y244003D1*
X1041115Y242503D1*
X1041386Y241003D1*
X1041580Y239503D1*
X1041835Y238003D1*
X1042220Y236503D1*
X1042621Y235003D1*
X1042939Y233503D1*
X1043271Y232003D1*
X1043694Y230503D1*
X1044105Y229003D1*
X1044383Y227503D1*
X1044578Y226003D1*
X1044834Y224503D1*
X1045220Y223003D1*
X1045615Y221503D1*
X1045886Y220003D1*
X1046084Y218503D1*
X1046380Y217003D1*
X1046920Y215503D1*
X1047627Y214003D1*
X981627Y253003D2*
X978742Y251503D1*
X976387Y250003D1*
X974503Y248503D1*
X973007Y247003D1*
X971847Y245503D1*
X970945Y244003D1*
X970253Y242503D1*
X969691Y241003D1*
X969149Y239503D1*
X968684Y238003D1*
X968391Y236503D1*
X968240Y235003D1*
X968172Y233503D1*
X968150Y232003D1*
X968192Y230503D1*
X968379Y229003D1*
X968743Y227503D1*
X969180Y226003D1*
X969638Y224503D1*
X970195Y223003D1*
X970893Y221503D1*
X971790Y220003D1*
X972945Y218503D1*
X974381Y217003D1*
X976267Y215503D1*
X978760Y214003D1*
X981627Y212503D1*
X989127Y253003D2*
X992012Y251503D1*
X994368Y250003D1*
X996251Y248503D1*
X997747Y247003D1*
X998908Y245503D1*
X999809Y244003D1*
X1000502Y242503D1*
X1001064Y241003D1*
X1001606Y239503D1*
X1002070Y238003D1*
X1002364Y236503D1*
X1002515Y235003D1*
X1002583Y233503D1*
X1002605Y232003D1*
X1002563Y230503D1*
X1002376Y229003D1*
X1002012Y227503D1*
X1001575Y226003D1*
X1001116Y224503D1*
X1000560Y223003D1*
X999862Y221503D1*
X998965Y220003D1*
X997810Y218503D1*
X996373Y217003D1*
X994488Y215503D1*
X991995Y214003D1*
X989127Y212503D1*
X1080627Y253003D2*
X1077857Y251503D1*
X1075805Y250003D1*
X1075130Y248503D1*
X1074627Y247003D1*
X1091127Y253003D2*
X1094287Y251503D1*
X1096671Y250003D1*
X1098306Y248503D1*
X1099465Y247003D1*
X1100336Y245503D1*
X1100959Y244003D1*
X1101321Y242503D1*
X1101499Y241003D1*
X1101577Y239503D1*
X1101609Y238003D1*
X1101621Y236503D1*
X1101625Y235003D1*
X1101627Y233503D1*
Y232003D1*
Y230503D1*
Y229003D1*
Y227503D1*
Y226003D1*
Y224503D1*
Y223003D1*
Y221503D1*
Y220003D1*
Y218503D1*
Y217003D1*
Y215503D1*
Y214003D1*
X1146627Y253003D2*
X1143922Y251503D1*
X1141551Y250003D1*
X1139601Y248503D1*
X1138054Y247003D1*
X1136867Y245503D1*
X1135953Y244003D1*
X1135256Y242503D1*
X1134692Y241003D1*
X1134149Y239503D1*
X1133685Y238003D1*
X1133391Y236503D1*
X1133240Y235003D1*
X1133172Y233503D1*
X1133150Y232003D1*
X1133192Y230503D1*
X1133379Y229003D1*
X1133743Y227503D1*
X1134180Y226003D1*
X1134638Y224503D1*
X1135195Y223003D1*
X1135893Y221503D1*
X1136790Y220003D1*
X1137945Y218503D1*
X1139381Y217003D1*
X1141267Y215503D1*
X1143760Y214003D1*
X1146627Y212503D1*
X1154127Y253003D2*
X1157230Y251503D1*
X1159771Y250003D1*
X1160890Y248503D1*
X1161315Y247003D1*
X1161627Y245503D1*
X1184127Y253003D2*
X1181378Y251503D1*
X1178362Y250003D1*
X1175127Y248503D1*
X1190127Y253003D2*
X1192595Y251503D1*
X1194542Y250003D1*
X1195912Y248503D1*
X1196836Y247003D1*
X1197500Y245503D1*
X1198082Y244003D1*
X1198562Y242503D1*
X1198861Y241003D1*
X1199014Y239503D1*
X1199083Y238003D1*
X1199111Y236503D1*
X1199121Y235003D1*
X1199125Y233503D1*
X1199127Y232003D1*
Y230503D1*
Y229003D1*
Y227503D1*
Y226003D1*
Y224503D1*
Y223003D1*
Y221503D1*
Y220003D1*
Y218503D1*
Y217003D1*
Y215503D1*
Y214003D1*
X981627Y248503D2*
X980133Y247003D1*
X978686Y245503D1*
X977383Y244003D1*
X976301Y242503D1*
X975435Y241003D1*
X974806Y239503D1*
X974438Y238003D1*
X974257Y236503D1*
X974178Y235003D1*
X974146Y233503D1*
X974134Y232003D1*
X974135Y230503D1*
X974187Y229003D1*
X974383Y227503D1*
X974801Y226003D1*
X975435Y224503D1*
X976341Y223003D1*
X977507Y221503D1*
X980448Y220003D1*
X985001Y218503D1*
X990627Y217003D1*
X989127Y248503D2*
X990621Y247003D1*
X992069Y245503D1*
X993372Y244003D1*
X994454Y242503D1*
X995319Y241003D1*
X995949Y239503D1*
X996316Y238003D1*
X996497Y236503D1*
X996577Y235003D1*
X996609Y233503D1*
X996621Y232003D1*
X996619Y230503D1*
X996568Y229003D1*
X996371Y227503D1*
X995954Y226003D1*
X995319Y224503D1*
X994414Y223003D1*
X993248Y221503D1*
X990306Y220003D1*
X985754Y218503D1*
X980127Y217003D1*
X1080627Y248503D2*
X1079127Y247003D1*
X1091127Y248503D2*
X1092564Y247003D1*
X1093813Y245503D1*
X1094845Y244003D1*
X1095118Y242503D1*
X1095188Y241003D1*
X1091853Y239503D1*
X1087517Y238003D1*
X1083136Y236503D1*
X1079620Y235003D1*
X1077063Y233503D1*
X1075238Y232003D1*
X1073936Y230503D1*
X1072984Y229003D1*
X1072323Y227503D1*
X1071950Y226003D1*
X1071818Y224503D1*
X1071934Y223003D1*
X1072314Y221503D1*
X1072883Y220003D1*
X1073570Y218503D1*
X1074456Y217003D1*
X1075582Y215503D1*
X1077941Y214003D1*
X1080627Y212503D1*
X1146627Y248503D2*
X1145133Y247003D1*
X1143686Y245503D1*
X1142383Y244003D1*
X1141301Y242503D1*
X1140435Y241003D1*
X1139806Y239503D1*
X1139438Y238003D1*
X1139257Y236503D1*
X1139178Y235003D1*
X1139146Y233503D1*
X1139134Y232003D1*
X1139135Y230503D1*
X1139187Y229003D1*
X1139383Y227503D1*
X1139801Y226003D1*
X1140435Y224503D1*
X1141347Y223003D1*
X1142530Y221503D1*
X1145733Y220003D1*
X1150806Y218503D1*
X1157127Y217003D1*
X1154127Y248503D2*
X1157127Y247003D1*
X1160127Y245503D1*
X1184127Y248503D2*
X1181428Y247003D1*
X1179109Y245503D1*
X1177357Y244003D1*
X1176025Y242503D1*
X1175561Y241003D1*
X1175311Y239503D1*
X1175199Y238003D1*
X1175154Y236503D1*
X1175137Y235003D1*
X1175130Y233503D1*
X1175128Y232003D1*
Y230503D1*
X1175127Y229003D1*
Y227503D1*
Y226003D1*
Y224503D1*
Y223003D1*
Y221503D1*
Y220003D1*
Y218503D1*
Y217003D1*
Y215503D1*
Y214003D1*
X1188627Y248503D2*
X1190064Y247003D1*
X1191313Y245503D1*
X1192204Y244003D1*
X1192711Y242503D1*
X1192955Y241003D1*
X1193061Y239503D1*
X1193103Y238003D1*
X1193119Y236503D1*
X1193124Y235003D1*
X1193126Y233503D1*
X1193127Y232003D1*
Y230503D1*
Y229003D1*
Y227503D1*
Y226003D1*
Y224503D1*
Y223003D1*
Y221503D1*
Y220003D1*
Y218503D1*
Y217003D1*
Y215503D1*
Y214003D1*
X1089627Y233503D2*
X1085723Y232003D1*
X1082527Y230503D1*
X1079960Y229003D1*
X1078641Y227503D1*
X1078119Y226003D1*
X1077896Y224503D1*
X1077881Y223003D1*
X1078543Y221503D1*
X1080939Y220003D1*
X1084805Y218503D1*
X1089627Y217003D1*
X1095627Y233503D2*
Y232003D1*
Y230503D1*
Y229003D1*
X1095621Y227503D1*
X1095563Y226003D1*
X1095307Y224503D1*
X1094822Y223003D1*
X1093491Y221503D1*
X1090166Y220003D1*
X1085176Y218503D1*
X1079127Y217003D1*
X1160127Y220003D2*
X1152205Y218503D1*
X1143627Y217003D1*
X1161627Y220003D2*
X1161495Y218503D1*
X1161194Y217003D1*
X1159562Y215503D1*
X1157082Y214003D1*
X1154127Y212503D1*
X1095627Y217003D2*
X1092627Y215503D1*
X1089627Y214003D1*
X1086627Y212503D1*
X1095627Y217003D2*
Y215503D1*
Y214003D1*
X1074627Y179503D2*
X1072154Y178003D1*
X1070154Y176503D1*
X1068599Y175003D1*
X1067362Y173503D1*
X1066452Y172003D1*
X1065776Y170503D1*
X1065183Y169003D1*
X1064691Y167503D1*
X1064337Y166003D1*
X1063991Y164503D1*
X1063563Y163003D1*
X1063150Y161503D1*
X1062878Y160003D1*
X1062735Y158503D1*
X1062670Y157003D1*
X1062643Y155503D1*
X1062633Y154003D1*
X1062629Y152503D1*
X1062628Y151003D1*
Y149503D1*
X1062633Y148003D1*
X1062686Y146503D1*
X1062877Y145003D1*
X1063236Y143503D1*
X1063627Y142003D1*
X1063941Y140503D1*
X1064271Y139003D1*
X1064700Y137503D1*
X1065170Y136003D1*
X1065685Y134503D1*
X1066390Y133003D1*
X1067316Y131503D1*
X1068488Y130003D1*
X1070108Y128503D1*
X1072243Y127003D1*
X1074627Y125503D1*
X1082127Y179503D2*
X1084601Y178003D1*
X1086600Y176503D1*
X1088156Y175003D1*
X1089393Y173503D1*
X1090302Y172003D1*
X1090978Y170503D1*
X1091572Y169003D1*
X1092063Y167503D1*
X1092418Y166003D1*
X1092763Y164503D1*
X1093191Y163003D1*
X1093604Y161503D1*
X1093877Y160003D1*
X1094020Y158503D1*
X1094085Y157003D1*
X1094111Y155503D1*
X1094122Y154003D1*
X1094125Y152503D1*
X1094127Y151003D1*
Y149503D1*
X1094121Y148003D1*
X1094069Y146503D1*
X1093878Y145003D1*
X1093518Y143503D1*
X1093128Y142003D1*
X1092813Y140503D1*
X1092483Y139003D1*
X1092054Y137503D1*
X1091585Y136003D1*
X1091069Y134503D1*
X1090364Y133003D1*
X1089438Y131503D1*
X1088267Y130003D1*
X1086647Y128503D1*
X1084511Y127003D1*
X1082127Y125503D1*
X924627Y178003D2*
Y176503D1*
Y175003D1*
Y173503D1*
Y172003D1*
Y170503D1*
Y169003D1*
Y167503D1*
Y166003D1*
Y164503D1*
Y163003D1*
Y161503D1*
Y160003D1*
Y158503D1*
Y157003D1*
Y155503D1*
Y154003D1*
Y152503D1*
Y151003D1*
Y149503D1*
Y148003D1*
Y146503D1*
Y145003D1*
Y143503D1*
Y142003D1*
Y140503D1*
Y139003D1*
Y137503D1*
Y136003D1*
Y134503D1*
Y133003D1*
Y131503D1*
Y130003D1*
Y128503D1*
Y127003D1*
X944127Y178003D2*
X947468Y176503D1*
X950078Y175003D1*
X951886Y173503D1*
X953144Y172003D1*
X954109Y170503D1*
X954893Y169003D1*
X955480Y167503D1*
X955822Y166003D1*
X955943Y164503D1*
X955828Y163003D1*
X955494Y161503D1*
X955063Y160003D1*
X954556Y158503D1*
X953809Y157003D1*
X952746Y155503D1*
X951418Y154003D1*
X949887Y152503D1*
X948375Y151003D1*
X947079Y149503D1*
X946582Y148003D1*
X947559Y146503D1*
X948595Y145003D1*
X949606Y143503D1*
X950667Y142003D1*
X951878Y140503D1*
X953178Y139003D1*
X954421Y137503D1*
X955534Y136003D1*
X956639Y134503D1*
X957868Y133003D1*
X959171Y131503D1*
X960375Y130003D1*
X961335Y128503D1*
X962127Y127003D1*
X1118127Y178003D2*
X1117477Y176503D1*
X1116656Y175003D1*
X1114722Y173503D1*
X1112327Y172003D1*
X1110189Y170503D1*
X1108581Y169003D1*
X1108036Y167503D1*
X1107627Y166003D1*
X1116627D1*
Y164503D1*
Y163003D1*
Y161503D1*
Y160003D1*
Y158503D1*
Y157003D1*
Y155503D1*
Y154003D1*
Y152503D1*
Y151003D1*
Y149503D1*
Y148003D1*
Y146503D1*
Y145003D1*
Y143503D1*
Y142003D1*
Y140503D1*
Y139003D1*
Y137503D1*
Y136003D1*
Y134503D1*
Y133003D1*
Y131503D1*
X1107627D1*
Y130003D1*
Y128503D1*
Y127003D1*
X1122627Y178003D2*
Y176503D1*
Y175003D1*
Y173503D1*
Y172003D1*
Y170503D1*
Y169003D1*
Y167503D1*
Y166003D1*
Y164503D1*
Y163003D1*
Y161503D1*
Y160003D1*
Y158503D1*
Y157003D1*
Y155503D1*
Y154003D1*
Y152503D1*
Y151003D1*
Y149503D1*
Y148003D1*
Y146503D1*
Y145003D1*
Y143503D1*
Y142003D1*
Y140503D1*
Y139003D1*
Y137503D1*
Y136003D1*
Y134503D1*
Y133003D1*
Y131503D1*
X1131627D1*
Y130003D1*
Y128503D1*
Y127003D1*
X1187127Y178003D2*
X1185684Y176503D1*
X1184377Y175003D1*
X1183236Y173503D1*
X1182121Y172003D1*
X1180883Y170503D1*
X1179522Y169003D1*
X1178091Y167503D1*
X1176670Y166003D1*
X1175371Y164503D1*
X1174234Y163003D1*
X1173120Y161503D1*
X1171882Y160003D1*
X1170522Y158503D1*
X1169091Y157003D1*
X1167676Y155503D1*
X1166436Y154003D1*
X1165549Y152503D1*
X1165043Y151003D1*
X1164799Y149503D1*
X1164693Y148003D1*
X1164650Y146503D1*
X1164627Y145003D1*
X1193127Y178003D2*
Y176503D1*
Y175003D1*
Y173503D1*
Y172003D1*
Y170503D1*
Y169003D1*
Y167503D1*
Y166003D1*
Y164503D1*
Y163003D1*
Y161503D1*
Y160003D1*
Y158503D1*
Y157003D1*
Y155503D1*
Y154003D1*
Y152503D1*
Y151003D1*
Y149503D1*
X1199127D1*
Y148003D1*
Y146503D1*
Y145003D1*
Y143503D1*
X1193127D1*
Y142003D1*
Y140503D1*
Y139003D1*
Y137503D1*
Y136003D1*
Y134503D1*
Y133003D1*
Y131503D1*
Y130003D1*
Y128503D1*
Y127003D1*
X1077627Y175003D2*
X1075160Y173503D1*
X1073213Y172003D1*
X1071843Y170503D1*
X1070918Y169003D1*
X1070255Y167503D1*
X1069672Y166003D1*
X1069193Y164503D1*
X1068894Y163003D1*
X1068741Y161503D1*
X1068672Y160003D1*
X1068644Y158503D1*
X1068633Y157003D1*
X1068629Y155503D1*
X1068628Y154003D1*
Y152503D1*
X1068627Y151003D1*
Y149503D1*
Y148003D1*
Y146503D1*
X1068633Y145003D1*
X1068686Y143503D1*
X1068877Y142003D1*
X1069242Y140503D1*
X1069679Y139003D1*
X1070144Y137503D1*
X1070783Y136003D1*
X1071636Y134503D1*
X1074302Y133003D1*
X1078489Y131503D1*
X1083627Y130003D1*
X1079127Y175003D2*
X1081595Y173503D1*
X1083542Y172003D1*
X1084912Y170503D1*
X1085836Y169003D1*
X1086500Y167503D1*
X1087082Y166003D1*
X1087562Y164503D1*
X1087861Y163003D1*
X1088014Y161503D1*
X1088083Y160003D1*
X1088111Y158503D1*
X1088121Y157003D1*
X1088125Y155503D1*
X1088127Y154003D1*
Y152503D1*
Y151003D1*
Y149503D1*
Y148003D1*
Y146503D1*
X1088121Y145003D1*
X1088069Y143503D1*
X1087878Y142003D1*
X1087512Y140503D1*
X1087075Y139003D1*
X1086611Y137503D1*
X1085972Y136003D1*
X1085118Y134503D1*
X1082453Y133003D1*
X1078266Y131503D1*
X1073127Y130003D1*
X930627Y173503D2*
Y172003D1*
Y170503D1*
Y169003D1*
Y167503D1*
Y166003D1*
Y164503D1*
Y163003D1*
Y161503D1*
Y160003D1*
Y158503D1*
Y157003D1*
Y155503D1*
Y154003D1*
X942627Y152503D1*
X944127Y173503D2*
X945621Y172003D1*
X947063Y170503D1*
X948313Y169003D1*
X949204Y167503D1*
X949710Y166003D1*
X949949Y164503D1*
X950002Y163003D1*
X949847Y161503D1*
X949439Y160003D1*
X948705Y158503D1*
X947651Y157003D1*
X943671Y155503D1*
X937203Y154003D1*
X929127Y152503D1*
X1184127Y170503D2*
X1183832Y169003D1*
X1183210Y167503D1*
X1182212Y166003D1*
X1180956Y164503D1*
X1179567Y163003D1*
X1178162Y161503D1*
X1176869Y160003D1*
X1175733Y158503D1*
X1174620Y157003D1*
X1173382Y155503D1*
X1172022Y154003D1*
X1170588Y152503D1*
X1169127Y151003D1*
X1184127Y149503D1*
X1187127Y170503D2*
Y169003D1*
Y167503D1*
Y166003D1*
Y164503D1*
Y163003D1*
Y161503D1*
Y160003D1*
Y158503D1*
Y157003D1*
Y155503D1*
Y154003D1*
Y152503D1*
Y151003D1*
X1170627Y149503D1*
X978627Y166003D2*
X975922Y164503D1*
X973551Y163003D1*
X971601Y161503D1*
X970054Y160003D1*
X968867Y158503D1*
X967959Y157003D1*
X967308Y155503D1*
X966883Y154003D1*
X966508Y152503D1*
X966069Y151003D1*
X965652Y149503D1*
X965379Y148003D1*
X965235Y146503D1*
X965176Y145003D1*
X965202Y143503D1*
X965383Y142003D1*
X965744Y140503D1*
X966180Y139003D1*
X966638Y137503D1*
X967195Y136003D1*
X967893Y134503D1*
X968796Y133003D1*
X970003Y131503D1*
X971632Y130003D1*
X973889Y128503D1*
X976829Y127003D1*
X980127Y125503D1*
X986127Y166003D2*
X989006Y164503D1*
X991315Y163003D1*
X993054Y161503D1*
X994330Y160003D1*
X995279Y158503D1*
X995991Y157003D1*
X996560Y155503D1*
X997105Y154003D1*
X997570Y152503D1*
X997864Y151003D1*
X998015Y149503D1*
X998083Y148003D1*
X998112Y146503D1*
X998127Y145003D1*
X1001127Y164503D2*
X1001877Y163003D1*
X1002506Y161503D1*
X1003136Y160003D1*
X1003809Y158503D1*
X1004474Y157003D1*
X1005066Y155503D1*
X1005593Y154003D1*
X1006173Y152503D1*
X1006823Y151003D1*
X1007480Y149503D1*
X1008067Y148003D1*
X1008588Y146503D1*
X1009120Y145003D1*
X1009632Y143503D1*
X1010120Y142003D1*
X1010683Y140503D1*
X1011326Y139003D1*
X1011981Y137503D1*
X1012568Y136003D1*
X1013094Y134503D1*
X1013673Y133003D1*
X1014324Y131503D1*
X1014989Y130003D1*
X1015594Y128503D1*
X1016127Y127003D1*
X1007127Y164503D2*
X1007877Y163003D1*
X1008506Y161503D1*
X1009136Y160003D1*
X1009809Y158503D1*
X1010474Y157003D1*
X1011066Y155503D1*
X1011587Y154003D1*
X1012120Y152503D1*
X1012631Y151003D1*
X1013114Y149503D1*
X1013630Y148003D1*
X1014135Y146503D1*
X1014622Y145003D1*
X1015195Y143503D1*
X1015954Y142003D1*
X1017080Y140503D1*
X1018709Y139003D1*
X1020627Y137503D1*
X1029627Y164503D2*
X1028878Y163003D1*
X1028249Y161503D1*
X1027619Y160003D1*
X1026946Y158503D1*
X1026280Y157003D1*
X1025689Y155503D1*
X1025167Y154003D1*
X1024635Y152503D1*
X1024123Y151003D1*
X1023640Y149503D1*
X1023124Y148003D1*
X1022619Y146503D1*
X1022139Y145003D1*
X1021624Y143503D1*
X1021115Y142003D1*
X1020593Y140503D1*
X1019922Y139003D1*
X1019127Y137503D1*
X1035627Y164503D2*
X1034703Y163003D1*
X1033895Y161503D1*
X1033235Y160003D1*
X1032685Y158503D1*
X1032141Y157003D1*
X1031625Y155503D1*
X1031135Y154003D1*
X1030572Y152503D1*
X1029928Y151003D1*
X1029274Y149503D1*
X1028687Y148003D1*
X1028161Y146503D1*
X1027582Y145003D1*
X1026932Y143503D1*
X1026275Y142003D1*
X1025687Y140503D1*
X1025167Y139003D1*
X1024635Y137503D1*
X1024123Y136003D1*
X1023634Y134503D1*
X1023072Y133003D1*
X1022427Y131503D1*
X1021765Y130003D1*
X1021160Y128503D1*
X1020627Y127003D1*
X980127Y161503D2*
X977479Y160003D1*
X975300Y158503D1*
X973716Y157003D1*
X972607Y155503D1*
X971872Y154003D1*
X971461Y152503D1*
X971255Y151003D1*
X971127Y149503D1*
X986127Y161503D2*
X987621Y160003D1*
X989063Y158503D1*
X990313Y157003D1*
X991204Y155503D1*
X991711Y154003D1*
X991956Y152503D1*
X992065Y151003D1*
X992127Y149503D1*
X1140627Y151003D2*
Y149503D1*
Y148003D1*
Y146503D1*
X1158627Y151003D2*
Y149503D1*
Y148003D1*
Y146503D1*
X930627Y148003D2*
Y146503D1*
Y145003D1*
Y143503D1*
Y142003D1*
Y140503D1*
Y139003D1*
Y137503D1*
Y136003D1*
Y134503D1*
Y133003D1*
Y131503D1*
Y130003D1*
Y128503D1*
Y127003D1*
X938127Y148003D2*
X939570Y146503D1*
X940878Y145003D1*
X942018Y143503D1*
X943134Y142003D1*
X944366Y140503D1*
X945674Y139003D1*
X946920Y137503D1*
X948034Y136003D1*
X949139Y134503D1*
X950368Y133003D1*
X951671Y131503D1*
X952875Y130003D1*
X953835Y128503D1*
X954627Y127003D1*
X971127Y145003D2*
X971133Y143503D1*
X971186Y142003D1*
X971383Y140503D1*
X971801Y139003D1*
X972441Y137503D1*
X973417Y136003D1*
X974758Y134503D1*
X978908Y133003D1*
X985481Y131503D1*
X993627Y130003D1*
X1187127Y145003D2*
Y143503D1*
Y142003D1*
Y140503D1*
Y139003D1*
Y137503D1*
Y136003D1*
Y134503D1*
Y133003D1*
Y131503D1*
Y130003D1*
Y128503D1*
Y127003D1*
X995127Y133003D2*
X986502Y131503D1*
X977127Y130003D1*
X998127Y133003D2*
X997990Y131503D1*
X997670Y130003D1*
X996167Y128503D1*
X992875Y127003D1*
X989127Y125503D1*
X470127Y92503D2*
X465805Y91003D1*
X462195Y89503D1*
X459368Y88003D1*
X457168Y86503D1*
X455345Y85003D1*
X453716Y83503D1*
X452216Y82003D1*
X450893Y80503D1*
X449798Y79003D1*
X448878Y77503D1*
X448056Y76003D1*
X447330Y74503D1*
X446758Y73003D1*
X446364Y71503D1*
X446002Y70003D1*
X445567Y68503D1*
X445152Y67003D1*
X444878Y65503D1*
X444735Y64003D1*
X444676Y62503D1*
X444702Y61003D1*
X444883Y59503D1*
X445238Y58003D1*
X445627Y56503D1*
X445941Y55003D1*
X446277Y53503D1*
X446753Y52003D1*
X447361Y50503D1*
X448050Y49003D1*
X448827Y47503D1*
X449763Y46003D1*
X450922Y44503D1*
X452252Y43003D1*
X453682Y41503D1*
X455210Y40003D1*
X456960Y38503D1*
X459179Y37003D1*
X462133Y35503D1*
X465901Y34003D1*
X470127Y32503D1*
X479127Y92503D2*
X483449Y91003D1*
X487060Y89503D1*
X489887Y88003D1*
X492086Y86503D1*
X493909Y85003D1*
X495539Y83503D1*
X497039Y82003D1*
X498361Y80503D1*
X499456Y79003D1*
X500377Y77503D1*
X501198Y76003D1*
X501925Y74503D1*
X502497Y73003D1*
X502891Y71503D1*
X503253Y70003D1*
X503688Y68503D1*
X504103Y67003D1*
X504376Y65503D1*
X504519Y64003D1*
X504579Y62503D1*
X504553Y61003D1*
X504372Y59503D1*
X504016Y58003D1*
X503627Y56503D1*
X503313Y55003D1*
X502977Y53503D1*
X502502Y52003D1*
X501894Y50503D1*
X501204Y49003D1*
X500427Y47503D1*
X499492Y46003D1*
X498332Y44503D1*
X497003Y43003D1*
X495573Y41503D1*
X494045Y40003D1*
X492295Y38503D1*
X490076Y37003D1*
X487122Y35503D1*
X483353Y34003D1*
X479127Y32503D1*
X546627Y92503D2*
X542832Y91003D1*
X539778Y89503D1*
X538474Y88003D1*
X537986Y86503D1*
X537627Y85003D1*
X554127Y92503D2*
X557006Y91003D1*
X559309Y89503D1*
X561001Y88003D1*
X562138Y86503D1*
X562914Y85003D1*
X563548Y83503D1*
X564049Y82003D1*
X564356Y80503D1*
X564507Y79003D1*
X564524Y77503D1*
X564361Y76003D1*
X564006Y74503D1*
X563573Y73003D1*
X563116Y71503D1*
X562559Y70003D1*
X561861Y68503D1*
X560970Y67003D1*
X559880Y65503D1*
X558749Y64003D1*
X557686Y62503D1*
X556602Y61003D1*
X555376Y59503D1*
X554019Y58003D1*
X552584Y56503D1*
X551111Y55003D1*
X549622Y53503D1*
X548125Y52003D1*
X546627Y50503D1*
X545127Y49003D1*
X543627Y47503D1*
X542127Y46003D1*
X540627Y44503D1*
X585627Y92503D2*
X583154Y91003D1*
X581154Y89503D1*
X579599Y88003D1*
X578362Y86503D1*
X577452Y85003D1*
X576776Y83503D1*
X576183Y82003D1*
X575691Y80503D1*
X575337Y79003D1*
X574991Y77503D1*
X574563Y76003D1*
X574150Y74503D1*
X573878Y73003D1*
X573735Y71503D1*
X573670Y70003D1*
X573643Y68503D1*
X573633Y67003D1*
X573629Y65503D1*
X573628Y64003D1*
Y62503D1*
X573633Y61003D1*
X573686Y59503D1*
X573877Y58003D1*
X574236Y56503D1*
X574627Y55003D1*
X574941Y53503D1*
X575271Y52003D1*
X575700Y50503D1*
X576170Y49003D1*
X576685Y47503D1*
X577390Y46003D1*
X578316Y44503D1*
X579488Y43003D1*
X581108Y41503D1*
X583243Y40003D1*
X585627Y38503D1*
X593127Y92503D2*
X595601Y91003D1*
X597600Y89503D1*
X599156Y88003D1*
X600393Y86503D1*
X601302Y85003D1*
X601978Y83503D1*
X602572Y82003D1*
X603063Y80503D1*
X603418Y79003D1*
X603763Y77503D1*
X604191Y76003D1*
X604604Y74503D1*
X604877Y73003D1*
X605020Y71503D1*
X605085Y70003D1*
X605111Y68503D1*
X605122Y67003D1*
X605125Y65503D1*
X605127Y64003D1*
Y62503D1*
X605121Y61003D1*
X605069Y59503D1*
X604878Y58003D1*
X604518Y56503D1*
X604128Y55003D1*
X603813Y53503D1*
X603483Y52003D1*
X603054Y50503D1*
X602585Y49003D1*
X602069Y47503D1*
X601364Y46003D1*
X600438Y44503D1*
X599267Y43003D1*
X597647Y41503D1*
X595511Y40003D1*
X593127Y38503D1*
X911127Y92503D2*
X907730Y91003D1*
X904927Y89503D1*
X902766Y88003D1*
X901169Y86503D1*
X900081Y85003D1*
X899327Y83503D1*
X898702Y82003D1*
X898204Y80503D1*
X897903Y79003D1*
X897801Y77503D1*
X897928Y76003D1*
X898312Y74503D1*
X898882Y73003D1*
X899564Y71503D1*
X900400Y70003D1*
X901413Y68503D1*
X903660Y67003D1*
X906821Y65503D1*
X910800Y64003D1*
X914998Y62503D1*
X918736Y61003D1*
X921652Y59503D1*
X923971Y58003D1*
X925023Y56503D1*
X925633Y55003D1*
X925919Y53503D1*
X925986Y52003D1*
X925907Y50503D1*
X925317Y49003D1*
X923919Y47503D1*
X919811Y46003D1*
X913260Y44503D1*
X905127Y43003D1*
X920127Y92503D2*
X924615Y91003D1*
X928181Y89503D1*
X929670Y88003D1*
X930186Y86503D1*
X930460Y85003D1*
X930627Y83503D1*
X956127Y92503D2*
Y91003D1*
Y89503D1*
Y88003D1*
Y86503D1*
Y85003D1*
Y83503D1*
Y82003D1*
Y80503D1*
Y79003D1*
Y77503D1*
Y76003D1*
Y74503D1*
Y73003D1*
Y71503D1*
Y70003D1*
Y68503D1*
Y67003D1*
Y65503D1*
Y64003D1*
Y62503D1*
Y61003D1*
Y59503D1*
Y58003D1*
Y56503D1*
Y55003D1*
Y53503D1*
Y52003D1*
Y50503D1*
Y49003D1*
Y47503D1*
Y46003D1*
Y44503D1*
Y43003D1*
Y41503D1*
Y40003D1*
X962127Y92503D2*
Y91003D1*
Y89503D1*
Y88003D1*
Y86503D1*
Y85003D1*
Y83503D1*
Y82003D1*
Y80503D1*
Y79003D1*
Y77503D1*
Y76003D1*
Y74503D1*
Y73003D1*
Y71503D1*
Y70003D1*
Y68503D1*
Y67003D1*
Y65503D1*
Y64003D1*
Y62503D1*
Y61003D1*
Y59503D1*
Y58003D1*
Y56503D1*
Y55003D1*
Y53503D1*
Y52003D1*
Y50503D1*
Y49003D1*
Y47503D1*
Y46003D1*
Y44503D1*
Y43003D1*
Y41503D1*
Y40003D1*
X629127Y91003D2*
X628477Y89503D1*
X627656Y88003D1*
X625722Y86503D1*
X623327Y85003D1*
X621189Y83503D1*
X619581Y82003D1*
X619036Y80503D1*
X618627Y79003D1*
X627627D1*
Y77503D1*
Y76003D1*
Y74503D1*
Y73003D1*
Y71503D1*
Y70003D1*
Y68503D1*
Y67003D1*
Y65503D1*
Y64003D1*
Y62503D1*
Y61003D1*
Y59503D1*
Y58003D1*
Y56503D1*
Y55003D1*
Y53503D1*
Y52003D1*
Y50503D1*
Y49003D1*
Y47503D1*
Y46003D1*
Y44503D1*
X618627D1*
Y43003D1*
Y41503D1*
Y40003D1*
X633627Y91003D2*
Y89503D1*
Y88003D1*
Y86503D1*
Y85003D1*
Y83503D1*
Y82003D1*
Y80503D1*
Y79003D1*
Y77503D1*
Y76003D1*
Y74503D1*
Y73003D1*
Y71503D1*
Y70003D1*
Y68503D1*
Y67003D1*
Y65503D1*
Y64003D1*
Y62503D1*
Y61003D1*
Y59503D1*
Y58003D1*
Y56503D1*
Y55003D1*
Y53503D1*
Y52003D1*
Y50503D1*
Y49003D1*
Y47503D1*
Y46003D1*
Y44503D1*
X642627D1*
Y43003D1*
Y41503D1*
Y40003D1*
X651627Y91003D2*
Y89503D1*
Y88003D1*
Y86503D1*
X683127Y91003D2*
Y89503D1*
X683121Y88003D1*
X683069Y86503D1*
X682872Y85003D1*
X682460Y83503D1*
X681878Y82003D1*
X681204Y80503D1*
X680484Y79003D1*
X679747Y77503D1*
X679000Y76003D1*
X678252Y74503D1*
X677501Y73003D1*
X676753Y71503D1*
X676002Y70003D1*
X675253Y68503D1*
X674502Y67003D1*
X673753Y65503D1*
X673002Y64003D1*
X672253Y62503D1*
X671502Y61003D1*
X670753Y59503D1*
X670002Y58003D1*
X669253Y56503D1*
X668502Y55003D1*
X667753Y53503D1*
X667008Y52003D1*
X666306Y50503D1*
X665699Y49003D1*
X665165Y47503D1*
X664583Y46003D1*
X663931Y44503D1*
X663266Y43003D1*
X662661Y41503D1*
X662127Y40003D1*
X716127Y91003D2*
Y89503D1*
Y88003D1*
Y86503D1*
Y85003D1*
Y83503D1*
Y82003D1*
Y80503D1*
Y79003D1*
Y77503D1*
Y76003D1*
Y74503D1*
Y73003D1*
Y71503D1*
Y70003D1*
Y68503D1*
Y67003D1*
Y65503D1*
Y64003D1*
Y62503D1*
Y61003D1*
Y59503D1*
Y58003D1*
Y56503D1*
Y55003D1*
Y53503D1*
Y52003D1*
Y50503D1*
Y49003D1*
Y47503D1*
Y46003D1*
Y44503D1*
Y43003D1*
Y41503D1*
Y40003D1*
X737127Y91003D2*
X739775Y89503D1*
X741955Y88003D1*
X743539Y86503D1*
X744648Y85003D1*
X745383Y83503D1*
X745786Y82003D1*
X745930Y80503D1*
X745818Y79003D1*
X745440Y77503D1*
X744865Y76003D1*
X744144Y74503D1*
X743237Y73003D1*
X742167Y71503D1*
X741100Y70003D1*
X740127Y68503D1*
X742314Y67003D1*
X744192Y65503D1*
X745713Y64003D1*
X746892Y62503D1*
X747797Y61003D1*
X748441Y59503D1*
X748813Y58003D1*
X748991Y56503D1*
X749018Y55003D1*
X748853Y53503D1*
X748453Y52003D1*
X747876Y50503D1*
X747198Y49003D1*
X746419Y47503D1*
X745421Y46003D1*
X743955Y44503D1*
X741791Y43003D1*
X738898Y41503D1*
X735627Y40003D1*
X782127Y91003D2*
Y89503D1*
Y88003D1*
Y86503D1*
Y85003D1*
X788127Y91003D2*
Y89503D1*
Y88003D1*
Y86503D1*
Y85003D1*
X939627Y91003D2*
Y89503D1*
Y88003D1*
Y86503D1*
Y85003D1*
X945627Y91003D2*
Y89503D1*
Y88003D1*
Y86503D1*
Y85003D1*
X471627Y89503D2*
X467485Y88003D1*
X463859Y86503D1*
X460966Y85003D1*
X458716Y83503D1*
X456866Y82003D1*
X455224Y80503D1*
X453719Y79003D1*
X452394Y77503D1*
X451305Y76003D1*
X450431Y74503D1*
X449748Y73003D1*
X449189Y71503D1*
X448648Y70003D1*
X448184Y68503D1*
X447891Y67003D1*
X447740Y65503D1*
X447672Y64003D1*
X447644Y62503D1*
X447639Y61003D1*
X447688Y59503D1*
X447878Y58003D1*
X448242Y56503D1*
X448680Y55003D1*
X449138Y53503D1*
X449695Y52003D1*
X450393Y50503D1*
X451290Y49003D1*
X452433Y47503D1*
X453755Y46003D1*
X455183Y44503D1*
X456716Y43003D1*
X458565Y41503D1*
X461433Y40003D1*
X466614Y38503D1*
X474931Y37003D1*
X485127Y35503D1*
X477627Y89503D2*
X481770Y88003D1*
X485396Y86503D1*
X488289Y85003D1*
X490539Y83503D1*
X492389Y82003D1*
X494031Y80503D1*
X495536Y79003D1*
X496860Y77503D1*
X497950Y76003D1*
X498824Y74503D1*
X499507Y73003D1*
X500066Y71503D1*
X500606Y70003D1*
X501070Y68503D1*
X501364Y67003D1*
X501515Y65503D1*
X501583Y64003D1*
X501611Y62503D1*
X501616Y61003D1*
X501567Y59503D1*
X501377Y58003D1*
X501012Y56503D1*
X500575Y55003D1*
X500116Y53503D1*
X499560Y52003D1*
X498862Y50503D1*
X497965Y49003D1*
X496822Y47503D1*
X495499Y46003D1*
X494072Y44503D1*
X492539Y43003D1*
X490689Y41503D1*
X487821Y40003D1*
X482641Y38503D1*
X474323Y37003D1*
X464127Y35503D1*
X548127Y88003D2*
X543627Y86503D1*
X539127Y85003D1*
X551127Y88003D2*
X553595Y86503D1*
X555542Y85003D1*
X556906Y83503D1*
X557928Y82003D1*
X558288Y80503D1*
X558483Y79003D1*
X558565Y77503D1*
X558548Y76003D1*
X558364Y74503D1*
X557951Y73003D1*
X557325Y71503D1*
X556507Y70003D1*
X555566Y68503D1*
X554606Y67003D1*
X553570Y65503D1*
X552370Y64003D1*
X551074Y62503D1*
X549833Y61003D1*
X548720Y59503D1*
X547615Y58003D1*
X546380Y56503D1*
X545021Y55003D1*
X543585Y53503D1*
X542111Y52003D1*
X540628Y50503D1*
X539190Y49003D1*
X537941Y47503D1*
X537050Y46003D1*
X536544Y44503D1*
X536299Y43003D1*
X536189Y41503D1*
X536127Y40003D1*
X588627Y88003D2*
X586160Y86503D1*
X584213Y85003D1*
X582843Y83503D1*
X581918Y82003D1*
X581255Y80503D1*
X580672Y79003D1*
X580193Y77503D1*
X579894Y76003D1*
X579741Y74503D1*
X579672Y73003D1*
X579644Y71503D1*
X579633Y70003D1*
X579629Y68503D1*
X579628Y67003D1*
Y65503D1*
X579627Y64003D1*
Y62503D1*
Y61003D1*
Y59503D1*
X579633Y58003D1*
X579686Y56503D1*
X579877Y55003D1*
X580242Y53503D1*
X580679Y52003D1*
X581144Y50503D1*
X581783Y49003D1*
X582636Y47503D1*
X585302Y46003D1*
X589489Y44503D1*
X594627Y43003D1*
X590127Y88003D2*
X592595Y86503D1*
X594542Y85003D1*
X595912Y83503D1*
X596836Y82003D1*
X597500Y80503D1*
X598082Y79003D1*
X598562Y77503D1*
X598861Y76003D1*
X599014Y74503D1*
X599083Y73003D1*
X599111Y71503D1*
X599121Y70003D1*
X599125Y68503D1*
X599127Y67003D1*
Y65503D1*
Y64003D1*
Y62503D1*
Y61003D1*
Y59503D1*
X599121Y58003D1*
X599069Y56503D1*
X598878Y55003D1*
X598512Y53503D1*
X598075Y52003D1*
X597611Y50503D1*
X596972Y49003D1*
X596118Y47503D1*
X593453Y46003D1*
X589266Y44503D1*
X584127Y43003D1*
X912627Y88003D2*
X909928Y86503D1*
X907609Y85003D1*
X905857Y83503D1*
X904525Y82003D1*
X904067Y80503D1*
X903870Y79003D1*
X903955Y77503D1*
X904339Y76003D1*
X904916Y74503D1*
X906146Y73003D1*
X908948Y71503D1*
X912667Y70003D1*
X916881Y68503D1*
X920904Y67003D1*
X924224Y65503D1*
X926712Y64003D1*
X928518Y62503D1*
X929818Y61003D1*
X930770Y59503D1*
X931431Y58003D1*
X931810Y56503D1*
X931990Y55003D1*
X932017Y53503D1*
X931853Y52003D1*
X931453Y50503D1*
X930876Y49003D1*
X930198Y47503D1*
X929419Y46003D1*
X928421Y44503D1*
X926955Y43003D1*
X924791Y41503D1*
X921898Y40003D1*
X918627Y38503D1*
X920127Y88003D2*
X923127Y86503D1*
X926127Y85003D1*
X929127Y83503D1*
X678627Y86503D2*
X677365Y85003D1*
X676295Y83503D1*
X675428Y82003D1*
X674747Y80503D1*
X674183Y79003D1*
X673590Y77503D1*
X672929Y76003D1*
X672223Y74503D1*
X671490Y73003D1*
X670749Y71503D1*
X670000Y70003D1*
X669252Y68503D1*
X668502Y67003D1*
X667753Y65503D1*
X667002Y64003D1*
X666253Y62503D1*
X665502Y61003D1*
X664753Y59503D1*
X664002Y58003D1*
X663253Y56503D1*
X662502Y55003D1*
X661753Y53503D1*
X661002Y52003D1*
X660253Y50503D1*
X659502Y49003D1*
X658753Y47503D1*
X658002Y46003D1*
X657248Y44503D1*
X656458Y43003D1*
X655583Y41503D1*
X654627Y40003D1*
X722127Y86503D2*
Y85003D1*
Y83503D1*
Y82003D1*
Y80503D1*
Y79003D1*
Y77503D1*
Y76003D1*
Y74503D1*
Y73003D1*
Y71503D1*
X734127Y70003D1*
X735627Y86503D2*
X737064Y85003D1*
X738313Y83503D1*
X739204Y82003D1*
X739711Y80503D1*
X739949Y79003D1*
X739991Y77503D1*
X739886Y76003D1*
X738948Y74503D1*
X735076Y73003D1*
X728666Y71503D1*
X720627Y70003D1*
X473127Y79003D2*
X470242Y77503D1*
X467887Y76003D1*
X466009Y74503D1*
X464560Y73003D1*
X463538Y71503D1*
X462811Y70003D1*
X462196Y68503D1*
X461702Y67003D1*
X461397Y65503D1*
X461242Y64003D1*
X461178Y62503D1*
X461203Y61003D1*
X461383Y59503D1*
X461744Y58003D1*
X462186Y56503D1*
X462691Y55003D1*
X463392Y53503D1*
X464317Y52003D1*
X465488Y50503D1*
X467108Y49003D1*
X469243Y47503D1*
X471627Y46003D1*
X479127Y79003D2*
X481919Y77503D1*
X484024Y76003D1*
X485127Y74503D1*
X804627Y79003D2*
X801857Y77503D1*
X799805Y76003D1*
X799130Y74503D1*
X798627Y73003D1*
X815127Y79003D2*
X818287Y77503D1*
X820671Y76003D1*
X822306Y74503D1*
X823465Y73003D1*
X824336Y71503D1*
X824959Y70003D1*
X825321Y68503D1*
X825499Y67003D1*
X825577Y65503D1*
X825609Y64003D1*
X825621Y62503D1*
X825625Y61003D1*
X825627Y59503D1*
Y58003D1*
Y56503D1*
Y55003D1*
Y53503D1*
Y52003D1*
Y50503D1*
Y49003D1*
Y47503D1*
Y46003D1*
Y44503D1*
Y43003D1*
Y41503D1*
Y40003D1*
X851127Y79003D2*
X848378Y77503D1*
X845362Y76003D1*
X842127Y74503D1*
X857127Y79003D2*
X859595Y77503D1*
X861542Y76003D1*
X862912Y74503D1*
X863836Y73003D1*
X864500Y71503D1*
X865082Y70003D1*
X865562Y68503D1*
X865861Y67003D1*
X866014Y65503D1*
X866083Y64003D1*
X866111Y62503D1*
X866121Y61003D1*
X866125Y59503D1*
X866127Y58003D1*
Y56503D1*
Y55003D1*
Y53503D1*
Y52003D1*
Y50503D1*
Y49003D1*
Y47503D1*
Y46003D1*
Y44503D1*
Y43003D1*
Y41503D1*
Y40003D1*
X1019127Y79003D2*
X1016422Y77503D1*
X1014051Y76003D1*
X1012101Y74503D1*
X1010554Y73003D1*
X1009367Y71503D1*
X1008459Y70003D1*
X1007808Y68503D1*
X1007383Y67003D1*
X1007008Y65503D1*
X1006569Y64003D1*
X1006152Y62503D1*
X1005879Y61003D1*
X1005735Y59503D1*
X1005676Y58003D1*
X1005702Y56503D1*
X1005883Y55003D1*
X1006244Y53503D1*
X1006680Y52003D1*
X1007138Y50503D1*
X1007695Y49003D1*
X1008393Y47503D1*
X1009296Y46003D1*
X1010503Y44503D1*
X1012132Y43003D1*
X1014389Y41503D1*
X1017329Y40003D1*
X1020627Y38503D1*
X1026627Y79003D2*
X1029506Y77503D1*
X1031815Y76003D1*
X1033554Y74503D1*
X1034830Y73003D1*
X1035779Y71503D1*
X1036491Y70003D1*
X1037060Y68503D1*
X1037605Y67003D1*
X1038070Y65503D1*
X1038364Y64003D1*
X1038515Y62503D1*
X1038583Y61003D1*
X1038612Y59503D1*
X1038627Y58003D1*
X1086627Y79003D2*
X1083352Y77503D1*
X1079825Y76003D1*
X1076127Y74503D1*
X1092627Y79003D2*
X1094648Y77503D1*
X1096429Y76003D1*
X1098221Y74503D1*
X1100127Y73003D1*
X1109127Y79003D2*
X1106299Y77503D1*
X1103450Y76003D1*
X1100387Y74503D1*
X1097127Y73003D1*
X1115127Y79003D2*
X1117082Y77503D1*
X1118588Y76003D1*
X1119721Y74503D1*
X1120637Y73003D1*
X1121402Y71503D1*
X1121983Y70003D1*
X1122329Y68503D1*
X1122502Y67003D1*
X1122578Y65503D1*
X1122609Y64003D1*
X1122621Y62503D1*
X1122625Y61003D1*
X1122627Y59503D1*
Y58003D1*
Y56503D1*
Y55003D1*
Y53503D1*
Y52003D1*
Y50503D1*
Y49003D1*
Y47503D1*
Y46003D1*
Y44503D1*
Y43003D1*
Y41503D1*
Y40003D1*
X1137627Y79003D2*
X1134858Y77503D1*
X1132806Y76003D1*
X1132179Y74503D1*
X1131839Y73003D1*
X1131627Y71503D1*
X1148127Y79003D2*
X1151287Y77503D1*
X1153671Y76003D1*
X1155306Y74503D1*
X1156465Y73003D1*
X1157336Y71503D1*
X1157959Y70003D1*
X1158321Y68503D1*
X1158499Y67003D1*
X1158577Y65503D1*
X1158609Y64003D1*
X1158621Y62503D1*
X1158625Y61003D1*
X1158627Y59503D1*
Y58003D1*
Y56503D1*
Y55003D1*
Y53503D1*
Y52003D1*
Y50503D1*
Y49003D1*
Y47503D1*
Y46003D1*
Y44503D1*
Y43003D1*
Y41503D1*
Y40003D1*
X1184127Y79003D2*
X1181378Y77503D1*
X1178362Y76003D1*
X1175127Y74503D1*
X1190127Y79003D2*
X1192595Y77503D1*
X1194542Y76003D1*
X1195912Y74503D1*
X1196836Y73003D1*
X1197500Y71503D1*
X1198082Y70003D1*
X1198562Y68503D1*
X1198861Y67003D1*
X1199014Y65503D1*
X1199083Y64003D1*
X1199111Y62503D1*
X1199121Y61003D1*
X1199125Y59503D1*
X1199127Y58003D1*
Y56503D1*
Y55003D1*
Y53503D1*
Y52003D1*
Y50503D1*
Y49003D1*
Y47503D1*
Y46003D1*
Y44503D1*
Y43003D1*
Y41503D1*
Y40003D1*
X756627Y77503D2*
Y76003D1*
Y74503D1*
Y73003D1*
Y71503D1*
Y70003D1*
Y68503D1*
Y67003D1*
Y65503D1*
Y64003D1*
Y62503D1*
Y61003D1*
Y59503D1*
Y58003D1*
Y56503D1*
Y55003D1*
Y53503D1*
Y52003D1*
Y50503D1*
Y49003D1*
Y47503D1*
Y46003D1*
Y44503D1*
Y43003D1*
Y41503D1*
Y40003D1*
X762627Y77503D2*
X762689Y76003D1*
X762922Y74503D1*
X763435Y73003D1*
X764127Y71503D1*
X771627Y77503D2*
X769373Y76003D1*
X767208Y74503D1*
X764966Y73003D1*
X762627Y71503D1*
X776127Y77503D2*
Y76003D1*
Y74503D1*
Y73003D1*
Y71503D1*
X770996Y70003D1*
X767221Y68503D1*
X764428Y67003D1*
X763332Y65503D1*
X762953Y64003D1*
X762760Y62503D1*
X762677Y61003D1*
X762645Y59503D1*
X762633Y58003D1*
X762629Y56503D1*
X762628Y55003D1*
Y53503D1*
X762627Y52003D1*
Y50503D1*
Y49003D1*
Y47503D1*
Y46003D1*
Y44503D1*
Y43003D1*
Y41503D1*
Y40003D1*
X782127Y77503D2*
Y76003D1*
Y74503D1*
Y73003D1*
Y71503D1*
Y70003D1*
Y68503D1*
Y67003D1*
Y65503D1*
Y64003D1*
Y62503D1*
Y61003D1*
Y59503D1*
Y58003D1*
Y56503D1*
Y55003D1*
Y53503D1*
Y52003D1*
Y50503D1*
Y49003D1*
Y47503D1*
Y46003D1*
Y44503D1*
Y43003D1*
Y41503D1*
Y40003D1*
X788127Y77503D2*
Y76003D1*
Y74503D1*
Y73003D1*
Y71503D1*
Y70003D1*
Y68503D1*
Y67003D1*
Y65503D1*
Y64003D1*
Y62503D1*
Y61003D1*
Y59503D1*
Y58003D1*
Y56503D1*
Y55003D1*
Y53503D1*
Y52003D1*
Y50503D1*
Y49003D1*
Y47503D1*
Y46003D1*
Y44503D1*
Y43003D1*
Y41503D1*
Y40003D1*
X836127Y77503D2*
Y76003D1*
Y74503D1*
Y73003D1*
Y71503D1*
Y70003D1*
Y68503D1*
Y67003D1*
Y65503D1*
Y64003D1*
Y62503D1*
Y61003D1*
Y59503D1*
Y58003D1*
Y56503D1*
Y55003D1*
Y53503D1*
Y52003D1*
Y50503D1*
Y49003D1*
Y47503D1*
Y46003D1*
Y44503D1*
Y43003D1*
Y41503D1*
Y40003D1*
X842127Y77503D2*
X843534Y76003D1*
X845127Y74503D1*
X939627Y77503D2*
Y76003D1*
Y74503D1*
Y73003D1*
Y71503D1*
Y70003D1*
Y68503D1*
Y67003D1*
Y65503D1*
Y64003D1*
Y62503D1*
Y61003D1*
Y59503D1*
Y58003D1*
Y56503D1*
Y55003D1*
Y53503D1*
Y52003D1*
Y50503D1*
Y49003D1*
Y47503D1*
Y46003D1*
Y44503D1*
Y43003D1*
Y41503D1*
Y40003D1*
X945627Y77503D2*
Y76003D1*
Y74503D1*
Y73003D1*
Y71503D1*
Y70003D1*
Y68503D1*
Y67003D1*
Y65503D1*
Y64003D1*
Y62503D1*
Y61003D1*
Y59503D1*
Y58003D1*
Y56503D1*
Y55003D1*
Y53503D1*
Y52003D1*
Y50503D1*
Y49003D1*
Y47503D1*
Y46003D1*
Y44503D1*
Y43003D1*
Y41503D1*
Y40003D1*
X968127Y77503D2*
X968877Y76003D1*
X969506Y74503D1*
X970136Y73003D1*
X970809Y71503D1*
X971474Y70003D1*
X972066Y68503D1*
X972593Y67003D1*
X973173Y65503D1*
X973823Y64003D1*
X974480Y62503D1*
X975067Y61003D1*
X975588Y59503D1*
X976120Y58003D1*
X976632Y56503D1*
X977120Y55003D1*
X977683Y53503D1*
X978326Y52003D1*
X978981Y50503D1*
X979568Y49003D1*
X980094Y47503D1*
X980673Y46003D1*
X981324Y44503D1*
X981989Y43003D1*
X982594Y41503D1*
X983127Y40003D1*
X974127Y77503D2*
X974877Y76003D1*
X975506Y74503D1*
X976136Y73003D1*
X976809Y71503D1*
X977474Y70003D1*
X978066Y68503D1*
X978587Y67003D1*
X979120Y65503D1*
X979631Y64003D1*
X980114Y62503D1*
X980630Y61003D1*
X981135Y59503D1*
X981622Y58003D1*
X982195Y56503D1*
X982954Y55003D1*
X984080Y53503D1*
X985709Y52003D1*
X987627Y50503D1*
X996627Y77503D2*
X995878Y76003D1*
X995249Y74503D1*
X994619Y73003D1*
X993946Y71503D1*
X993280Y70003D1*
X992689Y68503D1*
X992167Y67003D1*
X991635Y65503D1*
X991123Y64003D1*
X990640Y62503D1*
X990124Y61003D1*
X989619Y59503D1*
X989139Y58003D1*
X988624Y56503D1*
X988115Y55003D1*
X987593Y53503D1*
X986922Y52003D1*
X986127Y50503D1*
X1002627Y77503D2*
X1001703Y76003D1*
X1000895Y74503D1*
X1000235Y73003D1*
X999685Y71503D1*
X999141Y70003D1*
X998625Y68503D1*
X998135Y67003D1*
X997572Y65503D1*
X996928Y64003D1*
X996274Y62503D1*
X995687Y61003D1*
X995161Y59503D1*
X994582Y58003D1*
X993932Y56503D1*
X993275Y55003D1*
X992687Y53503D1*
X992167Y52003D1*
X991635Y50503D1*
X991123Y49003D1*
X990634Y47503D1*
X990072Y46003D1*
X989427Y44503D1*
X988765Y43003D1*
X988160Y41503D1*
X987627Y40003D1*
X1046127Y77503D2*
Y76003D1*
Y74503D1*
Y73003D1*
Y71503D1*
Y70003D1*
Y68503D1*
Y67003D1*
Y65503D1*
Y64003D1*
Y62503D1*
Y61003D1*
Y59503D1*
Y58003D1*
Y56503D1*
Y55003D1*
Y53503D1*
Y52003D1*
Y50503D1*
Y49003D1*
Y47503D1*
Y46003D1*
Y44503D1*
Y43003D1*
Y41503D1*
Y40003D1*
X1052127Y77503D2*
X1052189Y76003D1*
X1052422Y74503D1*
X1052935Y73003D1*
X1053627Y71503D1*
X1061127Y77503D2*
X1058873Y76003D1*
X1056708Y74503D1*
X1054466Y73003D1*
X1052127Y71503D1*
X1065627Y77503D2*
Y76003D1*
Y74503D1*
Y73003D1*
Y71503D1*
X1060496Y70003D1*
X1056721Y68503D1*
X1053928Y67003D1*
X1052832Y65503D1*
X1052453Y64003D1*
X1052260Y62503D1*
X1052177Y61003D1*
X1052145Y59503D1*
X1052133Y58003D1*
X1052129Y56503D1*
X1052128Y55003D1*
Y53503D1*
X1052127Y52003D1*
Y50503D1*
Y49003D1*
Y47503D1*
Y46003D1*
Y44503D1*
Y43003D1*
Y41503D1*
Y40003D1*
X1071627Y77503D2*
Y76003D1*
Y74503D1*
Y73003D1*
Y71503D1*
Y70003D1*
Y68503D1*
Y67003D1*
Y65503D1*
Y64003D1*
Y62503D1*
Y61003D1*
Y59503D1*
Y58003D1*
Y56503D1*
Y55003D1*
Y53503D1*
Y52003D1*
Y50503D1*
Y49003D1*
Y47503D1*
Y46003D1*
Y44503D1*
Y43003D1*
Y41503D1*
Y40003D1*
X1077627Y77503D2*
X1078330Y76003D1*
X1079127Y74503D1*
X1169127Y77503D2*
Y76003D1*
Y74503D1*
Y73003D1*
Y71503D1*
Y70003D1*
Y68503D1*
Y67003D1*
Y65503D1*
Y64003D1*
Y62503D1*
Y61003D1*
Y59503D1*
Y58003D1*
Y56503D1*
Y55003D1*
Y53503D1*
Y52003D1*
Y50503D1*
Y49003D1*
Y47503D1*
Y46003D1*
Y44503D1*
Y43003D1*
Y41503D1*
Y40003D1*
X1175127Y77503D2*
X1176534Y76003D1*
X1178127Y74503D1*
X474627Y76003D2*
X471979Y74503D1*
X469800Y73003D1*
X468216Y71503D1*
X467107Y70003D1*
X466372Y68503D1*
X465963Y67003D1*
X465766Y65503D1*
X465681Y64003D1*
X465647Y62503D1*
X465640Y61003D1*
X465688Y59503D1*
X465884Y58003D1*
X466301Y56503D1*
X466970Y55003D1*
X467852Y53503D1*
X470623Y52003D1*
X475072Y50503D1*
X480627Y49003D1*
Y76003D2*
X482127Y74503D1*
X804627D2*
X803127Y73003D1*
X815127Y74503D2*
X816564Y73003D1*
X817813Y71503D1*
X818845Y70003D1*
X819118Y68503D1*
X819188Y67003D1*
X815853Y65503D1*
X811517Y64003D1*
X807136Y62503D1*
X803620Y61003D1*
X801063Y59503D1*
X799238Y58003D1*
X797936Y56503D1*
X796984Y55003D1*
X796323Y53503D1*
X795950Y52003D1*
X795818Y50503D1*
X795934Y49003D1*
X796314Y47503D1*
X796883Y46003D1*
X797570Y44503D1*
X798456Y43003D1*
X799582Y41503D1*
X801941Y40003D1*
X804627Y38503D1*
X851127Y74503D2*
X848428Y73003D1*
X846109Y71503D1*
X844357Y70003D1*
X843025Y68503D1*
X842561Y67003D1*
X842311Y65503D1*
X842199Y64003D1*
X842154Y62503D1*
X842137Y61003D1*
X842130Y59503D1*
X842128Y58003D1*
Y56503D1*
X842127Y55003D1*
Y53503D1*
Y52003D1*
Y50503D1*
Y49003D1*
Y47503D1*
Y46003D1*
Y44503D1*
Y43003D1*
Y41503D1*
Y40003D1*
X855627Y74503D2*
X857064Y73003D1*
X858313Y71503D1*
X859204Y70003D1*
X859711Y68503D1*
X859955Y67003D1*
X860061Y65503D1*
X860103Y64003D1*
X860119Y62503D1*
X860124Y61003D1*
X860126Y59503D1*
X860127Y58003D1*
Y56503D1*
Y55003D1*
Y53503D1*
Y52003D1*
Y50503D1*
Y49003D1*
Y47503D1*
Y46003D1*
Y44503D1*
Y43003D1*
Y41503D1*
Y40003D1*
X1020627Y74503D2*
X1017979Y73003D1*
X1015800Y71503D1*
X1014216Y70003D1*
X1013107Y68503D1*
X1012372Y67003D1*
X1011961Y65503D1*
X1011755Y64003D1*
X1011627Y62503D1*
X1026627Y74503D2*
X1028121Y73003D1*
X1029563Y71503D1*
X1030813Y70003D1*
X1031704Y68503D1*
X1032211Y67003D1*
X1032456Y65503D1*
X1032565Y64003D1*
X1032627Y62503D1*
X1086627Y74503D2*
X1083928Y73003D1*
X1081609Y71503D1*
X1079857Y70003D1*
X1078525Y68503D1*
X1078061Y67003D1*
X1077811Y65503D1*
X1077699Y64003D1*
X1077654Y62503D1*
X1077637Y61003D1*
X1077630Y59503D1*
X1077628Y58003D1*
Y56503D1*
X1077627Y55003D1*
Y53503D1*
Y52003D1*
Y50503D1*
Y49003D1*
Y47503D1*
Y46003D1*
Y44503D1*
Y43003D1*
Y41503D1*
Y40003D1*
X1089627Y74503D2*
X1091064Y73003D1*
X1092313Y71503D1*
X1093204Y70003D1*
X1093711Y68503D1*
X1093955Y67003D1*
X1094061Y65503D1*
X1094103Y64003D1*
X1094119Y62503D1*
X1094124Y61003D1*
X1094126Y59503D1*
X1094127Y58003D1*
Y56503D1*
Y55003D1*
Y53503D1*
Y52003D1*
Y50503D1*
Y49003D1*
Y47503D1*
Y46003D1*
Y44503D1*
Y43003D1*
Y41503D1*
Y40003D1*
X1109127Y74503D2*
X1106428Y73003D1*
X1104109Y71503D1*
X1102357Y70003D1*
X1101025Y68503D1*
X1100561Y67003D1*
X1100311Y65503D1*
X1100199Y64003D1*
X1100154Y62503D1*
X1100137Y61003D1*
X1100130Y59503D1*
X1100128Y58003D1*
Y56503D1*
X1100127Y55003D1*
Y53503D1*
Y52003D1*
Y50503D1*
Y49003D1*
Y47503D1*
Y46003D1*
Y44503D1*
Y43003D1*
Y41503D1*
Y40003D1*
X1112127Y74503D2*
X1113564Y73003D1*
X1114813Y71503D1*
X1115704Y70003D1*
X1116211Y68503D1*
X1116455Y67003D1*
X1116561Y65503D1*
X1116603Y64003D1*
X1116619Y62503D1*
X1116624Y61003D1*
X1116626Y59503D1*
X1116627Y58003D1*
Y56503D1*
Y55003D1*
Y53503D1*
Y52003D1*
Y50503D1*
Y49003D1*
Y47503D1*
Y46003D1*
Y44503D1*
Y43003D1*
Y41503D1*
Y40003D1*
X1140627Y74503D2*
X1136127Y73003D1*
X1131627Y71503D1*
X1148127Y74503D2*
X1149564Y73003D1*
X1150813Y71503D1*
X1151845Y70003D1*
X1152118Y68503D1*
X1152188Y67003D1*
X1148853Y65503D1*
X1144517Y64003D1*
X1140136Y62503D1*
X1136620Y61003D1*
X1134063Y59503D1*
X1132238Y58003D1*
X1130936Y56503D1*
X1129984Y55003D1*
X1129323Y53503D1*
X1128950Y52003D1*
X1128818Y50503D1*
X1128934Y49003D1*
X1129314Y47503D1*
X1129883Y46003D1*
X1130570Y44503D1*
X1131456Y43003D1*
X1132582Y41503D1*
X1134941Y40003D1*
X1137627Y38503D1*
X1184127Y74503D2*
X1181428Y73003D1*
X1179109Y71503D1*
X1177357Y70003D1*
X1176025Y68503D1*
X1175561Y67003D1*
X1175311Y65503D1*
X1175199Y64003D1*
X1175154Y62503D1*
X1175137Y61003D1*
X1175130Y59503D1*
X1175128Y58003D1*
Y56503D1*
X1175127Y55003D1*
Y53503D1*
Y52003D1*
Y50503D1*
Y49003D1*
Y47503D1*
Y46003D1*
Y44503D1*
Y43003D1*
Y41503D1*
Y40003D1*
X1188627Y74503D2*
X1190064Y73003D1*
X1191313Y71503D1*
X1192204Y70003D1*
X1192711Y68503D1*
X1192955Y67003D1*
X1193061Y65503D1*
X1193103Y64003D1*
X1193119Y62503D1*
X1193124Y61003D1*
X1193126Y59503D1*
X1193127Y58003D1*
Y56503D1*
Y55003D1*
Y53503D1*
Y52003D1*
Y50503D1*
Y49003D1*
Y47503D1*
Y46003D1*
Y44503D1*
Y43003D1*
Y41503D1*
Y40003D1*
X722127Y65503D2*
Y64003D1*
Y62503D1*
Y61003D1*
Y59503D1*
Y58003D1*
Y56503D1*
Y55003D1*
Y53503D1*
Y52003D1*
Y50503D1*
Y49003D1*
Y47503D1*
Y46003D1*
X735627Y44503D1*
X737127Y65503D2*
X738621Y64003D1*
X740063Y62503D1*
X741313Y61003D1*
X742204Y59503D1*
X742710Y58003D1*
X742955Y56503D1*
X743055Y55003D1*
X743039Y53503D1*
X742799Y52003D1*
X742320Y50503D1*
X740897Y49003D1*
X736527Y47503D1*
X729456Y46003D1*
X720627Y44503D1*
X813627Y59503D2*
X809723Y58003D1*
X806527Y56503D1*
X803960Y55003D1*
X802641Y53503D1*
X802119Y52003D1*
X801896Y50503D1*
X801881Y49003D1*
X802543Y47503D1*
X804939Y46003D1*
X808805Y44503D1*
X813627Y43003D1*
X819627Y59503D2*
Y58003D1*
Y56503D1*
Y55003D1*
X819621Y53503D1*
X819563Y52003D1*
X819307Y50503D1*
X818822Y49003D1*
X817491Y47503D1*
X814166Y46003D1*
X809176Y44503D1*
X803127Y43003D1*
X1146627Y59503D2*
X1142723Y58003D1*
X1139527Y56503D1*
X1136960Y55003D1*
X1135641Y53503D1*
X1135119Y52003D1*
X1134896Y50503D1*
X1134881Y49003D1*
X1135543Y47503D1*
X1137939Y46003D1*
X1141805Y44503D1*
X1146627Y43003D1*
X1152627Y59503D2*
Y58003D1*
Y56503D1*
Y55003D1*
X1152621Y53503D1*
X1152563Y52003D1*
X1152307Y50503D1*
X1151822Y49003D1*
X1150491Y47503D1*
X1147166Y46003D1*
X1142176Y44503D1*
X1136127Y43003D1*
X1011627Y58003D2*
X1011633Y56503D1*
X1011686Y55003D1*
X1011883Y53503D1*
X1012301Y52003D1*
X1012941Y50503D1*
X1013917Y49003D1*
X1015258Y47503D1*
X1019408Y46003D1*
X1025981Y44503D1*
X1034127Y43003D1*
X483627Y52003D2*
X476409Y50503D1*
X468627Y49003D1*
X485127Y52003D2*
X484881Y50503D1*
X483950Y49003D1*
X481718Y47503D1*
X479127Y46003D1*
X897627Y49003D2*
X897633Y47503D1*
X897703Y46003D1*
X897879Y44503D1*
X898820Y43003D1*
X901288Y41503D1*
X904517Y40003D1*
X908127Y38503D1*
X899127Y49003D2*
X901927Y47503D1*
X906358Y46003D1*
X913233Y44503D1*
X921627Y43003D1*
X1035627Y46003D2*
X1027002Y44503D1*
X1017627Y43003D1*
X1038627Y46003D2*
X1038490Y44503D1*
X1038170Y43003D1*
X1036667Y41503D1*
X1033375Y40003D1*
X1029627Y38503D1*
X566127Y44503D2*
Y43003D1*
Y41503D1*
Y40003D1*
X819627Y43003D2*
X816627Y41503D1*
X813627Y40003D1*
X810627Y38503D1*
X819627Y43003D2*
Y41503D1*
Y40003D1*
X1152627Y43003D2*
X1149627Y41503D1*
X1146627Y40003D1*
X1143627Y38503D1*
X1152627Y43003D2*
Y41503D1*
Y40003D1*
X335687Y1665293D2*
D83*
X334737Y1667195D1*
X332813Y1669118D1*
X330912Y1670069D1*
X327087D1*
X325164Y1669118D1*
X323263Y1667195D1*
X322290Y1665293D1*
X321339Y1662419D1*
Y1657622D1*
X322290Y1654770D1*
X323263Y1652847D1*
X325164Y1650945D1*
X327087Y1649973D1*
X330912D1*
X332813Y1650945D1*
X334737Y1652847D1*
X335687Y1654770D1*
X341863Y1666222D2*
X343787Y1667195D1*
X346661Y1670047D1*
Y1649973D1*
X177387Y1514291D2*
X176437Y1516192D1*
X174513Y1518115D1*
X172612Y1519066D1*
X168788D1*
X166864Y1518115D1*
X164963Y1516192D1*
X163990Y1514291D1*
X163039Y1511417D1*
Y1506619D1*
X163990Y1503768D1*
X164963Y1501844D1*
X166864Y1499943D1*
X168788Y1498970D1*
X172612D1*
X174513Y1499943D1*
X176437Y1501844D1*
X177387Y1503768D1*
X184536Y1514269D2*
Y1515219D1*
X185487Y1517143D1*
X186437Y1518093D1*
X188361Y1519044D1*
X192185D1*
X194086Y1518093D1*
X195037Y1517143D1*
X196010Y1515219D1*
Y1513318D1*
X195037Y1511395D1*
X193136Y1508543D1*
X183563Y1498970D1*
X196961D1*
X154387Y1600293D2*
X153437Y1602195D1*
X151513Y1604118D1*
X149612Y1605069D1*
X145788D1*
X143864Y1604118D1*
X141963Y1602195D1*
X140990Y1600293D1*
X140039Y1597419D1*
Y1592622D1*
X140990Y1589770D1*
X141963Y1587847D1*
X143864Y1585945D1*
X145788Y1584973D1*
X149612D1*
X151513Y1585945D1*
X153437Y1587847D1*
X154387Y1589770D1*
X162487Y1605047D2*
X172988D1*
X167262Y1597397D1*
X170136D1*
X172037Y1596447D1*
X172988Y1595496D1*
X173961Y1592622D1*
Y1590721D1*
X172988Y1587847D1*
X171086Y1585923D1*
X168212Y1584973D1*
X165338D1*
X162487Y1585923D1*
X161536Y1586896D1*
X160563Y1588797D1*
X273605Y1174553D2*
X272654Y1176455D1*
X270731Y1178378D1*
X268830Y1179329D1*
X265005D1*
X263082Y1178378D1*
X261180Y1176455D1*
X260208Y1174553D1*
X259257Y1171679D1*
Y1166882D1*
X260208Y1164030D1*
X261180Y1162107D1*
X263082Y1160205D1*
X265005Y1159233D1*
X268830D1*
X270731Y1160205D1*
X272654Y1162107D1*
X273605Y1164030D1*
X289353Y1159233D2*
Y1179306D1*
X279781Y1165931D1*
X294129D1*
X416142Y1346758D2*
X414241Y1345807D1*
X412318Y1343884D1*
X411367Y1341982D1*
Y1338158D1*
X412318Y1336234D1*
X414241Y1334333D1*
X416142Y1333360D1*
X419016Y1332410D1*
X423814D1*
X426666Y1333360D1*
X428589Y1334333D1*
X430490Y1336234D1*
X431463Y1338158D1*
Y1341982D1*
X430490Y1343884D1*
X428589Y1345807D1*
X426666Y1346758D1*
X411389Y1364407D2*
Y1354857D1*
X419989Y1353906D1*
X419038Y1354857D1*
X418066Y1357731D1*
Y1360583D1*
X419038Y1363457D1*
X420940Y1365380D1*
X423814Y1366331D1*
X425715D1*
X428589Y1365380D1*
X430512Y1363457D1*
X431463Y1360583D1*
Y1357731D1*
X430512Y1354857D1*
X429540Y1353906D1*
X427638Y1352933D1*
X324777Y1384251D2*
X323826Y1386153D1*
X321903Y1388076D1*
X320001Y1389027D1*
X316177D1*
X314253Y1388076D1*
X312352Y1386153D1*
X311379Y1384251D1*
X310429Y1381377D1*
Y1376580D1*
X311379Y1373728D1*
X312352Y1371805D1*
X314253Y1369904D1*
X316177Y1368931D1*
X320001D1*
X321903Y1369904D1*
X323826Y1371805D1*
X324777Y1373728D1*
X342426Y1386153D2*
X341476Y1388054D1*
X338602Y1389005D1*
X336700D1*
X333826Y1388054D1*
X331903Y1385180D1*
X330952Y1380405D1*
Y1375629D1*
X331903Y1371805D1*
X333826Y1369881D1*
X336700Y1368931D1*
X337651D1*
X340503Y1369881D1*
X342426Y1371805D1*
X343377Y1374679D1*
Y1375629D1*
X342426Y1378503D1*
X340503Y1380405D1*
X337651Y1381355D1*
X336700D1*
X333826Y1380405D1*
X331903Y1378503D1*
X330952Y1375629D1*
X274080Y1213923D2*
X273130Y1215825D1*
X271206Y1217748D1*
X269305Y1218699D1*
X265480D1*
X263557Y1217748D1*
X261656Y1215825D1*
X260683Y1213923D1*
X259732Y1211049D1*
Y1206252D1*
X260683Y1203400D1*
X261656Y1201477D1*
X263557Y1199575D1*
X265480Y1198603D1*
X269305D1*
X271206Y1199575D1*
X273130Y1201477D1*
X274080Y1203400D1*
X284081Y1198603D2*
X293653Y1218677D1*
X280256D1*
X175709Y510401D2*
X173808Y509451D1*
X171885Y507527D1*
X170934Y505626D1*
Y501801D1*
X171885Y499878D1*
X173808Y497977D1*
X175709Y497004D1*
X178583Y496053D1*
X183381D1*
X186232Y497004D1*
X188156Y497977D1*
X190057Y499878D1*
X191030Y501801D1*
Y505626D1*
X190057Y507527D1*
X188156Y509451D1*
X186233Y510401D1*
X170956Y521352D2*
X171907Y518500D1*
X173808Y517528D1*
X175731D1*
X177633Y518500D1*
X178605Y520402D1*
X179556Y524226D1*
X180507Y527100D1*
X182430Y529001D1*
X184331Y529952D1*
X187205D1*
X189107Y529001D1*
X190079Y528051D1*
X191030Y525177D1*
Y521352D1*
X190079Y518500D1*
X189107Y517528D1*
X187205Y516577D1*
X184331D1*
X182430Y517528D1*
X180507Y519451D1*
X179556Y522303D1*
X178605Y526127D1*
X177633Y528051D1*
X175731Y529001D1*
X173808D1*
X171907Y528051D1*
X170956Y525177D1*
Y521352D1*
X516690Y674535D2*
X515739Y676436D1*
X513816Y678360D1*
X511914Y679310D1*
X508090D1*
X506166Y678360D1*
X504265Y676436D1*
X503292Y674535D1*
X502342Y671661D1*
Y666864D1*
X503292Y664012D1*
X504265Y662088D1*
X506166Y660187D1*
X508090Y659214D1*
X511914D1*
X513816Y660187D1*
X515739Y662088D1*
X516690Y664012D1*
X535312Y672612D2*
X534339Y669738D1*
X532438Y667814D1*
X529564Y666864D1*
X528613D1*
X525739Y667814D1*
X523838Y669738D1*
X522865Y672612D1*
Y673562D1*
X523838Y676436D1*
X525739Y678337D1*
X528613Y679288D1*
X529564D1*
X532438Y678337D1*
X534339Y676436D1*
X535312Y672612D1*
Y667814D1*
X534339Y663039D1*
X532438Y660165D1*
X529564Y659214D1*
X527663D1*
X524789Y660165D1*
X523838Y662088D1*
X264707Y530206D2*
X262805Y529256D1*
X260882Y527332D1*
X259931Y525431D1*
Y521606D1*
X260882Y519683D1*
X262805Y517782D1*
X264707Y516809D1*
X267581Y515858D1*
X272378D1*
X275230Y516809D1*
X277153Y517782D1*
X279055Y519683D1*
X280027Y521606D1*
Y525431D1*
X279055Y527332D1*
X277153Y529256D1*
X275230Y530206D1*
X263778Y536382D2*
X262805Y538305D1*
X259953Y541179D1*
X280027D1*
X263778Y547355D2*
X262805Y549278D1*
X259953Y552152D1*
X280027D1*
X491783Y570800D2*
X490832Y572701D1*
X488909Y574625D1*
X487008Y575575D1*
X483183D1*
X481259Y574625D1*
X479358Y572701D1*
X478385Y570800D1*
X477435Y567926D1*
Y563129D1*
X478385Y560277D1*
X479358Y558353D1*
X481259Y556452D1*
X483183Y555479D1*
X487008D1*
X488909Y556452D1*
X490832Y558353D1*
X491783Y560277D1*
X497959Y571729D2*
X499882Y572701D1*
X502756Y575553D1*
Y555479D1*
X510855Y575553D2*
X521356D1*
X515630Y567904D1*
X518504D1*
X520406Y566953D1*
X521356Y566003D1*
X522329Y563129D1*
Y561227D1*
X521356Y558353D1*
X519455Y556430D1*
X516581Y555479D1*
X513707D1*
X510855Y556430D1*
X509904Y557403D1*
X508932Y559304D1*
X495284Y614695D2*
X494333Y616596D1*
X492410Y618520D1*
X490509Y619470D1*
X486684D1*
X484761Y618520D1*
X482860Y616596D1*
X481887Y614695D1*
X480936Y611821D1*
Y607024D1*
X481887Y604172D1*
X482860Y602248D1*
X484761Y600347D1*
X486684Y599374D1*
X490509D1*
X492410Y600347D1*
X494333Y602248D1*
X495284Y604172D1*
X501460Y615624D2*
X503383Y616596D1*
X506257Y619448D1*
Y599374D1*
X523907Y619448D2*
X514356D1*
X513406Y610848D1*
X514356Y611799D1*
X517230Y612772D1*
X520082D1*
X522956Y611799D1*
X524880Y609898D1*
X525830Y607024D1*
Y605122D1*
X524880Y602248D1*
X522956Y600325D1*
X520082Y599374D1*
X517230D1*
X514356Y600325D1*
X513406Y601298D1*
X512433Y603199D1*
X157901Y550291D2*
X156950Y552192D1*
X155027Y554115D1*
X153126Y555066D1*
X149301D1*
X147378Y554115D1*
X145476Y552192D1*
X144504Y550291D1*
X143553Y547417D1*
Y542619D1*
X144504Y539768D1*
X145476Y537844D1*
X147378Y535943D1*
X149301Y534970D1*
X153126D1*
X155027Y535943D1*
X156950Y537844D1*
X157901Y539768D1*
X164077Y551219D2*
X166000Y552192D1*
X168874Y555044D1*
Y534970D1*
X178874D2*
X188447Y555044D1*
X175050D1*
X506381Y788288D2*
X505431Y790189D1*
X503507Y792113D1*
X501606Y793064D1*
X497782D1*
X495858Y792113D1*
X493957Y790189D1*
X492984Y788288D1*
X492034Y785414D1*
Y780617D1*
X492984Y777765D1*
X493957Y775842D1*
X495858Y773940D1*
X497782Y772968D1*
X501606D1*
X503507Y773940D1*
X505431Y775842D1*
X506381Y777765D1*
X512557Y789217D2*
X514481Y790189D1*
X517355Y793041D1*
Y772968D1*
X535977Y786365D2*
X535004Y783491D1*
X533103Y781567D1*
X530229Y780617D1*
X529278D1*
X526404Y781567D1*
X524503Y783491D1*
X523530Y786365D1*
Y787315D1*
X524503Y790189D1*
X526404Y792091D1*
X529278Y793041D1*
X530229D1*
X533103Y792091D1*
X535004Y790189D1*
X535977Y786365D1*
Y781567D1*
X535004Y776792D1*
X533103Y773918D1*
X530229Y772968D1*
X528328D1*
X525454Y773918D1*
X524503Y775842D1*
X204712Y1041901D2*
X202811Y1040950D1*
X200887Y1039027D1*
X199937Y1037126D1*
Y1033301D1*
X200887Y1031378D1*
X202811Y1029476D1*
X204712Y1028504D1*
X207586Y1027553D1*
X212383D1*
X215235Y1028504D1*
X217159Y1029476D1*
X219060Y1031378D1*
X220033Y1033301D1*
Y1037126D1*
X219060Y1039027D1*
X217159Y1040950D1*
X215235Y1041901D1*
X204734Y1049049D2*
X203783D1*
X201860Y1050000D1*
X200909Y1050951D1*
X199959Y1052874D1*
Y1056699D1*
X200909Y1058600D1*
X201860Y1059551D1*
X203783Y1060523D1*
X205685D1*
X207608Y1059551D1*
X210460Y1057649D1*
X220033Y1048077D1*
Y1061474D1*
X203783Y1067650D2*
X202811Y1069573D1*
X199959Y1072447D1*
X220033D1*
X19709Y871606D2*
X17808Y870656D1*
X15885Y868732D1*
X14934Y866831D1*
Y863006D1*
X15885Y861083D1*
X17808Y859182D1*
X19709Y858209D1*
X22583Y857258D1*
X27381D1*
X30232Y858209D1*
X32156Y859182D1*
X34057Y861083D1*
X35030Y863006D1*
Y866831D1*
X34057Y868732D1*
X32156Y870656D1*
X30233Y871606D1*
X19731Y878755D2*
X18781D1*
X16857Y879705D1*
X15907Y880656D1*
X14956Y882579D1*
Y886404D1*
X15907Y888305D1*
X16857Y889256D1*
X18781Y890229D1*
X20682D1*
X22605Y889256D1*
X25457Y887355D1*
X35030Y877782D1*
Y891179D1*
X14956Y899278D2*
Y909780D1*
X22605Y904054D1*
Y906928D1*
X23556Y908829D1*
X24507Y909780D1*
X27381Y910752D1*
X29282D1*
X32156Y909780D1*
X34079Y907878D1*
X35030Y905004D1*
Y902130D1*
X34079Y899278D1*
X33107Y898328D1*
X31205Y897355D1*
X817992Y530417D2*
X817041Y532318D1*
X815118Y534241D1*
X813217Y535192D1*
X809392D1*
X807469Y534241D1*
X805567Y532318D1*
X804595Y530417D1*
X803644Y527543D1*
Y522745D1*
X804595Y519894D1*
X805567Y517970D1*
X807469Y516069D1*
X809392Y515096D1*
X813217D1*
X815118Y516069D1*
X817041Y517970D1*
X817992Y519894D1*
X825140Y530395D2*
Y531345D1*
X826091Y533269D1*
X827042Y534219D1*
X828965Y535170D1*
X832790D1*
X834691Y534219D1*
X835642Y533269D1*
X836614Y531345D1*
Y529444D1*
X835642Y527521D1*
X833740Y524669D1*
X824168Y515096D1*
X837565D1*
X855215Y535170D2*
X845664D1*
X844714Y526570D1*
X845664Y527521D1*
X848538Y528493D1*
X851390D1*
X854264Y527521D1*
X856187Y525619D1*
X857138Y522745D1*
Y520844D1*
X856187Y517970D1*
X854264Y516047D1*
X851390Y515096D1*
X848538D1*
X845664Y516047D1*
X844714Y517019D1*
X843741Y518921D1*
X989502Y503288D2*
X988551Y505189D1*
X986628Y507113D1*
X984727Y508064D1*
X980902D1*
X978979Y507113D1*
X977077Y505189D1*
X976105Y503288D1*
X975154Y500414D1*
Y495617D1*
X976105Y492765D1*
X977077Y490842D1*
X978979Y488940D1*
X980902Y487968D1*
X984727D1*
X986628Y488940D1*
X988551Y490842D1*
X989502Y492765D1*
X996650Y503266D2*
Y504217D1*
X997601Y506140D1*
X998552Y507091D1*
X1000475Y508041D1*
X1004300D1*
X1006201Y507091D1*
X1007152Y506140D1*
X1008124Y504217D1*
Y502315D1*
X1007152Y500392D1*
X1005250Y497540D1*
X995678Y487968D1*
X1009075D1*
X1026725Y505189D2*
X1025774Y507091D1*
X1022900Y508041D1*
X1020999D1*
X1018125Y507091D1*
X1016201Y504217D1*
X1015251Y499441D1*
Y494666D1*
X1016201Y490842D1*
X1018125Y488918D1*
X1020999Y487968D1*
X1021949D1*
X1024801Y488918D1*
X1026725Y490842D1*
X1027675Y493716D1*
Y494666D1*
X1026725Y497540D1*
X1024801Y499441D1*
X1021949Y500392D1*
X1020999D1*
X1018125Y499441D1*
X1016201Y497540D1*
X1015251Y494666D1*
X1100189Y504293D2*
X1099238Y506195D1*
X1097315Y508118D1*
X1095414Y509069D1*
X1091589D1*
X1089666Y508118D1*
X1087764Y506195D1*
X1086792Y504293D1*
X1085841Y501419D1*
Y496622D1*
X1086792Y493770D1*
X1087764Y491847D1*
X1089666Y489945D1*
X1091589Y488973D1*
X1095414D1*
X1097315Y489945D1*
X1099238Y491847D1*
X1100189Y493770D1*
X1107337Y504271D2*
Y505222D1*
X1108288Y507145D1*
X1109239Y508096D1*
X1111162Y509047D1*
X1114987D1*
X1116888Y508096D1*
X1117839Y507145D1*
X1118811Y505222D1*
Y503321D1*
X1117839Y501397D1*
X1115937Y498545D1*
X1106365Y488973D1*
X1119762D1*
X1129762D2*
X1139335Y509047D1*
X1125938D1*
X814006Y747522D2*
X813055Y749423D1*
X811132Y751346D1*
X809230Y752297D1*
X805406D1*
X803482Y751346D1*
X801581Y749423D1*
X800608Y747522D1*
X799658Y744648D1*
Y739850D1*
X800608Y736998D1*
X801581Y735075D1*
X803482Y733174D1*
X805406Y732201D1*
X809230D1*
X811132Y733174D1*
X813055Y735075D1*
X814006Y736998D1*
X821154Y747500D2*
Y748450D1*
X822105Y750374D1*
X823055Y751324D1*
X824979Y752275D1*
X828803D1*
X830705Y751324D1*
X831655Y750374D1*
X832628Y748450D1*
Y746549D1*
X831655Y744626D1*
X829754Y741774D1*
X820181Y732201D1*
X833579D1*
X844530Y752275D2*
X841678Y751324D1*
X840705Y749423D1*
Y747500D1*
X841678Y745598D1*
X843579Y744626D1*
X847404Y743675D1*
X850278Y742724D1*
X852179Y740801D1*
X853130Y738900D1*
Y736026D1*
X852179Y734124D1*
X851228Y733152D1*
X848354Y732201D1*
X844530D1*
X841678Y733152D1*
X840705Y734124D1*
X839754Y736026D1*
Y738900D1*
X840705Y740801D1*
X842628Y742724D1*
X845480Y743675D1*
X849305Y744626D1*
X851228Y745598D1*
X852179Y747500D1*
Y749423D1*
X851228Y751324D1*
X848354Y752275D1*
X844530D1*
X11707Y681601D2*
X9805Y680650D1*
X7882Y678727D1*
X6931Y676826D1*
Y673001D1*
X7882Y671078D1*
X9805Y669176D1*
X11707Y668204D1*
X14581Y667253D1*
X19378D1*
X22230Y668204D1*
X24153Y669176D1*
X26055Y671078D1*
X27027Y673001D1*
Y676826D1*
X26055Y678727D1*
X24153Y680650D1*
X22230Y681601D1*
X6953Y689700D2*
Y700201D1*
X14603Y694475D1*
Y697349D1*
X15553Y699251D1*
X16504Y700201D1*
X19378Y701174D1*
X21279D1*
X24153Y700201D1*
X26077Y698300D1*
X27027Y695426D1*
Y692552D1*
X26077Y689700D1*
X25104Y688749D1*
X23203Y687777D1*
X6953Y713098D2*
X7904Y710224D1*
X10778Y708300D1*
X15553Y707350D1*
X18427D1*
X23203Y708300D1*
X26077Y710224D1*
X27027Y713098D1*
Y714999D1*
X26077Y717873D1*
X23203Y719774D1*
X18427Y720747D1*
X15553D1*
X10778Y719774D1*
X7904Y717873D1*
X6953Y714999D1*
Y713098D1*
X10778Y719774D2*
X23203Y708300D1*
X988604Y1447293D2*
X987653Y1449195D1*
X985730Y1451118D1*
X983828Y1452069D1*
X980004D1*
X978080Y1451118D1*
X976179Y1449195D1*
X975206Y1447293D1*
X974256Y1444419D1*
Y1439622D1*
X975206Y1436770D1*
X976179Y1434847D1*
X978080Y1432945D1*
X980004Y1431973D1*
X983828D1*
X985730Y1432945D1*
X987653Y1434847D1*
X988604Y1436770D1*
X996703Y1452047D2*
X1007204D1*
X1001478Y1444397D1*
X1004352D1*
X1006253Y1443447D1*
X1007204Y1442496D1*
X1008177Y1439622D1*
Y1437721D1*
X1007204Y1434847D1*
X1005303Y1432923D1*
X1002429Y1431973D1*
X999555D1*
X996703Y1432923D1*
X995752Y1433896D1*
X994779Y1435797D1*
X1016276Y1452047D2*
X1026777D1*
X1021051Y1444397D1*
X1023925D1*
X1025826Y1443447D1*
X1026777Y1442496D1*
X1027750Y1439622D1*
Y1437721D1*
X1026777Y1434847D1*
X1024876Y1432923D1*
X1022002Y1431973D1*
X1019128D1*
X1016276Y1432923D1*
X1015325Y1433896D1*
X1014352Y1435797D1*
X1068712Y1192126D2*
X1066811Y1191175D1*
X1064887Y1189252D1*
X1063937Y1187350D1*
Y1183526D1*
X1064887Y1181602D1*
X1066811Y1179701D1*
X1068712Y1178728D1*
X1071586Y1177778D1*
X1076383D1*
X1079235Y1178728D1*
X1081159Y1179701D1*
X1083060Y1181602D1*
X1084033Y1183526D1*
Y1187350D1*
X1083060Y1189252D1*
X1081159Y1191175D1*
X1079235Y1192126D1*
X1063959Y1200225D2*
Y1210726D1*
X1071608Y1205000D1*
Y1207874D1*
X1072559Y1209775D1*
X1073509Y1210726D1*
X1076383Y1211699D1*
X1078285D1*
X1081159Y1210726D1*
X1083082Y1208825D1*
X1084033Y1205951D1*
Y1203077D1*
X1083082Y1200225D1*
X1082109Y1199274D1*
X1080208Y1198301D1*
X1084033Y1227447D2*
X1063959D1*
X1077334Y1217874D1*
Y1232222D1*
X741260Y1091902D2*
X739359Y1090951D1*
X737436Y1089028D1*
X736485Y1087126D1*
Y1083302D1*
X737436Y1081378D1*
X739359Y1079477D1*
X741260Y1078504D1*
X744134Y1077554D1*
X748932D1*
X751784Y1078504D1*
X753707Y1079477D1*
X755608Y1081378D1*
X756581Y1083302D1*
Y1087126D1*
X755608Y1089028D1*
X753707Y1090951D1*
X751784Y1091902D1*
X736507Y1100001D2*
Y1110502D1*
X744157Y1104776D1*
Y1107650D1*
X745107Y1109551D1*
X746058Y1110502D1*
X748932Y1111475D1*
X750833D1*
X753707Y1110502D1*
X755630Y1108601D1*
X756581Y1105726D1*
Y1102852D1*
X755630Y1100001D1*
X754658Y1099050D1*
X752756Y1098077D1*
X736507Y1129124D2*
Y1119574D1*
X745107Y1118623D1*
X744157Y1119574D1*
X743184Y1122448D1*
Y1125300D1*
X744157Y1128174D1*
X746058Y1130097D1*
X748932Y1131048D1*
X750833D1*
X753707Y1130097D1*
X755630Y1128174D1*
X756581Y1125300D1*
Y1122448D1*
X755630Y1119574D1*
X754658Y1118623D1*
X752756Y1117650D1*
X772819Y1092388D2*
X770918Y1091437D1*
X768995Y1089514D1*
X768044Y1087613D1*
Y1083788D1*
X768995Y1081865D1*
X770918Y1079963D1*
X772819Y1078991D1*
X775693Y1078040D1*
X780491D1*
X783343Y1078991D1*
X785266Y1079963D1*
X787167Y1081865D1*
X788140Y1083788D1*
Y1087613D1*
X787167Y1089514D1*
X785266Y1091437D1*
X783343Y1092388D1*
X768066Y1100487D2*
Y1110988D1*
X775716Y1105262D1*
Y1108136D1*
X776666Y1110038D1*
X777617Y1110988D1*
X780491Y1111961D1*
X782392D1*
X785266Y1110988D1*
X787190Y1109087D1*
X788140Y1106213D1*
Y1103339D1*
X787190Y1100487D1*
X786217Y1099536D1*
X784316Y1098564D1*
X770918Y1129611D2*
X769017Y1128660D1*
X768066Y1125786D1*
Y1123885D1*
X769017Y1121011D1*
X771891Y1119087D1*
X776666Y1118137D1*
X781441D1*
X785266Y1119087D1*
X787189Y1121011D1*
X788140Y1123885D1*
Y1124835D1*
X787189Y1127687D1*
X785266Y1129611D1*
X782392Y1130561D1*
X781441D1*
X778567Y1129611D1*
X776666Y1127687D1*
X775716Y1124835D1*
Y1123885D1*
X776666Y1121011D1*
X778567Y1119087D1*
X781441Y1118137D1*
X804384Y1091899D2*
X802482Y1090948D1*
X800559Y1089025D1*
X799608Y1087124D1*
Y1083299D1*
X800559Y1081376D1*
X802482Y1079474D1*
X804384Y1078502D1*
X807258Y1077551D1*
X812055D1*
X814907Y1078502D1*
X816830Y1079474D1*
X818732Y1081376D1*
X819704Y1083299D1*
Y1087124D1*
X818732Y1089025D1*
X816830Y1090948D1*
X814907Y1091899D1*
X799631Y1099998D2*
Y1110499D1*
X807280Y1104773D1*
Y1107647D1*
X808231Y1109549D1*
X809181Y1110499D1*
X812055Y1111472D1*
X813956D1*
X816830Y1110499D1*
X818754Y1108598D1*
X819704Y1105724D1*
Y1102850D1*
X818754Y1099998D1*
X817781Y1099047D1*
X815880Y1098075D1*
X819704Y1121472D2*
X799631Y1131045D1*
Y1117648D1*
X500588Y1094612D2*
X498687Y1093661D1*
X496764Y1091738D1*
X495813Y1089837D1*
Y1086012D1*
X496764Y1084089D1*
X498687Y1082188D1*
X500588Y1081215D1*
X503462Y1080264D1*
X508260D1*
X511112Y1081215D1*
X513035Y1082188D1*
X514936Y1084089D1*
X515909Y1086012D1*
Y1089837D1*
X514936Y1091738D1*
X513035Y1093661D1*
X511112Y1094612D1*
X495835Y1102711D2*
Y1113212D1*
X503485Y1107486D1*
Y1110360D1*
X504435Y1112262D1*
X505386Y1113212D1*
X508260Y1114185D1*
X510161D1*
X513035Y1113212D1*
X514959Y1111311D1*
X515909Y1108437D1*
Y1105563D1*
X514959Y1102711D1*
X513986Y1101760D1*
X512085Y1100788D1*
X495835Y1125136D2*
X496786Y1122284D1*
X498687Y1121311D1*
X500611D1*
X502512Y1122284D1*
X503485Y1124185D1*
X504435Y1128010D1*
X505386Y1130884D1*
X507309Y1132785D1*
X509210Y1133736D1*
X512085D1*
X513986Y1132785D1*
X514959Y1131835D1*
X515909Y1128961D1*
Y1125136D1*
X514959Y1122284D1*
X513986Y1121311D1*
X512085Y1120361D1*
X509211D1*
X507309Y1121311D1*
X505386Y1123235D1*
X504435Y1126087D1*
X503485Y1129911D1*
X502512Y1131835D1*
X500611Y1132785D1*
X498687D1*
X496786Y1131835D1*
X495835Y1128961D1*
Y1125136D1*
X531148Y1094079D2*
X529246Y1093128D1*
X527323Y1091205D1*
X526372Y1089304D1*
Y1085479D1*
X527323Y1083556D1*
X529246Y1081654D1*
X531147Y1080682D1*
X534021Y1079731D1*
X538819D1*
X541671Y1080682D1*
X543594Y1081654D1*
X545495Y1083556D1*
X546468Y1085479D1*
Y1089304D1*
X545496Y1091205D1*
X543594Y1093128D1*
X541671Y1094079D1*
X526394Y1102178D2*
Y1112679D1*
X534044Y1106953D1*
Y1109827D1*
X534994Y1111729D1*
X535945Y1112679D1*
X538819Y1113652D1*
X540720D1*
X543594Y1112679D1*
X545518Y1110778D1*
X546468Y1107904D1*
Y1105030D1*
X545518Y1102178D1*
X544545Y1101227D1*
X542644Y1100255D1*
X533071Y1132274D2*
X535945Y1131302D1*
X537868Y1129400D1*
X538819Y1126526D1*
Y1125576D1*
X537868Y1122702D1*
X535945Y1120800D1*
X533071Y1119828D1*
X532120D1*
X529246Y1120800D1*
X527345Y1122702D1*
X526394Y1125576D1*
Y1126526D1*
X527345Y1129400D1*
X529246Y1131302D1*
X533071Y1132274D1*
X537868D1*
X542644Y1131302D1*
X545518Y1129400D1*
X546468Y1126526D1*
Y1124625D1*
X545518Y1121751D1*
X543594Y1120800D1*
X561712Y1094126D2*
X559811Y1093175D1*
X557887Y1091252D1*
X556937Y1089350D1*
Y1085526D1*
X557887Y1083602D1*
X559811Y1081701D1*
X561712Y1080728D1*
X564586Y1079778D1*
X569383D1*
X572235Y1080728D1*
X574159Y1081701D1*
X576060Y1083602D1*
X577033Y1085526D1*
Y1089350D1*
X576060Y1091252D1*
X574159Y1093175D1*
X572235Y1094126D1*
X577033Y1109874D2*
X556959D1*
X570334Y1100301D1*
Y1114649D1*
X556959Y1126573D2*
X557909Y1123699D1*
X560783Y1121776D1*
X565559Y1120825D1*
X568433D1*
X573208Y1121776D1*
X576082Y1123699D1*
X577033Y1126573D1*
Y1128474D1*
X576082Y1131348D1*
X573208Y1133250D1*
X568433Y1134222D1*
X565559D1*
X560783Y1133250D1*
X557909Y1131348D1*
X556959Y1128474D1*
Y1126573D1*
X560783Y1133250D2*
X573208Y1121776D1*
X591260Y1094426D2*
X589359Y1093475D1*
X587436Y1091552D1*
X586485Y1089650D1*
Y1085826D1*
X587436Y1083902D1*
X589359Y1082001D1*
X591260Y1081028D1*
X594134Y1080078D1*
X598932D1*
X601784Y1081028D1*
X603707Y1082001D1*
X605608Y1083902D1*
X606581Y1085826D1*
Y1089650D1*
X605608Y1091552D1*
X603707Y1093475D1*
X601784Y1094426D1*
X606581Y1110174D2*
X586507D1*
X599882Y1100601D1*
Y1114949D1*
X590332Y1121125D2*
X589359Y1123048D1*
X586507Y1125922D1*
X606581D1*
X1204812Y1261284D2*
Y1241188D1*
X1211511D1*
X1214385Y1242161D1*
X1216308Y1244062D1*
X1217259Y1245985D1*
X1218209Y1248837D1*
Y1253635D1*
X1217259Y1256509D1*
X1216308Y1258410D1*
X1214385Y1260333D1*
X1211511Y1261284D1*
X1204812D1*
X1224385Y1257437D2*
X1226309Y1258410D1*
X1229183Y1261262D1*
Y1241188D1*
X742083Y992662D2*
X762179D1*
X762180Y999361D1*
X761207Y1002235D1*
X759306Y1004158D1*
X757382Y1005109D1*
X754530Y1006059D1*
X749733D1*
X746859Y1005109D1*
X744958Y1004158D1*
X743034Y1002235D1*
X742084Y999361D1*
X742083Y992662D1*
X746881Y1013208D2*
X745930D1*
X744007Y1014158D1*
X743056Y1015109D1*
X742106Y1017032D1*
Y1020857D1*
X743056Y1022758D1*
X744007Y1023709D1*
X745930Y1024682D1*
X747832D1*
X749755Y1023709D1*
X752607Y1021808D1*
X762180Y1012235D1*
Y1025632D1*
X742965Y913654D2*
X763061D1*
Y920353D1*
X762089Y923227D1*
X760187Y925150D1*
X758264Y926101D1*
X755412Y927051D1*
X750615D1*
X747741Y926101D1*
X745839Y925150D1*
X743916Y923227D1*
X742965Y920353D1*
Y913654D1*
X742988Y935150D2*
Y945652D1*
X750637Y939926D1*
Y942800D1*
X751587Y944701D1*
X752538Y945652D1*
X755412Y946624D1*
X757313D1*
X760187Y945652D1*
X762111Y943750D1*
X763061Y940876D1*
Y938002D1*
X762111Y935150D1*
X761138Y934200D1*
X759237Y933227D1*
X502034Y978987D2*
Y958891D1*
X508733D1*
X511607Y959864D1*
X513530Y961765D1*
X514481Y963689D1*
X515432Y966541D1*
Y971338D1*
X514481Y974212D1*
X513530Y976113D1*
X511607Y978037D1*
X508733Y978987D1*
X502034D1*
X531180Y958891D2*
Y978965D1*
X521607Y965590D1*
X535955D1*
X20544Y1429893D2*
Y1414594D1*
X19593Y1411720D1*
X18621Y1410770D1*
X16719Y1409797D1*
X14796D1*
X12895Y1410770D1*
X11944Y1411720D1*
X10971Y1414594D1*
Y1416496D1*
X26720Y1426046D2*
X28643Y1427019D1*
X31517Y1429871D1*
Y1409797D1*
X134921Y1205483D2*
Y1190185D1*
X133970Y1187311D1*
X132998Y1186360D1*
X131096Y1185387D1*
X129173D1*
X127272Y1186360D1*
X126321Y1187311D1*
X125348Y1190185D1*
Y1192086D1*
X142070Y1200686D2*
Y1201637D1*
X143020Y1203560D1*
X143971Y1204511D1*
X145894Y1205461D1*
X149719D1*
X151620Y1204511D1*
X152571Y1203560D1*
X153543Y1201637D1*
Y1199735D1*
X152571Y1197812D1*
X150669Y1194960D1*
X141097Y1185387D1*
X154494D1*
X1303493Y1702885D2*
Y1687586D1*
X1302543Y1684712D1*
X1301570Y1683762D1*
X1299669Y1682789D1*
X1297745D1*
X1295844Y1683762D1*
X1294893Y1684712D1*
X1293921Y1687586D1*
Y1689488D1*
X1311592Y1702863D2*
X1322094D1*
X1316368Y1695214D1*
X1319242D1*
X1321143Y1694263D1*
X1322094Y1693312D1*
X1323066Y1690438D1*
Y1688537D1*
X1322094Y1685663D1*
X1320192Y1683740D1*
X1317318Y1682789D1*
X1314444D1*
X1311592Y1683740D1*
X1310642Y1684712D1*
X1309669Y1686614D1*
X19795Y1459486D2*
Y1444187D1*
X18844Y1441313D1*
X17871Y1440363D1*
X15970Y1439390D1*
X14047D1*
X12146Y1440363D1*
X11195Y1441313D1*
X10222Y1444187D1*
Y1446089D1*
X35543Y1439390D2*
Y1459464D1*
X25971Y1446089D1*
X40319D1*
X613005Y1352281D2*
Y1336983D1*
X612054Y1334109D1*
X611082Y1333158D1*
X609180Y1332185D1*
X607257D1*
X605356Y1333158D1*
X604405Y1334109D1*
X603432Y1336983D1*
Y1338884D1*
X630655Y1352259D2*
X621104D1*
X620154Y1343659D1*
X621104Y1344610D1*
X623978Y1345583D1*
X626830D1*
X629704Y1344610D1*
X631627Y1342709D1*
X632578Y1339835D1*
Y1337933D1*
X631627Y1335059D1*
X629704Y1333136D1*
X626830Y1332185D1*
X623978D1*
X621104Y1333136D1*
X620154Y1334109D1*
X619181Y1336010D1*
X1305982Y741494D2*
Y726195D1*
X1305032Y723321D1*
X1304059Y722371D1*
X1302158Y721398D1*
X1300234D1*
X1298333Y722371D1*
X1297382Y723321D1*
X1296410Y726195D1*
Y728097D1*
X1323632Y738620D2*
X1322681Y740521D1*
X1319807Y741472D1*
X1317906D1*
X1315032Y740521D1*
X1313109Y737647D1*
X1312158Y732872D1*
Y728097D1*
X1313109Y724272D1*
X1315032Y722349D1*
X1317906Y721398D1*
X1318857D1*
X1321709Y722349D1*
X1323632Y724272D1*
X1324583Y727146D1*
Y728097D1*
X1323632Y730971D1*
X1321709Y732872D1*
X1318857Y733823D1*
X1317906D1*
X1315032Y732872D1*
X1313109Y730971D1*
X1312158Y728097D1*
X1308005Y546306D2*
Y531008D1*
X1307054Y528134D1*
X1306082Y527183D1*
X1304180Y526210D1*
X1302257D1*
X1300356Y527183D1*
X1299405Y528134D1*
X1298432Y531008D1*
Y532909D1*
X1318005Y526210D2*
X1327578Y546284D1*
X1314181D1*
X999721Y908649D2*
Y888553D1*
X1011195D1*
X1017371Y904802D2*
X1019294Y905775D1*
X1022168Y908627D1*
Y888553D1*
X404046Y925273D2*
X402145Y924345D1*
X400221Y922422D1*
X399271Y920498D1*
X398298Y917624D1*
Y912849D1*
X399271Y909975D1*
X400221Y908074D1*
X402145Y906150D1*
X404046Y905200D1*
X407871D1*
X409794Y906150D1*
X411695Y908074D1*
X412646Y909975D1*
X413619Y912849D1*
Y917624D1*
X412646Y920498D1*
X411695Y922422D1*
X409794Y924345D1*
X407871Y925273D1*
X404046D1*
X406920Y909024D2*
X412646Y903276D1*
X419794Y921427D2*
X421718Y922399D1*
X424592Y925251D1*
Y905177D1*
X307815Y1508496D2*
X316415D1*
X319289Y1509469D1*
X320261Y1510419D1*
X321212Y1512321D1*
Y1514244D1*
X320261Y1516145D1*
X319289Y1517118D1*
X316415Y1518069D1*
X307815D1*
Y1497973D1*
X314513Y1508496D2*
X321212Y1497973D1*
X327388Y1514222D2*
X329311Y1515195D1*
X332185Y1518047D1*
Y1497973D1*
X143669Y1374153D2*
Y1382753D1*
X142697Y1385627D1*
X141746Y1386599D1*
X139845Y1387550D1*
X137921D1*
X136020Y1386599D1*
X135047Y1385627D1*
X134097Y1382753D1*
Y1374153D1*
X154193D1*
X143669Y1380851D2*
X154193Y1387550D1*
X138894Y1394698D2*
X137943D1*
X136020Y1395649D1*
X135069Y1396600D1*
X134119Y1398523D1*
Y1402348D1*
X135069Y1404249D1*
X136020Y1405200D1*
X137943Y1406172D1*
X139845D1*
X141768Y1405200D1*
X144620Y1403298D1*
X154193Y1393726D1*
Y1407123D1*
X311415Y1417814D2*
X320015D1*
X322889Y1418786D1*
X323862Y1419737D1*
X324812Y1421638D1*
Y1423562D1*
X323862Y1425463D1*
X322889Y1426436D1*
X320015Y1427386D1*
X311415D1*
Y1407290D1*
X318114Y1417814D2*
X324812Y1407290D1*
X332911Y1427364D2*
X343413D1*
X337687Y1419715D1*
X340561D1*
X342462Y1418764D1*
X343413Y1417814D1*
X344385Y1414940D1*
Y1413038D1*
X343413Y1410164D1*
X341511Y1408241D1*
X338637Y1407290D1*
X335763D1*
X332911Y1408241D1*
X331961Y1409214D1*
X330988Y1411115D1*
X500063Y1473496D2*
X508663D1*
X511537Y1474469D1*
X512510Y1475419D1*
X513460Y1477321D1*
Y1479244D1*
X512510Y1481145D1*
X511537Y1482118D1*
X508663Y1483069D1*
X500063D1*
Y1462973D1*
X506762Y1473496D2*
X513460Y1462973D1*
X529209D2*
Y1483047D1*
X519636Y1469671D1*
X533984D1*
X388924Y1473496D2*
X397524D1*
X400398Y1474469D1*
X401371Y1475419D1*
X402322Y1477321D1*
Y1479244D1*
X401371Y1481145D1*
X400398Y1482118D1*
X397524Y1483069D1*
X388924D1*
Y1462973D1*
X395623Y1473496D2*
X402322Y1462973D1*
X419971Y1483047D2*
X410421D1*
X409470Y1474447D1*
X410421Y1475397D1*
X413295Y1476370D1*
X416147D1*
X419021Y1475397D1*
X420944Y1473496D1*
X421895Y1470622D1*
Y1468721D1*
X420944Y1465847D1*
X419021Y1463923D1*
X416147Y1462973D1*
X413295D1*
X410421Y1463923D1*
X409470Y1464896D1*
X408497Y1466797D1*
X249001Y1666087D2*
X257601D1*
X260475Y1667059D1*
X261448Y1668010D1*
X262399Y1669911D1*
Y1671835D1*
X261448Y1673736D1*
X260475Y1674709D1*
X257601Y1675659D1*
X249001D1*
Y1655563D1*
X255700Y1666087D2*
X262399Y1655563D1*
X280048Y1672785D2*
X279098Y1674687D1*
X276224Y1675637D1*
X274322D1*
X271448Y1674687D1*
X269525Y1671813D1*
X268574Y1667037D1*
Y1662262D1*
X269525Y1658437D1*
X271448Y1656514D1*
X274322Y1655563D1*
X275273D1*
X278125Y1656514D1*
X280048Y1658437D1*
X280999Y1661311D1*
Y1662262D1*
X280048Y1665136D1*
X278125Y1667037D1*
X275273Y1667988D1*
X274322D1*
X271448Y1667037D1*
X269525Y1665136D1*
X268574Y1662262D1*
X1215507Y1311515D2*
Y1320115D1*
X1214534Y1322989D1*
X1213583Y1323962D1*
X1211682Y1324912D1*
X1209759D1*
X1207857Y1323962D1*
X1206885Y1322989D1*
X1205934Y1320115D1*
Y1311515D1*
X1226030D1*
X1215507Y1318214D2*
X1226030Y1324912D1*
Y1334913D2*
X1205956Y1344485D1*
Y1331088D1*
X1215507Y1403529D2*
Y1412129D1*
X1214534Y1415003D1*
X1213583Y1415975D1*
X1211682Y1416926D1*
X1209759D1*
X1207857Y1415975D1*
X1206885Y1415003D1*
X1205934Y1412129D1*
Y1403529D1*
X1226030D1*
X1215507Y1410227D2*
X1226030Y1416926D1*
X1205956Y1427877D2*
X1206907Y1425025D1*
X1208808Y1424052D1*
X1210731D1*
X1212633Y1425025D1*
X1213605Y1426926D1*
X1214556Y1430751D1*
X1215507Y1433625D1*
X1217430Y1435526D1*
X1219331Y1436477D1*
X1222205D1*
X1224107Y1435526D1*
X1225079Y1434575D1*
X1226030Y1431701D1*
Y1427877D1*
X1225079Y1425025D1*
X1224107Y1424052D1*
X1222205Y1423102D1*
X1219331D1*
X1217430Y1424052D1*
X1215507Y1425976D1*
X1214556Y1428827D1*
X1213605Y1432652D1*
X1212633Y1434576D1*
X1210731Y1435526D1*
X1208808D1*
X1206907Y1434576D1*
X1205956Y1431702D1*
Y1427877D1*
X874851Y1475491D2*
X883451D1*
X886325Y1476464D1*
X887298Y1477414D1*
X888248Y1479315D1*
Y1481239D1*
X887298Y1483140D1*
X886325Y1484113D1*
X883451Y1485064D1*
X874851D1*
Y1464968D1*
X881550Y1475491D2*
X888248Y1464968D1*
X906871Y1478365D2*
X905898Y1475491D1*
X903997Y1473567D1*
X901123Y1472617D1*
X900172D1*
X897298Y1473567D1*
X895397Y1475491D1*
X894424Y1478365D1*
Y1479315D1*
X895397Y1482189D1*
X897298Y1484091D1*
X900172Y1485041D1*
X901123D1*
X903997Y1484091D1*
X905898Y1482189D1*
X906871Y1478365D1*
Y1473567D1*
X905898Y1468792D1*
X903997Y1465918D1*
X901123Y1464968D1*
X899221D1*
X896347Y1465918D1*
X895397Y1467842D1*
X649663Y1473496D2*
X658263D1*
X661137Y1474469D1*
X662110Y1475419D1*
X663061Y1477321D1*
Y1479244D1*
X662110Y1481145D1*
X661137Y1482118D1*
X658263Y1483069D1*
X649663D1*
Y1462973D1*
X656362Y1473496D2*
X663061Y1462973D1*
X669236Y1479222D2*
X671160Y1480195D1*
X674034Y1483047D1*
Y1462973D1*
X685958Y1483047D2*
X683084Y1482096D1*
X681160Y1479222D1*
X680210Y1474447D1*
Y1471573D1*
X681160Y1466797D1*
X683084Y1463923D1*
X685958Y1462973D1*
X687859D1*
X690733Y1463923D1*
X692634Y1466797D1*
X693607Y1471573D1*
Y1474447D1*
X692634Y1479222D1*
X690733Y1482096D1*
X687859Y1483047D1*
X685958D1*
X692634Y1479222D2*
X681160Y1466797D1*
X761575Y1474493D2*
X770175D1*
X773049Y1475466D1*
X774022Y1476417D1*
X774972Y1478318D1*
Y1480241D1*
X774022Y1482143D1*
X773049Y1483115D1*
X770175Y1484066D1*
X761575D1*
Y1463970D1*
X768274Y1474493D2*
X774972Y1463970D1*
X781148Y1480219D2*
X783071Y1481192D1*
X785945Y1484044D1*
Y1463970D1*
X792121Y1480219D2*
X794044Y1481192D1*
X796918Y1484044D1*
Y1463970D1*
X282034Y1040491D2*
X290633D1*
X293507Y1041464D1*
X294480Y1042414D1*
X295431Y1044315D1*
Y1046239D1*
X294480Y1048140D1*
X293507Y1049113D1*
X290633Y1050064D1*
X282034D1*
Y1029968D1*
X288732Y1040491D2*
X295431Y1029968D1*
X301607Y1046217D2*
X303530Y1047189D1*
X306404Y1050041D1*
Y1029968D1*
X313552Y1045266D2*
Y1046217D1*
X314503Y1048140D1*
X315454Y1049091D1*
X317377Y1050041D1*
X321202D1*
X323103Y1049091D1*
X324054Y1048140D1*
X325026Y1046217D1*
Y1044315D1*
X324054Y1042392D1*
X322152Y1039540D1*
X312580Y1029968D1*
X325977D1*
X334127Y1580522D2*
Y1566174D1*
X335078Y1563300D1*
X337001Y1561398D1*
X339875Y1560426D1*
X341776D1*
X344650Y1561398D1*
X346574Y1563300D1*
X347524Y1566174D1*
Y1580522D1*
X353700Y1576675D2*
X355624Y1577647D1*
X358498Y1580499D1*
Y1560426D1*
X373512Y883747D2*
Y869399D1*
X374463Y866525D1*
X376386Y864624D1*
X379260Y863651D1*
X381161D1*
X384036Y864624D1*
X385959Y866525D1*
X386910Y869399D1*
Y883747D1*
X394058Y878950D2*
Y879900D1*
X395009Y881824D1*
X395959Y882774D1*
X397883Y883725D1*
X401707D1*
X403609Y882774D1*
X404559Y881824D1*
X405532Y879900D1*
Y877999D1*
X404559Y876076D1*
X402658Y873224D1*
X393085Y863651D1*
X406483D1*
X903520Y521974D2*
Y507626D1*
X904471Y504752D1*
X906394Y502851D1*
X909268Y501878D1*
X911169D1*
X914043Y502851D1*
X915967Y504752D1*
X916917Y507626D1*
Y521974D1*
X925016Y521952D2*
X935518D1*
X929792Y514303D1*
X932666D1*
X934567Y513352D1*
X935518Y512402D1*
X936490Y509528D1*
Y507626D1*
X935518Y504752D1*
X933616Y502829D1*
X930742Y501878D1*
X927868D1*
X925016Y502829D1*
X924066Y503802D1*
X923093Y505703D1*
X7667Y559587D2*
Y545239D1*
X8617Y542365D1*
X10541Y540464D1*
X13415Y539491D1*
X15316D1*
X18190Y540464D1*
X20113Y542365D1*
X21064Y545239D1*
Y559587D1*
X36813Y539491D2*
Y559565D1*
X27240Y546190D1*
X41588D1*
X366332Y1401898D2*
Y1387550D1*
X367283Y1384676D1*
X369206Y1382775D1*
X372080Y1381802D1*
X373982D1*
X376856Y1382775D1*
X378779Y1384676D1*
X379730Y1387550D1*
Y1401898D1*
X397379Y1401876D2*
X387829D1*
X386878Y1393276D1*
X387829Y1394227D1*
X390703Y1395199D1*
X393555D1*
X396429Y1394227D1*
X398352Y1392325D1*
X399303Y1389451D1*
Y1387550D1*
X398352Y1384676D1*
X396429Y1382753D1*
X393555Y1381802D1*
X390703D1*
X387829Y1382753D1*
X386878Y1383726D1*
X385905Y1385627D1*
X973032Y1363096D2*
Y1348748D1*
X973983Y1345874D1*
X975906Y1343973D1*
X978780Y1343000D1*
X980681D1*
X983555Y1343973D1*
X985479Y1345874D1*
X986429Y1348748D1*
Y1363096D1*
X996430Y1343000D2*
X1006002Y1363074D1*
X992605D1*
X1197148Y628827D2*
Y614479D1*
X1198099Y611605D1*
X1200022Y609704D1*
X1202896Y608731D1*
X1204797D1*
X1207671Y609704D1*
X1209595Y611605D1*
X1210545Y614479D1*
Y628827D1*
X1221496Y628805D2*
X1218644Y627855D1*
X1217672Y625953D1*
Y624030D1*
X1218644Y622129D1*
X1220546Y621156D1*
X1224370Y620205D1*
X1227244Y619255D1*
X1229146Y617331D1*
X1230096Y615430D1*
Y612556D1*
X1229146Y610655D1*
X1228195Y609682D1*
X1225321Y608731D1*
X1221496D1*
X1218644Y609682D1*
X1217672Y610655D1*
X1216721Y612556D1*
Y615430D1*
X1217672Y617331D1*
X1219595Y619255D1*
X1222447Y620205D1*
X1226272Y621156D1*
X1228195Y622129D1*
X1229146Y624030D1*
Y625953D1*
X1228195Y627855D1*
X1225321Y628805D1*
X1221496D1*
X698875Y829570D2*
X706524Y819997D1*
Y809474D1*
X714173Y829570D2*
X706524Y819997D1*
X720349Y825723D2*
X722272Y826696D1*
X725146Y829548D1*
Y809474D1*
X703475Y645119D2*
X711124Y635546D1*
Y625023D1*
X718774Y645119D2*
X711124Y635546D1*
X725922Y640321D2*
Y641272D1*
X726873Y643195D1*
X727823Y644146D1*
X729747Y645097D1*
X733571D1*
X735473Y644146D1*
X736423Y643195D1*
X737396Y641272D1*
Y639371D1*
X736423Y637447D1*
X734522Y634595D1*
X724949Y625023D1*
X738347D1*
X1233484Y1049516D2*
D84*
X1249236D1*
X1240647Y1038042D1*
X1244958D1*
X1247810Y1036616D1*
X1249236Y1035190D1*
X1250695Y1030879D1*
Y1028027D1*
X1249236Y1023716D1*
X1246384Y1020831D1*
X1242073Y1019405D1*
X1237762D1*
X1233484Y1020831D1*
X1232058Y1022290D1*
X1230599Y1025142D1*
X1261385Y1022290D2*
X1259959Y1020831D1*
X1261385Y1019405D1*
X1262844Y1020831D1*
X1261385Y1022290D1*
X1274993Y1049516D2*
X1290744D1*
X1282156Y1038042D1*
X1286467D1*
X1289318Y1036616D1*
X1290744Y1035190D1*
X1292204Y1030879D1*
Y1028027D1*
X1290744Y1023716D1*
X1287892Y1020831D1*
X1283581Y1019405D1*
X1279270D1*
X1274993Y1020831D1*
X1273567Y1022290D1*
X1272108Y1025142D1*
X1301467Y1049549D2*
X1312941Y1019405D1*
X1324415Y1049549D1*
X1266121Y795376D2*
X1264695Y798228D1*
X1261810Y801113D1*
X1258958Y802539D1*
X1253221D1*
X1250336Y801113D1*
X1247484Y798228D1*
X1246025Y795376D1*
X1244599Y791065D1*
Y783869D1*
X1246025Y779591D1*
X1247484Y776706D1*
X1250336Y773854D1*
X1253221Y772395D1*
X1258958D1*
X1261810Y773854D1*
X1264695Y776706D1*
X1266121Y779591D1*
Y783869D1*
X1258958D1*
X1295481Y802539D2*
Y772395D1*
X1275385Y802539D1*
Y772395D1*
X1304744Y802539D2*
Y772395D1*
X1314792D1*
X1319103Y773854D1*
X1321989Y776706D1*
X1323414Y779591D1*
X1324840Y783869D1*
Y791065D1*
X1323414Y795376D1*
X1321989Y798228D1*
X1319103Y801113D1*
X1314792Y802539D1*
X1304744D1*
X1061998Y470762D2*
D83*
X1069647Y450666D1*
X1077297Y470762D1*
X1090171D2*
Y450666D1*
X1083472Y470762D2*
X1096870D1*
X1118366Y450666D2*
X1110695Y470762D1*
X1103045Y450666D1*
X1105919Y457365D2*
X1115492D1*
X1124542Y461190D2*
X1133142D1*
X1136016Y462163D1*
X1136988Y463113D1*
X1137939Y465014D1*
Y466938D1*
X1136988Y468839D1*
X1136016Y469812D1*
X1133142Y470762D1*
X1124542D1*
Y450666D1*
X1131240Y461190D2*
X1137939Y450666D1*
X1158463Y465987D2*
X1157512Y467888D1*
X1155589Y469812D1*
X1153687Y470762D1*
X1149863D1*
X1147939Y469812D1*
X1146038Y467888D1*
X1145065Y465987D1*
X1144115Y463113D1*
Y458316D1*
X1145065Y455464D1*
X1146038Y453540D1*
X1147939Y451639D1*
X1149863Y450666D1*
X1153687D1*
X1155589Y451639D1*
X1157512Y453540D1*
X1158463Y455464D1*
Y458316D1*
X1153687D1*
X64995Y1459765D2*
Y1439669D1*
X73617D1*
X76491Y1440642D1*
X77442Y1441592D1*
X78393Y1443494D1*
Y1446368D1*
X77442Y1448291D1*
X76491Y1449242D1*
X73617Y1450192D1*
X76491Y1451165D1*
X77442Y1452116D1*
X78393Y1454017D1*
Y1455940D1*
X77442Y1457842D1*
X76491Y1458814D1*
X73617Y1459765D1*
X64995D1*
Y1450192D2*
X73617D1*
X99889Y1439669D2*
X92218Y1459765D1*
X84568Y1439669D1*
X87442Y1446368D2*
X97015D1*
X112763Y1459765D2*
Y1439669D1*
X106065Y1459765D2*
X119462D1*
X132337D2*
Y1439669D1*
X125638Y1459765D2*
X139035D1*
X64995Y1429765D2*
X72645Y1409669D1*
X80294Y1429765D1*
X86470D2*
Y1409669D1*
X92645Y1429765D2*
Y1409669D1*
X101267D1*
X104141Y1410642D1*
X105092Y1411592D1*
X106043Y1413494D1*
Y1416368D1*
X105092Y1418291D1*
X104141Y1419242D1*
X101267Y1420192D1*
X104141Y1421165D1*
X105092Y1422116D1*
X106043Y1424017D1*
Y1425940D1*
X105092Y1427842D1*
X104141Y1428814D1*
X101267Y1429765D1*
X92645D1*
Y1420192D2*
X101267D1*
X51285Y1713078D2*
D85*
Y1678634D1*
X34085Y1695834D2*
X68529D1*
X1118346Y360987D2*
D83*
X1117395Y362888D1*
X1115472Y364812D1*
X1113571Y365762D1*
X1109746D1*
X1107823Y364812D1*
X1105921Y362888D1*
X1104949Y360987D1*
X1103998Y358113D1*
Y353316D1*
X1104949Y350464D1*
X1105921Y348540D1*
X1107823Y346639D1*
X1109746Y345666D1*
X1113571D1*
X1115472Y346639D1*
X1117395Y348540D1*
X1118346Y350464D1*
Y353316D1*
X1113571D1*
X1137919Y365762D2*
Y345666D1*
X1124522Y365762D1*
Y345666D1*
X1144095Y365762D2*
Y345666D1*
X1150793D1*
X1153667Y346639D1*
X1155591Y348540D1*
X1156541Y350464D1*
X1157492Y353316D1*
Y358113D1*
X1156541Y360987D1*
X1155591Y362888D1*
X1153667Y364812D1*
X1150793Y365762D1*
X1144095D1*
X1136349Y1568985D2*
X1135398Y1570886D1*
X1133475Y1572809D1*
X1131573Y1573760D1*
X1127749D1*
X1125825Y1572809D1*
X1123924Y1570886D1*
X1122951Y1568985D1*
X1122001Y1566111D1*
Y1561313D1*
X1122951Y1558461D1*
X1123924Y1556538D1*
X1125825Y1554637D1*
X1127749Y1553664D1*
X1131573D1*
X1133475Y1554637D1*
X1135398Y1556538D1*
X1136349Y1558461D1*
Y1561313D1*
X1131573D1*
X1155922Y1573760D2*
Y1553664D1*
X1142524Y1573760D1*
Y1553664D1*
X1162097Y1573760D2*
Y1553664D1*
X1168796D1*
X1171670Y1554637D1*
X1173593Y1556538D1*
X1174544Y1558461D1*
X1175495Y1561313D1*
Y1566111D1*
X1174544Y1568985D1*
X1173593Y1570886D1*
X1171670Y1572809D1*
X1168796Y1573760D1*
X1162097D1*
X1040001Y1621760D2*
Y1607412D1*
X1040951Y1604538D1*
X1042875Y1602637D1*
X1045749Y1601664D1*
X1047650D1*
X1050524Y1602637D1*
X1052447Y1604538D1*
X1053398Y1607412D1*
Y1621760D1*
X1074894Y1601664D2*
X1067223Y1621760D1*
X1059574Y1601664D1*
X1062448Y1608362D2*
X1072020D1*
X1081070Y1612187D2*
X1089670D1*
X1092544Y1613160D1*
X1093517Y1614111D1*
X1094467Y1616012D1*
Y1617935D1*
X1093517Y1619836D1*
X1092544Y1620809D1*
X1089670Y1621760D1*
X1081070D1*
Y1601664D1*
X1087769Y1612187D2*
X1094467Y1601664D1*
X1107342Y1621760D2*
Y1601664D1*
X1100643Y1621760D2*
X1114040D1*
X1146355D2*
Y1601664D1*
X1139657Y1621760D2*
X1153054D1*
X1159230D2*
X1172627Y1601664D1*
Y1621760D2*
X1159230Y1601664D1*
M02*
