G04 DipTrace 3.1.0.0*
G04 VCC.gbr*
%MOIN*%
G04 #@! TF.FileFunction,Copper,L3,Inr*
G04 #@! TF.Part,Single*
%ADD16C,0.02*%
%ADD31C,0.03937*%
%ADD36C,0.066929*%
G04 #@! TA.AperFunction,CopperBalancing*
%ADD18C,0.005*%
%ADD19C,0.015*%
G04 #@! TA.AperFunction,ViaPad*
%ADD57C,0.025*%
%FSLAX26Y26*%
G04*
G70*
G90*
G75*
G01*
G04 Inner2_Plane*
%LPD*%
D16*
X1161000Y925000D3*
X1059000Y893000D3*
X1202472Y1071953D3*
X1017000Y1160000D3*
X1117472Y1160953D3*
X130000Y825000D3*
X54000Y863000D3*
X67000Y520000D3*
X125000Y510000D3*
X123685Y580472D3*
X154000Y567000D3*
X520000Y744000D3*
X130000Y785000D3*
X83000Y473000D3*
X213000Y546000D3*
X1221995Y1348997D3*
D57*
X683005Y466995D3*
D16*
X969000Y775000D3*
X495000Y759000D3*
X39000Y520000D3*
D57*
X533005Y466995D3*
D16*
X335000Y857000D3*
X50000Y572000D3*
X248706Y1066995D3*
X278706D3*
X130000Y745000D3*
X197000Y568000D3*
D57*
X683005Y436995D3*
X533005D3*
X683005Y406995D3*
D16*
X130000Y705000D3*
Y665000D3*
X170000Y825000D3*
Y785000D3*
Y745000D3*
X205990Y1111995D3*
X223995D3*
X170000Y705000D3*
X1051000Y489000D3*
X348005Y1314003D3*
Y1269003D3*
X580000Y803000D3*
X359003Y1291995D3*
X990000Y1314003D3*
X938000Y635000D3*
D57*
X683005Y376995D3*
X923005Y466995D3*
D16*
X1041000Y589000D3*
D57*
X67000Y377000D3*
X924005Y436995D3*
X713005Y466995D3*
Y436995D3*
Y406995D3*
X36995Y376995D3*
D16*
X359000Y1142000D3*
D57*
X36995Y346995D3*
Y316995D3*
D16*
X743000Y1051000D3*
X847060Y666417D3*
X846995Y606995D3*
X170000Y665000D3*
X210000Y825000D3*
Y785000D3*
D57*
X713005Y376995D3*
D16*
X210000Y745000D3*
Y705000D3*
D57*
X713005Y346995D3*
Y316995D3*
D16*
X210000Y665000D3*
X1221995Y1318997D3*
X250000Y825000D3*
D57*
X593005Y466995D3*
Y436995D3*
D16*
X1004003Y1291995D3*
X980000D3*
X400000Y547000D3*
X452000Y806000D3*
X413000Y690000D3*
X25000Y838000D3*
X34000Y735000D3*
X1046000Y558000D3*
D57*
X593005Y406995D3*
D16*
X1221995Y1262003D3*
D57*
X593005Y376995D3*
D16*
X1190000Y531000D3*
X318706Y1066995D3*
X208706D3*
X1135000Y775000D3*
X919000Y822000D3*
X250000Y785000D3*
X42000Y666000D3*
X250000Y745000D3*
Y705000D3*
Y665000D3*
X290000Y825000D3*
D57*
X66995Y346995D3*
Y316995D3*
D16*
X290000Y785000D3*
Y745000D3*
Y705000D3*
Y665000D3*
X522000Y868000D3*
X557000Y867000D3*
X598000Y837000D3*
X1143000Y1269000D3*
X443000Y1231000D3*
D57*
X533005Y406995D3*
Y376995D3*
X96995D3*
Y346995D3*
Y316995D3*
X533005Y346995D3*
Y316995D3*
X563005Y466995D3*
Y436995D3*
Y406995D3*
Y376995D3*
Y346995D3*
Y316995D3*
X653000Y347000D3*
X923005Y376995D3*
D16*
X1221995Y1232003D3*
D57*
X126995Y376995D3*
Y346995D3*
Y316995D3*
Y406995D3*
X156995D3*
D16*
X938000Y1001000D3*
D57*
X623005Y466995D3*
Y436995D3*
Y406995D3*
Y376995D3*
X923005Y346995D3*
Y316995D3*
X653005Y466995D3*
X156995Y376995D3*
Y346995D3*
Y316995D3*
X653005Y436995D3*
Y406995D3*
Y376995D3*
X953005Y466995D3*
Y436995D3*
X186995Y466995D3*
Y436995D3*
Y406995D3*
X953005Y376995D3*
Y346995D3*
Y316995D3*
X743005Y466995D3*
X740005Y436995D3*
Y406995D3*
X743005Y376995D3*
Y346995D3*
Y316995D3*
X186995Y376995D3*
Y346995D3*
Y316995D3*
X924000Y407000D3*
X833000Y437000D3*
Y407000D3*
X773005Y376995D3*
X216995Y465997D3*
Y436995D3*
Y406995D3*
Y376995D3*
Y346995D3*
Y316995D3*
X773005Y346995D3*
X803005Y466995D3*
X833000Y377000D3*
X246995Y465997D3*
Y436995D3*
Y406995D3*
Y376995D3*
Y346995D3*
Y316995D3*
D16*
X1280000Y1523000D3*
X121000Y1068000D3*
D57*
X276995Y466995D3*
Y436995D3*
Y406995D3*
Y376995D3*
Y346995D3*
Y316995D3*
X353005Y466995D3*
Y436995D3*
Y406995D3*
Y376995D3*
Y346995D3*
Y316995D3*
X833005Y466995D3*
X862000Y437000D3*
X383005Y466995D3*
Y436995D3*
Y406995D3*
Y376995D3*
Y346995D3*
Y316995D3*
D16*
X61000Y996000D3*
Y1065000D3*
D57*
X863005Y466995D3*
X862000Y407000D3*
X413005Y466995D3*
Y436995D3*
Y406995D3*
Y376995D3*
Y346995D3*
Y316995D3*
D16*
X956000Y1051000D3*
D57*
X863000Y377000D3*
Y347000D3*
Y317000D3*
X443005Y466995D3*
Y436995D3*
Y406995D3*
Y376995D3*
Y346995D3*
Y316995D3*
X953000Y407000D3*
X802995Y347005D3*
D16*
X633000Y1225000D3*
D57*
X893005Y376995D3*
X473005Y466995D3*
Y436995D3*
Y406995D3*
Y376995D3*
Y346995D3*
X893005D3*
X653000Y317000D3*
D16*
X887000Y1224000D3*
D57*
X503005Y466995D3*
Y436995D3*
Y406995D3*
Y376995D3*
Y346995D3*
Y316995D3*
D16*
X748000Y999000D3*
D57*
X683000Y347000D3*
Y317000D3*
X593000Y347000D3*
X623000D3*
Y317000D3*
D16*
X25000Y1328000D3*
X1190000Y590000D3*
X488756Y1070000D3*
X489000Y671000D3*
X484000Y799000D3*
X451000Y547000D3*
X384000Y1219000D3*
X501680Y1232087D3*
X521365D3*
X541050D3*
X560735D3*
X580420D3*
X659160Y1219087D3*
X678845D3*
X698530D3*
X718215D3*
X915066Y1224087D3*
X954436D3*
X780000Y555997D3*
X755000Y655997D3*
X88000Y874000D3*
X87000Y910000D3*
X117000Y929000D3*
X119000Y959000D3*
X167000Y914000D3*
Y941000D3*
X362000Y949000D3*
X291000Y937000D3*
X170000Y1006000D3*
X347000Y900000D3*
X218000Y918000D3*
X244000Y922000D3*
X265000Y938000D3*
X372000Y878000D3*
X67000Y1548000D3*
X69000Y1623000D3*
X251000Y1259000D3*
X149360Y1411000D3*
X705000Y1001000D3*
X1182000Y837000D3*
X878000Y793000D3*
X1045000Y1058000D3*
X1162000Y976000D3*
X1214000Y398000D3*
X1126000Y496000D3*
X714000Y922000D3*
X667000Y1013000D3*
X1189000Y673000D3*
X533000Y1147000D3*
X330000Y944000D3*
X878000Y907000D3*
X1123000Y266000D3*
X383000Y1253000D3*
X1235000Y309000D3*
X688000Y1151000D3*
X595000Y1376000D3*
X72000Y1374000D3*
X612000Y1149000D3*
X1025000Y1236000D3*
X716000Y1341000D3*
X497000Y881000D3*
X751000Y1140000D3*
X737000Y774000D3*
X861000Y846000D3*
X57000Y1310000D3*
X1296194Y675512D3*
X166000Y968000D3*
D57*
X803000Y437000D3*
Y407000D3*
Y377000D3*
X802995Y317005D3*
X832995Y347005D3*
Y317005D3*
D16*
X1167000Y502000D3*
X1146000Y670000D3*
X909000Y510000D3*
X892000Y445000D3*
X773000Y446000D3*
X18997Y1669547D2*
D18*
X1306996D1*
X18997Y1664678D2*
X1306996D1*
X18997Y1659810D2*
X1306996D1*
X18997Y1654941D2*
X1306996D1*
X18997Y1650072D2*
X1306996D1*
X18997Y1645203D2*
X1306996D1*
X18997Y1640335D2*
X1306996D1*
X18997Y1635466D2*
X1268803D1*
X1293202D2*
X1306996D1*
X18997Y1630597D2*
X1261400D1*
X1300604D2*
X1306996D1*
X18997Y1625728D2*
X1257143D1*
X1304862D2*
X1307004D1*
X18997Y1620860D2*
X1254448D1*
X18997Y1615991D2*
X1252846D1*
X18997Y1611122D2*
X1252163D1*
X18997Y1606253D2*
X1252319D1*
X18997Y1601385D2*
X1253335D1*
X18997Y1596516D2*
X1255316D1*
X18997Y1591647D2*
X1258520D1*
X18997Y1586778D2*
X1263636D1*
X18997Y1581909D2*
X1261987D1*
X18997Y1577041D2*
X1257514D1*
X18997Y1572172D2*
X1254672D1*
X18997Y1567303D2*
X1252972D1*
X18997Y1562434D2*
X54614D1*
X79383D2*
X1252192D1*
X18997Y1557566D2*
X50434D1*
X83563D2*
X1252260D1*
X18997Y1552697D2*
X48403D1*
X85594D2*
X1253178D1*
X18997Y1547828D2*
X47807D1*
X86199D2*
X1255052D1*
X18997Y1542959D2*
X48491D1*
X85507D2*
X1258100D1*
X1303895D2*
X1306996D1*
X18997Y1538091D2*
X50648D1*
X83358D2*
X1262944D1*
X1299051D2*
X1306996D1*
X18997Y1533222D2*
X55043D1*
X78954D2*
X1263843D1*
X1296160D2*
X1306996D1*
X18997Y1528353D2*
X1261587D1*
X1298416D2*
X1306996D1*
X18997Y1523484D2*
X1260804D1*
X1299188D2*
X1306996D1*
X18997Y1518615D2*
X1261323D1*
X1298680D2*
X1306996D1*
X18997Y1513747D2*
X1263256D1*
X1296747D2*
X1306996D1*
X18997Y1508878D2*
X1267251D1*
X1292752D2*
X1306996D1*
X18997Y1504009D2*
X1306996D1*
X18997Y1499140D2*
X1306996D1*
X18997Y1494272D2*
X1306996D1*
X18997Y1489403D2*
X1306996D1*
X18997Y1484534D2*
X1306996D1*
X18997Y1479665D2*
X1306996D1*
X18997Y1474797D2*
X1306996D1*
X18997Y1469928D2*
X1306996D1*
X18997Y1465059D2*
X1306996D1*
X18997Y1460190D2*
X1306996D1*
X18997Y1455322D2*
X1306996D1*
X18997Y1450453D2*
X1306996D1*
X18997Y1445584D2*
X1306996D1*
X18997Y1440715D2*
X1306996D1*
X18997Y1435846D2*
X1306996D1*
X18997Y1430978D2*
X1306996D1*
X18997Y1426109D2*
X137846D1*
X160877D2*
X1306996D1*
X18997Y1421240D2*
X133217D1*
X165507D2*
X1306996D1*
X18997Y1416371D2*
X130951D1*
X167772D2*
X1306996D1*
X18997Y1411503D2*
X130171D1*
X168552D2*
X1306996D1*
X18997Y1406634D2*
X130678D1*
X168035D2*
X1306996D1*
X18997Y1401765D2*
X132602D1*
X166122D2*
X1306996D1*
X18997Y1396896D2*
X136587D1*
X162136D2*
X1306996D1*
X18997Y1392028D2*
X66538D1*
X77459D2*
X584867D1*
X605125D2*
X1306996D1*
X18997Y1387159D2*
X58217D1*
X85780D2*
X579496D1*
X610507D2*
X1306996D1*
X18997Y1382290D2*
X54740D1*
X89256D2*
X576888D1*
X613104D2*
X1306996D1*
X18997Y1377421D2*
X53119D1*
X90877D2*
X575854D1*
X614139D2*
X1306996D1*
X18997Y1372552D2*
X52856D1*
X91140D2*
X576127D1*
X613875D2*
X1306996D1*
X18997Y1367684D2*
X53900D1*
X90096D2*
X577759D1*
X612244D2*
X1306996D1*
X18997Y1362815D2*
X56518D1*
X87479D2*
X581244D1*
X608759D2*
X1306996D1*
X18997Y1357946D2*
X61919D1*
X82088D2*
X589633D1*
X600360D2*
X707602D1*
X724403D2*
X1306996D1*
X18997Y1353077D2*
X701224D1*
X730770D2*
X1306996D1*
X18997Y1348209D2*
X698247D1*
X733748D2*
X1306996D1*
X36190Y1343340D2*
X696948D1*
X735047D2*
X1269408D1*
X1292587D2*
X1306996D1*
X40995Y1338471D2*
X696976D1*
X735028D2*
X1261694D1*
X1300301D2*
X1306996D1*
X43339Y1333602D2*
X698324D1*
X733671D2*
X1257328D1*
X1304676D2*
X1306993D1*
X44178Y1328734D2*
X335991D1*
X360018D2*
X701391D1*
X730614D2*
X977983D1*
X1002010D2*
X1254564D1*
X43739Y1323865D2*
X331625D1*
X364392D2*
X708022D1*
X723983D2*
X973618D1*
X1006385D2*
X1252904D1*
X41883Y1318996D2*
X329487D1*
X366522D2*
X971479D1*
X1008514D2*
X1252172D1*
X38035Y1314127D2*
X328812D1*
X367206D2*
X970804D1*
X1009198D2*
X1252289D1*
X18997Y1309259D2*
X329419D1*
X366678D2*
X971411D1*
X1011678D2*
X1253256D1*
X18997Y1304390D2*
X331469D1*
X373504D2*
X965503D1*
X1018504D2*
X1255180D1*
X18997Y1299521D2*
X335678D1*
X376619D2*
X962387D1*
X1021619D2*
X1258304D1*
X18997Y1294652D2*
X339995D1*
X378007D2*
X960991D1*
X1023007D2*
X1263276D1*
X18997Y1289783D2*
X339936D1*
X378064D2*
X960932D1*
X1023064D2*
X1262308D1*
X18997Y1284915D2*
X337690D1*
X376804D2*
X962192D1*
X1021804D2*
X1132690D1*
X1153308D2*
X1257709D1*
X18997Y1280046D2*
X332416D1*
X373885D2*
X965122D1*
X1018885D2*
X1127416D1*
X1158583D2*
X1216596D1*
X1227400D2*
X1254799D1*
X18997Y1275177D2*
X329858D1*
X367675D2*
X971332D1*
X988671D2*
X995336D1*
X1012675D2*
X1124848D1*
X1161151D2*
X1208227D1*
X1235760D2*
X1253041D1*
X18997Y1270308D2*
X328852D1*
X367156D2*
X375424D1*
X390575D2*
X1123852D1*
X1162147D2*
X1204740D1*
X1239247D2*
X1252211D1*
X18997Y1265440D2*
X329155D1*
X366864D2*
X368533D1*
X397459D2*
X1124144D1*
X1161854D2*
X1203119D1*
X1240877D2*
X1252231D1*
X18997Y1260571D2*
X330815D1*
X400594D2*
X1125815D1*
X1160194D2*
X1202856D1*
X1241140D2*
X1253110D1*
X18997Y1255702D2*
X334360D1*
X361648D2*
X363992D1*
X402000D2*
X1129360D1*
X1156639D2*
X1203891D1*
X1240096D2*
X1254916D1*
X18997Y1250833D2*
X343091D1*
X352919D2*
X363930D1*
X402068D2*
X1013119D1*
X1036883D2*
X1138080D1*
X1147919D2*
X1206499D1*
X1237488D2*
X1257895D1*
X1304100D2*
X1306993D1*
X18997Y1245965D2*
X365180D1*
X400819D2*
X488647D1*
X593446D2*
X1008676D1*
X1041316D2*
X1209056D1*
X1234930D2*
X1262612D1*
X1299392D2*
X1306996D1*
X18997Y1241096D2*
X368080D1*
X397919D2*
X484799D1*
X597303D2*
X622983D1*
X643016D2*
X906801D1*
X923328D2*
X946176D1*
X962703D2*
X1006508D1*
X1043484D2*
X1205160D1*
X1238836D2*
X1271459D1*
X1290535D2*
X1306996D1*
X18997Y1236227D2*
X374243D1*
X391766D2*
X482944D1*
X599148D2*
X617552D1*
X648455D2*
X651186D1*
X667127D2*
X670873D1*
X686815D2*
X690560D1*
X706503D2*
X710253D1*
X726180D2*
X900346D1*
X929783D2*
X939711D1*
X969159D2*
X1005804D1*
X1044198D2*
X1203286D1*
X1240711D2*
X1306996D1*
X18997Y1231358D2*
X369467D1*
X398534D2*
X482495D1*
X599608D2*
X614916D1*
X732820D2*
X897339D1*
X932791D2*
X936713D1*
X972156D2*
X1006391D1*
X1043612D2*
X1202807D1*
X1241180D2*
X1306996D1*
X18997Y1226490D2*
X366371D1*
X401629D2*
X483344D1*
X598759D2*
X613862D1*
X735887D2*
X896020D1*
X973475D2*
X1008403D1*
X1041600D2*
X1203627D1*
X1240360D2*
X1306996D1*
X18997Y1221621D2*
X364984D1*
X403016D2*
X485688D1*
X596415D2*
X614115D1*
X737244D2*
X896030D1*
X973465D2*
X1012552D1*
X1037450D2*
X1205942D1*
X1238045D2*
X1306996D1*
X18997Y1216752D2*
X364936D1*
X403064D2*
X490483D1*
X591619D2*
X615717D1*
X737264D2*
X897367D1*
X932762D2*
X936732D1*
X972136D2*
X1210678D1*
X1233308D2*
X1306996D1*
X18997Y1211883D2*
X366206D1*
X401786D2*
X619175D1*
X735965D2*
X900404D1*
X929735D2*
X939770D1*
X969100D2*
X1306996D1*
X18997Y1207014D2*
X369144D1*
X398846D2*
X627387D1*
X638612D2*
X644379D1*
X732996D2*
X906938D1*
X923192D2*
X946312D1*
X962556D2*
X1306996D1*
X18997Y1202146D2*
X375404D1*
X392596D2*
X650747D1*
X667567D2*
X670428D1*
X687255D2*
X690125D1*
X706942D2*
X709812D1*
X726629D2*
X1306996D1*
X18997Y1197277D2*
X1306996D1*
X18997Y1192408D2*
X1306996D1*
X18997Y1187539D2*
X1306996D1*
X18997Y1182671D2*
X1306996D1*
X18997Y1177802D2*
X1306996D1*
X18997Y1172933D2*
X1306996D1*
X18997Y1168064D2*
X679858D1*
X696140D2*
X1306996D1*
X18997Y1163196D2*
X523159D1*
X542840D2*
X599331D1*
X624667D2*
X673324D1*
X702675D2*
X1306996D1*
X18997Y1158327D2*
X349388D1*
X368612D2*
X517622D1*
X548377D2*
X595297D1*
X628709D2*
X670297D1*
X705702D2*
X1306996D1*
X18997Y1153458D2*
X343724D1*
X374276D2*
X514955D1*
X551043D2*
X593344D1*
X630663D2*
X668969D1*
X707039D2*
X1306996D1*
X18997Y1148589D2*
X341000D1*
X377000D2*
X513871D1*
X552127D2*
X592807D1*
X631190D2*
X668959D1*
X707039D2*
X1306996D1*
X18997Y1143720D2*
X339877D1*
X378114D2*
X514096D1*
X551903D2*
X593559D1*
X630438D2*
X670278D1*
X705720D2*
X1306996D1*
X18997Y1138852D2*
X340072D1*
X377928D2*
X515668D1*
X550331D2*
X595795D1*
X628202D2*
X673286D1*
X702713D2*
X1306996D1*
X18997Y1133983D2*
X341606D1*
X376395D2*
X519076D1*
X546923D2*
X600366D1*
X623640D2*
X679751D1*
X696248D2*
X1306996D1*
X18997Y1129114D2*
X344955D1*
X373045D2*
X527055D1*
X538944D2*
X1306996D1*
X18997Y1124245D2*
X352640D1*
X365360D2*
X1306996D1*
X18997Y1119377D2*
X1306996D1*
X18997Y1114508D2*
X1306996D1*
X18997Y1109639D2*
X1306996D1*
X18997Y1104770D2*
X1306996D1*
X18997Y1099902D2*
X1306996D1*
X18997Y1095033D2*
X1306996D1*
X18997Y1090164D2*
X1197739D1*
X1207206D2*
X1306996D1*
X18997Y1085295D2*
X113392D1*
X128602D2*
X204379D1*
X213035D2*
X244379D1*
X253035D2*
X274379D1*
X283035D2*
X314379D1*
X323035D2*
X477504D1*
X500008D2*
X1188871D1*
X1216072D2*
X1306996D1*
X18997Y1080427D2*
X49936D1*
X72068D2*
X106528D1*
X135467D2*
X195199D1*
X222215D2*
X235199D1*
X262215D2*
X265205D1*
X292215D2*
X305199D1*
X332215D2*
X472739D1*
X504774D2*
X1185307D1*
X1219636D2*
X1306996D1*
X18997Y1075558D2*
X45072D1*
X76932D2*
X103403D1*
X138602D2*
X191587D1*
X225828D2*
X231587D1*
X295828D2*
X301587D1*
X335828D2*
X470404D1*
X507108D2*
X1038071D1*
X1051932D2*
X1183627D1*
X1221316D2*
X1306996D1*
X18997Y1070689D2*
X42690D1*
X79315D2*
X101996D1*
X139999D2*
X189877D1*
X227538D2*
X229871D1*
X297538D2*
X299871D1*
X337538D2*
X469575D1*
X507938D2*
X1030766D1*
X1059236D2*
X1183315D1*
X1221629D2*
X1306996D1*
X18997Y1065820D2*
X41820D1*
X80184D2*
X101928D1*
X140067D2*
X189545D1*
X227870D2*
X229541D1*
X297870D2*
X299541D1*
X337870D2*
X470034D1*
X507479D2*
X731098D1*
X754900D2*
X944096D1*
X967899D2*
X1027514D1*
X1062479D2*
X1184311D1*
X1220633D2*
X1306996D1*
X18997Y1060951D2*
X42251D1*
X79755D2*
X103178D1*
X138816D2*
X190512D1*
X226903D2*
X230512D1*
X296903D2*
X300512D1*
X336903D2*
X471899D1*
X505614D2*
X726675D1*
X759324D2*
X939672D1*
X972332D2*
X1026039D1*
X1063963D2*
X1186850D1*
X1218094D2*
X1306996D1*
X18997Y1056083D2*
X44067D1*
X77938D2*
X106088D1*
X135907D2*
X193022D1*
X224392D2*
X233022D1*
X294392D2*
X303022D1*
X334392D2*
X475766D1*
X501747D2*
X724507D1*
X761492D2*
X937504D1*
X974491D2*
X1025903D1*
X1064100D2*
X1192084D1*
X1212860D2*
X1306996D1*
X18997Y1051214D2*
X47866D1*
X74129D2*
X112270D1*
X129735D2*
X198178D1*
X219236D2*
X238178D1*
X259236D2*
X268178D1*
X289236D2*
X308178D1*
X329236D2*
X723803D1*
X762196D2*
X936801D1*
X975194D2*
X1027075D1*
X1062919D2*
X1306996D1*
X18997Y1046345D2*
X59243D1*
X62759D2*
X724388D1*
X761610D2*
X937387D1*
X974608D2*
X1029877D1*
X1060115D2*
X1306996D1*
X18997Y1041476D2*
X726411D1*
X759588D2*
X939408D1*
X972587D2*
X1035747D1*
X1054247D2*
X1306996D1*
X18997Y1036608D2*
X730560D1*
X755438D2*
X943568D1*
X968436D2*
X1306996D1*
X18997Y1031739D2*
X1306996D1*
X18997Y1026870D2*
X653959D1*
X680038D2*
X1306996D1*
X18997Y1022001D2*
X159828D1*
X180175D2*
X650112D1*
X683885D2*
X1306996D1*
X18997Y1017133D2*
X154476D1*
X185526D2*
X648266D1*
X685731D2*
X695052D1*
X714950D2*
X742944D1*
X753064D2*
X1306996D1*
X18997Y1012264D2*
X51274D1*
X70720D2*
X151879D1*
X188114D2*
X647816D1*
X686180D2*
X689575D1*
X720428D2*
X734320D1*
X761678D2*
X1306996D1*
X18997Y1007395D2*
X45678D1*
X76327D2*
X150854D1*
X189148D2*
X648667D1*
X685340D2*
X686933D1*
X723064D2*
X730795D1*
X765203D2*
X1306996D1*
X18997Y1002526D2*
X42983D1*
X79022D2*
X151127D1*
X188875D2*
X651010D1*
X682987D2*
X685864D1*
X724139D2*
X729135D1*
X766864D2*
X1306996D1*
X18997Y997657D2*
X41879D1*
X80125D2*
X152768D1*
X187235D2*
X655815D1*
X678182D2*
X686108D1*
X723895D2*
X728852D1*
X767147D2*
X1306996D1*
X18997Y992789D2*
X42084D1*
X79920D2*
X156274D1*
X183728D2*
X687699D1*
X722293D2*
X729867D1*
X766131D2*
X1153266D1*
X1170731D2*
X1306996D1*
X18997Y987920D2*
X43636D1*
X78358D2*
X164740D1*
X175262D2*
X691136D1*
X718856D2*
X732436D1*
X763563D2*
X1147094D1*
X1176903D2*
X1306996D1*
X18997Y983051D2*
X47016D1*
X74988D2*
X699262D1*
X710740D2*
X737739D1*
X758260D2*
X1144184D1*
X1179812D2*
X1306996D1*
X18997Y978182D2*
X54828D1*
X67167D2*
X1142934D1*
X1181072D2*
X1306996D1*
X18997Y973314D2*
X106469D1*
X131531D2*
X1142992D1*
X1181004D2*
X1306996D1*
X18997Y968445D2*
X102367D1*
X135633D2*
X1144399D1*
X1179598D2*
X1306996D1*
X18997Y963576D2*
X100375D1*
X137625D2*
X349789D1*
X374207D2*
X1147524D1*
X1176472D2*
X1306996D1*
X18997Y958707D2*
X99808D1*
X138192D2*
X160492D1*
X173504D2*
X317954D1*
X342049D2*
X345522D1*
X378484D2*
X1154388D1*
X1169608D2*
X1306996D1*
X18997Y953839D2*
X100531D1*
X137469D2*
X152904D1*
X181092D2*
X254564D1*
X275438D2*
X282377D1*
X299627D2*
X313598D1*
X380564D2*
X1306996D1*
X18997Y948970D2*
X102719D1*
X135282D2*
X149584D1*
X184412D2*
X249360D1*
X305867D2*
X311479D1*
X381199D2*
X1306996D1*
X18997Y944101D2*
X105472D1*
X130799D2*
X148060D1*
X185936D2*
X246831D1*
X308797D2*
X310804D1*
X380545D2*
X1306996D1*
X18997Y939232D2*
X100854D1*
X133152D2*
X147885D1*
X186112D2*
X236244D1*
X378446D2*
X706244D1*
X721756D2*
X1148373D1*
X1173622D2*
X1306996D1*
X18997Y934364D2*
X98588D1*
X135408D2*
X149018D1*
X184979D2*
X208451D1*
X227547D2*
X229471D1*
X310008D2*
X313480D1*
X346522D2*
X349866D1*
X374139D2*
X699476D1*
X728524D2*
X1144320D1*
X1177684D2*
X1306996D1*
X18997Y929495D2*
X97807D1*
X136190D2*
X151762D1*
X182235D2*
X202759D1*
X308622D2*
X317699D1*
X342293D2*
X696371D1*
X731629D2*
X1142348D1*
X1179647D2*
X1306996D1*
X18997Y924626D2*
X74848D1*
X135682D2*
X151118D1*
X182888D2*
X200014D1*
X305516D2*
X694984D1*
X733016D2*
X871264D1*
X884735D2*
X1141811D1*
X1180194D2*
X1306996D1*
X18997Y919757D2*
X70551D1*
X133748D2*
X148715D1*
X185291D2*
X198881D1*
X269598D2*
X283266D1*
X298728D2*
X694936D1*
X733064D2*
X863832D1*
X892167D2*
X1142552D1*
X1179451D2*
X1306996D1*
X18997Y914888D2*
X68451D1*
X129764D2*
X147827D1*
X186180D2*
X199067D1*
X261795D2*
X335190D1*
X358807D2*
X696206D1*
X731795D2*
X860551D1*
X895448D2*
X1144770D1*
X1177224D2*
X1306996D1*
X18997Y910020D2*
X67807D1*
X106199D2*
X148227D1*
X185770D2*
X200591D1*
X258856D2*
X330717D1*
X363289D2*
X699144D1*
X728856D2*
X859047D1*
X896951D2*
X1149311D1*
X1172684D2*
X1306996D1*
X18997Y905151D2*
X68442D1*
X105555D2*
X150034D1*
X183972D2*
X203920D1*
X232079D2*
X235403D1*
X252606D2*
X328530D1*
X365476D2*
X705395D1*
X722606D2*
X858891D1*
X897108D2*
X1306996D1*
X18997Y900282D2*
X70522D1*
X103475D2*
X153793D1*
X180203D2*
X211528D1*
X224471D2*
X327807D1*
X366199D2*
X860052D1*
X895946D2*
X1306996D1*
X18997Y895413D2*
X74799D1*
X99198D2*
X164467D1*
X169530D2*
X328373D1*
X379304D2*
X484594D1*
X509412D2*
X862827D1*
X893172D2*
X1306996D1*
X18997Y890545D2*
X78793D1*
X97206D2*
X330366D1*
X386366D2*
X480424D1*
X513583D2*
X868627D1*
X887381D2*
X1306996D1*
X18997Y885676D2*
X72895D1*
X103104D2*
X334487D1*
X389549D2*
X478392D1*
X528592D2*
X1306996D1*
X18997Y880807D2*
X47797D1*
X60203D2*
X70083D1*
X105916D2*
X353012D1*
X390984D2*
X477807D1*
X536122D2*
X543891D1*
X570106D2*
X1306996D1*
X18997Y875938D2*
X40004D1*
X107098D2*
X352915D1*
X391083D2*
X478500D1*
X573924D2*
X1306996D1*
X18997Y871070D2*
X36635D1*
X106971D2*
X322182D1*
X347811D2*
X354135D1*
X389862D2*
X480659D1*
X575751D2*
X1306996D1*
X18997Y866201D2*
X35083D1*
X105496D2*
X318227D1*
X351776D2*
X356996D1*
X387000D2*
X485072D1*
X576180D2*
X1306996D1*
X18997Y861332D2*
X34877D1*
X102255D2*
X316312D1*
X353690D2*
X363031D1*
X380975D2*
X504028D1*
X575320D2*
X849799D1*
X872206D2*
X1306996D1*
X18997Y856463D2*
X35980D1*
X72020D2*
X81020D1*
X94988D2*
X315815D1*
X354188D2*
X506782D1*
X537215D2*
X541059D1*
X572948D2*
X845004D1*
X876991D2*
X1306996D1*
X18997Y851594D2*
X38686D1*
X69315D2*
X316606D1*
X353396D2*
X512534D1*
X531472D2*
X545903D1*
X568094D2*
X585815D1*
X610184D2*
X842660D1*
X879344D2*
X1169808D1*
X1194188D2*
X1306996D1*
X18997Y846726D2*
X44291D1*
X63709D2*
X318881D1*
X351122D2*
X581528D1*
X614471D2*
X841820D1*
X880184D2*
X1165531D1*
X1198465D2*
X1306996D1*
X18997Y841857D2*
X121411D1*
X138592D2*
X161411D1*
X178592D2*
X201411D1*
X218592D2*
X241411D1*
X258592D2*
X281411D1*
X298592D2*
X323530D1*
X346463D2*
X579448D1*
X616551D2*
X842270D1*
X879735D2*
X1163442D1*
X1200555D2*
X1306996D1*
X18997Y836988D2*
X115151D1*
X144852D2*
X155151D1*
X184852D2*
X195151D1*
X224852D2*
X235151D1*
X264852D2*
X275151D1*
X304852D2*
X578803D1*
X617196D2*
X844115D1*
X877879D2*
X907319D1*
X930682D2*
X1162807D1*
X1201199D2*
X1306996D1*
X18997Y832119D2*
X112211D1*
X147791D2*
X152211D1*
X187791D2*
X192211D1*
X227791D2*
X232211D1*
X267791D2*
X272211D1*
X307791D2*
X579448D1*
X616551D2*
X847972D1*
X874022D2*
X902778D1*
X935223D2*
X1163451D1*
X1200545D2*
X1306996D1*
X18997Y827251D2*
X110942D1*
X149060D2*
X150944D1*
X189060D2*
X190944D1*
X229060D2*
X230944D1*
X269060D2*
X270944D1*
X309060D2*
X581547D1*
X614451D2*
X900551D1*
X937450D2*
X1165541D1*
X1198455D2*
X1306996D1*
X18997Y822382D2*
X110991D1*
X149012D2*
X150982D1*
X189012D2*
X190982D1*
X229012D2*
X230982D1*
X269012D2*
X270982D1*
X309012D2*
X585844D1*
X610155D2*
X899808D1*
X938192D2*
X1169839D1*
X1194159D2*
X1306996D1*
X18997Y817513D2*
X112367D1*
X147635D2*
X152367D1*
X187635D2*
X192367D1*
X227635D2*
X232367D1*
X267635D2*
X272367D1*
X307635D2*
X480883D1*
X487118D2*
X567709D1*
X592283D2*
X900346D1*
X937655D2*
X1306996D1*
X18997Y812644D2*
X115463D1*
X144530D2*
X155463D1*
X184530D2*
X195463D1*
X224530D2*
X235463D1*
X264530D2*
X275463D1*
X304530D2*
X470717D1*
X497283D2*
X563480D1*
X596522D2*
X902308D1*
X935692D2*
X1306996D1*
X18997Y807776D2*
X122231D1*
X137772D2*
X162231D1*
X177772D2*
X202231D1*
X217772D2*
X242231D1*
X257772D2*
X282231D1*
X297772D2*
X466987D1*
X501014D2*
X561420D1*
X598572D2*
X866039D1*
X889959D2*
X906362D1*
X931639D2*
X1306996D1*
X18997Y802907D2*
X124125D1*
X135877D2*
X164125D1*
X175877D2*
X204125D1*
X215877D2*
X244125D1*
X255877D2*
X284125D1*
X295877D2*
X465219D1*
X502782D2*
X560804D1*
X599198D2*
X861644D1*
X894354D2*
X1306996D1*
X18997Y798038D2*
X116098D1*
X143904D2*
X156098D1*
X183904D2*
X196098D1*
X223904D2*
X236098D1*
X263904D2*
X276098D1*
X303904D2*
X464828D1*
X503172D2*
X561469D1*
X598524D2*
X859496D1*
X896503D2*
X1306996D1*
X18997Y793169D2*
X112680D1*
X147323D2*
X152680D1*
X187323D2*
X192680D1*
X227323D2*
X232680D1*
X267323D2*
X272680D1*
X307323D2*
X465736D1*
X502264D2*
X563598D1*
X596404D2*
X858803D1*
X897196D2*
X964087D1*
X973915D2*
X1130092D1*
X1139911D2*
X1306996D1*
X18997Y788301D2*
X111098D1*
X148904D2*
X151098D1*
X188904D2*
X191098D1*
X228904D2*
X231098D1*
X268904D2*
X271098D1*
X308904D2*
X468168D1*
X499832D2*
X567944D1*
X592059D2*
X724457D1*
X749549D2*
X859399D1*
X896600D2*
X955356D1*
X982644D2*
X1121362D1*
X1148640D2*
X1306996D1*
X18997Y783432D2*
X110873D1*
X149129D2*
X150877D1*
X189129D2*
X190877D1*
X229129D2*
X230877D1*
X269129D2*
X270877D1*
X309129D2*
X473148D1*
X494852D2*
X720356D1*
X753640D2*
X861440D1*
X894559D2*
X951811D1*
X986190D2*
X1117816D1*
X1152186D2*
X1306996D1*
X18997Y778563D2*
X111948D1*
X148055D2*
X151948D1*
X188055D2*
X191948D1*
X228055D2*
X231948D1*
X268055D2*
X271948D1*
X308055D2*
X718364D1*
X755633D2*
X865619D1*
X890379D2*
X950140D1*
X987850D2*
X1116147D1*
X1153856D2*
X1306996D1*
X18997Y773694D2*
X114604D1*
X145388D2*
X154604D1*
X185388D2*
X194604D1*
X225388D2*
X234604D1*
X265388D2*
X274604D1*
X305388D2*
X482934D1*
X507059D2*
X717807D1*
X756199D2*
X949848D1*
X988152D2*
X1115844D1*
X1154148D2*
X1306996D1*
X18997Y768825D2*
X120122D1*
X139881D2*
X160122D1*
X179881D2*
X200122D1*
X219881D2*
X240122D1*
X259881D2*
X280122D1*
X299881D2*
X478588D1*
X511404D2*
X718530D1*
X755467D2*
X950854D1*
X987147D2*
X1116850D1*
X1153152D2*
X1306996D1*
X18997Y763957D2*
X476469D1*
X513524D2*
X720727D1*
X753270D2*
X953412D1*
X984588D2*
X1119408D1*
X1150584D2*
X1306996D1*
X18997Y759088D2*
X117211D1*
X142791D2*
X157211D1*
X182791D2*
X197211D1*
X222791D2*
X237211D1*
X262791D2*
X277211D1*
X302791D2*
X475804D1*
X531541D2*
X725219D1*
X748778D2*
X958686D1*
X979315D2*
X1124682D1*
X1145320D2*
X1306996D1*
X18997Y754219D2*
X113236D1*
X146766D2*
X153236D1*
X186766D2*
X193236D1*
X226766D2*
X233236D1*
X266766D2*
X273236D1*
X306766D2*
X476420D1*
X536160D2*
X1306996D1*
X18997Y749350D2*
X21518D1*
X46483D2*
X111312D1*
X148680D2*
X151312D1*
X188680D2*
X191312D1*
X228680D2*
X231312D1*
X268680D2*
X271312D1*
X308680D2*
X478480D1*
X538416D2*
X1306996D1*
X50614Y744482D2*
X110815D1*
X149188D2*
X150808D1*
X189188D2*
X190808D1*
X229188D2*
X230808D1*
X269188D2*
X270808D1*
X309188D2*
X482719D1*
X539188D2*
X1306996D1*
X52615Y739613D2*
X111596D1*
X148407D2*
X151596D1*
X188407D2*
X191596D1*
X228407D2*
X231596D1*
X268407D2*
X271596D1*
X308407D2*
X501323D1*
X538680D2*
X1306996D1*
X53192Y734744D2*
X113871D1*
X146131D2*
X153871D1*
X186131D2*
X193871D1*
X226131D2*
X233871D1*
X266131D2*
X273871D1*
X306131D2*
X503256D1*
X536747D2*
X1306996D1*
X52479Y729875D2*
X118510D1*
X141492D2*
X158510D1*
X181492D2*
X198510D1*
X221492D2*
X238510D1*
X261492D2*
X278510D1*
X301492D2*
X507251D1*
X532752D2*
X1306996D1*
X50301Y725007D2*
X1306996D1*
X18997Y720138D2*
X22152D1*
X45848D2*
X118530D1*
X141472D2*
X158530D1*
X181472D2*
X198530D1*
X221472D2*
X238530D1*
X261472D2*
X278530D1*
X301472D2*
X1306996D1*
X18997Y715269D2*
X113871D1*
X146122D2*
X153871D1*
X186122D2*
X193871D1*
X226122D2*
X233871D1*
X266122D2*
X273871D1*
X306122D2*
X1306996D1*
X18997Y710400D2*
X111596D1*
X148396D2*
X151596D1*
X188396D2*
X191596D1*
X228396D2*
X231596D1*
X268396D2*
X271596D1*
X308396D2*
X1306996D1*
X18997Y705531D2*
X110815D1*
X149188D2*
X150808D1*
X189188D2*
X190808D1*
X229188D2*
X230808D1*
X269188D2*
X270808D1*
X309188D2*
X1306996D1*
X18997Y700663D2*
X111312D1*
X148690D2*
X151312D1*
X188690D2*
X191312D1*
X228690D2*
X231312D1*
X268690D2*
X271312D1*
X308690D2*
X1306996D1*
X18997Y695794D2*
X113227D1*
X146776D2*
X153227D1*
X186776D2*
X193227D1*
X226776D2*
X233227D1*
X266776D2*
X273227D1*
X306776D2*
X1306996D1*
X18997Y690925D2*
X117192D1*
X142811D2*
X157192D1*
X182811D2*
X197192D1*
X222811D2*
X237192D1*
X262811D2*
X277192D1*
X302811D2*
X1183178D1*
X1194812D2*
X1306996D1*
X18997Y686056D2*
X477416D1*
X500584D2*
X1135923D1*
X1156083D2*
X1175122D1*
X1202879D2*
X1306996D1*
X18997Y681188D2*
X30591D1*
X53407D2*
X120140D1*
X139852D2*
X160140D1*
X179852D2*
X200140D1*
X219852D2*
X240140D1*
X259852D2*
X280140D1*
X299852D2*
X472827D1*
X505175D2*
X835092D1*
X859022D2*
X1130522D1*
X1161483D2*
X1171694D1*
X1206307D2*
X1306996D1*
X18997Y676319D2*
X25912D1*
X58094D2*
X114614D1*
X145379D2*
X154614D1*
X185379D2*
X194614D1*
X225379D2*
X234614D1*
X265379D2*
X274614D1*
X305379D2*
X470571D1*
X507420D2*
X830698D1*
X863416D2*
X1127904D1*
X1164100D2*
X1170102D1*
X1207899D2*
X1306996D1*
X18997Y671450D2*
X23618D1*
X60388D2*
X111948D1*
X148045D2*
X151948D1*
X188045D2*
X191948D1*
X228045D2*
X231948D1*
X268045D2*
X271948D1*
X308045D2*
X469808D1*
X508192D2*
X743969D1*
X766024D2*
X828549D1*
X865564D2*
X1126860D1*
X1165144D2*
X1169867D1*
X1208133D2*
X1306996D1*
X18997Y666581D2*
X22807D1*
X61190D2*
X110873D1*
X149129D2*
X150877D1*
X189129D2*
X190877D1*
X229129D2*
X230877D1*
X269129D2*
X270877D1*
X309129D2*
X470336D1*
X507664D2*
X739087D1*
X770916D2*
X827866D1*
X866259D2*
X1127114D1*
X1164881D2*
X1170942D1*
X1207059D2*
X1271079D1*
X1294930D2*
X1306996D1*
X18997Y661713D2*
X23304D1*
X60702D2*
X111098D1*
X148904D2*
X151098D1*
X188904D2*
X191098D1*
X228904D2*
X231098D1*
X268904D2*
X271098D1*
X308904D2*
X472270D1*
X505731D2*
X736694D1*
X773299D2*
X828461D1*
X865652D2*
X1128744D1*
X1163260D2*
X1173598D1*
X1204403D2*
X1260102D1*
X18997Y656844D2*
X25199D1*
X58797D2*
X112680D1*
X147323D2*
X152680D1*
X187323D2*
X192680D1*
X227323D2*
X232680D1*
X267323D2*
X272680D1*
X307323D2*
X476283D1*
X501717D2*
X735824D1*
X774178D2*
X830503D1*
X863622D2*
X1132211D1*
X1159783D2*
X1179087D1*
X1198915D2*
X1253764D1*
X18997Y651975D2*
X29135D1*
X54862D2*
X116088D1*
X143915D2*
X156088D1*
X183915D2*
X196088D1*
X223915D2*
X236088D1*
X263915D2*
X276088D1*
X303915D2*
X736244D1*
X773759D2*
X834682D1*
X859432D2*
X929663D1*
X946336D2*
X1140531D1*
X1151472D2*
X1249301D1*
X18997Y647106D2*
X124076D1*
X135927D2*
X164076D1*
X175927D2*
X204076D1*
X215927D2*
X244076D1*
X255927D2*
X284076D1*
X295927D2*
X738051D1*
X771951D2*
X923256D1*
X952752D2*
X1246010D1*
X18997Y642238D2*
X741840D1*
X768163D2*
X920259D1*
X955740D2*
X1243598D1*
X18997Y637369D2*
X752895D1*
X757098D2*
X918950D1*
X957049D2*
X1241908D1*
X18997Y632500D2*
X918969D1*
X957030D2*
X1240854D1*
X18997Y627631D2*
X920316D1*
X955682D2*
X1240375D1*
X18997Y622762D2*
X836450D1*
X857547D2*
X923364D1*
X952635D2*
X1240472D1*
X18997Y617894D2*
X831303D1*
X862684D2*
X929955D1*
X946043D2*
X1241127D1*
X18997Y613025D2*
X828793D1*
X865194D2*
X1242387D1*
X18997Y608156D2*
X827836D1*
X866160D2*
X1244301D1*
X18997Y603287D2*
X828168D1*
X865819D2*
X1246987D1*
X18997Y598419D2*
X117944D1*
X129432D2*
X829877D1*
X864110D2*
X1250619D1*
X18997Y593550D2*
X109819D1*
X137547D2*
X833500D1*
X860487D2*
X1255580D1*
X18997Y588681D2*
X41059D1*
X58944D2*
X106391D1*
X140984D2*
X842728D1*
X851259D2*
X1262885D1*
X1303133D2*
X1306996D1*
X18997Y583812D2*
X35004D1*
X64988D2*
X104789D1*
X142587D2*
X145322D1*
X162684D2*
X186518D1*
X207479D2*
X1306996D1*
X18997Y578944D2*
X32143D1*
X67860D2*
X104555D1*
X168885D2*
X181343D1*
X212664D2*
X1306996D1*
X18997Y574075D2*
X30923D1*
X69080D2*
X105619D1*
X171804D2*
X178812D1*
X215184D2*
X774720D1*
X785272D2*
X1035951D1*
X1056052D2*
X1306996D1*
X18997Y569206D2*
X31010D1*
X68983D2*
X108266D1*
X173064D2*
X177846D1*
X216160D2*
X766264D1*
X793728D2*
X1030531D1*
X1061463D2*
X1306996D1*
X18997Y564337D2*
X32446D1*
X67556D2*
X113735D1*
X173007D2*
X178168D1*
X215839D2*
X443500D1*
X458504D2*
X762768D1*
X797235D2*
X1027915D1*
X1064091D2*
X1264965D1*
X1301043D2*
X1306996D1*
X18997Y559469D2*
X35619D1*
X64373D2*
X136391D1*
X171610D2*
X179867D1*
X214139D2*
X436567D1*
X465428D2*
X761127D1*
X798875D2*
X1026860D1*
X1065135D2*
X1256870D1*
X18997Y554600D2*
X42660D1*
X57343D2*
X139507D1*
X168495D2*
X183461D1*
X210535D2*
X433412D1*
X468583D2*
X760854D1*
X799148D2*
X1027114D1*
X1064881D2*
X1251528D1*
X18997Y549731D2*
X146332D1*
X161668D2*
X192524D1*
X201483D2*
X432007D1*
X469999D2*
X761888D1*
X798114D2*
X1028735D1*
X1063270D2*
X1247660D1*
X18997Y544862D2*
X431928D1*
X470076D2*
X764476D1*
X795516D2*
X1032192D1*
X1059803D2*
X1176957D1*
X1203045D2*
X1244799D1*
X18997Y539993D2*
X433168D1*
X468836D2*
X769828D1*
X790164D2*
X1040463D1*
X1051531D2*
X1173110D1*
X1206892D2*
X1242739D1*
X18997Y535125D2*
X27504D1*
X50496D2*
X55512D1*
X78495D2*
X436059D1*
X465946D2*
X1171264D1*
X1208739D2*
X1241343D1*
X18997Y530256D2*
X22866D1*
X83133D2*
X442182D1*
X459823D2*
X1170815D1*
X1209178D2*
X1240560D1*
X18997Y525387D2*
X20600D1*
X85408D2*
X897875D1*
X920125D2*
X1171664D1*
X1208339D2*
X1240346D1*
X86190Y520518D2*
X893041D1*
X924959D2*
X1163920D1*
X1170076D2*
X1174018D1*
X1205984D2*
X1240698D1*
X85682Y515650D2*
X890678D1*
X927323D2*
X1153724D1*
X1201171D2*
X1241635D1*
X18997Y510781D2*
X22231D1*
X83768D2*
X889819D1*
X928182D2*
X1114047D1*
X1137948D2*
X1149995D1*
X1184003D2*
X1243188D1*
X18997Y505912D2*
X26206D1*
X51795D2*
X54202D1*
X79793D2*
X890259D1*
X927743D2*
X1042524D1*
X1059471D2*
X1109643D1*
X1142352D2*
X1148217D1*
X1185780D2*
X1245434D1*
X18997Y501043D2*
X892084D1*
X925916D2*
X1036196D1*
X1065799D2*
X1107495D1*
X1144500D2*
X1147831D1*
X1186171D2*
X1248520D1*
X18997Y496175D2*
X895912D1*
X922088D2*
X1033236D1*
X1068768D2*
X1106801D1*
X1145194D2*
X1148735D1*
X1185262D2*
X1252699D1*
X18997Y491306D2*
X78696D1*
X87303D2*
X1031948D1*
X1070056D2*
X1107396D1*
X1144598D2*
X1151167D1*
X1182840D2*
X1258549D1*
X18997Y486437D2*
X69496D1*
X96503D2*
X178051D1*
X195936D2*
X210883D1*
X223114D2*
X240883D1*
X253114D2*
X268051D1*
X285936D2*
X344056D1*
X361951D2*
X374056D1*
X391951D2*
X404056D1*
X421951D2*
X434056D1*
X451951D2*
X464056D1*
X481951D2*
X494056D1*
X511951D2*
X524056D1*
X541951D2*
X554056D1*
X571951D2*
X584056D1*
X601951D2*
X614056D1*
X631951D2*
X644056D1*
X661951D2*
X674056D1*
X691951D2*
X704056D1*
X721951D2*
X734056D1*
X751951D2*
X794056D1*
X811951D2*
X824056D1*
X841951D2*
X854056D1*
X871951D2*
X914056D1*
X931951D2*
X944056D1*
X961951D2*
X1031976D1*
X1070018D2*
X1109438D1*
X1142567D2*
X1156136D1*
X1177860D2*
X1267924D1*
X1298084D2*
X1306996D1*
X1307514Y1550324D2*
X1306289Y1547508D1*
X1305199Y1545564D1*
X1303962Y1543711D1*
X1302583Y1541961D1*
X1301070Y1540324D1*
X1299433Y1538811D1*
X1297682Y1537432D1*
X1295829Y1536194D1*
X1294136Y1535245D1*
X1295942Y1532769D1*
X1297274Y1530155D1*
X1298181Y1527365D1*
X1298639Y1524467D1*
Y1521533D1*
X1298181Y1518635D1*
X1297274Y1515845D1*
X1295942Y1513231D1*
X1294218Y1510857D1*
X1292143Y1508782D1*
X1289769Y1507058D1*
X1287155Y1505726D1*
X1284365Y1504819D1*
X1281467Y1504361D1*
X1278533D1*
X1275635Y1504819D1*
X1272845Y1505726D1*
X1270231Y1507058D1*
X1267857Y1508782D1*
X1265782Y1510857D1*
X1264058Y1513231D1*
X1262726Y1515845D1*
X1261819Y1518635D1*
X1261361Y1521533D1*
Y1524467D1*
X1261819Y1527365D1*
X1262726Y1530155D1*
X1264058Y1532769D1*
X1265782Y1535143D1*
X1266542Y1535965D1*
X1264318Y1537432D1*
X1262567Y1538811D1*
X1260930Y1540324D1*
X1259417Y1541961D1*
X1258038Y1543711D1*
X1256801Y1545564D1*
X1255711Y1547508D1*
X1254778Y1549533D1*
X1254007Y1551623D1*
X1253402Y1553768D1*
X1252967Y1555954D1*
X1252705Y1558167D1*
X1252618Y1560394D1*
X1252705Y1562621D1*
X1252967Y1564833D1*
X1253402Y1567020D1*
X1254007Y1569164D1*
X1254778Y1571255D1*
X1255711Y1573280D1*
X1256801Y1575223D1*
X1258038Y1577076D1*
X1259417Y1578827D1*
X1260930Y1580463D1*
X1262567Y1581976D1*
X1264318Y1583356D1*
X1266877Y1584990D1*
X1264318Y1586644D1*
X1262567Y1588024D1*
X1260930Y1589537D1*
X1259417Y1591173D1*
X1258038Y1592924D1*
X1256801Y1594777D1*
X1255711Y1596720D1*
X1254778Y1598745D1*
X1254007Y1600836D1*
X1253402Y1602980D1*
X1252967Y1605167D1*
X1252705Y1607379D1*
X1252618Y1609606D1*
X1252705Y1611833D1*
X1252967Y1614046D1*
X1253402Y1616232D1*
X1254007Y1618377D1*
X1254778Y1620467D1*
X1255711Y1622492D1*
X1256801Y1624436D1*
X1258038Y1626289D1*
X1259417Y1628039D1*
X1260930Y1629676D1*
X1262567Y1631189D1*
X1264318Y1632568D1*
X1266171Y1633806D1*
X1268114Y1634895D1*
X1270139Y1635828D1*
X1272230Y1636600D1*
X1274374Y1637205D1*
X1276560Y1637639D1*
X1278773Y1637902D1*
X1281000Y1637988D1*
X1283227Y1637902D1*
X1285440Y1637639D1*
X1287626Y1637205D1*
X1289770Y1636600D1*
X1291861Y1635828D1*
X1293886Y1634895D1*
X1295829Y1633806D1*
X1297682Y1632568D1*
X1299433Y1631189D1*
X1301070Y1629676D1*
X1302583Y1628039D1*
X1303962Y1626289D1*
X1305199Y1624436D1*
X1306289Y1622492D1*
X1307514Y1619676D1*
X1307500Y1674416D1*
X18497D1*
Y1345539D1*
X20635Y1346181D1*
X23533Y1346639D1*
X26467D1*
X29365Y1346181D1*
X32155Y1345274D1*
X34769Y1343942D1*
X37143Y1342218D1*
X39218Y1340143D1*
X40942Y1337769D1*
X42274Y1335155D1*
X43181Y1332365D1*
X43639Y1329467D1*
Y1326533D1*
X43181Y1323635D1*
X42274Y1320845D1*
X40942Y1318231D1*
X39218Y1315857D1*
X37143Y1313782D1*
X34769Y1312058D1*
X32155Y1310726D1*
X29365Y1309819D1*
X26467Y1309361D1*
X23533D1*
X20635Y1309819D1*
X18486Y1310490D1*
X18497Y921916D1*
Y745461D1*
X19782Y747143D1*
X21857Y749218D1*
X24231Y750942D1*
X26845Y752274D1*
X29635Y753181D1*
X32533Y753639D1*
X35467D1*
X38365Y753181D1*
X41155Y752274D1*
X43769Y750942D1*
X46143Y749218D1*
X48218Y747143D1*
X49942Y744769D1*
X51274Y742155D1*
X52181Y739365D1*
X52639Y736467D1*
Y733533D1*
X52181Y730635D1*
X51274Y727845D1*
X49942Y725231D1*
X48218Y722857D1*
X46143Y720782D1*
X43769Y719058D1*
X41155Y717726D1*
X38365Y716819D1*
X35467Y716361D1*
X32533D1*
X29635Y716819D1*
X26845Y717726D1*
X24231Y719058D1*
X21857Y720782D1*
X19782Y722857D1*
X18482Y724597D1*
X18497Y644416D1*
Y482500D1*
X66906D1*
X67874Y483990D1*
X69780Y486220D1*
X72010Y488126D1*
X74512Y489660D1*
X77222Y490782D1*
X80075Y491467D1*
X83000Y491697D1*
X85925Y491467D1*
X88778Y490782D1*
X91488Y489660D1*
X93990Y488126D1*
X96220Y486220D1*
X98126Y483990D1*
X99102Y482484D1*
X172550Y482500D1*
X174535Y484144D1*
X175919Y485068D1*
X177371Y485882D1*
X178883Y486579D1*
X180445Y487155D1*
X182046Y487606D1*
X183678Y487932D1*
X185332Y488127D1*
X186995Y488192D1*
X188657Y488127D1*
X190311Y487932D1*
X191944Y487606D1*
X193545Y487155D1*
X195106Y486579D1*
X196618Y485882D1*
X198071Y485068D1*
X199454Y484144D1*
X201434Y482491D1*
X203682Y482500D1*
X205919Y484071D1*
X207371Y484885D1*
X208883Y485581D1*
X210445Y486157D1*
X212046Y486609D1*
X213678Y486934D1*
X215332Y487130D1*
X216995Y487194D1*
X218657Y487130D1*
X220311Y486934D1*
X221944Y486609D1*
X223545Y486157D1*
X225106Y485581D1*
X226618Y484885D1*
X228071Y484071D1*
X230286Y482491D1*
X233682Y482500D1*
X235919Y484071D1*
X237371Y484885D1*
X238883Y485581D1*
X240445Y486157D1*
X242046Y486609D1*
X243678Y486934D1*
X245332Y487130D1*
X246995Y487194D1*
X248657Y487130D1*
X250311Y486934D1*
X251944Y486609D1*
X253545Y486157D1*
X255106Y485581D1*
X256618Y484885D1*
X258071Y484071D1*
X260286Y482491D1*
X262550Y482500D1*
X264535Y484144D1*
X265919Y485068D1*
X267371Y485882D1*
X268883Y486579D1*
X270445Y487155D1*
X272046Y487606D1*
X273678Y487932D1*
X275332Y488127D1*
X276995Y488192D1*
X278657Y488127D1*
X280311Y487932D1*
X281944Y487606D1*
X283545Y487155D1*
X285106Y486579D1*
X286618Y485882D1*
X288071Y485068D1*
X289454Y484144D1*
X291434Y482491D1*
X338546Y482500D1*
X340546Y484144D1*
X341929Y485068D1*
X343382Y485882D1*
X344894Y486579D1*
X346455Y487155D1*
X348056Y487606D1*
X349689Y487932D1*
X351343Y488127D1*
X353005Y488192D1*
X354668Y488127D1*
X356322Y487932D1*
X357954Y487606D1*
X359555Y487155D1*
X361117Y486579D1*
X362629Y485882D1*
X364081Y485068D1*
X365465Y484144D1*
X367445Y482491D1*
X368546Y482500D1*
X370546Y484144D1*
X371929Y485068D1*
X373382Y485882D1*
X374894Y486579D1*
X376455Y487155D1*
X378056Y487606D1*
X379689Y487932D1*
X381343Y488127D1*
X383005Y488192D1*
X384668Y488127D1*
X386322Y487932D1*
X387954Y487606D1*
X389555Y487155D1*
X391117Y486579D1*
X392629Y485882D1*
X394081Y485068D1*
X395465Y484144D1*
X397445Y482491D1*
X398546Y482500D1*
X400546Y484144D1*
X401929Y485068D1*
X403382Y485882D1*
X404894Y486579D1*
X406455Y487155D1*
X408056Y487606D1*
X409689Y487932D1*
X411343Y488127D1*
X413005Y488192D1*
X414668Y488127D1*
X416322Y487932D1*
X417954Y487606D1*
X419555Y487155D1*
X421117Y486579D1*
X422629Y485882D1*
X424081Y485068D1*
X425465Y484144D1*
X427445Y482491D1*
X428546Y482500D1*
X430546Y484144D1*
X431929Y485068D1*
X433382Y485882D1*
X434894Y486579D1*
X436455Y487155D1*
X438056Y487606D1*
X439689Y487932D1*
X441343Y488127D1*
X443005Y488192D1*
X444668Y488127D1*
X446322Y487932D1*
X447954Y487606D1*
X449555Y487155D1*
X451117Y486579D1*
X452629Y485882D1*
X454081Y485068D1*
X455465Y484144D1*
X457445Y482491D1*
X458546Y482500D1*
X460546Y484144D1*
X461929Y485068D1*
X463382Y485882D1*
X464894Y486579D1*
X466455Y487155D1*
X468056Y487606D1*
X469689Y487932D1*
X471343Y488127D1*
X473005Y488192D1*
X474668Y488127D1*
X476322Y487932D1*
X477954Y487606D1*
X479555Y487155D1*
X481117Y486579D1*
X482629Y485882D1*
X484081Y485068D1*
X485465Y484144D1*
X487445Y482491D1*
X488546Y482500D1*
X490546Y484144D1*
X491929Y485068D1*
X493382Y485882D1*
X494894Y486579D1*
X496455Y487155D1*
X498056Y487606D1*
X499689Y487932D1*
X501343Y488127D1*
X503005Y488192D1*
X504668Y488127D1*
X506322Y487932D1*
X507954Y487606D1*
X509555Y487155D1*
X511117Y486579D1*
X512629Y485882D1*
X514081Y485068D1*
X515465Y484144D1*
X517445Y482491D1*
X518546Y482500D1*
X520546Y484144D1*
X521929Y485068D1*
X523382Y485882D1*
X524894Y486579D1*
X526455Y487155D1*
X528056Y487606D1*
X529689Y487932D1*
X531343Y488127D1*
X533005Y488192D1*
X534668Y488127D1*
X536322Y487932D1*
X537954Y487606D1*
X539555Y487155D1*
X541117Y486579D1*
X542629Y485882D1*
X544081Y485068D1*
X545465Y484144D1*
X547445Y482491D1*
X548546Y482500D1*
X550546Y484144D1*
X551929Y485068D1*
X553382Y485882D1*
X554894Y486579D1*
X556455Y487155D1*
X558056Y487606D1*
X559689Y487932D1*
X561343Y488127D1*
X563005Y488192D1*
X564668Y488127D1*
X566322Y487932D1*
X567954Y487606D1*
X569555Y487155D1*
X571117Y486579D1*
X572629Y485882D1*
X574081Y485068D1*
X575465Y484144D1*
X577445Y482491D1*
X578546Y482500D1*
X580546Y484144D1*
X581929Y485068D1*
X583382Y485882D1*
X584894Y486579D1*
X586455Y487155D1*
X588056Y487606D1*
X589689Y487932D1*
X591343Y488127D1*
X593005Y488192D1*
X594668Y488127D1*
X596322Y487932D1*
X597954Y487606D1*
X599555Y487155D1*
X601117Y486579D1*
X602629Y485882D1*
X604081Y485068D1*
X605465Y484144D1*
X607445Y482491D1*
X608546Y482500D1*
X610546Y484144D1*
X611929Y485068D1*
X613382Y485882D1*
X614894Y486579D1*
X616455Y487155D1*
X618056Y487606D1*
X619689Y487932D1*
X621343Y488127D1*
X623005Y488192D1*
X624668Y488127D1*
X626322Y487932D1*
X627954Y487606D1*
X629555Y487155D1*
X631117Y486579D1*
X632629Y485882D1*
X634081Y485068D1*
X635465Y484144D1*
X637445Y482491D1*
X638546Y482500D1*
X640546Y484144D1*
X641929Y485068D1*
X643382Y485882D1*
X644894Y486579D1*
X646455Y487155D1*
X648056Y487606D1*
X649689Y487932D1*
X651343Y488127D1*
X653005Y488192D1*
X654668Y488127D1*
X656322Y487932D1*
X657954Y487606D1*
X659555Y487155D1*
X661117Y486579D1*
X662629Y485882D1*
X664081Y485068D1*
X665465Y484144D1*
X667445Y482491D1*
X668546Y482500D1*
X670546Y484144D1*
X671929Y485068D1*
X673382Y485882D1*
X674894Y486579D1*
X676455Y487155D1*
X678056Y487606D1*
X679689Y487932D1*
X681343Y488127D1*
X683005Y488192D1*
X684668Y488127D1*
X686322Y487932D1*
X687954Y487606D1*
X689555Y487155D1*
X691117Y486579D1*
X692629Y485882D1*
X694081Y485068D1*
X695465Y484144D1*
X697445Y482491D1*
X698546Y482500D1*
X700546Y484144D1*
X701929Y485068D1*
X703382Y485882D1*
X704894Y486579D1*
X706455Y487155D1*
X708056Y487606D1*
X709689Y487932D1*
X711343Y488127D1*
X713005Y488192D1*
X714668Y488127D1*
X716322Y487932D1*
X717954Y487606D1*
X719555Y487155D1*
X721117Y486579D1*
X722629Y485882D1*
X724081Y485068D1*
X725465Y484144D1*
X727445Y482491D1*
X728546Y482500D1*
X730546Y484144D1*
X731929Y485068D1*
X733382Y485882D1*
X734894Y486579D1*
X736455Y487155D1*
X738056Y487606D1*
X739689Y487932D1*
X741343Y488127D1*
X743005Y488192D1*
X744668Y488127D1*
X746322Y487932D1*
X747954Y487606D1*
X749555Y487155D1*
X751117Y486579D1*
X752629Y485882D1*
X754081Y485068D1*
X755465Y484144D1*
X757445Y482491D1*
X788546Y482500D1*
X790546Y484144D1*
X791929Y485068D1*
X793382Y485882D1*
X794894Y486579D1*
X796455Y487155D1*
X798056Y487606D1*
X799689Y487932D1*
X801343Y488127D1*
X803005Y488192D1*
X804668Y488127D1*
X806322Y487932D1*
X807954Y487606D1*
X809555Y487155D1*
X811117Y486579D1*
X812629Y485882D1*
X814081Y485068D1*
X815465Y484144D1*
X817445Y482491D1*
X818546Y482500D1*
X820546Y484144D1*
X821929Y485068D1*
X823382Y485882D1*
X824894Y486579D1*
X826455Y487155D1*
X828056Y487606D1*
X829689Y487932D1*
X831343Y488127D1*
X833005Y488192D1*
X834668Y488127D1*
X836322Y487932D1*
X837954Y487606D1*
X839555Y487155D1*
X841117Y486579D1*
X842629Y485882D1*
X844081Y485068D1*
X845465Y484144D1*
X847445Y482491D1*
X848546Y482500D1*
X850546Y484144D1*
X851929Y485068D1*
X853382Y485882D1*
X854894Y486579D1*
X856455Y487155D1*
X858056Y487606D1*
X859689Y487932D1*
X861343Y488127D1*
X863005Y488192D1*
X864668Y488127D1*
X866322Y487932D1*
X867954Y487606D1*
X869555Y487155D1*
X871117Y486579D1*
X872629Y485882D1*
X874081Y485068D1*
X875465Y484144D1*
X877445Y482491D1*
X908546Y482500D1*
X910546Y484144D1*
X911929Y485068D1*
X913382Y485882D1*
X914894Y486579D1*
X916455Y487155D1*
X918056Y487606D1*
X919689Y487932D1*
X921343Y488127D1*
X923005Y488192D1*
X924668Y488127D1*
X926322Y487932D1*
X927954Y487606D1*
X929555Y487155D1*
X931117Y486579D1*
X932629Y485882D1*
X934081Y485068D1*
X935465Y484144D1*
X937445Y482491D1*
X938546Y482500D1*
X940546Y484144D1*
X941929Y485068D1*
X943382Y485882D1*
X944894Y486579D1*
X946455Y487155D1*
X948056Y487606D1*
X949689Y487932D1*
X951343Y488127D1*
X953005Y488192D1*
X954668Y488127D1*
X956322Y487932D1*
X957954Y487606D1*
X959555Y487155D1*
X961117Y486579D1*
X962629Y485882D1*
X964081Y485068D1*
X965465Y484144D1*
X967445Y482491D1*
X1033469Y482500D1*
X1032819Y484635D1*
X1032361Y487533D1*
Y490467D1*
X1032819Y493365D1*
X1033726Y496155D1*
X1035058Y498769D1*
X1036782Y501143D1*
X1038857Y503218D1*
X1041231Y504942D1*
X1043845Y506274D1*
X1046635Y507181D1*
X1049533Y507639D1*
X1052467D1*
X1055365Y507181D1*
X1058155Y506274D1*
X1060769Y504942D1*
X1063143Y503218D1*
X1065218Y501143D1*
X1066942Y498769D1*
X1068274Y496155D1*
X1069181Y493365D1*
X1069639Y490467D1*
Y487533D1*
X1069181Y484635D1*
X1068510Y482486D1*
X1113058Y482500D1*
X1111782Y483857D1*
X1110058Y486231D1*
X1108726Y488845D1*
X1107819Y491635D1*
X1107361Y494533D1*
Y497467D1*
X1107819Y500365D1*
X1108726Y503155D1*
X1110058Y505769D1*
X1111782Y508143D1*
X1113857Y510218D1*
X1116231Y511942D1*
X1118845Y513274D1*
X1121635Y514181D1*
X1124533Y514639D1*
X1127467D1*
X1130365Y514181D1*
X1133155Y513274D1*
X1135769Y511942D1*
X1138143Y510218D1*
X1140218Y508143D1*
X1141942Y505769D1*
X1143274Y503155D1*
X1144181Y500365D1*
X1144639Y497467D1*
Y494533D1*
X1144181Y491635D1*
X1143274Y488845D1*
X1141942Y486231D1*
X1140218Y483857D1*
X1138906Y482487D1*
X1307500Y482500D1*
Y491689D1*
X1305501Y490337D1*
X1303349Y489067D1*
X1301125Y487927D1*
X1298837Y486920D1*
X1296493Y486051D1*
X1294102Y485322D1*
X1291672Y484736D1*
X1289211Y484294D1*
X1286730Y484000D1*
X1284234Y483853D1*
X1281735Y483854D1*
X1279239Y484004D1*
X1276757Y484301D1*
X1274298Y484744D1*
X1271869Y485333D1*
X1269478Y486064D1*
X1267135Y486937D1*
X1264849Y487946D1*
X1262626Y489089D1*
X1260474Y490361D1*
X1258402Y491760D1*
X1256416Y493278D1*
X1254524Y494911D1*
X1252732Y496654D1*
X1251046Y498499D1*
X1249472Y500441D1*
X1248017Y502474D1*
X1246685Y504588D1*
X1245480Y506778D1*
X1244407Y509037D1*
X1243470Y511353D1*
X1242671Y513722D1*
X1242014Y516134D1*
X1241503Y518580D1*
X1241135Y521052D1*
X1240916Y523543D1*
X1240845Y526042D1*
X1240921Y528541D1*
X1241146Y531030D1*
X1241518Y533501D1*
X1242035Y535948D1*
X1242697Y538357D1*
X1243500Y540724D1*
X1244442Y543039D1*
X1245520Y545295D1*
X1246730Y547483D1*
X1248067Y549594D1*
X1249526Y551623D1*
X1251104Y553563D1*
X1252794Y555406D1*
X1254589Y557143D1*
X1256486Y558773D1*
X1258474Y560287D1*
X1260549Y561681D1*
X1262703Y562949D1*
X1264929Y564087D1*
X1267218Y565092D1*
X1269562Y565958D1*
X1271954Y566685D1*
X1274385Y567268D1*
X1276845Y567707D1*
X1279328Y567999D1*
X1281823Y568143D1*
X1284323Y568139D1*
X1286818Y567987D1*
X1289299Y567688D1*
X1291759Y567241D1*
X1294188Y566650D1*
X1296577Y565916D1*
X1298919Y565041D1*
X1301205Y564030D1*
X1303427Y562885D1*
X1305576Y561609D1*
X1307509Y560302D1*
X1307500Y591689D1*
X1305077Y590073D1*
X1302022Y588367D1*
X1298837Y586920D1*
X1295542Y585741D1*
X1292161Y584841D1*
X1288717Y584224D1*
X1285234Y583894D1*
X1281735Y583854D1*
X1278244Y584105D1*
X1274787Y584644D1*
X1271387Y585469D1*
X1268066Y586571D1*
X1264849Y587946D1*
X1261756Y589583D1*
X1258810Y591470D1*
X1256030Y593596D1*
X1253436Y595944D1*
X1251046Y598499D1*
X1248877Y601244D1*
X1246941Y604159D1*
X1245255Y607224D1*
X1243828Y610420D1*
X1242671Y613722D1*
X1241793Y617109D1*
X1241197Y620556D1*
X1240890Y624042D1*
X1240873Y627542D1*
X1241146Y631030D1*
X1241707Y634483D1*
X1242554Y637878D1*
X1243677Y641192D1*
X1245073Y644400D1*
X1246730Y647483D1*
X1248636Y650417D1*
X1250780Y653182D1*
X1253144Y655761D1*
X1255715Y658135D1*
X1258474Y660287D1*
X1261402Y662203D1*
X1264478Y663870D1*
X1267682Y665276D1*
X1270992Y666411D1*
X1274385Y667268D1*
X1277836Y667841D1*
X1281324Y668126D1*
X1284823Y668121D1*
X1288308Y667824D1*
X1291759Y667241D1*
X1295148Y666373D1*
X1298454Y665227D1*
X1301655Y663811D1*
X1304726Y662135D1*
X1307512Y660306D1*
X1307500Y1257841D1*
X1306289Y1255114D1*
X1305199Y1253171D1*
X1303962Y1251318D1*
X1302583Y1249567D1*
X1301070Y1247930D1*
X1299433Y1246417D1*
X1297682Y1245038D1*
X1295829Y1243801D1*
X1293886Y1242711D1*
X1291861Y1241778D1*
X1289770Y1241007D1*
X1287626Y1240402D1*
X1285440Y1239967D1*
X1283227Y1239705D1*
X1281000Y1239618D1*
X1278773Y1239705D1*
X1276560Y1239967D1*
X1274374Y1240402D1*
X1272230Y1241007D1*
X1270139Y1241778D1*
X1268114Y1242711D1*
X1266171Y1243801D1*
X1264318Y1245038D1*
X1262567Y1246417D1*
X1260930Y1247930D1*
X1259417Y1249567D1*
X1258038Y1251318D1*
X1256801Y1253171D1*
X1255711Y1255114D1*
X1254778Y1257139D1*
X1254007Y1259230D1*
X1253402Y1261374D1*
X1252967Y1263560D1*
X1252705Y1265773D1*
X1252618Y1268000D1*
X1252705Y1270227D1*
X1252967Y1272440D1*
X1253402Y1274626D1*
X1254007Y1276770D1*
X1254778Y1278861D1*
X1255711Y1280886D1*
X1256801Y1282829D1*
X1258038Y1284682D1*
X1259417Y1286433D1*
X1260930Y1288070D1*
X1262567Y1289583D1*
X1264318Y1290962D1*
X1266877Y1292596D1*
X1264656Y1294009D1*
X1262678Y1295537D1*
X1260843Y1297232D1*
X1259163Y1299083D1*
X1257652Y1301075D1*
X1256323Y1303190D1*
X1255185Y1305416D1*
X1254248Y1307732D1*
X1253517Y1310122D1*
X1253000Y1312568D1*
X1252701Y1315049D1*
X1252619Y1317547D1*
X1252759Y1320042D1*
X1253117Y1322516D1*
X1253692Y1324948D1*
X1254478Y1327320D1*
X1255470Y1329614D1*
X1256660Y1331811D1*
X1258038Y1333896D1*
X1259596Y1335852D1*
X1261318Y1337661D1*
X1263193Y1339314D1*
X1265206Y1340795D1*
X1267343Y1342093D1*
X1269584Y1343198D1*
X1271913Y1344101D1*
X1274315Y1344797D1*
X1276766Y1345278D1*
X1279252Y1345541D1*
X1281751Y1345585D1*
X1284244Y1345409D1*
X1286711Y1345014D1*
X1289135Y1344404D1*
X1291496Y1343583D1*
X1293774Y1342558D1*
X1295955Y1341336D1*
X1298018Y1339927D1*
X1299951Y1338341D1*
X1301736Y1336592D1*
X1303361Y1334693D1*
X1304812Y1332657D1*
X1306079Y1330504D1*
X1307150Y1328245D1*
X1307500Y1327500D1*
Y1550224D1*
X1179639Y923533D2*
X1179181Y920635D1*
X1178274Y917845D1*
X1176942Y915231D1*
X1175218Y912857D1*
X1173143Y910782D1*
X1170769Y909058D1*
X1168155Y907726D1*
X1165365Y906819D1*
X1162467Y906361D1*
X1159533D1*
X1156635Y906819D1*
X1153845Y907726D1*
X1151231Y909058D1*
X1148857Y910782D1*
X1146782Y912857D1*
X1145058Y915231D1*
X1143726Y917845D1*
X1142819Y920635D1*
X1142361Y923533D1*
Y926467D1*
X1142819Y929365D1*
X1143726Y932155D1*
X1145058Y934769D1*
X1146782Y937143D1*
X1148857Y939218D1*
X1151231Y940942D1*
X1153845Y942274D1*
X1156635Y943181D1*
X1159533Y943639D1*
X1162467D1*
X1165365Y943181D1*
X1168155Y942274D1*
X1170769Y940942D1*
X1173143Y939218D1*
X1175218Y937143D1*
X1176942Y934769D1*
X1178274Y932155D1*
X1179181Y929365D1*
X1179639Y926467D1*
Y923533D1*
X1221112Y1070486D2*
X1220654Y1067588D1*
X1219747Y1064798D1*
X1218415Y1062184D1*
X1216690Y1059810D1*
X1214615Y1057735D1*
X1212241Y1056010D1*
X1209627Y1054678D1*
X1206837Y1053772D1*
X1203940Y1053314D1*
X1201005D1*
X1198108Y1053772D1*
X1195318Y1054678D1*
X1192703Y1056010D1*
X1190329Y1057735D1*
X1188255Y1059810D1*
X1186530Y1062184D1*
X1185198Y1064798D1*
X1184291Y1067588D1*
X1183833Y1070486D1*
Y1073420D1*
X1184291Y1076318D1*
X1185198Y1079108D1*
X1186530Y1081722D1*
X1188255Y1084096D1*
X1190329Y1086171D1*
X1192703Y1087895D1*
X1195318Y1089227D1*
X1198108Y1090134D1*
X1201005Y1090592D1*
X1203940D1*
X1206837Y1090134D1*
X1209627Y1089227D1*
X1212241Y1087895D1*
X1214615Y1086171D1*
X1216690Y1084096D1*
X1218415Y1081722D1*
X1219747Y1079108D1*
X1220654Y1076318D1*
X1221112Y1073420D1*
Y1070486D1*
X148639Y823533D2*
X148181Y820635D1*
X147274Y817845D1*
X145942Y815231D1*
X144218Y812857D1*
X142143Y810782D1*
X139769Y809058D1*
X137155Y807726D1*
X134365Y806819D1*
X131467Y806361D1*
X128533D1*
X125635Y806819D1*
X122845Y807726D1*
X120231Y809058D1*
X117857Y810782D1*
X115782Y812857D1*
X114058Y815231D1*
X112726Y817845D1*
X111819Y820635D1*
X111361Y823533D1*
Y826467D1*
X111819Y829365D1*
X112726Y832155D1*
X114058Y834769D1*
X115782Y837143D1*
X117857Y839218D1*
X120231Y840942D1*
X122845Y842274D1*
X125635Y843181D1*
X128533Y843639D1*
X131467D1*
X134365Y843181D1*
X137155Y842274D1*
X139769Y840942D1*
X142143Y839218D1*
X144218Y837143D1*
X145942Y834769D1*
X147274Y832155D1*
X148181Y829365D1*
X148639Y826467D1*
Y823533D1*
X72639Y861533D2*
X72181Y858635D1*
X71274Y855845D1*
X69942Y853231D1*
X68218Y850857D1*
X66143Y848782D1*
X63769Y847058D1*
X61155Y845726D1*
X58365Y844819D1*
X55467Y844361D1*
X52533D1*
X49635Y844819D1*
X46845Y845726D1*
X44231Y847058D1*
X41857Y848782D1*
X39782Y850857D1*
X38058Y853231D1*
X36726Y855845D1*
X35819Y858635D1*
X35361Y861533D1*
Y864467D1*
X35819Y867365D1*
X36726Y870155D1*
X38058Y872769D1*
X39782Y875143D1*
X41857Y877218D1*
X44231Y878942D1*
X46845Y880274D1*
X49635Y881181D1*
X52533Y881639D1*
X55467D1*
X58365Y881181D1*
X61155Y880274D1*
X63769Y878942D1*
X66143Y877218D1*
X68218Y875143D1*
X69302Y873728D1*
X69361Y875467D1*
X69819Y878365D1*
X70726Y881155D1*
X72058Y883769D1*
X73782Y886143D1*
X75857Y888218D1*
X78231Y889942D1*
X80845Y891274D1*
X82482Y891856D1*
X79845Y892726D1*
X77231Y894058D1*
X74857Y895782D1*
X72782Y897857D1*
X71058Y900231D1*
X69726Y902845D1*
X68819Y905635D1*
X68361Y908533D1*
Y911467D1*
X68819Y914365D1*
X69726Y917155D1*
X71058Y919769D1*
X72782Y922143D1*
X74857Y924218D1*
X77231Y925942D1*
X79845Y927274D1*
X82635Y928181D1*
X85533Y928639D1*
X88467D1*
X91365Y928181D1*
X94155Y927274D1*
X96769Y925942D1*
X98869Y924434D1*
X98533Y926075D1*
X98303Y929000D1*
X98533Y931925D1*
X99218Y934778D1*
X100340Y937488D1*
X101874Y939990D1*
X103780Y942220D1*
X106010Y944126D1*
X106921Y944735D1*
X105780Y945780D1*
X103874Y948010D1*
X102340Y950512D1*
X101218Y953222D1*
X100533Y956075D1*
X100303Y959000D1*
X100533Y961925D1*
X101218Y964778D1*
X102340Y967488D1*
X103874Y969990D1*
X105780Y972220D1*
X108010Y974126D1*
X110512Y975660D1*
X113222Y976782D1*
X116075Y977467D1*
X119000Y977697D1*
X121925Y977467D1*
X124778Y976782D1*
X127488Y975660D1*
X129990Y974126D1*
X132220Y972220D1*
X134126Y969990D1*
X135660Y967488D1*
X136782Y964778D1*
X137467Y961925D1*
X137697Y959000D1*
X137467Y956075D1*
X136782Y953222D1*
X135660Y950512D1*
X134126Y948010D1*
X132220Y945780D1*
X129990Y943874D1*
X129079Y943265D1*
X130220Y942220D1*
X132126Y939990D1*
X133660Y937488D1*
X134782Y934778D1*
X135467Y931925D1*
X135697Y929000D1*
X135467Y926075D1*
X134782Y923222D1*
X133660Y920512D1*
X132126Y918010D1*
X130220Y915780D1*
X127990Y913874D1*
X125488Y912340D1*
X122778Y911218D1*
X119925Y910533D1*
X117000Y910303D1*
X114075Y910533D1*
X111222Y911218D1*
X108512Y912340D1*
X106010Y913874D1*
X105131Y914566D1*
X105467Y912925D1*
X105697Y910000D1*
X105467Y907075D1*
X104782Y904222D1*
X103660Y901512D1*
X102126Y899010D1*
X100220Y896780D1*
X97990Y894874D1*
X95488Y893340D1*
X92778Y892218D1*
X92518Y892144D1*
X95155Y891274D1*
X97769Y889942D1*
X100143Y888218D1*
X102218Y886143D1*
X103942Y883769D1*
X105274Y881155D1*
X106181Y878365D1*
X106639Y875467D1*
Y872533D1*
X106181Y869635D1*
X105274Y866845D1*
X103942Y864231D1*
X102218Y861857D1*
X100143Y859782D1*
X97769Y858058D1*
X95155Y856726D1*
X92365Y855819D1*
X89467Y855361D1*
X86533D1*
X83635Y855819D1*
X80845Y856726D1*
X78231Y858058D1*
X75857Y859782D1*
X73782Y861857D1*
X72698Y863272D1*
X72639Y861533D1*
X85639Y518533D2*
X85181Y515635D1*
X84274Y512845D1*
X82942Y510231D1*
X81218Y507857D1*
X79143Y505782D1*
X76769Y504058D1*
X74155Y502726D1*
X71365Y501819D1*
X68467Y501361D1*
X65533D1*
X62635Y501819D1*
X59845Y502726D1*
X57231Y504058D1*
X54857Y505782D1*
X53004Y507617D1*
X51143Y505782D1*
X48769Y504058D1*
X46155Y502726D1*
X43365Y501819D1*
X40467Y501361D1*
X37533D1*
X34635Y501819D1*
X31845Y502726D1*
X29231Y504058D1*
X26857Y505782D1*
X24782Y507857D1*
X23058Y510231D1*
X21726Y512845D1*
X20819Y515635D1*
X20361Y518533D1*
Y521467D1*
X20819Y524365D1*
X21726Y527155D1*
X23058Y529769D1*
X24782Y532143D1*
X26857Y534218D1*
X29231Y535942D1*
X31845Y537274D1*
X34635Y538181D1*
X37533Y538639D1*
X40467D1*
X43365Y538181D1*
X46155Y537274D1*
X48769Y535942D1*
X51143Y534218D1*
X52996Y532383D1*
X54857Y534218D1*
X57231Y535942D1*
X59845Y537274D1*
X62635Y538181D1*
X65533Y538639D1*
X68467D1*
X71365Y538181D1*
X74155Y537274D1*
X76769Y535942D1*
X79143Y534218D1*
X81218Y532143D1*
X82942Y529769D1*
X84274Y527155D1*
X85181Y524365D1*
X85639Y521467D1*
Y518533D1*
X135337Y565867D2*
X133454Y564530D1*
X130840Y563198D1*
X128050Y562291D1*
X125152Y561833D1*
X122218D1*
X119320Y562291D1*
X116530Y563198D1*
X113916Y564530D1*
X111542Y566255D1*
X109467Y568329D1*
X107743Y570703D1*
X106411Y573318D1*
X105504Y576108D1*
X105046Y579005D1*
Y581940D1*
X105504Y584837D1*
X106411Y587627D1*
X107743Y590241D1*
X109467Y592615D1*
X111542Y594690D1*
X113916Y596415D1*
X116530Y597747D1*
X119320Y598654D1*
X122218Y599112D1*
X125152D1*
X128050Y598654D1*
X130840Y597747D1*
X133454Y596415D1*
X135828Y594690D1*
X137903Y592615D1*
X139627Y590241D1*
X140959Y587627D1*
X141866Y584837D1*
X142324Y581940D1*
X142337Y581613D1*
X144231Y582942D1*
X146845Y584274D1*
X149635Y585181D1*
X152533Y585639D1*
X155467D1*
X158365Y585181D1*
X161155Y584274D1*
X163769Y582942D1*
X166143Y581218D1*
X168218Y579143D1*
X169942Y576769D1*
X171274Y574155D1*
X172181Y571365D1*
X172639Y568467D1*
Y565533D1*
X172181Y562635D1*
X171274Y559845D1*
X169942Y557231D1*
X168218Y554857D1*
X166143Y552782D1*
X163769Y551058D1*
X161155Y549726D1*
X158365Y548819D1*
X155467Y548361D1*
X152533D1*
X149635Y548819D1*
X146845Y549726D1*
X144231Y551058D1*
X141857Y552782D1*
X139782Y554857D1*
X138058Y557231D1*
X136726Y559845D1*
X135819Y562635D1*
X135361Y565533D1*
X135348Y565860D1*
X538639Y742533D2*
X538181Y739635D1*
X537274Y736845D1*
X535942Y734231D1*
X534218Y731857D1*
X532143Y729782D1*
X529769Y728058D1*
X527155Y726726D1*
X524365Y725819D1*
X521467Y725361D1*
X518533D1*
X515635Y725819D1*
X512845Y726726D1*
X510231Y728058D1*
X507857Y729782D1*
X505782Y731857D1*
X504058Y734231D1*
X502726Y736845D1*
X501819Y739635D1*
X501487Y741469D1*
X499365Y740819D1*
X496467Y740361D1*
X493533D1*
X490635Y740819D1*
X487845Y741726D1*
X485231Y743058D1*
X482857Y744782D1*
X480782Y746857D1*
X479058Y749231D1*
X477726Y751845D1*
X476819Y754635D1*
X476361Y757533D1*
Y760467D1*
X476819Y763365D1*
X477726Y766155D1*
X479058Y768769D1*
X480782Y771143D1*
X482857Y773218D1*
X485231Y774942D1*
X487845Y776274D1*
X490635Y777181D1*
X493533Y777639D1*
X496467D1*
X499365Y777181D1*
X502155Y776274D1*
X504769Y774942D1*
X507143Y773218D1*
X509218Y771143D1*
X510942Y768769D1*
X512274Y766155D1*
X513181Y763365D1*
X513513Y761531D1*
X515635Y762181D1*
X518533Y762639D1*
X521467D1*
X524365Y762181D1*
X527155Y761274D1*
X529769Y759942D1*
X532143Y758218D1*
X534218Y756143D1*
X535942Y753769D1*
X537274Y751155D1*
X538181Y748365D1*
X538639Y745467D1*
Y742533D1*
X148639Y783533D2*
X148181Y780635D1*
X147274Y777845D1*
X145942Y775231D1*
X144218Y772857D1*
X142143Y770782D1*
X139769Y769058D1*
X137155Y767726D1*
X134365Y766819D1*
X131467Y766361D1*
X128533D1*
X125635Y766819D1*
X122845Y767726D1*
X120231Y769058D1*
X117857Y770782D1*
X115782Y772857D1*
X114058Y775231D1*
X112726Y777845D1*
X111819Y780635D1*
X111361Y783533D1*
Y786467D1*
X111819Y789365D1*
X112726Y792155D1*
X114058Y794769D1*
X115782Y797143D1*
X117857Y799218D1*
X120231Y800942D1*
X122845Y802274D1*
X125635Y803181D1*
X128533Y803639D1*
X131467D1*
X134365Y803181D1*
X137155Y802274D1*
X139769Y800942D1*
X142143Y799218D1*
X144218Y797143D1*
X145942Y794769D1*
X147274Y792155D1*
X148181Y789365D1*
X148639Y786467D1*
Y783533D1*
X987639Y773533D2*
X987181Y770635D1*
X986274Y767845D1*
X984942Y765231D1*
X983218Y762857D1*
X981143Y760782D1*
X978769Y759058D1*
X976155Y757726D1*
X973365Y756819D1*
X970467Y756361D1*
X967533D1*
X964635Y756819D1*
X961845Y757726D1*
X959231Y759058D1*
X956857Y760782D1*
X954782Y762857D1*
X953058Y765231D1*
X951726Y767845D1*
X950819Y770635D1*
X950361Y773533D1*
Y776467D1*
X950819Y779365D1*
X951726Y782155D1*
X953058Y784769D1*
X954782Y787143D1*
X956857Y789218D1*
X959231Y790942D1*
X961845Y792274D1*
X964635Y793181D1*
X967533Y793639D1*
X970467D1*
X973365Y793181D1*
X976155Y792274D1*
X978769Y790942D1*
X981143Y789218D1*
X983218Y787143D1*
X984942Y784769D1*
X986274Y782155D1*
X987181Y779365D1*
X987639Y776467D1*
Y773533D1*
X353639Y855533D2*
X353181Y852635D1*
X352274Y849845D1*
X350942Y847231D1*
X349218Y844857D1*
X347143Y842782D1*
X344769Y841058D1*
X342155Y839726D1*
X339365Y838819D1*
X336467Y838361D1*
X333533D1*
X330635Y838819D1*
X327845Y839726D1*
X325231Y841058D1*
X322857Y842782D1*
X320782Y844857D1*
X319058Y847231D1*
X317726Y849845D1*
X316819Y852635D1*
X316361Y855533D1*
Y858467D1*
X316819Y861365D1*
X317726Y864155D1*
X319058Y866769D1*
X320782Y869143D1*
X322857Y871218D1*
X325231Y872942D1*
X327845Y874274D1*
X330635Y875181D1*
X333533Y875639D1*
X336467D1*
X339365Y875181D1*
X342155Y874274D1*
X344769Y872942D1*
X347143Y871218D1*
X349218Y869143D1*
X350942Y866769D1*
X352274Y864155D1*
X353181Y861365D1*
X353639Y858467D1*
Y855533D1*
X68639Y570533D2*
X68181Y567635D1*
X67274Y564845D1*
X65942Y562231D1*
X64218Y559857D1*
X62143Y557782D1*
X59769Y556058D1*
X57155Y554726D1*
X54365Y553819D1*
X51467Y553361D1*
X48533D1*
X45635Y553819D1*
X42845Y554726D1*
X40231Y556058D1*
X37857Y557782D1*
X35782Y559857D1*
X34058Y562231D1*
X32726Y564845D1*
X31819Y567635D1*
X31361Y570533D1*
Y573467D1*
X31819Y576365D1*
X32726Y579155D1*
X34058Y581769D1*
X35782Y584143D1*
X37857Y586218D1*
X40231Y587942D1*
X42845Y589274D1*
X45635Y590181D1*
X48533Y590639D1*
X51467D1*
X54365Y590181D1*
X57155Y589274D1*
X59769Y587942D1*
X62143Y586218D1*
X64218Y584143D1*
X65942Y581769D1*
X67274Y579155D1*
X68181Y576365D1*
X68639Y573467D1*
Y570533D1*
X263701Y1055839D2*
X261927Y1053774D1*
X259696Y1051869D1*
X257194Y1050335D1*
X254484Y1049213D1*
X251631Y1048528D1*
X248706Y1048298D1*
X245781Y1048528D1*
X242928Y1049213D1*
X240218Y1050335D1*
X237717Y1051869D1*
X235486Y1053774D1*
X233580Y1056005D1*
X232046Y1058507D1*
X230924Y1061217D1*
X230239Y1064070D1*
X230009Y1066995D1*
X230239Y1069920D1*
X230924Y1072773D1*
X232046Y1075483D1*
X233580Y1077984D1*
X235486Y1080215D1*
X237717Y1082121D1*
X240218Y1083655D1*
X242928Y1084777D1*
X245781Y1085462D1*
X248706Y1085692D1*
X251631Y1085462D1*
X254484Y1084777D1*
X257194Y1083655D1*
X259696Y1082121D1*
X261927Y1080215D1*
X263701Y1078151D1*
X265486Y1080215D1*
X267717Y1082121D1*
X270218Y1083655D1*
X272928Y1084777D1*
X275781Y1085462D1*
X278706Y1085692D1*
X281631Y1085462D1*
X284484Y1084777D1*
X287194Y1083655D1*
X289696Y1082121D1*
X291927Y1080215D1*
X293832Y1077984D1*
X295366Y1075483D1*
X296488Y1072773D1*
X297173Y1069920D1*
X297403Y1066995D1*
X297173Y1064070D1*
X296488Y1061217D1*
X295366Y1058507D1*
X293832Y1056005D1*
X291927Y1053774D1*
X289696Y1051869D1*
X287194Y1050335D1*
X284484Y1049213D1*
X281631Y1048528D1*
X278706Y1048298D1*
X275781Y1048528D1*
X272928Y1049213D1*
X270218Y1050335D1*
X267717Y1051869D1*
X265486Y1053774D1*
X263711Y1055839D1*
X148639Y743533D2*
X148181Y740635D1*
X147274Y737845D1*
X145942Y735231D1*
X144218Y732857D1*
X142143Y730782D1*
X139769Y729058D1*
X137155Y727726D1*
X134365Y726819D1*
X131467Y726361D1*
X128533D1*
X125635Y726819D1*
X122845Y727726D1*
X120231Y729058D1*
X117857Y730782D1*
X115782Y732857D1*
X114058Y735231D1*
X112726Y737845D1*
X111819Y740635D1*
X111361Y743533D1*
Y746467D1*
X111819Y749365D1*
X112726Y752155D1*
X114058Y754769D1*
X115782Y757143D1*
X117857Y759218D1*
X120231Y760942D1*
X122845Y762274D1*
X125635Y763181D1*
X128533Y763639D1*
X131467D1*
X134365Y763181D1*
X137155Y762274D1*
X139769Y760942D1*
X142143Y759218D1*
X144218Y757143D1*
X145942Y754769D1*
X147274Y752155D1*
X148181Y749365D1*
X148639Y746467D1*
Y743533D1*
X215639Y566533D2*
X215181Y563635D1*
X214274Y560845D1*
X212942Y558231D1*
X211218Y555857D1*
X209143Y553782D1*
X206769Y552058D1*
X204155Y550726D1*
X201365Y549819D1*
X198467Y549361D1*
X195533D1*
X192635Y549819D1*
X189845Y550726D1*
X187231Y552058D1*
X184857Y553782D1*
X182782Y555857D1*
X181058Y558231D1*
X179726Y560845D1*
X178819Y563635D1*
X178361Y566533D1*
Y569467D1*
X178819Y572365D1*
X179726Y575155D1*
X181058Y577769D1*
X182782Y580143D1*
X184857Y582218D1*
X187231Y583942D1*
X189845Y585274D1*
X192635Y586181D1*
X195533Y586639D1*
X198467D1*
X201365Y586181D1*
X204155Y585274D1*
X206769Y583942D1*
X209143Y582218D1*
X211218Y580143D1*
X212942Y577769D1*
X214274Y575155D1*
X215181Y572365D1*
X215639Y569467D1*
Y566533D1*
X148639Y703533D2*
X148181Y700635D1*
X147274Y697845D1*
X145942Y695231D1*
X144218Y692857D1*
X142143Y690782D1*
X139769Y689058D1*
X137155Y687726D1*
X134365Y686819D1*
X131467Y686361D1*
X128533D1*
X125635Y686819D1*
X122845Y687726D1*
X120231Y689058D1*
X117857Y690782D1*
X115782Y692857D1*
X114058Y695231D1*
X112726Y697845D1*
X111819Y700635D1*
X111361Y703533D1*
Y706467D1*
X111819Y709365D1*
X112726Y712155D1*
X114058Y714769D1*
X115782Y717143D1*
X117857Y719218D1*
X120231Y720942D1*
X122845Y722274D1*
X125635Y723181D1*
X128533Y723639D1*
X131467D1*
X134365Y723181D1*
X137155Y722274D1*
X139769Y720942D1*
X142143Y719218D1*
X144218Y717143D1*
X145942Y714769D1*
X147274Y712155D1*
X148181Y709365D1*
X148639Y706467D1*
Y703533D1*
Y663533D2*
X148181Y660635D1*
X147274Y657845D1*
X145942Y655231D1*
X144218Y652857D1*
X142143Y650782D1*
X139769Y649058D1*
X137155Y647726D1*
X134365Y646819D1*
X131467Y646361D1*
X128533D1*
X125635Y646819D1*
X122845Y647726D1*
X120231Y649058D1*
X117857Y650782D1*
X115782Y652857D1*
X114058Y655231D1*
X112726Y657845D1*
X111819Y660635D1*
X111361Y663533D1*
Y666467D1*
X111819Y669365D1*
X112726Y672155D1*
X114058Y674769D1*
X115782Y677143D1*
X117857Y679218D1*
X120231Y680942D1*
X122845Y682274D1*
X125635Y683181D1*
X128533Y683639D1*
X131467D1*
X134365Y683181D1*
X137155Y682274D1*
X139769Y680942D1*
X142143Y679218D1*
X144218Y677143D1*
X145942Y674769D1*
X147274Y672155D1*
X148181Y669365D1*
X148639Y666467D1*
Y663533D1*
X188639Y823533D2*
X188181Y820635D1*
X187274Y817845D1*
X185942Y815231D1*
X184218Y812857D1*
X182143Y810782D1*
X179769Y809058D1*
X177155Y807726D1*
X174365Y806819D1*
X171467Y806361D1*
X168533D1*
X165635Y806819D1*
X162845Y807726D1*
X160231Y809058D1*
X157857Y810782D1*
X155782Y812857D1*
X154058Y815231D1*
X152726Y817845D1*
X151819Y820635D1*
X151361Y823533D1*
Y826467D1*
X151819Y829365D1*
X152726Y832155D1*
X154058Y834769D1*
X155782Y837143D1*
X157857Y839218D1*
X160231Y840942D1*
X162845Y842274D1*
X165635Y843181D1*
X168533Y843639D1*
X171467D1*
X174365Y843181D1*
X177155Y842274D1*
X179769Y840942D1*
X182143Y839218D1*
X184218Y837143D1*
X185942Y834769D1*
X187274Y832155D1*
X188181Y829365D1*
X188639Y826467D1*
Y823533D1*
Y783533D2*
X188181Y780635D1*
X187274Y777845D1*
X185942Y775231D1*
X184218Y772857D1*
X182143Y770782D1*
X179769Y769058D1*
X177155Y767726D1*
X174365Y766819D1*
X171467Y766361D1*
X168533D1*
X165635Y766819D1*
X162845Y767726D1*
X160231Y769058D1*
X157857Y770782D1*
X155782Y772857D1*
X154058Y775231D1*
X152726Y777845D1*
X151819Y780635D1*
X151361Y783533D1*
Y786467D1*
X151819Y789365D1*
X152726Y792155D1*
X154058Y794769D1*
X155782Y797143D1*
X157857Y799218D1*
X160231Y800942D1*
X162845Y802274D1*
X165635Y803181D1*
X168533Y803639D1*
X171467D1*
X174365Y803181D1*
X177155Y802274D1*
X179769Y800942D1*
X182143Y799218D1*
X184218Y797143D1*
X185942Y794769D1*
X187274Y792155D1*
X188181Y789365D1*
X188639Y786467D1*
Y783533D1*
Y743533D2*
X188181Y740635D1*
X187274Y737845D1*
X185942Y735231D1*
X184218Y732857D1*
X182143Y730782D1*
X179769Y729058D1*
X177155Y727726D1*
X174365Y726819D1*
X171467Y726361D1*
X168533D1*
X165635Y726819D1*
X162845Y727726D1*
X160231Y729058D1*
X157857Y730782D1*
X155782Y732857D1*
X154058Y735231D1*
X152726Y737845D1*
X151819Y740635D1*
X151361Y743533D1*
Y746467D1*
X151819Y749365D1*
X152726Y752155D1*
X154058Y754769D1*
X155782Y757143D1*
X157857Y759218D1*
X160231Y760942D1*
X162845Y762274D1*
X165635Y763181D1*
X168533Y763639D1*
X171467D1*
X174365Y763181D1*
X177155Y762274D1*
X179769Y760942D1*
X182143Y759218D1*
X184218Y757143D1*
X185942Y754769D1*
X187274Y752155D1*
X188181Y749365D1*
X188639Y746467D1*
Y743533D1*
Y703533D2*
X188181Y700635D1*
X187274Y697845D1*
X185942Y695231D1*
X184218Y692857D1*
X182143Y690782D1*
X179769Y689058D1*
X177155Y687726D1*
X174365Y686819D1*
X171467Y686361D1*
X168533D1*
X165635Y686819D1*
X162845Y687726D1*
X160231Y689058D1*
X157857Y690782D1*
X155782Y692857D1*
X154058Y695231D1*
X152726Y697845D1*
X151819Y700635D1*
X151361Y703533D1*
Y706467D1*
X151819Y709365D1*
X152726Y712155D1*
X154058Y714769D1*
X155782Y717143D1*
X157857Y719218D1*
X160231Y720942D1*
X162845Y722274D1*
X165635Y723181D1*
X168533Y723639D1*
X171467D1*
X174365Y723181D1*
X177155Y722274D1*
X179769Y720942D1*
X182143Y719218D1*
X184218Y717143D1*
X185942Y714769D1*
X187274Y712155D1*
X188181Y709365D1*
X188639Y706467D1*
Y703533D1*
X366644Y1312535D2*
X366186Y1309638D1*
X366091Y1309301D1*
X368772Y1307937D1*
X371146Y1306213D1*
X373220Y1304138D1*
X374945Y1301764D1*
X376277Y1299150D1*
X377184Y1296360D1*
X377642Y1293462D1*
Y1290528D1*
X377184Y1287630D1*
X376277Y1284840D1*
X374945Y1282226D1*
X373220Y1279852D1*
X371146Y1277777D1*
X368772Y1276052D1*
X366157Y1274720D1*
X365840Y1274604D1*
X366472Y1271928D1*
X366702Y1269003D1*
X366472Y1266077D1*
X365787Y1263224D1*
X364665Y1260514D1*
X363131Y1258013D1*
X361226Y1255782D1*
X358995Y1253877D1*
X356493Y1252343D1*
X353783Y1251220D1*
X350930Y1250535D1*
X348005Y1250306D1*
X345080Y1250535D1*
X342227Y1251220D1*
X339517Y1252343D1*
X337016Y1253877D1*
X334785Y1255782D1*
X332879Y1258013D1*
X331345Y1260514D1*
X330223Y1263224D1*
X329538Y1266077D1*
X329308Y1269003D1*
X329538Y1271928D1*
X330223Y1274781D1*
X331345Y1277491D1*
X332879Y1279992D1*
X334785Y1282223D1*
X337016Y1284129D1*
X339517Y1285663D1*
X341168Y1286394D1*
X340535Y1289070D1*
X340306Y1291995D1*
X340535Y1294920D1*
X340917Y1296697D1*
X338236Y1298060D1*
X335862Y1299785D1*
X333787Y1301860D1*
X332063Y1304234D1*
X330731Y1306848D1*
X329824Y1309638D1*
X329366Y1312535D1*
Y1315470D1*
X329824Y1318367D1*
X330731Y1321157D1*
X332063Y1323772D1*
X333787Y1326146D1*
X335862Y1328220D1*
X338236Y1329945D1*
X340850Y1331277D1*
X343640Y1332184D1*
X346538Y1332642D1*
X349472D1*
X352370Y1332184D1*
X355160Y1331277D1*
X357774Y1329945D1*
X360148Y1328220D1*
X362223Y1326146D1*
X363948Y1323772D1*
X365280Y1321157D1*
X366186Y1318367D1*
X366644Y1315470D1*
Y1312535D1*
X598639Y801533D2*
X598181Y798635D1*
X597274Y795845D1*
X595942Y793231D1*
X594218Y790857D1*
X592143Y788782D1*
X589769Y787058D1*
X587155Y785726D1*
X584365Y784819D1*
X581467Y784361D1*
X578533D1*
X575635Y784819D1*
X572845Y785726D1*
X570231Y787058D1*
X567857Y788782D1*
X565782Y790857D1*
X564058Y793231D1*
X562726Y795845D1*
X561819Y798635D1*
X561361Y801533D1*
Y804467D1*
X561819Y807365D1*
X562726Y810155D1*
X564058Y812769D1*
X565782Y815143D1*
X567857Y817218D1*
X570231Y818942D1*
X572845Y820274D1*
X575635Y821181D1*
X578533Y821639D1*
X581467D1*
X584365Y821181D1*
X587155Y820274D1*
X589769Y818942D1*
X592143Y817218D1*
X594218Y815143D1*
X595942Y812769D1*
X597274Y810155D1*
X598181Y807365D1*
X598639Y804467D1*
Y801533D1*
X1008639Y1312535D2*
X1008291Y1310194D1*
X1011157Y1309269D1*
X1013772Y1307937D1*
X1016146Y1306213D1*
X1018220Y1304138D1*
X1019945Y1301764D1*
X1021277Y1299150D1*
X1022184Y1296360D1*
X1022642Y1293462D1*
Y1290528D1*
X1022184Y1287630D1*
X1021277Y1284840D1*
X1019945Y1282226D1*
X1018220Y1279852D1*
X1016146Y1277777D1*
X1013772Y1276052D1*
X1011157Y1274720D1*
X1008367Y1273814D1*
X1005470Y1273356D1*
X1002535D1*
X999638Y1273814D1*
X996848Y1274720D1*
X994234Y1276052D1*
X992008Y1277660D1*
X989769Y1276052D1*
X987155Y1274720D1*
X984365Y1273814D1*
X981467Y1273356D1*
X978533D1*
X975635Y1273814D1*
X972845Y1274720D1*
X970231Y1276052D1*
X967857Y1277777D1*
X965782Y1279852D1*
X964058Y1282226D1*
X962726Y1284840D1*
X961819Y1287630D1*
X961361Y1290528D1*
Y1293462D1*
X961819Y1296360D1*
X962726Y1299150D1*
X964058Y1301764D1*
X965782Y1304138D1*
X967857Y1306213D1*
X970231Y1307937D1*
X972017Y1308887D1*
X971533Y1311077D1*
X971303Y1314003D1*
X971533Y1316928D1*
X972218Y1319781D1*
X973340Y1322491D1*
X974874Y1324992D1*
X976780Y1327223D1*
X979010Y1329129D1*
X981512Y1330663D1*
X984222Y1331785D1*
X987075Y1332470D1*
X990000Y1332699D1*
X992925Y1332470D1*
X995778Y1331785D1*
X998488Y1330663D1*
X1000990Y1329129D1*
X1003220Y1327223D1*
X1005126Y1324992D1*
X1006660Y1322491D1*
X1007782Y1319781D1*
X1008467Y1316928D1*
X1008697Y1314003D1*
X1008639Y1312535D1*
X956639Y633533D2*
X956181Y630635D1*
X955274Y627845D1*
X953942Y625231D1*
X952218Y622857D1*
X950143Y620782D1*
X947769Y619058D1*
X945155Y617726D1*
X942365Y616819D1*
X939467Y616361D1*
X936533D1*
X933635Y616819D1*
X930845Y617726D1*
X928231Y619058D1*
X925857Y620782D1*
X923782Y622857D1*
X922058Y625231D1*
X920726Y627845D1*
X919819Y630635D1*
X919361Y633533D1*
Y636467D1*
X919819Y639365D1*
X920726Y642155D1*
X922058Y644769D1*
X923782Y647143D1*
X925857Y649218D1*
X928231Y650942D1*
X930845Y652274D1*
X933635Y653181D1*
X936533Y653639D1*
X939467D1*
X942365Y653181D1*
X945155Y652274D1*
X947769Y650942D1*
X950143Y649218D1*
X952218Y647143D1*
X953942Y644769D1*
X955274Y642155D1*
X956181Y639365D1*
X956639Y636467D1*
Y633533D1*
X377639Y1140533D2*
X377181Y1137635D1*
X376274Y1134845D1*
X374942Y1132231D1*
X373218Y1129857D1*
X371143Y1127782D1*
X368769Y1126058D1*
X366155Y1124726D1*
X363365Y1123819D1*
X360467Y1123361D1*
X357533D1*
X354635Y1123819D1*
X351845Y1124726D1*
X349231Y1126058D1*
X346857Y1127782D1*
X344782Y1129857D1*
X343058Y1132231D1*
X341726Y1134845D1*
X340819Y1137635D1*
X340361Y1140533D1*
Y1143467D1*
X340819Y1146365D1*
X341726Y1149155D1*
X343058Y1151769D1*
X344782Y1154143D1*
X346857Y1156218D1*
X349231Y1157942D1*
X351845Y1159274D1*
X354635Y1160181D1*
X357533Y1160639D1*
X360467D1*
X363365Y1160181D1*
X366155Y1159274D1*
X368769Y1157942D1*
X371143Y1156218D1*
X373218Y1154143D1*
X374942Y1151769D1*
X376274Y1149155D1*
X377181Y1146365D1*
X377639Y1143467D1*
Y1140533D1*
X761639Y1049533D2*
X761181Y1046635D1*
X760274Y1043845D1*
X758942Y1041231D1*
X757218Y1038857D1*
X755143Y1036782D1*
X752769Y1035058D1*
X750155Y1033726D1*
X747365Y1032819D1*
X744467Y1032361D1*
X741533D1*
X738635Y1032819D1*
X735845Y1033726D1*
X733231Y1035058D1*
X730857Y1036782D1*
X728782Y1038857D1*
X727058Y1041231D1*
X725726Y1043845D1*
X724819Y1046635D1*
X724361Y1049533D1*
Y1052467D1*
X724819Y1055365D1*
X725726Y1058155D1*
X727058Y1060769D1*
X728782Y1063143D1*
X730857Y1065218D1*
X733231Y1066942D1*
X735845Y1068274D1*
X738635Y1069181D1*
X741533Y1069639D1*
X744467D1*
X747365Y1069181D1*
X750155Y1068274D1*
X752769Y1066942D1*
X755143Y1065218D1*
X757218Y1063143D1*
X758942Y1060769D1*
X760274Y1058155D1*
X761181Y1055365D1*
X761639Y1052467D1*
Y1049533D1*
X865699Y664950D2*
X865241Y662052D1*
X864335Y659262D1*
X863003Y656648D1*
X861278Y654274D1*
X859203Y652199D1*
X856829Y650475D1*
X854215Y649143D1*
X851425Y648236D1*
X848528Y647778D1*
X845593D1*
X842696Y648236D1*
X839906Y649143D1*
X837291Y650475D1*
X834917Y652199D1*
X832843Y654274D1*
X831118Y656648D1*
X829786Y659262D1*
X828879Y662052D1*
X828421Y664950D1*
Y667885D1*
X828879Y670782D1*
X829786Y673572D1*
X831118Y676186D1*
X832843Y678560D1*
X834917Y680635D1*
X837291Y682360D1*
X839906Y683692D1*
X842696Y684598D1*
X845593Y685056D1*
X848528D1*
X851425Y684598D1*
X854215Y683692D1*
X856829Y682360D1*
X859203Y680635D1*
X861278Y678560D1*
X863003Y676186D1*
X864335Y673572D1*
X865241Y670782D1*
X865699Y667885D1*
Y664950D1*
X865634Y605528D2*
X865176Y602630D1*
X864269Y599840D1*
X862937Y597226D1*
X861213Y594852D1*
X859138Y592777D1*
X856764Y591052D1*
X854150Y589720D1*
X851360Y588814D1*
X848462Y588356D1*
X845528D1*
X842630Y588814D1*
X839840Y589720D1*
X837226Y591052D1*
X834852Y592777D1*
X832777Y594852D1*
X831052Y597226D1*
X829720Y599840D1*
X828814Y602630D1*
X828356Y605528D1*
Y608462D1*
X828814Y611360D1*
X829720Y614150D1*
X831052Y616764D1*
X832777Y619138D1*
X834852Y621213D1*
X837226Y622937D1*
X839840Y624269D1*
X842630Y625176D1*
X845528Y625634D1*
X848462D1*
X851360Y625176D1*
X854150Y624269D1*
X856764Y622937D1*
X859138Y621213D1*
X861213Y619138D1*
X862937Y616764D1*
X864269Y614150D1*
X865176Y611360D1*
X865634Y608462D1*
Y605528D1*
X188639Y663533D2*
X188181Y660635D1*
X187274Y657845D1*
X185942Y655231D1*
X184218Y652857D1*
X182143Y650782D1*
X179769Y649058D1*
X177155Y647726D1*
X174365Y646819D1*
X171467Y646361D1*
X168533D1*
X165635Y646819D1*
X162845Y647726D1*
X160231Y649058D1*
X157857Y650782D1*
X155782Y652857D1*
X154058Y655231D1*
X152726Y657845D1*
X151819Y660635D1*
X151361Y663533D1*
Y666467D1*
X151819Y669365D1*
X152726Y672155D1*
X154058Y674769D1*
X155782Y677143D1*
X157857Y679218D1*
X160231Y680942D1*
X162845Y682274D1*
X165635Y683181D1*
X168533Y683639D1*
X171467D1*
X174365Y683181D1*
X177155Y682274D1*
X179769Y680942D1*
X182143Y679218D1*
X184218Y677143D1*
X185942Y674769D1*
X187274Y672155D1*
X188181Y669365D1*
X188639Y666467D1*
Y663533D1*
X228639Y823533D2*
X228181Y820635D1*
X227274Y817845D1*
X225942Y815231D1*
X224218Y812857D1*
X222143Y810782D1*
X219769Y809058D1*
X217155Y807726D1*
X214365Y806819D1*
X211467Y806361D1*
X208533D1*
X205635Y806819D1*
X202845Y807726D1*
X200231Y809058D1*
X197857Y810782D1*
X195782Y812857D1*
X194058Y815231D1*
X192726Y817845D1*
X191819Y820635D1*
X191361Y823533D1*
Y826467D1*
X191819Y829365D1*
X192726Y832155D1*
X194058Y834769D1*
X195782Y837143D1*
X197857Y839218D1*
X200231Y840942D1*
X202845Y842274D1*
X205635Y843181D1*
X208533Y843639D1*
X211467D1*
X214365Y843181D1*
X217155Y842274D1*
X219769Y840942D1*
X222143Y839218D1*
X224218Y837143D1*
X225942Y834769D1*
X227274Y832155D1*
X228181Y829365D1*
X228639Y826467D1*
Y823533D1*
Y783533D2*
X228181Y780635D1*
X227274Y777845D1*
X225942Y775231D1*
X224218Y772857D1*
X222143Y770782D1*
X219769Y769058D1*
X217155Y767726D1*
X214365Y766819D1*
X211467Y766361D1*
X208533D1*
X205635Y766819D1*
X202845Y767726D1*
X200231Y769058D1*
X197857Y770782D1*
X195782Y772857D1*
X194058Y775231D1*
X192726Y777845D1*
X191819Y780635D1*
X191361Y783533D1*
Y786467D1*
X191819Y789365D1*
X192726Y792155D1*
X194058Y794769D1*
X195782Y797143D1*
X197857Y799218D1*
X200231Y800942D1*
X202845Y802274D1*
X205635Y803181D1*
X208533Y803639D1*
X211467D1*
X214365Y803181D1*
X217155Y802274D1*
X219769Y800942D1*
X222143Y799218D1*
X224218Y797143D1*
X225942Y794769D1*
X227274Y792155D1*
X228181Y789365D1*
X228639Y786467D1*
Y783533D1*
Y743533D2*
X228181Y740635D1*
X227274Y737845D1*
X225942Y735231D1*
X224218Y732857D1*
X222143Y730782D1*
X219769Y729058D1*
X217155Y727726D1*
X214365Y726819D1*
X211467Y726361D1*
X208533D1*
X205635Y726819D1*
X202845Y727726D1*
X200231Y729058D1*
X197857Y730782D1*
X195782Y732857D1*
X194058Y735231D1*
X192726Y737845D1*
X191819Y740635D1*
X191361Y743533D1*
Y746467D1*
X191819Y749365D1*
X192726Y752155D1*
X194058Y754769D1*
X195782Y757143D1*
X197857Y759218D1*
X200231Y760942D1*
X202845Y762274D1*
X205635Y763181D1*
X208533Y763639D1*
X211467D1*
X214365Y763181D1*
X217155Y762274D1*
X219769Y760942D1*
X222143Y759218D1*
X224218Y757143D1*
X225942Y754769D1*
X227274Y752155D1*
X228181Y749365D1*
X228639Y746467D1*
Y743533D1*
Y703533D2*
X228181Y700635D1*
X227274Y697845D1*
X225942Y695231D1*
X224218Y692857D1*
X222143Y690782D1*
X219769Y689058D1*
X217155Y687726D1*
X214365Y686819D1*
X211467Y686361D1*
X208533D1*
X205635Y686819D1*
X202845Y687726D1*
X200231Y689058D1*
X197857Y690782D1*
X195782Y692857D1*
X194058Y695231D1*
X192726Y697845D1*
X191819Y700635D1*
X191361Y703533D1*
Y706467D1*
X191819Y709365D1*
X192726Y712155D1*
X194058Y714769D1*
X195782Y717143D1*
X197857Y719218D1*
X200231Y720942D1*
X202845Y722274D1*
X205635Y723181D1*
X208533Y723639D1*
X211467D1*
X214365Y723181D1*
X217155Y722274D1*
X219769Y720942D1*
X222143Y719218D1*
X224218Y717143D1*
X225942Y714769D1*
X227274Y712155D1*
X228181Y709365D1*
X228639Y706467D1*
Y703533D1*
Y663533D2*
X228181Y660635D1*
X227274Y657845D1*
X225942Y655231D1*
X224218Y652857D1*
X222143Y650782D1*
X219769Y649058D1*
X217155Y647726D1*
X214365Y646819D1*
X211467Y646361D1*
X208533D1*
X205635Y646819D1*
X202845Y647726D1*
X200231Y649058D1*
X197857Y650782D1*
X195782Y652857D1*
X194058Y655231D1*
X192726Y657845D1*
X191819Y660635D1*
X191361Y663533D1*
Y666467D1*
X191819Y669365D1*
X192726Y672155D1*
X194058Y674769D1*
X195782Y677143D1*
X197857Y679218D1*
X200231Y680942D1*
X202845Y682274D1*
X205635Y683181D1*
X208533Y683639D1*
X211467D1*
X214365Y683181D1*
X217155Y682274D1*
X219769Y680942D1*
X222143Y679218D1*
X224218Y677143D1*
X225942Y674769D1*
X227274Y672155D1*
X228181Y669365D1*
X228639Y666467D1*
Y663533D1*
X268639Y823533D2*
X268181Y820635D1*
X267274Y817845D1*
X265942Y815231D1*
X264218Y812857D1*
X262143Y810782D1*
X259769Y809058D1*
X257155Y807726D1*
X254365Y806819D1*
X251467Y806361D1*
X248533D1*
X245635Y806819D1*
X242845Y807726D1*
X240231Y809058D1*
X237857Y810782D1*
X235782Y812857D1*
X234058Y815231D1*
X232726Y817845D1*
X231819Y820635D1*
X231361Y823533D1*
Y826467D1*
X231819Y829365D1*
X232726Y832155D1*
X234058Y834769D1*
X235782Y837143D1*
X237857Y839218D1*
X240231Y840942D1*
X242845Y842274D1*
X245635Y843181D1*
X248533Y843639D1*
X251467D1*
X254365Y843181D1*
X257155Y842274D1*
X259769Y840942D1*
X262143Y839218D1*
X264218Y837143D1*
X265942Y834769D1*
X267274Y832155D1*
X268181Y829365D1*
X268639Y826467D1*
Y823533D1*
X1064639Y556533D2*
X1064181Y553635D1*
X1063274Y550845D1*
X1061942Y548231D1*
X1060218Y545857D1*
X1058143Y543782D1*
X1055769Y542058D1*
X1053155Y540726D1*
X1050365Y539819D1*
X1047467Y539361D1*
X1044533D1*
X1041635Y539819D1*
X1038845Y540726D1*
X1036231Y542058D1*
X1033857Y543782D1*
X1031782Y545857D1*
X1030058Y548231D1*
X1028726Y550845D1*
X1027819Y553635D1*
X1027361Y556533D1*
Y559467D1*
X1027819Y562365D1*
X1028726Y565155D1*
X1030058Y567769D1*
X1031782Y570143D1*
X1033857Y572218D1*
X1036231Y573942D1*
X1038845Y575274D1*
X1041635Y576181D1*
X1044533Y576639D1*
X1047467D1*
X1050365Y576181D1*
X1053155Y575274D1*
X1055769Y573942D1*
X1058143Y572218D1*
X1060218Y570143D1*
X1061942Y567769D1*
X1063274Y565155D1*
X1064181Y562365D1*
X1064639Y559467D1*
Y556533D1*
X1240634Y1260535D2*
X1240176Y1257638D1*
X1239269Y1254848D1*
X1237937Y1252234D1*
X1236213Y1249860D1*
X1234138Y1247785D1*
X1233151Y1247008D1*
X1235215Y1245223D1*
X1237121Y1242992D1*
X1238655Y1240491D1*
X1239777Y1237781D1*
X1240462Y1234928D1*
X1240692Y1232003D1*
X1240462Y1229077D1*
X1239777Y1226224D1*
X1238655Y1223514D1*
X1237121Y1221013D1*
X1235215Y1218782D1*
X1232984Y1216877D1*
X1230483Y1215343D1*
X1227773Y1214220D1*
X1224920Y1213535D1*
X1221995Y1213306D1*
X1219070Y1213535D1*
X1216217Y1214220D1*
X1213507Y1215343D1*
X1211005Y1216877D1*
X1208774Y1218782D1*
X1206869Y1221013D1*
X1205335Y1223514D1*
X1204213Y1226224D1*
X1203528Y1229077D1*
X1203298Y1232003D1*
X1203528Y1234928D1*
X1204213Y1237781D1*
X1205335Y1240491D1*
X1206869Y1242992D1*
X1208774Y1245223D1*
X1210839Y1246997D1*
X1208774Y1248782D1*
X1206869Y1251013D1*
X1205335Y1253514D1*
X1204213Y1256224D1*
X1203528Y1259077D1*
X1203298Y1262003D1*
X1203528Y1264928D1*
X1204213Y1267781D1*
X1205335Y1270491D1*
X1206869Y1272992D1*
X1208774Y1275223D1*
X1211005Y1277129D1*
X1213507Y1278663D1*
X1216217Y1279785D1*
X1219070Y1280470D1*
X1221995Y1280699D1*
X1224920Y1280470D1*
X1227773Y1279785D1*
X1230483Y1278663D1*
X1232984Y1277129D1*
X1235215Y1275223D1*
X1237121Y1272992D1*
X1238655Y1270491D1*
X1239777Y1267781D1*
X1240462Y1264928D1*
X1240692Y1262003D1*
X1240634Y1260535D1*
X1208639Y529533D2*
X1208181Y526635D1*
X1207274Y523845D1*
X1205942Y521231D1*
X1204218Y518857D1*
X1202143Y516782D1*
X1199769Y515058D1*
X1197155Y513726D1*
X1194365Y512819D1*
X1191467Y512361D1*
X1188533D1*
X1185635Y512819D1*
X1182845Y513726D1*
X1180556Y514875D1*
X1182126Y512990D1*
X1183660Y510488D1*
X1184782Y507778D1*
X1185467Y504925D1*
X1185697Y502000D1*
X1185467Y499075D1*
X1184782Y496222D1*
X1183660Y493512D1*
X1182126Y491010D1*
X1180220Y488780D1*
X1177990Y486874D1*
X1175488Y485340D1*
X1172778Y484218D1*
X1169925Y483533D1*
X1167000Y483303D1*
X1164075Y483533D1*
X1161222Y484218D1*
X1158512Y485340D1*
X1156010Y486874D1*
X1153780Y488780D1*
X1151874Y491010D1*
X1150340Y493512D1*
X1149218Y496222D1*
X1148533Y499075D1*
X1148303Y502000D1*
X1148533Y504925D1*
X1149218Y507778D1*
X1150340Y510488D1*
X1151874Y512990D1*
X1153780Y515220D1*
X1156010Y517126D1*
X1158512Y518660D1*
X1161222Y519782D1*
X1164075Y520467D1*
X1167000Y520697D1*
X1169925Y520467D1*
X1172778Y519782D1*
X1175488Y518660D1*
X1176444Y518125D1*
X1174874Y520010D1*
X1173340Y522512D1*
X1172218Y525222D1*
X1171533Y528075D1*
X1171303Y531000D1*
X1171533Y533925D1*
X1172218Y536778D1*
X1173340Y539488D1*
X1174874Y541990D1*
X1176780Y544220D1*
X1179010Y546126D1*
X1181512Y547660D1*
X1184222Y548782D1*
X1187075Y549467D1*
X1190000Y549697D1*
X1192925Y549467D1*
X1195778Y548782D1*
X1198488Y547660D1*
X1200990Y546126D1*
X1203220Y544220D1*
X1205126Y541990D1*
X1206660Y539488D1*
X1207782Y536778D1*
X1208467Y533925D1*
X1208697Y531000D1*
X1208639Y529533D1*
X337345Y1065528D2*
X336887Y1062630D1*
X335980Y1059840D1*
X334648Y1057226D1*
X332924Y1054852D1*
X330849Y1052777D1*
X328475Y1051052D1*
X325861Y1049720D1*
X323071Y1048814D1*
X320173Y1048356D1*
X317239D1*
X314341Y1048814D1*
X311551Y1049720D1*
X308937Y1051052D1*
X306563Y1052777D1*
X304488Y1054852D1*
X302764Y1057226D1*
X301432Y1059840D1*
X300525Y1062630D1*
X300067Y1065528D1*
Y1068462D1*
X300525Y1071360D1*
X301432Y1074150D1*
X302764Y1076764D1*
X304488Y1079138D1*
X306563Y1081213D1*
X308937Y1082937D1*
X311551Y1084269D1*
X314341Y1085176D1*
X317239Y1085634D1*
X320173D1*
X323071Y1085176D1*
X325861Y1084269D1*
X328475Y1082937D1*
X330849Y1081213D1*
X332924Y1079138D1*
X334648Y1076764D1*
X335980Y1074150D1*
X336887Y1071360D1*
X337345Y1068462D1*
Y1065528D1*
X227345D2*
X226887Y1062630D1*
X225980Y1059840D1*
X224648Y1057226D1*
X222924Y1054852D1*
X220849Y1052777D1*
X218475Y1051052D1*
X215861Y1049720D1*
X213071Y1048814D1*
X210173Y1048356D1*
X207239D1*
X204341Y1048814D1*
X201551Y1049720D1*
X198937Y1051052D1*
X196563Y1052777D1*
X194488Y1054852D1*
X192764Y1057226D1*
X191432Y1059840D1*
X190525Y1062630D1*
X190067Y1065528D1*
Y1068462D1*
X190525Y1071360D1*
X191432Y1074150D1*
X192764Y1076764D1*
X194488Y1079138D1*
X196563Y1081213D1*
X198937Y1082937D1*
X201551Y1084269D1*
X204341Y1085176D1*
X207239Y1085634D1*
X210173D1*
X213071Y1085176D1*
X215861Y1084269D1*
X218475Y1082937D1*
X220849Y1081213D1*
X222924Y1079138D1*
X224648Y1076764D1*
X225980Y1074150D1*
X226887Y1071360D1*
X227345Y1068462D1*
Y1065528D1*
X1153639Y773533D2*
X1153181Y770635D1*
X1152274Y767845D1*
X1150942Y765231D1*
X1149218Y762857D1*
X1147143Y760782D1*
X1144769Y759058D1*
X1142155Y757726D1*
X1139365Y756819D1*
X1136467Y756361D1*
X1133533D1*
X1130635Y756819D1*
X1127845Y757726D1*
X1125231Y759058D1*
X1122857Y760782D1*
X1120782Y762857D1*
X1119058Y765231D1*
X1117726Y767845D1*
X1116819Y770635D1*
X1116361Y773533D1*
Y776467D1*
X1116819Y779365D1*
X1117726Y782155D1*
X1119058Y784769D1*
X1120782Y787143D1*
X1122857Y789218D1*
X1125231Y790942D1*
X1127845Y792274D1*
X1130635Y793181D1*
X1133533Y793639D1*
X1136467D1*
X1139365Y793181D1*
X1142155Y792274D1*
X1144769Y790942D1*
X1147143Y789218D1*
X1149218Y787143D1*
X1150942Y784769D1*
X1152274Y782155D1*
X1153181Y779365D1*
X1153639Y776467D1*
Y773533D1*
X937639Y820533D2*
X937181Y817635D1*
X936274Y814845D1*
X934942Y812231D1*
X933218Y809857D1*
X931143Y807782D1*
X928769Y806058D1*
X926155Y804726D1*
X923365Y803819D1*
X920467Y803361D1*
X917533D1*
X914635Y803819D1*
X911845Y804726D1*
X909231Y806058D1*
X906857Y807782D1*
X904782Y809857D1*
X903058Y812231D1*
X901726Y814845D1*
X900819Y817635D1*
X900361Y820533D1*
Y823467D1*
X900819Y826365D1*
X901726Y829155D1*
X903058Y831769D1*
X904782Y834143D1*
X906857Y836218D1*
X909231Y837942D1*
X911845Y839274D1*
X914635Y840181D1*
X917533Y840639D1*
X920467D1*
X923365Y840181D1*
X926155Y839274D1*
X928769Y837942D1*
X931143Y836218D1*
X933218Y834143D1*
X934942Y831769D1*
X936274Y829155D1*
X937181Y826365D1*
X937639Y823467D1*
Y820533D1*
X268639Y783533D2*
X268181Y780635D1*
X267274Y777845D1*
X265942Y775231D1*
X264218Y772857D1*
X262143Y770782D1*
X259769Y769058D1*
X257155Y767726D1*
X254365Y766819D1*
X251467Y766361D1*
X248533D1*
X245635Y766819D1*
X242845Y767726D1*
X240231Y769058D1*
X237857Y770782D1*
X235782Y772857D1*
X234058Y775231D1*
X232726Y777845D1*
X231819Y780635D1*
X231361Y783533D1*
Y786467D1*
X231819Y789365D1*
X232726Y792155D1*
X234058Y794769D1*
X235782Y797143D1*
X237857Y799218D1*
X240231Y800942D1*
X242845Y802274D1*
X245635Y803181D1*
X248533Y803639D1*
X251467D1*
X254365Y803181D1*
X257155Y802274D1*
X259769Y800942D1*
X262143Y799218D1*
X264218Y797143D1*
X265942Y794769D1*
X267274Y792155D1*
X268181Y789365D1*
X268639Y786467D1*
Y783533D1*
X60639Y664533D2*
X60181Y661635D1*
X59274Y658845D1*
X57942Y656231D1*
X56218Y653857D1*
X54143Y651782D1*
X51769Y650058D1*
X49155Y648726D1*
X46365Y647819D1*
X43467Y647361D1*
X40533D1*
X37635Y647819D1*
X34845Y648726D1*
X32231Y650058D1*
X29857Y651782D1*
X27782Y653857D1*
X26058Y656231D1*
X24726Y658845D1*
X23819Y661635D1*
X23361Y664533D1*
Y667467D1*
X23819Y670365D1*
X24726Y673155D1*
X26058Y675769D1*
X27782Y678143D1*
X29857Y680218D1*
X32231Y681942D1*
X34845Y683274D1*
X37635Y684181D1*
X40533Y684639D1*
X43467D1*
X46365Y684181D1*
X49155Y683274D1*
X51769Y681942D1*
X54143Y680218D1*
X56218Y678143D1*
X57942Y675769D1*
X59274Y673155D1*
X60181Y670365D1*
X60639Y667467D1*
Y664533D1*
X268639Y743533D2*
X268181Y740635D1*
X267274Y737845D1*
X265942Y735231D1*
X264218Y732857D1*
X262143Y730782D1*
X259769Y729058D1*
X257155Y727726D1*
X254365Y726819D1*
X251467Y726361D1*
X248533D1*
X245635Y726819D1*
X242845Y727726D1*
X240231Y729058D1*
X237857Y730782D1*
X235782Y732857D1*
X234058Y735231D1*
X232726Y737845D1*
X231819Y740635D1*
X231361Y743533D1*
Y746467D1*
X231819Y749365D1*
X232726Y752155D1*
X234058Y754769D1*
X235782Y757143D1*
X237857Y759218D1*
X240231Y760942D1*
X242845Y762274D1*
X245635Y763181D1*
X248533Y763639D1*
X251467D1*
X254365Y763181D1*
X257155Y762274D1*
X259769Y760942D1*
X262143Y759218D1*
X264218Y757143D1*
X265942Y754769D1*
X267274Y752155D1*
X268181Y749365D1*
X268639Y746467D1*
Y743533D1*
Y703533D2*
X268181Y700635D1*
X267274Y697845D1*
X265942Y695231D1*
X264218Y692857D1*
X262143Y690782D1*
X259769Y689058D1*
X257155Y687726D1*
X254365Y686819D1*
X251467Y686361D1*
X248533D1*
X245635Y686819D1*
X242845Y687726D1*
X240231Y689058D1*
X237857Y690782D1*
X235782Y692857D1*
X234058Y695231D1*
X232726Y697845D1*
X231819Y700635D1*
X231361Y703533D1*
Y706467D1*
X231819Y709365D1*
X232726Y712155D1*
X234058Y714769D1*
X235782Y717143D1*
X237857Y719218D1*
X240231Y720942D1*
X242845Y722274D1*
X245635Y723181D1*
X248533Y723639D1*
X251467D1*
X254365Y723181D1*
X257155Y722274D1*
X259769Y720942D1*
X262143Y719218D1*
X264218Y717143D1*
X265942Y714769D1*
X267274Y712155D1*
X268181Y709365D1*
X268639Y706467D1*
Y703533D1*
Y663533D2*
X268181Y660635D1*
X267274Y657845D1*
X265942Y655231D1*
X264218Y652857D1*
X262143Y650782D1*
X259769Y649058D1*
X257155Y647726D1*
X254365Y646819D1*
X251467Y646361D1*
X248533D1*
X245635Y646819D1*
X242845Y647726D1*
X240231Y649058D1*
X237857Y650782D1*
X235782Y652857D1*
X234058Y655231D1*
X232726Y657845D1*
X231819Y660635D1*
X231361Y663533D1*
Y666467D1*
X231819Y669365D1*
X232726Y672155D1*
X234058Y674769D1*
X235782Y677143D1*
X237857Y679218D1*
X240231Y680942D1*
X242845Y682274D1*
X245635Y683181D1*
X248533Y683639D1*
X251467D1*
X254365Y683181D1*
X257155Y682274D1*
X259769Y680942D1*
X262143Y679218D1*
X264218Y677143D1*
X265942Y674769D1*
X267274Y672155D1*
X268181Y669365D1*
X268639Y666467D1*
Y663533D1*
X308639Y823533D2*
X308181Y820635D1*
X307274Y817845D1*
X305942Y815231D1*
X304218Y812857D1*
X302143Y810782D1*
X299769Y809058D1*
X297155Y807726D1*
X294365Y806819D1*
X291467Y806361D1*
X288533D1*
X285635Y806819D1*
X282845Y807726D1*
X280231Y809058D1*
X277857Y810782D1*
X275782Y812857D1*
X274058Y815231D1*
X272726Y817845D1*
X271819Y820635D1*
X271361Y823533D1*
Y826467D1*
X271819Y829365D1*
X272726Y832155D1*
X274058Y834769D1*
X275782Y837143D1*
X277857Y839218D1*
X280231Y840942D1*
X282845Y842274D1*
X285635Y843181D1*
X288533Y843639D1*
X291467D1*
X294365Y843181D1*
X297155Y842274D1*
X299769Y840942D1*
X302143Y839218D1*
X304218Y837143D1*
X305942Y834769D1*
X307274Y832155D1*
X308181Y829365D1*
X308639Y826467D1*
Y823533D1*
Y783533D2*
X308181Y780635D1*
X307274Y777845D1*
X305942Y775231D1*
X304218Y772857D1*
X302143Y770782D1*
X299769Y769058D1*
X297155Y767726D1*
X294365Y766819D1*
X291467Y766361D1*
X288533D1*
X285635Y766819D1*
X282845Y767726D1*
X280231Y769058D1*
X277857Y770782D1*
X275782Y772857D1*
X274058Y775231D1*
X272726Y777845D1*
X271819Y780635D1*
X271361Y783533D1*
Y786467D1*
X271819Y789365D1*
X272726Y792155D1*
X274058Y794769D1*
X275782Y797143D1*
X277857Y799218D1*
X280231Y800942D1*
X282845Y802274D1*
X285635Y803181D1*
X288533Y803639D1*
X291467D1*
X294365Y803181D1*
X297155Y802274D1*
X299769Y800942D1*
X302143Y799218D1*
X304218Y797143D1*
X305942Y794769D1*
X307274Y792155D1*
X308181Y789365D1*
X308639Y786467D1*
Y783533D1*
Y743533D2*
X308181Y740635D1*
X307274Y737845D1*
X305942Y735231D1*
X304218Y732857D1*
X302143Y730782D1*
X299769Y729058D1*
X297155Y727726D1*
X294365Y726819D1*
X291467Y726361D1*
X288533D1*
X285635Y726819D1*
X282845Y727726D1*
X280231Y729058D1*
X277857Y730782D1*
X275782Y732857D1*
X274058Y735231D1*
X272726Y737845D1*
X271819Y740635D1*
X271361Y743533D1*
Y746467D1*
X271819Y749365D1*
X272726Y752155D1*
X274058Y754769D1*
X275782Y757143D1*
X277857Y759218D1*
X280231Y760942D1*
X282845Y762274D1*
X285635Y763181D1*
X288533Y763639D1*
X291467D1*
X294365Y763181D1*
X297155Y762274D1*
X299769Y760942D1*
X302143Y759218D1*
X304218Y757143D1*
X305942Y754769D1*
X307274Y752155D1*
X308181Y749365D1*
X308639Y746467D1*
Y743533D1*
Y703533D2*
X308181Y700635D1*
X307274Y697845D1*
X305942Y695231D1*
X304218Y692857D1*
X302143Y690782D1*
X299769Y689058D1*
X297155Y687726D1*
X294365Y686819D1*
X291467Y686361D1*
X288533D1*
X285635Y686819D1*
X282845Y687726D1*
X280231Y689058D1*
X277857Y690782D1*
X275782Y692857D1*
X274058Y695231D1*
X272726Y697845D1*
X271819Y700635D1*
X271361Y703533D1*
Y706467D1*
X271819Y709365D1*
X272726Y712155D1*
X274058Y714769D1*
X275782Y717143D1*
X277857Y719218D1*
X280231Y720942D1*
X282845Y722274D1*
X285635Y723181D1*
X288533Y723639D1*
X291467D1*
X294365Y723181D1*
X297155Y722274D1*
X299769Y720942D1*
X302143Y719218D1*
X304218Y717143D1*
X305942Y714769D1*
X307274Y712155D1*
X308181Y709365D1*
X308639Y706467D1*
Y703533D1*
Y663533D2*
X308181Y660635D1*
X307274Y657845D1*
X305942Y655231D1*
X304218Y652857D1*
X302143Y650782D1*
X299769Y649058D1*
X297155Y647726D1*
X294365Y646819D1*
X291467Y646361D1*
X288533D1*
X285635Y646819D1*
X282845Y647726D1*
X280231Y649058D1*
X277857Y650782D1*
X275782Y652857D1*
X274058Y655231D1*
X272726Y657845D1*
X271819Y660635D1*
X271361Y663533D1*
Y666467D1*
X271819Y669365D1*
X272726Y672155D1*
X274058Y674769D1*
X275782Y677143D1*
X277857Y679218D1*
X280231Y680942D1*
X282845Y682274D1*
X285635Y683181D1*
X288533Y683639D1*
X291467D1*
X294365Y683181D1*
X297155Y682274D1*
X299769Y680942D1*
X302143Y679218D1*
X304218Y677143D1*
X305942Y674769D1*
X307274Y672155D1*
X308181Y669365D1*
X308639Y666467D1*
Y663533D1*
X539312Y860948D2*
X538660Y859512D1*
X537126Y857010D1*
X535220Y854780D1*
X532990Y852874D1*
X530488Y851340D1*
X527778Y850218D1*
X524925Y849533D1*
X522000Y849303D1*
X519075Y849533D1*
X516222Y850218D1*
X513512Y851340D1*
X511010Y852874D1*
X508780Y854780D1*
X506874Y857010D1*
X505340Y859512D1*
X504218Y862222D1*
X503831Y863597D1*
X501365Y862819D1*
X498467Y862361D1*
X495533D1*
X492635Y862819D1*
X489845Y863726D1*
X487231Y865058D1*
X484857Y866782D1*
X482782Y868857D1*
X481058Y871231D1*
X479726Y873845D1*
X478819Y876635D1*
X478361Y879533D1*
Y882467D1*
X478819Y885365D1*
X479726Y888155D1*
X481058Y890769D1*
X482782Y893143D1*
X484857Y895218D1*
X487231Y896942D1*
X489845Y898274D1*
X492635Y899181D1*
X495533Y899639D1*
X498467D1*
X501365Y899181D1*
X504155Y898274D1*
X506769Y896942D1*
X509143Y895218D1*
X511218Y893143D1*
X512942Y890769D1*
X514274Y888155D1*
X515169Y885403D1*
X517635Y886181D1*
X520533Y886639D1*
X523467D1*
X526365Y886181D1*
X529155Y885274D1*
X531769Y883942D1*
X534143Y882218D1*
X536218Y880143D1*
X537942Y877769D1*
X539274Y875155D1*
X539681Y874052D1*
X540340Y875488D1*
X541874Y877990D1*
X543780Y880220D1*
X546010Y882126D1*
X548512Y883660D1*
X551222Y884782D1*
X554075Y885467D1*
X557000Y885697D1*
X559925Y885467D1*
X562778Y884782D1*
X565488Y883660D1*
X567990Y882126D1*
X570220Y880220D1*
X572126Y877990D1*
X573660Y875488D1*
X574782Y872778D1*
X575467Y869925D1*
X575697Y867000D1*
X575467Y864075D1*
X574782Y861222D1*
X573660Y858512D1*
X572126Y856010D1*
X570220Y853780D1*
X567990Y851874D1*
X565488Y850340D1*
X562778Y849218D1*
X559925Y848533D1*
X557000Y848303D1*
X554075Y848533D1*
X551222Y849218D1*
X548512Y850340D1*
X546010Y851874D1*
X543780Y853780D1*
X541874Y856010D1*
X540340Y858512D1*
X539319Y860948D1*
X616639Y835533D2*
X616181Y832635D1*
X615274Y829845D1*
X613942Y827231D1*
X612218Y824857D1*
X610143Y822782D1*
X607769Y821058D1*
X605155Y819726D1*
X602365Y818819D1*
X599467Y818361D1*
X596533D1*
X593635Y818819D1*
X590845Y819726D1*
X588231Y821058D1*
X585857Y822782D1*
X583782Y824857D1*
X582058Y827231D1*
X580726Y829845D1*
X579819Y832635D1*
X579361Y835533D1*
Y838467D1*
X579819Y841365D1*
X580726Y844155D1*
X582058Y846769D1*
X583782Y849143D1*
X585857Y851218D1*
X588231Y852942D1*
X590845Y854274D1*
X593635Y855181D1*
X596533Y855639D1*
X599467D1*
X602365Y855181D1*
X605155Y854274D1*
X607769Y852942D1*
X610143Y851218D1*
X612218Y849143D1*
X613942Y846769D1*
X615274Y844155D1*
X616181Y841365D1*
X616639Y838467D1*
Y835533D1*
X1161639Y1267533D2*
X1161181Y1264635D1*
X1160274Y1261845D1*
X1158942Y1259231D1*
X1157218Y1256857D1*
X1155143Y1254782D1*
X1152769Y1253058D1*
X1150155Y1251726D1*
X1147365Y1250819D1*
X1144467Y1250361D1*
X1141533D1*
X1138635Y1250819D1*
X1135845Y1251726D1*
X1133231Y1253058D1*
X1130857Y1254782D1*
X1128782Y1256857D1*
X1127058Y1259231D1*
X1125726Y1261845D1*
X1124819Y1264635D1*
X1124361Y1267533D1*
Y1270467D1*
X1124819Y1273365D1*
X1125726Y1276155D1*
X1127058Y1278769D1*
X1128782Y1281143D1*
X1130857Y1283218D1*
X1133231Y1284942D1*
X1135845Y1286274D1*
X1138635Y1287181D1*
X1141533Y1287639D1*
X1144467D1*
X1147365Y1287181D1*
X1150155Y1286274D1*
X1152769Y1284942D1*
X1155143Y1283218D1*
X1157218Y1281143D1*
X1158942Y1278769D1*
X1160274Y1276155D1*
X1161181Y1273365D1*
X1161639Y1270467D1*
Y1267533D1*
X139639Y1066533D2*
X139181Y1063635D1*
X138274Y1060845D1*
X136942Y1058231D1*
X135218Y1055857D1*
X133143Y1053782D1*
X130769Y1052058D1*
X128155Y1050726D1*
X125365Y1049819D1*
X122467Y1049361D1*
X119533D1*
X116635Y1049819D1*
X113845Y1050726D1*
X111231Y1052058D1*
X108857Y1053782D1*
X106782Y1055857D1*
X105058Y1058231D1*
X103726Y1060845D1*
X102819Y1063635D1*
X102361Y1066533D1*
Y1069467D1*
X102819Y1072365D1*
X103726Y1075155D1*
X105058Y1077769D1*
X106782Y1080143D1*
X108857Y1082218D1*
X111231Y1083942D1*
X113845Y1085274D1*
X116635Y1086181D1*
X119533Y1086639D1*
X122467D1*
X125365Y1086181D1*
X128155Y1085274D1*
X130769Y1083942D1*
X133143Y1082218D1*
X135218Y1080143D1*
X136942Y1077769D1*
X138274Y1075155D1*
X139181Y1072365D1*
X139639Y1069467D1*
Y1066533D1*
X79639Y994533D2*
X79181Y991635D1*
X78274Y988845D1*
X76942Y986231D1*
X75218Y983857D1*
X73143Y981782D1*
X70769Y980058D1*
X68155Y978726D1*
X65365Y977819D1*
X62467Y977361D1*
X59533D1*
X56635Y977819D1*
X53845Y978726D1*
X51231Y980058D1*
X48857Y981782D1*
X46782Y983857D1*
X45058Y986231D1*
X43726Y988845D1*
X42819Y991635D1*
X42361Y994533D1*
Y997467D1*
X42819Y1000365D1*
X43726Y1003155D1*
X45058Y1005769D1*
X46782Y1008143D1*
X48857Y1010218D1*
X51231Y1011942D1*
X53845Y1013274D1*
X56635Y1014181D1*
X59533Y1014639D1*
X62467D1*
X65365Y1014181D1*
X68155Y1013274D1*
X70769Y1011942D1*
X73143Y1010218D1*
X75218Y1008143D1*
X76942Y1005769D1*
X78274Y1003155D1*
X79181Y1000365D1*
X79639Y997467D1*
Y994533D1*
Y1063533D2*
X79181Y1060635D1*
X78274Y1057845D1*
X76942Y1055231D1*
X75218Y1052857D1*
X73143Y1050782D1*
X70769Y1049058D1*
X68155Y1047726D1*
X65365Y1046819D1*
X62467Y1046361D1*
X59533D1*
X56635Y1046819D1*
X53845Y1047726D1*
X51231Y1049058D1*
X48857Y1050782D1*
X46782Y1052857D1*
X45058Y1055231D1*
X43726Y1057845D1*
X42819Y1060635D1*
X42361Y1063533D1*
Y1066467D1*
X42819Y1069365D1*
X43726Y1072155D1*
X45058Y1074769D1*
X46782Y1077143D1*
X48857Y1079218D1*
X51231Y1080942D1*
X53845Y1082274D1*
X56635Y1083181D1*
X59533Y1083639D1*
X62467D1*
X65365Y1083181D1*
X68155Y1082274D1*
X70769Y1080942D1*
X73143Y1079218D1*
X75218Y1077143D1*
X76942Y1074769D1*
X78274Y1072155D1*
X79181Y1069365D1*
X79639Y1066467D1*
Y1063533D1*
X974639Y1049533D2*
X974181Y1046635D1*
X973274Y1043845D1*
X971942Y1041231D1*
X970218Y1038857D1*
X968143Y1036782D1*
X965769Y1035058D1*
X963155Y1033726D1*
X960365Y1032819D1*
X957467Y1032361D1*
X954533D1*
X951635Y1032819D1*
X948845Y1033726D1*
X946231Y1035058D1*
X943857Y1036782D1*
X941782Y1038857D1*
X940058Y1041231D1*
X938726Y1043845D1*
X937819Y1046635D1*
X937361Y1049533D1*
Y1052467D1*
X937819Y1055365D1*
X938726Y1058155D1*
X940058Y1060769D1*
X941782Y1063143D1*
X943857Y1065218D1*
X946231Y1066942D1*
X948845Y1068274D1*
X951635Y1069181D1*
X954533Y1069639D1*
X957467D1*
X960365Y1069181D1*
X963155Y1068274D1*
X965769Y1066942D1*
X968143Y1065218D1*
X970218Y1063143D1*
X971942Y1060769D1*
X973274Y1058155D1*
X974181Y1055365D1*
X974639Y1052467D1*
Y1049533D1*
X643203Y1209348D2*
X641488Y1208340D1*
X638778Y1207218D1*
X635925Y1206533D1*
X633000Y1206303D1*
X630075Y1206533D1*
X627222Y1207218D1*
X624512Y1208340D1*
X622010Y1209874D1*
X619780Y1211780D1*
X617874Y1214010D1*
X616340Y1216512D1*
X615218Y1219222D1*
X614533Y1222075D1*
X614303Y1225000D1*
X614533Y1227925D1*
X615218Y1230778D1*
X616340Y1233488D1*
X617874Y1235990D1*
X619780Y1238220D1*
X622010Y1240126D1*
X624512Y1241660D1*
X627222Y1242782D1*
X630075Y1243467D1*
X633000Y1243697D1*
X635925Y1243467D1*
X638778Y1242782D1*
X641488Y1241660D1*
X643990Y1240126D1*
X646220Y1238220D1*
X648126Y1235990D1*
X648950Y1234755D1*
X650672Y1235747D1*
X653382Y1236869D1*
X656235Y1237554D1*
X659160Y1237783D1*
X662085Y1237554D1*
X664938Y1236869D1*
X667648Y1235747D1*
X669001Y1234980D1*
X670357Y1235747D1*
X673067Y1236869D1*
X675920Y1237554D1*
X678845Y1237783D1*
X681770Y1237554D1*
X684623Y1236869D1*
X687333Y1235747D1*
X688686Y1234980D1*
X690042Y1235747D1*
X692752Y1236869D1*
X695605Y1237554D1*
X698530Y1237783D1*
X701455Y1237554D1*
X704308Y1236869D1*
X707018Y1235747D1*
X708371Y1234980D1*
X709727Y1235747D1*
X712437Y1236869D1*
X715290Y1237554D1*
X718215Y1237783D1*
X721140Y1237554D1*
X723993Y1236869D1*
X726703Y1235747D1*
X729205Y1234213D1*
X731436Y1232307D1*
X733341Y1230076D1*
X734875Y1227575D1*
X735997Y1224865D1*
X736682Y1222012D1*
X736912Y1219087D1*
X736682Y1216161D1*
X735997Y1213308D1*
X734875Y1210598D1*
X733341Y1208097D1*
X731436Y1205866D1*
X729205Y1203961D1*
X726703Y1202427D1*
X723993Y1201304D1*
X721140Y1200619D1*
X718215Y1200390D1*
X715290Y1200619D1*
X712437Y1201304D1*
X709727Y1202427D1*
X708374Y1203193D1*
X707018Y1202427D1*
X704308Y1201304D1*
X701455Y1200619D1*
X698530Y1200390D1*
X695605Y1200619D1*
X692752Y1201304D1*
X690042Y1202427D1*
X688689Y1203193D1*
X687333Y1202427D1*
X684623Y1201304D1*
X681770Y1200619D1*
X678845Y1200390D1*
X675920Y1200619D1*
X673067Y1201304D1*
X670357Y1202427D1*
X669004Y1203193D1*
X667648Y1202427D1*
X664938Y1201304D1*
X662085Y1200619D1*
X659160Y1200390D1*
X656235Y1200619D1*
X653382Y1201304D1*
X650672Y1202427D1*
X648171Y1203961D1*
X645940Y1205866D1*
X644034Y1208097D1*
X643210Y1209332D1*
X766639Y997533D2*
X766181Y994635D1*
X765274Y991845D1*
X763942Y989231D1*
X762218Y986857D1*
X760143Y984782D1*
X757769Y983058D1*
X755155Y981726D1*
X752365Y980819D1*
X749467Y980361D1*
X746533D1*
X743635Y980819D1*
X740845Y981726D1*
X738231Y983058D1*
X735857Y984782D1*
X733782Y986857D1*
X732058Y989231D1*
X730726Y991845D1*
X729819Y994635D1*
X729361Y997533D1*
Y1000467D1*
X729819Y1003365D1*
X730726Y1006155D1*
X732058Y1008769D1*
X733782Y1011143D1*
X735857Y1013218D1*
X738231Y1014942D1*
X740845Y1016274D1*
X743635Y1017181D1*
X746533Y1017639D1*
X749467D1*
X752365Y1017181D1*
X755155Y1016274D1*
X757769Y1014942D1*
X760143Y1013218D1*
X762218Y1011143D1*
X763942Y1008769D1*
X765274Y1006155D1*
X766181Y1003365D1*
X766639Y1000467D1*
Y997533D1*
X507395Y1068533D2*
X506937Y1065635D1*
X506030Y1062845D1*
X504698Y1060231D1*
X502974Y1057857D1*
X500899Y1055782D1*
X498525Y1054058D1*
X495911Y1052726D1*
X493121Y1051819D1*
X490223Y1051361D1*
X487289D1*
X484391Y1051819D1*
X481601Y1052726D1*
X478987Y1054058D1*
X476613Y1055782D1*
X474538Y1057857D1*
X472814Y1060231D1*
X471482Y1062845D1*
X470575Y1065635D1*
X470117Y1068533D1*
Y1071467D1*
X470575Y1074365D1*
X471482Y1077155D1*
X472814Y1079769D1*
X474538Y1082143D1*
X476613Y1084218D1*
X478987Y1085942D1*
X481601Y1087274D1*
X484391Y1088181D1*
X487289Y1088639D1*
X490223D1*
X493121Y1088181D1*
X495911Y1087274D1*
X498525Y1085942D1*
X500899Y1084218D1*
X502974Y1082143D1*
X504698Y1079769D1*
X506030Y1077155D1*
X506937Y1074365D1*
X507395Y1071467D1*
Y1068533D1*
X507639Y669533D2*
X507181Y666635D1*
X506274Y663845D1*
X504942Y661231D1*
X503218Y658857D1*
X501143Y656782D1*
X498769Y655058D1*
X496155Y653726D1*
X493365Y652819D1*
X490467Y652361D1*
X487533D1*
X484635Y652819D1*
X481845Y653726D1*
X479231Y655058D1*
X476857Y656782D1*
X474782Y658857D1*
X473058Y661231D1*
X471726Y663845D1*
X470819Y666635D1*
X470361Y669533D1*
Y672467D1*
X470819Y675365D1*
X471726Y678155D1*
X473058Y680769D1*
X474782Y683143D1*
X476857Y685218D1*
X479231Y686942D1*
X481845Y688274D1*
X484635Y689181D1*
X487533Y689639D1*
X490467D1*
X493365Y689181D1*
X496155Y688274D1*
X498769Y686942D1*
X501143Y685218D1*
X503218Y683143D1*
X504942Y680769D1*
X506274Y678155D1*
X507181Y675365D1*
X507639Y672467D1*
Y669533D1*
X502639Y797533D2*
X502181Y794635D1*
X501274Y791845D1*
X499942Y789231D1*
X498218Y786857D1*
X496143Y784782D1*
X493769Y783058D1*
X491155Y781726D1*
X488365Y780819D1*
X485467Y780361D1*
X482533D1*
X479635Y780819D1*
X476845Y781726D1*
X474231Y783058D1*
X471857Y784782D1*
X469782Y786857D1*
X468058Y789231D1*
X466726Y791845D1*
X465819Y794635D1*
X465361Y797533D1*
Y800467D1*
X465819Y803365D1*
X466726Y806155D1*
X468058Y808769D1*
X469782Y811143D1*
X471857Y813218D1*
X474231Y814942D1*
X476845Y816274D1*
X479635Y817181D1*
X482533Y817639D1*
X485467D1*
X488365Y817181D1*
X491155Y816274D1*
X493769Y814942D1*
X496143Y813218D1*
X498218Y811143D1*
X499942Y808769D1*
X501274Y806155D1*
X502181Y803365D1*
X502639Y800467D1*
Y797533D1*
X469639Y545533D2*
X469181Y542635D1*
X468274Y539845D1*
X466942Y537231D1*
X465218Y534857D1*
X463143Y532782D1*
X460769Y531058D1*
X458155Y529726D1*
X455365Y528819D1*
X452467Y528361D1*
X449533D1*
X446635Y528819D1*
X443845Y529726D1*
X441231Y531058D1*
X438857Y532782D1*
X436782Y534857D1*
X435058Y537231D1*
X433726Y539845D1*
X432819Y542635D1*
X432361Y545533D1*
Y548467D1*
X432819Y551365D1*
X433726Y554155D1*
X435058Y556769D1*
X436782Y559143D1*
X438857Y561218D1*
X441231Y562942D1*
X443845Y564274D1*
X446635Y565181D1*
X449533Y565639D1*
X452467D1*
X455365Y565181D1*
X458155Y564274D1*
X460769Y562942D1*
X463143Y561218D1*
X465218Y559143D1*
X466942Y556769D1*
X468274Y554155D1*
X469181Y551365D1*
X469639Y548467D1*
Y545533D1*
X402639Y1217533D2*
X402181Y1214635D1*
X401274Y1211845D1*
X399942Y1209231D1*
X398218Y1206857D1*
X396143Y1204782D1*
X393769Y1203058D1*
X391155Y1201726D1*
X388365Y1200819D1*
X385467Y1200361D1*
X382533D1*
X379635Y1200819D1*
X376845Y1201726D1*
X374231Y1203058D1*
X371857Y1204782D1*
X369782Y1206857D1*
X368058Y1209231D1*
X366726Y1211845D1*
X365819Y1214635D1*
X365361Y1217533D1*
Y1220467D1*
X365819Y1223365D1*
X366726Y1226155D1*
X368058Y1228769D1*
X369782Y1231143D1*
X371857Y1233218D1*
X374231Y1234942D1*
X375745Y1235768D1*
X373231Y1237058D1*
X370857Y1238782D1*
X368782Y1240857D1*
X367058Y1243231D1*
X365726Y1245845D1*
X364819Y1248635D1*
X364361Y1251533D1*
Y1254467D1*
X364819Y1257365D1*
X365726Y1260155D1*
X367058Y1262769D1*
X368782Y1265143D1*
X370857Y1267218D1*
X373231Y1268942D1*
X375845Y1270274D1*
X378635Y1271181D1*
X381533Y1271639D1*
X384467D1*
X387365Y1271181D1*
X390155Y1270274D1*
X392769Y1268942D1*
X395143Y1267218D1*
X397218Y1265143D1*
X398942Y1262769D1*
X400274Y1260155D1*
X401181Y1257365D1*
X401639Y1254467D1*
Y1251533D1*
X401181Y1248635D1*
X400274Y1245845D1*
X398942Y1243231D1*
X397218Y1240857D1*
X395143Y1238782D1*
X392769Y1237058D1*
X391255Y1236232D1*
X393769Y1234942D1*
X396143Y1233218D1*
X398218Y1231143D1*
X399942Y1228769D1*
X401274Y1226155D1*
X402181Y1223365D1*
X402639Y1220467D1*
Y1217533D1*
X511521Y1216193D2*
X510168Y1215427D1*
X507458Y1214304D1*
X504605Y1213619D1*
X501680Y1213390D1*
X498755Y1213619D1*
X495902Y1214304D1*
X493192Y1215427D1*
X490690Y1216961D1*
X488459Y1218866D1*
X486554Y1221097D1*
X485020Y1223598D1*
X483898Y1226308D1*
X483213Y1229161D1*
X482983Y1232087D1*
X483213Y1235012D1*
X483898Y1237865D1*
X485020Y1240575D1*
X486554Y1243076D1*
X488459Y1245307D1*
X490690Y1247213D1*
X493192Y1248747D1*
X495902Y1249869D1*
X498755Y1250554D1*
X501680Y1250783D1*
X504605Y1250554D1*
X507458Y1249869D1*
X510168Y1248747D1*
X511521Y1247980D1*
X512877Y1248747D1*
X515587Y1249869D1*
X518440Y1250554D1*
X521365Y1250783D1*
X524290Y1250554D1*
X527143Y1249869D1*
X529853Y1248747D1*
X531206Y1247980D1*
X532562Y1248747D1*
X535272Y1249869D1*
X538125Y1250554D1*
X541050Y1250783D1*
X543975Y1250554D1*
X546828Y1249869D1*
X549538Y1248747D1*
X550891Y1247980D1*
X552247Y1248747D1*
X554957Y1249869D1*
X557810Y1250554D1*
X560735Y1250783D1*
X563660Y1250554D1*
X566513Y1249869D1*
X569223Y1248747D1*
X570576Y1247980D1*
X571932Y1248747D1*
X574642Y1249869D1*
X577495Y1250554D1*
X580420Y1250783D1*
X583345Y1250554D1*
X586198Y1249869D1*
X588908Y1248747D1*
X591409Y1247213D1*
X593640Y1245307D1*
X595546Y1243076D1*
X597080Y1240575D1*
X598202Y1237865D1*
X598887Y1235012D1*
X599117Y1232087D1*
X598887Y1229161D1*
X598202Y1226308D1*
X597080Y1223598D1*
X595546Y1221097D1*
X593640Y1218866D1*
X591409Y1216961D1*
X588908Y1215427D1*
X586198Y1214304D1*
X583345Y1213619D1*
X580420Y1213390D1*
X577495Y1213619D1*
X574642Y1214304D1*
X571932Y1215427D1*
X570579Y1216193D1*
X569223Y1215427D1*
X566513Y1214304D1*
X563660Y1213619D1*
X560735Y1213390D1*
X557810Y1213619D1*
X554957Y1214304D1*
X552247Y1215427D1*
X550894Y1216193D1*
X549538Y1215427D1*
X546828Y1214304D1*
X543975Y1213619D1*
X541050Y1213390D1*
X538125Y1213619D1*
X535272Y1214304D1*
X532562Y1215427D1*
X531209Y1216193D1*
X529853Y1215427D1*
X527143Y1214304D1*
X524290Y1213619D1*
X521365Y1213390D1*
X518440Y1213619D1*
X515587Y1214304D1*
X512877Y1215427D1*
X511524Y1216193D1*
X933705Y1222619D2*
X933247Y1219722D1*
X932340Y1216932D1*
X931008Y1214318D1*
X929283Y1211944D1*
X927209Y1209869D1*
X924835Y1208144D1*
X922220Y1206812D1*
X919430Y1205906D1*
X916533Y1205448D1*
X913598D1*
X910701Y1205906D1*
X907911Y1206812D1*
X905297Y1208144D1*
X902923Y1209869D1*
X900848Y1211944D1*
X899123Y1214318D1*
X897791Y1216932D1*
X896885Y1219722D1*
X896427Y1222619D1*
Y1225554D1*
X896885Y1228451D1*
X897791Y1231241D1*
X899123Y1233856D1*
X900848Y1236230D1*
X902923Y1238304D1*
X905297Y1240029D1*
X907911Y1241361D1*
X910701Y1242268D1*
X913598Y1242726D1*
X916533D1*
X919430Y1242268D1*
X922220Y1241361D1*
X924835Y1240029D1*
X927209Y1238304D1*
X929283Y1236230D1*
X931008Y1233856D1*
X932340Y1231241D1*
X933247Y1228451D1*
X933705Y1225554D1*
Y1222619D1*
X973075D2*
X972617Y1219722D1*
X971710Y1216932D1*
X970378Y1214318D1*
X968654Y1211944D1*
X966579Y1209869D1*
X964205Y1208144D1*
X961591Y1206812D1*
X958801Y1205906D1*
X955903Y1205448D1*
X952969D1*
X950071Y1205906D1*
X947281Y1206812D1*
X944667Y1208144D1*
X942293Y1209869D1*
X940218Y1211944D1*
X938493Y1214318D1*
X937161Y1216932D1*
X936255Y1219722D1*
X935797Y1222619D1*
Y1225554D1*
X936255Y1228451D1*
X937161Y1231241D1*
X938493Y1233856D1*
X940218Y1236230D1*
X942293Y1238304D1*
X944667Y1240029D1*
X947281Y1241361D1*
X950071Y1242268D1*
X952969Y1242726D1*
X955903D1*
X958801Y1242268D1*
X961591Y1241361D1*
X964205Y1240029D1*
X966579Y1238304D1*
X968654Y1236230D1*
X970378Y1233856D1*
X971710Y1231241D1*
X972617Y1228451D1*
X973075Y1225554D1*
Y1222619D1*
X798639Y554530D2*
X798181Y551633D1*
X797274Y548843D1*
X795942Y546228D1*
X794218Y543854D1*
X792143Y541780D1*
X789769Y540055D1*
X787155Y538723D1*
X784365Y537816D1*
X781467Y537358D1*
X778533D1*
X775635Y537816D1*
X772845Y538723D1*
X770231Y540055D1*
X767857Y541780D1*
X765782Y543854D1*
X764058Y546228D1*
X762726Y548843D1*
X761819Y551633D1*
X761361Y554530D1*
Y557465D1*
X761819Y560362D1*
X762726Y563152D1*
X764058Y565766D1*
X765782Y568140D1*
X767857Y570215D1*
X770231Y571940D1*
X772845Y573272D1*
X775635Y574178D1*
X778533Y574636D1*
X781467D1*
X784365Y574178D1*
X787155Y573272D1*
X789769Y571940D1*
X792143Y570215D1*
X794218Y568140D1*
X795942Y565766D1*
X797274Y563152D1*
X798181Y560362D1*
X798639Y557465D1*
Y554530D1*
X773639Y654530D2*
X773181Y651633D1*
X772274Y648843D1*
X770942Y646228D1*
X769218Y643854D1*
X767143Y641780D1*
X764769Y640055D1*
X762155Y638723D1*
X759365Y637816D1*
X756467Y637358D1*
X753533D1*
X750635Y637816D1*
X747845Y638723D1*
X745231Y640055D1*
X742857Y641780D1*
X740782Y643854D1*
X739058Y646228D1*
X737726Y648843D1*
X736819Y651633D1*
X736361Y654530D1*
Y657465D1*
X736819Y660362D1*
X737726Y663152D1*
X739058Y665766D1*
X740782Y668140D1*
X742857Y670215D1*
X745231Y671940D1*
X747845Y673272D1*
X750635Y674178D1*
X753533Y674636D1*
X756467D1*
X759365Y674178D1*
X762155Y673272D1*
X764769Y671940D1*
X767143Y670215D1*
X769218Y668140D1*
X770942Y665766D1*
X772274Y663152D1*
X773181Y660362D1*
X773639Y657465D1*
Y654530D1*
X185639Y912533D2*
X185181Y909635D1*
X184274Y906845D1*
X182942Y904231D1*
X181218Y901857D1*
X179143Y899782D1*
X176769Y898058D1*
X174155Y896726D1*
X171365Y895819D1*
X168467Y895361D1*
X165533D1*
X162635Y895819D1*
X159845Y896726D1*
X157231Y898058D1*
X154857Y899782D1*
X152782Y901857D1*
X151058Y904231D1*
X149726Y906845D1*
X148819Y909635D1*
X148361Y912533D1*
Y915467D1*
X148819Y918365D1*
X149726Y921155D1*
X151058Y923769D1*
X152782Y926143D1*
X154070Y927490D1*
X152782Y928857D1*
X151058Y931231D1*
X149726Y933845D1*
X148819Y936635D1*
X148361Y939533D1*
Y942467D1*
X148819Y945365D1*
X149726Y948155D1*
X151058Y950769D1*
X152782Y953143D1*
X154857Y955218D1*
X157231Y956942D1*
X159845Y958274D1*
X162635Y959181D1*
X165533Y959639D1*
X168467D1*
X171365Y959181D1*
X174155Y958274D1*
X176769Y956942D1*
X179143Y955218D1*
X181218Y953143D1*
X182942Y950769D1*
X184274Y948155D1*
X185181Y945365D1*
X185639Y942467D1*
Y939533D1*
X185181Y936635D1*
X184274Y933845D1*
X182942Y931231D1*
X181218Y928857D1*
X179930Y927510D1*
X181218Y926143D1*
X182942Y923769D1*
X184274Y921155D1*
X185181Y918365D1*
X185639Y915467D1*
Y912533D1*
X380639Y947533D2*
X380181Y944635D1*
X379274Y941845D1*
X377942Y939231D1*
X376218Y936857D1*
X374143Y934782D1*
X371769Y933058D1*
X369155Y931726D1*
X366365Y930819D1*
X363467Y930361D1*
X360533D1*
X357635Y930819D1*
X354845Y931726D1*
X352231Y933058D1*
X349857Y934782D1*
X347782Y936857D1*
X347445Y937285D1*
X346660Y935512D1*
X345126Y933010D1*
X343220Y930780D1*
X340990Y928874D1*
X338488Y927340D1*
X335778Y926218D1*
X332925Y925533D1*
X330000Y925303D1*
X327075Y925533D1*
X324222Y926218D1*
X321512Y927340D1*
X319010Y928874D1*
X316780Y930780D1*
X314874Y933010D1*
X313340Y935512D1*
X312218Y938222D1*
X311533Y941075D1*
X311303Y944000D1*
X311533Y946925D1*
X312218Y949778D1*
X313340Y952488D1*
X314874Y954990D1*
X316780Y957220D1*
X319010Y959126D1*
X321512Y960660D1*
X324222Y961782D1*
X327075Y962467D1*
X330000Y962697D1*
X332925Y962467D1*
X335778Y961782D1*
X338488Y960660D1*
X340990Y959126D1*
X343220Y957220D1*
X344555Y955715D1*
X345340Y957488D1*
X346874Y959990D1*
X348780Y962220D1*
X351010Y964126D1*
X353512Y965660D1*
X356222Y966782D1*
X359075Y967467D1*
X362000Y967697D1*
X364925Y967467D1*
X367778Y966782D1*
X370488Y965660D1*
X372990Y964126D1*
X375220Y962220D1*
X377126Y959990D1*
X378660Y957488D1*
X379782Y954778D1*
X380467Y951925D1*
X380697Y949000D1*
X380639Y947533D1*
X309639Y935533D2*
X309181Y932635D1*
X308274Y929845D1*
X306942Y927231D1*
X305218Y924857D1*
X303143Y922782D1*
X300769Y921058D1*
X298155Y919726D1*
X295365Y918819D1*
X292467Y918361D1*
X289533D1*
X286635Y918819D1*
X283845Y919726D1*
X281231Y921058D1*
X278857Y922782D1*
X277495Y924087D1*
X275990Y922874D1*
X273488Y921340D1*
X270778Y920218D1*
X267925Y919533D1*
X265000Y919303D1*
X262525Y919479D1*
X262181Y917635D1*
X261274Y914845D1*
X259942Y912231D1*
X258218Y909857D1*
X256143Y907782D1*
X253769Y906058D1*
X251155Y904726D1*
X248365Y903819D1*
X245467Y903361D1*
X242533D1*
X239635Y903819D1*
X236845Y904726D1*
X234231Y906058D1*
X233024Y906864D1*
X231220Y904780D1*
X228990Y902874D1*
X226488Y901340D1*
X223778Y900218D1*
X220925Y899533D1*
X218000Y899303D1*
X215075Y899533D1*
X212222Y900218D1*
X209512Y901340D1*
X207010Y902874D1*
X204780Y904780D1*
X202874Y907010D1*
X201340Y909512D1*
X200218Y912222D1*
X199533Y915075D1*
X199303Y918000D1*
X199533Y920925D1*
X200218Y923778D1*
X201340Y926488D1*
X202874Y928990D1*
X204780Y931220D1*
X207010Y933126D1*
X209512Y934660D1*
X212222Y935782D1*
X215075Y936467D1*
X218000Y936697D1*
X220925Y936467D1*
X223778Y935782D1*
X226488Y934660D1*
X228976Y933136D1*
X230780Y935220D1*
X233010Y937126D1*
X235512Y938660D1*
X238222Y939782D1*
X241075Y940467D1*
X244000Y940697D1*
X246475Y940521D1*
X246819Y942365D1*
X247726Y945155D1*
X249058Y947769D1*
X250782Y950143D1*
X252857Y952218D1*
X255231Y953942D1*
X257845Y955274D1*
X260635Y956181D1*
X263533Y956639D1*
X266467D1*
X269365Y956181D1*
X272155Y955274D1*
X274769Y953942D1*
X277143Y952218D1*
X278505Y950913D1*
X280010Y952126D1*
X282512Y953660D1*
X285222Y954782D1*
X288075Y955467D1*
X291000Y955697D1*
X293925Y955467D1*
X296778Y954782D1*
X299488Y953660D1*
X301990Y952126D1*
X304220Y950220D1*
X306126Y947990D1*
X307660Y945488D1*
X308782Y942778D1*
X309467Y939925D1*
X309697Y937000D1*
X309639Y935533D1*
X188639Y1004533D2*
X188181Y1001635D1*
X187274Y998845D1*
X185942Y996231D1*
X184218Y993857D1*
X182143Y991782D1*
X179769Y990058D1*
X177155Y988726D1*
X174365Y987819D1*
X171467Y987361D1*
X168533D1*
X165635Y987819D1*
X162845Y988726D1*
X160231Y990058D1*
X157857Y991782D1*
X155782Y993857D1*
X154058Y996231D1*
X152726Y998845D1*
X151819Y1001635D1*
X151361Y1004533D1*
Y1007467D1*
X151819Y1010365D1*
X152726Y1013155D1*
X154058Y1015769D1*
X155782Y1018143D1*
X157857Y1020218D1*
X160231Y1021942D1*
X162845Y1023274D1*
X165635Y1024181D1*
X168533Y1024639D1*
X171467D1*
X174365Y1024181D1*
X177155Y1023274D1*
X179769Y1021942D1*
X182143Y1020218D1*
X184218Y1018143D1*
X185942Y1015769D1*
X187274Y1013155D1*
X188181Y1010365D1*
X188639Y1007467D1*
Y1004533D1*
X365639Y898533D2*
X365181Y895635D1*
X365108Y895375D1*
X367635Y896181D1*
X370533Y896639D1*
X373467D1*
X376365Y896181D1*
X379155Y895274D1*
X381769Y893942D1*
X384143Y892218D1*
X386218Y890143D1*
X387942Y887769D1*
X389274Y885155D1*
X390181Y882365D1*
X390639Y879467D1*
Y876533D1*
X390181Y873635D1*
X389274Y870845D1*
X387942Y868231D1*
X386218Y865857D1*
X384143Y863782D1*
X381769Y862058D1*
X379155Y860726D1*
X376365Y859819D1*
X373467Y859361D1*
X370533D1*
X367635Y859819D1*
X364845Y860726D1*
X362231Y862058D1*
X359857Y863782D1*
X357782Y865857D1*
X356058Y868231D1*
X354726Y870845D1*
X353819Y873635D1*
X353361Y876533D1*
Y879467D1*
X353819Y882365D1*
X353892Y882625D1*
X351365Y881819D1*
X348467Y881361D1*
X345533D1*
X342635Y881819D1*
X339845Y882726D1*
X337231Y884058D1*
X334857Y885782D1*
X332782Y887857D1*
X331058Y890231D1*
X329726Y892845D1*
X328819Y895635D1*
X328361Y898533D1*
Y901467D1*
X328819Y904365D1*
X329726Y907155D1*
X331058Y909769D1*
X332782Y912143D1*
X334857Y914218D1*
X337231Y915942D1*
X339845Y917274D1*
X342635Y918181D1*
X345533Y918639D1*
X348467D1*
X351365Y918181D1*
X354155Y917274D1*
X356769Y915942D1*
X359143Y914218D1*
X361218Y912143D1*
X362942Y909769D1*
X364274Y907155D1*
X365181Y904365D1*
X365639Y901467D1*
Y898533D1*
X85639Y1546533D2*
X85181Y1543635D1*
X84274Y1540845D1*
X82942Y1538231D1*
X81218Y1535857D1*
X79143Y1533782D1*
X76769Y1532058D1*
X74155Y1530726D1*
X71365Y1529819D1*
X68467Y1529361D1*
X65533D1*
X62635Y1529819D1*
X59845Y1530726D1*
X57231Y1532058D1*
X54857Y1533782D1*
X52782Y1535857D1*
X51058Y1538231D1*
X49726Y1540845D1*
X48819Y1543635D1*
X48361Y1546533D1*
Y1549467D1*
X48819Y1552365D1*
X49726Y1555155D1*
X51058Y1557769D1*
X52782Y1560143D1*
X54857Y1562218D1*
X57231Y1563942D1*
X59845Y1565274D1*
X62635Y1566181D1*
X65533Y1566639D1*
X68467D1*
X71365Y1566181D1*
X74155Y1565274D1*
X76769Y1563942D1*
X79143Y1562218D1*
X81218Y1560143D1*
X82942Y1557769D1*
X84274Y1555155D1*
X85181Y1552365D1*
X85639Y1549467D1*
Y1546533D1*
X167999Y1409533D2*
X167541Y1406635D1*
X166634Y1403845D1*
X165302Y1401231D1*
X163577Y1398857D1*
X161503Y1396782D1*
X159129Y1395058D1*
X156514Y1393726D1*
X153724Y1392819D1*
X150827Y1392361D1*
X147892D1*
X144995Y1392819D1*
X142205Y1393726D1*
X139591Y1395058D1*
X137217Y1396782D1*
X135142Y1398857D1*
X133417Y1401231D1*
X132085Y1403845D1*
X131178Y1406635D1*
X130720Y1409533D1*
Y1412467D1*
X131178Y1415365D1*
X132085Y1418155D1*
X133417Y1420769D1*
X135142Y1423143D1*
X137217Y1425218D1*
X139591Y1426942D1*
X142205Y1428274D1*
X144995Y1429181D1*
X147892Y1429639D1*
X150827D1*
X153724Y1429181D1*
X156514Y1428274D1*
X159129Y1426942D1*
X161503Y1425218D1*
X163577Y1423143D1*
X165302Y1420769D1*
X166634Y1418155D1*
X167541Y1415365D1*
X167999Y1412467D1*
Y1409533D1*
X723639Y999533D2*
X723181Y996635D1*
X722274Y993845D1*
X720942Y991231D1*
X719218Y988857D1*
X717143Y986782D1*
X714769Y985058D1*
X712155Y983726D1*
X709365Y982819D1*
X706467Y982361D1*
X703533D1*
X700635Y982819D1*
X697845Y983726D1*
X695231Y985058D1*
X692857Y986782D1*
X690782Y988857D1*
X689058Y991231D1*
X687726Y993845D1*
X686819Y996635D1*
X686361Y999533D1*
Y1002467D1*
X686819Y1005365D1*
X687726Y1008155D1*
X689058Y1010769D1*
X690782Y1013143D1*
X692857Y1015218D1*
X695231Y1016942D1*
X697845Y1018274D1*
X700635Y1019181D1*
X703533Y1019639D1*
X706467D1*
X709365Y1019181D1*
X712155Y1018274D1*
X714769Y1016942D1*
X717143Y1015218D1*
X719218Y1013143D1*
X720942Y1010769D1*
X722274Y1008155D1*
X723181Y1005365D1*
X723639Y1002467D1*
Y999533D1*
X1200639Y835533D2*
X1200181Y832635D1*
X1199274Y829845D1*
X1197942Y827231D1*
X1196218Y824857D1*
X1194143Y822782D1*
X1191769Y821058D1*
X1189155Y819726D1*
X1186365Y818819D1*
X1183467Y818361D1*
X1180533D1*
X1177635Y818819D1*
X1174845Y819726D1*
X1172231Y821058D1*
X1169857Y822782D1*
X1167782Y824857D1*
X1166058Y827231D1*
X1164726Y829845D1*
X1163819Y832635D1*
X1163361Y835533D1*
Y838467D1*
X1163819Y841365D1*
X1164726Y844155D1*
X1166058Y846769D1*
X1167782Y849143D1*
X1169857Y851218D1*
X1172231Y852942D1*
X1174845Y854274D1*
X1177635Y855181D1*
X1180533Y855639D1*
X1183467D1*
X1186365Y855181D1*
X1189155Y854274D1*
X1191769Y852942D1*
X1194143Y851218D1*
X1196218Y849143D1*
X1197942Y846769D1*
X1199274Y844155D1*
X1200181Y841365D1*
X1200639Y838467D1*
Y835533D1*
X896639Y791533D2*
X896181Y788635D1*
X895274Y785845D1*
X893942Y783231D1*
X892218Y780857D1*
X890143Y778782D1*
X887769Y777058D1*
X885155Y775726D1*
X882365Y774819D1*
X879467Y774361D1*
X876533D1*
X873635Y774819D1*
X870845Y775726D1*
X868231Y777058D1*
X865857Y778782D1*
X863782Y780857D1*
X862058Y783231D1*
X860726Y785845D1*
X859819Y788635D1*
X859361Y791533D1*
Y794467D1*
X859819Y797365D1*
X860726Y800155D1*
X862058Y802769D1*
X863782Y805143D1*
X865857Y807218D1*
X868231Y808942D1*
X870845Y810274D1*
X873635Y811181D1*
X876533Y811639D1*
X879467D1*
X882365Y811181D1*
X885155Y810274D1*
X887769Y808942D1*
X890143Y807218D1*
X892218Y805143D1*
X893942Y802769D1*
X895274Y800155D1*
X896181Y797365D1*
X896639Y794467D1*
Y791533D1*
X1063639Y1056533D2*
X1063181Y1053635D1*
X1062274Y1050845D1*
X1060942Y1048231D1*
X1059218Y1045857D1*
X1057143Y1043782D1*
X1054769Y1042058D1*
X1052155Y1040726D1*
X1049365Y1039819D1*
X1046467Y1039361D1*
X1043533D1*
X1040635Y1039819D1*
X1037845Y1040726D1*
X1035231Y1042058D1*
X1032857Y1043782D1*
X1030782Y1045857D1*
X1029058Y1048231D1*
X1027726Y1050845D1*
X1026819Y1053635D1*
X1026361Y1056533D1*
Y1059467D1*
X1026819Y1062365D1*
X1027726Y1065155D1*
X1029058Y1067769D1*
X1030782Y1070143D1*
X1032857Y1072218D1*
X1035231Y1073942D1*
X1037845Y1075274D1*
X1040635Y1076181D1*
X1043533Y1076639D1*
X1046467D1*
X1049365Y1076181D1*
X1052155Y1075274D1*
X1054769Y1073942D1*
X1057143Y1072218D1*
X1059218Y1070143D1*
X1060942Y1067769D1*
X1062274Y1065155D1*
X1063181Y1062365D1*
X1063639Y1059467D1*
Y1056533D1*
X1180639Y974533D2*
X1180181Y971635D1*
X1179274Y968845D1*
X1177942Y966231D1*
X1176218Y963857D1*
X1174143Y961782D1*
X1171769Y960058D1*
X1169155Y958726D1*
X1166365Y957819D1*
X1163467Y957361D1*
X1160533D1*
X1157635Y957819D1*
X1154845Y958726D1*
X1152231Y960058D1*
X1149857Y961782D1*
X1147782Y963857D1*
X1146058Y966231D1*
X1144726Y968845D1*
X1143819Y971635D1*
X1143361Y974533D1*
Y977467D1*
X1143819Y980365D1*
X1144726Y983155D1*
X1146058Y985769D1*
X1147782Y988143D1*
X1149857Y990218D1*
X1152231Y991942D1*
X1154845Y993274D1*
X1157635Y994181D1*
X1160533Y994639D1*
X1163467D1*
X1166365Y994181D1*
X1169155Y993274D1*
X1171769Y991942D1*
X1174143Y990218D1*
X1176218Y988143D1*
X1177942Y985769D1*
X1179274Y983155D1*
X1180181Y980365D1*
X1180639Y977467D1*
Y974533D1*
X732639Y920533D2*
X732181Y917635D1*
X731274Y914845D1*
X729942Y912231D1*
X728218Y909857D1*
X726143Y907782D1*
X723769Y906058D1*
X721155Y904726D1*
X718365Y903819D1*
X715467Y903361D1*
X712533D1*
X709635Y903819D1*
X706845Y904726D1*
X704231Y906058D1*
X701857Y907782D1*
X699782Y909857D1*
X698058Y912231D1*
X696726Y914845D1*
X695819Y917635D1*
X695361Y920533D1*
Y923467D1*
X695819Y926365D1*
X696726Y929155D1*
X698058Y931769D1*
X699782Y934143D1*
X701857Y936218D1*
X704231Y937942D1*
X706845Y939274D1*
X709635Y940181D1*
X712533Y940639D1*
X715467D1*
X718365Y940181D1*
X721155Y939274D1*
X723769Y937942D1*
X726143Y936218D1*
X728218Y934143D1*
X729942Y931769D1*
X731274Y929155D1*
X732181Y926365D1*
X732639Y923467D1*
Y920533D1*
X685639Y1011533D2*
X685181Y1008635D1*
X684274Y1005845D1*
X682942Y1003231D1*
X681218Y1000857D1*
X679143Y998782D1*
X676769Y997058D1*
X674155Y995726D1*
X671365Y994819D1*
X668467Y994361D1*
X665533D1*
X662635Y994819D1*
X659845Y995726D1*
X657231Y997058D1*
X654857Y998782D1*
X652782Y1000857D1*
X651058Y1003231D1*
X649726Y1005845D1*
X648819Y1008635D1*
X648361Y1011533D1*
Y1014467D1*
X648819Y1017365D1*
X649726Y1020155D1*
X651058Y1022769D1*
X652782Y1025143D1*
X654857Y1027218D1*
X657231Y1028942D1*
X659845Y1030274D1*
X662635Y1031181D1*
X665533Y1031639D1*
X668467D1*
X671365Y1031181D1*
X674155Y1030274D1*
X676769Y1028942D1*
X679143Y1027218D1*
X681218Y1025143D1*
X682942Y1022769D1*
X684274Y1020155D1*
X685181Y1017365D1*
X685639Y1014467D1*
Y1011533D1*
X1207639Y671533D2*
X1207181Y668635D1*
X1206274Y665845D1*
X1204942Y663231D1*
X1203218Y660857D1*
X1201143Y658782D1*
X1198769Y657058D1*
X1196155Y655726D1*
X1193365Y654819D1*
X1190467Y654361D1*
X1187533D1*
X1184635Y654819D1*
X1181845Y655726D1*
X1179231Y657058D1*
X1176857Y658782D1*
X1174782Y660857D1*
X1173058Y663231D1*
X1171726Y665845D1*
X1170819Y668635D1*
X1170361Y671533D1*
Y674467D1*
X1170819Y677365D1*
X1171726Y680155D1*
X1173058Y682769D1*
X1174782Y685143D1*
X1176857Y687218D1*
X1179231Y688942D1*
X1181845Y690274D1*
X1184635Y691181D1*
X1187533Y691639D1*
X1190467D1*
X1193365Y691181D1*
X1196155Y690274D1*
X1198769Y688942D1*
X1201143Y687218D1*
X1203218Y685143D1*
X1204942Y682769D1*
X1206274Y680155D1*
X1207181Y677365D1*
X1207639Y674467D1*
Y671533D1*
X551639Y1145533D2*
X551181Y1142635D1*
X550274Y1139845D1*
X548942Y1137231D1*
X547218Y1134857D1*
X545143Y1132782D1*
X542769Y1131058D1*
X540155Y1129726D1*
X537365Y1128819D1*
X534467Y1128361D1*
X531533D1*
X528635Y1128819D1*
X525845Y1129726D1*
X523231Y1131058D1*
X520857Y1132782D1*
X518782Y1134857D1*
X517058Y1137231D1*
X515726Y1139845D1*
X514819Y1142635D1*
X514361Y1145533D1*
Y1148467D1*
X514819Y1151365D1*
X515726Y1154155D1*
X517058Y1156769D1*
X518782Y1159143D1*
X520857Y1161218D1*
X523231Y1162942D1*
X525845Y1164274D1*
X528635Y1165181D1*
X531533Y1165639D1*
X534467D1*
X537365Y1165181D1*
X540155Y1164274D1*
X542769Y1162942D1*
X545143Y1161218D1*
X547218Y1159143D1*
X548942Y1156769D1*
X550274Y1154155D1*
X551181Y1151365D1*
X551639Y1148467D1*
Y1145533D1*
X896639Y905533D2*
X896181Y902635D1*
X895274Y899845D1*
X893942Y897231D1*
X892218Y894857D1*
X890143Y892782D1*
X887769Y891058D1*
X885155Y889726D1*
X882365Y888819D1*
X879467Y888361D1*
X876533D1*
X873635Y888819D1*
X870845Y889726D1*
X868231Y891058D1*
X865857Y892782D1*
X863782Y894857D1*
X862058Y897231D1*
X860726Y899845D1*
X859819Y902635D1*
X859361Y905533D1*
Y908467D1*
X859819Y911365D1*
X860726Y914155D1*
X862058Y916769D1*
X863782Y919143D1*
X865857Y921218D1*
X868231Y922942D1*
X870845Y924274D1*
X873635Y925181D1*
X876533Y925639D1*
X879467D1*
X882365Y925181D1*
X885155Y924274D1*
X887769Y922942D1*
X890143Y921218D1*
X892218Y919143D1*
X893942Y916769D1*
X895274Y914155D1*
X896181Y911365D1*
X896639Y908467D1*
Y905533D1*
X706639Y1149533D2*
X706181Y1146635D1*
X705274Y1143845D1*
X703942Y1141231D1*
X702218Y1138857D1*
X700143Y1136782D1*
X697769Y1135058D1*
X695155Y1133726D1*
X692365Y1132819D1*
X689467Y1132361D1*
X686533D1*
X683635Y1132819D1*
X680845Y1133726D1*
X678231Y1135058D1*
X675857Y1136782D1*
X673782Y1138857D1*
X672058Y1141231D1*
X670726Y1143845D1*
X669819Y1146635D1*
X669361Y1149533D1*
Y1152467D1*
X669819Y1155365D1*
X670726Y1158155D1*
X672058Y1160769D1*
X673782Y1163143D1*
X675857Y1165218D1*
X678231Y1166942D1*
X680845Y1168274D1*
X683635Y1169181D1*
X686533Y1169639D1*
X689467D1*
X692365Y1169181D1*
X695155Y1168274D1*
X697769Y1166942D1*
X700143Y1165218D1*
X702218Y1163143D1*
X703942Y1160769D1*
X705274Y1158155D1*
X706181Y1155365D1*
X706639Y1152467D1*
Y1149533D1*
X613639Y1374533D2*
X613181Y1371635D1*
X612274Y1368845D1*
X610942Y1366231D1*
X609218Y1363857D1*
X607143Y1361782D1*
X604769Y1360058D1*
X602155Y1358726D1*
X599365Y1357819D1*
X596467Y1357361D1*
X593533D1*
X590635Y1357819D1*
X587845Y1358726D1*
X585231Y1360058D1*
X582857Y1361782D1*
X580782Y1363857D1*
X579058Y1366231D1*
X577726Y1368845D1*
X576819Y1371635D1*
X576361Y1374533D1*
Y1377467D1*
X576819Y1380365D1*
X577726Y1383155D1*
X579058Y1385769D1*
X580782Y1388143D1*
X582857Y1390218D1*
X585231Y1391942D1*
X587845Y1393274D1*
X590635Y1394181D1*
X593533Y1394639D1*
X596467D1*
X599365Y1394181D1*
X602155Y1393274D1*
X604769Y1391942D1*
X607143Y1390218D1*
X609218Y1388143D1*
X610942Y1385769D1*
X612274Y1383155D1*
X613181Y1380365D1*
X613639Y1377467D1*
Y1374533D1*
X90639Y1372533D2*
X90181Y1369635D1*
X89274Y1366845D1*
X87942Y1364231D1*
X86218Y1361857D1*
X84143Y1359782D1*
X81769Y1358058D1*
X79155Y1356726D1*
X76365Y1355819D1*
X73467Y1355361D1*
X70533D1*
X67635Y1355819D1*
X64845Y1356726D1*
X62231Y1358058D1*
X59857Y1359782D1*
X57782Y1361857D1*
X56058Y1364231D1*
X54726Y1366845D1*
X53819Y1369635D1*
X53361Y1372533D1*
Y1375467D1*
X53819Y1378365D1*
X54726Y1381155D1*
X56058Y1383769D1*
X57782Y1386143D1*
X59857Y1388218D1*
X62231Y1389942D1*
X64845Y1391274D1*
X67635Y1392181D1*
X70533Y1392639D1*
X73467D1*
X76365Y1392181D1*
X79155Y1391274D1*
X81769Y1389942D1*
X84143Y1388218D1*
X86218Y1386143D1*
X87942Y1383769D1*
X89274Y1381155D1*
X90181Y1378365D1*
X90639Y1375467D1*
Y1372533D1*
X630639Y1147533D2*
X630181Y1144635D1*
X629274Y1141845D1*
X627942Y1139231D1*
X626218Y1136857D1*
X624143Y1134782D1*
X621769Y1133058D1*
X619155Y1131726D1*
X616365Y1130819D1*
X613467Y1130361D1*
X610533D1*
X607635Y1130819D1*
X604845Y1131726D1*
X602231Y1133058D1*
X599857Y1134782D1*
X597782Y1136857D1*
X596058Y1139231D1*
X594726Y1141845D1*
X593819Y1144635D1*
X593361Y1147533D1*
Y1150467D1*
X593819Y1153365D1*
X594726Y1156155D1*
X596058Y1158769D1*
X597782Y1161143D1*
X599857Y1163218D1*
X602231Y1164942D1*
X604845Y1166274D1*
X607635Y1167181D1*
X610533Y1167639D1*
X613467D1*
X616365Y1167181D1*
X619155Y1166274D1*
X621769Y1164942D1*
X624143Y1163218D1*
X626218Y1161143D1*
X627942Y1158769D1*
X629274Y1156155D1*
X630181Y1153365D1*
X630639Y1150467D1*
Y1147533D1*
X1043639Y1234533D2*
X1043181Y1231635D1*
X1042274Y1228845D1*
X1040942Y1226231D1*
X1039218Y1223857D1*
X1037143Y1221782D1*
X1034769Y1220058D1*
X1032155Y1218726D1*
X1029365Y1217819D1*
X1026467Y1217361D1*
X1023533D1*
X1020635Y1217819D1*
X1017845Y1218726D1*
X1015231Y1220058D1*
X1012857Y1221782D1*
X1010782Y1223857D1*
X1009058Y1226231D1*
X1007726Y1228845D1*
X1006819Y1231635D1*
X1006361Y1234533D1*
Y1237467D1*
X1006819Y1240365D1*
X1007726Y1243155D1*
X1009058Y1245769D1*
X1010782Y1248143D1*
X1012857Y1250218D1*
X1015231Y1251942D1*
X1017845Y1253274D1*
X1020635Y1254181D1*
X1023533Y1254639D1*
X1026467D1*
X1029365Y1254181D1*
X1032155Y1253274D1*
X1034769Y1251942D1*
X1037143Y1250218D1*
X1039218Y1248143D1*
X1040942Y1245769D1*
X1042274Y1243155D1*
X1043181Y1240365D1*
X1043639Y1237467D1*
Y1234533D1*
X734639Y1339533D2*
X734181Y1336635D1*
X733274Y1333845D1*
X731942Y1331231D1*
X730218Y1328857D1*
X728143Y1326782D1*
X725769Y1325058D1*
X723155Y1323726D1*
X720365Y1322819D1*
X717467Y1322361D1*
X714533D1*
X711635Y1322819D1*
X708845Y1323726D1*
X706231Y1325058D1*
X703857Y1326782D1*
X701782Y1328857D1*
X700058Y1331231D1*
X698726Y1333845D1*
X697819Y1336635D1*
X697361Y1339533D1*
Y1342467D1*
X697819Y1345365D1*
X698726Y1348155D1*
X700058Y1350769D1*
X701782Y1353143D1*
X703857Y1355218D1*
X706231Y1356942D1*
X708845Y1358274D1*
X711635Y1359181D1*
X714533Y1359639D1*
X717467D1*
X720365Y1359181D1*
X723155Y1358274D1*
X725769Y1356942D1*
X728143Y1355218D1*
X730218Y1353143D1*
X731942Y1350769D1*
X733274Y1348155D1*
X734181Y1345365D1*
X734639Y1342467D1*
Y1339533D1*
X755639Y772533D2*
X755181Y769635D1*
X754274Y766845D1*
X752942Y764231D1*
X751218Y761857D1*
X749143Y759782D1*
X746769Y758058D1*
X744155Y756726D1*
X741365Y755819D1*
X738467Y755361D1*
X735533D1*
X732635Y755819D1*
X729845Y756726D1*
X727231Y758058D1*
X724857Y759782D1*
X722782Y761857D1*
X721058Y764231D1*
X719726Y766845D1*
X718819Y769635D1*
X718361Y772533D1*
Y775467D1*
X718819Y778365D1*
X719726Y781155D1*
X721058Y783769D1*
X722782Y786143D1*
X724857Y788218D1*
X727231Y789942D1*
X729845Y791274D1*
X732635Y792181D1*
X735533Y792639D1*
X738467D1*
X741365Y792181D1*
X744155Y791274D1*
X746769Y789942D1*
X749143Y788218D1*
X751218Y786143D1*
X752942Y783769D1*
X754274Y781155D1*
X755181Y778365D1*
X755639Y775467D1*
Y772533D1*
X879639Y844533D2*
X879181Y841635D1*
X878274Y838845D1*
X876942Y836231D1*
X875218Y833857D1*
X873143Y831782D1*
X870769Y830058D1*
X868155Y828726D1*
X865365Y827819D1*
X862467Y827361D1*
X859533D1*
X856635Y827819D1*
X853845Y828726D1*
X851231Y830058D1*
X848857Y831782D1*
X846782Y833857D1*
X845058Y836231D1*
X843726Y838845D1*
X842819Y841635D1*
X842361Y844533D1*
Y847467D1*
X842819Y850365D1*
X843726Y853155D1*
X845058Y855769D1*
X846782Y858143D1*
X848857Y860218D1*
X851231Y861942D1*
X853845Y863274D1*
X856635Y864181D1*
X859533Y864639D1*
X862467D1*
X865365Y864181D1*
X868155Y863274D1*
X870769Y861942D1*
X873143Y860218D1*
X875218Y858143D1*
X876942Y855769D1*
X878274Y853155D1*
X879181Y850365D1*
X879639Y847467D1*
Y844533D1*
X1164639Y668533D2*
X1164181Y665635D1*
X1163274Y662845D1*
X1161942Y660231D1*
X1160218Y657857D1*
X1158143Y655782D1*
X1155769Y654058D1*
X1153155Y652726D1*
X1150365Y651819D1*
X1147467Y651361D1*
X1144533D1*
X1141635Y651819D1*
X1138845Y652726D1*
X1136231Y654058D1*
X1133857Y655782D1*
X1131782Y657857D1*
X1130058Y660231D1*
X1128726Y662845D1*
X1127819Y665635D1*
X1127361Y668533D1*
Y671467D1*
X1127819Y674365D1*
X1128726Y677155D1*
X1130058Y679769D1*
X1131782Y682143D1*
X1133857Y684218D1*
X1136231Y685942D1*
X1138845Y687274D1*
X1141635Y688181D1*
X1144533Y688639D1*
X1147467D1*
X1150365Y688181D1*
X1153155Y687274D1*
X1155769Y685942D1*
X1158143Y684218D1*
X1160218Y682143D1*
X1161942Y679769D1*
X1163274Y677155D1*
X1164181Y674365D1*
X1164639Y671467D1*
Y668533D1*
X927639Y508533D2*
X927181Y505635D1*
X926274Y502845D1*
X924942Y500231D1*
X923218Y497857D1*
X921143Y495782D1*
X918769Y494058D1*
X916155Y492726D1*
X913365Y491819D1*
X910467Y491361D1*
X907533D1*
X904635Y491819D1*
X901845Y492726D1*
X899231Y494058D1*
X896857Y495782D1*
X894782Y497857D1*
X893058Y500231D1*
X891726Y502845D1*
X890819Y505635D1*
X890361Y508533D1*
Y511467D1*
X890819Y514365D1*
X891726Y517155D1*
X893058Y519769D1*
X894782Y522143D1*
X896857Y524218D1*
X899231Y525942D1*
X901845Y527274D1*
X904635Y528181D1*
X907533Y528639D1*
X910467D1*
X913365Y528181D1*
X916155Y527274D1*
X918769Y525942D1*
X921143Y524218D1*
X923218Y522143D1*
X924942Y519769D1*
X926274Y517155D1*
X927181Y514365D1*
X927639Y511467D1*
Y508533D1*
X1281000Y1345585D2*
D19*
Y1317213D1*
X1252627D2*
X1281000D1*
X1283007Y668150D2*
Y583845D1*
X1240854Y625997D2*
X1283007D1*
D16*
X42008Y261995D3*
D31*
X1265213Y92000D3*
X1216000D3*
X1166787D3*
X1281000Y1560394D3*
Y1609606D3*
Y1268000D3*
Y1317213D3*
D36*
X1283007Y225997D3*
Y325997D3*
Y425997D3*
Y525997D3*
Y625997D3*
M02*
