G04 DipTrace 3.1.0.0*
G04 VCC.gbr*
%MOIN*%
G04 #@! TF.FileFunction,Copper,L3,Inr*
G04 #@! TF.Part,Single*
%ADD23C,0.02*%
%ADD30C,0.03937*%
%ADD35C,0.066929*%
G04 #@! TA.AperFunction,CopperBalancing*
%ADD17C,0.005*%
G04 #@! TA.AperFunction,ViaPad*
%ADD56C,0.025*%
%FSLAX26Y26*%
G04*
G70*
G90*
G75*
G01*
G04 Inner2_Plane*
%LPD*%
D23*
X896000Y857000D3*
X130000Y825000D3*
X550000Y1161000D3*
X47000Y929000D3*
X67000Y520000D3*
X125000Y510000D3*
X123685Y580472D3*
X154000Y567000D3*
X701000Y1086000D3*
X520000Y744000D3*
X130000Y785000D3*
X83000Y473000D3*
X91000Y914000D3*
X213000Y546000D3*
X1221995Y965997D3*
D56*
X683005Y466995D3*
D23*
X88000Y952000D3*
X990000Y779000D3*
X639000Y872000D3*
X125000Y958000D3*
X495000Y759000D3*
X39000Y520000D3*
D56*
X533005Y466995D3*
D23*
X158000Y928000D3*
X177000Y953000D3*
X253000Y1059000D3*
X287000Y1058000D3*
X289000Y985000D3*
X308000Y1022000D3*
X327000Y1004000D3*
X756000Y1224000D3*
X579000Y1068000D3*
X347000Y872000D3*
X964000Y645000D3*
X50000Y572000D3*
X239711Y1555000D3*
X269711D3*
X130000Y745000D3*
X663000Y1161000D3*
X260000Y1346995D3*
X639000Y1121000D3*
X1107000Y881000D3*
X197000Y568000D3*
D56*
X683005Y436995D3*
X533005D3*
X683005Y406995D3*
D23*
X130000Y705000D3*
Y665000D3*
X146995Y1420997D3*
X170000Y825000D3*
X69003Y1244003D3*
X170000Y785000D3*
Y745000D3*
X196995Y1600000D3*
X215000D3*
X170000Y705000D3*
X175997Y1285997D3*
X1051000Y489000D3*
X348005Y1314003D3*
Y1269003D3*
X1162000Y1478000D3*
X593000Y833000D3*
X110000Y1385000D3*
X359003Y1291995D3*
X990000Y1314003D3*
X938000Y635000D3*
D56*
X683005Y376995D3*
X923005Y466995D3*
D23*
X1041000Y589000D3*
X201995Y1298005D3*
D56*
X67000Y377000D3*
X923005Y436995D3*
D23*
X250000Y1298005D3*
X255997Y1240000D3*
X279000Y1440000D3*
X159003Y1330997D3*
D56*
X713005Y466995D3*
Y436995D3*
Y406995D3*
X36995Y376995D3*
D23*
X366640Y1630000D3*
D56*
X36995Y346995D3*
Y316995D3*
D23*
X1288000Y533000D3*
X461000Y1473000D3*
X847060Y666417D3*
X846995Y606995D3*
X599000Y1149000D3*
X170000Y665000D3*
X210000Y825000D3*
Y785000D3*
D56*
X713005Y376995D3*
D23*
X210000Y745000D3*
Y705000D3*
D56*
X713005Y346995D3*
Y316995D3*
D23*
X210000Y665000D3*
X1221995Y935997D3*
X250000Y825000D3*
D56*
X593005Y466995D3*
Y436995D3*
D23*
X1004003Y1291995D3*
X980000D3*
X315000Y1140000D3*
X150000Y1093000D3*
X400000Y547000D3*
X1021000Y1379000D3*
X444000Y814000D3*
X422000Y694000D3*
X226000Y1024000D3*
X185000Y991000D3*
X25000Y838000D3*
X34000Y735000D3*
X1046000Y558000D3*
D56*
X593005Y406995D3*
D23*
X1221995Y879003D3*
D56*
X593005Y376995D3*
D23*
X1194000Y512000D3*
X309711Y1555000D3*
X199711D3*
X1055000Y820000D3*
X919000Y822000D3*
X737000Y859000D3*
X838000Y776000D3*
X250000Y785000D3*
X42000Y666000D3*
X250000Y745000D3*
Y705000D3*
Y665000D3*
X290000Y825000D3*
D56*
X66995Y346995D3*
Y316995D3*
D23*
X290000Y785000D3*
Y745000D3*
Y705000D3*
Y665000D3*
X556000Y954000D3*
X587000D3*
X580000Y915000D3*
X903000Y904000D3*
X443000Y1231000D3*
D56*
X533005Y406995D3*
Y376995D3*
X96995D3*
Y346995D3*
Y316995D3*
X533005Y346995D3*
Y316995D3*
X563005Y466995D3*
Y436995D3*
Y406995D3*
Y376995D3*
Y346995D3*
Y316995D3*
X653000Y347000D3*
X923005Y376995D3*
D23*
X1221995Y849003D3*
D56*
X126995Y376995D3*
Y346995D3*
Y316995D3*
Y406995D3*
X156995D3*
D23*
X496000Y996000D3*
D56*
X623005Y466995D3*
Y436995D3*
Y406995D3*
Y376995D3*
X923005Y346995D3*
Y316995D3*
X653005Y466995D3*
X156995Y376995D3*
Y346995D3*
Y316995D3*
X653005Y436995D3*
Y406995D3*
Y376995D3*
X953005Y466995D3*
Y436995D3*
X186995Y466995D3*
Y436995D3*
Y406995D3*
D23*
X70000Y1013000D3*
D56*
X953005Y376995D3*
Y346995D3*
Y316995D3*
X743005Y466995D3*
Y436995D3*
Y406995D3*
Y376995D3*
Y346995D3*
Y316995D3*
X186995Y376995D3*
Y346995D3*
Y316995D3*
X773005Y466995D3*
Y436995D3*
Y406995D3*
Y376995D3*
X216995Y465997D3*
Y436995D3*
Y406995D3*
Y376995D3*
Y346995D3*
Y316995D3*
X773005Y346995D3*
Y316995D3*
X803005Y466995D3*
Y439003D3*
X246995Y465997D3*
Y436995D3*
Y406995D3*
Y376995D3*
Y346995D3*
Y316995D3*
D23*
X232000Y1147000D3*
X1280000Y1523000D3*
X50000Y1595000D3*
X110000D3*
D56*
X276995Y466995D3*
Y436995D3*
Y406995D3*
Y376995D3*
Y346995D3*
Y316995D3*
X353005Y466995D3*
Y436995D3*
Y406995D3*
Y376995D3*
Y346995D3*
Y316995D3*
X833005Y466995D3*
Y440000D3*
D23*
X50000Y1555000D3*
Y1515000D3*
D56*
X383005Y466995D3*
Y436995D3*
Y406995D3*
Y376995D3*
Y346995D3*
Y316995D3*
D23*
X110000Y1515000D3*
Y1555000D3*
D56*
X863005Y466995D3*
Y436995D3*
X413005Y466995D3*
Y436995D3*
Y406995D3*
Y376995D3*
Y346995D3*
Y316995D3*
D23*
X954000Y1075000D3*
D56*
X866995Y376995D3*
Y346995D3*
Y316995D3*
X443005Y466995D3*
Y436995D3*
Y406995D3*
Y376995D3*
Y346995D3*
Y316995D3*
X893005Y466995D3*
Y436995D3*
D23*
X551000Y1473000D3*
D56*
X893005Y376995D3*
X473005Y466995D3*
Y436995D3*
Y406995D3*
Y376995D3*
Y346995D3*
Y316995D3*
X893005Y346995D3*
Y316995D3*
X653000Y317000D3*
D23*
X887000Y1232000D3*
D56*
X503005Y466995D3*
Y436995D3*
Y406995D3*
Y376995D3*
Y346995D3*
Y316995D3*
D23*
X343000Y982000D3*
D56*
X683000Y347000D3*
D23*
X1226000Y559000D3*
D56*
X683000Y317000D3*
X593000Y347000D3*
Y317000D3*
X623000Y347000D3*
D23*
X1218005Y379003D3*
D56*
X623000Y317000D3*
D23*
X25000Y961000D3*
X1219000Y492000D3*
X739000Y1469000D3*
X1155000Y489000D3*
X1175000Y589003D3*
X1086000Y1161000D3*
X1013000Y1114000D3*
X1083000Y1314000D3*
X660000Y1086000D3*
X816000Y1471000D3*
X857000Y1470000D3*
X504000Y1067000D3*
X492000Y692000D3*
X484000Y799000D3*
X451000Y547000D3*
X367000Y1214000D3*
X501680Y1232087D3*
X521365D3*
X541050D3*
X560735D3*
X580420D3*
X659160D3*
X678845D3*
X698530D3*
X718215D3*
X915066D3*
X954436D3*
X780000Y555997D3*
X755000Y655997D3*
X18997Y1669547D2*
D17*
X1306996D1*
X18997Y1664678D2*
X1306996D1*
X18997Y1659810D2*
X1306996D1*
X18997Y1654941D2*
X1306996D1*
X18997Y1650072D2*
X1306996D1*
X18997Y1645203D2*
X355259D1*
X378026D2*
X1306996D1*
X18997Y1640335D2*
X350560D1*
X382723D2*
X1306996D1*
X18997Y1635466D2*
X348256D1*
X385018D2*
X1268803D1*
X1293202D2*
X1306996D1*
X18997Y1630597D2*
X347455D1*
X385828D2*
X1261400D1*
X1300604D2*
X1306996D1*
X18997Y1625728D2*
X347934D1*
X385340D2*
X1257143D1*
X1304862D2*
X1307004D1*
X18997Y1620860D2*
X349828D1*
X383455D2*
X1254448D1*
X18997Y1615991D2*
X353755D1*
X379520D2*
X1252846D1*
X18997Y1611122D2*
X40034D1*
X59969D2*
X100034D1*
X119969D2*
X1252163D1*
X18997Y1606253D2*
X34564D1*
X65428D2*
X94564D1*
X125428D2*
X1252319D1*
X18997Y1601385D2*
X31928D1*
X68075D2*
X91928D1*
X128075D2*
X1253335D1*
X18997Y1596516D2*
X30864D1*
X69139D2*
X90864D1*
X129139D2*
X1255316D1*
X18997Y1591647D2*
X31108D1*
X68895D2*
X91108D1*
X128895D2*
X1258520D1*
X18997Y1586778D2*
X32709D1*
X67293D2*
X92709D1*
X127293D2*
X1263636D1*
X18997Y1581909D2*
X36147D1*
X63846D2*
X96147D1*
X123846D2*
X1261987D1*
X18997Y1577041D2*
X44301D1*
X55702D2*
X104301D1*
X115702D2*
X1257514D1*
X18997Y1572172D2*
X42104D1*
X57899D2*
X102104D1*
X117899D2*
X191811D1*
X207606D2*
X231811D1*
X247606D2*
X261811D1*
X277606D2*
X301811D1*
X317606D2*
X1254672D1*
X18997Y1567303D2*
X35424D1*
X64579D2*
X95424D1*
X124579D2*
X185131D1*
X214286D2*
X225131D1*
X284286D2*
X295131D1*
X324286D2*
X1252972D1*
X18997Y1562434D2*
X32348D1*
X67655D2*
X92348D1*
X127655D2*
X182055D1*
X217371D2*
X222055D1*
X287371D2*
X292055D1*
X327371D2*
X1252192D1*
X18997Y1557566D2*
X30980D1*
X69022D2*
X90980D1*
X129022D2*
X180688D1*
X218728D2*
X220688D1*
X288728D2*
X290688D1*
X328728D2*
X1252260D1*
X18997Y1552697D2*
X30942D1*
X69051D2*
X90942D1*
X129051D2*
X180659D1*
X218768D2*
X220659D1*
X288768D2*
X290659D1*
X328768D2*
X1253178D1*
X18997Y1547828D2*
X32231D1*
X67772D2*
X92231D1*
X127772D2*
X181948D1*
X217479D2*
X221948D1*
X287479D2*
X291948D1*
X327479D2*
X1255052D1*
X18997Y1542959D2*
X35199D1*
X64803D2*
X95199D1*
X124803D2*
X184907D1*
X214520D2*
X224907D1*
X284520D2*
X294907D1*
X324520D2*
X1258100D1*
X1303895D2*
X1306996D1*
X18997Y1538091D2*
X41518D1*
X58475D2*
X101518D1*
X118475D2*
X191235D1*
X208192D2*
X231235D1*
X248192D2*
X261235D1*
X278192D2*
X301235D1*
X318192D2*
X1262944D1*
X1299051D2*
X1306996D1*
X18997Y1533222D2*
X45307D1*
X54686D2*
X105307D1*
X114686D2*
X1263843D1*
X1296160D2*
X1306996D1*
X18997Y1528353D2*
X36411D1*
X63592D2*
X96411D1*
X123592D2*
X1261587D1*
X1298416D2*
X1306996D1*
X18997Y1523484D2*
X32836D1*
X67167D2*
X92836D1*
X127167D2*
X1260804D1*
X1299188D2*
X1306996D1*
X18997Y1518615D2*
X31156D1*
X68846D2*
X91156D1*
X128846D2*
X1261323D1*
X1298680D2*
X1306996D1*
X18997Y1513747D2*
X30844D1*
X69159D2*
X90844D1*
X129159D2*
X1263256D1*
X1296747D2*
X1306996D1*
X18997Y1508878D2*
X31831D1*
X68163D2*
X91831D1*
X128163D2*
X1267251D1*
X1292752D2*
X1306996D1*
X18997Y1504009D2*
X34370D1*
X65623D2*
X94370D1*
X125623D2*
X1306996D1*
X18997Y1499140D2*
X39594D1*
X60399D2*
X99594D1*
X120399D2*
X1306996D1*
X18997Y1494272D2*
X1152289D1*
X1171707D2*
X1306996D1*
X18997Y1489403D2*
X451528D1*
X470476D2*
X541528D1*
X560476D2*
X1146684D1*
X1177312D2*
X1306996D1*
X18997Y1484534D2*
X445786D1*
X476219D2*
X535786D1*
X566219D2*
X728091D1*
X749911D2*
X844740D1*
X869266D2*
X1143979D1*
X1180018D2*
X1306996D1*
X18997Y1479665D2*
X443031D1*
X478972D2*
X533031D1*
X568972D2*
X723139D1*
X754862D2*
X840492D1*
X873504D2*
X1142875D1*
X1181122D2*
X1306996D1*
X18997Y1474797D2*
X441888D1*
X480115D2*
X531888D1*
X570115D2*
X720727D1*
X757274D2*
X838432D1*
X875575D2*
X1143080D1*
X1180916D2*
X1306996D1*
X18997Y1469928D2*
X442055D1*
X479940D2*
X532055D1*
X569940D2*
X719828D1*
X758172D2*
X837807D1*
X876199D2*
X1144633D1*
X1179364D2*
X1306996D1*
X18997Y1465059D2*
X443568D1*
X478427D2*
X533568D1*
X568427D2*
X720219D1*
X757782D2*
X838471D1*
X875535D2*
X1148003D1*
X1175995D2*
X1306996D1*
X18997Y1460190D2*
X446879D1*
X475115D2*
X536879D1*
X565115D2*
X722007D1*
X755995D2*
X840580D1*
X873416D2*
X1155804D1*
X1168192D2*
X1306996D1*
X18997Y1455322D2*
X267787D1*
X290213D2*
X454408D1*
X467587D2*
X544408D1*
X557587D2*
X725756D1*
X752244D2*
X844916D1*
X869080D2*
X1306996D1*
X18997Y1450453D2*
X263003D1*
X294999D2*
X736136D1*
X741864D2*
X1306996D1*
X18997Y1445584D2*
X260659D1*
X297343D2*
X1306996D1*
X18997Y1440715D2*
X259819D1*
X298182D2*
X1306996D1*
X18997Y1435846D2*
X260268D1*
X297732D2*
X1306996D1*
X18997Y1430978D2*
X262123D1*
X295877D2*
X1306996D1*
X18997Y1426109D2*
X265980D1*
X292020D2*
X1306996D1*
X18997Y1421240D2*
X1306996D1*
X18997Y1416371D2*
X1306996D1*
X18997Y1411503D2*
X1306996D1*
X18997Y1406634D2*
X1306996D1*
X18997Y1401765D2*
X101224D1*
X118778D2*
X1306996D1*
X18997Y1396896D2*
X95072D1*
X124920D2*
X1306996D1*
X18997Y1392028D2*
X92172D1*
X127831D2*
X1306996D1*
X18997Y1387159D2*
X90932D1*
X129071D2*
X1306996D1*
X18997Y1382290D2*
X91000D1*
X129003D2*
X1306996D1*
X18997Y1377421D2*
X92407D1*
X127596D2*
X1306996D1*
X18997Y1372552D2*
X95551D1*
X124451D2*
X1306996D1*
X18997Y1367684D2*
X102446D1*
X117556D2*
X1306996D1*
X18997Y1362815D2*
X249535D1*
X270467D2*
X1306996D1*
X18997Y1357946D2*
X244350D1*
X275652D2*
X1306996D1*
X18997Y1353077D2*
X241820D1*
X278182D2*
X1306996D1*
X18997Y1348209D2*
X151196D1*
X166804D2*
X240844D1*
X279159D2*
X1306996D1*
X18997Y1343340D2*
X144457D1*
X173543D2*
X241167D1*
X278836D2*
X1306996D1*
X18997Y1338471D2*
X141362D1*
X176639D2*
X242856D1*
X277136D2*
X1306996D1*
X18997Y1333602D2*
X139984D1*
X178016D2*
X246450D1*
X273543D2*
X1306996D1*
X18997Y1328734D2*
X139946D1*
X178064D2*
X255483D1*
X264510D2*
X335991D1*
X360018D2*
X977983D1*
X1002010D2*
X1070991D1*
X1095008D2*
X1306996D1*
X18997Y1323865D2*
X141215D1*
X176786D2*
X331625D1*
X364392D2*
X973618D1*
X1006385D2*
X1066615D1*
X1099383D2*
X1306996D1*
X18997Y1318996D2*
X144164D1*
X173836D2*
X329487D1*
X366522D2*
X971479D1*
X1008514D2*
X1064487D1*
X1101522D2*
X1306996D1*
X18997Y1314127D2*
X150444D1*
X167567D2*
X240034D1*
X259969D2*
X328812D1*
X367206D2*
X970804D1*
X1009198D2*
X1063803D1*
X1102196D2*
X1306996D1*
X18997Y1309259D2*
X234564D1*
X265428D2*
X329419D1*
X366678D2*
X971411D1*
X1011678D2*
X1064419D1*
X1101591D2*
X1306996D1*
X18997Y1304390D2*
X172133D1*
X179862D2*
X231928D1*
X268075D2*
X331469D1*
X373504D2*
X965503D1*
X1018504D2*
X1066459D1*
X1099539D2*
X1306996D1*
X18997Y1299521D2*
X162583D1*
X189412D2*
X230864D1*
X269139D2*
X335678D1*
X376619D2*
X962387D1*
X1021619D2*
X1070668D1*
X1095331D2*
X1306996D1*
X18997Y1294652D2*
X158920D1*
X193075D2*
X231108D1*
X268895D2*
X339995D1*
X378007D2*
X960991D1*
X1023007D2*
X1306996D1*
X18997Y1289783D2*
X157192D1*
X194803D2*
X232709D1*
X267293D2*
X339936D1*
X378064D2*
X960932D1*
X1023064D2*
X1306996D1*
X18997Y1284915D2*
X156831D1*
X195164D2*
X236147D1*
X263846D2*
X337690D1*
X376804D2*
X962192D1*
X1021804D2*
X1306996D1*
X18997Y1280046D2*
X157768D1*
X194227D2*
X244301D1*
X255702D2*
X332416D1*
X373885D2*
X965122D1*
X1018885D2*
X1306996D1*
X18997Y1275177D2*
X160248D1*
X191747D2*
X329858D1*
X367675D2*
X971332D1*
X988671D2*
X995336D1*
X1012675D2*
X1306996D1*
X18997Y1270308D2*
X165327D1*
X186668D2*
X328852D1*
X367156D2*
X1306996D1*
X18997Y1265440D2*
X329155D1*
X366864D2*
X1306996D1*
X18997Y1260571D2*
X330815D1*
X365194D2*
X1306996D1*
X18997Y1255702D2*
X245346D1*
X266648D2*
X334360D1*
X361648D2*
X1306996D1*
X18997Y1250833D2*
X240259D1*
X271736D2*
X343091D1*
X352919D2*
X1306996D1*
X18997Y1245965D2*
X237778D1*
X274217D2*
X488647D1*
X593446D2*
X646127D1*
X731248D2*
X902035D1*
X928094D2*
X941411D1*
X967469D2*
X1306996D1*
X18997Y1241096D2*
X236831D1*
X275164D2*
X484799D1*
X597303D2*
X642280D1*
X735096D2*
X747924D1*
X764071D2*
X898178D1*
X931951D2*
X937552D1*
X971316D2*
X1306996D1*
X18997Y1236227D2*
X237182D1*
X274812D2*
X482944D1*
X599148D2*
X640424D1*
X736951D2*
X741352D1*
X770643D2*
X896332D1*
X933797D2*
X935707D1*
X973172D2*
X1306996D1*
X18997Y1231358D2*
X238920D1*
X273075D2*
X359555D1*
X374451D2*
X482495D1*
X599608D2*
X639975D1*
X773690D2*
X895883D1*
X973622D2*
X1306996D1*
X18997Y1226490D2*
X242572D1*
X269423D2*
X352583D1*
X381415D2*
X483344D1*
X598759D2*
X640824D1*
X775028D2*
X896723D1*
X933407D2*
X936098D1*
X972772D2*
X1306996D1*
X18997Y1221621D2*
X252064D1*
X259930D2*
X349428D1*
X384579D2*
X485688D1*
X596415D2*
X643168D1*
X734207D2*
X736959D1*
X775047D2*
X899076D1*
X931063D2*
X938442D1*
X970428D2*
X1306996D1*
X18997Y1216752D2*
X348003D1*
X385995D2*
X490483D1*
X591619D2*
X647963D1*
X729412D2*
X738266D1*
X773739D2*
X903871D1*
X926268D2*
X943236D1*
X965633D2*
X1306996D1*
X18997Y1211883D2*
X347924D1*
X386072D2*
X741264D1*
X770740D2*
X1306996D1*
X18997Y1207014D2*
X349155D1*
X384843D2*
X747680D1*
X764315D2*
X1306996D1*
X18997Y1202146D2*
X352045D1*
X381961D2*
X1306996D1*
X18997Y1197277D2*
X358139D1*
X375858D2*
X1306996D1*
X18997Y1192408D2*
X1306996D1*
X18997Y1187539D2*
X1306996D1*
X18997Y1182671D2*
X1306996D1*
X18997Y1177802D2*
X541293D1*
X558699D2*
X654301D1*
X671707D2*
X1077299D1*
X1094706D2*
X1306996D1*
X18997Y1172933D2*
X535102D1*
X564891D2*
X648110D1*
X677899D2*
X1071108D1*
X1100896D2*
X1306996D1*
X18997Y1168064D2*
X532192D1*
X567811D2*
X645190D1*
X680808D2*
X1068188D1*
X1103807D2*
X1306996D1*
X18997Y1163196D2*
X222152D1*
X241844D2*
X530932D1*
X569071D2*
X586332D1*
X611668D2*
X643930D1*
X682068D2*
X1066928D1*
X1105067D2*
X1306996D1*
X18997Y1158327D2*
X216625D1*
X247371D2*
X310795D1*
X319207D2*
X530991D1*
X569003D2*
X582299D1*
X615702D2*
X643999D1*
X682000D2*
X1066996D1*
X1105008D2*
X1306996D1*
X18997Y1153458D2*
X213950D1*
X250047D2*
X301518D1*
X328475D2*
X532387D1*
X567606D2*
X580346D1*
X617655D2*
X645395D1*
X680604D2*
X1068392D1*
X1103612D2*
X1306996D1*
X18997Y1148589D2*
X212866D1*
X251131D2*
X297895D1*
X332108D2*
X535512D1*
X564480D2*
X579808D1*
X618192D2*
X648520D1*
X677488D2*
X1071518D1*
X1100487D2*
X1306996D1*
X18997Y1143720D2*
X213091D1*
X250907D2*
X296176D1*
X333827D2*
X542358D1*
X557644D2*
X580560D1*
X617440D2*
X655356D1*
X670643D2*
X1078354D1*
X1093640D2*
X1306996D1*
X18997Y1138852D2*
X88148D1*
X108699D2*
X214672D1*
X249324D2*
X295835D1*
X334159D2*
X582797D1*
X615203D2*
X632944D1*
X645056D2*
X1306996D1*
X18997Y1133983D2*
X79720D1*
X117127D2*
X218080D1*
X245927D2*
X296801D1*
X333202D2*
X587358D1*
X610643D2*
X625043D1*
X652957D2*
X1306996D1*
X18997Y1129114D2*
X75131D1*
X121717D2*
X226049D1*
X237948D2*
X299301D1*
X330702D2*
X621655D1*
X656346D2*
X1306996D1*
X18997Y1124245D2*
X72220D1*
X124627D2*
X304428D1*
X325564D2*
X620083D1*
X657919D2*
X1306996D1*
X18997Y1119377D2*
X70463D1*
X126385D2*
X619877D1*
X658123D2*
X1306996D1*
X18997Y1114508D2*
X69633D1*
X127215D2*
X620961D1*
X657030D2*
X1306996D1*
X18997Y1109639D2*
X69663D1*
X127196D2*
X140971D1*
X159031D2*
X623647D1*
X654354D2*
X1306996D1*
X18997Y1104770D2*
X70531D1*
X126316D2*
X134975D1*
X165028D2*
X629213D1*
X648787D2*
X1306996D1*
X18997Y1099902D2*
X72348D1*
X124500D2*
X132123D1*
X167879D2*
X646996D1*
X673007D2*
X687992D1*
X714003D2*
X1306996D1*
X18997Y1095033D2*
X75327D1*
X121522D2*
X130912D1*
X169091D2*
X643129D1*
X676873D2*
X684125D1*
X717870D2*
X1306996D1*
X18997Y1090164D2*
X80043D1*
X116804D2*
X131020D1*
X168983D2*
X641274D1*
X678728D2*
X682270D1*
X719724D2*
X942563D1*
X965438D2*
X1306996D1*
X18997Y1085295D2*
X80375D1*
X116483D2*
X132465D1*
X167538D2*
X499643D1*
X508358D2*
X571400D1*
X586600D2*
X640815D1*
X679188D2*
X681823D1*
X720184D2*
X937895D1*
X970106D2*
X1306996D1*
X18997Y1080427D2*
X75531D1*
X121316D2*
X135659D1*
X164335D2*
X490492D1*
X517508D2*
X564526D1*
X593475D2*
X641655D1*
X678348D2*
X682651D1*
X719344D2*
X935610D1*
X972391D2*
X1306996D1*
X18997Y1075558D2*
X72475D1*
X124373D2*
X142768D1*
X157235D2*
X243812D1*
X262186D2*
X280072D1*
X293924D2*
X486879D1*
X521122D2*
X561400D1*
X596600D2*
X643988D1*
X676014D2*
X684995D1*
X717010D2*
X934808D1*
X973192D2*
X1306996D1*
X18997Y1070689D2*
X70610D1*
X126248D2*
X237904D1*
X268094D2*
X272768D1*
X301228D2*
X485171D1*
X522831D2*
X559995D1*
X598007D2*
X648764D1*
X671228D2*
X689770D1*
X712235D2*
X935307D1*
X972694D2*
X1306996D1*
X18997Y1065820D2*
X69682D1*
X127167D2*
X235092D1*
X304480D2*
X484839D1*
X523163D2*
X559927D1*
X598075D2*
X937211D1*
X970789D2*
X1306996D1*
X18997Y1060951D2*
X69614D1*
X127235D2*
X233900D1*
X305965D2*
X485804D1*
X522196D2*
X561186D1*
X596815D2*
X941167D1*
X966835D2*
X1306996D1*
X18997Y1056083D2*
X70395D1*
X126454D2*
X234028D1*
X306102D2*
X488324D1*
X519676D2*
X564096D1*
X593904D2*
X1306996D1*
X18997Y1051214D2*
X72104D1*
X124744D2*
X235503D1*
X304920D2*
X493480D1*
X514520D2*
X570268D1*
X587732D2*
X1306996D1*
X18997Y1046345D2*
X74936D1*
X121912D2*
X238735D1*
X267264D2*
X271879D1*
X302118D2*
X1306996D1*
X18997Y1041476D2*
X79419D1*
X117440D2*
X218852D1*
X233143D2*
X245980D1*
X260018D2*
X277748D1*
X296248D2*
X1306996D1*
X18997Y1036608D2*
X81059D1*
X115789D2*
X211694D1*
X240311D2*
X295824D1*
X320175D2*
X1306996D1*
X18997Y1031739D2*
X75951D1*
X120907D2*
X208480D1*
X243524D2*
X291538D1*
X324461D2*
X1306996D1*
X18997Y1026870D2*
X56957D1*
X124110D2*
X207026D1*
X244979D2*
X289448D1*
X326551D2*
X1306996D1*
X18997Y1022001D2*
X53110D1*
X126092D2*
X206908D1*
X245087D2*
X288803D1*
X332556D2*
X1306996D1*
X18997Y1017133D2*
X51264D1*
X127108D2*
X208110D1*
X243895D2*
X289448D1*
X340808D2*
X1306996D1*
X18997Y1012264D2*
X50815D1*
X127264D2*
X210942D1*
X241052D2*
X291538D1*
X344276D2*
X1306996D1*
X18997Y1007395D2*
X51664D1*
X126580D2*
X216908D1*
X235096D2*
X295824D1*
X345887D2*
X1306996D1*
X18997Y1002526D2*
X54008D1*
X124979D2*
X281987D1*
X296014D2*
X307866D1*
X346140D2*
X1306996D1*
X18997Y997657D2*
X58812D1*
X122283D2*
X274740D1*
X303260D2*
X308911D1*
X353719D2*
X1306996D1*
X18997Y992789D2*
X78823D1*
X118026D2*
X271499D1*
X306503D2*
X311538D1*
X358768D2*
X1306996D1*
X18997Y987920D2*
X86224D1*
X110623D2*
X270034D1*
X307967D2*
X316957D1*
X361239D2*
X1306996D1*
X18997Y983051D2*
X269907D1*
X308094D2*
X323832D1*
X362167D2*
X1306996D1*
X32870Y978182D2*
X271088D1*
X306912D2*
X324194D1*
X361804D2*
X1306996D1*
X39568Y973314D2*
X113774D1*
X136228D2*
X273900D1*
X304100D2*
X325942D1*
X360056D2*
X1306996D1*
X42655Y968445D2*
X78608D1*
X97400D2*
X108988D1*
X141004D2*
X165961D1*
X188035D2*
X279808D1*
X298192D2*
X329623D1*
X356375D2*
X543627D1*
X568367D2*
X574633D1*
X599373D2*
X1306996D1*
X44022Y963576D2*
X72816D1*
X103182D2*
X106655D1*
X143348D2*
X161079D1*
X192919D2*
X339311D1*
X346688D2*
X539438D1*
X603563D2*
X1306996D1*
X44060Y958707D2*
X70043D1*
X144188D2*
X158696D1*
X195301D2*
X537407D1*
X605594D2*
X1306996D1*
X42772Y953839D2*
X68891D1*
X143728D2*
X157816D1*
X196180D2*
X536801D1*
X606199D2*
X1306996D1*
X39812Y948970D2*
X69047D1*
X141873D2*
X158247D1*
X195760D2*
X537495D1*
X605507D2*
X1306996D1*
X33504Y944101D2*
X35480D1*
X58524D2*
X70551D1*
X105448D2*
X111996D1*
X138007D2*
X147992D1*
X193944D2*
X539643D1*
X603358D2*
X1306996D1*
X18997Y939232D2*
X30854D1*
X63152D2*
X73843D1*
X102156D2*
X142552D1*
X190155D2*
X544038D1*
X567967D2*
X575034D1*
X598963D2*
X1306996D1*
X18997Y934364D2*
X28588D1*
X65408D2*
X81293D1*
X94706D2*
X139916D1*
X179003D2*
X1306996D1*
X18997Y929495D2*
X27807D1*
X66190D2*
X80034D1*
X101961D2*
X138862D1*
X177136D2*
X567690D1*
X592312D2*
X1306996D1*
X18997Y924626D2*
X28324D1*
X65682D2*
X75112D1*
X106883D2*
X139106D1*
X176892D2*
X563471D1*
X596531D2*
X1306996D1*
X18997Y919757D2*
X30248D1*
X63748D2*
X72709D1*
X109286D2*
X140717D1*
X175282D2*
X561420D1*
X598583D2*
X892436D1*
X913563D2*
X1306996D1*
X18997Y914888D2*
X34232D1*
X59764D2*
X71820D1*
X110175D2*
X144175D1*
X171835D2*
X560804D1*
X599198D2*
X887299D1*
X918699D2*
X1306996D1*
X18997Y910020D2*
X72231D1*
X109764D2*
X152367D1*
X163631D2*
X561479D1*
X598524D2*
X884799D1*
X921199D2*
X1267104D1*
X1294900D2*
X1306996D1*
X18997Y905151D2*
X74028D1*
X107967D2*
X563608D1*
X596395D2*
X883843D1*
X922167D2*
X1260512D1*
X1301483D2*
X1306996D1*
X18997Y900282D2*
X77797D1*
X104207D2*
X567972D1*
X592030D2*
X884175D1*
X921824D2*
X1256587D1*
X1305419D2*
X1306997D1*
X18997Y895413D2*
X88471D1*
X93529D2*
X885892D1*
X920106D2*
X1094594D1*
X1119412D2*
X1212534D1*
X1231454D2*
X1254096D1*
X18997Y890545D2*
X344115D1*
X349881D2*
X636118D1*
X641883D2*
X889516D1*
X916483D2*
X1090424D1*
X1123583D2*
X1206782D1*
X1237206D2*
X1252660D1*
X18997Y885676D2*
X333755D1*
X360252D2*
X625747D1*
X652255D2*
X898783D1*
X907215D2*
X1088392D1*
X1125604D2*
X1204028D1*
X1239959D2*
X1252123D1*
X18997Y880807D2*
X330004D1*
X363992D2*
X622007D1*
X655995D2*
X1087807D1*
X1126199D2*
X1202885D1*
X1241102D2*
X1252427D1*
X18997Y875938D2*
X328227D1*
X365780D2*
X620219D1*
X657782D2*
X728579D1*
X745419D2*
X887163D1*
X904832D2*
X1088500D1*
X1125496D2*
X1203051D1*
X1240936D2*
X1253608D1*
X18997Y871070D2*
X327827D1*
X366171D2*
X619828D1*
X658172D2*
X722220D1*
X751776D2*
X880327D1*
X911668D2*
X1090659D1*
X1123339D2*
X1204564D1*
X1239423D2*
X1255776D1*
X18997Y866201D2*
X328724D1*
X365272D2*
X620727D1*
X657274D2*
X719243D1*
X754755D2*
X876967D1*
X915038D2*
X1095072D1*
X1118924D2*
X1207866D1*
X1236122D2*
X1259232D1*
X1302762D2*
X1306996D1*
X18997Y861332D2*
X331147D1*
X362860D2*
X623148D1*
X654852D2*
X717954D1*
X756052D2*
X875268D1*
X916736D2*
X1207436D1*
X1236551D2*
X1264839D1*
X1297167D2*
X1306996D1*
X18997Y856463D2*
X336098D1*
X357899D2*
X628100D1*
X649900D2*
X717972D1*
X756024D2*
X874819D1*
X917186D2*
X1204350D1*
X1239636D2*
X1306996D1*
X18997Y851594D2*
X590541D1*
X595462D2*
X719331D1*
X754667D2*
X875522D1*
X916472D2*
X1202983D1*
X1241014D2*
X1306996D1*
X18997Y846726D2*
X579799D1*
X606199D2*
X722396D1*
X751600D2*
X877543D1*
X914461D2*
X1202934D1*
X1241052D2*
X1306996D1*
X18997Y841857D2*
X121411D1*
X138592D2*
X161411D1*
X178592D2*
X201411D1*
X218592D2*
X241411D1*
X258592D2*
X281411D1*
X298592D2*
X576030D1*
X609969D2*
X729038D1*
X744959D2*
X881400D1*
X910604D2*
X1204213D1*
X1239774D2*
X1306996D1*
X18997Y836988D2*
X115151D1*
X144852D2*
X155151D1*
X184852D2*
X195151D1*
X224852D2*
X235151D1*
X264852D2*
X275151D1*
X304852D2*
X574232D1*
X611766D2*
X890239D1*
X901766D2*
X907319D1*
X930682D2*
X1046694D1*
X1063308D2*
X1207172D1*
X1236824D2*
X1306996D1*
X18997Y832119D2*
X112211D1*
X147791D2*
X152211D1*
X187791D2*
X192211D1*
X227791D2*
X232211D1*
X267791D2*
X272211D1*
X307791D2*
X573823D1*
X612176D2*
X902778D1*
X935223D2*
X1040259D1*
X1069735D2*
X1213461D1*
X1230526D2*
X1306996D1*
X18997Y827251D2*
X110942D1*
X149060D2*
X150944D1*
X189060D2*
X190944D1*
X229060D2*
X230944D1*
X269060D2*
X270944D1*
X309060D2*
X574711D1*
X611287D2*
X900551D1*
X937450D2*
X1037270D1*
X1072732D2*
X1306996D1*
X18997Y822382D2*
X110991D1*
X149012D2*
X150982D1*
X189012D2*
X190982D1*
X229012D2*
X230982D1*
X269012D2*
X270982D1*
X309012D2*
X577114D1*
X608885D2*
X899808D1*
X938192D2*
X1035951D1*
X1074041D2*
X1306996D1*
X18997Y817513D2*
X112367D1*
X147635D2*
X152367D1*
X187635D2*
X192367D1*
X227635D2*
X232367D1*
X267635D2*
X272367D1*
X307635D2*
X480883D1*
X487118D2*
X582026D1*
X603972D2*
X900346D1*
X937655D2*
X1035971D1*
X1074031D2*
X1306996D1*
X18997Y812644D2*
X115463D1*
X144530D2*
X155463D1*
X184530D2*
X195463D1*
X224530D2*
X235463D1*
X264530D2*
X275463D1*
X304530D2*
X470717D1*
X497283D2*
X902308D1*
X935692D2*
X1037308D1*
X1072694D2*
X1306996D1*
X18997Y807776D2*
X122231D1*
X137772D2*
X162231D1*
X177772D2*
X202231D1*
X217772D2*
X242231D1*
X257772D2*
X282231D1*
X297772D2*
X466987D1*
X501014D2*
X906362D1*
X931639D2*
X1040356D1*
X1069647D2*
X1306996D1*
X18997Y802907D2*
X124125D1*
X135877D2*
X164125D1*
X175877D2*
X204125D1*
X215877D2*
X244125D1*
X255877D2*
X284125D1*
X295877D2*
X465219D1*
X502782D2*
X1046919D1*
X1063075D2*
X1306996D1*
X18997Y798038D2*
X116098D1*
X143904D2*
X156098D1*
X183904D2*
X196098D1*
X223904D2*
X236098D1*
X263904D2*
X276098D1*
X303904D2*
X464828D1*
X503172D2*
X1306996D1*
X18997Y793169D2*
X112680D1*
X147323D2*
X152680D1*
X187323D2*
X192680D1*
X227323D2*
X232680D1*
X267323D2*
X272680D1*
X307323D2*
X465736D1*
X502264D2*
X830102D1*
X845907D2*
X977299D1*
X1002703D2*
X1306996D1*
X18997Y788301D2*
X111098D1*
X148904D2*
X151098D1*
X188904D2*
X191098D1*
X228904D2*
X231098D1*
X268904D2*
X271098D1*
X308904D2*
X468168D1*
X499832D2*
X823423D1*
X852576D2*
X973276D1*
X1006717D2*
X1306996D1*
X18997Y783432D2*
X110873D1*
X149129D2*
X150877D1*
X189129D2*
X190877D1*
X229129D2*
X230877D1*
X269129D2*
X270877D1*
X309129D2*
X473148D1*
X494852D2*
X820346D1*
X855652D2*
X971332D1*
X1008660D2*
X1306996D1*
X18997Y778563D2*
X111948D1*
X148055D2*
X151948D1*
X188055D2*
X191948D1*
X228055D2*
X231948D1*
X268055D2*
X271948D1*
X308055D2*
X818979D1*
X857020D2*
X970804D1*
X1009188D2*
X1306996D1*
X18997Y773694D2*
X114604D1*
X145388D2*
X154604D1*
X185388D2*
X194604D1*
X225388D2*
X234604D1*
X265388D2*
X274604D1*
X305388D2*
X482934D1*
X507059D2*
X818950D1*
X857059D2*
X971567D1*
X1008427D2*
X1306996D1*
X18997Y768825D2*
X120122D1*
X139881D2*
X160122D1*
X179881D2*
X200122D1*
X219881D2*
X240122D1*
X259881D2*
X280122D1*
X299881D2*
X478588D1*
X511404D2*
X820239D1*
X855770D2*
X973812D1*
X1006190D2*
X1306996D1*
X18997Y763957D2*
X476469D1*
X513524D2*
X823198D1*
X852801D2*
X978392D1*
X1001600D2*
X1306996D1*
X18997Y759088D2*
X117211D1*
X142791D2*
X157211D1*
X182791D2*
X197211D1*
X222791D2*
X237211D1*
X262791D2*
X277211D1*
X302791D2*
X475804D1*
X531541D2*
X829526D1*
X846472D2*
X1306996D1*
X18997Y754219D2*
X113236D1*
X146766D2*
X153236D1*
X186766D2*
X193236D1*
X226766D2*
X233236D1*
X266766D2*
X273236D1*
X306766D2*
X476420D1*
X536160D2*
X1306996D1*
X18997Y749350D2*
X21518D1*
X46483D2*
X111312D1*
X148680D2*
X151312D1*
X188680D2*
X191312D1*
X228680D2*
X231312D1*
X268680D2*
X271312D1*
X308680D2*
X478480D1*
X538416D2*
X1306996D1*
X50614Y744482D2*
X110815D1*
X149188D2*
X150808D1*
X189188D2*
X190808D1*
X229188D2*
X230808D1*
X269188D2*
X270808D1*
X309188D2*
X482719D1*
X539188D2*
X1306996D1*
X52615Y739613D2*
X111596D1*
X148407D2*
X151596D1*
X188407D2*
X191596D1*
X228407D2*
X231596D1*
X268407D2*
X271596D1*
X308407D2*
X501323D1*
X538680D2*
X1306996D1*
X53192Y734744D2*
X113871D1*
X146131D2*
X153871D1*
X186131D2*
X193871D1*
X226131D2*
X233871D1*
X266131D2*
X273871D1*
X306131D2*
X503256D1*
X536747D2*
X1306996D1*
X52479Y729875D2*
X118510D1*
X141492D2*
X158510D1*
X181492D2*
X198510D1*
X221492D2*
X238510D1*
X261492D2*
X278510D1*
X301492D2*
X507251D1*
X532752D2*
X1306996D1*
X50301Y725007D2*
X1306996D1*
X18997Y720138D2*
X22152D1*
X45848D2*
X118530D1*
X141472D2*
X158530D1*
X181472D2*
X198530D1*
X221472D2*
X238530D1*
X261472D2*
X278530D1*
X301472D2*
X1306996D1*
X18997Y715269D2*
X113871D1*
X146122D2*
X153871D1*
X186122D2*
X193871D1*
X226122D2*
X233871D1*
X266122D2*
X273871D1*
X306122D2*
X1306996D1*
X18997Y710400D2*
X111596D1*
X148396D2*
X151596D1*
X188396D2*
X191596D1*
X228396D2*
X231596D1*
X268396D2*
X271596D1*
X308396D2*
X488178D1*
X495819D2*
X1306996D1*
X18997Y705531D2*
X110815D1*
X149188D2*
X150808D1*
X189188D2*
X190808D1*
X229188D2*
X230808D1*
X269188D2*
X270808D1*
X309188D2*
X478598D1*
X505399D2*
X1306996D1*
X18997Y700663D2*
X111312D1*
X148690D2*
X151312D1*
X188690D2*
X191312D1*
X228690D2*
X231312D1*
X268690D2*
X271312D1*
X308690D2*
X474927D1*
X509071D2*
X1306996D1*
X18997Y695794D2*
X113227D1*
X146776D2*
X153227D1*
X186776D2*
X193227D1*
X226776D2*
X233227D1*
X266776D2*
X273227D1*
X306776D2*
X473188D1*
X510808D2*
X1306996D1*
X18997Y690925D2*
X117192D1*
X142811D2*
X157192D1*
X182811D2*
X197192D1*
X222811D2*
X237192D1*
X262811D2*
X277192D1*
X302811D2*
X472836D1*
X511171D2*
X1306996D1*
X18997Y686056D2*
X473774D1*
X510223D2*
X1306996D1*
X18997Y681188D2*
X30591D1*
X53407D2*
X120140D1*
X139852D2*
X160140D1*
X179852D2*
X200140D1*
X219852D2*
X240140D1*
X259852D2*
X280140D1*
X299852D2*
X476244D1*
X507752D2*
X835092D1*
X859022D2*
X1306996D1*
X18997Y676319D2*
X25912D1*
X58094D2*
X114614D1*
X145379D2*
X154614D1*
X185379D2*
X194614D1*
X225379D2*
X234614D1*
X265379D2*
X274614D1*
X305379D2*
X481312D1*
X502684D2*
X830698D1*
X863416D2*
X1306996D1*
X18997Y671450D2*
X23618D1*
X60388D2*
X111948D1*
X148045D2*
X151948D1*
X188045D2*
X191948D1*
X228045D2*
X231948D1*
X268045D2*
X271948D1*
X308045D2*
X743969D1*
X766024D2*
X828549D1*
X865564D2*
X1306996D1*
X18997Y666581D2*
X22807D1*
X61190D2*
X110873D1*
X149129D2*
X150877D1*
X189129D2*
X190877D1*
X229129D2*
X230877D1*
X269129D2*
X270877D1*
X309129D2*
X739087D1*
X770916D2*
X827866D1*
X866259D2*
X1306996D1*
X18997Y661713D2*
X23304D1*
X60702D2*
X111098D1*
X148904D2*
X151098D1*
X188904D2*
X191098D1*
X228904D2*
X231098D1*
X268904D2*
X271098D1*
X308904D2*
X736694D1*
X773299D2*
X828461D1*
X865652D2*
X955122D1*
X972879D2*
X1306996D1*
X18997Y656844D2*
X25199D1*
X58797D2*
X112680D1*
X147323D2*
X152680D1*
X187323D2*
X192680D1*
X227323D2*
X232680D1*
X267323D2*
X272680D1*
X307323D2*
X735824D1*
X774178D2*
X830503D1*
X863622D2*
X949028D1*
X978963D2*
X1306996D1*
X18997Y651975D2*
X29135D1*
X54862D2*
X116088D1*
X143915D2*
X156088D1*
X183915D2*
X196088D1*
X223915D2*
X236088D1*
X263915D2*
X276088D1*
X303915D2*
X736244D1*
X773759D2*
X834682D1*
X859432D2*
X929663D1*
X981844D2*
X1306996D1*
X18997Y647106D2*
X124076D1*
X135927D2*
X164076D1*
X175927D2*
X204076D1*
X215927D2*
X244076D1*
X255927D2*
X284076D1*
X295927D2*
X738051D1*
X771951D2*
X923256D1*
X983075D2*
X1306996D1*
X18997Y642238D2*
X741840D1*
X768163D2*
X920259D1*
X982996D2*
X1306996D1*
X18997Y637369D2*
X752895D1*
X757098D2*
X918950D1*
X981571D2*
X1306996D1*
X18997Y632500D2*
X918969D1*
X978407D2*
X1306996D1*
X18997Y627631D2*
X920316D1*
X971424D2*
X1306996D1*
X18997Y622762D2*
X836450D1*
X857547D2*
X923364D1*
X952635D2*
X1306996D1*
X18997Y617894D2*
X831303D1*
X862684D2*
X929955D1*
X946043D2*
X1306996D1*
X18997Y613025D2*
X828793D1*
X865194D2*
X1306996D1*
X18997Y608156D2*
X827836D1*
X866160D2*
X1306996D1*
X18997Y603287D2*
X828168D1*
X865819D2*
X1306996D1*
X18997Y598419D2*
X117944D1*
X129432D2*
X829877D1*
X864110D2*
X1306996D1*
X18997Y593550D2*
X109819D1*
X137547D2*
X833500D1*
X860487D2*
X1306996D1*
X18997Y588681D2*
X41059D1*
X58944D2*
X106391D1*
X140984D2*
X842728D1*
X851259D2*
X1306996D1*
X18997Y583812D2*
X35004D1*
X64988D2*
X104789D1*
X142587D2*
X145322D1*
X162684D2*
X186518D1*
X207479D2*
X1306996D1*
X18997Y578944D2*
X32143D1*
X67860D2*
X104555D1*
X168885D2*
X181343D1*
X212664D2*
X1306996D1*
X18997Y574075D2*
X30923D1*
X69080D2*
X105619D1*
X171804D2*
X178812D1*
X215184D2*
X774720D1*
X785272D2*
X1035951D1*
X1056052D2*
X1214438D1*
X1237556D2*
X1306996D1*
X18997Y569206D2*
X31010D1*
X68983D2*
X108266D1*
X173064D2*
X177846D1*
X216160D2*
X766264D1*
X793728D2*
X1030531D1*
X1061463D2*
X1209839D1*
X1242167D2*
X1306996D1*
X18997Y564337D2*
X32446D1*
X67556D2*
X113735D1*
X173007D2*
X178168D1*
X215839D2*
X443500D1*
X458504D2*
X762768D1*
X797235D2*
X1027915D1*
X1064091D2*
X1207583D1*
X1244423D2*
X1306996D1*
X18997Y559469D2*
X35619D1*
X64373D2*
X136391D1*
X171610D2*
X179867D1*
X214139D2*
X436567D1*
X465428D2*
X761127D1*
X798875D2*
X1026860D1*
X1065135D2*
X1206811D1*
X1245194D2*
X1306996D1*
X18997Y554600D2*
X42660D1*
X57343D2*
X139507D1*
X168495D2*
X183461D1*
X210535D2*
X433412D1*
X468583D2*
X760854D1*
X799148D2*
X1027114D1*
X1064881D2*
X1207328D1*
X1244676D2*
X1306996D1*
X18997Y549731D2*
X146332D1*
X161668D2*
X192524D1*
X201483D2*
X432007D1*
X469999D2*
X761888D1*
X798114D2*
X1028735D1*
X1063270D2*
X1209262D1*
X1242743D2*
X1279155D1*
X1296844D2*
X1306996D1*
X18997Y544862D2*
X431928D1*
X470076D2*
X764476D1*
X795516D2*
X1032192D1*
X1059803D2*
X1213266D1*
X1238739D2*
X1273051D1*
X1302957D2*
X1306996D1*
X18997Y539993D2*
X433168D1*
X468836D2*
X769828D1*
X790164D2*
X1040463D1*
X1051531D2*
X1270160D1*
X18997Y535125D2*
X27504D1*
X50496D2*
X55512D1*
X78495D2*
X436059D1*
X465946D2*
X1268920D1*
X18997Y530256D2*
X22866D1*
X83133D2*
X442182D1*
X459823D2*
X1189457D1*
X1198543D2*
X1269008D1*
X18997Y525387D2*
X20600D1*
X85408D2*
X1180444D1*
X1207556D2*
X1270424D1*
X86190Y520518D2*
X1176860D1*
X1211140D2*
X1273579D1*
X1302420D2*
X1306996D1*
X85682Y515650D2*
X1175160D1*
X1212840D2*
X1280531D1*
X1295467D2*
X1306996D1*
X18997Y510781D2*
X22231D1*
X83768D2*
X1174839D1*
X1213152D2*
X1306996D1*
X18997Y505912D2*
X26206D1*
X51795D2*
X54202D1*
X79793D2*
X1042524D1*
X1059471D2*
X1146528D1*
X1163475D2*
X1175824D1*
X1231991D2*
X1306996D1*
X18997Y501043D2*
X1036196D1*
X1065799D2*
X1140199D1*
X1169803D2*
X1178354D1*
X1235867D2*
X1306996D1*
X18997Y496175D2*
X1033236D1*
X1068768D2*
X1137231D1*
X1172762D2*
X1183539D1*
X1237723D2*
X1306996D1*
X18997Y491306D2*
X78696D1*
X87303D2*
X1031948D1*
X1070056D2*
X1135942D1*
X1174051D2*
X1199819D1*
X1238182D2*
X1306996D1*
X18997Y486437D2*
X69496D1*
X96503D2*
X178051D1*
X195936D2*
X210883D1*
X223114D2*
X240883D1*
X253114D2*
X268051D1*
X285936D2*
X344056D1*
X361951D2*
X374056D1*
X391951D2*
X404056D1*
X421951D2*
X434056D1*
X451951D2*
X464056D1*
X481951D2*
X494056D1*
X511951D2*
X524056D1*
X541951D2*
X554056D1*
X571951D2*
X584056D1*
X601951D2*
X614056D1*
X631951D2*
X644056D1*
X661951D2*
X674056D1*
X691951D2*
X704056D1*
X721951D2*
X734056D1*
X751951D2*
X764056D1*
X781951D2*
X794056D1*
X811951D2*
X824056D1*
X841951D2*
X854056D1*
X871951D2*
X884056D1*
X901951D2*
X914056D1*
X931951D2*
X944056D1*
X961951D2*
X1031976D1*
X1070018D2*
X1135980D1*
X1174022D2*
X1200648D1*
X1237352D2*
X1306996D1*
X126720Y1011552D2*
X126458Y1009340D1*
X126024Y1007154D1*
X125419Y1005009D1*
X124647Y1002919D1*
X123714Y1000894D1*
X122625Y998950D1*
X121387Y997097D1*
X120008Y995346D1*
X118495Y993710D1*
X116858Y992197D1*
X115108Y990818D1*
X113255Y989580D1*
X111311Y988491D1*
X109286Y987558D1*
X107196Y986786D1*
X105051Y986181D1*
X102865Y985747D1*
X100652Y985484D1*
X98425Y985398D1*
X96198Y985484D1*
X93986Y985747D1*
X91799Y986181D1*
X89655Y986786D1*
X87564Y987558D1*
X85539Y988491D1*
X83596Y989580D1*
X81743Y990818D1*
X79992Y992197D1*
X78356Y993710D1*
X76686Y995545D1*
X74365Y994819D1*
X71467Y994361D1*
X68533D1*
X65635Y994819D1*
X62845Y995726D1*
X60231Y997058D1*
X57857Y998782D1*
X55782Y1000857D1*
X54058Y1003231D1*
X52726Y1005845D1*
X51819Y1008635D1*
X51361Y1011533D1*
Y1014467D1*
X51819Y1017365D1*
X52726Y1020155D1*
X54058Y1022769D1*
X55782Y1025143D1*
X57857Y1027218D1*
X60231Y1028942D1*
X62845Y1030274D1*
X65635Y1031181D1*
X68533Y1031639D1*
X71467D1*
X74365Y1031181D1*
X75717Y1030799D1*
X76843Y1032213D1*
X78356Y1033849D1*
X79992Y1035362D1*
X81743Y1036741D1*
X84302Y1038375D1*
X81743Y1040030D1*
X79992Y1041409D1*
X78356Y1042923D1*
X76843Y1044559D1*
X75463Y1046310D1*
X74226Y1048163D1*
X73136Y1050106D1*
X72203Y1052131D1*
X71432Y1054222D1*
X70827Y1056366D1*
X70392Y1058552D1*
X70130Y1060765D1*
X70043Y1062992D1*
X70130Y1065219D1*
X70392Y1067432D1*
X70827Y1069618D1*
X71432Y1071762D1*
X72203Y1073853D1*
X73136Y1075878D1*
X74226Y1077822D1*
X75463Y1079675D1*
X76843Y1081425D1*
X78356Y1083062D1*
X79992Y1084575D1*
X81743Y1085954D1*
X84302Y1087588D1*
X81743Y1089243D1*
X79992Y1090622D1*
X78356Y1092135D1*
X76843Y1093772D1*
X75463Y1095522D1*
X74226Y1097375D1*
X73136Y1099319D1*
X72203Y1101344D1*
X71432Y1103434D1*
X70827Y1105579D1*
X70392Y1107765D1*
X70130Y1109978D1*
X70043Y1112205D1*
X70130Y1114432D1*
X70392Y1116644D1*
X70827Y1118831D1*
X71432Y1120975D1*
X72203Y1123066D1*
X73136Y1125091D1*
X74226Y1127034D1*
X75463Y1128887D1*
X76843Y1130638D1*
X78356Y1132274D1*
X79992Y1133787D1*
X81743Y1135167D1*
X83596Y1136404D1*
X85539Y1137493D1*
X87564Y1138427D1*
X89655Y1139198D1*
X91799Y1139803D1*
X93986Y1140238D1*
X96198Y1140500D1*
X98425Y1140587D1*
X100652Y1140500D1*
X102865Y1140238D1*
X105051Y1139803D1*
X107196Y1139198D1*
X109286Y1138427D1*
X111311Y1137493D1*
X113255Y1136404D1*
X115108Y1135167D1*
X116858Y1133787D1*
X118495Y1132274D1*
X120008Y1130638D1*
X121387Y1128887D1*
X122625Y1127034D1*
X123714Y1125091D1*
X124647Y1123066D1*
X125419Y1120975D1*
X126024Y1118831D1*
X126458Y1116644D1*
X126720Y1114432D1*
X126807Y1112205D1*
X126720Y1109978D1*
X126458Y1107765D1*
X126024Y1105579D1*
X125419Y1103434D1*
X124647Y1101344D1*
X123714Y1099319D1*
X122625Y1097375D1*
X121387Y1095522D1*
X120008Y1093772D1*
X118495Y1092135D1*
X116858Y1090622D1*
X115108Y1089243D1*
X112549Y1087609D1*
X115108Y1085954D1*
X116858Y1084575D1*
X118495Y1083062D1*
X120008Y1081425D1*
X121387Y1079675D1*
X122625Y1077822D1*
X123714Y1075878D1*
X124647Y1073853D1*
X125419Y1071762D1*
X126024Y1069618D1*
X126458Y1067432D1*
X126720Y1065219D1*
X126807Y1062992D1*
X126720Y1060765D1*
X126458Y1058552D1*
X126024Y1056366D1*
X125419Y1054222D1*
X124647Y1052131D1*
X123714Y1050106D1*
X122625Y1048163D1*
X121387Y1046310D1*
X120008Y1044559D1*
X118495Y1042923D1*
X116858Y1041409D1*
X115108Y1040030D1*
X112549Y1038396D1*
X115108Y1036741D1*
X116858Y1035362D1*
X118495Y1033849D1*
X120008Y1032213D1*
X121387Y1030462D1*
X122625Y1028609D1*
X123714Y1026665D1*
X124647Y1024640D1*
X125419Y1022550D1*
X126024Y1020406D1*
X126458Y1018219D1*
X126720Y1016007D1*
X126807Y1013780D1*
X126720Y1011552D1*
X1307514Y1550324D2*
X1306289Y1547508D1*
X1305199Y1545564D1*
X1303962Y1543711D1*
X1302583Y1541961D1*
X1301070Y1540324D1*
X1299433Y1538811D1*
X1297682Y1537432D1*
X1295829Y1536194D1*
X1294136Y1535245D1*
X1295942Y1532769D1*
X1297274Y1530155D1*
X1298181Y1527365D1*
X1298639Y1524467D1*
Y1521533D1*
X1298181Y1518635D1*
X1297274Y1515845D1*
X1295942Y1513231D1*
X1294218Y1510857D1*
X1292143Y1508782D1*
X1289769Y1507058D1*
X1287155Y1505726D1*
X1284365Y1504819D1*
X1281467Y1504361D1*
X1278533D1*
X1275635Y1504819D1*
X1272845Y1505726D1*
X1270231Y1507058D1*
X1267857Y1508782D1*
X1265782Y1510857D1*
X1264058Y1513231D1*
X1262726Y1515845D1*
X1261819Y1518635D1*
X1261361Y1521533D1*
Y1524467D1*
X1261819Y1527365D1*
X1262726Y1530155D1*
X1264058Y1532769D1*
X1265782Y1535143D1*
X1266542Y1535965D1*
X1264318Y1537432D1*
X1262567Y1538811D1*
X1260930Y1540324D1*
X1259417Y1541961D1*
X1258038Y1543711D1*
X1256801Y1545564D1*
X1255711Y1547508D1*
X1254778Y1549533D1*
X1254007Y1551623D1*
X1253402Y1553768D1*
X1252967Y1555954D1*
X1252705Y1558167D1*
X1252618Y1560394D1*
X1252705Y1562621D1*
X1252967Y1564833D1*
X1253402Y1567020D1*
X1254007Y1569164D1*
X1254778Y1571255D1*
X1255711Y1573280D1*
X1256801Y1575223D1*
X1258038Y1577076D1*
X1259417Y1578827D1*
X1260930Y1580463D1*
X1262567Y1581976D1*
X1264318Y1583356D1*
X1266877Y1584990D1*
X1264318Y1586644D1*
X1262567Y1588024D1*
X1260930Y1589537D1*
X1259417Y1591173D1*
X1258038Y1592924D1*
X1256801Y1594777D1*
X1255711Y1596720D1*
X1254778Y1598745D1*
X1254007Y1600836D1*
X1253402Y1602980D1*
X1252967Y1605167D1*
X1252705Y1607379D1*
X1252618Y1609606D1*
X1252705Y1611833D1*
X1252967Y1614046D1*
X1253402Y1616232D1*
X1254007Y1618377D1*
X1254778Y1620467D1*
X1255711Y1622492D1*
X1256801Y1624436D1*
X1258038Y1626289D1*
X1259417Y1628039D1*
X1260930Y1629676D1*
X1262567Y1631189D1*
X1264318Y1632568D1*
X1266171Y1633806D1*
X1268114Y1634895D1*
X1270139Y1635828D1*
X1272230Y1636600D1*
X1274374Y1637205D1*
X1276560Y1637639D1*
X1278773Y1637902D1*
X1281000Y1637988D1*
X1283227Y1637902D1*
X1285440Y1637639D1*
X1287626Y1637205D1*
X1289770Y1636600D1*
X1291861Y1635828D1*
X1293886Y1634895D1*
X1295829Y1633806D1*
X1297682Y1632568D1*
X1299433Y1631189D1*
X1301070Y1629676D1*
X1302583Y1628039D1*
X1303962Y1626289D1*
X1305199Y1624436D1*
X1306289Y1622492D1*
X1307514Y1619676D1*
X1307500Y1674416D1*
X18497D1*
Y978528D1*
X20635Y979181D1*
X23533Y979639D1*
X26467D1*
X29365Y979181D1*
X32155Y978274D1*
X34769Y976942D1*
X37143Y975218D1*
X39218Y973143D1*
X40942Y970769D1*
X42274Y968155D1*
X43181Y965365D1*
X43639Y962467D1*
Y959533D1*
X43181Y956635D1*
X42274Y953845D1*
X40942Y951231D1*
X39218Y948857D1*
X37143Y946782D1*
X34769Y945058D1*
X32155Y943726D1*
X29365Y942819D1*
X26467Y942361D1*
X23533D1*
X20635Y942819D1*
X18486Y943490D1*
X18497Y745461D1*
X19782Y747143D1*
X21857Y749218D1*
X24231Y750942D1*
X26845Y752274D1*
X29635Y753181D1*
X32533Y753639D1*
X35467D1*
X38365Y753181D1*
X41155Y752274D1*
X43769Y750942D1*
X46143Y749218D1*
X48218Y747143D1*
X49942Y744769D1*
X51274Y742155D1*
X52181Y739365D1*
X52639Y736467D1*
Y733533D1*
X52181Y730635D1*
X51274Y727845D1*
X49942Y725231D1*
X48218Y722857D1*
X46143Y720782D1*
X43769Y719058D1*
X41155Y717726D1*
X38365Y716819D1*
X35467Y716361D1*
X32533D1*
X29635Y716819D1*
X26845Y717726D1*
X24231Y719058D1*
X21857Y720782D1*
X19782Y722857D1*
X18482Y724597D1*
X18497Y644416D1*
Y482500D1*
X66906D1*
X67874Y483990D1*
X69780Y486220D1*
X72010Y488126D1*
X74512Y489660D1*
X77222Y490782D1*
X80075Y491467D1*
X83000Y491697D1*
X85925Y491467D1*
X88778Y490782D1*
X91488Y489660D1*
X93990Y488126D1*
X96220Y486220D1*
X98126Y483990D1*
X99102Y482484D1*
X172550Y482500D1*
X174535Y484144D1*
X175919Y485068D1*
X177371Y485882D1*
X178883Y486579D1*
X180445Y487155D1*
X182046Y487606D1*
X183678Y487932D1*
X185332Y488127D1*
X186995Y488192D1*
X188657Y488127D1*
X190311Y487932D1*
X191944Y487606D1*
X193545Y487155D1*
X195106Y486579D1*
X196618Y485882D1*
X198071Y485068D1*
X199454Y484144D1*
X201434Y482491D1*
X203682Y482500D1*
X205919Y484071D1*
X207371Y484885D1*
X208883Y485581D1*
X210445Y486157D1*
X212046Y486609D1*
X213678Y486934D1*
X215332Y487130D1*
X216995Y487194D1*
X218657Y487130D1*
X220311Y486934D1*
X221944Y486609D1*
X223545Y486157D1*
X225106Y485581D1*
X226618Y484885D1*
X228071Y484071D1*
X230286Y482491D1*
X233682Y482500D1*
X235919Y484071D1*
X237371Y484885D1*
X238883Y485581D1*
X240445Y486157D1*
X242046Y486609D1*
X243678Y486934D1*
X245332Y487130D1*
X246995Y487194D1*
X248657Y487130D1*
X250311Y486934D1*
X251944Y486609D1*
X253545Y486157D1*
X255106Y485581D1*
X256618Y484885D1*
X258071Y484071D1*
X260286Y482491D1*
X262550Y482500D1*
X264535Y484144D1*
X265919Y485068D1*
X267371Y485882D1*
X268883Y486579D1*
X270445Y487155D1*
X272046Y487606D1*
X273678Y487932D1*
X275332Y488127D1*
X276995Y488192D1*
X278657Y488127D1*
X280311Y487932D1*
X281944Y487606D1*
X283545Y487155D1*
X285106Y486579D1*
X286618Y485882D1*
X288071Y485068D1*
X289454Y484144D1*
X291434Y482491D1*
X338546Y482500D1*
X340546Y484144D1*
X341929Y485068D1*
X343382Y485882D1*
X344894Y486579D1*
X346455Y487155D1*
X348056Y487606D1*
X349689Y487932D1*
X351343Y488127D1*
X353005Y488192D1*
X354668Y488127D1*
X356322Y487932D1*
X357954Y487606D1*
X359555Y487155D1*
X361117Y486579D1*
X362629Y485882D1*
X364081Y485068D1*
X365465Y484144D1*
X367445Y482491D1*
X368546Y482500D1*
X370546Y484144D1*
X371929Y485068D1*
X373382Y485882D1*
X374894Y486579D1*
X376455Y487155D1*
X378056Y487606D1*
X379689Y487932D1*
X381343Y488127D1*
X383005Y488192D1*
X384668Y488127D1*
X386322Y487932D1*
X387954Y487606D1*
X389555Y487155D1*
X391117Y486579D1*
X392629Y485882D1*
X394081Y485068D1*
X395465Y484144D1*
X397445Y482491D1*
X398546Y482500D1*
X400546Y484144D1*
X401929Y485068D1*
X403382Y485882D1*
X404894Y486579D1*
X406455Y487155D1*
X408056Y487606D1*
X409689Y487932D1*
X411343Y488127D1*
X413005Y488192D1*
X414668Y488127D1*
X416322Y487932D1*
X417954Y487606D1*
X419555Y487155D1*
X421117Y486579D1*
X422629Y485882D1*
X424081Y485068D1*
X425465Y484144D1*
X427445Y482491D1*
X428546Y482500D1*
X430546Y484144D1*
X431929Y485068D1*
X433382Y485882D1*
X434894Y486579D1*
X436455Y487155D1*
X438056Y487606D1*
X439689Y487932D1*
X441343Y488127D1*
X443005Y488192D1*
X444668Y488127D1*
X446322Y487932D1*
X447954Y487606D1*
X449555Y487155D1*
X451117Y486579D1*
X452629Y485882D1*
X454081Y485068D1*
X455465Y484144D1*
X457445Y482491D1*
X458546Y482500D1*
X460546Y484144D1*
X461929Y485068D1*
X463382Y485882D1*
X464894Y486579D1*
X466455Y487155D1*
X468056Y487606D1*
X469689Y487932D1*
X471343Y488127D1*
X473005Y488192D1*
X474668Y488127D1*
X476322Y487932D1*
X477954Y487606D1*
X479555Y487155D1*
X481117Y486579D1*
X482629Y485882D1*
X484081Y485068D1*
X485465Y484144D1*
X487445Y482491D1*
X488546Y482500D1*
X490546Y484144D1*
X491929Y485068D1*
X493382Y485882D1*
X494894Y486579D1*
X496455Y487155D1*
X498056Y487606D1*
X499689Y487932D1*
X501343Y488127D1*
X503005Y488192D1*
X504668Y488127D1*
X506322Y487932D1*
X507954Y487606D1*
X509555Y487155D1*
X511117Y486579D1*
X512629Y485882D1*
X514081Y485068D1*
X515465Y484144D1*
X517445Y482491D1*
X518546Y482500D1*
X520546Y484144D1*
X521929Y485068D1*
X523382Y485882D1*
X524894Y486579D1*
X526455Y487155D1*
X528056Y487606D1*
X529689Y487932D1*
X531343Y488127D1*
X533005Y488192D1*
X534668Y488127D1*
X536322Y487932D1*
X537954Y487606D1*
X539555Y487155D1*
X541117Y486579D1*
X542629Y485882D1*
X544081Y485068D1*
X545465Y484144D1*
X547445Y482491D1*
X548546Y482500D1*
X550546Y484144D1*
X551929Y485068D1*
X553382Y485882D1*
X554894Y486579D1*
X556455Y487155D1*
X558056Y487606D1*
X559689Y487932D1*
X561343Y488127D1*
X563005Y488192D1*
X564668Y488127D1*
X566322Y487932D1*
X567954Y487606D1*
X569555Y487155D1*
X571117Y486579D1*
X572629Y485882D1*
X574081Y485068D1*
X575465Y484144D1*
X577445Y482491D1*
X578546Y482500D1*
X580546Y484144D1*
X581929Y485068D1*
X583382Y485882D1*
X584894Y486579D1*
X586455Y487155D1*
X588056Y487606D1*
X589689Y487932D1*
X591343Y488127D1*
X593005Y488192D1*
X594668Y488127D1*
X596322Y487932D1*
X597954Y487606D1*
X599555Y487155D1*
X601117Y486579D1*
X602629Y485882D1*
X604081Y485068D1*
X605465Y484144D1*
X607445Y482491D1*
X608546Y482500D1*
X610546Y484144D1*
X611929Y485068D1*
X613382Y485882D1*
X614894Y486579D1*
X616455Y487155D1*
X618056Y487606D1*
X619689Y487932D1*
X621343Y488127D1*
X623005Y488192D1*
X624668Y488127D1*
X626322Y487932D1*
X627954Y487606D1*
X629555Y487155D1*
X631117Y486579D1*
X632629Y485882D1*
X634081Y485068D1*
X635465Y484144D1*
X637445Y482491D1*
X638546Y482500D1*
X640546Y484144D1*
X641929Y485068D1*
X643382Y485882D1*
X644894Y486579D1*
X646455Y487155D1*
X648056Y487606D1*
X649689Y487932D1*
X651343Y488127D1*
X653005Y488192D1*
X654668Y488127D1*
X656322Y487932D1*
X657954Y487606D1*
X659555Y487155D1*
X661117Y486579D1*
X662629Y485882D1*
X664081Y485068D1*
X665465Y484144D1*
X667445Y482491D1*
X668546Y482500D1*
X670546Y484144D1*
X671929Y485068D1*
X673382Y485882D1*
X674894Y486579D1*
X676455Y487155D1*
X678056Y487606D1*
X679689Y487932D1*
X681343Y488127D1*
X683005Y488192D1*
X684668Y488127D1*
X686322Y487932D1*
X687954Y487606D1*
X689555Y487155D1*
X691117Y486579D1*
X692629Y485882D1*
X694081Y485068D1*
X695465Y484144D1*
X697445Y482491D1*
X698546Y482500D1*
X700546Y484144D1*
X701929Y485068D1*
X703382Y485882D1*
X704894Y486579D1*
X706455Y487155D1*
X708056Y487606D1*
X709689Y487932D1*
X711343Y488127D1*
X713005Y488192D1*
X714668Y488127D1*
X716322Y487932D1*
X717954Y487606D1*
X719555Y487155D1*
X721117Y486579D1*
X722629Y485882D1*
X724081Y485068D1*
X725465Y484144D1*
X727445Y482491D1*
X728546Y482500D1*
X730546Y484144D1*
X731929Y485068D1*
X733382Y485882D1*
X734894Y486579D1*
X736455Y487155D1*
X738056Y487606D1*
X739689Y487932D1*
X741343Y488127D1*
X743005Y488192D1*
X744668Y488127D1*
X746322Y487932D1*
X747954Y487606D1*
X749555Y487155D1*
X751117Y486579D1*
X752629Y485882D1*
X754081Y485068D1*
X755465Y484144D1*
X757445Y482491D1*
X758546Y482500D1*
X760546Y484144D1*
X761929Y485068D1*
X763382Y485882D1*
X764894Y486579D1*
X766455Y487155D1*
X768056Y487606D1*
X769689Y487932D1*
X771343Y488127D1*
X773005Y488192D1*
X774668Y488127D1*
X776322Y487932D1*
X777954Y487606D1*
X779555Y487155D1*
X781117Y486579D1*
X782629Y485882D1*
X784081Y485068D1*
X785465Y484144D1*
X787445Y482491D1*
X788546Y482500D1*
X790546Y484144D1*
X791929Y485068D1*
X793382Y485882D1*
X794894Y486579D1*
X796455Y487155D1*
X798056Y487606D1*
X799689Y487932D1*
X801343Y488127D1*
X803005Y488192D1*
X804668Y488127D1*
X806322Y487932D1*
X807954Y487606D1*
X809555Y487155D1*
X811117Y486579D1*
X812629Y485882D1*
X814081Y485068D1*
X815465Y484144D1*
X817445Y482491D1*
X818546Y482500D1*
X820546Y484144D1*
X821929Y485068D1*
X823382Y485882D1*
X824894Y486579D1*
X826455Y487155D1*
X828056Y487606D1*
X829689Y487932D1*
X831343Y488127D1*
X833005Y488192D1*
X834668Y488127D1*
X836322Y487932D1*
X837954Y487606D1*
X839555Y487155D1*
X841117Y486579D1*
X842629Y485882D1*
X844081Y485068D1*
X845465Y484144D1*
X847445Y482491D1*
X848546Y482500D1*
X850546Y484144D1*
X851929Y485068D1*
X853382Y485882D1*
X854894Y486579D1*
X856455Y487155D1*
X858056Y487606D1*
X859689Y487932D1*
X861343Y488127D1*
X863005Y488192D1*
X864668Y488127D1*
X866322Y487932D1*
X867954Y487606D1*
X869555Y487155D1*
X871117Y486579D1*
X872629Y485882D1*
X874081Y485068D1*
X875465Y484144D1*
X877445Y482491D1*
X878546Y482500D1*
X880546Y484144D1*
X881929Y485068D1*
X883382Y485882D1*
X884894Y486579D1*
X886455Y487155D1*
X888056Y487606D1*
X889689Y487932D1*
X891343Y488127D1*
X893005Y488192D1*
X894668Y488127D1*
X896322Y487932D1*
X897954Y487606D1*
X899555Y487155D1*
X901117Y486579D1*
X902629Y485882D1*
X904081Y485068D1*
X905465Y484144D1*
X907445Y482491D1*
X908546Y482500D1*
X910546Y484144D1*
X911929Y485068D1*
X913382Y485882D1*
X914894Y486579D1*
X916455Y487155D1*
X918056Y487606D1*
X919689Y487932D1*
X921343Y488127D1*
X923005Y488192D1*
X924668Y488127D1*
X926322Y487932D1*
X927954Y487606D1*
X929555Y487155D1*
X931117Y486579D1*
X932629Y485882D1*
X934081Y485068D1*
X935465Y484144D1*
X937445Y482491D1*
X938546Y482500D1*
X940546Y484144D1*
X941929Y485068D1*
X943382Y485882D1*
X944894Y486579D1*
X946455Y487155D1*
X948056Y487606D1*
X949689Y487932D1*
X951343Y488127D1*
X953005Y488192D1*
X954668Y488127D1*
X956322Y487932D1*
X957954Y487606D1*
X959555Y487155D1*
X961117Y486579D1*
X962629Y485882D1*
X964081Y485068D1*
X965465Y484144D1*
X967445Y482491D1*
X1033469Y482500D1*
X1032819Y484635D1*
X1032361Y487533D1*
Y490467D1*
X1032819Y493365D1*
X1033726Y496155D1*
X1035058Y498769D1*
X1036782Y501143D1*
X1038857Y503218D1*
X1041231Y504942D1*
X1043845Y506274D1*
X1046635Y507181D1*
X1049533Y507639D1*
X1052467D1*
X1055365Y507181D1*
X1058155Y506274D1*
X1060769Y504942D1*
X1063143Y503218D1*
X1065218Y501143D1*
X1066942Y498769D1*
X1068274Y496155D1*
X1069181Y493365D1*
X1069639Y490467D1*
Y487533D1*
X1069181Y484635D1*
X1068510Y482486D1*
X1137472Y482500D1*
X1136819Y484635D1*
X1136361Y487533D1*
Y490467D1*
X1136819Y493365D1*
X1137726Y496155D1*
X1139058Y498769D1*
X1140782Y501143D1*
X1142857Y503218D1*
X1145231Y504942D1*
X1147845Y506274D1*
X1150635Y507181D1*
X1153533Y507639D1*
X1156467D1*
X1159365Y507181D1*
X1162155Y506274D1*
X1164769Y504942D1*
X1167143Y503218D1*
X1169218Y501143D1*
X1170942Y498769D1*
X1172274Y496155D1*
X1173181Y493365D1*
X1173639Y490467D1*
Y487533D1*
X1173181Y484635D1*
X1172510Y482486D1*
X1202902Y482500D1*
X1201726Y484845D1*
X1200819Y487635D1*
X1200361Y490533D1*
Y493467D1*
X1200478Y494463D1*
X1198365Y493819D1*
X1195467Y493361D1*
X1192533D1*
X1189635Y493819D1*
X1186845Y494726D1*
X1184231Y496058D1*
X1181857Y497782D1*
X1179782Y499857D1*
X1178058Y502231D1*
X1176726Y504845D1*
X1175819Y507635D1*
X1175361Y510533D1*
Y513467D1*
X1175819Y516365D1*
X1176726Y519155D1*
X1178058Y521769D1*
X1179782Y524143D1*
X1181857Y526218D1*
X1184231Y527942D1*
X1186845Y529274D1*
X1189635Y530181D1*
X1192533Y530639D1*
X1195467D1*
X1198365Y530181D1*
X1201155Y529274D1*
X1203769Y527942D1*
X1206143Y526218D1*
X1208218Y524143D1*
X1209942Y521769D1*
X1211274Y519155D1*
X1212181Y516365D1*
X1212639Y513467D1*
Y510533D1*
X1212522Y509537D1*
X1214635Y510181D1*
X1217533Y510639D1*
X1220467D1*
X1223365Y510181D1*
X1226155Y509274D1*
X1228769Y507942D1*
X1231143Y506218D1*
X1233218Y504143D1*
X1234942Y501769D1*
X1236274Y499155D1*
X1237181Y496365D1*
X1237639Y493467D1*
Y490533D1*
X1237181Y487635D1*
X1236274Y484845D1*
X1235085Y482486D1*
X1307500Y482500D1*
Y874833D1*
X1306289Y872114D1*
X1305199Y870171D1*
X1303962Y868318D1*
X1302583Y866567D1*
X1301070Y864930D1*
X1299433Y863417D1*
X1297682Y862038D1*
X1295829Y860801D1*
X1293886Y859711D1*
X1291861Y858778D1*
X1289770Y858007D1*
X1287626Y857402D1*
X1285440Y856967D1*
X1283227Y856705D1*
X1281000Y856618D1*
X1278773Y856705D1*
X1276560Y856967D1*
X1274374Y857402D1*
X1272230Y858007D1*
X1270139Y858778D1*
X1268114Y859711D1*
X1266171Y860801D1*
X1264318Y862038D1*
X1262567Y863417D1*
X1260930Y864930D1*
X1259417Y866567D1*
X1258038Y868318D1*
X1256801Y870171D1*
X1255711Y872114D1*
X1254778Y874139D1*
X1254007Y876230D1*
X1253402Y878374D1*
X1252967Y880560D1*
X1252705Y882773D1*
X1252618Y885000D1*
X1252705Y887227D1*
X1252967Y889440D1*
X1253402Y891626D1*
X1254007Y893770D1*
X1254778Y895861D1*
X1255711Y897886D1*
X1256801Y899829D1*
X1258038Y901682D1*
X1259417Y903433D1*
X1260930Y905070D1*
X1262567Y906583D1*
X1264318Y907962D1*
X1266171Y909199D1*
X1268114Y910289D1*
X1270139Y911222D1*
X1272230Y911993D1*
X1274374Y912598D1*
X1276560Y913033D1*
X1278773Y913295D1*
X1281000Y913382D1*
X1283227Y913295D1*
X1285440Y913033D1*
X1287626Y912598D1*
X1289770Y911993D1*
X1291861Y911222D1*
X1293886Y910289D1*
X1295829Y909199D1*
X1297682Y907962D1*
X1299433Y906583D1*
X1301070Y905070D1*
X1302583Y903433D1*
X1303962Y901682D1*
X1305199Y899829D1*
X1306289Y897886D1*
X1307514Y895070D1*
X1307500Y1195000D1*
Y1550224D1*
X148639Y823533D2*
X148181Y820635D1*
X147274Y817845D1*
X145942Y815231D1*
X144218Y812857D1*
X142143Y810782D1*
X139769Y809058D1*
X137155Y807726D1*
X134365Y806819D1*
X131467Y806361D1*
X128533D1*
X125635Y806819D1*
X122845Y807726D1*
X120231Y809058D1*
X117857Y810782D1*
X115782Y812857D1*
X114058Y815231D1*
X112726Y817845D1*
X111819Y820635D1*
X111361Y823533D1*
Y826467D1*
X111819Y829365D1*
X112726Y832155D1*
X114058Y834769D1*
X115782Y837143D1*
X117857Y839218D1*
X120231Y840942D1*
X122845Y842274D1*
X125635Y843181D1*
X128533Y843639D1*
X131467D1*
X134365Y843181D1*
X137155Y842274D1*
X139769Y840942D1*
X142143Y839218D1*
X144218Y837143D1*
X145942Y834769D1*
X147274Y832155D1*
X148181Y829365D1*
X148639Y826467D1*
Y823533D1*
X568639Y1159533D2*
X568181Y1156635D1*
X567274Y1153845D1*
X565942Y1151231D1*
X564218Y1148857D1*
X562143Y1146782D1*
X559769Y1145058D1*
X557155Y1143726D1*
X554365Y1142819D1*
X551467Y1142361D1*
X548533D1*
X545635Y1142819D1*
X542845Y1143726D1*
X540231Y1145058D1*
X537857Y1146782D1*
X535782Y1148857D1*
X534058Y1151231D1*
X532726Y1153845D1*
X531819Y1156635D1*
X531361Y1159533D1*
Y1162467D1*
X531819Y1165365D1*
X532726Y1168155D1*
X534058Y1170769D1*
X535782Y1173143D1*
X537857Y1175218D1*
X540231Y1176942D1*
X542845Y1178274D1*
X545635Y1179181D1*
X548533Y1179639D1*
X551467D1*
X554365Y1179181D1*
X557155Y1178274D1*
X559769Y1176942D1*
X562143Y1175218D1*
X564218Y1173143D1*
X565942Y1170769D1*
X567274Y1168155D1*
X568181Y1165365D1*
X568639Y1162467D1*
Y1159533D1*
X65639Y927533D2*
X65181Y924635D1*
X64274Y921845D1*
X62942Y919231D1*
X61218Y916857D1*
X59143Y914782D1*
X56769Y913058D1*
X54155Y911726D1*
X51365Y910819D1*
X48467Y910361D1*
X45533D1*
X42635Y910819D1*
X39845Y911726D1*
X37231Y913058D1*
X34857Y914782D1*
X32782Y916857D1*
X31058Y919231D1*
X29726Y921845D1*
X28819Y924635D1*
X28361Y927533D1*
Y930467D1*
X28819Y933365D1*
X29726Y936155D1*
X31058Y938769D1*
X32782Y941143D1*
X34857Y943218D1*
X37231Y944942D1*
X39845Y946274D1*
X42635Y947181D1*
X45533Y947639D1*
X48467D1*
X51365Y947181D1*
X54155Y946274D1*
X56769Y944942D1*
X59143Y943218D1*
X61218Y941143D1*
X62942Y938769D1*
X64274Y936155D1*
X65181Y933365D1*
X65639Y930467D1*
Y927533D1*
X85639Y518533D2*
X85181Y515635D1*
X84274Y512845D1*
X82942Y510231D1*
X81218Y507857D1*
X79143Y505782D1*
X76769Y504058D1*
X74155Y502726D1*
X71365Y501819D1*
X68467Y501361D1*
X65533D1*
X62635Y501819D1*
X59845Y502726D1*
X57231Y504058D1*
X54857Y505782D1*
X53004Y507617D1*
X51143Y505782D1*
X48769Y504058D1*
X46155Y502726D1*
X43365Y501819D1*
X40467Y501361D1*
X37533D1*
X34635Y501819D1*
X31845Y502726D1*
X29231Y504058D1*
X26857Y505782D1*
X24782Y507857D1*
X23058Y510231D1*
X21726Y512845D1*
X20819Y515635D1*
X20361Y518533D1*
Y521467D1*
X20819Y524365D1*
X21726Y527155D1*
X23058Y529769D1*
X24782Y532143D1*
X26857Y534218D1*
X29231Y535942D1*
X31845Y537274D1*
X34635Y538181D1*
X37533Y538639D1*
X40467D1*
X43365Y538181D1*
X46155Y537274D1*
X48769Y535942D1*
X51143Y534218D1*
X52996Y532383D1*
X54857Y534218D1*
X57231Y535942D1*
X59845Y537274D1*
X62635Y538181D1*
X65533Y538639D1*
X68467D1*
X71365Y538181D1*
X74155Y537274D1*
X76769Y535942D1*
X79143Y534218D1*
X81218Y532143D1*
X82942Y529769D1*
X84274Y527155D1*
X85181Y524365D1*
X85639Y521467D1*
Y518533D1*
X135337Y565867D2*
X133454Y564530D1*
X130840Y563198D1*
X128050Y562291D1*
X125152Y561833D1*
X122218D1*
X119320Y562291D1*
X116530Y563198D1*
X113916Y564530D1*
X111542Y566255D1*
X109467Y568329D1*
X107743Y570703D1*
X106411Y573318D1*
X105504Y576108D1*
X105046Y579005D1*
Y581940D1*
X105504Y584837D1*
X106411Y587627D1*
X107743Y590241D1*
X109467Y592615D1*
X111542Y594690D1*
X113916Y596415D1*
X116530Y597747D1*
X119320Y598654D1*
X122218Y599112D1*
X125152D1*
X128050Y598654D1*
X130840Y597747D1*
X133454Y596415D1*
X135828Y594690D1*
X137903Y592615D1*
X139627Y590241D1*
X140959Y587627D1*
X141866Y584837D1*
X142324Y581940D1*
X142337Y581613D1*
X144231Y582942D1*
X146845Y584274D1*
X149635Y585181D1*
X152533Y585639D1*
X155467D1*
X158365Y585181D1*
X161155Y584274D1*
X163769Y582942D1*
X166143Y581218D1*
X168218Y579143D1*
X169942Y576769D1*
X171274Y574155D1*
X172181Y571365D1*
X172639Y568467D1*
Y565533D1*
X172181Y562635D1*
X171274Y559845D1*
X169942Y557231D1*
X168218Y554857D1*
X166143Y552782D1*
X163769Y551058D1*
X161155Y549726D1*
X158365Y548819D1*
X155467Y548361D1*
X152533D1*
X149635Y548819D1*
X146845Y549726D1*
X144231Y551058D1*
X141857Y552782D1*
X139782Y554857D1*
X138058Y557231D1*
X136726Y559845D1*
X135819Y562635D1*
X135361Y565533D1*
X135348Y565860D1*
X719639Y1084533D2*
X719181Y1081635D1*
X718274Y1078845D1*
X716942Y1076231D1*
X715218Y1073857D1*
X713143Y1071782D1*
X710769Y1070058D1*
X708155Y1068726D1*
X705365Y1067819D1*
X702467Y1067361D1*
X699533D1*
X696635Y1067819D1*
X693845Y1068726D1*
X691231Y1070058D1*
X688857Y1071782D1*
X686782Y1073857D1*
X685058Y1076231D1*
X683726Y1078845D1*
X682819Y1081635D1*
X682361Y1084533D1*
Y1087467D1*
X682819Y1090365D1*
X683726Y1093155D1*
X685058Y1095769D1*
X686782Y1098143D1*
X688857Y1100218D1*
X691231Y1101942D1*
X693845Y1103274D1*
X696635Y1104181D1*
X699533Y1104639D1*
X702467D1*
X705365Y1104181D1*
X708155Y1103274D1*
X710769Y1101942D1*
X713143Y1100218D1*
X715218Y1098143D1*
X716942Y1095769D1*
X718274Y1093155D1*
X719181Y1090365D1*
X719639Y1087467D1*
Y1084533D1*
X538639Y742533D2*
X538181Y739635D1*
X537274Y736845D1*
X535942Y734231D1*
X534218Y731857D1*
X532143Y729782D1*
X529769Y728058D1*
X527155Y726726D1*
X524365Y725819D1*
X521467Y725361D1*
X518533D1*
X515635Y725819D1*
X512845Y726726D1*
X510231Y728058D1*
X507857Y729782D1*
X505782Y731857D1*
X504058Y734231D1*
X502726Y736845D1*
X501819Y739635D1*
X501487Y741469D1*
X499365Y740819D1*
X496467Y740361D1*
X493533D1*
X490635Y740819D1*
X487845Y741726D1*
X485231Y743058D1*
X482857Y744782D1*
X480782Y746857D1*
X479058Y749231D1*
X477726Y751845D1*
X476819Y754635D1*
X476361Y757533D1*
Y760467D1*
X476819Y763365D1*
X477726Y766155D1*
X479058Y768769D1*
X480782Y771143D1*
X482857Y773218D1*
X485231Y774942D1*
X487845Y776274D1*
X490635Y777181D1*
X493533Y777639D1*
X496467D1*
X499365Y777181D1*
X502155Y776274D1*
X504769Y774942D1*
X507143Y773218D1*
X509218Y771143D1*
X510942Y768769D1*
X512274Y766155D1*
X513181Y763365D1*
X513513Y761531D1*
X515635Y762181D1*
X518533Y762639D1*
X521467D1*
X524365Y762181D1*
X527155Y761274D1*
X529769Y759942D1*
X532143Y758218D1*
X534218Y756143D1*
X535942Y753769D1*
X537274Y751155D1*
X538181Y748365D1*
X538639Y745467D1*
Y742533D1*
X148639Y783533D2*
X148181Y780635D1*
X147274Y777845D1*
X145942Y775231D1*
X144218Y772857D1*
X142143Y770782D1*
X139769Y769058D1*
X137155Y767726D1*
X134365Y766819D1*
X131467Y766361D1*
X128533D1*
X125635Y766819D1*
X122845Y767726D1*
X120231Y769058D1*
X117857Y770782D1*
X115782Y772857D1*
X114058Y775231D1*
X112726Y777845D1*
X111819Y780635D1*
X111361Y783533D1*
Y786467D1*
X111819Y789365D1*
X112726Y792155D1*
X114058Y794769D1*
X115782Y797143D1*
X117857Y799218D1*
X120231Y800942D1*
X122845Y802274D1*
X125635Y803181D1*
X128533Y803639D1*
X131467D1*
X134365Y803181D1*
X137155Y802274D1*
X139769Y800942D1*
X142143Y799218D1*
X144218Y797143D1*
X145942Y794769D1*
X147274Y792155D1*
X148181Y789365D1*
X148639Y786467D1*
Y783533D1*
X109639Y912533D2*
X109181Y909635D1*
X108274Y906845D1*
X106942Y904231D1*
X105218Y901857D1*
X103143Y899782D1*
X100769Y898058D1*
X98155Y896726D1*
X95365Y895819D1*
X92467Y895361D1*
X89533D1*
X86635Y895819D1*
X83845Y896726D1*
X81231Y898058D1*
X78857Y899782D1*
X76782Y901857D1*
X75058Y904231D1*
X73726Y906845D1*
X72819Y909635D1*
X72361Y912533D1*
Y915467D1*
X72819Y918365D1*
X73726Y921155D1*
X75058Y923769D1*
X76782Y926143D1*
X78857Y928218D1*
X81231Y929942D1*
X83845Y931274D1*
X86635Y932181D1*
X89533Y932639D1*
X92467D1*
X95365Y932181D1*
X98155Y931274D1*
X100769Y929942D1*
X103143Y928218D1*
X105218Y926143D1*
X106942Y923769D1*
X108274Y921155D1*
X109181Y918365D1*
X109639Y915467D1*
Y912533D1*
X106639Y950533D2*
X106181Y947635D1*
X105274Y944845D1*
X103942Y942231D1*
X102218Y939857D1*
X100143Y937782D1*
X97769Y936058D1*
X95155Y934726D1*
X92365Y933819D1*
X89467Y933361D1*
X86533D1*
X83635Y933819D1*
X80845Y934726D1*
X78231Y936058D1*
X75857Y937782D1*
X73782Y939857D1*
X72058Y942231D1*
X70726Y944845D1*
X69819Y947635D1*
X69361Y950533D1*
Y953467D1*
X69819Y956365D1*
X70726Y959155D1*
X72058Y961769D1*
X73782Y964143D1*
X75857Y966218D1*
X78231Y967942D1*
X80845Y969274D1*
X83635Y970181D1*
X86533Y970639D1*
X89467D1*
X92365Y970181D1*
X95155Y969274D1*
X97769Y967942D1*
X100143Y966218D1*
X102218Y964143D1*
X103942Y961769D1*
X105274Y959155D1*
X106181Y956365D1*
X106639Y953467D1*
Y950533D1*
X1008639Y777533D2*
X1008181Y774635D1*
X1007274Y771845D1*
X1005942Y769231D1*
X1004218Y766857D1*
X1002143Y764782D1*
X999769Y763058D1*
X997155Y761726D1*
X994365Y760819D1*
X991467Y760361D1*
X988533D1*
X985635Y760819D1*
X982845Y761726D1*
X980231Y763058D1*
X977857Y764782D1*
X975782Y766857D1*
X974058Y769231D1*
X972726Y771845D1*
X971819Y774635D1*
X971361Y777533D1*
Y780467D1*
X971819Y783365D1*
X972726Y786155D1*
X974058Y788769D1*
X975782Y791143D1*
X977857Y793218D1*
X980231Y794942D1*
X982845Y796274D1*
X985635Y797181D1*
X988533Y797639D1*
X991467D1*
X994365Y797181D1*
X997155Y796274D1*
X999769Y794942D1*
X1002143Y793218D1*
X1004218Y791143D1*
X1005942Y788769D1*
X1007274Y786155D1*
X1008181Y783365D1*
X1008639Y780467D1*
Y777533D1*
X657639Y870533D2*
X657181Y867635D1*
X656274Y864845D1*
X654942Y862231D1*
X653218Y859857D1*
X651143Y857782D1*
X648769Y856058D1*
X646155Y854726D1*
X643365Y853819D1*
X640467Y853361D1*
X637533D1*
X634635Y853819D1*
X631845Y854726D1*
X629231Y856058D1*
X626857Y857782D1*
X624782Y859857D1*
X623058Y862231D1*
X621726Y864845D1*
X620819Y867635D1*
X620361Y870533D1*
Y873467D1*
X620819Y876365D1*
X621726Y879155D1*
X623058Y881769D1*
X624782Y884143D1*
X626857Y886218D1*
X629231Y887942D1*
X631845Y889274D1*
X634635Y890181D1*
X637533Y890639D1*
X640467D1*
X643365Y890181D1*
X646155Y889274D1*
X648769Y887942D1*
X651143Y886218D1*
X653218Y884143D1*
X654942Y881769D1*
X656274Y879155D1*
X657181Y876365D1*
X657639Y873467D1*
Y870533D1*
X143639Y956533D2*
X143181Y953635D1*
X142274Y950845D1*
X140942Y948231D1*
X139218Y945857D1*
X137143Y943782D1*
X134769Y942058D1*
X132155Y940726D1*
X129365Y939819D1*
X126467Y939361D1*
X123533D1*
X120635Y939819D1*
X117845Y940726D1*
X115231Y942058D1*
X112857Y943782D1*
X110782Y945857D1*
X109058Y948231D1*
X107726Y950845D1*
X106819Y953635D1*
X106361Y956533D1*
Y959467D1*
X106819Y962365D1*
X107726Y965155D1*
X109058Y967769D1*
X110782Y970143D1*
X112857Y972218D1*
X115231Y973942D1*
X117845Y975274D1*
X120635Y976181D1*
X123533Y976639D1*
X126467D1*
X129365Y976181D1*
X132155Y975274D1*
X134769Y973942D1*
X137143Y972218D1*
X139218Y970143D1*
X140942Y967769D1*
X142274Y965155D1*
X143181Y962365D1*
X143639Y959467D1*
Y956533D1*
X176639Y926533D2*
X176181Y923635D1*
X175274Y920845D1*
X173942Y918231D1*
X172218Y915857D1*
X170143Y913782D1*
X167769Y912058D1*
X165155Y910726D1*
X162365Y909819D1*
X159467Y909361D1*
X156533D1*
X153635Y909819D1*
X150845Y910726D1*
X148231Y912058D1*
X145857Y913782D1*
X143782Y915857D1*
X142058Y918231D1*
X140726Y920845D1*
X139819Y923635D1*
X139361Y926533D1*
Y929467D1*
X139819Y932365D1*
X140726Y935155D1*
X142058Y937769D1*
X143782Y940143D1*
X145857Y942218D1*
X148231Y943942D1*
X150845Y945274D1*
X153635Y946181D1*
X156533Y946639D1*
X159416Y946642D1*
X158819Y948635D1*
X158361Y951533D1*
Y954467D1*
X158819Y957365D1*
X159726Y960155D1*
X161058Y962769D1*
X162782Y965143D1*
X164857Y967218D1*
X167231Y968942D1*
X169845Y970274D1*
X172635Y971181D1*
X175533Y971639D1*
X178467D1*
X181365Y971181D1*
X184155Y970274D1*
X186769Y968942D1*
X189143Y967218D1*
X191218Y965143D1*
X192942Y962769D1*
X194274Y960155D1*
X195181Y957365D1*
X195639Y954467D1*
Y951533D1*
X195181Y948635D1*
X194274Y945845D1*
X192942Y943231D1*
X191218Y940857D1*
X189143Y938782D1*
X186769Y937058D1*
X184155Y935726D1*
X181365Y934819D1*
X178467Y934361D1*
X175584Y934358D1*
X176181Y932365D1*
X176639Y929467D1*
Y926533D1*
X269768Y1050745D2*
X268942Y1049231D1*
X267218Y1046857D1*
X265143Y1044782D1*
X262769Y1043058D1*
X260155Y1041726D1*
X257365Y1040819D1*
X254467Y1040361D1*
X251533D1*
X248635Y1040819D1*
X245845Y1041726D1*
X243231Y1043058D1*
X240857Y1044782D1*
X238782Y1046857D1*
X237058Y1049231D1*
X235726Y1051845D1*
X234819Y1054635D1*
X234361Y1057533D1*
Y1060467D1*
X234819Y1063365D1*
X235726Y1066155D1*
X237058Y1068769D1*
X238782Y1071143D1*
X240857Y1073218D1*
X243231Y1074942D1*
X245845Y1076274D1*
X248635Y1077181D1*
X251533Y1077639D1*
X254467D1*
X257365Y1077181D1*
X260155Y1076274D1*
X262769Y1074942D1*
X265143Y1073218D1*
X267218Y1071143D1*
X268942Y1068769D1*
X270223Y1066265D1*
X271058Y1067769D1*
X272782Y1070143D1*
X274857Y1072218D1*
X277231Y1073942D1*
X279845Y1075274D1*
X282635Y1076181D1*
X285533Y1076639D1*
X288467D1*
X291365Y1076181D1*
X294155Y1075274D1*
X296769Y1073942D1*
X299143Y1072218D1*
X301218Y1070143D1*
X302942Y1067769D1*
X304274Y1065155D1*
X305181Y1062365D1*
X305639Y1059467D1*
Y1056533D1*
X305181Y1053635D1*
X304274Y1050845D1*
X302942Y1048231D1*
X301218Y1045857D1*
X299143Y1043782D1*
X296769Y1042058D1*
X294155Y1040726D1*
X291365Y1039819D1*
X288467Y1039361D1*
X285533D1*
X282635Y1039819D1*
X279845Y1040726D1*
X277231Y1042058D1*
X274857Y1043782D1*
X272782Y1045857D1*
X271058Y1048231D1*
X269777Y1050735D1*
X307639Y983533D2*
X307181Y980635D1*
X306274Y977845D1*
X304942Y975231D1*
X303218Y972857D1*
X301143Y970782D1*
X298769Y969058D1*
X296155Y967726D1*
X293365Y966819D1*
X290467Y966361D1*
X287533D1*
X284635Y966819D1*
X281845Y967726D1*
X279231Y969058D1*
X276857Y970782D1*
X274782Y972857D1*
X273058Y975231D1*
X271726Y977845D1*
X270819Y980635D1*
X270361Y983533D1*
Y986467D1*
X270819Y989365D1*
X271726Y992155D1*
X273058Y994769D1*
X274782Y997143D1*
X276857Y999218D1*
X279231Y1000942D1*
X281845Y1002274D1*
X284635Y1003181D1*
X287533Y1003639D1*
X290467D1*
X293365Y1003181D1*
X296155Y1002274D1*
X298769Y1000942D1*
X301143Y999218D1*
X303218Y997143D1*
X304942Y994769D1*
X306274Y992155D1*
X307181Y989365D1*
X307639Y986467D1*
Y983533D1*
X308315Y1003315D2*
X306533Y1003361D1*
X303635Y1003819D1*
X300845Y1004726D1*
X298231Y1006058D1*
X295857Y1007782D1*
X293782Y1009857D1*
X292058Y1012231D1*
X290726Y1014845D1*
X289819Y1017635D1*
X289361Y1020533D1*
Y1023467D1*
X289819Y1026365D1*
X290726Y1029155D1*
X292058Y1031769D1*
X293782Y1034143D1*
X295857Y1036218D1*
X298231Y1037942D1*
X300845Y1039274D1*
X303635Y1040181D1*
X306533Y1040639D1*
X309467D1*
X312365Y1040181D1*
X315155Y1039274D1*
X317769Y1037942D1*
X320143Y1036218D1*
X322218Y1034143D1*
X323942Y1031769D1*
X325274Y1029155D1*
X326181Y1026365D1*
X326639Y1023467D1*
X326671Y1022693D1*
X328467Y1022639D1*
X331365Y1022181D1*
X334155Y1021274D1*
X336769Y1019942D1*
X339143Y1018218D1*
X341218Y1016143D1*
X342942Y1013769D1*
X344274Y1011155D1*
X345181Y1008365D1*
X345639Y1005467D1*
Y1002533D1*
X345364Y1000552D1*
X347365Y1000181D1*
X350155Y999274D1*
X352769Y997942D1*
X355143Y996218D1*
X357218Y994143D1*
X358942Y991769D1*
X360274Y989155D1*
X361181Y986365D1*
X361639Y983467D1*
Y980533D1*
X361181Y977635D1*
X360274Y974845D1*
X358942Y972231D1*
X357218Y969857D1*
X355143Y967782D1*
X352769Y966058D1*
X350155Y964726D1*
X347365Y963819D1*
X344467Y963361D1*
X341533D1*
X338635Y963819D1*
X335845Y964726D1*
X333231Y966058D1*
X330857Y967782D1*
X328782Y969857D1*
X327058Y972231D1*
X325726Y974845D1*
X324819Y977635D1*
X324361Y980533D1*
Y983467D1*
X324636Y985448D1*
X322635Y985819D1*
X319845Y986726D1*
X317231Y988058D1*
X314857Y989782D1*
X312782Y991857D1*
X311058Y994231D1*
X309726Y996845D1*
X308819Y999635D1*
X308361Y1002533D1*
X308329Y1003307D1*
X774639Y1222533D2*
X774181Y1219635D1*
X773274Y1216845D1*
X771942Y1214231D1*
X770218Y1211857D1*
X768143Y1209782D1*
X765769Y1208058D1*
X763155Y1206726D1*
X760365Y1205819D1*
X757467Y1205361D1*
X754533D1*
X751635Y1205819D1*
X748845Y1206726D1*
X746231Y1208058D1*
X743857Y1209782D1*
X741782Y1211857D1*
X740058Y1214231D1*
X738726Y1216845D1*
X737819Y1219635D1*
X737361Y1222533D1*
Y1225467D1*
X737819Y1228365D1*
X738726Y1231155D1*
X740058Y1233769D1*
X741782Y1236143D1*
X743857Y1238218D1*
X746231Y1239942D1*
X748845Y1241274D1*
X751635Y1242181D1*
X754533Y1242639D1*
X757467D1*
X760365Y1242181D1*
X763155Y1241274D1*
X765769Y1239942D1*
X768143Y1238218D1*
X770218Y1236143D1*
X771942Y1233769D1*
X773274Y1231155D1*
X774181Y1228365D1*
X774639Y1225467D1*
Y1222533D1*
X597639Y1066533D2*
X597181Y1063635D1*
X596274Y1060845D1*
X594942Y1058231D1*
X593218Y1055857D1*
X591143Y1053782D1*
X588769Y1052058D1*
X586155Y1050726D1*
X583365Y1049819D1*
X580467Y1049361D1*
X577533D1*
X574635Y1049819D1*
X571845Y1050726D1*
X569231Y1052058D1*
X566857Y1053782D1*
X564782Y1055857D1*
X563058Y1058231D1*
X561726Y1060845D1*
X560819Y1063635D1*
X560361Y1066533D1*
Y1069467D1*
X560819Y1072365D1*
X561726Y1075155D1*
X563058Y1077769D1*
X564782Y1080143D1*
X566857Y1082218D1*
X569231Y1083942D1*
X571845Y1085274D1*
X574635Y1086181D1*
X577533Y1086639D1*
X580467D1*
X583365Y1086181D1*
X586155Y1085274D1*
X588769Y1083942D1*
X591143Y1082218D1*
X593218Y1080143D1*
X594942Y1077769D1*
X596274Y1075155D1*
X597181Y1072365D1*
X597639Y1069467D1*
Y1066533D1*
X365639Y870533D2*
X365181Y867635D1*
X364274Y864845D1*
X362942Y862231D1*
X361218Y859857D1*
X359143Y857782D1*
X356769Y856058D1*
X354155Y854726D1*
X351365Y853819D1*
X348467Y853361D1*
X345533D1*
X342635Y853819D1*
X339845Y854726D1*
X337231Y856058D1*
X334857Y857782D1*
X332782Y859857D1*
X331058Y862231D1*
X329726Y864845D1*
X328819Y867635D1*
X328361Y870533D1*
Y873467D1*
X328819Y876365D1*
X329726Y879155D1*
X331058Y881769D1*
X332782Y884143D1*
X334857Y886218D1*
X337231Y887942D1*
X339845Y889274D1*
X342635Y890181D1*
X345533Y890639D1*
X348467D1*
X351365Y890181D1*
X354155Y889274D1*
X356769Y887942D1*
X359143Y886218D1*
X361218Y884143D1*
X362942Y881769D1*
X364274Y879155D1*
X365181Y876365D1*
X365639Y873467D1*
Y870533D1*
X982639Y643533D2*
X982181Y640635D1*
X981274Y637845D1*
X979942Y635231D1*
X978218Y632857D1*
X976143Y630782D1*
X973769Y629058D1*
X971155Y627726D1*
X968365Y626819D1*
X965467Y626361D1*
X962533D1*
X959635Y626819D1*
X956845Y627726D1*
X955476Y628360D1*
X954660Y626512D1*
X953126Y624010D1*
X951220Y621780D1*
X948990Y619874D1*
X946488Y618340D1*
X943778Y617218D1*
X940925Y616533D1*
X938000Y616303D1*
X935075Y616533D1*
X932222Y617218D1*
X929512Y618340D1*
X927010Y619874D1*
X924780Y621780D1*
X922874Y624010D1*
X921340Y626512D1*
X920218Y629222D1*
X919533Y632075D1*
X919303Y635000D1*
X919533Y637925D1*
X920218Y640778D1*
X921340Y643488D1*
X922874Y645990D1*
X924780Y648220D1*
X927010Y650126D1*
X929512Y651660D1*
X932222Y652782D1*
X935075Y653467D1*
X938000Y653697D1*
X940925Y653467D1*
X943778Y652782D1*
X946524Y651640D1*
X947340Y653488D1*
X948874Y655990D1*
X950780Y658220D1*
X953010Y660126D1*
X955512Y661660D1*
X958222Y662782D1*
X961075Y663467D1*
X964000Y663697D1*
X966925Y663467D1*
X969778Y662782D1*
X972488Y661660D1*
X974990Y660126D1*
X977220Y658220D1*
X979126Y655990D1*
X980660Y653488D1*
X981782Y650778D1*
X982467Y647925D1*
X982697Y645000D1*
X982639Y643533D1*
X68639Y570533D2*
X68181Y567635D1*
X67274Y564845D1*
X65942Y562231D1*
X64218Y559857D1*
X62143Y557782D1*
X59769Y556058D1*
X57155Y554726D1*
X54365Y553819D1*
X51467Y553361D1*
X48533D1*
X45635Y553819D1*
X42845Y554726D1*
X40231Y556058D1*
X37857Y557782D1*
X35782Y559857D1*
X34058Y562231D1*
X32726Y564845D1*
X31819Y567635D1*
X31361Y570533D1*
Y573467D1*
X31819Y576365D1*
X32726Y579155D1*
X34058Y581769D1*
X35782Y584143D1*
X37857Y586218D1*
X40231Y587942D1*
X42845Y589274D1*
X45635Y590181D1*
X48533Y590639D1*
X51467D1*
X54365Y590181D1*
X57155Y589274D1*
X59769Y587942D1*
X62143Y586218D1*
X64218Y584143D1*
X65942Y581769D1*
X67274Y579155D1*
X68181Y576365D1*
X68639Y573467D1*
Y570533D1*
X254706Y1543844D2*
X252932Y1541780D1*
X250701Y1539874D1*
X248199Y1538340D1*
X245490Y1537218D1*
X242636Y1536533D1*
X239711Y1536303D1*
X236786Y1536533D1*
X233933Y1537218D1*
X231223Y1538340D1*
X228722Y1539874D1*
X226491Y1541780D1*
X224585Y1544010D1*
X223051Y1546512D1*
X221929Y1549222D1*
X221244Y1552075D1*
X221014Y1555000D1*
X221244Y1557925D1*
X221929Y1560778D1*
X223051Y1563488D1*
X224585Y1565990D1*
X226491Y1568220D1*
X228722Y1570126D1*
X231223Y1571660D1*
X233933Y1572782D1*
X236786Y1573467D1*
X239711Y1573697D1*
X242636Y1573467D1*
X245490Y1572782D1*
X248199Y1571660D1*
X250701Y1570126D1*
X252932Y1568220D1*
X254706Y1566156D1*
X256491Y1568220D1*
X258722Y1570126D1*
X261223Y1571660D1*
X263933Y1572782D1*
X266786Y1573467D1*
X269711Y1573697D1*
X272636Y1573467D1*
X275490Y1572782D1*
X278199Y1571660D1*
X280701Y1570126D1*
X282932Y1568220D1*
X284837Y1565990D1*
X286371Y1563488D1*
X287493Y1560778D1*
X288178Y1557925D1*
X288408Y1555000D1*
X288178Y1552075D1*
X287493Y1549222D1*
X286371Y1546512D1*
X284837Y1544010D1*
X282932Y1541780D1*
X280701Y1539874D1*
X278199Y1538340D1*
X275490Y1537218D1*
X272636Y1536533D1*
X269711Y1536303D1*
X266786Y1536533D1*
X263933Y1537218D1*
X261223Y1538340D1*
X258722Y1539874D1*
X256491Y1541780D1*
X254717Y1543844D1*
X148639Y743533D2*
X148181Y740635D1*
X147274Y737845D1*
X145942Y735231D1*
X144218Y732857D1*
X142143Y730782D1*
X139769Y729058D1*
X137155Y727726D1*
X134365Y726819D1*
X131467Y726361D1*
X128533D1*
X125635Y726819D1*
X122845Y727726D1*
X120231Y729058D1*
X117857Y730782D1*
X115782Y732857D1*
X114058Y735231D1*
X112726Y737845D1*
X111819Y740635D1*
X111361Y743533D1*
Y746467D1*
X111819Y749365D1*
X112726Y752155D1*
X114058Y754769D1*
X115782Y757143D1*
X117857Y759218D1*
X120231Y760942D1*
X122845Y762274D1*
X125635Y763181D1*
X128533Y763639D1*
X131467D1*
X134365Y763181D1*
X137155Y762274D1*
X139769Y760942D1*
X142143Y759218D1*
X144218Y757143D1*
X145942Y754769D1*
X147274Y752155D1*
X148181Y749365D1*
X148639Y746467D1*
Y743533D1*
X681639Y1159533D2*
X681181Y1156635D1*
X680274Y1153845D1*
X678942Y1151231D1*
X677218Y1148857D1*
X675143Y1146782D1*
X672769Y1145058D1*
X670155Y1143726D1*
X667365Y1142819D1*
X664467Y1142361D1*
X661533D1*
X658635Y1142819D1*
X655845Y1143726D1*
X653231Y1145058D1*
X650857Y1146782D1*
X648782Y1148857D1*
X647058Y1151231D1*
X645726Y1153845D1*
X644819Y1156635D1*
X644361Y1159533D1*
Y1162467D1*
X644819Y1165365D1*
X645726Y1168155D1*
X647058Y1170769D1*
X648782Y1173143D1*
X650857Y1175218D1*
X653231Y1176942D1*
X655845Y1178274D1*
X658635Y1179181D1*
X661533Y1179639D1*
X664467D1*
X667365Y1179181D1*
X670155Y1178274D1*
X672769Y1176942D1*
X675143Y1175218D1*
X677218Y1173143D1*
X678942Y1170769D1*
X680274Y1168155D1*
X681181Y1165365D1*
X681639Y1162467D1*
Y1159533D1*
X278639Y1345528D2*
X278181Y1342630D1*
X277274Y1339840D1*
X275942Y1337226D1*
X274218Y1334852D1*
X272143Y1332777D1*
X269769Y1331052D1*
X267155Y1329720D1*
X264365Y1328814D1*
X261467Y1328356D1*
X258533D1*
X255635Y1328814D1*
X252845Y1329720D1*
X250231Y1331052D1*
X247857Y1332777D1*
X245782Y1334852D1*
X244058Y1337226D1*
X242726Y1339840D1*
X241819Y1342630D1*
X241361Y1345528D1*
Y1348462D1*
X241819Y1351360D1*
X242726Y1354150D1*
X244058Y1356764D1*
X245782Y1359138D1*
X247857Y1361213D1*
X250231Y1362937D1*
X252845Y1364269D1*
X255635Y1365176D1*
X258533Y1365634D1*
X261467D1*
X264365Y1365176D1*
X267155Y1364269D1*
X269769Y1362937D1*
X272143Y1361213D1*
X274218Y1359138D1*
X275942Y1356764D1*
X277274Y1354150D1*
X278181Y1351360D1*
X278639Y1348462D1*
Y1345528D1*
X657639Y1119533D2*
X657181Y1116635D1*
X656274Y1113845D1*
X654942Y1111231D1*
X653218Y1108857D1*
X651143Y1106782D1*
X648769Y1105058D1*
X646155Y1103726D1*
X643365Y1102819D1*
X640467Y1102361D1*
X637533D1*
X634635Y1102819D1*
X631845Y1103726D1*
X629231Y1105058D1*
X626857Y1106782D1*
X624782Y1108857D1*
X623058Y1111231D1*
X621726Y1113845D1*
X620819Y1116635D1*
X620361Y1119533D1*
Y1122467D1*
X620819Y1125365D1*
X621726Y1128155D1*
X623058Y1130769D1*
X624782Y1133143D1*
X626857Y1135218D1*
X629231Y1136942D1*
X631845Y1138274D1*
X634635Y1139181D1*
X637533Y1139639D1*
X640467D1*
X643365Y1139181D1*
X646155Y1138274D1*
X648769Y1136942D1*
X651143Y1135218D1*
X653218Y1133143D1*
X654942Y1130769D1*
X656274Y1128155D1*
X657181Y1125365D1*
X657639Y1122467D1*
Y1119533D1*
X1125639Y879533D2*
X1125181Y876635D1*
X1124274Y873845D1*
X1122942Y871231D1*
X1121218Y868857D1*
X1119143Y866782D1*
X1116769Y865058D1*
X1114155Y863726D1*
X1111365Y862819D1*
X1108467Y862361D1*
X1105533D1*
X1102635Y862819D1*
X1099845Y863726D1*
X1097231Y865058D1*
X1094857Y866782D1*
X1092782Y868857D1*
X1091058Y871231D1*
X1089726Y873845D1*
X1088819Y876635D1*
X1088361Y879533D1*
Y882467D1*
X1088819Y885365D1*
X1089726Y888155D1*
X1091058Y890769D1*
X1092782Y893143D1*
X1094857Y895218D1*
X1097231Y896942D1*
X1099845Y898274D1*
X1102635Y899181D1*
X1105533Y899639D1*
X1108467D1*
X1111365Y899181D1*
X1114155Y898274D1*
X1116769Y896942D1*
X1119143Y895218D1*
X1121218Y893143D1*
X1122942Y890769D1*
X1124274Y888155D1*
X1125181Y885365D1*
X1125639Y882467D1*
Y879533D1*
X215639Y566533D2*
X215181Y563635D1*
X214274Y560845D1*
X212942Y558231D1*
X211218Y555857D1*
X209143Y553782D1*
X206769Y552058D1*
X204155Y550726D1*
X201365Y549819D1*
X198467Y549361D1*
X195533D1*
X192635Y549819D1*
X189845Y550726D1*
X187231Y552058D1*
X184857Y553782D1*
X182782Y555857D1*
X181058Y558231D1*
X179726Y560845D1*
X178819Y563635D1*
X178361Y566533D1*
Y569467D1*
X178819Y572365D1*
X179726Y575155D1*
X181058Y577769D1*
X182782Y580143D1*
X184857Y582218D1*
X187231Y583942D1*
X189845Y585274D1*
X192635Y586181D1*
X195533Y586639D1*
X198467D1*
X201365Y586181D1*
X204155Y585274D1*
X206769Y583942D1*
X209143Y582218D1*
X211218Y580143D1*
X212942Y577769D1*
X214274Y575155D1*
X215181Y572365D1*
X215639Y569467D1*
Y566533D1*
X148639Y703533D2*
X148181Y700635D1*
X147274Y697845D1*
X145942Y695231D1*
X144218Y692857D1*
X142143Y690782D1*
X139769Y689058D1*
X137155Y687726D1*
X134365Y686819D1*
X131467Y686361D1*
X128533D1*
X125635Y686819D1*
X122845Y687726D1*
X120231Y689058D1*
X117857Y690782D1*
X115782Y692857D1*
X114058Y695231D1*
X112726Y697845D1*
X111819Y700635D1*
X111361Y703533D1*
Y706467D1*
X111819Y709365D1*
X112726Y712155D1*
X114058Y714769D1*
X115782Y717143D1*
X117857Y719218D1*
X120231Y720942D1*
X122845Y722274D1*
X125635Y723181D1*
X128533Y723639D1*
X131467D1*
X134365Y723181D1*
X137155Y722274D1*
X139769Y720942D1*
X142143Y719218D1*
X144218Y717143D1*
X145942Y714769D1*
X147274Y712155D1*
X148181Y709365D1*
X148639Y706467D1*
Y703533D1*
Y663533D2*
X148181Y660635D1*
X147274Y657845D1*
X145942Y655231D1*
X144218Y652857D1*
X142143Y650782D1*
X139769Y649058D1*
X137155Y647726D1*
X134365Y646819D1*
X131467Y646361D1*
X128533D1*
X125635Y646819D1*
X122845Y647726D1*
X120231Y649058D1*
X117857Y650782D1*
X115782Y652857D1*
X114058Y655231D1*
X112726Y657845D1*
X111819Y660635D1*
X111361Y663533D1*
Y666467D1*
X111819Y669365D1*
X112726Y672155D1*
X114058Y674769D1*
X115782Y677143D1*
X117857Y679218D1*
X120231Y680942D1*
X122845Y682274D1*
X125635Y683181D1*
X128533Y683639D1*
X131467D1*
X134365Y683181D1*
X137155Y682274D1*
X139769Y680942D1*
X142143Y679218D1*
X144218Y677143D1*
X145942Y674769D1*
X147274Y672155D1*
X148181Y669365D1*
X148639Y666467D1*
Y663533D1*
X188639Y823533D2*
X188181Y820635D1*
X187274Y817845D1*
X185942Y815231D1*
X184218Y812857D1*
X182143Y810782D1*
X179769Y809058D1*
X177155Y807726D1*
X174365Y806819D1*
X171467Y806361D1*
X168533D1*
X165635Y806819D1*
X162845Y807726D1*
X160231Y809058D1*
X157857Y810782D1*
X155782Y812857D1*
X154058Y815231D1*
X152726Y817845D1*
X151819Y820635D1*
X151361Y823533D1*
Y826467D1*
X151819Y829365D1*
X152726Y832155D1*
X154058Y834769D1*
X155782Y837143D1*
X157857Y839218D1*
X160231Y840942D1*
X162845Y842274D1*
X165635Y843181D1*
X168533Y843639D1*
X171467D1*
X174365Y843181D1*
X177155Y842274D1*
X179769Y840942D1*
X182143Y839218D1*
X184218Y837143D1*
X185942Y834769D1*
X187274Y832155D1*
X188181Y829365D1*
X188639Y826467D1*
Y823533D1*
Y783533D2*
X188181Y780635D1*
X187274Y777845D1*
X185942Y775231D1*
X184218Y772857D1*
X182143Y770782D1*
X179769Y769058D1*
X177155Y767726D1*
X174365Y766819D1*
X171467Y766361D1*
X168533D1*
X165635Y766819D1*
X162845Y767726D1*
X160231Y769058D1*
X157857Y770782D1*
X155782Y772857D1*
X154058Y775231D1*
X152726Y777845D1*
X151819Y780635D1*
X151361Y783533D1*
Y786467D1*
X151819Y789365D1*
X152726Y792155D1*
X154058Y794769D1*
X155782Y797143D1*
X157857Y799218D1*
X160231Y800942D1*
X162845Y802274D1*
X165635Y803181D1*
X168533Y803639D1*
X171467D1*
X174365Y803181D1*
X177155Y802274D1*
X179769Y800942D1*
X182143Y799218D1*
X184218Y797143D1*
X185942Y794769D1*
X187274Y792155D1*
X188181Y789365D1*
X188639Y786467D1*
Y783533D1*
Y743533D2*
X188181Y740635D1*
X187274Y737845D1*
X185942Y735231D1*
X184218Y732857D1*
X182143Y730782D1*
X179769Y729058D1*
X177155Y727726D1*
X174365Y726819D1*
X171467Y726361D1*
X168533D1*
X165635Y726819D1*
X162845Y727726D1*
X160231Y729058D1*
X157857Y730782D1*
X155782Y732857D1*
X154058Y735231D1*
X152726Y737845D1*
X151819Y740635D1*
X151361Y743533D1*
Y746467D1*
X151819Y749365D1*
X152726Y752155D1*
X154058Y754769D1*
X155782Y757143D1*
X157857Y759218D1*
X160231Y760942D1*
X162845Y762274D1*
X165635Y763181D1*
X168533Y763639D1*
X171467D1*
X174365Y763181D1*
X177155Y762274D1*
X179769Y760942D1*
X182143Y759218D1*
X184218Y757143D1*
X185942Y754769D1*
X187274Y752155D1*
X188181Y749365D1*
X188639Y746467D1*
Y743533D1*
Y703533D2*
X188181Y700635D1*
X187274Y697845D1*
X185942Y695231D1*
X184218Y692857D1*
X182143Y690782D1*
X179769Y689058D1*
X177155Y687726D1*
X174365Y686819D1*
X171467Y686361D1*
X168533D1*
X165635Y686819D1*
X162845Y687726D1*
X160231Y689058D1*
X157857Y690782D1*
X155782Y692857D1*
X154058Y695231D1*
X152726Y697845D1*
X151819Y700635D1*
X151361Y703533D1*
Y706467D1*
X151819Y709365D1*
X152726Y712155D1*
X154058Y714769D1*
X155782Y717143D1*
X157857Y719218D1*
X160231Y720942D1*
X162845Y722274D1*
X165635Y723181D1*
X168533Y723639D1*
X171467D1*
X174365Y723181D1*
X177155Y722274D1*
X179769Y720942D1*
X182143Y719218D1*
X184218Y717143D1*
X185942Y714769D1*
X187274Y712155D1*
X188181Y709365D1*
X188639Y706467D1*
Y703533D1*
X194636Y1284530D2*
X194178Y1281633D1*
X193272Y1278843D1*
X191940Y1276228D1*
X190215Y1273854D1*
X188140Y1271780D1*
X185766Y1270055D1*
X183152Y1268723D1*
X180362Y1267816D1*
X177465Y1267358D1*
X174530D1*
X171633Y1267816D1*
X168843Y1268723D1*
X166228Y1270055D1*
X163854Y1271780D1*
X161780Y1273854D1*
X160055Y1276228D1*
X158723Y1278843D1*
X157816Y1281633D1*
X157358Y1284530D1*
Y1287465D1*
X157816Y1290362D1*
X158723Y1293152D1*
X160055Y1295766D1*
X161780Y1298140D1*
X163854Y1300215D1*
X166228Y1301940D1*
X168843Y1303272D1*
X171633Y1304178D1*
X174530Y1304636D1*
X177465D1*
X180362Y1304178D1*
X183152Y1303272D1*
X185766Y1301940D1*
X188140Y1300215D1*
X190215Y1298140D1*
X191940Y1295766D1*
X193272Y1293152D1*
X194178Y1290362D1*
X194636Y1287465D1*
Y1284530D1*
X366644Y1312535D2*
X366186Y1309638D1*
X366091Y1309301D1*
X368772Y1307937D1*
X371146Y1306213D1*
X373220Y1304138D1*
X374945Y1301764D1*
X376277Y1299150D1*
X377184Y1296360D1*
X377642Y1293462D1*
Y1290528D1*
X377184Y1287630D1*
X376277Y1284840D1*
X374945Y1282226D1*
X373220Y1279852D1*
X371146Y1277777D1*
X368772Y1276052D1*
X366157Y1274720D1*
X365840Y1274604D1*
X366472Y1271928D1*
X366702Y1269003D1*
X366472Y1266077D1*
X365787Y1263224D1*
X364665Y1260514D1*
X363131Y1258013D1*
X361226Y1255782D1*
X358995Y1253877D1*
X356493Y1252343D1*
X353783Y1251220D1*
X350930Y1250535D1*
X348005Y1250306D1*
X345080Y1250535D1*
X342227Y1251220D1*
X339517Y1252343D1*
X337016Y1253877D1*
X334785Y1255782D1*
X332879Y1258013D1*
X331345Y1260514D1*
X330223Y1263224D1*
X329538Y1266077D1*
X329308Y1269003D1*
X329538Y1271928D1*
X330223Y1274781D1*
X331345Y1277491D1*
X332879Y1279992D1*
X334785Y1282223D1*
X337016Y1284129D1*
X339517Y1285663D1*
X341168Y1286394D1*
X340535Y1289070D1*
X340306Y1291995D1*
X340535Y1294920D1*
X340917Y1296697D1*
X338236Y1298060D1*
X335862Y1299785D1*
X333787Y1301860D1*
X332063Y1304234D1*
X330731Y1306848D1*
X329824Y1309638D1*
X329366Y1312535D1*
Y1315470D1*
X329824Y1318367D1*
X330731Y1321157D1*
X332063Y1323772D1*
X333787Y1326146D1*
X335862Y1328220D1*
X338236Y1329945D1*
X340850Y1331277D1*
X343640Y1332184D1*
X346538Y1332642D1*
X349472D1*
X352370Y1332184D1*
X355160Y1331277D1*
X357774Y1329945D1*
X360148Y1328220D1*
X362223Y1326146D1*
X363948Y1323772D1*
X365280Y1321157D1*
X366186Y1318367D1*
X366644Y1315470D1*
Y1312535D1*
X1180639Y1476533D2*
X1180181Y1473635D1*
X1179274Y1470845D1*
X1177942Y1468231D1*
X1176218Y1465857D1*
X1174143Y1463782D1*
X1171769Y1462058D1*
X1169155Y1460726D1*
X1166365Y1459819D1*
X1163467Y1459361D1*
X1160533D1*
X1157635Y1459819D1*
X1154845Y1460726D1*
X1152231Y1462058D1*
X1149857Y1463782D1*
X1147782Y1465857D1*
X1146058Y1468231D1*
X1144726Y1470845D1*
X1143819Y1473635D1*
X1143361Y1476533D1*
Y1479467D1*
X1143819Y1482365D1*
X1144726Y1485155D1*
X1146058Y1487769D1*
X1147782Y1490143D1*
X1149857Y1492218D1*
X1152231Y1493942D1*
X1154845Y1495274D1*
X1157635Y1496181D1*
X1160533Y1496639D1*
X1163467D1*
X1166365Y1496181D1*
X1169155Y1495274D1*
X1171769Y1493942D1*
X1174143Y1492218D1*
X1176218Y1490143D1*
X1177942Y1487769D1*
X1179274Y1485155D1*
X1180181Y1482365D1*
X1180639Y1479467D1*
Y1476533D1*
X611639Y831533D2*
X611181Y828635D1*
X610274Y825845D1*
X608942Y823231D1*
X607218Y820857D1*
X605143Y818782D1*
X602769Y817058D1*
X600155Y815726D1*
X597365Y814819D1*
X594467Y814361D1*
X591533D1*
X588635Y814819D1*
X585845Y815726D1*
X583231Y817058D1*
X580857Y818782D1*
X578782Y820857D1*
X577058Y823231D1*
X575726Y825845D1*
X574819Y828635D1*
X574361Y831533D1*
Y834467D1*
X574819Y837365D1*
X575726Y840155D1*
X577058Y842769D1*
X578782Y845143D1*
X580857Y847218D1*
X583231Y848942D1*
X585845Y850274D1*
X588635Y851181D1*
X591533Y851639D1*
X594467D1*
X597365Y851181D1*
X600155Y850274D1*
X602769Y848942D1*
X605143Y847218D1*
X607218Y845143D1*
X608942Y842769D1*
X610274Y840155D1*
X611181Y837365D1*
X611639Y834467D1*
Y831533D1*
X128639Y1383533D2*
X128181Y1380635D1*
X127274Y1377845D1*
X125942Y1375231D1*
X124218Y1372857D1*
X122143Y1370782D1*
X119769Y1369058D1*
X117155Y1367726D1*
X114365Y1366819D1*
X111467Y1366361D1*
X108533D1*
X105635Y1366819D1*
X102845Y1367726D1*
X100231Y1369058D1*
X97857Y1370782D1*
X95782Y1372857D1*
X94058Y1375231D1*
X92726Y1377845D1*
X91819Y1380635D1*
X91361Y1383533D1*
Y1386467D1*
X91819Y1389365D1*
X92726Y1392155D1*
X94058Y1394769D1*
X95782Y1397143D1*
X97857Y1399218D1*
X100231Y1400942D1*
X102845Y1402274D1*
X105635Y1403181D1*
X108533Y1403639D1*
X111467D1*
X114365Y1403181D1*
X117155Y1402274D1*
X119769Y1400942D1*
X122143Y1399218D1*
X124218Y1397143D1*
X125942Y1394769D1*
X127274Y1392155D1*
X128181Y1389365D1*
X128639Y1386467D1*
Y1383533D1*
X1008639Y1312535D2*
X1008291Y1310194D1*
X1011157Y1309269D1*
X1013772Y1307937D1*
X1016146Y1306213D1*
X1018220Y1304138D1*
X1019945Y1301764D1*
X1021277Y1299150D1*
X1022184Y1296360D1*
X1022642Y1293462D1*
Y1290528D1*
X1022184Y1287630D1*
X1021277Y1284840D1*
X1019945Y1282226D1*
X1018220Y1279852D1*
X1016146Y1277777D1*
X1013772Y1276052D1*
X1011157Y1274720D1*
X1008367Y1273814D1*
X1005470Y1273356D1*
X1002535D1*
X999638Y1273814D1*
X996848Y1274720D1*
X994234Y1276052D1*
X992008Y1277660D1*
X989769Y1276052D1*
X987155Y1274720D1*
X984365Y1273814D1*
X981467Y1273356D1*
X978533D1*
X975635Y1273814D1*
X972845Y1274720D1*
X970231Y1276052D1*
X967857Y1277777D1*
X965782Y1279852D1*
X964058Y1282226D1*
X962726Y1284840D1*
X961819Y1287630D1*
X961361Y1290528D1*
Y1293462D1*
X961819Y1296360D1*
X962726Y1299150D1*
X964058Y1301764D1*
X965782Y1304138D1*
X967857Y1306213D1*
X970231Y1307937D1*
X972017Y1308887D1*
X971533Y1311077D1*
X971303Y1314003D1*
X971533Y1316928D1*
X972218Y1319781D1*
X973340Y1322491D1*
X974874Y1324992D1*
X976780Y1327223D1*
X979010Y1329129D1*
X981512Y1330663D1*
X984222Y1331785D1*
X987075Y1332470D1*
X990000Y1332699D1*
X992925Y1332470D1*
X995778Y1331785D1*
X998488Y1330663D1*
X1000990Y1329129D1*
X1003220Y1327223D1*
X1005126Y1324992D1*
X1006660Y1322491D1*
X1007782Y1319781D1*
X1008467Y1316928D1*
X1008697Y1314003D1*
X1008639Y1312535D1*
X268639Y1296538D2*
X268181Y1293640D1*
X267274Y1290850D1*
X265942Y1288236D1*
X264218Y1285862D1*
X262143Y1283787D1*
X259769Y1282063D1*
X257155Y1280731D1*
X254365Y1279824D1*
X251467Y1279366D1*
X248533D1*
X245635Y1279824D1*
X242845Y1280731D1*
X240231Y1282063D1*
X237857Y1283787D1*
X235782Y1285862D1*
X234058Y1288236D1*
X232726Y1290850D1*
X231819Y1293640D1*
X231361Y1296538D1*
Y1299472D1*
X231819Y1302370D1*
X232726Y1305160D1*
X234058Y1307774D1*
X235782Y1310148D1*
X237857Y1312223D1*
X240231Y1313948D1*
X242845Y1315280D1*
X245635Y1316186D1*
X248533Y1316644D1*
X251467D1*
X254365Y1316186D1*
X257155Y1315280D1*
X259769Y1313948D1*
X262143Y1312223D1*
X264218Y1310148D1*
X265942Y1307774D1*
X267274Y1305160D1*
X268181Y1302370D1*
X268639Y1299472D1*
Y1296538D1*
X274636Y1238533D2*
X274178Y1235635D1*
X273272Y1232845D1*
X271940Y1230231D1*
X270215Y1227857D1*
X268140Y1225782D1*
X265766Y1224058D1*
X263152Y1222726D1*
X260362Y1221819D1*
X257465Y1221361D1*
X254530D1*
X251633Y1221819D1*
X248843Y1222726D1*
X246228Y1224058D1*
X243854Y1225782D1*
X241780Y1227857D1*
X240055Y1230231D1*
X238723Y1232845D1*
X237816Y1235635D1*
X237358Y1238533D1*
Y1241467D1*
X237816Y1244365D1*
X238723Y1247155D1*
X240055Y1249769D1*
X241780Y1252143D1*
X243854Y1254218D1*
X246228Y1255942D1*
X248843Y1257274D1*
X251633Y1258181D1*
X254530Y1258639D1*
X257465D1*
X260362Y1258181D1*
X263152Y1257274D1*
X265766Y1255942D1*
X268140Y1254218D1*
X270215Y1252143D1*
X271940Y1249769D1*
X273272Y1247155D1*
X274178Y1244365D1*
X274636Y1241467D1*
Y1238533D1*
X297639Y1438533D2*
X297181Y1435635D1*
X296274Y1432845D1*
X294942Y1430231D1*
X293218Y1427857D1*
X291143Y1425782D1*
X288769Y1424058D1*
X286155Y1422726D1*
X283365Y1421819D1*
X280467Y1421361D1*
X277533D1*
X274635Y1421819D1*
X271845Y1422726D1*
X269231Y1424058D1*
X266857Y1425782D1*
X264782Y1427857D1*
X263058Y1430231D1*
X261726Y1432845D1*
X260819Y1435635D1*
X260361Y1438533D1*
Y1441467D1*
X260819Y1444365D1*
X261726Y1447155D1*
X263058Y1449769D1*
X264782Y1452143D1*
X266857Y1454218D1*
X269231Y1455942D1*
X271845Y1457274D1*
X274635Y1458181D1*
X277533Y1458639D1*
X280467D1*
X283365Y1458181D1*
X286155Y1457274D1*
X288769Y1455942D1*
X291143Y1454218D1*
X293218Y1452143D1*
X294942Y1449769D1*
X296274Y1447155D1*
X297181Y1444365D1*
X297639Y1441467D1*
Y1438533D1*
X177642Y1329530D2*
X177184Y1326633D1*
X176277Y1323843D1*
X174945Y1321228D1*
X173220Y1318854D1*
X171146Y1316780D1*
X168772Y1315055D1*
X166157Y1313723D1*
X163367Y1312816D1*
X160470Y1312358D1*
X157535D1*
X154638Y1312816D1*
X151848Y1313723D1*
X149234Y1315055D1*
X146860Y1316780D1*
X144785Y1318854D1*
X143060Y1321228D1*
X141728Y1323843D1*
X140822Y1326633D1*
X140364Y1329530D1*
Y1332465D1*
X140822Y1335362D1*
X141728Y1338152D1*
X143060Y1340766D1*
X144785Y1343140D1*
X146860Y1345215D1*
X149234Y1346940D1*
X151848Y1348272D1*
X154638Y1349178D1*
X157535Y1349636D1*
X160470D1*
X163367Y1349178D1*
X166157Y1348272D1*
X168772Y1346940D1*
X171146Y1345215D1*
X173220Y1343140D1*
X174945Y1340766D1*
X176277Y1338152D1*
X177184Y1335362D1*
X177642Y1332465D1*
Y1329530D1*
X385280Y1628533D2*
X384822Y1625635D1*
X383915Y1622845D1*
X382583Y1620231D1*
X380858Y1617857D1*
X378783Y1615782D1*
X376409Y1614058D1*
X373795Y1612726D1*
X371005Y1611819D1*
X368108Y1611361D1*
X365173D1*
X362276Y1611819D1*
X359486Y1612726D1*
X356871Y1614058D1*
X354497Y1615782D1*
X352423Y1617857D1*
X350698Y1620231D1*
X349366Y1622845D1*
X348459Y1625635D1*
X348001Y1628533D1*
Y1631467D1*
X348459Y1634365D1*
X349366Y1637155D1*
X350698Y1639769D1*
X352423Y1642143D1*
X354497Y1644218D1*
X356871Y1645942D1*
X359486Y1647274D1*
X362276Y1648181D1*
X365173Y1648639D1*
X368108D1*
X371005Y1648181D1*
X373795Y1647274D1*
X376409Y1645942D1*
X378783Y1644218D1*
X380858Y1642143D1*
X382583Y1639769D1*
X383915Y1637155D1*
X384822Y1634365D1*
X385280Y1631467D1*
Y1628533D1*
X1306639Y531533D2*
X1306181Y528635D1*
X1305274Y525845D1*
X1303942Y523231D1*
X1302218Y520857D1*
X1300143Y518782D1*
X1297769Y517058D1*
X1295155Y515726D1*
X1292365Y514819D1*
X1289467Y514361D1*
X1286533D1*
X1283635Y514819D1*
X1280845Y515726D1*
X1278231Y517058D1*
X1275857Y518782D1*
X1273782Y520857D1*
X1272058Y523231D1*
X1270726Y525845D1*
X1269819Y528635D1*
X1269361Y531533D1*
Y534467D1*
X1269819Y537365D1*
X1270726Y540155D1*
X1272058Y542769D1*
X1273782Y545143D1*
X1275857Y547218D1*
X1278231Y548942D1*
X1280845Y550274D1*
X1283635Y551181D1*
X1286533Y551639D1*
X1289467D1*
X1292365Y551181D1*
X1295155Y550274D1*
X1297769Y548942D1*
X1300143Y547218D1*
X1302218Y545143D1*
X1303942Y542769D1*
X1305274Y540155D1*
X1306181Y537365D1*
X1306639Y534467D1*
Y531533D1*
X479639Y1471533D2*
X479181Y1468635D1*
X478274Y1465845D1*
X476942Y1463231D1*
X475218Y1460857D1*
X473143Y1458782D1*
X470769Y1457058D1*
X468155Y1455726D1*
X465365Y1454819D1*
X462467Y1454361D1*
X459533D1*
X456635Y1454819D1*
X453845Y1455726D1*
X451231Y1457058D1*
X448857Y1458782D1*
X446782Y1460857D1*
X445058Y1463231D1*
X443726Y1465845D1*
X442819Y1468635D1*
X442361Y1471533D1*
Y1474467D1*
X442819Y1477365D1*
X443726Y1480155D1*
X445058Y1482769D1*
X446782Y1485143D1*
X448857Y1487218D1*
X451231Y1488942D1*
X453845Y1490274D1*
X456635Y1491181D1*
X459533Y1491639D1*
X462467D1*
X465365Y1491181D1*
X468155Y1490274D1*
X470769Y1488942D1*
X473143Y1487218D1*
X475218Y1485143D1*
X476942Y1482769D1*
X478274Y1480155D1*
X479181Y1477365D1*
X479639Y1474467D1*
Y1471533D1*
X865699Y664950D2*
X865241Y662052D1*
X864335Y659262D1*
X863003Y656648D1*
X861278Y654274D1*
X859203Y652199D1*
X856829Y650475D1*
X854215Y649143D1*
X851425Y648236D1*
X848528Y647778D1*
X845593D1*
X842696Y648236D1*
X839906Y649143D1*
X837291Y650475D1*
X834917Y652199D1*
X832843Y654274D1*
X831118Y656648D1*
X829786Y659262D1*
X828879Y662052D1*
X828421Y664950D1*
Y667885D1*
X828879Y670782D1*
X829786Y673572D1*
X831118Y676186D1*
X832843Y678560D1*
X834917Y680635D1*
X837291Y682360D1*
X839906Y683692D1*
X842696Y684598D1*
X845593Y685056D1*
X848528D1*
X851425Y684598D1*
X854215Y683692D1*
X856829Y682360D1*
X859203Y680635D1*
X861278Y678560D1*
X863003Y676186D1*
X864335Y673572D1*
X865241Y670782D1*
X865699Y667885D1*
Y664950D1*
X865634Y605528D2*
X865176Y602630D1*
X864269Y599840D1*
X862937Y597226D1*
X861213Y594852D1*
X859138Y592777D1*
X856764Y591052D1*
X854150Y589720D1*
X851360Y588814D1*
X848462Y588356D1*
X845528D1*
X842630Y588814D1*
X839840Y589720D1*
X837226Y591052D1*
X834852Y592777D1*
X832777Y594852D1*
X831052Y597226D1*
X829720Y599840D1*
X828814Y602630D1*
X828356Y605528D1*
Y608462D1*
X828814Y611360D1*
X829720Y614150D1*
X831052Y616764D1*
X832777Y619138D1*
X834852Y621213D1*
X837226Y622937D1*
X839840Y624269D1*
X842630Y625176D1*
X845528Y625634D1*
X848462D1*
X851360Y625176D1*
X854150Y624269D1*
X856764Y622937D1*
X859138Y621213D1*
X861213Y619138D1*
X862937Y616764D1*
X864269Y614150D1*
X865176Y611360D1*
X865634Y608462D1*
Y605528D1*
X617639Y1147533D2*
X617181Y1144635D1*
X616274Y1141845D1*
X614942Y1139231D1*
X613218Y1136857D1*
X611143Y1134782D1*
X608769Y1133058D1*
X606155Y1131726D1*
X603365Y1130819D1*
X600467Y1130361D1*
X597533D1*
X594635Y1130819D1*
X591845Y1131726D1*
X589231Y1133058D1*
X586857Y1134782D1*
X584782Y1136857D1*
X583058Y1139231D1*
X581726Y1141845D1*
X580819Y1144635D1*
X580361Y1147533D1*
Y1150467D1*
X580819Y1153365D1*
X581726Y1156155D1*
X583058Y1158769D1*
X584782Y1161143D1*
X586857Y1163218D1*
X589231Y1164942D1*
X591845Y1166274D1*
X594635Y1167181D1*
X597533Y1167639D1*
X600467D1*
X603365Y1167181D1*
X606155Y1166274D1*
X608769Y1164942D1*
X611143Y1163218D1*
X613218Y1161143D1*
X614942Y1158769D1*
X616274Y1156155D1*
X617181Y1153365D1*
X617639Y1150467D1*
Y1147533D1*
X188639Y663533D2*
X188181Y660635D1*
X187274Y657845D1*
X185942Y655231D1*
X184218Y652857D1*
X182143Y650782D1*
X179769Y649058D1*
X177155Y647726D1*
X174365Y646819D1*
X171467Y646361D1*
X168533D1*
X165635Y646819D1*
X162845Y647726D1*
X160231Y649058D1*
X157857Y650782D1*
X155782Y652857D1*
X154058Y655231D1*
X152726Y657845D1*
X151819Y660635D1*
X151361Y663533D1*
Y666467D1*
X151819Y669365D1*
X152726Y672155D1*
X154058Y674769D1*
X155782Y677143D1*
X157857Y679218D1*
X160231Y680942D1*
X162845Y682274D1*
X165635Y683181D1*
X168533Y683639D1*
X171467D1*
X174365Y683181D1*
X177155Y682274D1*
X179769Y680942D1*
X182143Y679218D1*
X184218Y677143D1*
X185942Y674769D1*
X187274Y672155D1*
X188181Y669365D1*
X188639Y666467D1*
Y663533D1*
X228639Y823533D2*
X228181Y820635D1*
X227274Y817845D1*
X225942Y815231D1*
X224218Y812857D1*
X222143Y810782D1*
X219769Y809058D1*
X217155Y807726D1*
X214365Y806819D1*
X211467Y806361D1*
X208533D1*
X205635Y806819D1*
X202845Y807726D1*
X200231Y809058D1*
X197857Y810782D1*
X195782Y812857D1*
X194058Y815231D1*
X192726Y817845D1*
X191819Y820635D1*
X191361Y823533D1*
Y826467D1*
X191819Y829365D1*
X192726Y832155D1*
X194058Y834769D1*
X195782Y837143D1*
X197857Y839218D1*
X200231Y840942D1*
X202845Y842274D1*
X205635Y843181D1*
X208533Y843639D1*
X211467D1*
X214365Y843181D1*
X217155Y842274D1*
X219769Y840942D1*
X222143Y839218D1*
X224218Y837143D1*
X225942Y834769D1*
X227274Y832155D1*
X228181Y829365D1*
X228639Y826467D1*
Y823533D1*
Y783533D2*
X228181Y780635D1*
X227274Y777845D1*
X225942Y775231D1*
X224218Y772857D1*
X222143Y770782D1*
X219769Y769058D1*
X217155Y767726D1*
X214365Y766819D1*
X211467Y766361D1*
X208533D1*
X205635Y766819D1*
X202845Y767726D1*
X200231Y769058D1*
X197857Y770782D1*
X195782Y772857D1*
X194058Y775231D1*
X192726Y777845D1*
X191819Y780635D1*
X191361Y783533D1*
Y786467D1*
X191819Y789365D1*
X192726Y792155D1*
X194058Y794769D1*
X195782Y797143D1*
X197857Y799218D1*
X200231Y800942D1*
X202845Y802274D1*
X205635Y803181D1*
X208533Y803639D1*
X211467D1*
X214365Y803181D1*
X217155Y802274D1*
X219769Y800942D1*
X222143Y799218D1*
X224218Y797143D1*
X225942Y794769D1*
X227274Y792155D1*
X228181Y789365D1*
X228639Y786467D1*
Y783533D1*
Y743533D2*
X228181Y740635D1*
X227274Y737845D1*
X225942Y735231D1*
X224218Y732857D1*
X222143Y730782D1*
X219769Y729058D1*
X217155Y727726D1*
X214365Y726819D1*
X211467Y726361D1*
X208533D1*
X205635Y726819D1*
X202845Y727726D1*
X200231Y729058D1*
X197857Y730782D1*
X195782Y732857D1*
X194058Y735231D1*
X192726Y737845D1*
X191819Y740635D1*
X191361Y743533D1*
Y746467D1*
X191819Y749365D1*
X192726Y752155D1*
X194058Y754769D1*
X195782Y757143D1*
X197857Y759218D1*
X200231Y760942D1*
X202845Y762274D1*
X205635Y763181D1*
X208533Y763639D1*
X211467D1*
X214365Y763181D1*
X217155Y762274D1*
X219769Y760942D1*
X222143Y759218D1*
X224218Y757143D1*
X225942Y754769D1*
X227274Y752155D1*
X228181Y749365D1*
X228639Y746467D1*
Y743533D1*
Y703533D2*
X228181Y700635D1*
X227274Y697845D1*
X225942Y695231D1*
X224218Y692857D1*
X222143Y690782D1*
X219769Y689058D1*
X217155Y687726D1*
X214365Y686819D1*
X211467Y686361D1*
X208533D1*
X205635Y686819D1*
X202845Y687726D1*
X200231Y689058D1*
X197857Y690782D1*
X195782Y692857D1*
X194058Y695231D1*
X192726Y697845D1*
X191819Y700635D1*
X191361Y703533D1*
Y706467D1*
X191819Y709365D1*
X192726Y712155D1*
X194058Y714769D1*
X195782Y717143D1*
X197857Y719218D1*
X200231Y720942D1*
X202845Y722274D1*
X205635Y723181D1*
X208533Y723639D1*
X211467D1*
X214365Y723181D1*
X217155Y722274D1*
X219769Y720942D1*
X222143Y719218D1*
X224218Y717143D1*
X225942Y714769D1*
X227274Y712155D1*
X228181Y709365D1*
X228639Y706467D1*
Y703533D1*
Y663533D2*
X228181Y660635D1*
X227274Y657845D1*
X225942Y655231D1*
X224218Y652857D1*
X222143Y650782D1*
X219769Y649058D1*
X217155Y647726D1*
X214365Y646819D1*
X211467Y646361D1*
X208533D1*
X205635Y646819D1*
X202845Y647726D1*
X200231Y649058D1*
X197857Y650782D1*
X195782Y652857D1*
X194058Y655231D1*
X192726Y657845D1*
X191819Y660635D1*
X191361Y663533D1*
Y666467D1*
X191819Y669365D1*
X192726Y672155D1*
X194058Y674769D1*
X195782Y677143D1*
X197857Y679218D1*
X200231Y680942D1*
X202845Y682274D1*
X205635Y683181D1*
X208533Y683639D1*
X211467D1*
X214365Y683181D1*
X217155Y682274D1*
X219769Y680942D1*
X222143Y679218D1*
X224218Y677143D1*
X225942Y674769D1*
X227274Y672155D1*
X228181Y669365D1*
X228639Y666467D1*
Y663533D1*
X268639Y823533D2*
X268181Y820635D1*
X267274Y817845D1*
X265942Y815231D1*
X264218Y812857D1*
X262143Y810782D1*
X259769Y809058D1*
X257155Y807726D1*
X254365Y806819D1*
X251467Y806361D1*
X248533D1*
X245635Y806819D1*
X242845Y807726D1*
X240231Y809058D1*
X237857Y810782D1*
X235782Y812857D1*
X234058Y815231D1*
X232726Y817845D1*
X231819Y820635D1*
X231361Y823533D1*
Y826467D1*
X231819Y829365D1*
X232726Y832155D1*
X234058Y834769D1*
X235782Y837143D1*
X237857Y839218D1*
X240231Y840942D1*
X242845Y842274D1*
X245635Y843181D1*
X248533Y843639D1*
X251467D1*
X254365Y843181D1*
X257155Y842274D1*
X259769Y840942D1*
X262143Y839218D1*
X264218Y837143D1*
X265942Y834769D1*
X267274Y832155D1*
X268181Y829365D1*
X268639Y826467D1*
Y823533D1*
X333639Y1138533D2*
X333181Y1135635D1*
X332274Y1132845D1*
X330942Y1130231D1*
X329218Y1127857D1*
X327143Y1125782D1*
X324769Y1124058D1*
X322155Y1122726D1*
X319365Y1121819D1*
X316467Y1121361D1*
X313533D1*
X310635Y1121819D1*
X307845Y1122726D1*
X305231Y1124058D1*
X302857Y1125782D1*
X300782Y1127857D1*
X299058Y1130231D1*
X297726Y1132845D1*
X296819Y1135635D1*
X296361Y1138533D1*
Y1141467D1*
X296819Y1144365D1*
X297726Y1147155D1*
X299058Y1149769D1*
X300782Y1152143D1*
X302857Y1154218D1*
X305231Y1155942D1*
X307845Y1157274D1*
X310635Y1158181D1*
X313533Y1158639D1*
X316467D1*
X319365Y1158181D1*
X322155Y1157274D1*
X324769Y1155942D1*
X327143Y1154218D1*
X329218Y1152143D1*
X330942Y1149769D1*
X332274Y1147155D1*
X333181Y1144365D1*
X333639Y1141467D1*
Y1138533D1*
X168639Y1091533D2*
X168181Y1088635D1*
X167274Y1085845D1*
X165942Y1083231D1*
X164218Y1080857D1*
X162143Y1078782D1*
X159769Y1077058D1*
X157155Y1075726D1*
X154365Y1074819D1*
X151467Y1074361D1*
X148533D1*
X145635Y1074819D1*
X142845Y1075726D1*
X140231Y1077058D1*
X137857Y1078782D1*
X135782Y1080857D1*
X134058Y1083231D1*
X132726Y1085845D1*
X131819Y1088635D1*
X131361Y1091533D1*
Y1094467D1*
X131819Y1097365D1*
X132726Y1100155D1*
X134058Y1102769D1*
X135782Y1105143D1*
X137857Y1107218D1*
X140231Y1108942D1*
X142845Y1110274D1*
X145635Y1111181D1*
X148533Y1111639D1*
X151467D1*
X154365Y1111181D1*
X157155Y1110274D1*
X159769Y1108942D1*
X162143Y1107218D1*
X164218Y1105143D1*
X165942Y1102769D1*
X167274Y1100155D1*
X168181Y1097365D1*
X168639Y1094467D1*
Y1091533D1*
X244639Y1022533D2*
X244181Y1019635D1*
X243274Y1016845D1*
X241942Y1014231D1*
X240218Y1011857D1*
X238143Y1009782D1*
X235769Y1008058D1*
X233155Y1006726D1*
X230365Y1005819D1*
X227467Y1005361D1*
X224533D1*
X221635Y1005819D1*
X218845Y1006726D1*
X216231Y1008058D1*
X213857Y1009782D1*
X211782Y1011857D1*
X210058Y1014231D1*
X208726Y1016845D1*
X207819Y1019635D1*
X207361Y1022533D1*
Y1025467D1*
X207819Y1028365D1*
X208726Y1031155D1*
X210058Y1033769D1*
X211782Y1036143D1*
X213857Y1038218D1*
X216231Y1039942D1*
X218845Y1041274D1*
X221635Y1042181D1*
X224533Y1042639D1*
X227467D1*
X230365Y1042181D1*
X233155Y1041274D1*
X235769Y1039942D1*
X238143Y1038218D1*
X240218Y1036143D1*
X241942Y1033769D1*
X243274Y1031155D1*
X244181Y1028365D1*
X244639Y1025467D1*
Y1022533D1*
X1064639Y556533D2*
X1064181Y553635D1*
X1063274Y550845D1*
X1061942Y548231D1*
X1060218Y545857D1*
X1058143Y543782D1*
X1055769Y542058D1*
X1053155Y540726D1*
X1050365Y539819D1*
X1047467Y539361D1*
X1044533D1*
X1041635Y539819D1*
X1038845Y540726D1*
X1036231Y542058D1*
X1033857Y543782D1*
X1031782Y545857D1*
X1030058Y548231D1*
X1028726Y550845D1*
X1027819Y553635D1*
X1027361Y556533D1*
Y559467D1*
X1027819Y562365D1*
X1028726Y565155D1*
X1030058Y567769D1*
X1031782Y570143D1*
X1033857Y572218D1*
X1036231Y573942D1*
X1038845Y575274D1*
X1041635Y576181D1*
X1044533Y576639D1*
X1047467D1*
X1050365Y576181D1*
X1053155Y575274D1*
X1055769Y573942D1*
X1058143Y572218D1*
X1060218Y570143D1*
X1061942Y567769D1*
X1063274Y565155D1*
X1064181Y562365D1*
X1064639Y559467D1*
Y556533D1*
X1240634Y877535D2*
X1240176Y874638D1*
X1239269Y871848D1*
X1237937Y869234D1*
X1236213Y866860D1*
X1234138Y864785D1*
X1233151Y864008D1*
X1235215Y862223D1*
X1237121Y859992D1*
X1238655Y857491D1*
X1239777Y854781D1*
X1240462Y851928D1*
X1240692Y849003D1*
X1240462Y846077D1*
X1239777Y843224D1*
X1238655Y840514D1*
X1237121Y838013D1*
X1235215Y835782D1*
X1232984Y833877D1*
X1230483Y832343D1*
X1227773Y831220D1*
X1224920Y830535D1*
X1221995Y830306D1*
X1219070Y830535D1*
X1216217Y831220D1*
X1213507Y832343D1*
X1211005Y833877D1*
X1208774Y835782D1*
X1206869Y838013D1*
X1205335Y840514D1*
X1204213Y843224D1*
X1203528Y846077D1*
X1203298Y849003D1*
X1203528Y851928D1*
X1204213Y854781D1*
X1205335Y857491D1*
X1206869Y859992D1*
X1208774Y862223D1*
X1210839Y863997D1*
X1208774Y865782D1*
X1206869Y868013D1*
X1205335Y870514D1*
X1204213Y873224D1*
X1203528Y876077D1*
X1203298Y879003D1*
X1203528Y881928D1*
X1204213Y884781D1*
X1205335Y887491D1*
X1206869Y889992D1*
X1208774Y892223D1*
X1211005Y894129D1*
X1213507Y895663D1*
X1216217Y896785D1*
X1219070Y897470D1*
X1221995Y897699D1*
X1224920Y897470D1*
X1227773Y896785D1*
X1230483Y895663D1*
X1232984Y894129D1*
X1235215Y892223D1*
X1237121Y889992D1*
X1238655Y887491D1*
X1239777Y884781D1*
X1240462Y881928D1*
X1240692Y879003D1*
X1240634Y877535D1*
X328350Y1553533D2*
X327892Y1550635D1*
X326986Y1547845D1*
X325654Y1545231D1*
X323929Y1542857D1*
X321854Y1540782D1*
X319480Y1539058D1*
X316866Y1537726D1*
X314076Y1536819D1*
X311178Y1536361D1*
X308244D1*
X305346Y1536819D1*
X302556Y1537726D1*
X299942Y1539058D1*
X297568Y1540782D1*
X295493Y1542857D1*
X293769Y1545231D1*
X292437Y1547845D1*
X291530Y1550635D1*
X291072Y1553533D1*
Y1556467D1*
X291530Y1559365D1*
X292437Y1562155D1*
X293769Y1564769D1*
X295493Y1567143D1*
X297568Y1569218D1*
X299942Y1570942D1*
X302556Y1572274D1*
X305346Y1573181D1*
X308244Y1573639D1*
X311178D1*
X314076Y1573181D1*
X316866Y1572274D1*
X319480Y1570942D1*
X321854Y1569218D1*
X323929Y1567143D1*
X325654Y1564769D1*
X326986Y1562155D1*
X327892Y1559365D1*
X328350Y1556467D1*
Y1553533D1*
X218350D2*
X217892Y1550635D1*
X216986Y1547845D1*
X215654Y1545231D1*
X213929Y1542857D1*
X211854Y1540782D1*
X209480Y1539058D1*
X206866Y1537726D1*
X204076Y1536819D1*
X201178Y1536361D1*
X198244D1*
X195346Y1536819D1*
X192556Y1537726D1*
X189942Y1539058D1*
X187568Y1540782D1*
X185493Y1542857D1*
X183769Y1545231D1*
X182437Y1547845D1*
X181530Y1550635D1*
X181072Y1553533D1*
Y1556467D1*
X181530Y1559365D1*
X182437Y1562155D1*
X183769Y1564769D1*
X185493Y1567143D1*
X187568Y1569218D1*
X189942Y1570942D1*
X192556Y1572274D1*
X195346Y1573181D1*
X198244Y1573639D1*
X201178D1*
X204076Y1573181D1*
X206866Y1572274D1*
X209480Y1570942D1*
X211854Y1569218D1*
X213929Y1567143D1*
X215654Y1564769D1*
X216986Y1562155D1*
X217892Y1559365D1*
X218350Y1556467D1*
Y1553533D1*
X1073639Y818533D2*
X1073181Y815635D1*
X1072274Y812845D1*
X1070942Y810231D1*
X1069218Y807857D1*
X1067143Y805782D1*
X1064769Y804058D1*
X1062155Y802726D1*
X1059365Y801819D1*
X1056467Y801361D1*
X1053533D1*
X1050635Y801819D1*
X1047845Y802726D1*
X1045231Y804058D1*
X1042857Y805782D1*
X1040782Y807857D1*
X1039058Y810231D1*
X1037726Y812845D1*
X1036819Y815635D1*
X1036361Y818533D1*
Y821467D1*
X1036819Y824365D1*
X1037726Y827155D1*
X1039058Y829769D1*
X1040782Y832143D1*
X1042857Y834218D1*
X1045231Y835942D1*
X1047845Y837274D1*
X1050635Y838181D1*
X1053533Y838639D1*
X1056467D1*
X1059365Y838181D1*
X1062155Y837274D1*
X1064769Y835942D1*
X1067143Y834218D1*
X1069218Y832143D1*
X1070942Y829769D1*
X1072274Y827155D1*
X1073181Y824365D1*
X1073639Y821467D1*
Y818533D1*
X937639Y820533D2*
X937181Y817635D1*
X936274Y814845D1*
X934942Y812231D1*
X933218Y809857D1*
X931143Y807782D1*
X928769Y806058D1*
X926155Y804726D1*
X923365Y803819D1*
X920467Y803361D1*
X917533D1*
X914635Y803819D1*
X911845Y804726D1*
X909231Y806058D1*
X906857Y807782D1*
X904782Y809857D1*
X903058Y812231D1*
X901726Y814845D1*
X900819Y817635D1*
X900361Y820533D1*
Y823467D1*
X900819Y826365D1*
X901726Y829155D1*
X903058Y831769D1*
X904782Y834143D1*
X906857Y836218D1*
X909231Y837942D1*
X911845Y839274D1*
X914635Y840181D1*
X917533Y840639D1*
X920467D1*
X923365Y840181D1*
X926155Y839274D1*
X928769Y837942D1*
X931143Y836218D1*
X933218Y834143D1*
X934942Y831769D1*
X936274Y829155D1*
X937181Y826365D1*
X937639Y823467D1*
Y820533D1*
X755639Y857533D2*
X755181Y854635D1*
X754274Y851845D1*
X752942Y849231D1*
X751218Y846857D1*
X749143Y844782D1*
X746769Y843058D1*
X744155Y841726D1*
X741365Y840819D1*
X738467Y840361D1*
X735533D1*
X732635Y840819D1*
X729845Y841726D1*
X727231Y843058D1*
X724857Y844782D1*
X722782Y846857D1*
X721058Y849231D1*
X719726Y851845D1*
X718819Y854635D1*
X718361Y857533D1*
Y860467D1*
X718819Y863365D1*
X719726Y866155D1*
X721058Y868769D1*
X722782Y871143D1*
X724857Y873218D1*
X727231Y874942D1*
X729845Y876274D1*
X732635Y877181D1*
X735533Y877639D1*
X738467D1*
X741365Y877181D1*
X744155Y876274D1*
X746769Y874942D1*
X749143Y873218D1*
X751218Y871143D1*
X752942Y868769D1*
X754274Y866155D1*
X755181Y863365D1*
X755639Y860467D1*
Y857533D1*
X856639Y774533D2*
X856181Y771635D1*
X855274Y768845D1*
X853942Y766231D1*
X852218Y763857D1*
X850143Y761782D1*
X847769Y760058D1*
X845155Y758726D1*
X842365Y757819D1*
X839467Y757361D1*
X836533D1*
X833635Y757819D1*
X830845Y758726D1*
X828231Y760058D1*
X825857Y761782D1*
X823782Y763857D1*
X822058Y766231D1*
X820726Y768845D1*
X819819Y771635D1*
X819361Y774533D1*
Y777467D1*
X819819Y780365D1*
X820726Y783155D1*
X822058Y785769D1*
X823782Y788143D1*
X825857Y790218D1*
X828231Y791942D1*
X830845Y793274D1*
X833635Y794181D1*
X836533Y794639D1*
X839467D1*
X842365Y794181D1*
X845155Y793274D1*
X847769Y791942D1*
X850143Y790218D1*
X852218Y788143D1*
X853942Y785769D1*
X855274Y783155D1*
X856181Y780365D1*
X856639Y777467D1*
Y774533D1*
X268639Y783533D2*
X268181Y780635D1*
X267274Y777845D1*
X265942Y775231D1*
X264218Y772857D1*
X262143Y770782D1*
X259769Y769058D1*
X257155Y767726D1*
X254365Y766819D1*
X251467Y766361D1*
X248533D1*
X245635Y766819D1*
X242845Y767726D1*
X240231Y769058D1*
X237857Y770782D1*
X235782Y772857D1*
X234058Y775231D1*
X232726Y777845D1*
X231819Y780635D1*
X231361Y783533D1*
Y786467D1*
X231819Y789365D1*
X232726Y792155D1*
X234058Y794769D1*
X235782Y797143D1*
X237857Y799218D1*
X240231Y800942D1*
X242845Y802274D1*
X245635Y803181D1*
X248533Y803639D1*
X251467D1*
X254365Y803181D1*
X257155Y802274D1*
X259769Y800942D1*
X262143Y799218D1*
X264218Y797143D1*
X265942Y794769D1*
X267274Y792155D1*
X268181Y789365D1*
X268639Y786467D1*
Y783533D1*
X60639Y664533D2*
X60181Y661635D1*
X59274Y658845D1*
X57942Y656231D1*
X56218Y653857D1*
X54143Y651782D1*
X51769Y650058D1*
X49155Y648726D1*
X46365Y647819D1*
X43467Y647361D1*
X40533D1*
X37635Y647819D1*
X34845Y648726D1*
X32231Y650058D1*
X29857Y651782D1*
X27782Y653857D1*
X26058Y656231D1*
X24726Y658845D1*
X23819Y661635D1*
X23361Y664533D1*
Y667467D1*
X23819Y670365D1*
X24726Y673155D1*
X26058Y675769D1*
X27782Y678143D1*
X29857Y680218D1*
X32231Y681942D1*
X34845Y683274D1*
X37635Y684181D1*
X40533Y684639D1*
X43467D1*
X46365Y684181D1*
X49155Y683274D1*
X51769Y681942D1*
X54143Y680218D1*
X56218Y678143D1*
X57942Y675769D1*
X59274Y673155D1*
X60181Y670365D1*
X60639Y667467D1*
Y664533D1*
X268639Y743533D2*
X268181Y740635D1*
X267274Y737845D1*
X265942Y735231D1*
X264218Y732857D1*
X262143Y730782D1*
X259769Y729058D1*
X257155Y727726D1*
X254365Y726819D1*
X251467Y726361D1*
X248533D1*
X245635Y726819D1*
X242845Y727726D1*
X240231Y729058D1*
X237857Y730782D1*
X235782Y732857D1*
X234058Y735231D1*
X232726Y737845D1*
X231819Y740635D1*
X231361Y743533D1*
Y746467D1*
X231819Y749365D1*
X232726Y752155D1*
X234058Y754769D1*
X235782Y757143D1*
X237857Y759218D1*
X240231Y760942D1*
X242845Y762274D1*
X245635Y763181D1*
X248533Y763639D1*
X251467D1*
X254365Y763181D1*
X257155Y762274D1*
X259769Y760942D1*
X262143Y759218D1*
X264218Y757143D1*
X265942Y754769D1*
X267274Y752155D1*
X268181Y749365D1*
X268639Y746467D1*
Y743533D1*
Y703533D2*
X268181Y700635D1*
X267274Y697845D1*
X265942Y695231D1*
X264218Y692857D1*
X262143Y690782D1*
X259769Y689058D1*
X257155Y687726D1*
X254365Y686819D1*
X251467Y686361D1*
X248533D1*
X245635Y686819D1*
X242845Y687726D1*
X240231Y689058D1*
X237857Y690782D1*
X235782Y692857D1*
X234058Y695231D1*
X232726Y697845D1*
X231819Y700635D1*
X231361Y703533D1*
Y706467D1*
X231819Y709365D1*
X232726Y712155D1*
X234058Y714769D1*
X235782Y717143D1*
X237857Y719218D1*
X240231Y720942D1*
X242845Y722274D1*
X245635Y723181D1*
X248533Y723639D1*
X251467D1*
X254365Y723181D1*
X257155Y722274D1*
X259769Y720942D1*
X262143Y719218D1*
X264218Y717143D1*
X265942Y714769D1*
X267274Y712155D1*
X268181Y709365D1*
X268639Y706467D1*
Y703533D1*
Y663533D2*
X268181Y660635D1*
X267274Y657845D1*
X265942Y655231D1*
X264218Y652857D1*
X262143Y650782D1*
X259769Y649058D1*
X257155Y647726D1*
X254365Y646819D1*
X251467Y646361D1*
X248533D1*
X245635Y646819D1*
X242845Y647726D1*
X240231Y649058D1*
X237857Y650782D1*
X235782Y652857D1*
X234058Y655231D1*
X232726Y657845D1*
X231819Y660635D1*
X231361Y663533D1*
Y666467D1*
X231819Y669365D1*
X232726Y672155D1*
X234058Y674769D1*
X235782Y677143D1*
X237857Y679218D1*
X240231Y680942D1*
X242845Y682274D1*
X245635Y683181D1*
X248533Y683639D1*
X251467D1*
X254365Y683181D1*
X257155Y682274D1*
X259769Y680942D1*
X262143Y679218D1*
X264218Y677143D1*
X265942Y674769D1*
X267274Y672155D1*
X268181Y669365D1*
X268639Y666467D1*
Y663533D1*
X308639Y823533D2*
X308181Y820635D1*
X307274Y817845D1*
X305942Y815231D1*
X304218Y812857D1*
X302143Y810782D1*
X299769Y809058D1*
X297155Y807726D1*
X294365Y806819D1*
X291467Y806361D1*
X288533D1*
X285635Y806819D1*
X282845Y807726D1*
X280231Y809058D1*
X277857Y810782D1*
X275782Y812857D1*
X274058Y815231D1*
X272726Y817845D1*
X271819Y820635D1*
X271361Y823533D1*
Y826467D1*
X271819Y829365D1*
X272726Y832155D1*
X274058Y834769D1*
X275782Y837143D1*
X277857Y839218D1*
X280231Y840942D1*
X282845Y842274D1*
X285635Y843181D1*
X288533Y843639D1*
X291467D1*
X294365Y843181D1*
X297155Y842274D1*
X299769Y840942D1*
X302143Y839218D1*
X304218Y837143D1*
X305942Y834769D1*
X307274Y832155D1*
X308181Y829365D1*
X308639Y826467D1*
Y823533D1*
Y783533D2*
X308181Y780635D1*
X307274Y777845D1*
X305942Y775231D1*
X304218Y772857D1*
X302143Y770782D1*
X299769Y769058D1*
X297155Y767726D1*
X294365Y766819D1*
X291467Y766361D1*
X288533D1*
X285635Y766819D1*
X282845Y767726D1*
X280231Y769058D1*
X277857Y770782D1*
X275782Y772857D1*
X274058Y775231D1*
X272726Y777845D1*
X271819Y780635D1*
X271361Y783533D1*
Y786467D1*
X271819Y789365D1*
X272726Y792155D1*
X274058Y794769D1*
X275782Y797143D1*
X277857Y799218D1*
X280231Y800942D1*
X282845Y802274D1*
X285635Y803181D1*
X288533Y803639D1*
X291467D1*
X294365Y803181D1*
X297155Y802274D1*
X299769Y800942D1*
X302143Y799218D1*
X304218Y797143D1*
X305942Y794769D1*
X307274Y792155D1*
X308181Y789365D1*
X308639Y786467D1*
Y783533D1*
Y743533D2*
X308181Y740635D1*
X307274Y737845D1*
X305942Y735231D1*
X304218Y732857D1*
X302143Y730782D1*
X299769Y729058D1*
X297155Y727726D1*
X294365Y726819D1*
X291467Y726361D1*
X288533D1*
X285635Y726819D1*
X282845Y727726D1*
X280231Y729058D1*
X277857Y730782D1*
X275782Y732857D1*
X274058Y735231D1*
X272726Y737845D1*
X271819Y740635D1*
X271361Y743533D1*
Y746467D1*
X271819Y749365D1*
X272726Y752155D1*
X274058Y754769D1*
X275782Y757143D1*
X277857Y759218D1*
X280231Y760942D1*
X282845Y762274D1*
X285635Y763181D1*
X288533Y763639D1*
X291467D1*
X294365Y763181D1*
X297155Y762274D1*
X299769Y760942D1*
X302143Y759218D1*
X304218Y757143D1*
X305942Y754769D1*
X307274Y752155D1*
X308181Y749365D1*
X308639Y746467D1*
Y743533D1*
Y703533D2*
X308181Y700635D1*
X307274Y697845D1*
X305942Y695231D1*
X304218Y692857D1*
X302143Y690782D1*
X299769Y689058D1*
X297155Y687726D1*
X294365Y686819D1*
X291467Y686361D1*
X288533D1*
X285635Y686819D1*
X282845Y687726D1*
X280231Y689058D1*
X277857Y690782D1*
X275782Y692857D1*
X274058Y695231D1*
X272726Y697845D1*
X271819Y700635D1*
X271361Y703533D1*
Y706467D1*
X271819Y709365D1*
X272726Y712155D1*
X274058Y714769D1*
X275782Y717143D1*
X277857Y719218D1*
X280231Y720942D1*
X282845Y722274D1*
X285635Y723181D1*
X288533Y723639D1*
X291467D1*
X294365Y723181D1*
X297155Y722274D1*
X299769Y720942D1*
X302143Y719218D1*
X304218Y717143D1*
X305942Y714769D1*
X307274Y712155D1*
X308181Y709365D1*
X308639Y706467D1*
Y703533D1*
Y663533D2*
X308181Y660635D1*
X307274Y657845D1*
X305942Y655231D1*
X304218Y652857D1*
X302143Y650782D1*
X299769Y649058D1*
X297155Y647726D1*
X294365Y646819D1*
X291467Y646361D1*
X288533D1*
X285635Y646819D1*
X282845Y647726D1*
X280231Y649058D1*
X277857Y650782D1*
X275782Y652857D1*
X274058Y655231D1*
X272726Y657845D1*
X271819Y660635D1*
X271361Y663533D1*
Y666467D1*
X271819Y669365D1*
X272726Y672155D1*
X274058Y674769D1*
X275782Y677143D1*
X277857Y679218D1*
X280231Y680942D1*
X282845Y682274D1*
X285635Y683181D1*
X288533Y683639D1*
X291467D1*
X294365Y683181D1*
X297155Y682274D1*
X299769Y680942D1*
X302143Y679218D1*
X304218Y677143D1*
X305942Y674769D1*
X307274Y672155D1*
X308181Y669365D1*
X308639Y666467D1*
Y663533D1*
X571493Y943558D2*
X570218Y941857D1*
X568143Y939782D1*
X565769Y938058D1*
X563155Y936726D1*
X560365Y935819D1*
X557467Y935361D1*
X554533D1*
X551635Y935819D1*
X548845Y936726D1*
X546231Y938058D1*
X543857Y939782D1*
X541782Y941857D1*
X540058Y944231D1*
X538726Y946845D1*
X537819Y949635D1*
X537361Y952533D1*
Y955467D1*
X537819Y958365D1*
X538726Y961155D1*
X540058Y963769D1*
X541782Y966143D1*
X543857Y968218D1*
X546231Y969942D1*
X548845Y971274D1*
X551635Y972181D1*
X554533Y972639D1*
X557467D1*
X560365Y972181D1*
X563155Y971274D1*
X565769Y969942D1*
X568143Y968218D1*
X570218Y966143D1*
X571493Y964442D1*
X572782Y966143D1*
X574857Y968218D1*
X577231Y969942D1*
X579845Y971274D1*
X582635Y972181D1*
X585533Y972639D1*
X588467D1*
X591365Y972181D1*
X594155Y971274D1*
X596769Y969942D1*
X599143Y968218D1*
X601218Y966143D1*
X602942Y963769D1*
X604274Y961155D1*
X605181Y958365D1*
X605639Y955467D1*
Y952533D1*
X605181Y949635D1*
X604274Y946845D1*
X602942Y944231D1*
X601218Y941857D1*
X599143Y939782D1*
X596769Y938058D1*
X594155Y936726D1*
X591365Y935819D1*
X588467Y935361D1*
X585533D1*
X582635Y935819D1*
X579845Y936726D1*
X577231Y938058D1*
X574857Y939782D1*
X572782Y941857D1*
X571507Y943558D1*
X598639Y913533D2*
X598181Y910635D1*
X597274Y907845D1*
X595942Y905231D1*
X594218Y902857D1*
X592143Y900782D1*
X589769Y899058D1*
X587155Y897726D1*
X584365Y896819D1*
X581467Y896361D1*
X578533D1*
X575635Y896819D1*
X572845Y897726D1*
X570231Y899058D1*
X567857Y900782D1*
X565782Y902857D1*
X564058Y905231D1*
X562726Y907845D1*
X561819Y910635D1*
X561361Y913533D1*
Y916467D1*
X561819Y919365D1*
X562726Y922155D1*
X564058Y924769D1*
X565782Y927143D1*
X567857Y929218D1*
X570231Y930942D1*
X572845Y932274D1*
X575635Y933181D1*
X578533Y933639D1*
X581467D1*
X584365Y933181D1*
X587155Y932274D1*
X589769Y930942D1*
X592143Y929218D1*
X594218Y927143D1*
X595942Y924769D1*
X597274Y922155D1*
X598181Y919365D1*
X598639Y916467D1*
Y913533D1*
X921639Y902533D2*
X921181Y899635D1*
X920274Y896845D1*
X918942Y894231D1*
X917218Y891857D1*
X915143Y889782D1*
X912769Y888058D1*
X910155Y886726D1*
X907365Y885819D1*
X904467Y885361D1*
X901533D1*
X898635Y885819D1*
X895845Y886726D1*
X893231Y888058D1*
X890857Y889782D1*
X888782Y891857D1*
X887058Y894231D1*
X885726Y896845D1*
X884819Y899635D1*
X884361Y902533D1*
Y905467D1*
X884819Y908365D1*
X885726Y911155D1*
X887058Y913769D1*
X888782Y916143D1*
X890857Y918218D1*
X893231Y919942D1*
X895845Y921274D1*
X898635Y922181D1*
X901533Y922639D1*
X904467D1*
X907365Y922181D1*
X910155Y921274D1*
X912769Y919942D1*
X915143Y918218D1*
X917218Y916143D1*
X918942Y913769D1*
X920274Y911155D1*
X921181Y908365D1*
X921639Y905467D1*
Y902533D1*
X250639Y1145533D2*
X250181Y1142635D1*
X249274Y1139845D1*
X247942Y1137231D1*
X246218Y1134857D1*
X244143Y1132782D1*
X241769Y1131058D1*
X239155Y1129726D1*
X236365Y1128819D1*
X233467Y1128361D1*
X230533D1*
X227635Y1128819D1*
X224845Y1129726D1*
X222231Y1131058D1*
X219857Y1132782D1*
X217782Y1134857D1*
X216058Y1137231D1*
X214726Y1139845D1*
X213819Y1142635D1*
X213361Y1145533D1*
Y1148467D1*
X213819Y1151365D1*
X214726Y1154155D1*
X216058Y1156769D1*
X217782Y1159143D1*
X219857Y1161218D1*
X222231Y1162942D1*
X224845Y1164274D1*
X227635Y1165181D1*
X230533Y1165639D1*
X233467D1*
X236365Y1165181D1*
X239155Y1164274D1*
X241769Y1162942D1*
X244143Y1161218D1*
X246218Y1159143D1*
X247942Y1156769D1*
X249274Y1154155D1*
X250181Y1151365D1*
X250639Y1148467D1*
Y1145533D1*
X68639Y1593533D2*
X68181Y1590635D1*
X67274Y1587845D1*
X65942Y1585231D1*
X64218Y1582857D1*
X62143Y1580782D1*
X59769Y1579058D1*
X57155Y1577726D1*
X54365Y1576819D1*
X51467Y1576361D1*
X48533D1*
X45635Y1576819D1*
X42845Y1577726D1*
X40231Y1579058D1*
X37857Y1580782D1*
X35782Y1582857D1*
X34058Y1585231D1*
X32726Y1587845D1*
X31819Y1590635D1*
X31361Y1593533D1*
Y1596467D1*
X31819Y1599365D1*
X32726Y1602155D1*
X34058Y1604769D1*
X35782Y1607143D1*
X37857Y1609218D1*
X40231Y1610942D1*
X42845Y1612274D1*
X45635Y1613181D1*
X48533Y1613639D1*
X51467D1*
X54365Y1613181D1*
X57155Y1612274D1*
X59769Y1610942D1*
X62143Y1609218D1*
X64218Y1607143D1*
X65942Y1604769D1*
X67274Y1602155D1*
X68181Y1599365D1*
X68639Y1596467D1*
Y1593533D1*
X128639D2*
X128181Y1590635D1*
X127274Y1587845D1*
X125942Y1585231D1*
X124218Y1582857D1*
X122143Y1580782D1*
X119769Y1579058D1*
X117155Y1577726D1*
X114365Y1576819D1*
X111467Y1576361D1*
X108533D1*
X105635Y1576819D1*
X102845Y1577726D1*
X100231Y1579058D1*
X97857Y1580782D1*
X95782Y1582857D1*
X94058Y1585231D1*
X92726Y1587845D1*
X91819Y1590635D1*
X91361Y1593533D1*
Y1596467D1*
X91819Y1599365D1*
X92726Y1602155D1*
X94058Y1604769D1*
X95782Y1607143D1*
X97857Y1609218D1*
X100231Y1610942D1*
X102845Y1612274D1*
X105635Y1613181D1*
X108533Y1613639D1*
X111467D1*
X114365Y1613181D1*
X117155Y1612274D1*
X119769Y1610942D1*
X122143Y1609218D1*
X124218Y1607143D1*
X125942Y1604769D1*
X127274Y1602155D1*
X128181Y1599365D1*
X128639Y1596467D1*
Y1593533D1*
X68639Y1553533D2*
X68181Y1550635D1*
X67274Y1547845D1*
X65942Y1545231D1*
X64218Y1542857D1*
X62143Y1540782D1*
X59769Y1539058D1*
X57155Y1537726D1*
X54365Y1536819D1*
X51467Y1536361D1*
X48533D1*
X45635Y1536819D1*
X42845Y1537726D1*
X40231Y1539058D1*
X37857Y1540782D1*
X35782Y1542857D1*
X34058Y1545231D1*
X32726Y1547845D1*
X31819Y1550635D1*
X31361Y1553533D1*
Y1556467D1*
X31819Y1559365D1*
X32726Y1562155D1*
X34058Y1564769D1*
X35782Y1567143D1*
X37857Y1569218D1*
X40231Y1570942D1*
X42845Y1572274D1*
X45635Y1573181D1*
X48533Y1573639D1*
X51467D1*
X54365Y1573181D1*
X57155Y1572274D1*
X59769Y1570942D1*
X62143Y1569218D1*
X64218Y1567143D1*
X65942Y1564769D1*
X67274Y1562155D1*
X68181Y1559365D1*
X68639Y1556467D1*
Y1553533D1*
Y1513533D2*
X68181Y1510635D1*
X67274Y1507845D1*
X65942Y1505231D1*
X64218Y1502857D1*
X62143Y1500782D1*
X59769Y1499058D1*
X57155Y1497726D1*
X54365Y1496819D1*
X51467Y1496361D1*
X48533D1*
X45635Y1496819D1*
X42845Y1497726D1*
X40231Y1499058D1*
X37857Y1500782D1*
X35782Y1502857D1*
X34058Y1505231D1*
X32726Y1507845D1*
X31819Y1510635D1*
X31361Y1513533D1*
Y1516467D1*
X31819Y1519365D1*
X32726Y1522155D1*
X34058Y1524769D1*
X35782Y1527143D1*
X37857Y1529218D1*
X40231Y1530942D1*
X42845Y1532274D1*
X45635Y1533181D1*
X48533Y1533639D1*
X51467D1*
X54365Y1533181D1*
X57155Y1532274D1*
X59769Y1530942D1*
X62143Y1529218D1*
X64218Y1527143D1*
X65942Y1524769D1*
X67274Y1522155D1*
X68181Y1519365D1*
X68639Y1516467D1*
Y1513533D1*
X128639D2*
X128181Y1510635D1*
X127274Y1507845D1*
X125942Y1505231D1*
X124218Y1502857D1*
X122143Y1500782D1*
X119769Y1499058D1*
X117155Y1497726D1*
X114365Y1496819D1*
X111467Y1496361D1*
X108533D1*
X105635Y1496819D1*
X102845Y1497726D1*
X100231Y1499058D1*
X97857Y1500782D1*
X95782Y1502857D1*
X94058Y1505231D1*
X92726Y1507845D1*
X91819Y1510635D1*
X91361Y1513533D1*
Y1516467D1*
X91819Y1519365D1*
X92726Y1522155D1*
X94058Y1524769D1*
X95782Y1527143D1*
X97857Y1529218D1*
X100231Y1530942D1*
X102845Y1532274D1*
X105635Y1533181D1*
X108533Y1533639D1*
X111467D1*
X114365Y1533181D1*
X117155Y1532274D1*
X119769Y1530942D1*
X122143Y1529218D1*
X124218Y1527143D1*
X125942Y1524769D1*
X127274Y1522155D1*
X128181Y1519365D1*
X128639Y1516467D1*
Y1513533D1*
Y1553533D2*
X128181Y1550635D1*
X127274Y1547845D1*
X125942Y1545231D1*
X124218Y1542857D1*
X122143Y1540782D1*
X119769Y1539058D1*
X117155Y1537726D1*
X114365Y1536819D1*
X111467Y1536361D1*
X108533D1*
X105635Y1536819D1*
X102845Y1537726D1*
X100231Y1539058D1*
X97857Y1540782D1*
X95782Y1542857D1*
X94058Y1545231D1*
X92726Y1547845D1*
X91819Y1550635D1*
X91361Y1553533D1*
Y1556467D1*
X91819Y1559365D1*
X92726Y1562155D1*
X94058Y1564769D1*
X95782Y1567143D1*
X97857Y1569218D1*
X100231Y1570942D1*
X102845Y1572274D1*
X105635Y1573181D1*
X108533Y1573639D1*
X111467D1*
X114365Y1573181D1*
X117155Y1572274D1*
X119769Y1570942D1*
X122143Y1569218D1*
X124218Y1567143D1*
X125942Y1564769D1*
X127274Y1562155D1*
X128181Y1559365D1*
X128639Y1556467D1*
Y1553533D1*
X972639Y1073533D2*
X972181Y1070635D1*
X971274Y1067845D1*
X969942Y1065231D1*
X968218Y1062857D1*
X966143Y1060782D1*
X963769Y1059058D1*
X961155Y1057726D1*
X958365Y1056819D1*
X955467Y1056361D1*
X952533D1*
X949635Y1056819D1*
X946845Y1057726D1*
X944231Y1059058D1*
X941857Y1060782D1*
X939782Y1062857D1*
X938058Y1065231D1*
X936726Y1067845D1*
X935819Y1070635D1*
X935361Y1073533D1*
Y1076467D1*
X935819Y1079365D1*
X936726Y1082155D1*
X938058Y1084769D1*
X939782Y1087143D1*
X941857Y1089218D1*
X944231Y1090942D1*
X946845Y1092274D1*
X949635Y1093181D1*
X952533Y1093639D1*
X955467D1*
X958365Y1093181D1*
X961155Y1092274D1*
X963769Y1090942D1*
X966143Y1089218D1*
X968218Y1087143D1*
X969942Y1084769D1*
X971274Y1082155D1*
X972181Y1079365D1*
X972639Y1076467D1*
Y1073533D1*
X569639Y1471533D2*
X569181Y1468635D1*
X568274Y1465845D1*
X566942Y1463231D1*
X565218Y1460857D1*
X563143Y1458782D1*
X560769Y1457058D1*
X558155Y1455726D1*
X555365Y1454819D1*
X552467Y1454361D1*
X549533D1*
X546635Y1454819D1*
X543845Y1455726D1*
X541231Y1457058D1*
X538857Y1458782D1*
X536782Y1460857D1*
X535058Y1463231D1*
X533726Y1465845D1*
X532819Y1468635D1*
X532361Y1471533D1*
Y1474467D1*
X532819Y1477365D1*
X533726Y1480155D1*
X535058Y1482769D1*
X536782Y1485143D1*
X538857Y1487218D1*
X541231Y1488942D1*
X543845Y1490274D1*
X546635Y1491181D1*
X549533Y1491639D1*
X552467D1*
X555365Y1491181D1*
X558155Y1490274D1*
X560769Y1488942D1*
X563143Y1487218D1*
X565218Y1485143D1*
X566942Y1482769D1*
X568274Y1480155D1*
X569181Y1477365D1*
X569639Y1474467D1*
Y1471533D1*
X1244639Y557533D2*
X1244181Y554635D1*
X1243274Y551845D1*
X1241942Y549231D1*
X1240218Y546857D1*
X1238143Y544782D1*
X1235769Y543058D1*
X1233155Y541726D1*
X1230365Y540819D1*
X1227467Y540361D1*
X1224533D1*
X1221635Y540819D1*
X1218845Y541726D1*
X1216231Y543058D1*
X1213857Y544782D1*
X1211782Y546857D1*
X1210058Y549231D1*
X1208726Y551845D1*
X1207819Y554635D1*
X1207361Y557533D1*
Y560467D1*
X1207819Y563365D1*
X1208726Y566155D1*
X1210058Y568769D1*
X1211782Y571143D1*
X1213857Y573218D1*
X1216231Y574942D1*
X1218845Y576274D1*
X1221635Y577181D1*
X1224533Y577639D1*
X1227467D1*
X1230365Y577181D1*
X1233155Y576274D1*
X1235769Y574942D1*
X1238143Y573218D1*
X1240218Y571143D1*
X1241942Y568769D1*
X1243274Y566155D1*
X1244181Y563365D1*
X1244639Y560467D1*
Y557533D1*
X757639Y1467533D2*
X757181Y1464635D1*
X756274Y1461845D1*
X754942Y1459231D1*
X753218Y1456857D1*
X751143Y1454782D1*
X748769Y1453058D1*
X746155Y1451726D1*
X743365Y1450819D1*
X740467Y1450361D1*
X737533D1*
X734635Y1450819D1*
X731845Y1451726D1*
X729231Y1453058D1*
X726857Y1454782D1*
X724782Y1456857D1*
X723058Y1459231D1*
X721726Y1461845D1*
X720819Y1464635D1*
X720361Y1467533D1*
Y1470467D1*
X720819Y1473365D1*
X721726Y1476155D1*
X723058Y1478769D1*
X724782Y1481143D1*
X726857Y1483218D1*
X729231Y1484942D1*
X731845Y1486274D1*
X734635Y1487181D1*
X737533Y1487639D1*
X740467D1*
X743365Y1487181D1*
X746155Y1486274D1*
X748769Y1484942D1*
X751143Y1483218D1*
X753218Y1481143D1*
X754942Y1478769D1*
X756274Y1476155D1*
X757181Y1473365D1*
X757639Y1470467D1*
Y1467533D1*
X1104639Y1159533D2*
X1104181Y1156635D1*
X1103274Y1153845D1*
X1101942Y1151231D1*
X1100218Y1148857D1*
X1098143Y1146782D1*
X1095769Y1145058D1*
X1093155Y1143726D1*
X1090365Y1142819D1*
X1087467Y1142361D1*
X1084533D1*
X1081635Y1142819D1*
X1078845Y1143726D1*
X1076231Y1145058D1*
X1073857Y1146782D1*
X1071782Y1148857D1*
X1070058Y1151231D1*
X1068726Y1153845D1*
X1067819Y1156635D1*
X1067361Y1159533D1*
Y1162467D1*
X1067819Y1165365D1*
X1068726Y1168155D1*
X1070058Y1170769D1*
X1071782Y1173143D1*
X1073857Y1175218D1*
X1076231Y1176942D1*
X1078845Y1178274D1*
X1081635Y1179181D1*
X1084533Y1179639D1*
X1087467D1*
X1090365Y1179181D1*
X1093155Y1178274D1*
X1095769Y1176942D1*
X1098143Y1175218D1*
X1100218Y1173143D1*
X1101942Y1170769D1*
X1103274Y1168155D1*
X1104181Y1165365D1*
X1104639Y1162467D1*
Y1159533D1*
X1101639Y1312533D2*
X1101181Y1309635D1*
X1100274Y1306845D1*
X1098942Y1304231D1*
X1097218Y1301857D1*
X1095143Y1299782D1*
X1092769Y1298058D1*
X1090155Y1296726D1*
X1087365Y1295819D1*
X1084467Y1295361D1*
X1081533D1*
X1078635Y1295819D1*
X1075845Y1296726D1*
X1073231Y1298058D1*
X1070857Y1299782D1*
X1068782Y1301857D1*
X1067058Y1304231D1*
X1065726Y1306845D1*
X1064819Y1309635D1*
X1064361Y1312533D1*
Y1315467D1*
X1064819Y1318365D1*
X1065726Y1321155D1*
X1067058Y1323769D1*
X1068782Y1326143D1*
X1070857Y1328218D1*
X1073231Y1329942D1*
X1075845Y1331274D1*
X1078635Y1332181D1*
X1081533Y1332639D1*
X1084467D1*
X1087365Y1332181D1*
X1090155Y1331274D1*
X1092769Y1329942D1*
X1095143Y1328218D1*
X1097218Y1326143D1*
X1098942Y1323769D1*
X1100274Y1321155D1*
X1101181Y1318365D1*
X1101639Y1315467D1*
Y1312533D1*
X678639Y1084533D2*
X678181Y1081635D1*
X677274Y1078845D1*
X675942Y1076231D1*
X674218Y1073857D1*
X672143Y1071782D1*
X669769Y1070058D1*
X667155Y1068726D1*
X664365Y1067819D1*
X661467Y1067361D1*
X658533D1*
X655635Y1067819D1*
X652845Y1068726D1*
X650231Y1070058D1*
X647857Y1071782D1*
X645782Y1073857D1*
X644058Y1076231D1*
X642726Y1078845D1*
X641819Y1081635D1*
X641361Y1084533D1*
Y1087467D1*
X641819Y1090365D1*
X642726Y1093155D1*
X644058Y1095769D1*
X645782Y1098143D1*
X647857Y1100218D1*
X650231Y1101942D1*
X652845Y1103274D1*
X655635Y1104181D1*
X658533Y1104639D1*
X661467D1*
X664365Y1104181D1*
X667155Y1103274D1*
X669769Y1101942D1*
X672143Y1100218D1*
X674218Y1098143D1*
X675942Y1095769D1*
X677274Y1093155D1*
X678181Y1090365D1*
X678639Y1087467D1*
Y1084533D1*
X875639Y1468533D2*
X875181Y1465635D1*
X874274Y1462845D1*
X872942Y1460231D1*
X871218Y1457857D1*
X869143Y1455782D1*
X866769Y1454058D1*
X864155Y1452726D1*
X861365Y1451819D1*
X858467Y1451361D1*
X855533D1*
X852635Y1451819D1*
X849845Y1452726D1*
X847231Y1454058D1*
X844857Y1455782D1*
X842782Y1457857D1*
X841058Y1460231D1*
X839726Y1462845D1*
X838819Y1465635D1*
X838361Y1468533D1*
Y1471467D1*
X838819Y1474365D1*
X839726Y1477155D1*
X841058Y1479769D1*
X842782Y1482143D1*
X844857Y1484218D1*
X847231Y1485942D1*
X849845Y1487274D1*
X852635Y1488181D1*
X855533Y1488639D1*
X858467D1*
X861365Y1488181D1*
X864155Y1487274D1*
X866769Y1485942D1*
X869143Y1484218D1*
X871218Y1482143D1*
X872942Y1479769D1*
X874274Y1477155D1*
X875181Y1474365D1*
X875639Y1471467D1*
Y1468533D1*
X522639Y1065533D2*
X522181Y1062635D1*
X521274Y1059845D1*
X519942Y1057231D1*
X518218Y1054857D1*
X516143Y1052782D1*
X513769Y1051058D1*
X511155Y1049726D1*
X508365Y1048819D1*
X505467Y1048361D1*
X502533D1*
X499635Y1048819D1*
X496845Y1049726D1*
X494231Y1051058D1*
X491857Y1052782D1*
X489782Y1054857D1*
X488058Y1057231D1*
X486726Y1059845D1*
X485819Y1062635D1*
X485361Y1065533D1*
Y1068467D1*
X485819Y1071365D1*
X486726Y1074155D1*
X488058Y1076769D1*
X489782Y1079143D1*
X491857Y1081218D1*
X494231Y1082942D1*
X496845Y1084274D1*
X499635Y1085181D1*
X502533Y1085639D1*
X505467D1*
X508365Y1085181D1*
X511155Y1084274D1*
X513769Y1082942D1*
X516143Y1081218D1*
X518218Y1079143D1*
X519942Y1076769D1*
X521274Y1074155D1*
X522181Y1071365D1*
X522639Y1068467D1*
Y1065533D1*
X510639Y690533D2*
X510181Y687635D1*
X509274Y684845D1*
X507942Y682231D1*
X506218Y679857D1*
X504143Y677782D1*
X501769Y676058D1*
X499155Y674726D1*
X496365Y673819D1*
X493467Y673361D1*
X490533D1*
X487635Y673819D1*
X484845Y674726D1*
X482231Y676058D1*
X479857Y677782D1*
X477782Y679857D1*
X476058Y682231D1*
X474726Y684845D1*
X473819Y687635D1*
X473361Y690533D1*
Y693467D1*
X473819Y696365D1*
X474726Y699155D1*
X476058Y701769D1*
X477782Y704143D1*
X479857Y706218D1*
X482231Y707942D1*
X484845Y709274D1*
X487635Y710181D1*
X490533Y710639D1*
X493467D1*
X496365Y710181D1*
X499155Y709274D1*
X501769Y707942D1*
X504143Y706218D1*
X506218Y704143D1*
X507942Y701769D1*
X509274Y699155D1*
X510181Y696365D1*
X510639Y693467D1*
Y690533D1*
X502639Y797533D2*
X502181Y794635D1*
X501274Y791845D1*
X499942Y789231D1*
X498218Y786857D1*
X496143Y784782D1*
X493769Y783058D1*
X491155Y781726D1*
X488365Y780819D1*
X485467Y780361D1*
X482533D1*
X479635Y780819D1*
X476845Y781726D1*
X474231Y783058D1*
X471857Y784782D1*
X469782Y786857D1*
X468058Y789231D1*
X466726Y791845D1*
X465819Y794635D1*
X465361Y797533D1*
Y800467D1*
X465819Y803365D1*
X466726Y806155D1*
X468058Y808769D1*
X469782Y811143D1*
X471857Y813218D1*
X474231Y814942D1*
X476845Y816274D1*
X479635Y817181D1*
X482533Y817639D1*
X485467D1*
X488365Y817181D1*
X491155Y816274D1*
X493769Y814942D1*
X496143Y813218D1*
X498218Y811143D1*
X499942Y808769D1*
X501274Y806155D1*
X502181Y803365D1*
X502639Y800467D1*
Y797533D1*
X469639Y545533D2*
X469181Y542635D1*
X468274Y539845D1*
X466942Y537231D1*
X465218Y534857D1*
X463143Y532782D1*
X460769Y531058D1*
X458155Y529726D1*
X455365Y528819D1*
X452467Y528361D1*
X449533D1*
X446635Y528819D1*
X443845Y529726D1*
X441231Y531058D1*
X438857Y532782D1*
X436782Y534857D1*
X435058Y537231D1*
X433726Y539845D1*
X432819Y542635D1*
X432361Y545533D1*
Y548467D1*
X432819Y551365D1*
X433726Y554155D1*
X435058Y556769D1*
X436782Y559143D1*
X438857Y561218D1*
X441231Y562942D1*
X443845Y564274D1*
X446635Y565181D1*
X449533Y565639D1*
X452467D1*
X455365Y565181D1*
X458155Y564274D1*
X460769Y562942D1*
X463143Y561218D1*
X465218Y559143D1*
X466942Y556769D1*
X468274Y554155D1*
X469181Y551365D1*
X469639Y548467D1*
Y545533D1*
X385639Y1212533D2*
X385181Y1209635D1*
X384274Y1206845D1*
X382942Y1204231D1*
X381218Y1201857D1*
X379143Y1199782D1*
X376769Y1198058D1*
X374155Y1196726D1*
X371365Y1195819D1*
X368467Y1195361D1*
X365533D1*
X362635Y1195819D1*
X359845Y1196726D1*
X357231Y1198058D1*
X354857Y1199782D1*
X352782Y1201857D1*
X351058Y1204231D1*
X349726Y1206845D1*
X348819Y1209635D1*
X348361Y1212533D1*
Y1215467D1*
X348819Y1218365D1*
X349726Y1221155D1*
X351058Y1223769D1*
X352782Y1226143D1*
X354857Y1228218D1*
X357231Y1229942D1*
X359845Y1231274D1*
X362635Y1232181D1*
X365533Y1232639D1*
X368467D1*
X371365Y1232181D1*
X374155Y1231274D1*
X376769Y1229942D1*
X379143Y1228218D1*
X381218Y1226143D1*
X382942Y1223769D1*
X384274Y1221155D1*
X385181Y1218365D1*
X385639Y1215467D1*
Y1212533D1*
X511521Y1216193D2*
X510168Y1215427D1*
X507458Y1214304D1*
X504605Y1213619D1*
X501680Y1213390D1*
X498755Y1213619D1*
X495902Y1214304D1*
X493192Y1215427D1*
X490690Y1216961D1*
X488459Y1218866D1*
X486554Y1221097D1*
X485020Y1223598D1*
X483898Y1226308D1*
X483213Y1229161D1*
X482983Y1232087D1*
X483213Y1235012D1*
X483898Y1237865D1*
X485020Y1240575D1*
X486554Y1243076D1*
X488459Y1245307D1*
X490690Y1247213D1*
X493192Y1248747D1*
X495902Y1249869D1*
X498755Y1250554D1*
X501680Y1250783D1*
X504605Y1250554D1*
X507458Y1249869D1*
X510168Y1248747D1*
X511521Y1247980D1*
X512877Y1248747D1*
X515587Y1249869D1*
X518440Y1250554D1*
X521365Y1250783D1*
X524290Y1250554D1*
X527143Y1249869D1*
X529853Y1248747D1*
X531206Y1247980D1*
X532562Y1248747D1*
X535272Y1249869D1*
X538125Y1250554D1*
X541050Y1250783D1*
X543975Y1250554D1*
X546828Y1249869D1*
X549538Y1248747D1*
X550891Y1247980D1*
X552247Y1248747D1*
X554957Y1249869D1*
X557810Y1250554D1*
X560735Y1250783D1*
X563660Y1250554D1*
X566513Y1249869D1*
X569223Y1248747D1*
X570576Y1247980D1*
X571932Y1248747D1*
X574642Y1249869D1*
X577495Y1250554D1*
X580420Y1250783D1*
X583345Y1250554D1*
X586198Y1249869D1*
X588908Y1248747D1*
X591409Y1247213D1*
X593640Y1245307D1*
X595546Y1243076D1*
X597080Y1240575D1*
X598202Y1237865D1*
X598887Y1235012D1*
X599117Y1232087D1*
X598887Y1229161D1*
X598202Y1226308D1*
X597080Y1223598D1*
X595546Y1221097D1*
X593640Y1218866D1*
X591409Y1216961D1*
X588908Y1215427D1*
X586198Y1214304D1*
X583345Y1213619D1*
X580420Y1213390D1*
X577495Y1213619D1*
X574642Y1214304D1*
X571932Y1215427D1*
X570579Y1216193D1*
X569223Y1215427D1*
X566513Y1214304D1*
X563660Y1213619D1*
X560735Y1213390D1*
X557810Y1213619D1*
X554957Y1214304D1*
X552247Y1215427D1*
X550894Y1216193D1*
X549538Y1215427D1*
X546828Y1214304D1*
X543975Y1213619D1*
X541050Y1213390D1*
X538125Y1213619D1*
X535272Y1214304D1*
X532562Y1215427D1*
X531209Y1216193D1*
X529853Y1215427D1*
X527143Y1214304D1*
X524290Y1213619D1*
X521365Y1213390D1*
X518440Y1213619D1*
X515587Y1214304D1*
X512877Y1215427D1*
X511524Y1216193D1*
X669001D2*
X667648Y1215427D1*
X664938Y1214304D1*
X662085Y1213619D1*
X659160Y1213390D1*
X656235Y1213619D1*
X653382Y1214304D1*
X650672Y1215427D1*
X648171Y1216961D1*
X645940Y1218866D1*
X644034Y1221097D1*
X642500Y1223598D1*
X641378Y1226308D1*
X640693Y1229161D1*
X640463Y1232087D1*
X640693Y1235012D1*
X641378Y1237865D1*
X642500Y1240575D1*
X644034Y1243076D1*
X645940Y1245307D1*
X648171Y1247213D1*
X650672Y1248747D1*
X653382Y1249869D1*
X656235Y1250554D1*
X659160Y1250783D1*
X662085Y1250554D1*
X664938Y1249869D1*
X667648Y1248747D1*
X669001Y1247980D1*
X670357Y1248747D1*
X673067Y1249869D1*
X675920Y1250554D1*
X678845Y1250783D1*
X681770Y1250554D1*
X684623Y1249869D1*
X687333Y1248747D1*
X688686Y1247980D1*
X690042Y1248747D1*
X692752Y1249869D1*
X695605Y1250554D1*
X698530Y1250783D1*
X701455Y1250554D1*
X704308Y1249869D1*
X707018Y1248747D1*
X708371Y1247980D1*
X709727Y1248747D1*
X712437Y1249869D1*
X715290Y1250554D1*
X718215Y1250783D1*
X721140Y1250554D1*
X723993Y1249869D1*
X726703Y1248747D1*
X729205Y1247213D1*
X731436Y1245307D1*
X733341Y1243076D1*
X734875Y1240575D1*
X735997Y1237865D1*
X736682Y1235012D1*
X736912Y1232087D1*
X736682Y1229161D1*
X735997Y1226308D1*
X734875Y1223598D1*
X733341Y1221097D1*
X731436Y1218866D1*
X729205Y1216961D1*
X726703Y1215427D1*
X723993Y1214304D1*
X721140Y1213619D1*
X718215Y1213390D1*
X715290Y1213619D1*
X712437Y1214304D1*
X709727Y1215427D1*
X708374Y1216193D1*
X707018Y1215427D1*
X704308Y1214304D1*
X701455Y1213619D1*
X698530Y1213390D1*
X695605Y1213619D1*
X692752Y1214304D1*
X690042Y1215427D1*
X688689Y1216193D1*
X687333Y1215427D1*
X684623Y1214304D1*
X681770Y1213619D1*
X678845Y1213390D1*
X675920Y1213619D1*
X673067Y1214304D1*
X670357Y1215427D1*
X669004Y1216193D1*
X933705Y1230619D2*
X933247Y1227722D1*
X932340Y1224932D1*
X931008Y1222318D1*
X929283Y1219944D1*
X927209Y1217869D1*
X924835Y1216144D1*
X922220Y1214812D1*
X919430Y1213906D1*
X916533Y1213448D1*
X913598D1*
X910701Y1213906D1*
X907911Y1214812D1*
X905297Y1216144D1*
X902923Y1217869D1*
X900848Y1219944D1*
X899123Y1222318D1*
X897791Y1224932D1*
X896885Y1227722D1*
X896427Y1230619D1*
Y1233554D1*
X896885Y1236451D1*
X897791Y1239241D1*
X899123Y1241856D1*
X900848Y1244230D1*
X902923Y1246304D1*
X905297Y1248029D1*
X907911Y1249361D1*
X910701Y1250268D1*
X913598Y1250726D1*
X916533D1*
X919430Y1250268D1*
X922220Y1249361D1*
X924835Y1248029D1*
X927209Y1246304D1*
X929283Y1244230D1*
X931008Y1241856D1*
X932340Y1239241D1*
X933247Y1236451D1*
X933705Y1233554D1*
Y1230619D1*
X973075D2*
X972617Y1227722D1*
X971710Y1224932D1*
X970378Y1222318D1*
X968654Y1219944D1*
X966579Y1217869D1*
X964205Y1216144D1*
X961591Y1214812D1*
X958801Y1213906D1*
X955903Y1213448D1*
X952969D1*
X950071Y1213906D1*
X947281Y1214812D1*
X944667Y1216144D1*
X942293Y1217869D1*
X940218Y1219944D1*
X938493Y1222318D1*
X937161Y1224932D1*
X936255Y1227722D1*
X935797Y1230619D1*
Y1233554D1*
X936255Y1236451D1*
X937161Y1239241D1*
X938493Y1241856D1*
X940218Y1244230D1*
X942293Y1246304D1*
X944667Y1248029D1*
X947281Y1249361D1*
X950071Y1250268D1*
X952969Y1250726D1*
X955903D1*
X958801Y1250268D1*
X961591Y1249361D1*
X964205Y1248029D1*
X966579Y1246304D1*
X968654Y1244230D1*
X970378Y1241856D1*
X971710Y1239241D1*
X972617Y1236451D1*
X973075Y1233554D1*
Y1230619D1*
X798639Y554530D2*
X798181Y551633D1*
X797274Y548843D1*
X795942Y546228D1*
X794218Y543854D1*
X792143Y541780D1*
X789769Y540055D1*
X787155Y538723D1*
X784365Y537816D1*
X781467Y537358D1*
X778533D1*
X775635Y537816D1*
X772845Y538723D1*
X770231Y540055D1*
X767857Y541780D1*
X765782Y543854D1*
X764058Y546228D1*
X762726Y548843D1*
X761819Y551633D1*
X761361Y554530D1*
Y557465D1*
X761819Y560362D1*
X762726Y563152D1*
X764058Y565766D1*
X765782Y568140D1*
X767857Y570215D1*
X770231Y571940D1*
X772845Y573272D1*
X775635Y574178D1*
X778533Y574636D1*
X781467D1*
X784365Y574178D1*
X787155Y573272D1*
X789769Y571940D1*
X792143Y570215D1*
X794218Y568140D1*
X795942Y565766D1*
X797274Y563152D1*
X798181Y560362D1*
X798639Y557465D1*
Y554530D1*
X773639Y654530D2*
X773181Y651633D1*
X772274Y648843D1*
X770942Y646228D1*
X769218Y643854D1*
X767143Y641780D1*
X764769Y640055D1*
X762155Y638723D1*
X759365Y637816D1*
X756467Y637358D1*
X753533D1*
X750635Y637816D1*
X747845Y638723D1*
X745231Y640055D1*
X742857Y641780D1*
X740782Y643854D1*
X739058Y646228D1*
X737726Y648843D1*
X736819Y651633D1*
X736361Y654530D1*
Y657465D1*
X736819Y660362D1*
X737726Y663152D1*
X739058Y665766D1*
X740782Y668140D1*
X742857Y670215D1*
X745231Y671940D1*
X747845Y673272D1*
X750635Y674178D1*
X753533Y674636D1*
X756467D1*
X759365Y674178D1*
X762155Y673272D1*
X764769Y671940D1*
X767143Y670215D1*
X769218Y668140D1*
X770942Y665766D1*
X772274Y663152D1*
X773181Y660362D1*
X773639Y657465D1*
Y654530D1*
X916629Y855377D2*
X916437Y853762D1*
X916121Y852169D1*
X915680Y850606D1*
X915117Y849081D1*
X914437Y847606D1*
X913643Y846189D1*
X912740Y844837D1*
X911735Y843562D1*
X910631Y842369D1*
X909438Y841265D1*
X908163Y840260D1*
X906811Y839357D1*
X905394Y838563D1*
X903919Y837883D1*
X902394Y837320D1*
X900831Y836879D1*
X899238Y836563D1*
X897623Y836371D1*
X896000Y836308D1*
X894377Y836371D1*
X892762Y836563D1*
X891169Y836879D1*
X889606Y837320D1*
X888081Y837883D1*
X886606Y838563D1*
X885189Y839357D1*
X883837Y840260D1*
X882562Y841265D1*
X881369Y842369D1*
X880265Y843562D1*
X879260Y844837D1*
X878357Y846189D1*
X877563Y847606D1*
X876883Y849081D1*
X876320Y850606D1*
X875879Y852169D1*
X875563Y853762D1*
X875371Y855377D1*
X875308Y857000D1*
X875371Y858623D1*
X875563Y860238D1*
X875879Y861831D1*
X876320Y863394D1*
X876883Y864919D1*
X877563Y866394D1*
X878357Y867811D1*
X879260Y869163D1*
X880265Y870438D1*
X881369Y871631D1*
X882562Y872735D1*
X883837Y873740D1*
X885189Y874643D1*
X886606Y875437D1*
X888081Y876117D1*
X889606Y876680D1*
X891169Y877121D1*
X892762Y877437D1*
X894377Y877629D1*
X896000Y877692D1*
X897623Y877629D1*
X899238Y877437D1*
X900831Y877121D1*
X902394Y876680D1*
X903919Y876117D1*
X905394Y875437D1*
X906811Y874643D1*
X908163Y873740D1*
X909438Y872735D1*
X910631Y871631D1*
X911735Y870438D1*
X912740Y869163D1*
X913643Y867811D1*
X914437Y866394D1*
X915117Y864919D1*
X915680Y863394D1*
X916121Y861831D1*
X916437Y860238D1*
X916629Y858623D1*
X916692Y857000D1*
X916629Y855377D1*
D23*
X42008Y261995D3*
D30*
X98425Y1013780D3*
Y1062992D3*
Y1112205D3*
X1281000Y1560394D3*
Y1609606D3*
Y885000D3*
Y934213D3*
D35*
X1283007Y55997D3*
Y155997D3*
Y255997D3*
Y355997D3*
Y455997D3*
M02*
